<svg width="453" height="107" viewBox="0 0 453 107" fill="none" xmlns="http://www.w3.org/2000/svg">
<path fill-rule="evenodd" clip-rule="evenodd" d="M56.8365 1C56.4965 1.55 56.7215 2 57.3363 2C57.9512 2 58.1881 2.43 57.8632 2.956C57.5383 3.482 56.7245 3.705 56.0546 3.45C55.3848 3.196 53.1323 4.509 51.0488 6.367C47.6026 9.441 47.4446 9.794 49.2992 10.28C50.4199 10.573 51.3377 10.405 51.3377 9.906C51.3377 8.339 53.1823 8.917 55.2458 11.132C57.2294 13.262 57.2294 13.266 55.0349 15.06C52.8874 16.815 52.7754 16.788 50.095 13.874C46.8368 10.331 46.9178 10.298 37.455 19.165C30.3106 25.861 28.741 27.928 32.2112 26.07C33.2379 25.52 34.4247 25.392 34.8466 25.785C35.2695 26.178 35.4024 25.825 35.1415 25C34.8366 24.034 35.7594 23.038 37.7349 22.201C39.9784 21.251 40.4423 20.681 39.4645 20.076C38.3807 19.407 38.3717 19.099 39.4155 18.453C40.9891 17.481 52.3375 17.162 52.3375 18.091C52.3375 19.453 49.1812 21.366 48.5124 20.408C47.7786 19.359 42.7947 19.212 41.796 20.21C40.8622 21.145 43.2976 25.144 44.3894 24.469C46.2619 23.312 45.2931 25.694 43.0257 27.826C40.7032 30.007 38.7407 30.78 39.7754 29.105C40.0803 28.612 39.7004 27.968 38.9316 27.673C37.267 27.034 33.3419 27.931 33.3419 28.95C33.3419 30.479 34.7206 30.93 36.0413 29.834C37.084 28.968 37.7099 28.969 38.5767 29.836C39.4445 30.704 39.0416 31.702 36.9401 33.897C34.6586 36.279 33.6718 36.669 31.4983 36.048C28.3311 35.144 23.9291 36.243 26.6045 37.27C27.4933 37.611 29.4458 37.668 30.9445 37.396C33.3289 36.963 33.5059 37.097 32.3641 38.473C31.6343 39.354 30.2796 39.797 29.2859 39.482C28.3101 39.172 27.1753 39.463 26.7634 40.129C26.2486 40.962 26.5345 41.141 27.6792 40.701C30.4866 39.624 29.5498 41.381 24.8649 45.979C22.4015 48.397 20.5629 50.551 20.7778 50.766C20.9928 50.981 30.1077 42.125 41.0341 31.086L60.8995 11.015L123.853 10.75L186.806 10.485L123.271 10.242C82.0196 10.085 59.3149 10.351 58.5361 11C57.6843 11.71 57.6083 11.67 58.2751 10.861C58.899 10.104 58.5101 9.151 57.1134 8.02C55.6607 6.844 55.3708 6.097 56.1746 5.6C56.8135 5.205 57.3363 5.319 57.3363 5.853C57.3363 6.386 59.5828 6.708 62.3282 6.568C66.4102 6.36 67.1161 6.558 66.2043 7.657C65.2735 8.778 74.4924 9 122.115 9C158.466 9 179.262 8.645 179.475 8.02C179.99 6.504 191.56 6.264 192.058 7.759C192.597 9.375 196.966 9.368 197.721 7.75C198.187 6.75 198.421 6.75 198.886 7.75C199.207 8.438 200.643 9 202.077 9C204.6 9 204.622 8.95 202.744 7.448C200.88 5.958 200.902 5.924 203.302 6.583C204.677 6.961 206.027 7.546 206.302 7.885C207.13 8.903 212.392 8.958 211.764 7.941C211.443 7.42 212.771 7 214.741 7C216.697 7 218.299 7.45 218.299 8C218.299 8.55 220.211 8.936 222.548 8.858L226.797 8.716L222.798 8.006C219.137 7.356 232.275 7.436 251.291 8.178C255.415 8.34 259.914 8.111 261.289 7.67C263.16 7.071 263.411 7.133 262.289 7.919C261.234 8.658 276.367 8.924 313.277 8.817C342.145 8.733 363.065 8.365 359.766 8L353.767 7.336L360.516 7.168C364.46 7.07 367.264 7.415 367.264 8C367.264 9.466 369.188 9.219 370.87 7.537C372.868 5.537 381.818 5.624 380.155 7.627C379.228 8.746 379.733 9.045 382.889 9.241C385.017 9.374 349.194 9.716 303.279 10L219.799 10.517L305.288 10.759L390.777 11L411.254 31.5C427.986 48.251 431.288 52 429.303 52C427.476 52 422.214 47.29 408.074 33L389.273 14H226.044H62.8151L43.8295 33.036C28.68 48.225 24.339 52.043 22.3445 51.93C20.9698 51.852 19.3992 51.836 18.8543 51.894C18.3094 51.952 27.5283 61.675 39.3405 73.5L60.8185 95H225.974H391.13L412.125 73.775C427.421 58.312 432.848 52.221 432.115 51.339C431.437 50.522 431.476 49.375 432.235 47.814C433.241 45.744 433.211 45.684 431.951 47.241C430.622 48.884 430.438 48.866 428.681 46.924L426.819 44.866L435.078 45.282L443.337 45.699L439.773 42.76C436.711 40.236 435.295 39.799 429.729 39.661C426.166 39.572 423.126 39.872 422.975 40.327C422.824 40.781 421.878 40.244 420.871 39.132C419.047 37.116 419.063 37.112 426.862 37.668C433.542 38.144 434.509 38.018 433.502 36.805C432.404 35.482 425.097 35.255 420.091 36.39C419.14 36.605 416.847 35.144 414.725 32.971L411.019 29.175L418.885 29.696C425.043 30.103 426.499 29.952 425.592 28.999C424.472 27.823 413.055 27.387 411.328 28.454C410.884 28.728 409.751 28.102 408.81 27.061C406.959 25.016 407.15 25.005 419.14 26.497L422.527 26.919L416.641 21.357C413.403 18.298 407 12.241 402.412 7.898L394.07 0H225.762C114.635 0 57.2444 0.34 56.8365 1ZM65.8344 3C66.1863 3.569 65.3255 4 63.8348 4C62.3442 4 61.4834 3.569 61.8353 3C62.1752 2.45 63.075 2 63.8348 2C64.5947 2 65.4944 2.45 65.8344 3ZM226.297 3C226.297 3.55 225.82 4 225.238 4C224.656 4 224.458 3.55 224.797 3C225.137 2.45 225.613 2 225.856 2C226.099 2 226.297 2.45 226.297 3ZM378.262 3C378.262 3.55 377.56 4 376.703 4C375.846 4 375.422 3.55 375.762 3C376.102 2.45 376.803 2 377.321 2C377.839 2 378.262 2.45 378.262 3ZM385.26 3C386.425 3.753 386.132 3.973 383.951 3.985C382.331 3.994 381.404 3.577 381.761 3C382.528 1.758 383.34 1.758 385.26 3ZM389.094 7.123C388.36 7.589 386.635 7.962 385.26 7.953C382.938 7.938 382.888 7.84 384.556 6.574C385.545 5.825 387.27 5.451 388.39 5.745C389.946 6.151 390.112 6.478 389.094 7.123ZM54.337 7C54.337 7.55 53.8871 8 53.3373 8C52.7874 8 52.3375 7.55 52.3375 7C52.3375 6.45 52.7874 6 53.3373 6C53.8871 6 54.337 6.45 54.337 7ZM258.019 6.604C257.687 6.936 256.824 6.972 256.103 6.683C255.305 6.364 255.542 6.127 256.707 6.079C257.761 6.036 258.351 6.272 258.019 6.604ZM284.358 7.772C274.776 7.924 266.587 7.7 266.16 7.274C265.733 6.848 273.572 6.724 283.582 6.998L301.78 7.495L284.358 7.772ZM331.273 7C332.445 7.758 332.187 7.973 330.082 7.985C328.602 7.993 327.114 7.55 326.774 7C325.985 5.723 329.297 5.723 331.273 7ZM395.258 7.545C395.258 7.727 394.389 7.81 393.327 7.73C392.266 7.65 391.606 7.248 391.86 6.836C392.283 6.153 395.258 6.773 395.258 7.545ZM59.3359 8C59.3359 8.55 60.5726 8.968 62.0852 8.93C64.5217 8.867 64.6067 8.762 62.8351 8C60.1047 6.826 59.3359 6.826 59.3359 8ZM72.6018 7.656C71.9249 7.93 70.5753 7.947 69.6025 7.693C68.6297 7.439 69.1836 7.215 70.8332 7.195C72.4828 7.175 73.2786 7.382 72.6018 7.656ZM82.0596 7.604C81.7277 7.936 80.8649 7.972 80.144 7.683C79.3462 7.364 79.5832 7.127 80.7479 7.079C81.8017 7.036 82.3915 7.272 82.0596 7.604ZM90.0907 7.687C89.135 7.937 87.3354 7.946 86.0917 7.707C84.8479 7.468 85.6298 7.263 87.8293 7.252C90.0287 7.241 91.0465 7.437 90.0907 7.687ZM105.589 7.704C104.359 7.941 102.11 7.947 100.59 7.718C99.0706 7.488 100.076 7.294 102.826 7.286C105.575 7.279 106.819 7.467 105.589 7.704ZM112.053 7.604C111.721 7.936 110.858 7.972 110.137 7.683C109.339 7.364 109.576 7.127 110.741 7.079C111.795 7.036 112.385 7.272 112.053 7.604ZM128.07 7.716C126.558 7.945 124.083 7.945 122.571 7.716C121.06 7.487 122.296 7.3 125.321 7.3C128.345 7.3 129.582 7.487 128.07 7.716ZM144.566 7.706C143.328 7.944 141.305 7.944 140.067 7.706C138.829 7.467 139.842 7.272 142.317 7.272C144.791 7.272 145.804 7.467 144.566 7.706ZM173.098 7.738C169.958 7.936 164.559 7.937 161.101 7.741C157.643 7.546 160.212 7.384 166.811 7.382C173.409 7.38 176.239 7.54 173.098 7.738ZM186.306 8C186.306 8.55 186.783 9 187.365 9C187.947 9 188.146 8.55 187.806 8C187.466 7.45 186.99 7 186.747 7C186.504 7 186.306 7.45 186.306 8ZM248.021 7.604C247.689 7.936 246.826 7.972 246.105 7.683C245.308 7.364 245.545 7.127 246.709 7.079C247.763 7.036 248.353 7.272 248.021 7.604ZM318.526 7.732C316.189 7.943 312.364 7.943 310.028 7.732C307.691 7.522 309.603 7.349 314.277 7.349C318.951 7.349 320.862 7.522 318.526 7.732ZM336.001 7.604C335.669 7.936 334.806 7.972 334.085 7.683C333.287 7.364 333.524 7.127 334.689 7.079C335.743 7.036 336.333 7.272 336.001 7.604ZM342.539 7.656C341.862 7.93 340.513 7.947 339.54 7.693C338.567 7.439 339.121 7.215 340.771 7.195C342.42 7.175 343.216 7.382 342.539 7.656ZM352.03 7.687C351.074 7.937 349.275 7.946 348.031 7.707C346.787 7.468 347.569 7.263 349.768 7.252C351.968 7.241 352.986 7.437 352.03 7.687ZM374.263 8C374.263 8.55 374.713 9 375.263 9C375.812 9 376.262 8.55 376.262 8C376.262 7.45 375.812 7 375.263 7C374.713 7 374.263 7.45 374.263 8ZM183.12 8.683C183.841 8.972 184.704 8.936 185.036 8.604C185.368 8.272 184.778 8.036 183.724 8.079C182.559 8.127 182.322 8.364 183.12 8.683ZM229.058 8.707C230.302 8.946 232.102 8.937 233.058 8.687C234.013 8.437 232.996 8.241 230.796 8.252C228.597 8.263 227.815 8.468 229.058 8.707ZM188.119 10.683C188.84 10.972 189.703 10.936 190.035 10.604C190.366 10.272 189.777 10.036 188.723 10.079C187.558 10.127 187.321 10.364 188.119 10.683ZM192.118 10.683C192.839 10.972 193.702 10.936 194.034 10.604C194.366 10.272 193.776 10.036 192.722 10.079C191.557 10.127 191.32 10.364 192.118 10.683ZM196.054 10.662C196.742 10.94 197.867 10.94 198.554 10.662C199.241 10.385 198.679 10.158 197.304 10.158C195.929 10.158 195.367 10.385 196.054 10.662ZM202.572 10.693C203.544 10.947 204.894 10.93 205.571 10.656C206.248 10.382 205.452 10.175 203.802 10.195C202.153 10.215 201.599 10.439 202.572 10.693ZM214.569 10.693C215.542 10.947 216.891 10.93 217.568 10.656C218.245 10.382 217.449 10.175 215.8 10.195C214.15 10.215 213.596 10.439 214.569 10.693ZM398.766 11.015C399.101 11.557 398.336 12.014 397.066 12.032C394.834 12.063 394.821 12.111 396.676 13.515C398.208 14.675 398.893 14.719 400.089 13.733C401.388 12.661 401.427 12.794 400.386 14.75C398.971 17.404 399.865 17.665 402.427 15.345C403.433 14.435 404.256 14.162 404.256 14.738C404.256 15.314 403.581 16.045 402.756 16.362C399.838 17.482 401.31 18.548 405.256 18.171C407.739 17.935 409.255 18.209 409.255 18.895C409.255 19.503 407.819 20 406.064 20C403.157 20 403.036 20.119 404.701 21.336C405.817 22.153 408.179 22.507 410.776 22.248C413.114 22.015 415.306 22.276 415.648 22.829C416.029 23.447 414.943 23.73 412.836 23.563C410.948 23.413 408.807 23.661 408.079 24.113C407.167 24.68 404.654 22.853 400.007 18.245C396.296 14.565 393.258 11.302 393.258 10.995C393.258 9.988 398.143 10.006 398.766 11.015ZM403.756 11C404.096 11.55 403.897 12 403.315 12C402.733 12 402.256 11.55 402.256 11C402.256 10.45 402.454 10 402.697 10C402.94 10 403.416 10.45 403.756 11ZM51.2478 13.111C52.8904 14.453 53.9831 14.754 54.68 14.057C56.0456 12.691 55.0009 11.796 51.6207 11.437L48.8383 11.142L51.2478 13.111ZM202.489 12.748C211.663 12.913 226.96 12.913 236.481 12.749C246.002 12.584 238.494 12.449 219.799 12.449C201.103 12.449 193.314 12.583 202.489 12.748ZM47.3477 15.489C46.099 16.994 44.3394 16.673 44.3394 14.941C44.3394 14.423 45.2941 14 46.4609 14C48.2275 14 48.3764 14.25 47.3477 15.489ZM7.34795 16.044C7.34795 17.34 12.4448 37.196 12.9457 37.85C13.0926 38.043 13.6495 37.931 14.1824 37.601C14.7932 37.224 14.6842 35.43 13.8904 32.751C11.8489 25.87 11.0931 20.725 12.2278 21.426C12.7817 21.769 16.4098 22.079 20.2889 22.115C24.169 22.152 27.3433 22.619 27.3433 23.154C27.3433 23.688 26.5555 24.046 25.5937 23.948C24.6319 23.85 23.3942 23.863 22.8444 23.978C22.2945 24.092 19.932 24.11 17.5956 24.017C14.9462 23.912 13.3466 24.285 13.3466 25.007C13.3466 25.789 15.0982 26.04 18.7373 25.781C22.8663 25.487 24.0121 25.702 23.6292 26.699C23.3552 27.414 21.9985 28 20.6159 28C18.4564 28 18.2824 28.22 19.3872 29.551C20.4739 30.86 20.3379 31.189 18.5094 31.667C16.6158 32.163 15.3661 34 16.9237 34C17.7755 34 32.3421 20.777 32.3421 20.004C32.3421 19.642 27.2813 18.772 21.0948 18.071C14.9092 17.37 9.2855 16.337 8.59766 15.776C7.71687 15.056 7.34795 15.135 7.34795 16.044ZM440.892 17.766C440.586 18.261 435.834 19.239 430.332 19.941L420.327 21.216L426.038 26.358C429.179 29.186 432.984 32.782 434.492 34.349C437.618 37.595 437.275 38.083 440.259 26.134C442.147 18.576 442.392 15.339 440.892 17.766ZM17.2626 19.644C17.4916 19.84 16.0289 20 14.0134 20C11.9969 20 10.3473 19.561 10.3473 19.025C10.3473 18.164 16.1379 18.682 17.2626 19.644ZM439.248 21C439.248 21.55 438.236 21.968 436.998 21.93C434.852 21.863 434.841 21.82 436.748 21C437.848 20.527 438.861 20.109 438.998 20.07C439.135 20.032 439.248 20.45 439.248 21ZM48.1405 22.531C47.0587 23.614 43.3396 23.849 43.3396 22.836C43.3396 22.258 44.0004 22.04 44.8073 22.349C45.6141 22.659 46.5588 22.452 46.9068 21.89C47.2547 21.327 47.7936 21.122 48.1055 21.433C48.4164 21.745 48.4324 22.239 48.1405 22.531ZM433.978 21.604C433.646 21.936 432.783 21.972 432.062 21.683C431.264 21.364 431.501 21.127 432.666 21.079C433.72 21.036 434.31 21.272 433.978 21.604ZM37.8869 23.925C37.5709 24.437 38.2518 25.154 39.4015 25.519C42.2388 26.42 42.9917 25.419 40.4863 24.078C39.2685 23.426 38.2328 23.365 37.8869 23.925ZM437.852 25.589C437.584 26.287 437.065 28.461 436.697 30.42C436.329 32.379 435.648 33.747 435.183 33.459C434.717 33.171 434.59 32.275 434.9 31.468C435.282 30.472 434.805 30 433.415 30C432.289 30 431.09 29.55 430.75 29C430.389 28.417 431.405 28 433.19 28C434.872 28 436.248 27.55 436.248 27C436.248 26.45 434.197 26 431.69 26C428.859 26 427.37 25.615 427.76 24.984C428.719 23.432 438.456 24.016 437.852 25.589ZM27.3433 28.5C26.2916 29.767 26.4965 30 28.662 30C31.6793 30 33.015 28.472 30.7545 27.605C28.672 26.805 28.771 26.779 27.3433 28.5ZM15.1591 28.683C15.88 28.972 16.7428 28.936 17.0747 28.604C17.4066 28.272 16.8168 28.036 15.763 28.079C14.5983 28.127 14.3613 28.364 15.1591 28.683ZM415.783 30.951C414.54 32.963 416.226 33.699 422.047 33.685C425.271 33.677 428.435 33.996 429.079 34.394C429.723 34.792 430.25 34.664 430.25 34.109C430.25 32.297 426.998 31.224 423.095 31.748C420.874 32.046 418.676 31.767 417.852 31.082C416.882 30.277 416.225 30.235 415.783 30.951ZM20.9278 34.542C17.1857 37.847 17.5566 38.843 21.8446 37C23.2133 36.412 23.3712 36.106 22.3445 36.03C21.4667 35.966 21.9856 35.301 23.5942 34.428C25.1068 33.607 26.3435 32.5 26.3435 31.968C26.3435 30.312 24.9869 30.957 20.9278 34.542ZM31.3424 31.858C31.3424 33.759 34.7106 34.057 36.2692 32.294C37.133 31.315 37.21 31.053 36.4382 31.71C35.4664 32.538 34.4667 32.602 33.189 31.918C32.0962 31.333 31.3424 31.309 31.3424 31.858ZM14.4173 40.415C13.6865 41.295 14.8182 41.585 18.8923 41.562C21.8906 41.545 24.344 41.187 24.344 40.766C24.344 40.344 23.7821 39.971 23.0943 39.936C22.4075 39.901 20.3929 39.729 18.6193 39.554C16.8457 39.379 14.9552 39.767 14.4173 40.415ZM438.244 42.596C439.034 43.386 437.761 43.74 433.649 43.874C430.521 43.977 427.637 44.261 427.239 44.507C426.843 44.752 425.753 44.108 424.819 43.075C423.17 41.253 423.33 41.201 430.136 41.35C433.995 41.435 437.644 41.996 438.244 42.596ZM10.7742 44.479C9.7144 45.28 9.2975 45.944 9.84737 45.953C11.333 45.977 13.8724 44.192 13.2446 43.565C12.9456 43.265 11.8339 43.677 10.7742 44.479ZM15.0502 44.204C14.3283 44.663 14.9702 44.975 16.6548 44.985C18.6333 44.995 19.2412 45.369 18.7123 46.25C18.1774 47.141 18.4344 47.117 19.6091 46.164C20.5159 45.429 21.6956 45.099 22.2315 45.43C22.7674 45.762 23.4592 45.622 23.7691 45.121C24.474 43.98 16.6898 43.162 15.0502 44.204ZM68.3998 47.035C70.9272 48.389 70.8422 49.755 68.0838 52.056C65.3435 54.343 63.4629 54.498 62.6971 52.5C62.3802 51.675 61.4944 51 60.7286 51C58.893 51 58.97 50.062 60.9905 47.829C62.8461 45.778 65.5164 45.492 68.3998 47.035ZM391.608 48.178C392.435 49.5 392.138 50.289 390.209 51.895C387.272 54.339 385.674 54.522 384.898 52.5C384.582 51.675 383.635 51 382.792 51C380.81 51 380.856 50.104 382.96 47.78C385.021 45.502 390.078 45.734 391.608 48.178ZM6.34818 48.5C4.9975 50.128 5.32042 50.332 7.76585 49.393C8.63565 49.059 9.34749 48.384 9.34749 47.893C9.34749 46.51 7.72786 46.838 6.34818 48.5ZM437.05 48.128C437.434 48.474 439.924 48.985 442.584 49.265C446.101 49.635 447.12 49.474 446.32 48.674C445.715 48.069 443.225 47.557 440.786 47.537C438.347 47.517 436.665 47.783 437.05 48.128ZM12.1088 48.707C13.3526 48.946 15.1521 48.937 16.1079 48.687C17.0637 48.437 16.0459 48.241 13.8464 48.252C11.647 48.263 10.8651 48.468 12.1088 48.707ZM18.3454 49.059C18.3454 49.641 18.7953 49.84 19.3452 49.5C19.895 49.16 20.3449 48.684 20.3449 48.441C20.3449 48.198 19.895 48 19.3452 48C18.7953 48 18.3454 48.477 18.3454 49.059ZM433.749 49C434.089 49.55 434.565 50 434.808 50C435.051 50 435.249 49.55 435.249 49C435.249 48.45 434.772 48 434.19 48C433.608 48 433.409 48.45 433.749 49ZM5.11647 52.168C5.69833 52.75 6.76309 53.028 7.48492 52.788C8.23375 52.538 7.77985 52.085 6.42816 51.731C4.76555 51.296 4.37464 51.426 5.11647 52.168ZM446.238 52.107C445.112 52.88 445.36 52.973 447.246 52.486C449.074 52.014 447.331 54.211 440.747 60.672C431.367 69.877 406.038 93.689 398.257 100.616L393.758 104.621L225.703 104.55L57.6473 104.479L35.7474 83.9C2.92498 53.058 1.49131 51.785 0.11863 52.256C-0.621199 52.51 2.15916 55.822 6.79008 60.205L14.7312 67.718L12.4668 76.953C9.85637 87.6 10.0313 89.938 12.7327 80.503C14.6503 73.804 14.6633 73.797 19.3162 76.804C19.5751 76.972 19.1252 77.527 18.3164 78.039C17.2027 78.743 17.5216 78.973 19.6261 78.985C21.1947 78.993 22.6644 79.67 22.9973 80.537C23.3212 81.382 24.9939 82.823 26.7145 83.738L29.8427 85.402L25.3438 86.068C22.8693 86.435 18.2574 87.052 15.0962 87.439C11.593 87.869 9.34749 88.625 9.34749 89.375C9.34749 90.341 11.7639 90.312 20.5949 89.239C28.641 88.262 32.3361 88.176 33.5779 88.936C34.5326 89.521 35.9873 90 36.8101 90C37.6319 90 42.5308 93.825 47.6966 98.5L57.0874 107H226.205H395.323L403.038 99.515C413.73 89.144 417.504 87.764 431.064 89.269C436.631 89.887 441.501 90.08 441.884 89.696C443.205 88.375 442.195 88.126 428.5 86.39C425.614 86.024 423.251 85.337 423.251 84.862C423.251 84.388 423.678 84 424.199 84C424.721 84 426.362 82.875 427.845 81.5C429.328 80.125 431.361 79 432.364 79C433.495 79 433.987 78.481 433.661 77.631C433.35 76.821 433.97 76.045 435.181 75.728C436.865 75.287 437.432 75.882 438.397 79.103C440.193 85.102 440.471 83.06 438.821 75.983C437.872 71.913 437.676 69.07 438.268 67.963C438.773 67.02 442.349 63.193 446.216 59.459C450.083 55.724 453.134 52.582 452.995 52.475C451.768 51.528 447.427 51.291 446.238 52.107ZM439.061 52.683C439.782 52.972 440.644 52.936 440.976 52.604C441.308 52.272 440.718 52.036 439.665 52.079C438.5 52.127 438.263 52.364 439.061 52.683ZM442.247 53.059C442.247 53.641 442.697 53.84 443.247 53.5C443.797 53.16 444.246 52.684 444.246 52.441C444.246 52.198 443.797 52 443.247 52C442.697 52 442.247 52.477 442.247 53.059ZM439.517 56.693C440.489 56.947 441.839 56.93 442.516 56.656C443.193 56.382 442.397 56.175 440.747 56.195C439.098 56.215 438.544 56.439 439.517 56.693ZM440.326 85.583C440.374 86.748 440.611 86.985 440.93 86.188C441.219 85.466 441.183 84.603 440.851 84.271C440.519 83.939 440.283 84.529 440.326 85.583Z" fill="#FF0000"/>
<path d="M154.172 68.95V68.05C153.438 67.9833 152.722 67.8333 152.022 67.6C151.322 67.3667 150.772 66.8667 150.372 66.1C149.105 63.8 147.938 61.4333 146.872 59C145.838 56.5333 144.805 54.1 143.772 51.7L141.572 46.55V46.6C141.505 46.5 141.438 46.3667 141.372 46.2C141.305 46 141.222 45.7833 141.122 45.55V45.6C140.955 45.2333 140.772 44.8167 140.572 44.35C140.372 43.8833 140.155 43.45 139.922 43.05C139.688 42.6167 139.455 42.2333 139.222 41.9C138.988 41.5667 138.755 41.35 138.522 41.25C138.155 41.15 137.905 41.2167 137.772 41.45C136.772 43.7833 135.772 46.1167 134.772 48.45C133.805 50.7833 132.838 53.1333 131.872 55.5C131.205 57.1 130.505 58.75 129.772 60.45C129.072 62.1167 128.388 63.75 127.722 65.35C127.555 65.65 127.322 65.9833 127.022 66.35C126.755 66.7167 126.455 67.05 126.122 67.35C125.788 67.6167 125.438 67.8167 125.072 67.95C124.705 68.0833 124.355 68.1 124.022 68L123.822 68.9L132.622 69.05C132.955 69.05 133.122 68.9167 133.122 68.65C133.155 68.35 133.005 68.1833 132.672 68.15C132.338 68.0833 131.955 68 131.522 67.9C131.088 67.7667 130.872 67.5167 130.872 67.15C130.872 66.85 130.972 66.35 131.172 65.65C131.405 64.9167 131.688 64.1333 132.022 63.3C132.355 62.4667 132.688 61.6333 133.022 60.8C133.355 59.9667 133.655 59.2833 133.922 58.75H141.972C142.672 60.3167 143.338 61.8167 143.972 63.25C144.605 64.6833 145.255 66.1833 145.922 67.75L145.472 68.3C145.272 68.4667 145.205 68.6333 145.272 68.8C145.372 68.9667 145.555 69.05 145.822 69.05C146.422 69.0833 147.005 69.1167 147.572 69.15C148.138 69.15 148.722 69.15 149.322 69.15C150.155 69.15 150.972 69.1333 151.772 69.1C152.572 69.0667 153.372 69.0167 154.172 68.95ZM141.072 56.6H134.722C135.355 55.1 135.888 53.7 136.322 52.4C136.788 51.0667 137.305 49.6667 137.872 48.2L141.072 56.6ZM177.249 42.8V42C177.249 41.6333 177.032 41.4833 176.599 41.55C176.399 41.5833 176.216 41.6167 176.049 41.65C175.882 41.65 175.749 41.6833 175.649 41.75H175.699C175.432 41.8167 175.166 41.8833 174.899 41.95C174.632 42.0167 174.416 42.05 174.249 42.05H156.399C156.199 42.05 155.932 42.0333 155.599 42C155.299 41.9333 154.982 41.8667 154.649 41.8C154.316 41.7333 153.982 41.6667 153.649 41.6C153.349 41.5 153.132 41.4 152.999 41.3C152.832 41.2333 152.666 41.2333 152.499 41.3C152.332 41.3333 152.216 41.4333 152.149 41.6C152.082 41.8 152.016 42 151.949 42.2C151.916 42.4 151.866 42.5833 151.799 42.75C151.632 43.25 151.466 43.7833 151.299 44.35C151.132 44.9167 151.049 45.4167 151.049 45.85C151.049 46.1833 151.066 46.4 151.099 46.5C151.166 46.7 151.332 46.8167 151.599 46.85C151.866 46.8833 152.066 46.8 152.199 46.6C152.566 45.9333 153.049 45.3667 153.649 44.9C154.282 44.4333 154.966 44.2 155.699 44.2H162.049V65.25C162.049 65.85 162.016 66.3333 161.949 66.7C161.882 67.0333 161.766 67.3 161.599 67.5C161.432 67.7 161.182 67.85 160.849 67.95C160.516 68.0167 160.099 68.0833 159.599 68.15C159.299 68.2167 159.149 68.3833 159.149 68.65C159.182 68.9167 159.349 69.05 159.649 69.05C161.349 69.1167 163.032 69.1667 164.699 69.2C166.399 69.2333 168.099 69.25 169.799 69.25C170.066 69.25 170.249 69.1833 170.349 69.05C170.449 68.9167 170.449 68.7667 170.349 68.6C170.216 68.3333 169.982 68.1667 169.649 68.1C169.349 68.0333 169.016 67.9833 168.649 67.95C168.449 67.9167 168.199 67.8833 167.899 67.85C167.632 67.8167 167.432 67.7667 167.299 67.7H167.249C167.182 67.6667 167.116 67.5333 167.049 67.3C166.982 67.0333 166.916 66.75 166.849 66.45C166.816 66.1167 166.766 65.8167 166.699 65.55C166.666 65.25 166.649 65.05 166.649 64.95V44.25C166.882 44.3167 167.016 44.3333 167.049 44.3C167.116 44.2667 167.282 44.25 167.549 44.25C167.882 44.25 168.216 44.25 168.549 44.25C168.882 44.25 169.199 44.2333 169.499 44.2C169.799 44.1667 170.082 44.15 170.349 44.15C170.616 44.15 170.882 44.15 171.149 44.15C172.216 44.15 173.166 44.3167 173.999 44.65C174.866 44.95 175.416 45.6833 175.649 46.85C175.716 47.0833 175.899 47.2 176.199 47.2C176.532 47.2 176.732 47.0833 176.799 46.85C177.099 45.5167 177.249 44.1667 177.249 42.8ZM206.808 68.95V68.05C206.075 67.9833 205.358 67.8333 204.658 67.6C203.958 67.3667 203.408 66.8667 203.008 66.1C201.742 63.8 200.575 61.4333 199.508 59C198.475 56.5333 197.442 54.1 196.408 51.7L194.208 46.55V46.6C194.142 46.5 194.075 46.3667 194.008 46.2C193.942 46 193.858 45.7833 193.758 45.55V45.6C193.592 45.2333 193.408 44.8167 193.208 44.35C193.008 43.8833 192.792 43.45 192.558 43.05C192.325 42.6167 192.092 42.2333 191.858 41.9C191.625 41.5667 191.392 41.35 191.158 41.25C190.792 41.15 190.542 41.2167 190.408 41.45C189.408 43.7833 188.408 46.1167 187.408 48.45C186.442 50.7833 185.475 53.1333 184.508 55.5C183.842 57.1 183.142 58.75 182.408 60.45C181.708 62.1167 181.025 63.75 180.358 65.35C180.192 65.65 179.958 65.9833 179.658 66.35C179.392 66.7167 179.092 67.05 178.758 67.35C178.425 67.6167 178.075 67.8167 177.708 67.95C177.342 68.0833 176.992 68.1 176.658 68L176.458 68.9L185.258 69.05C185.592 69.05 185.758 68.9167 185.758 68.65C185.792 68.35 185.642 68.1833 185.308 68.15C184.975 68.0833 184.592 68 184.158 67.9C183.725 67.7667 183.508 67.5167 183.508 67.15C183.508 66.85 183.608 66.35 183.808 65.65C184.042 64.9167 184.325 64.1333 184.658 63.3C184.992 62.4667 185.325 61.6333 185.658 60.8C185.992 59.9667 186.292 59.2833 186.558 58.75H194.608C195.308 60.3167 195.975 61.8167 196.608 63.25C197.242 64.6833 197.892 66.1833 198.558 67.75L198.108 68.3C197.908 68.4667 197.842 68.6333 197.908 68.8C198.008 68.9667 198.192 69.05 198.458 69.05C199.058 69.0833 199.642 69.1167 200.208 69.15C200.775 69.15 201.358 69.15 201.958 69.15C202.792 69.15 203.608 69.1333 204.408 69.1C205.208 69.0667 206.008 69.0167 206.808 68.95ZM193.708 56.6H187.358C187.992 55.1 188.525 53.7 188.958 52.4C189.425 51.0667 189.942 49.6667 190.508 48.2L193.708 56.6ZM265.484 74L264.984 73.25C263.618 73.7167 262.218 74.0833 260.784 74.35C259.351 74.6167 257.884 74.75 256.384 74.75C254.318 74.75 252.268 74.5333 250.234 74.1C248.201 73.6667 246.184 73.0833 244.184 72.35C242.218 71.6167 240.268 70.8 238.334 69.9C236.434 69 234.568 68.0667 232.734 67.1C234.701 65.7 236.268 63.95 237.434 61.85C238.634 59.7167 239.234 57.4333 239.234 55C239.234 52.8 238.768 50.8667 237.834 49.2C236.901 47.5 235.668 46.0833 234.134 44.95C232.601 43.7833 230.868 42.9167 228.934 42.35C227.001 41.75 225.034 41.45 223.034 41.45C220.968 41.45 218.934 41.7833 216.934 42.45C214.934 43.0833 213.151 44.0333 211.584 45.3C210.018 46.5333 208.751 48.05 207.784 49.85C206.851 51.6167 206.384 53.6167 206.384 55.85C206.384 58.1833 206.818 60.25 207.684 62.05C208.584 63.85 209.784 65.3667 211.284 66.6C212.784 67.8 214.518 68.7167 216.484 69.35C218.484 69.95 220.584 70.25 222.784 70.25C223.351 70.25 223.901 70.2 224.434 70.1C225.001 69.9667 225.518 69.8333 225.984 69.7C226.484 69.5333 226.951 69.4 227.384 69.3C227.851 69.2 228.284 69.15 228.684 69.15H228.934C229.501 69.35 230.068 69.5833 230.634 69.85C231.234 70.1167 231.834 70.3833 232.434 70.65C232.801 70.8167 233.168 71 233.534 71.2C233.901 71.3667 234.268 71.5333 234.634 71.7C236.168 72.3667 237.718 73 239.284 73.6C240.884 74.2 242.501 74.7333 244.134 75.2C245.768 75.7 247.418 76.0833 249.084 76.35C250.751 76.65 252.434 76.8 254.134 76.8C258.234 76.8 262.018 75.8667 265.484 74ZM234.284 55.25C234.284 56.7833 234.051 58.2333 233.584 59.6C233.118 60.9667 232.451 62.2 231.584 63.3C230.751 64.4 229.734 65.3667 228.534 66.2C227.368 67 226.068 67.6167 224.634 68.05C222.834 67.85 221.118 67.3667 219.484 66.6C217.851 65.8 216.401 64.7833 215.134 63.55C213.901 62.2833 212.901 60.8333 212.134 59.2C211.401 57.5333 211.034 55.75 211.034 53.85C211.034 52.15 211.351 50.6667 211.984 49.4C212.618 48.1 213.468 47.0333 214.534 46.2C215.601 45.3333 216.834 44.6833 218.234 44.25C219.668 43.8167 221.168 43.6 222.734 43.6C224.401 43.6 225.934 43.8833 227.334 44.45C228.768 45.0167 229.984 45.8167 230.984 46.85C232.018 47.8833 232.818 49.1167 233.384 50.55C233.984 51.9833 234.284 53.55 234.284 55.25ZM272.279 42.9L272.229 42.05C270.762 41.95 269.295 41.8833 267.829 41.85C266.362 41.8167 264.879 41.8 263.379 41.8C262.912 41.8 262.712 41.9667 262.779 42.3C262.845 42.6667 263.029 42.8833 263.329 42.95C263.662 42.9833 264.012 43.0167 264.379 43.05C264.579 43.0833 264.779 43.1167 264.979 43.15C265.212 43.1833 265.412 43.2667 265.579 43.4C265.745 43.5 265.879 43.6667 265.979 43.9C266.112 44.1333 266.179 44.45 266.179 44.85C266.179 46.15 266.179 47.45 266.179 48.75C266.179 50.05 266.195 51.3333 266.229 52.6C266.262 53.9 266.279 55.2 266.279 56.5C266.279 57.8 266.279 59.0833 266.279 60.35C266.279 61.55 266.045 62.6 265.579 63.5C265.112 64.4 264.479 65.1667 263.679 65.8C262.912 66.4 262.012 66.8667 260.979 67.2C259.979 67.5 258.945 67.65 257.879 67.65C256.812 67.65 255.779 67.5 254.779 67.2C253.812 66.9 252.945 66.45 252.179 65.85C251.412 65.25 250.795 64.5167 250.329 63.65C249.862 62.75 249.629 61.7167 249.629 60.55C249.629 59.25 249.629 57.95 249.629 56.65C249.662 55.3167 249.679 53.9833 249.679 52.65V44.8C249.679 44.0667 249.912 43.6 250.379 43.4C250.845 43.1667 251.412 43.0167 252.079 42.95C252.379 42.9167 252.529 42.7833 252.529 42.55C252.529 42.2833 252.379 42.1333 252.079 42.1C249.312 41.9 246.562 41.8 243.829 41.8H242.279C241.812 41.8 241.612 41.9667 241.679 42.3C241.745 42.6667 241.912 42.8667 242.179 42.9C242.479 42.9333 242.829 42.9833 243.229 43.05C243.629 43.0833 244.029 43.1833 244.429 43.35C244.862 43.5167 245.079 44.0167 245.079 44.85V59.65C245.079 59.85 245.095 60.0833 245.129 60.35C245.195 60.6167 245.229 60.9 245.229 61.2V61.15C245.229 62.65 245.629 63.95 246.429 65.05C247.262 66.15 248.295 67.0667 249.529 67.8C250.795 68.5 252.162 69.0333 253.629 69.4C255.129 69.7333 256.545 69.9 257.879 69.9C259.512 69.9 261.062 69.6333 262.529 69.1C263.995 68.5667 265.262 67.8167 266.329 66.85C267.429 65.85 268.295 64.6667 268.929 63.3C269.562 61.9 269.879 60.35 269.879 58.65V44.8C269.879 44.1333 270.129 43.6667 270.629 43.4C271.162 43.1333 271.712 42.9667 272.279 42.9ZM294.022 64.25C294.056 64.15 294.006 64.0667 293.872 64C293.772 63.9 293.656 63.85 293.522 63.85C293.389 63.8167 293.256 63.8333 293.122 63.9C292.989 63.9333 292.906 64 292.872 64.1C292.572 65.2667 291.972 66.1167 291.072 66.65C290.172 67.15 289.189 67.4 288.122 67.4C287.256 67.4 286.339 67.2333 285.372 66.9C284.406 66.5667 283.656 66.0333 283.122 65.3V55.6H283.772C284.172 55.6 284.672 55.6 285.272 55.6C285.872 55.6 286.472 55.6167 287.072 55.65C287.706 55.6833 288.272 55.75 288.772 55.85C289.272 55.9167 289.606 56.0167 289.772 56.15C289.872 56.2167 289.972 56.3833 290.072 56.65C290.206 56.9167 290.322 57.2 290.422 57.5C290.456 57.6667 290.456 57.8 290.422 57.9C290.422 57.9667 290.622 58.1167 291.022 58.35C291.189 58.4833 291.372 58.5167 291.572 58.45C291.772 58.3833 291.889 58.2667 291.922 58.1C291.989 57.6333 292.056 57.2 292.122 56.8C292.189 56.4 292.256 56 292.322 55.6C292.389 55.1667 292.439 54.65 292.472 54.05C292.539 53.45 292.606 52.9333 292.672 52.5C292.706 52.3333 292.639 52.2 292.472 52.1C292.339 51.9667 292.156 51.9333 291.922 52C291.722 52.0667 291.506 52.2167 291.272 52.45C291.072 52.6833 290.839 52.8667 290.572 53H290.622C290.322 53.1 290.039 53.2167 289.772 53.35C289.506 53.45 289.289 53.5 289.122 53.5H283.122V43.95H284.022C284.289 43.95 284.556 43.95 284.822 43.95C285.089 43.9167 285.339 43.9 285.572 43.9C285.839 43.9 286.089 43.9 286.322 43.9C286.589 43.8667 286.856 43.85 287.122 43.85C287.589 43.85 288.056 43.8833 288.522 43.95C288.989 44.0167 289.406 44.15 289.772 44.35C290.139 44.5167 290.439 44.7667 290.672 45.1C290.906 45.4333 291.039 45.8833 291.072 46.45C291.106 46.7167 291.289 46.85 291.622 46.85C291.956 46.85 292.156 46.7333 292.222 46.5C292.289 46.3 292.339 46.1 292.372 45.9C292.406 45.7 292.456 45.4833 292.522 45.25C292.656 44.7167 292.789 44.1833 292.922 43.65C293.056 43.1167 293.156 42.5333 293.222 41.9C293.256 41.7333 293.189 41.6 293.022 41.5C292.856 41.4 292.656 41.3833 292.422 41.45C291.956 41.6167 291.039 41.7333 289.672 41.8C288.306 41.8667 286.789 41.9 285.122 41.9C283.956 41.9 282.806 41.9 281.672 41.9C280.539 41.8667 279.489 41.8333 278.522 41.8C277.922 41.8 277.372 41.8 276.872 41.8C276.406 41.7667 276.022 41.75 275.722 41.75C275.422 41.75 275.222 41.85 275.122 42.05C275.022 42.25 275.106 42.4167 275.372 42.55C275.639 42.7167 275.906 42.8333 276.172 42.9C276.472 42.9667 276.756 43.0333 277.022 43.1C277.389 43.1667 277.722 43.3 278.022 43.5C278.356 43.6667 278.522 44.0333 278.522 44.6V65.1C278.522 66 278.372 66.7333 278.072 67.3C277.772 67.8333 277.156 68.1167 276.222 68.15C275.922 68.15 275.756 68.3 275.722 68.6C275.722 68.8667 275.872 69.0167 276.172 69.05C277.339 69.1167 278.522 69.15 279.722 69.15C280.922 69.1167 282.122 69.1 283.322 69.1C283.856 69.1 284.389 69.1 284.922 69.1C285.456 69.0667 285.989 69.05 286.522 69.05C286.756 69.05 287.156 69.0667 287.722 69.1C288.322 69.1 288.939 69.1167 289.572 69.15C290.239 69.15 290.856 69.15 291.422 69.15C291.989 69.15 292.372 69.1167 292.572 69.05L292.972 68.85L294.022 64.25Z" fill="black"/>
<path d="M313.858 19C311.343 19.1201 309.888 20.6841 309.929 23.4905L312.493 28.0546C313.068 27.8748 313.708 27.4855 314.342 26.967L319.853 35.8544C317.645 38.9431 315.797 42.4441 314.311 46.3582L317.756 50.2954C319.219 46.7959 320.952 43.6485 322.935 40.8254L350.287 84.9361L371.928 89.8611L367.619 65.1262L329.015 33.8568C331.598 31.4683 334.444 29.4217 337.533 27.6915L334.088 23.7546C330.558 25.5048 327.414 27.6954 324.651 30.3223L316.899 24.0427C317.345 23.3275 317.685 22.5991 317.851 21.9308L313.858 19H313.858ZM365.862 31.8907V31.8919L365.863 31.8907H365.862H365.862ZM365.862 31.8919L362.226 50.4229L358.967 38.4723L356.618 48.9511L353.133 41.5903L353.058 50.1637L369.727 63.7599L371.697 76.6631L371.546 48.9511L367.075 54.8399L365.863 31.8921L365.862 31.8919ZM326.817 36.0409L355.648 65.1591L358.976 75.057L350.315 71.2543L324.84 38.3037C325.476 37.5233 326.135 36.7686 326.817 36.0409H326.817ZM331.008 65.1451V65.1457H331.009L331.008 65.1451ZM331.009 65.1457L334.645 68.5229L329.948 69.1291L337.449 71.9868L323.735 72.5933L338.661 76.6637L325.554 79.4346L342.071 83.2449L333.358 89.7402L360.408 90L349.118 87.7483L335.555 65.4055L331.009 65.1457H331.009Z" fill="black"/>
</svg>
