<svg width="453" height="107" viewBox="0 0 453 107" fill="none" xmlns="http://www.w3.org/2000/svg">
<path fill-rule="evenodd" clip-rule="evenodd" d="M56.8365 1C56.4965 1.55 56.7215 2 57.3363 2C57.9512 2 58.1881 2.43 57.8632 2.956C57.5383 3.482 56.7245 3.705 56.0546 3.45C55.3848 3.196 53.1323 4.509 51.0488 6.367C47.6026 9.441 47.4446 9.794 49.2992 10.28C50.4199 10.573 51.3377 10.405 51.3377 9.906C51.3377 8.339 53.1823 8.917 55.2458 11.132C57.2294 13.262 57.2294 13.266 55.0349 15.06C52.8874 16.815 52.7754 16.788 50.095 13.874C46.8368 10.331 46.9178 10.298 37.455 19.165C30.3106 25.861 28.741 27.928 32.2112 26.07C33.2379 25.52 34.4247 25.392 34.8466 25.785C35.2695 26.178 35.4024 25.825 35.1415 25C34.8366 24.034 35.7594 23.038 37.7349 22.201C39.9784 21.251 40.4423 20.681 39.4645 20.076C38.3807 19.407 38.3717 19.099 39.4155 18.453C40.9891 17.481 52.3375 17.162 52.3375 18.091C52.3375 19.453 49.1812 21.366 48.5124 20.408C47.7786 19.359 42.7947 19.212 41.796 20.21C40.8622 21.145 43.2976 25.144 44.3894 24.469C46.2619 23.312 45.2931 25.694 43.0257 27.826C40.7032 30.007 38.7407 30.78 39.7754 29.105C40.0803 28.612 39.7004 27.968 38.9316 27.673C37.267 27.034 33.3419 27.931 33.3419 28.95C33.3419 30.479 34.7206 30.93 36.0413 29.834C37.084 28.968 37.7099 28.969 38.5767 29.836C39.4445 30.704 39.0416 31.702 36.9401 33.897C34.6586 36.279 33.6718 36.669 31.4983 36.048C28.3311 35.144 23.9291 36.243 26.6045 37.27C27.4933 37.611 29.4458 37.668 30.9445 37.396C33.3289 36.963 33.5059 37.097 32.3641 38.473C31.6343 39.354 30.2796 39.797 29.2859 39.482C28.3101 39.172 27.1753 39.463 26.7634 40.129C26.2486 40.962 26.5345 41.141 27.6792 40.701C30.4866 39.624 29.5498 41.381 24.8649 45.979C22.4015 48.397 20.5629 50.551 20.7778 50.766C20.9928 50.981 30.1077 42.125 41.0341 31.086L60.8995 11.015L123.853 10.75L186.806 10.485L123.271 10.242C82.0196 10.085 59.3149 10.351 58.5361 11C57.6843 11.71 57.6083 11.67 58.2751 10.861C58.899 10.104 58.5101 9.151 57.1134 8.02C55.6607 6.844 55.3708 6.097 56.1746 5.6C56.8135 5.205 57.3363 5.319 57.3363 5.853C57.3363 6.386 59.5828 6.708 62.3282 6.568C66.4102 6.36 67.1161 6.558 66.2043 7.657C65.2735 8.778 74.4924 9 122.115 9C158.466 9 179.262 8.645 179.475 8.02C179.99 6.504 191.56 6.264 192.058 7.759C192.597 9.375 196.966 9.368 197.721 7.75C198.187 6.75 198.421 6.75 198.886 7.75C199.207 8.438 200.643 9 202.077 9C204.6 9 204.622 8.95 202.744 7.448C200.88 5.958 200.902 5.924 203.302 6.583C204.677 6.961 206.027 7.546 206.302 7.885C207.13 8.903 212.392 8.958 211.764 7.941C211.443 7.42 212.771 7 214.741 7C216.697 7 218.299 7.45 218.299 8C218.299 8.55 220.211 8.936 222.548 8.858L226.797 8.716L222.798 8.006C219.137 7.356 232.275 7.436 251.291 8.178C255.415 8.34 259.914 8.111 261.289 7.67C263.16 7.071 263.411 7.133 262.289 7.919C261.234 8.658 276.367 8.924 313.277 8.817C342.145 8.733 363.065 8.365 359.766 8L353.767 7.336L360.516 7.168C364.46 7.07 367.264 7.415 367.264 8C367.264 9.466 369.188 9.219 370.87 7.537C372.868 5.537 381.818 5.624 380.155 7.627C379.228 8.746 379.733 9.045 382.889 9.241C385.017 9.374 349.194 9.716 303.279 10L219.799 10.517L305.288 10.759L390.777 11L411.254 31.5C427.986 48.251 431.288 52 429.303 52C427.476 52 422.214 47.29 408.074 33L389.273 14H226.044H62.8151L43.8295 33.036C28.68 48.225 24.339 52.043 22.3445 51.93C20.9698 51.852 19.3992 51.836 18.8543 51.894C18.3094 51.952 27.5283 61.675 39.3405 73.5L60.8185 95H225.974H391.13L412.125 73.775C427.421 58.312 432.848 52.221 432.115 51.339C431.437 50.522 431.476 49.375 432.235 47.814C433.241 45.744 433.211 45.684 431.951 47.241C430.622 48.884 430.438 48.866 428.681 46.924L426.819 44.866L435.078 45.282L443.337 45.699L439.773 42.76C436.711 40.236 435.295 39.799 429.729 39.661C426.166 39.572 423.126 39.872 422.975 40.327C422.824 40.781 421.878 40.244 420.871 39.132C419.047 37.116 419.063 37.112 426.862 37.668C433.542 38.144 434.509 38.018 433.502 36.805C432.404 35.482 425.097 35.255 420.091 36.39C419.14 36.605 416.847 35.144 414.725 32.971L411.019 29.175L418.885 29.696C425.043 30.103 426.499 29.952 425.592 28.999C424.472 27.823 413.055 27.387 411.328 28.454C410.884 28.728 409.751 28.102 408.81 27.061C406.959 25.016 407.15 25.005 419.14 26.497L422.527 26.919L416.641 21.357C413.403 18.298 407 12.241 402.412 7.898L394.07 0H225.762C114.635 0 57.2444 0.34 56.8365 1ZM65.8344 3C66.1863 3.569 65.3255 4 63.8348 4C62.3442 4 61.4834 3.569 61.8353 3C62.1752 2.45 63.075 2 63.8348 2C64.5947 2 65.4944 2.45 65.8344 3ZM226.297 3C226.297 3.55 225.82 4 225.238 4C224.656 4 224.458 3.55 224.797 3C225.137 2.45 225.613 2 225.856 2C226.099 2 226.297 2.45 226.297 3ZM378.262 3C378.262 3.55 377.56 4 376.703 4C375.846 4 375.422 3.55 375.762 3C376.102 2.45 376.803 2 377.321 2C377.839 2 378.262 2.45 378.262 3ZM385.26 3C386.425 3.753 386.132 3.973 383.951 3.985C382.331 3.994 381.404 3.577 381.761 3C382.528 1.758 383.34 1.758 385.26 3ZM389.094 7.123C388.36 7.589 386.635 7.962 385.26 7.953C382.938 7.938 382.888 7.84 384.556 6.574C385.545 5.825 387.27 5.451 388.39 5.745C389.946 6.151 390.112 6.478 389.094 7.123ZM54.337 7C54.337 7.55 53.8871 8 53.3373 8C52.7874 8 52.3375 7.55 52.3375 7C52.3375 6.45 52.7874 6 53.3373 6C53.8871 6 54.337 6.45 54.337 7ZM258.019 6.604C257.687 6.936 256.824 6.972 256.103 6.683C255.305 6.364 255.542 6.127 256.707 6.079C257.761 6.036 258.351 6.272 258.019 6.604ZM284.358 7.772C274.776 7.924 266.587 7.7 266.16 7.274C265.733 6.848 273.572 6.724 283.582 6.998L301.78 7.495L284.358 7.772ZM331.273 7C332.445 7.758 332.187 7.973 330.082 7.985C328.602 7.993 327.114 7.55 326.774 7C325.985 5.723 329.297 5.723 331.273 7ZM395.258 7.545C395.258 7.727 394.389 7.81 393.327 7.73C392.266 7.65 391.606 7.248 391.86 6.836C392.283 6.153 395.258 6.773 395.258 7.545ZM59.3359 8C59.3359 8.55 60.5726 8.968 62.0852 8.93C64.5217 8.867 64.6067 8.762 62.8351 8C60.1047 6.826 59.3359 6.826 59.3359 8ZM72.6018 7.656C71.9249 7.93 70.5753 7.947 69.6025 7.693C68.6297 7.439 69.1836 7.215 70.8332 7.195C72.4828 7.175 73.2786 7.382 72.6018 7.656ZM82.0596 7.604C81.7277 7.936 80.8649 7.972 80.144 7.683C79.3462 7.364 79.5832 7.127 80.7479 7.079C81.8017 7.036 82.3915 7.272 82.0596 7.604ZM90.0907 7.687C89.135 7.937 87.3354 7.946 86.0917 7.707C84.8479 7.468 85.6298 7.263 87.8293 7.252C90.0287 7.241 91.0465 7.437 90.0907 7.687ZM105.589 7.704C104.359 7.941 102.11 7.947 100.59 7.718C99.0706 7.488 100.076 7.294 102.826 7.286C105.575 7.279 106.819 7.467 105.589 7.704ZM112.053 7.604C111.721 7.936 110.858 7.972 110.137 7.683C109.339 7.364 109.576 7.127 110.741 7.079C111.795 7.036 112.385 7.272 112.053 7.604ZM128.07 7.716C126.558 7.945 124.083 7.945 122.571 7.716C121.06 7.487 122.296 7.3 125.321 7.3C128.345 7.3 129.582 7.487 128.07 7.716ZM144.566 7.706C143.328 7.944 141.305 7.944 140.067 7.706C138.829 7.467 139.842 7.272 142.317 7.272C144.791 7.272 145.804 7.467 144.566 7.706ZM173.098 7.738C169.958 7.936 164.559 7.937 161.101 7.741C157.643 7.546 160.212 7.384 166.811 7.382C173.409 7.38 176.239 7.54 173.098 7.738ZM186.306 8C186.306 8.55 186.783 9 187.365 9C187.947 9 188.146 8.55 187.806 8C187.466 7.45 186.99 7 186.747 7C186.504 7 186.306 7.45 186.306 8ZM248.021 7.604C247.689 7.936 246.826 7.972 246.105 7.683C245.308 7.364 245.545 7.127 246.709 7.079C247.763 7.036 248.353 7.272 248.021 7.604ZM318.526 7.732C316.189 7.943 312.364 7.943 310.028 7.732C307.691 7.522 309.603 7.349 314.277 7.349C318.951 7.349 320.862 7.522 318.526 7.732ZM336.001 7.604C335.669 7.936 334.806 7.972 334.085 7.683C333.287 7.364 333.524 7.127 334.689 7.079C335.743 7.036 336.333 7.272 336.001 7.604ZM342.539 7.656C341.862 7.93 340.513 7.947 339.54 7.693C338.567 7.439 339.121 7.215 340.771 7.195C342.42 7.175 343.216 7.382 342.539 7.656ZM352.03 7.687C351.074 7.937 349.275 7.946 348.031 7.707C346.787 7.468 347.569 7.263 349.768 7.252C351.968 7.241 352.986 7.437 352.03 7.687ZM374.263 8C374.263 8.55 374.713 9 375.263 9C375.812 9 376.262 8.55 376.262 8C376.262 7.45 375.812 7 375.263 7C374.713 7 374.263 7.45 374.263 8ZM183.12 8.683C183.841 8.972 184.704 8.936 185.036 8.604C185.368 8.272 184.778 8.036 183.724 8.079C182.559 8.127 182.322 8.364 183.12 8.683ZM229.058 8.707C230.302 8.946 232.102 8.937 233.058 8.687C234.013 8.437 232.996 8.241 230.796 8.252C228.597 8.263 227.815 8.468 229.058 8.707ZM188.119 10.683C188.84 10.972 189.703 10.936 190.035 10.604C190.366 10.272 189.777 10.036 188.723 10.079C187.558 10.127 187.321 10.364 188.119 10.683ZM192.118 10.683C192.839 10.972 193.702 10.936 194.034 10.604C194.366 10.272 193.776 10.036 192.722 10.079C191.557 10.127 191.32 10.364 192.118 10.683ZM196.054 10.662C196.742 10.94 197.867 10.94 198.554 10.662C199.241 10.385 198.679 10.158 197.304 10.158C195.929 10.158 195.367 10.385 196.054 10.662ZM202.572 10.693C203.544 10.947 204.894 10.93 205.571 10.656C206.248 10.382 205.452 10.175 203.802 10.195C202.153 10.215 201.599 10.439 202.572 10.693ZM214.569 10.693C215.542 10.947 216.891 10.93 217.568 10.656C218.245 10.382 217.449 10.175 215.8 10.195C214.15 10.215 213.596 10.439 214.569 10.693ZM398.766 11.015C399.101 11.557 398.336 12.014 397.066 12.032C394.834 12.063 394.821 12.111 396.676 13.515C398.208 14.675 398.893 14.719 400.089 13.733C401.388 12.661 401.427 12.794 400.386 14.75C398.971 17.404 399.865 17.665 402.427 15.345C403.433 14.435 404.256 14.162 404.256 14.738C404.256 15.314 403.581 16.045 402.756 16.362C399.838 17.482 401.31 18.548 405.256 18.171C407.739 17.935 409.255 18.209 409.255 18.895C409.255 19.503 407.819 20 406.064 20C403.157 20 403.036 20.119 404.701 21.336C405.817 22.153 408.179 22.507 410.776 22.248C413.114 22.015 415.306 22.276 415.648 22.829C416.029 23.447 414.943 23.73 412.836 23.563C410.948 23.413 408.807 23.661 408.079 24.113C407.167 24.68 404.654 22.853 400.007 18.245C396.296 14.565 393.258 11.302 393.258 10.995C393.258 9.988 398.143 10.006 398.766 11.015ZM403.756 11C404.096 11.55 403.897 12 403.315 12C402.733 12 402.256 11.55 402.256 11C402.256 10.45 402.454 10 402.697 10C402.94 10 403.416 10.45 403.756 11ZM51.2478 13.111C52.8904 14.453 53.9831 14.754 54.68 14.057C56.0456 12.691 55.0009 11.796 51.6207 11.437L48.8383 11.142L51.2478 13.111ZM202.489 12.748C211.663 12.913 226.96 12.913 236.481 12.749C246.002 12.584 238.494 12.449 219.799 12.449C201.103 12.449 193.314 12.583 202.489 12.748ZM47.3477 15.489C46.099 16.994 44.3394 16.673 44.3394 14.941C44.3394 14.423 45.2941 14 46.4609 14C48.2275 14 48.3764 14.25 47.3477 15.489ZM7.34795 16.044C7.34795 17.34 12.4448 37.196 12.9457 37.85C13.0926 38.043 13.6495 37.931 14.1824 37.601C14.7932 37.224 14.6842 35.43 13.8904 32.751C11.8489 25.87 11.0931 20.725 12.2278 21.426C12.7817 21.769 16.4098 22.079 20.2889 22.115C24.169 22.152 27.3433 22.619 27.3433 23.154C27.3433 23.688 26.5555 24.046 25.5937 23.948C24.6319 23.85 23.3942 23.863 22.8444 23.978C22.2945 24.092 19.932 24.11 17.5956 24.017C14.9462 23.912 13.3466 24.285 13.3466 25.007C13.3466 25.789 15.0982 26.04 18.7373 25.781C22.8663 25.487 24.0121 25.702 23.6292 26.699C23.3552 27.414 21.9985 28 20.6159 28C18.4564 28 18.2824 28.22 19.3872 29.551C20.4739 30.86 20.3379 31.189 18.5094 31.667C16.6158 32.163 15.3661 34 16.9237 34C17.7755 34 32.3421 20.777 32.3421 20.004C32.3421 19.642 27.2813 18.772 21.0948 18.071C14.9092 17.37 9.2855 16.337 8.59766 15.776C7.71687 15.056 7.34795 15.135 7.34795 16.044ZM440.892 17.766C440.586 18.261 435.834 19.239 430.332 19.941L420.327 21.216L426.038 26.358C429.179 29.186 432.984 32.782 434.492 34.349C437.618 37.595 437.275 38.083 440.259 26.134C442.147 18.576 442.392 15.339 440.892 17.766ZM17.2626 19.644C17.4916 19.84 16.0289 20 14.0134 20C11.9969 20 10.3473 19.561 10.3473 19.025C10.3473 18.164 16.1379 18.682 17.2626 19.644ZM439.248 21C439.248 21.55 438.236 21.968 436.998 21.93C434.852 21.863 434.841 21.82 436.748 21C437.848 20.527 438.861 20.109 438.998 20.07C439.135 20.032 439.248 20.45 439.248 21ZM48.1405 22.531C47.0587 23.614 43.3396 23.849 43.3396 22.836C43.3396 22.258 44.0004 22.04 44.8073 22.349C45.6141 22.659 46.5588 22.452 46.9068 21.89C47.2547 21.327 47.7936 21.122 48.1055 21.433C48.4164 21.745 48.4324 22.239 48.1405 22.531ZM433.978 21.604C433.646 21.936 432.783 21.972 432.062 21.683C431.264 21.364 431.501 21.127 432.666 21.079C433.72 21.036 434.31 21.272 433.978 21.604ZM37.8869 23.925C37.5709 24.437 38.2518 25.154 39.4015 25.519C42.2388 26.42 42.9917 25.419 40.4863 24.078C39.2685 23.426 38.2328 23.365 37.8869 23.925ZM437.852 25.589C437.584 26.287 437.065 28.461 436.697 30.42C436.329 32.379 435.648 33.747 435.183 33.459C434.717 33.171 434.59 32.275 434.9 31.468C435.282 30.472 434.805 30 433.415 30C432.289 30 431.09 29.55 430.75 29C430.389 28.417 431.405 28 433.19 28C434.872 28 436.248 27.55 436.248 27C436.248 26.45 434.197 26 431.69 26C428.859 26 427.37 25.615 427.76 24.984C428.719 23.432 438.456 24.016 437.852 25.589ZM27.3433 28.5C26.2916 29.767 26.4965 30 28.662 30C31.6793 30 33.015 28.472 30.7545 27.605C28.672 26.805 28.771 26.779 27.3433 28.5ZM15.1591 28.683C15.88 28.972 16.7428 28.936 17.0747 28.604C17.4066 28.272 16.8168 28.036 15.763 28.079C14.5983 28.127 14.3613 28.364 15.1591 28.683ZM415.783 30.951C414.54 32.963 416.226 33.699 422.047 33.685C425.271 33.677 428.435 33.996 429.079 34.394C429.723 34.792 430.25 34.664 430.25 34.109C430.25 32.297 426.998 31.224 423.095 31.748C420.874 32.046 418.676 31.767 417.852 31.082C416.882 30.277 416.225 30.235 415.783 30.951ZM20.9278 34.542C17.1857 37.847 17.5566 38.843 21.8446 37C23.2133 36.412 23.3712 36.106 22.3445 36.03C21.4667 35.966 21.9856 35.301 23.5942 34.428C25.1068 33.607 26.3435 32.5 26.3435 31.968C26.3435 30.312 24.9869 30.957 20.9278 34.542ZM31.3424 31.858C31.3424 33.759 34.7106 34.057 36.2692 32.294C37.133 31.315 37.21 31.053 36.4382 31.71C35.4664 32.538 34.4667 32.602 33.189 31.918C32.0962 31.333 31.3424 31.309 31.3424 31.858ZM14.4173 40.415C13.6865 41.295 14.8182 41.585 18.8923 41.562C21.8906 41.545 24.344 41.187 24.344 40.766C24.344 40.344 23.7821 39.971 23.0943 39.936C22.4075 39.901 20.3929 39.729 18.6193 39.554C16.8457 39.379 14.9552 39.767 14.4173 40.415ZM438.244 42.596C439.034 43.386 437.761 43.74 433.649 43.874C430.521 43.977 427.637 44.261 427.239 44.507C426.843 44.752 425.753 44.108 424.819 43.075C423.17 41.253 423.33 41.201 430.136 41.35C433.995 41.435 437.644 41.996 438.244 42.596ZM10.7742 44.479C9.7144 45.28 9.2975 45.944 9.84737 45.953C11.333 45.977 13.8724 44.192 13.2446 43.565C12.9456 43.265 11.8339 43.677 10.7742 44.479ZM15.0502 44.204C14.3283 44.663 14.9702 44.975 16.6548 44.985C18.6333 44.995 19.2412 45.369 18.7123 46.25C18.1774 47.141 18.4344 47.117 19.6091 46.164C20.5159 45.429 21.6956 45.099 22.2315 45.43C22.7674 45.762 23.4592 45.622 23.7691 45.121C24.474 43.98 16.6898 43.162 15.0502 44.204ZM68.3998 47.035C70.9272 48.389 70.8422 49.755 68.0838 52.056C65.3435 54.343 63.4629 54.498 62.6971 52.5C62.3802 51.675 61.4944 51 60.7286 51C58.893 51 58.97 50.062 60.9905 47.829C62.8461 45.778 65.5164 45.492 68.3998 47.035ZM391.608 48.178C392.435 49.5 392.138 50.289 390.209 51.895C387.272 54.339 385.674 54.522 384.898 52.5C384.582 51.675 383.635 51 382.792 51C380.81 51 380.856 50.104 382.96 47.78C385.021 45.502 390.078 45.734 391.608 48.178ZM6.34818 48.5C4.9975 50.128 5.32042 50.332 7.76585 49.393C8.63565 49.059 9.34749 48.384 9.34749 47.893C9.34749 46.51 7.72786 46.838 6.34818 48.5ZM437.05 48.128C437.434 48.474 439.924 48.985 442.584 49.265C446.101 49.635 447.12 49.474 446.32 48.674C445.715 48.069 443.225 47.557 440.786 47.537C438.347 47.517 436.665 47.783 437.05 48.128ZM12.1088 48.707C13.3526 48.946 15.1521 48.937 16.1079 48.687C17.0637 48.437 16.0459 48.241 13.8464 48.252C11.647 48.263 10.8651 48.468 12.1088 48.707ZM18.3454 49.059C18.3454 49.641 18.7953 49.84 19.3452 49.5C19.895 49.16 20.3449 48.684 20.3449 48.441C20.3449 48.198 19.895 48 19.3452 48C18.7953 48 18.3454 48.477 18.3454 49.059ZM433.749 49C434.089 49.55 434.565 50 434.808 50C435.051 50 435.249 49.55 435.249 49C435.249 48.45 434.772 48 434.19 48C433.608 48 433.409 48.45 433.749 49ZM5.11647 52.168C5.69833 52.75 6.76309 53.028 7.48492 52.788C8.23375 52.538 7.77985 52.085 6.42816 51.731C4.76555 51.296 4.37464 51.426 5.11647 52.168ZM446.238 52.107C445.112 52.88 445.36 52.973 447.246 52.486C449.074 52.014 447.331 54.211 440.747 60.672C431.367 69.877 406.038 93.689 398.257 100.616L393.758 104.621L225.703 104.55L57.6473 104.479L35.7474 83.9C2.92498 53.058 1.49131 51.785 0.11863 52.256C-0.621199 52.51 2.15916 55.822 6.79008 60.205L14.7312 67.718L12.4668 76.953C9.85637 87.6 10.0313 89.938 12.7327 80.503C14.6503 73.804 14.6633 73.797 19.3162 76.804C19.5751 76.972 19.1252 77.527 18.3164 78.039C17.2027 78.743 17.5216 78.973 19.6261 78.985C21.1947 78.993 22.6644 79.67 22.9973 80.537C23.3212 81.382 24.9939 82.823 26.7145 83.738L29.8427 85.402L25.3438 86.068C22.8693 86.435 18.2574 87.052 15.0962 87.439C11.593 87.869 9.34749 88.625 9.34749 89.375C9.34749 90.341 11.7639 90.312 20.5949 89.239C28.641 88.262 32.3361 88.176 33.5779 88.936C34.5326 89.521 35.9873 90 36.8101 90C37.6319 90 42.5308 93.825 47.6966 98.5L57.0874 107H226.205H395.323L403.038 99.515C413.73 89.144 417.504 87.764 431.064 89.269C436.631 89.887 441.501 90.08 441.884 89.696C443.205 88.375 442.195 88.126 428.5 86.39C425.614 86.024 423.251 85.337 423.251 84.862C423.251 84.388 423.678 84 424.199 84C424.721 84 426.362 82.875 427.845 81.5C429.328 80.125 431.361 79 432.364 79C433.495 79 433.987 78.481 433.661 77.631C433.35 76.821 433.97 76.045 435.181 75.728C436.865 75.287 437.432 75.882 438.397 79.103C440.193 85.102 440.471 83.06 438.821 75.983C437.872 71.913 437.676 69.07 438.268 67.963C438.773 67.02 442.349 63.193 446.216 59.459C450.083 55.724 453.134 52.582 452.995 52.475C451.768 51.528 447.427 51.291 446.238 52.107ZM439.061 52.683C439.782 52.972 440.644 52.936 440.976 52.604C441.308 52.272 440.718 52.036 439.665 52.079C438.5 52.127 438.263 52.364 439.061 52.683ZM442.247 53.059C442.247 53.641 442.697 53.84 443.247 53.5C443.797 53.16 444.246 52.684 444.246 52.441C444.246 52.198 443.797 52 443.247 52C442.697 52 442.247 52.477 442.247 53.059ZM439.517 56.693C440.489 56.947 441.839 56.93 442.516 56.656C443.193 56.382 442.397 56.175 440.747 56.195C439.098 56.215 438.544 56.439 439.517 56.693ZM440.326 85.583C440.374 86.748 440.611 86.985 440.93 86.188C441.219 85.466 441.183 84.603 440.851 84.271C440.519 83.939 440.283 84.529 440.326 85.583Z" fill="#FF0000"/>
<path d="M103.76 64.56V63.84C103.173 63.7867 102.6 63.6667 102.04 63.48C101.48 63.2933 101.04 62.8933 100.72 62.28C99.7067 60.44 98.7733 58.5467 97.92 56.6C97.0933 54.6267 96.2667 52.68 95.44 50.76L93.68 46.64V46.68C93.6267 46.6 93.5733 46.4933 93.52 46.36C93.4667 46.2 93.4 46.0267 93.32 45.84V45.88C93.1867 45.5867 93.04 45.2533 92.88 44.88C92.72 44.5067 92.5467 44.16 92.36 43.84C92.1733 43.4933 91.9867 43.1867 91.8 42.92C91.6133 42.6533 91.4267 42.48 91.24 42.4C90.9467 42.32 90.7467 42.3733 90.64 42.56C89.84 44.4267 89.04 46.2933 88.24 48.16C87.4667 50.0267 86.6933 51.9067 85.92 53.8C85.3867 55.08 84.8267 56.4 84.24 57.76C83.68 59.0933 83.1333 60.4 82.6 61.68C82.4667 61.92 82.28 62.1867 82.04 62.48C81.8267 62.7733 81.5867 63.04 81.32 63.28C81.0533 63.4933 80.7733 63.6533 80.48 63.76C80.1867 63.8667 79.9067 63.88 79.64 63.8L79.48 64.52L86.52 64.64C86.7867 64.64 86.92 64.5333 86.92 64.32C86.9467 64.08 86.8267 63.9467 86.56 63.92C86.2933 63.8667 85.9867 63.8 85.64 63.72C85.2933 63.6133 85.12 63.4133 85.12 63.12C85.12 62.88 85.2 62.48 85.36 61.92C85.5467 61.3333 85.7733 60.7067 86.04 60.04C86.3067 59.3733 86.5733 58.7067 86.84 58.04C87.1067 57.3733 87.3467 56.8267 87.56 56.4H94C94.56 57.6533 95.0933 58.8533 95.6 60C96.1067 61.1467 96.6267 62.3467 97.16 63.6L96.8 64.04C96.64 64.1733 96.5867 64.3067 96.64 64.44C96.72 64.5733 96.8667 64.64 97.08 64.64C97.56 64.6667 98.0267 64.6933 98.48 64.72C98.9333 64.72 99.4 64.72 99.88 64.72C100.547 64.72 101.2 64.7067 101.84 64.68C102.48 64.6533 103.12 64.6133 103.76 64.56ZM93.28 54.68H88.2C88.7067 53.48 89.1333 52.36 89.48 51.32C89.8533 50.2533 90.2667 49.1333 90.72 47.96L93.28 54.68ZM123.508 58.32C123.508 57.52 123.361 56.8 123.068 56.16C122.801 55.52 122.428 54.9467 121.948 54.44C121.468 53.9333 120.908 53.5067 120.268 53.16C119.654 52.8133 119.001 52.5333 118.308 52.32C119.001 51.7067 119.641 50.9867 120.228 50.16C120.841 49.3333 121.148 48.4533 121.148 47.52C121.148 46.6133 120.881 45.84 120.348 45.2C119.841 44.56 119.201 44.04 118.428 43.64C117.654 43.24 116.828 42.96 115.948 42.8C115.068 42.6133 114.268 42.52 113.548 42.52C113.041 42.52 112.534 42.5467 112.028 42.6C111.521 42.6267 111.028 42.6667 110.548 42.72C110.041 42.7733 109.561 42.8133 109.108 42.84C108.654 42.8667 108.188 42.88 107.708 42.88C107.548 42.88 107.374 42.88 107.188 42.88C107.028 42.8533 106.854 42.8267 106.668 42.8C106.428 42.7733 106.281 42.88 106.228 43.12C106.201 43.3333 106.308 43.4533 106.548 43.48C106.734 43.5067 106.961 43.56 107.228 43.64C107.494 43.72 107.734 43.84 107.948 44C108.161 44.1333 108.348 44.2933 108.508 44.48C108.668 44.6667 108.748 44.88 108.748 45.12V61.36C108.748 61.84 108.721 62.2267 108.668 62.52C108.614 62.8133 108.521 63.0533 108.388 63.24C108.254 63.4 108.054 63.5333 107.788 63.64C107.521 63.72 107.188 63.8133 106.788 63.92C106.548 63.9733 106.441 64.1067 106.468 64.32C106.494 64.5333 106.641 64.64 106.908 64.64C107.628 64.64 108.401 64.6533 109.228 64.68C110.081 64.68 110.854 64.6933 111.548 64.72C112.321 64.7467 113.081 64.76 113.828 64.76C114.601 64.76 115.374 64.76 116.148 64.76V64.72H116.228C116.441 64.72 116.628 64.72 116.788 64.72C116.974 64.72 117.134 64.6933 117.268 64.64H117.228C118.028 64.5067 118.801 64.2667 119.548 63.92C120.294 63.5467 120.961 63.0933 121.548 62.56C122.134 62.0267 122.601 61.4 122.948 60.68C123.321 59.96 123.508 59.1733 123.508 58.32ZM117.628 47.92C117.628 49.2 117.268 50.1867 116.548 50.88C115.854 51.5467 114.908 51.8533 113.708 51.8L112.468 51.76V44.28C113.001 44.1467 113.494 44.08 113.948 44.08C115.014 44.08 115.894 44.44 116.588 45.16C117.281 45.88 117.628 46.8 117.628 47.92ZM120.028 59C120.028 59.64 119.908 60.2267 119.668 60.76C119.454 61.2933 119.148 61.76 118.748 62.16C118.348 62.5333 117.881 62.8267 117.348 63.04C116.814 63.2533 116.241 63.36 115.628 63.36C115.361 63.36 115.041 63.32 114.668 63.24C114.321 63.1333 113.974 63 113.628 62.84C113.308 62.6533 113.028 62.4267 112.788 62.16C112.574 61.8933 112.468 61.5867 112.468 61.24V53.44L113.188 53.4C114.014 53.3467 114.828 53.4267 115.628 53.64C116.454 53.8533 117.188 54.2 117.828 54.68C118.494 55.16 119.028 55.76 119.428 56.48C119.828 57.2 120.028 58.04 120.028 59ZM149.229 64.56V63.84C148.642 63.7867 148.069 63.6667 147.509 63.48C146.949 63.2933 146.509 62.8933 146.189 62.28C145.175 60.44 144.242 58.5467 143.389 56.6C142.562 54.6267 141.735 52.68 140.909 50.76L139.149 46.64V46.68C139.095 46.6 139.042 46.4933 138.989 46.36C138.935 46.2 138.869 46.0267 138.789 45.84V45.88C138.655 45.5867 138.509 45.2533 138.349 44.88C138.189 44.5067 138.015 44.16 137.829 43.84C137.642 43.4933 137.455 43.1867 137.269 42.92C137.082 42.6533 136.895 42.48 136.709 42.4C136.415 42.32 136.215 42.3733 136.109 42.56C135.309 44.4267 134.509 46.2933 133.709 48.16C132.935 50.0267 132.162 51.9067 131.389 53.8C130.855 55.08 130.295 56.4 129.709 57.76C129.149 59.0933 128.602 60.4 128.069 61.68C127.935 61.92 127.749 62.1867 127.509 62.48C127.295 62.7733 127.055 63.04 126.789 63.28C126.522 63.4933 126.242 63.6533 125.949 63.76C125.655 63.8667 125.375 63.88 125.109 63.8L124.949 64.52L131.989 64.64C132.255 64.64 132.389 64.5333 132.389 64.32C132.415 64.08 132.295 63.9467 132.029 63.92C131.762 63.8667 131.455 63.8 131.109 63.72C130.762 63.6133 130.589 63.4133 130.589 63.12C130.589 62.88 130.669 62.48 130.829 61.92C131.015 61.3333 131.242 60.7067 131.509 60.04C131.775 59.3733 132.042 58.7067 132.309 58.04C132.575 57.3733 132.815 56.8267 133.029 56.4H139.469C140.029 57.6533 140.562 58.8533 141.069 60C141.575 61.1467 142.095 62.3467 142.629 63.6L142.269 64.04C142.109 64.1733 142.055 64.3067 142.109 64.44C142.189 64.5733 142.335 64.64 142.549 64.64C143.029 64.6667 143.495 64.6933 143.949 64.72C144.402 64.72 144.869 64.72 145.349 64.72C146.015 64.72 146.669 64.7067 147.309 64.68C147.949 64.6533 148.589 64.6133 149.229 64.56ZM138.749 54.68H133.669C134.175 53.48 134.602 52.36 134.949 51.32C135.322 50.2533 135.735 49.1333 136.189 47.96L138.749 54.68ZM176.183 43.64L176.023 42.96C175.063 42.9067 174.103 42.8667 173.143 42.84C172.183 42.7867 171.21 42.7733 170.223 42.8L168.783 42.84C168.57 42.84 168.423 42.92 168.343 43.08C168.263 43.24 168.316 43.36 168.503 43.44C168.823 43.6267 169.236 43.7467 169.743 43.8C169.93 43.8267 170.116 43.8667 170.303 43.92C170.49 43.9467 170.663 44.0267 170.823 44.16C170.983 44.2667 171.116 44.4533 171.223 44.72C171.33 44.96 171.383 45.2933 171.383 45.72V48.16C171.383 48.5867 171.37 49 171.343 49.4C171.343 49.8 171.343 50.2133 171.343 50.64C171.343 51.3067 171.356 52.0133 171.383 52.76C171.41 53.5067 171.45 54.2133 171.503 54.88C171.53 55.7067 171.556 56.52 171.583 57.32C171.61 58.0933 171.61 58.8933 171.583 59.72C168.596 56.7867 165.596 53.8933 162.583 51.04C159.57 48.16 156.53 45.3067 153.463 42.48C153.41 42.4267 153.316 42.4 153.183 42.4C153.076 42.3733 152.983 42.3867 152.903 42.44C152.77 42.5467 152.636 42.68 152.503 42.84C152.37 42.9733 152.303 43.1467 152.303 43.36V62.24C152.303 62.7733 152.143 63.1867 151.823 63.48C151.503 63.7467 151.116 63.8533 150.663 63.8H150.183C149.943 63.8 149.796 63.9067 149.743 64.12C149.716 64.3333 149.823 64.4667 150.063 64.52C150.623 64.6533 151.196 64.7333 151.783 64.76C152.396 64.7867 153.01 64.8 153.623 64.8H155.023C155.476 64.8 155.943 64.8 156.423 64.8C156.903 64.7733 157.37 64.7733 157.823 64.8C158.063 64.8 158.223 64.72 158.303 64.56C158.383 64.4 158.316 64.2667 158.103 64.16C157.863 63.9733 157.61 63.8667 157.343 63.84C157.076 63.7867 156.823 63.7333 156.583 63.68C156.396 63.6533 156.21 63.6133 156.023 63.56C155.863 63.5067 155.703 63.4133 155.543 63.28C155.41 63.1467 155.303 62.9467 155.223 62.68C155.143 62.3867 155.103 62.0133 155.103 61.56C155.103 60.5467 155.09 59.5467 155.063 58.56C155.036 57.5733 154.996 56.5867 154.943 55.6C154.89 54.5867 154.836 53.5867 154.783 52.6C154.756 51.6133 154.743 50.6133 154.743 49.6C154.743 49.3333 154.743 49.08 154.743 48.84C154.743 48.6 154.756 48.36 154.783 48.12L156.863 50.16H156.823C159.383 52.7467 161.983 55.32 164.623 57.88C167.29 60.4133 170.116 62.8 173.103 65.04C173.263 65.12 173.423 65.1467 173.583 65.12C173.743 65.0667 173.836 64.96 173.863 64.8C174.023 63.12 174.13 61.4533 174.183 59.8C174.236 58.12 174.263 56.4267 174.263 54.72C174.263 53.9733 174.25 53.1467 174.223 52.24C174.223 51.3067 174.223 50.4533 174.223 49.68C174.196 48.8533 174.183 48.04 174.183 47.24C174.183 46.4133 174.183 45.5733 174.183 44.72C174.183 44.4267 174.343 44.2133 174.663 44.08C174.983 43.9467 175.303 43.84 175.623 43.76H175.583C175.743 43.7067 175.876 43.68 175.983 43.68C176.116 43.6533 176.183 43.64 176.183 43.64ZM203.612 53.56C203.612 53.1867 203.612 52.8133 203.612 52.44C203.612 52.04 203.586 51.6533 203.532 51.28C203.399 50.1067 202.879 49 201.972 47.96C201.092 46.92 200.039 46.0267 198.812 45.28C197.586 44.5067 196.292 43.9067 194.932 43.48C193.572 43.0267 192.359 42.8 191.292 42.8C190.732 42.8 190.119 42.8133 189.452 42.84C188.812 42.8667 188.212 42.8933 187.652 42.92C186.479 43 185.319 43.04 184.172 43.04C183.719 43.04 183.226 43.0267 182.692 43C182.159 42.9733 181.652 42.9467 181.172 42.92C180.799 42.8933 180.426 42.88 180.052 42.88C179.706 42.8533 179.346 42.84 178.972 42.84C178.786 42.84 178.652 42.8933 178.572 43C178.492 43.08 178.479 43.1867 178.532 43.32C178.612 43.48 178.759 43.6 178.972 43.68C179.212 43.7333 179.452 43.7867 179.692 43.84C180.012 43.8933 180.332 43.9867 180.652 44.12C180.972 44.2533 181.132 44.5867 181.132 45.12V61.36C181.132 62.2667 181.012 62.8933 180.772 63.24C180.559 63.5867 180.052 63.8267 179.252 63.96C178.986 64.0133 178.866 64.1467 178.892 64.36C178.919 64.5733 179.066 64.68 179.332 64.68C180.159 64.6533 181.039 64.6667 181.972 64.72C182.906 64.7733 183.799 64.8267 184.652 64.88C185.426 64.9333 186.199 64.9867 186.972 65.04C187.772 65.0667 188.559 65.08 189.332 65.08C191.226 65.08 193.039 64.88 194.772 64.48C196.506 64.08 198.026 63.4267 199.332 62.52C200.639 61.6133 201.679 60.4267 202.452 58.96C203.226 57.4933 203.612 55.6933 203.612 53.56ZM199.972 54.68C199.972 56.28 199.679 57.64 199.092 58.76C198.506 59.8533 197.719 60.76 196.732 61.48C195.746 62.1733 194.599 62.68 193.292 63C191.986 63.32 190.626 63.48 189.212 63.48C188.546 63.48 187.946 63.4533 187.412 63.4C186.879 63.3467 186.412 63.2133 186.012 63C185.639 62.7867 185.346 62.4667 185.132 62.04C184.946 61.6133 184.852 61.0267 184.852 60.28V44.84C185.386 44.68 185.919 44.5733 186.452 44.52C186.986 44.4667 187.519 44.44 188.052 44.44C189.626 44.44 191.132 44.6533 192.572 45.08C194.012 45.5067 195.279 46.1467 196.372 47C197.466 47.8267 198.332 48.8933 198.972 50.2C199.639 51.48 199.972 52.9733 199.972 54.68ZM231.602 54.44C231.602 52.7867 231.255 51.2133 230.562 49.72C229.895 48.2267 228.988 46.92 227.842 45.8C226.695 44.68 225.362 43.7867 223.842 43.12C222.348 42.4533 220.775 42.12 219.122 42.12C217.442 42.12 215.788 42.3733 214.162 42.88C212.562 43.3867 211.122 44.1333 209.842 45.12C208.588 46.08 207.562 47.2667 206.762 48.68C205.988 50.0933 205.602 51.7067 205.602 53.52C205.602 55.1733 205.962 56.72 206.682 58.16C207.402 59.5733 208.348 60.8 209.522 61.84C210.695 62.88 212.042 63.7067 213.562 64.32C215.108 64.9067 216.682 65.2 218.282 65.2C219.882 65.2 221.468 64.9733 223.042 64.52C224.642 64.0667 226.068 63.3867 227.322 62.48C228.602 61.5733 229.628 60.4533 230.402 59.12C231.202 57.76 231.602 56.2 231.602 54.44ZM228.042 54.36C228.042 55.72 227.828 56.9733 227.402 58.12C226.975 59.24 226.362 60.2133 225.562 61.04C224.788 61.84 223.842 62.4667 222.722 62.92C221.628 63.3467 220.402 63.56 219.042 63.56C217.575 63.56 216.242 63.28 215.042 62.72C213.842 62.1333 212.802 61.36 211.922 60.4C211.068 59.4133 210.402 58.28 209.922 57C209.442 55.72 209.202 54.3733 209.202 52.96C209.202 51.5733 209.428 50.3333 209.882 49.24C210.335 48.12 210.962 47.1733 211.762 46.4C212.588 45.6 213.562 44.9867 214.682 44.56C215.828 44.1333 217.068 43.92 218.402 43.92C219.842 43.92 221.148 44.2 222.322 44.76C223.522 45.32 224.535 46.08 225.362 47.04C226.215 48 226.868 49.12 227.322 50.4C227.802 51.6533 228.042 52.9733 228.042 54.36ZM260.089 43.64L259.929 42.96C258.969 42.9067 258.009 42.8667 257.049 42.84C256.089 42.7867 255.116 42.7733 254.129 42.8L252.689 42.84C252.476 42.84 252.329 42.92 252.249 43.08C252.169 43.24 252.223 43.36 252.409 43.44C252.729 43.6267 253.143 43.7467 253.649 43.8C253.836 43.8267 254.023 43.8667 254.209 43.92C254.396 43.9467 254.569 44.0267 254.729 44.16C254.889 44.2667 255.023 44.4533 255.129 44.72C255.236 44.96 255.289 45.2933 255.289 45.72V48.16C255.289 48.5867 255.276 49 255.249 49.4C255.249 49.8 255.249 50.2133 255.249 50.64C255.249 51.3067 255.263 52.0133 255.289 52.76C255.316 53.5067 255.356 54.2133 255.409 54.88C255.436 55.7067 255.463 56.52 255.489 57.32C255.516 58.0933 255.516 58.8933 255.489 59.72C252.503 56.7867 249.503 53.8933 246.489 51.04C243.476 48.16 240.436 45.3067 237.369 42.48C237.316 42.4267 237.223 42.4 237.089 42.4C236.983 42.3733 236.889 42.3867 236.809 42.44C236.676 42.5467 236.543 42.68 236.409 42.84C236.276 42.9733 236.209 43.1467 236.209 43.36V62.24C236.209 62.7733 236.049 63.1867 235.729 63.48C235.409 63.7467 235.023 63.8533 234.569 63.8H234.089C233.849 63.8 233.703 63.9067 233.649 64.12C233.623 64.3333 233.729 64.4667 233.969 64.52C234.529 64.6533 235.103 64.7333 235.689 64.76C236.303 64.7867 236.916 64.8 237.529 64.8H238.929C239.383 64.8 239.849 64.8 240.329 64.8C240.809 64.7733 241.276 64.7733 241.729 64.8C241.969 64.8 242.129 64.72 242.209 64.56C242.289 64.4 242.223 64.2667 242.009 64.16C241.769 63.9733 241.516 63.8667 241.249 63.84C240.983 63.7867 240.729 63.7333 240.489 63.68C240.303 63.6533 240.116 63.6133 239.929 63.56C239.769 63.5067 239.609 63.4133 239.449 63.28C239.316 63.1467 239.209 62.9467 239.129 62.68C239.049 62.3867 239.009 62.0133 239.009 61.56C239.009 60.5467 238.996 59.5467 238.969 58.56C238.943 57.5733 238.903 56.5867 238.849 55.6C238.796 54.5867 238.743 53.5867 238.689 52.6C238.663 51.6133 238.649 50.6133 238.649 49.6C238.649 49.3333 238.649 49.08 238.649 48.84C238.649 48.6 238.663 48.36 238.689 48.12L240.769 50.16H240.729C243.289 52.7467 245.889 55.32 248.529 57.88C251.196 60.4133 254.023 62.8 257.009 65.04C257.169 65.12 257.329 65.1467 257.489 65.12C257.649 65.0667 257.743 64.96 257.769 64.8C257.929 63.12 258.036 61.4533 258.089 59.8C258.143 58.12 258.169 56.4267 258.169 54.72C258.169 53.9733 258.156 53.1467 258.129 52.24C258.129 51.3067 258.129 50.4533 258.129 49.68C258.103 48.8533 258.089 48.04 258.089 47.24C258.089 46.4133 258.089 45.5733 258.089 44.72C258.089 44.4267 258.249 44.2133 258.569 44.08C258.889 43.9467 259.209 43.84 259.529 43.76H259.489C259.649 43.7067 259.783 43.68 259.889 43.68C260.023 43.6533 260.089 43.64 260.089 43.64ZM287.158 64.56V63.84C286.572 63.7867 285.998 63.6667 285.438 63.48C284.878 63.2933 284.438 62.8933 284.118 62.28C283.105 60.44 282.172 58.5467 281.318 56.6C280.492 54.6267 279.665 52.68 278.838 50.76L277.078 46.64V46.68C277.025 46.6 276.972 46.4933 276.918 46.36C276.865 46.2 276.798 46.0267 276.718 45.84V45.88C276.585 45.5867 276.438 45.2533 276.278 44.88C276.118 44.5067 275.945 44.16 275.758 43.84C275.572 43.4933 275.385 43.1867 275.198 42.92C275.012 42.6533 274.825 42.48 274.638 42.4C274.345 42.32 274.145 42.3733 274.038 42.56C273.238 44.4267 272.438 46.2933 271.638 48.16C270.865 50.0267 270.092 51.9067 269.318 53.8C268.785 55.08 268.225 56.4 267.638 57.76C267.078 59.0933 266.532 60.4 265.998 61.68C265.865 61.92 265.678 62.1867 265.438 62.48C265.225 62.7733 264.985 63.04 264.718 63.28C264.452 63.4933 264.172 63.6533 263.878 63.76C263.585 63.8667 263.305 63.88 263.038 63.8L262.878 64.52L269.918 64.64C270.185 64.64 270.318 64.5333 270.318 64.32C270.345 64.08 270.225 63.9467 269.958 63.92C269.692 63.8667 269.385 63.8 269.038 63.72C268.692 63.6133 268.518 63.4133 268.518 63.12C268.518 62.88 268.598 62.48 268.758 61.92C268.945 61.3333 269.172 60.7067 269.438 60.04C269.705 59.3733 269.972 58.7067 270.238 58.04C270.505 57.3733 270.745 56.8267 270.958 56.4H277.398C277.958 57.6533 278.492 58.8533 278.998 60C279.505 61.1467 280.025 62.3467 280.558 63.6L280.198 64.04C280.038 64.1733 279.985 64.3067 280.038 64.44C280.118 64.5733 280.265 64.64 280.478 64.64C280.958 64.6667 281.425 64.6933 281.878 64.72C282.332 64.72 282.798 64.72 283.278 64.72C283.945 64.72 284.598 64.7067 285.238 64.68C285.878 64.6533 286.518 64.6133 287.158 64.56ZM276.678 54.68H271.598C272.105 53.48 272.532 52.36 272.878 51.32C273.252 50.2533 273.665 49.1333 274.118 47.96L276.678 54.68ZM314.346 64.64L314.106 63.96C313.306 64.0667 312.506 63.9333 311.706 63.56C310.906 63.16 310.119 62.64 309.346 62C308.573 61.36 307.826 60.64 307.106 59.84C306.386 59.04 305.706 58.2533 305.066 57.48C304.666 57 304.266 56.5467 303.866 56.12C303.493 55.6667 303.106 55.24 302.706 54.84C303.159 54.44 303.599 54 304.026 53.52C304.479 53.0133 304.879 52.48 305.226 51.92C305.599 51.36 305.893 50.7733 306.106 50.16C306.346 49.5467 306.466 48.9333 306.466 48.32C306.466 47.0933 306.173 46.12 305.586 45.4C305.026 44.68 304.306 44.1333 303.426 43.76C302.546 43.3867 301.559 43.1467 300.466 43.04C299.399 42.9333 298.373 42.88 297.386 42.88C297.093 42.88 296.813 42.8933 296.546 42.92C296.306 42.92 296.053 42.92 295.786 42.92H294.946C294.519 42.92 294.119 42.92 293.746 42.92C293.373 42.92 292.973 42.9067 292.546 42.88C292.226 42.8533 291.906 42.84 291.586 42.84C291.266 42.84 290.959 42.84 290.666 42.84H290.066C289.853 42.84 289.706 42.8933 289.626 43C289.546 43.1067 289.559 43.2267 289.666 43.36C289.799 43.5733 289.973 43.7067 290.186 43.76C290.399 43.8133 290.653 43.8533 290.946 43.88C291.239 43.9067 291.519 43.9867 291.786 44.12C292.079 44.2533 292.226 44.64 292.226 45.28V61.52C292.226 62.0267 292.199 62.44 292.146 62.76C292.119 63.0533 292.039 63.28 291.906 63.44C291.773 63.6 291.573 63.72 291.306 63.8C291.066 63.8533 290.733 63.9067 290.306 63.96C290.066 64.0133 289.946 64.1467 289.946 64.36C289.973 64.5467 290.106 64.6533 290.346 64.68C291.706 64.76 293.053 64.8133 294.386 64.84C295.746 64.84 297.106 64.84 298.466 64.84C298.706 64.84 298.866 64.76 298.946 64.6C299.026 64.44 298.959 64.3067 298.746 64.2C298.533 64.04 298.293 63.9467 298.026 63.92C297.786 63.8667 297.546 63.8267 297.306 63.8C297.173 63.7733 297.013 63.76 296.826 63.76C296.666 63.76 296.546 63.7333 296.466 63.68C296.413 63.6533 296.346 63.5467 296.266 63.36C296.213 63.1467 296.159 62.92 296.106 62.68C296.053 62.4133 295.999 62.1733 295.946 61.96C295.919 61.72 295.906 61.5467 295.906 61.44V56.16C296.119 56.1333 296.253 56.1333 296.306 56.16C296.386 56.16 296.533 56.16 296.746 56.16C297.333 56.16 297.973 56.2133 298.666 56.32C299.386 56.4 299.973 56.64 300.426 57.04C300.933 57.4667 301.413 57.9467 301.866 58.48C302.319 59.0133 302.773 59.5733 303.226 60.16C303.733 60.8 304.253 61.4267 304.786 62.04C305.319 62.6533 305.893 63.2 306.506 63.68C307.119 64.16 307.799 64.5467 308.546 64.84C309.293 65.1333 310.133 65.28 311.066 65.28C312.239 65.28 313.333 65.0667 314.346 64.64ZM302.706 49.8C302.706 51.16 302.373 52.24 301.706 53.04C301.039 53.84 300.053 54.24 298.746 54.24C298.293 54.24 297.813 54.2267 297.306 54.2C296.826 54.1733 296.359 54.1333 295.906 54.08V44.44C296.493 44.28 297.106 44.2 297.746 44.2C298.493 44.2 299.173 44.36 299.786 44.68C300.399 44.9733 300.919 45.3733 301.346 45.88C301.799 46.3867 302.133 46.9867 302.346 47.68C302.586 48.3467 302.706 49.0533 302.706 49.8Z" fill="black"/>
<path d="M334.168 18L327.338 18.2086L331.593 24.077L335.664 22.4542L334.168 18ZM377.822 18L376.326 22.4558L380.392 24.0802L384.647 18.2102L377.822 18ZM337.392 19.3027L339.004 24.1646L334.575 25.9386L372.652 45.3814L375.469 38.7566L337.392 19.3027ZM374.598 19.3027L359.103 27.2174L367.003 31.256L377.415 25.9402L372.986 24.1662L374.598 19.3027ZM344.987 34.425L336.521 38.7566L339.338 45.3814L352.887 38.47L344.987 34.425ZM380 34.8709L372.855 51.6718L374.743 54.0446L382.861 34.9346L380 34.8709ZM331.985 34.8869L329.139 34.9506L337.247 54.0287L339.12 51.6718L331.985 34.8869ZM382.73 42.0053L378.287 52.4521L373.349 65.9406L365.246 71.2436C364.795 72.4062 364.258 73.4731 363.619 74.4286C361.76 77.2474 359.045 79.1265 355.995 79.1265C352.945 79.1265 350.23 77.2474 348.371 74.4286C347.732 73.4572 347.18 72.3902 346.73 71.2118L338.728 65.9247L334.676 54.7772L329.284 42.085L325 45.1744L331.608 69.3486L343.404 84.8117V89H368.673V84.8277L380.378 69.3645L387 45.1744L382.73 42.0053ZM355.995 51.0985C353.918 51.0985 351.972 52.3566 350.476 54.6179C348.981 56.8634 348.008 60.0961 348.008 63.6793C348.008 67.2624 348.981 70.4952 350.476 72.7406C351.972 75.0019 353.918 76.26 355.995 76.26C358.072 76.26 360.018 75.0019 361.513 72.7406C363.009 70.4952 363.982 67.2624 363.982 63.6793C363.982 60.0961 363.009 56.8634 361.513 54.6179C360.018 52.3566 358.072 51.0985 355.995 51.0985V51.0985Z" fill="black"/>
</svg>
