<svg width="453" height="107" viewBox="0 0 453 107" fill="none" xmlns="http://www.w3.org/2000/svg">
<path fill-rule="evenodd" clip-rule="evenodd" d="M56.8365 1C56.4965 1.55 56.7215 2 57.3363 2C57.9512 2 58.1881 2.43 57.8632 2.956C57.5383 3.482 56.7245 3.705 56.0546 3.45C55.3848 3.196 53.1323 4.509 51.0488 6.367C47.6026 9.441 47.4446 9.794 49.2992 10.28C50.4199 10.573 51.3377 10.405 51.3377 9.906C51.3377 8.339 53.1823 8.917 55.2458 11.132C57.2294 13.262 57.2294 13.266 55.0349 15.06C52.8874 16.815 52.7754 16.788 50.095 13.874C46.8368 10.331 46.9178 10.298 37.455 19.165C30.3106 25.861 28.741 27.928 32.2112 26.07C33.2379 25.52 34.4247 25.392 34.8466 25.785C35.2695 26.178 35.4024 25.825 35.1415 25C34.8366 24.034 35.7594 23.038 37.7349 22.201C39.9784 21.251 40.4423 20.681 39.4645 20.076C38.3807 19.407 38.3717 19.099 39.4155 18.453C40.9891 17.481 52.3375 17.162 52.3375 18.091C52.3375 19.453 49.1812 21.366 48.5124 20.408C47.7786 19.359 42.7947 19.212 41.796 20.21C40.8622 21.145 43.2976 25.144 44.3894 24.469C46.2619 23.312 45.2931 25.694 43.0257 27.826C40.7032 30.007 38.7407 30.78 39.7754 29.105C40.0803 28.612 39.7004 27.968 38.9316 27.673C37.267 27.034 33.3419 27.931 33.3419 28.95C33.3419 30.479 34.7206 30.93 36.0413 29.834C37.084 28.968 37.7099 28.969 38.5767 29.836C39.4445 30.704 39.0416 31.702 36.9401 33.897C34.6586 36.279 33.6718 36.669 31.4983 36.048C28.3311 35.144 23.9291 36.243 26.6045 37.27C27.4933 37.611 29.4458 37.668 30.9445 37.396C33.3289 36.963 33.5059 37.097 32.3641 38.473C31.6343 39.354 30.2796 39.797 29.2859 39.482C28.3101 39.172 27.1753 39.463 26.7634 40.129C26.2486 40.962 26.5345 41.141 27.6792 40.701C30.4866 39.624 29.5498 41.381 24.8649 45.979C22.4015 48.397 20.5629 50.551 20.7778 50.766C20.9928 50.981 30.1077 42.125 41.0341 31.086L60.8995 11.015L123.853 10.75L186.806 10.485L123.271 10.242C82.0196 10.085 59.3149 10.351 58.5361 11C57.6843 11.71 57.6083 11.67 58.2751 10.861C58.899 10.104 58.5101 9.151 57.1134 8.02C55.6607 6.844 55.3708 6.097 56.1746 5.6C56.8135 5.205 57.3363 5.319 57.3363 5.853C57.3363 6.386 59.5828 6.708 62.3282 6.568C66.4102 6.36 67.1161 6.558 66.2043 7.657C65.2735 8.778 74.4924 9 122.115 9C158.466 9 179.262 8.645 179.475 8.02C179.99 6.504 191.56 6.264 192.058 7.759C192.597 9.375 196.966 9.368 197.721 7.75C198.187 6.75 198.421 6.75 198.886 7.75C199.207 8.438 200.643 9 202.077 9C204.6 9 204.622 8.95 202.744 7.448C200.88 5.958 200.902 5.924 203.302 6.583C204.677 6.961 206.027 7.546 206.302 7.885C207.13 8.903 212.392 8.958 211.764 7.941C211.443 7.42 212.771 7 214.741 7C216.697 7 218.299 7.45 218.299 8C218.299 8.55 220.211 8.936 222.548 8.858L226.797 8.716L222.798 8.006C219.137 7.356 232.275 7.436 251.291 8.178C255.415 8.34 259.914 8.111 261.289 7.67C263.16 7.071 263.411 7.133 262.289 7.919C261.234 8.658 276.367 8.924 313.277 8.817C342.145 8.733 363.065 8.365 359.766 8L353.767 7.336L360.516 7.168C364.46 7.07 367.264 7.415 367.264 8C367.264 9.466 369.188 9.219 370.87 7.537C372.868 5.537 381.818 5.624 380.155 7.627C379.228 8.746 379.733 9.045 382.889 9.241C385.017 9.374 349.194 9.716 303.279 10L219.799 10.517L305.288 10.759L390.777 11L411.254 31.5C427.986 48.251 431.288 52 429.303 52C427.476 52 422.214 47.29 408.074 33L389.273 14H226.044H62.8151L43.8295 33.036C28.68 48.225 24.339 52.043 22.3445 51.93C20.9698 51.852 19.3992 51.836 18.8543 51.894C18.3094 51.952 27.5283 61.675 39.3405 73.5L60.8185 95H225.974H391.13L412.125 73.775C427.421 58.312 432.848 52.221 432.115 51.339C431.437 50.522 431.476 49.375 432.235 47.814C433.241 45.744 433.211 45.684 431.951 47.241C430.622 48.884 430.438 48.866 428.681 46.924L426.819 44.866L435.078 45.282L443.337 45.699L439.773 42.76C436.711 40.236 435.295 39.799 429.729 39.661C426.166 39.572 423.126 39.872 422.975 40.327C422.824 40.781 421.878 40.244 420.871 39.132C419.047 37.116 419.063 37.112 426.862 37.668C433.542 38.144 434.509 38.018 433.502 36.805C432.404 35.482 425.097 35.255 420.091 36.39C419.14 36.605 416.847 35.144 414.725 32.971L411.019 29.175L418.885 29.696C425.043 30.103 426.499 29.952 425.592 28.999C424.472 27.823 413.055 27.387 411.328 28.454C410.884 28.728 409.751 28.102 408.81 27.061C406.959 25.016 407.15 25.005 419.14 26.497L422.527 26.919L416.641 21.357C413.403 18.298 407 12.241 402.412 7.898L394.07 0H225.762C114.635 0 57.2444 0.34 56.8365 1ZM65.8344 3C66.1863 3.569 65.3255 4 63.8348 4C62.3442 4 61.4834 3.569 61.8353 3C62.1752 2.45 63.075 2 63.8348 2C64.5947 2 65.4944 2.45 65.8344 3ZM226.297 3C226.297 3.55 225.82 4 225.238 4C224.656 4 224.458 3.55 224.797 3C225.137 2.45 225.613 2 225.856 2C226.099 2 226.297 2.45 226.297 3ZM378.262 3C378.262 3.55 377.56 4 376.703 4C375.846 4 375.422 3.55 375.762 3C376.102 2.45 376.803 2 377.321 2C377.839 2 378.262 2.45 378.262 3ZM385.26 3C386.425 3.753 386.132 3.973 383.951 3.985C382.331 3.994 381.404 3.577 381.761 3C382.528 1.758 383.34 1.758 385.26 3ZM389.094 7.123C388.36 7.589 386.635 7.962 385.26 7.953C382.938 7.938 382.888 7.84 384.556 6.574C385.545 5.825 387.27 5.451 388.39 5.745C389.946 6.151 390.112 6.478 389.094 7.123ZM54.337 7C54.337 7.55 53.8871 8 53.3373 8C52.7874 8 52.3375 7.55 52.3375 7C52.3375 6.45 52.7874 6 53.3373 6C53.8871 6 54.337 6.45 54.337 7ZM258.019 6.604C257.687 6.936 256.824 6.972 256.103 6.683C255.305 6.364 255.542 6.127 256.707 6.079C257.761 6.036 258.351 6.272 258.019 6.604ZM284.358 7.772C274.776 7.924 266.587 7.7 266.16 7.274C265.733 6.848 273.572 6.724 283.582 6.998L301.78 7.495L284.358 7.772ZM331.273 7C332.445 7.758 332.187 7.973 330.082 7.985C328.602 7.993 327.114 7.55 326.774 7C325.985 5.723 329.297 5.723 331.273 7ZM395.258 7.545C395.258 7.727 394.389 7.81 393.327 7.73C392.266 7.65 391.606 7.248 391.86 6.836C392.283 6.153 395.258 6.773 395.258 7.545ZM59.3359 8C59.3359 8.55 60.5726 8.968 62.0852 8.93C64.5217 8.867 64.6067 8.762 62.8351 8C60.1047 6.826 59.3359 6.826 59.3359 8ZM72.6018 7.656C71.9249 7.93 70.5753 7.947 69.6025 7.693C68.6297 7.439 69.1836 7.215 70.8332 7.195C72.4828 7.175 73.2786 7.382 72.6018 7.656ZM82.0596 7.604C81.7277 7.936 80.8649 7.972 80.144 7.683C79.3462 7.364 79.5832 7.127 80.7479 7.079C81.8017 7.036 82.3915 7.272 82.0596 7.604ZM90.0907 7.687C89.135 7.937 87.3354 7.946 86.0917 7.707C84.8479 7.468 85.6298 7.263 87.8293 7.252C90.0287 7.241 91.0465 7.437 90.0907 7.687ZM105.589 7.704C104.359 7.941 102.11 7.947 100.59 7.718C99.0706 7.488 100.076 7.294 102.826 7.286C105.575 7.279 106.819 7.467 105.589 7.704ZM112.053 7.604C111.721 7.936 110.858 7.972 110.137 7.683C109.339 7.364 109.576 7.127 110.741 7.079C111.795 7.036 112.385 7.272 112.053 7.604ZM128.07 7.716C126.558 7.945 124.083 7.945 122.571 7.716C121.06 7.487 122.296 7.3 125.321 7.3C128.345 7.3 129.582 7.487 128.07 7.716ZM144.566 7.706C143.328 7.944 141.305 7.944 140.067 7.706C138.829 7.467 139.842 7.272 142.317 7.272C144.791 7.272 145.804 7.467 144.566 7.706ZM173.098 7.738C169.958 7.936 164.559 7.937 161.101 7.741C157.643 7.546 160.212 7.384 166.811 7.382C173.409 7.38 176.239 7.54 173.098 7.738ZM186.306 8C186.306 8.55 186.783 9 187.365 9C187.947 9 188.146 8.55 187.806 8C187.466 7.45 186.99 7 186.747 7C186.504 7 186.306 7.45 186.306 8ZM248.021 7.604C247.689 7.936 246.826 7.972 246.105 7.683C245.308 7.364 245.545 7.127 246.709 7.079C247.763 7.036 248.353 7.272 248.021 7.604ZM318.526 7.732C316.189 7.943 312.364 7.943 310.028 7.732C307.691 7.522 309.603 7.349 314.277 7.349C318.951 7.349 320.862 7.522 318.526 7.732ZM336.001 7.604C335.669 7.936 334.806 7.972 334.085 7.683C333.287 7.364 333.524 7.127 334.689 7.079C335.743 7.036 336.333 7.272 336.001 7.604ZM342.539 7.656C341.862 7.93 340.513 7.947 339.54 7.693C338.567 7.439 339.121 7.215 340.771 7.195C342.42 7.175 343.216 7.382 342.539 7.656ZM352.03 7.687C351.074 7.937 349.275 7.946 348.031 7.707C346.787 7.468 347.569 7.263 349.768 7.252C351.968 7.241 352.986 7.437 352.03 7.687ZM374.263 8C374.263 8.55 374.713 9 375.263 9C375.812 9 376.262 8.55 376.262 8C376.262 7.45 375.812 7 375.263 7C374.713 7 374.263 7.45 374.263 8ZM183.12 8.683C183.841 8.972 184.704 8.936 185.036 8.604C185.368 8.272 184.778 8.036 183.724 8.079C182.559 8.127 182.322 8.364 183.12 8.683ZM229.058 8.707C230.302 8.946 232.102 8.937 233.058 8.687C234.013 8.437 232.996 8.241 230.796 8.252C228.597 8.263 227.815 8.468 229.058 8.707ZM188.119 10.683C188.84 10.972 189.703 10.936 190.035 10.604C190.366 10.272 189.777 10.036 188.723 10.079C187.558 10.127 187.321 10.364 188.119 10.683ZM192.118 10.683C192.839 10.972 193.702 10.936 194.034 10.604C194.366 10.272 193.776 10.036 192.722 10.079C191.557 10.127 191.32 10.364 192.118 10.683ZM196.054 10.662C196.742 10.94 197.867 10.94 198.554 10.662C199.241 10.385 198.679 10.158 197.304 10.158C195.929 10.158 195.367 10.385 196.054 10.662ZM202.572 10.693C203.544 10.947 204.894 10.93 205.571 10.656C206.248 10.382 205.452 10.175 203.802 10.195C202.153 10.215 201.599 10.439 202.572 10.693ZM214.569 10.693C215.542 10.947 216.891 10.93 217.568 10.656C218.245 10.382 217.449 10.175 215.8 10.195C214.15 10.215 213.596 10.439 214.569 10.693ZM398.766 11.015C399.101 11.557 398.336 12.014 397.066 12.032C394.834 12.063 394.821 12.111 396.676 13.515C398.208 14.675 398.893 14.719 400.089 13.733C401.388 12.661 401.427 12.794 400.386 14.75C398.971 17.404 399.865 17.665 402.427 15.345C403.433 14.435 404.256 14.162 404.256 14.738C404.256 15.314 403.581 16.045 402.756 16.362C399.838 17.482 401.31 18.548 405.256 18.171C407.739 17.935 409.255 18.209 409.255 18.895C409.255 19.503 407.819 20 406.064 20C403.157 20 403.036 20.119 404.701 21.336C405.817 22.153 408.179 22.507 410.776 22.248C413.114 22.015 415.306 22.276 415.648 22.829C416.029 23.447 414.943 23.73 412.836 23.563C410.948 23.413 408.807 23.661 408.079 24.113C407.167 24.68 404.654 22.853 400.007 18.245C396.296 14.565 393.258 11.302 393.258 10.995C393.258 9.988 398.143 10.006 398.766 11.015ZM403.756 11C404.096 11.55 403.897 12 403.315 12C402.733 12 402.256 11.55 402.256 11C402.256 10.45 402.454 10 402.697 10C402.94 10 403.416 10.45 403.756 11ZM51.2478 13.111C52.8904 14.453 53.9831 14.754 54.68 14.057C56.0456 12.691 55.0009 11.796 51.6207 11.437L48.8383 11.142L51.2478 13.111ZM202.489 12.748C211.663 12.913 226.96 12.913 236.481 12.749C246.002 12.584 238.494 12.449 219.799 12.449C201.103 12.449 193.314 12.583 202.489 12.748ZM47.3477 15.489C46.099 16.994 44.3394 16.673 44.3394 14.941C44.3394 14.423 45.2941 14 46.4609 14C48.2275 14 48.3764 14.25 47.3477 15.489ZM7.34795 16.044C7.34795 17.34 12.4448 37.196 12.9457 37.85C13.0926 38.043 13.6495 37.931 14.1824 37.601C14.7932 37.224 14.6842 35.43 13.8904 32.751C11.8489 25.87 11.0931 20.725 12.2278 21.426C12.7817 21.769 16.4098 22.079 20.2889 22.115C24.169 22.152 27.3433 22.619 27.3433 23.154C27.3433 23.688 26.5555 24.046 25.5937 23.948C24.6319 23.85 23.3942 23.863 22.8444 23.978C22.2945 24.092 19.932 24.11 17.5956 24.017C14.9462 23.912 13.3466 24.285 13.3466 25.007C13.3466 25.789 15.0982 26.04 18.7373 25.781C22.8663 25.487 24.0121 25.702 23.6292 26.699C23.3552 27.414 21.9985 28 20.6159 28C18.4564 28 18.2824 28.22 19.3872 29.551C20.4739 30.86 20.3379 31.189 18.5094 31.667C16.6158 32.163 15.3661 34 16.9237 34C17.7755 34 32.3421 20.777 32.3421 20.004C32.3421 19.642 27.2813 18.772 21.0948 18.071C14.9092 17.37 9.2855 16.337 8.59766 15.776C7.71687 15.056 7.34795 15.135 7.34795 16.044ZM440.892 17.766C440.586 18.261 435.834 19.239 430.332 19.941L420.327 21.216L426.038 26.358C429.179 29.186 432.984 32.782 434.492 34.349C437.618 37.595 437.275 38.083 440.259 26.134C442.147 18.576 442.392 15.339 440.892 17.766ZM17.2626 19.644C17.4916 19.84 16.0289 20 14.0134 20C11.9969 20 10.3473 19.561 10.3473 19.025C10.3473 18.164 16.1379 18.682 17.2626 19.644ZM439.248 21C439.248 21.55 438.236 21.968 436.998 21.93C434.852 21.863 434.841 21.82 436.748 21C437.848 20.527 438.861 20.109 438.998 20.07C439.135 20.032 439.248 20.45 439.248 21ZM48.1405 22.531C47.0587 23.614 43.3396 23.849 43.3396 22.836C43.3396 22.258 44.0004 22.04 44.8073 22.349C45.6141 22.659 46.5588 22.452 46.9068 21.89C47.2547 21.327 47.7936 21.122 48.1055 21.433C48.4164 21.745 48.4324 22.239 48.1405 22.531ZM433.978 21.604C433.646 21.936 432.783 21.972 432.062 21.683C431.264 21.364 431.501 21.127 432.666 21.079C433.72 21.036 434.31 21.272 433.978 21.604ZM37.8869 23.925C37.5709 24.437 38.2518 25.154 39.4015 25.519C42.2388 26.42 42.9917 25.419 40.4863 24.078C39.2685 23.426 38.2328 23.365 37.8869 23.925ZM437.852 25.589C437.584 26.287 437.065 28.461 436.697 30.42C436.329 32.379 435.648 33.747 435.183 33.459C434.717 33.171 434.59 32.275 434.9 31.468C435.282 30.472 434.805 30 433.415 30C432.289 30 431.09 29.55 430.75 29C430.389 28.417 431.405 28 433.19 28C434.872 28 436.248 27.55 436.248 27C436.248 26.45 434.197 26 431.69 26C428.859 26 427.37 25.615 427.76 24.984C428.719 23.432 438.456 24.016 437.852 25.589ZM27.3433 28.5C26.2916 29.767 26.4965 30 28.662 30C31.6793 30 33.015 28.472 30.7545 27.605C28.672 26.805 28.771 26.779 27.3433 28.5ZM15.1591 28.683C15.88 28.972 16.7428 28.936 17.0747 28.604C17.4066 28.272 16.8168 28.036 15.763 28.079C14.5983 28.127 14.3613 28.364 15.1591 28.683ZM415.783 30.951C414.54 32.963 416.226 33.699 422.047 33.685C425.271 33.677 428.435 33.996 429.079 34.394C429.723 34.792 430.25 34.664 430.25 34.109C430.25 32.297 426.998 31.224 423.095 31.748C420.874 32.046 418.676 31.767 417.852 31.082C416.882 30.277 416.225 30.235 415.783 30.951ZM20.9278 34.542C17.1857 37.847 17.5566 38.843 21.8446 37C23.2133 36.412 23.3712 36.106 22.3445 36.03C21.4667 35.966 21.9856 35.301 23.5942 34.428C25.1068 33.607 26.3435 32.5 26.3435 31.968C26.3435 30.312 24.9869 30.957 20.9278 34.542ZM31.3424 31.858C31.3424 33.759 34.7106 34.057 36.2692 32.294C37.133 31.315 37.21 31.053 36.4382 31.71C35.4664 32.538 34.4667 32.602 33.189 31.918C32.0962 31.333 31.3424 31.309 31.3424 31.858ZM14.4173 40.415C13.6865 41.295 14.8182 41.585 18.8923 41.562C21.8906 41.545 24.344 41.187 24.344 40.766C24.344 40.344 23.7821 39.971 23.0943 39.936C22.4075 39.901 20.3929 39.729 18.6193 39.554C16.8457 39.379 14.9552 39.767 14.4173 40.415ZM438.244 42.596C439.034 43.386 437.761 43.74 433.649 43.874C430.521 43.977 427.637 44.261 427.239 44.507C426.843 44.752 425.753 44.108 424.819 43.075C423.17 41.253 423.33 41.201 430.136 41.35C433.995 41.435 437.644 41.996 438.244 42.596ZM10.7742 44.479C9.7144 45.28 9.2975 45.944 9.84737 45.953C11.333 45.977 13.8724 44.192 13.2446 43.565C12.9456 43.265 11.8339 43.677 10.7742 44.479ZM15.0502 44.204C14.3283 44.663 14.9702 44.975 16.6548 44.985C18.6333 44.995 19.2412 45.369 18.7123 46.25C18.1774 47.141 18.4344 47.117 19.6091 46.164C20.5159 45.429 21.6956 45.099 22.2315 45.43C22.7674 45.762 23.4592 45.622 23.7691 45.121C24.474 43.98 16.6898 43.162 15.0502 44.204ZM68.3998 47.035C70.9272 48.389 70.8422 49.755 68.0838 52.056C65.3435 54.343 63.4629 54.498 62.6971 52.5C62.3802 51.675 61.4944 51 60.7286 51C58.893 51 58.97 50.062 60.9905 47.829C62.8461 45.778 65.5164 45.492 68.3998 47.035ZM391.608 48.178C392.435 49.5 392.138 50.289 390.209 51.895C387.272 54.339 385.674 54.522 384.898 52.5C384.582 51.675 383.635 51 382.792 51C380.81 51 380.856 50.104 382.96 47.78C385.021 45.502 390.078 45.734 391.608 48.178ZM6.34818 48.5C4.9975 50.128 5.32042 50.332 7.76585 49.393C8.63565 49.059 9.34749 48.384 9.34749 47.893C9.34749 46.51 7.72786 46.838 6.34818 48.5ZM437.05 48.128C437.434 48.474 439.924 48.985 442.584 49.265C446.101 49.635 447.12 49.474 446.32 48.674C445.715 48.069 443.225 47.557 440.786 47.537C438.347 47.517 436.665 47.783 437.05 48.128ZM12.1088 48.707C13.3526 48.946 15.1521 48.937 16.1079 48.687C17.0637 48.437 16.0459 48.241 13.8464 48.252C11.647 48.263 10.8651 48.468 12.1088 48.707ZM18.3454 49.059C18.3454 49.641 18.7953 49.84 19.3452 49.5C19.895 49.16 20.3449 48.684 20.3449 48.441C20.3449 48.198 19.895 48 19.3452 48C18.7953 48 18.3454 48.477 18.3454 49.059ZM433.749 49C434.089 49.55 434.565 50 434.808 50C435.051 50 435.249 49.55 435.249 49C435.249 48.45 434.772 48 434.19 48C433.608 48 433.409 48.45 433.749 49ZM5.11647 52.168C5.69833 52.75 6.76309 53.028 7.48492 52.788C8.23375 52.538 7.77985 52.085 6.42816 51.731C4.76555 51.296 4.37464 51.426 5.11647 52.168ZM446.238 52.107C445.112 52.88 445.36 52.973 447.246 52.486C449.074 52.014 447.331 54.211 440.747 60.672C431.367 69.877 406.038 93.689 398.257 100.616L393.758 104.621L225.703 104.55L57.6473 104.479L35.7474 83.9C2.92498 53.058 1.49131 51.785 0.11863 52.256C-0.621199 52.51 2.15916 55.822 6.79008 60.205L14.7312 67.718L12.4668 76.953C9.85637 87.6 10.0313 89.938 12.7327 80.503C14.6503 73.804 14.6633 73.797 19.3162 76.804C19.5751 76.972 19.1252 77.527 18.3164 78.039C17.2027 78.743 17.5216 78.973 19.6261 78.985C21.1947 78.993 22.6644 79.67 22.9973 80.537C23.3212 81.382 24.9939 82.823 26.7145 83.738L29.8427 85.402L25.3438 86.068C22.8693 86.435 18.2574 87.052 15.0962 87.439C11.593 87.869 9.34749 88.625 9.34749 89.375C9.34749 90.341 11.7639 90.312 20.5949 89.239C28.641 88.262 32.3361 88.176 33.5779 88.936C34.5326 89.521 35.9873 90 36.8101 90C37.6319 90 42.5308 93.825 47.6966 98.5L57.0874 107H226.205H395.323L403.038 99.515C413.73 89.144 417.504 87.764 431.064 89.269C436.631 89.887 441.501 90.08 441.884 89.696C443.205 88.375 442.195 88.126 428.5 86.39C425.614 86.024 423.251 85.337 423.251 84.862C423.251 84.388 423.678 84 424.199 84C424.721 84 426.362 82.875 427.845 81.5C429.328 80.125 431.361 79 432.364 79C433.495 79 433.987 78.481 433.661 77.631C433.35 76.821 433.97 76.045 435.181 75.728C436.865 75.287 437.432 75.882 438.397 79.103C440.193 85.102 440.471 83.06 438.821 75.983C437.872 71.913 437.676 69.07 438.268 67.963C438.773 67.02 442.349 63.193 446.216 59.459C450.083 55.724 453.134 52.582 452.995 52.475C451.768 51.528 447.427 51.291 446.238 52.107ZM439.061 52.683C439.782 52.972 440.644 52.936 440.976 52.604C441.308 52.272 440.718 52.036 439.665 52.079C438.5 52.127 438.263 52.364 439.061 52.683ZM442.247 53.059C442.247 53.641 442.697 53.84 443.247 53.5C443.797 53.16 444.246 52.684 444.246 52.441C444.246 52.198 443.797 52 443.247 52C442.697 52 442.247 52.477 442.247 53.059ZM439.517 56.693C440.489 56.947 441.839 56.93 442.516 56.656C443.193 56.382 442.397 56.175 440.747 56.195C439.098 56.215 438.544 56.439 439.517 56.693ZM440.326 85.583C440.374 86.748 440.611 86.985 440.93 86.188C441.219 85.466 441.183 84.603 440.851 84.271C440.519 83.939 440.283 84.529 440.326 85.583Z" fill="#8FFF00"/>
<path d="M189.9 60.15C189.9 59.15 189.717 58.25 189.35 57.45C189.017 56.65 188.55 55.9333 187.95 55.3C187.35 54.6667 186.65 54.1333 185.85 53.7C185.083 53.2667 184.267 52.9167 183.4 52.65C184.267 51.8833 185.067 50.9833 185.8 49.95C186.567 48.9167 186.95 47.8167 186.95 46.65C186.95 45.5167 186.617 44.55 185.95 43.75C185.317 42.95 184.517 42.3 183.55 41.8C182.583 41.3 181.55 40.95 180.45 40.75C179.35 40.5167 178.35 40.4 177.45 40.4C176.817 40.4 176.183 40.4333 175.55 40.5C174.917 40.5333 174.3 40.5833 173.7 40.65C173.067 40.7167 172.467 40.7667 171.9 40.8C171.333 40.8333 170.75 40.85 170.15 40.85C169.95 40.85 169.733 40.85 169.5 40.85C169.3 40.8167 169.083 40.7833 168.85 40.75C168.55 40.7167 168.367 40.85 168.3 41.15C168.267 41.4167 168.4 41.5667 168.7 41.6C168.933 41.6333 169.217 41.7 169.55 41.8C169.883 41.9 170.183 42.05 170.45 42.25C170.717 42.4167 170.95 42.6167 171.15 42.85C171.35 43.0833 171.45 43.35 171.45 43.65V63.95C171.45 64.55 171.417 65.0333 171.35 65.4C171.283 65.7667 171.167 66.0667 171 66.3C170.833 66.5 170.583 66.6667 170.25 66.8C169.917 66.9 169.5 67.0167 169 67.15C168.7 67.2167 168.567 67.3833 168.6 67.65C168.633 67.9167 168.817 68.05 169.15 68.05C170.05 68.05 171.017 68.0667 172.05 68.1C173.117 68.1 174.083 68.1167 174.95 68.15C175.917 68.1833 176.867 68.2 177.8 68.2C178.767 68.2 179.733 68.2 180.7 68.2V68.15H180.8C181.067 68.15 181.3 68.15 181.5 68.15C181.733 68.15 181.933 68.1167 182.1 68.05H182.05C183.05 67.8833 184.017 67.5833 184.95 67.15C185.883 66.6833 186.717 66.1167 187.45 65.45C188.183 64.7833 188.767 64 189.2 63.1C189.667 62.2 189.9 61.2167 189.9 60.15ZM182.55 47.15C182.55 48.75 182.1 49.9833 181.2 50.85C180.333 51.6833 179.15 52.0667 177.65 52L176.1 51.95V42.6C176.767 42.4333 177.383 42.35 177.95 42.35C179.283 42.35 180.383 42.8 181.25 43.7C182.117 44.6 182.55 45.75 182.55 47.15ZM185.55 61C185.55 61.8 185.4 62.5333 185.1 63.2C184.833 63.8667 184.45 64.45 183.95 64.95C183.45 65.4167 182.867 65.7833 182.2 66.05C181.533 66.3167 180.817 66.45 180.05 66.45C179.717 66.45 179.317 66.4 178.85 66.3C178.417 66.1667 177.983 66 177.55 65.8C177.15 65.5667 176.8 65.2833 176.5 64.95C176.233 64.6167 176.1 64.2333 176.1 63.8V54.05L177 54C178.033 53.9333 179.05 54.0333 180.05 54.3C181.083 54.5667 182 55 182.8 55.6C183.633 56.2 184.3 56.95 184.8 57.85C185.3 58.75 185.55 59.8 185.55 61ZM222.052 67.95V67.05C221.318 66.9833 220.602 66.8333 219.902 66.6C219.202 66.3667 218.652 65.8667 218.252 65.1C216.985 62.8 215.818 60.4333 214.752 58C213.718 55.5333 212.685 53.1 211.652 50.7L209.452 45.55V45.6C209.385 45.5 209.318 45.3667 209.252 45.2C209.185 45 209.102 44.7833 209.002 44.55V44.6C208.835 44.2333 208.652 43.8167 208.452 43.35C208.252 42.8833 208.035 42.45 207.802 42.05C207.568 41.6167 207.335 41.2333 207.102 40.9C206.868 40.5667 206.635 40.35 206.402 40.25C206.035 40.15 205.785 40.2167 205.652 40.45C204.652 42.7833 203.652 45.1167 202.652 47.45C201.685 49.7833 200.718 52.1333 199.752 54.5C199.085 56.1 198.385 57.75 197.652 59.45C196.952 61.1167 196.268 62.75 195.602 64.35C195.435 64.65 195.202 64.9833 194.902 65.35C194.635 65.7167 194.335 66.05 194.002 66.35C193.668 66.6167 193.318 66.8167 192.952 66.95C192.585 67.0833 192.235 67.1 191.902 67L191.702 67.9L200.502 68.05C200.835 68.05 201.002 67.9167 201.002 67.65C201.035 67.35 200.885 67.1833 200.552 67.15C200.218 67.0833 199.835 67 199.402 66.9C198.968 66.7667 198.752 66.5167 198.752 66.15C198.752 65.85 198.852 65.35 199.052 64.65C199.285 63.9167 199.568 63.1333 199.902 62.3C200.235 61.4667 200.568 60.6333 200.902 59.8C201.235 58.9667 201.535 58.2833 201.802 57.75H209.852C210.552 59.3167 211.218 60.8167 211.852 62.25C212.485 63.6833 213.135 65.1833 213.802 66.75L213.352 67.3C213.152 67.4667 213.085 67.6333 213.152 67.8C213.252 67.9667 213.435 68.05 213.702 68.05C214.302 68.0833 214.885 68.1167 215.452 68.15C216.018 68.15 216.602 68.15 217.202 68.15C218.035 68.15 218.852 68.1333 219.652 68.1C220.452 68.0667 221.252 68.0167 222.052 67.95ZM208.952 55.6H202.602C203.235 54.1 203.768 52.7 204.202 51.4C204.668 50.0667 205.185 48.6667 205.752 47.2L208.952 55.6ZM249.086 61.5L247.936 61.3C247.002 63.0333 245.752 64.3333 244.186 65.2C242.652 66.0667 240.952 66.5 239.086 66.5C237.252 66.5 235.502 66.1667 233.836 65.5C232.202 64.8 230.752 63.8667 229.486 62.7C228.252 61.5 227.269 60.1 226.536 58.5C225.802 56.8667 225.436 55.1 225.436 53.2C225.436 51.3667 225.769 49.7667 226.436 48.4C227.102 47 228.002 45.8333 229.136 44.9C230.269 43.9667 231.586 43.2667 233.086 42.8C234.586 42.3333 236.186 42.1 237.886 42.1C238.919 42.1 239.936 42.2167 240.936 42.45C241.936 42.6833 242.836 43.0667 243.636 43.6C244.469 44.1 245.186 44.75 245.786 45.55C246.386 46.35 246.786 47.3167 246.986 48.45C247.052 48.6833 247.236 48.8 247.536 48.8C247.869 48.8 248.069 48.6833 248.136 48.45C248.336 47.35 248.519 46.2333 248.686 45.1C248.852 43.9667 248.952 42.8167 248.986 41.65C248.986 41.3833 248.802 41.25 248.436 41.25C247.702 41.1833 246.986 41.1167 246.286 41.05C245.586 40.95 244.852 40.85 244.086 40.75C243.119 40.6167 242.136 40.5 241.136 40.4C240.169 40.3 239.169 40.25 238.136 40.25C237.302 40.25 236.336 40.3 235.236 40.4C234.169 40.5 233.086 40.6667 231.986 40.9C230.886 41.1333 229.836 41.45 228.836 41.85C227.836 42.25 227.002 42.75 226.336 43.35C224.736 44.7833 223.419 46.5333 222.386 48.6C221.386 50.6667 220.886 52.7833 220.886 54.95C220.886 56.9833 221.302 58.8333 222.136 60.5C222.969 62.1667 224.069 63.6 225.436 64.8C226.836 66 228.436 66.9333 230.236 67.6C232.036 68.2333 233.919 68.55 235.886 68.55C237.752 68.55 239.719 68.35 241.786 67.95C243.886 67.5167 245.802 67.0333 247.536 66.5C247.669 66.4333 247.769 66.3333 247.836 66.2C248.136 65.5333 248.402 64.7667 248.636 63.9C248.902 63.0333 249.052 62.2333 249.086 61.5ZM282.101 68.05L281.801 67.2C280.701 67.2333 279.501 66.9167 278.201 66.25C276.934 65.5833 275.617 64.7333 274.251 63.7C272.917 62.6667 271.584 61.5333 270.251 60.3C268.917 59.0333 267.651 57.8167 266.451 56.65C265.784 55.9833 265.134 55.35 264.501 54.75C263.867 54.1167 263.267 53.5667 262.701 53.1C263.334 52.6 263.934 52.0833 264.501 51.55C265.067 50.9833 265.734 50.3167 266.501 49.55C267.401 48.7167 268.317 47.8667 269.251 47C270.184 46.1 271.117 45.3 272.051 44.6C273.017 43.8667 273.967 43.25 274.901 42.75C275.834 42.25 276.751 41.9667 277.651 41.9C277.984 41.8667 278.151 41.7333 278.151 41.5C278.151 41.2333 277.984 41.0833 277.651 41.05C276.951 40.9833 276.234 40.95 275.501 40.95C274.801 40.95 274.101 40.95 273.401 40.95C272.767 40.95 272.151 40.95 271.551 40.95C270.951 40.9167 270.334 40.8833 269.701 40.85C269.434 40.85 269.251 40.9333 269.151 41.1C269.051 41.2333 269.084 41.3833 269.251 41.55C269.384 41.6833 269.451 41.9333 269.451 42.3C269.451 42.6667 269.217 43.15 268.751 43.75C268.317 44.3167 267.751 44.95 267.051 45.65C266.351 46.35 265.584 47.0833 264.751 47.85C263.917 48.5833 263.101 49.3 262.301 50C261.801 50.4667 261.301 50.9 260.801 51.3C260.334 51.7 259.917 52.1 259.551 52.5C259.517 51.0667 259.484 49.65 259.451 48.25C259.451 46.8167 259.451 45.45 259.451 44.15C259.451 43.5167 259.701 43 260.201 42.6C260.701 42.1667 261.234 41.9333 261.801 41.9C262.101 41.9 262.251 41.7667 262.251 41.5C262.284 41.2333 262.151 41.0833 261.851 41.05C260.217 40.95 258.584 40.9 256.951 40.9C255.351 40.8667 253.751 40.85 252.151 40.85C251.884 40.85 251.701 40.9167 251.601 41.05C251.501 41.1833 251.517 41.3333 251.651 41.5C251.817 41.7667 252.034 41.9333 252.301 42C252.567 42.0667 252.884 42.1167 253.251 42.15C253.617 42.1833 253.967 42.2833 254.301 42.45C254.667 42.6167 254.851 43.0833 254.851 43.85V64.15C254.851 64.7833 254.817 65.2833 254.751 65.65C254.717 66.0167 254.617 66.3167 254.451 66.55C254.284 66.75 254.034 66.9 253.701 67C253.401 67.1 252.984 67.1833 252.451 67.25C252.151 67.3167 252.001 67.4833 252.001 67.75C252.034 68.0167 252.201 68.15 252.501 68.15C254.201 68.2167 255.867 68.2667 257.501 68.3C259.134 68.3 260.784 68.3 262.451 68.3C262.784 68.3 262.967 68.1833 263.001 67.95C263.067 67.7167 262.967 67.55 262.701 67.45C262.301 67.25 261.917 67.1333 261.551 67.1C261.184 67.0333 260.867 66.9833 260.601 66.95C260.401 66.9167 260.234 66.8833 260.101 66.85C259.967 66.8167 259.851 66.7167 259.751 66.55C259.651 66.35 259.567 66.0667 259.501 65.7C259.467 65.3 259.451 64.75 259.451 64.05V55.35C260.151 55.9167 260.734 56.4667 261.201 57C261.701 57.5 262.384 58.1833 263.251 59.05C264.384 60.1833 265.567 61.3333 266.801 62.5C268.034 63.6667 269.301 64.7333 270.601 65.7C271.901 66.6333 273.201 67.4167 274.501 68.05C275.801 68.65 277.101 68.95 278.401 68.95C279.067 68.95 279.701 68.8833 280.301 68.75C280.934 68.6167 281.534 68.3833 282.101 68.05Z" fill="black"/>
</svg>
