<svg width="453" height="107" viewBox="0 0 453 107" fill="none" xmlns="http://www.w3.org/2000/svg">
<path fill-rule="evenodd" clip-rule="evenodd" d="M56.8365 1C56.4965 1.55 56.7215 2 57.3363 2C57.9512 2 58.1881 2.43 57.8632 2.956C57.5383 3.482 56.7245 3.705 56.0546 3.45C55.3848 3.196 53.1323 4.509 51.0488 6.367C47.6026 9.441 47.4446 9.794 49.2992 10.28C50.4199 10.573 51.3377 10.405 51.3377 9.906C51.3377 8.339 53.1823 8.917 55.2458 11.132C57.2294 13.262 57.2294 13.266 55.0349 15.06C52.8874 16.815 52.7754 16.788 50.095 13.874C46.8368 10.331 46.9178 10.298 37.455 19.165C30.3106 25.861 28.741 27.928 32.2112 26.07C33.2379 25.52 34.4247 25.392 34.8466 25.785C35.2695 26.178 35.4024 25.825 35.1415 25C34.8366 24.034 35.7594 23.038 37.7349 22.201C39.9784 21.251 40.4423 20.681 39.4645 20.076C38.3807 19.407 38.3717 19.099 39.4155 18.453C40.9891 17.481 52.3375 17.162 52.3375 18.091C52.3375 19.453 49.1812 21.366 48.5124 20.408C47.7786 19.359 42.7947 19.212 41.796 20.21C40.8622 21.145 43.2976 25.144 44.3894 24.469C46.2619 23.312 45.2931 25.694 43.0257 27.826C40.7032 30.007 38.7407 30.78 39.7754 29.105C40.0803 28.612 39.7004 27.968 38.9316 27.673C37.267 27.034 33.3419 27.931 33.3419 28.95C33.3419 30.479 34.7206 30.93 36.0413 29.834C37.084 28.968 37.7099 28.969 38.5767 29.836C39.4445 30.704 39.0416 31.702 36.9401 33.897C34.6586 36.279 33.6718 36.669 31.4983 36.048C28.3311 35.144 23.9291 36.243 26.6045 37.27C27.4933 37.611 29.4458 37.668 30.9445 37.396C33.3289 36.963 33.5059 37.097 32.3641 38.473C31.6343 39.354 30.2796 39.797 29.2859 39.482C28.3101 39.172 27.1753 39.463 26.7634 40.129C26.2486 40.962 26.5345 41.141 27.6792 40.701C30.4866 39.624 29.5498 41.381 24.8649 45.979C22.4015 48.397 20.5629 50.551 20.7778 50.766C20.9928 50.981 30.1077 42.125 41.0341 31.086L60.8995 11.015L123.853 10.75L186.806 10.485L123.271 10.242C82.0196 10.085 59.3149 10.351 58.5361 11C57.6843 11.71 57.6083 11.67 58.2751 10.861C58.899 10.104 58.5101 9.151 57.1134 8.02C55.6607 6.844 55.3708 6.097 56.1746 5.6C56.8135 5.205 57.3363 5.319 57.3363 5.853C57.3363 6.386 59.5828 6.708 62.3282 6.568C66.4102 6.36 67.1161 6.558 66.2043 7.657C65.2735 8.778 74.4924 9 122.115 9C158.466 9 179.262 8.645 179.475 8.02C179.99 6.504 191.56 6.264 192.058 7.759C192.597 9.375 196.966 9.368 197.721 7.75C198.187 6.75 198.421 6.75 198.886 7.75C199.207 8.438 200.643 9 202.077 9C204.6 9 204.622 8.95 202.744 7.448C200.88 5.958 200.902 5.924 203.302 6.583C204.677 6.961 206.027 7.546 206.302 7.885C207.13 8.903 212.392 8.958 211.764 7.941C211.443 7.42 212.771 7 214.741 7C216.697 7 218.299 7.45 218.299 8C218.299 8.55 220.211 8.936 222.548 8.858L226.797 8.716L222.798 8.006C219.137 7.356 232.275 7.436 251.291 8.178C255.415 8.34 259.914 8.111 261.289 7.67C263.16 7.071 263.411 7.133 262.289 7.919C261.234 8.658 276.367 8.924 313.277 8.817C342.145 8.733 363.065 8.365 359.766 8L353.767 7.336L360.516 7.168C364.46 7.07 367.264 7.415 367.264 8C367.264 9.466 369.188 9.219 370.87 7.537C372.868 5.537 381.818 5.624 380.155 7.627C379.228 8.746 379.733 9.045 382.889 9.241C385.017 9.374 349.194 9.716 303.279 10L219.799 10.517L305.288 10.759L390.777 11L411.254 31.5C427.986 48.251 431.288 52 429.303 52C427.476 52 422.214 47.29 408.074 33L389.273 14H226.044H62.8151L43.8295 33.036C28.68 48.225 24.339 52.043 22.3445 51.93C20.9698 51.852 19.3992 51.836 18.8543 51.894C18.3094 51.952 27.5283 61.675 39.3405 73.5L60.8185 95H225.974H391.13L412.125 73.775C427.421 58.312 432.848 52.221 432.115 51.339C431.437 50.522 431.476 49.375 432.235 47.814C433.241 45.744 433.211 45.684 431.951 47.241C430.622 48.884 430.438 48.866 428.681 46.924L426.819 44.866L435.078 45.282L443.337 45.699L439.773 42.76C436.711 40.236 435.295 39.799 429.729 39.661C426.166 39.572 423.126 39.872 422.975 40.327C422.824 40.781 421.878 40.244 420.871 39.132C419.047 37.116 419.063 37.112 426.862 37.668C433.542 38.144 434.509 38.018 433.502 36.805C432.404 35.482 425.097 35.255 420.091 36.39C419.14 36.605 416.847 35.144 414.725 32.971L411.019 29.175L418.885 29.696C425.043 30.103 426.499 29.952 425.592 28.999C424.472 27.823 413.055 27.387 411.328 28.454C410.884 28.728 409.751 28.102 408.81 27.061C406.959 25.016 407.15 25.005 419.14 26.497L422.527 26.919L416.641 21.357C413.403 18.298 407 12.241 402.412 7.898L394.07 0H225.762C114.635 0 57.2444 0.34 56.8365 1ZM65.8344 3C66.1863 3.569 65.3255 4 63.8348 4C62.3442 4 61.4834 3.569 61.8353 3C62.1752 2.45 63.075 2 63.8348 2C64.5947 2 65.4944 2.45 65.8344 3ZM226.297 3C226.297 3.55 225.82 4 225.238 4C224.656 4 224.458 3.55 224.797 3C225.137 2.45 225.613 2 225.856 2C226.099 2 226.297 2.45 226.297 3ZM378.262 3C378.262 3.55 377.56 4 376.703 4C375.846 4 375.422 3.55 375.762 3C376.102 2.45 376.803 2 377.321 2C377.839 2 378.262 2.45 378.262 3ZM385.26 3C386.425 3.753 386.132 3.973 383.951 3.985C382.331 3.994 381.404 3.577 381.761 3C382.528 1.758 383.34 1.758 385.26 3ZM389.094 7.123C388.36 7.589 386.635 7.962 385.26 7.953C382.938 7.938 382.888 7.84 384.556 6.574C385.545 5.825 387.27 5.451 388.39 5.745C389.946 6.151 390.112 6.478 389.094 7.123ZM54.337 7C54.337 7.55 53.8871 8 53.3373 8C52.7874 8 52.3375 7.55 52.3375 7C52.3375 6.45 52.7874 6 53.3373 6C53.8871 6 54.337 6.45 54.337 7ZM258.019 6.604C257.687 6.936 256.824 6.972 256.103 6.683C255.305 6.364 255.542 6.127 256.707 6.079C257.761 6.036 258.351 6.272 258.019 6.604ZM284.358 7.772C274.776 7.924 266.587 7.7 266.16 7.274C265.733 6.848 273.572 6.724 283.582 6.998L301.78 7.495L284.358 7.772ZM331.273 7C332.445 7.758 332.187 7.973 330.082 7.985C328.602 7.993 327.114 7.55 326.774 7C325.985 5.723 329.297 5.723 331.273 7ZM395.258 7.545C395.258 7.727 394.389 7.81 393.327 7.73C392.266 7.65 391.606 7.248 391.86 6.836C392.283 6.153 395.258 6.773 395.258 7.545ZM59.3359 8C59.3359 8.55 60.5726 8.968 62.0852 8.93C64.5217 8.867 64.6067 8.762 62.8351 8C60.1047 6.826 59.3359 6.826 59.3359 8ZM72.6018 7.656C71.9249 7.93 70.5753 7.947 69.6025 7.693C68.6297 7.439 69.1836 7.215 70.8332 7.195C72.4828 7.175 73.2786 7.382 72.6018 7.656ZM82.0596 7.604C81.7277 7.936 80.8649 7.972 80.144 7.683C79.3462 7.364 79.5832 7.127 80.7479 7.079C81.8017 7.036 82.3915 7.272 82.0596 7.604ZM90.0907 7.687C89.135 7.937 87.3354 7.946 86.0917 7.707C84.8479 7.468 85.6298 7.263 87.8293 7.252C90.0287 7.241 91.0465 7.437 90.0907 7.687ZM105.589 7.704C104.359 7.941 102.11 7.947 100.59 7.718C99.0706 7.488 100.076 7.294 102.826 7.286C105.575 7.279 106.819 7.467 105.589 7.704ZM112.053 7.604C111.721 7.936 110.858 7.972 110.137 7.683C109.339 7.364 109.576 7.127 110.741 7.079C111.795 7.036 112.385 7.272 112.053 7.604ZM128.07 7.716C126.558 7.945 124.083 7.945 122.571 7.716C121.06 7.487 122.296 7.3 125.321 7.3C128.345 7.3 129.582 7.487 128.07 7.716ZM144.566 7.706C143.328 7.944 141.305 7.944 140.067 7.706C138.829 7.467 139.842 7.272 142.317 7.272C144.791 7.272 145.804 7.467 144.566 7.706ZM173.098 7.738C169.958 7.936 164.559 7.937 161.101 7.741C157.643 7.546 160.212 7.384 166.811 7.382C173.409 7.38 176.239 7.54 173.098 7.738ZM186.306 8C186.306 8.55 186.783 9 187.365 9C187.947 9 188.146 8.55 187.806 8C187.466 7.45 186.99 7 186.747 7C186.504 7 186.306 7.45 186.306 8ZM248.021 7.604C247.689 7.936 246.826 7.972 246.105 7.683C245.308 7.364 245.545 7.127 246.709 7.079C247.763 7.036 248.353 7.272 248.021 7.604ZM318.526 7.732C316.189 7.943 312.364 7.943 310.028 7.732C307.691 7.522 309.603 7.349 314.277 7.349C318.951 7.349 320.862 7.522 318.526 7.732ZM336.001 7.604C335.669 7.936 334.806 7.972 334.085 7.683C333.287 7.364 333.524 7.127 334.689 7.079C335.743 7.036 336.333 7.272 336.001 7.604ZM342.539 7.656C341.862 7.93 340.513 7.947 339.54 7.693C338.567 7.439 339.121 7.215 340.771 7.195C342.42 7.175 343.216 7.382 342.539 7.656ZM352.03 7.687C351.074 7.937 349.275 7.946 348.031 7.707C346.787 7.468 347.569 7.263 349.768 7.252C351.968 7.241 352.986 7.437 352.03 7.687ZM374.263 8C374.263 8.55 374.713 9 375.263 9C375.812 9 376.262 8.55 376.262 8C376.262 7.45 375.812 7 375.263 7C374.713 7 374.263 7.45 374.263 8ZM183.12 8.683C183.841 8.972 184.704 8.936 185.036 8.604C185.368 8.272 184.778 8.036 183.724 8.079C182.559 8.127 182.322 8.364 183.12 8.683ZM229.058 8.707C230.302 8.946 232.102 8.937 233.058 8.687C234.013 8.437 232.996 8.241 230.796 8.252C228.597 8.263 227.815 8.468 229.058 8.707ZM188.119 10.683C188.84 10.972 189.703 10.936 190.035 10.604C190.366 10.272 189.777 10.036 188.723 10.079C187.558 10.127 187.321 10.364 188.119 10.683ZM192.118 10.683C192.839 10.972 193.702 10.936 194.034 10.604C194.366 10.272 193.776 10.036 192.722 10.079C191.557 10.127 191.32 10.364 192.118 10.683ZM196.054 10.662C196.742 10.94 197.867 10.94 198.554 10.662C199.241 10.385 198.679 10.158 197.304 10.158C195.929 10.158 195.367 10.385 196.054 10.662ZM202.572 10.693C203.544 10.947 204.894 10.93 205.571 10.656C206.248 10.382 205.452 10.175 203.802 10.195C202.153 10.215 201.599 10.439 202.572 10.693ZM214.569 10.693C215.542 10.947 216.891 10.93 217.568 10.656C218.245 10.382 217.449 10.175 215.8 10.195C214.15 10.215 213.596 10.439 214.569 10.693ZM398.766 11.015C399.101 11.557 398.336 12.014 397.066 12.032C394.834 12.063 394.821 12.111 396.676 13.515C398.208 14.675 398.893 14.719 400.089 13.733C401.388 12.661 401.427 12.794 400.386 14.75C398.971 17.404 399.865 17.665 402.427 15.345C403.433 14.435 404.256 14.162 404.256 14.738C404.256 15.314 403.581 16.045 402.756 16.362C399.838 17.482 401.31 18.548 405.256 18.171C407.739 17.935 409.255 18.209 409.255 18.895C409.255 19.503 407.819 20 406.064 20C403.157 20 403.036 20.119 404.701 21.336C405.817 22.153 408.179 22.507 410.776 22.248C413.114 22.015 415.306 22.276 415.648 22.829C416.029 23.447 414.943 23.73 412.836 23.563C410.948 23.413 408.807 23.661 408.079 24.113C407.167 24.68 404.654 22.853 400.007 18.245C396.296 14.565 393.258 11.302 393.258 10.995C393.258 9.988 398.143 10.006 398.766 11.015ZM403.756 11C404.096 11.55 403.897 12 403.315 12C402.733 12 402.256 11.55 402.256 11C402.256 10.45 402.454 10 402.697 10C402.94 10 403.416 10.45 403.756 11ZM51.2478 13.111C52.8904 14.453 53.9831 14.754 54.68 14.057C56.0456 12.691 55.0009 11.796 51.6207 11.437L48.8383 11.142L51.2478 13.111ZM202.489 12.748C211.663 12.913 226.96 12.913 236.481 12.749C246.002 12.584 238.494 12.449 219.799 12.449C201.103 12.449 193.314 12.583 202.489 12.748ZM47.3477 15.489C46.099 16.994 44.3394 16.673 44.3394 14.941C44.3394 14.423 45.2941 14 46.4609 14C48.2275 14 48.3764 14.25 47.3477 15.489ZM7.34795 16.044C7.34795 17.34 12.4448 37.196 12.9457 37.85C13.0926 38.043 13.6495 37.931 14.1824 37.601C14.7932 37.224 14.6842 35.43 13.8904 32.751C11.8489 25.87 11.0931 20.725 12.2278 21.426C12.7817 21.769 16.4098 22.079 20.2889 22.115C24.169 22.152 27.3433 22.619 27.3433 23.154C27.3433 23.688 26.5555 24.046 25.5937 23.948C24.6319 23.85 23.3942 23.863 22.8444 23.978C22.2945 24.092 19.932 24.11 17.5956 24.017C14.9462 23.912 13.3466 24.285 13.3466 25.007C13.3466 25.789 15.0982 26.04 18.7373 25.781C22.8663 25.487 24.0121 25.702 23.6292 26.699C23.3552 27.414 21.9985 28 20.6159 28C18.4564 28 18.2824 28.22 19.3872 29.551C20.4739 30.86 20.3379 31.189 18.5094 31.667C16.6158 32.163 15.3661 34 16.9237 34C17.7755 34 32.3421 20.777 32.3421 20.004C32.3421 19.642 27.2813 18.772 21.0948 18.071C14.9092 17.37 9.2855 16.337 8.59766 15.776C7.71687 15.056 7.34795 15.135 7.34795 16.044ZM440.892 17.766C440.586 18.261 435.834 19.239 430.332 19.941L420.327 21.216L426.038 26.358C429.179 29.186 432.984 32.782 434.492 34.349C437.618 37.595 437.275 38.083 440.259 26.134C442.147 18.576 442.392 15.339 440.892 17.766ZM17.2626 19.644C17.4916 19.84 16.0289 20 14.0134 20C11.9969 20 10.3473 19.561 10.3473 19.025C10.3473 18.164 16.1379 18.682 17.2626 19.644ZM439.248 21C439.248 21.55 438.236 21.968 436.998 21.93C434.852 21.863 434.841 21.82 436.748 21C437.848 20.527 438.861 20.109 438.998 20.07C439.135 20.032 439.248 20.45 439.248 21ZM48.1405 22.531C47.0587 23.614 43.3396 23.849 43.3396 22.836C43.3396 22.258 44.0004 22.04 44.8073 22.349C45.6141 22.659 46.5588 22.452 46.9068 21.89C47.2547 21.327 47.7936 21.122 48.1055 21.433C48.4164 21.745 48.4324 22.239 48.1405 22.531ZM433.978 21.604C433.646 21.936 432.783 21.972 432.062 21.683C431.264 21.364 431.501 21.127 432.666 21.079C433.72 21.036 434.31 21.272 433.978 21.604ZM37.8869 23.925C37.5709 24.437 38.2518 25.154 39.4015 25.519C42.2388 26.42 42.9917 25.419 40.4863 24.078C39.2685 23.426 38.2328 23.365 37.8869 23.925ZM437.852 25.589C437.584 26.287 437.065 28.461 436.697 30.42C436.329 32.379 435.648 33.747 435.183 33.459C434.717 33.171 434.59 32.275 434.9 31.468C435.282 30.472 434.805 30 433.415 30C432.289 30 431.09 29.55 430.75 29C430.389 28.417 431.405 28 433.19 28C434.872 28 436.248 27.55 436.248 27C436.248 26.45 434.197 26 431.69 26C428.859 26 427.37 25.615 427.76 24.984C428.719 23.432 438.456 24.016 437.852 25.589ZM27.3433 28.5C26.2916 29.767 26.4965 30 28.662 30C31.6793 30 33.015 28.472 30.7545 27.605C28.672 26.805 28.771 26.779 27.3433 28.5ZM15.1591 28.683C15.88 28.972 16.7428 28.936 17.0747 28.604C17.4066 28.272 16.8168 28.036 15.763 28.079C14.5983 28.127 14.3613 28.364 15.1591 28.683ZM415.783 30.951C414.54 32.963 416.226 33.699 422.047 33.685C425.271 33.677 428.435 33.996 429.079 34.394C429.723 34.792 430.25 34.664 430.25 34.109C430.25 32.297 426.998 31.224 423.095 31.748C420.874 32.046 418.676 31.767 417.852 31.082C416.882 30.277 416.225 30.235 415.783 30.951ZM20.9278 34.542C17.1857 37.847 17.5566 38.843 21.8446 37C23.2133 36.412 23.3712 36.106 22.3445 36.03C21.4667 35.966 21.9856 35.301 23.5942 34.428C25.1068 33.607 26.3435 32.5 26.3435 31.968C26.3435 30.312 24.9869 30.957 20.9278 34.542ZM31.3424 31.858C31.3424 33.759 34.7106 34.057 36.2692 32.294C37.133 31.315 37.21 31.053 36.4382 31.71C35.4664 32.538 34.4667 32.602 33.189 31.918C32.0962 31.333 31.3424 31.309 31.3424 31.858ZM14.4173 40.415C13.6865 41.295 14.8182 41.585 18.8923 41.562C21.8906 41.545 24.344 41.187 24.344 40.766C24.344 40.344 23.7821 39.971 23.0943 39.936C22.4075 39.901 20.3929 39.729 18.6193 39.554C16.8457 39.379 14.9552 39.767 14.4173 40.415ZM438.244 42.596C439.034 43.386 437.761 43.74 433.649 43.874C430.521 43.977 427.637 44.261 427.239 44.507C426.843 44.752 425.753 44.108 424.819 43.075C423.17 41.253 423.33 41.201 430.136 41.35C433.995 41.435 437.644 41.996 438.244 42.596ZM10.7742 44.479C9.7144 45.28 9.2975 45.944 9.84737 45.953C11.333 45.977 13.8724 44.192 13.2446 43.565C12.9456 43.265 11.8339 43.677 10.7742 44.479ZM15.0502 44.204C14.3283 44.663 14.9702 44.975 16.6548 44.985C18.6333 44.995 19.2412 45.369 18.7123 46.25C18.1774 47.141 18.4344 47.117 19.6091 46.164C20.5159 45.429 21.6956 45.099 22.2315 45.43C22.7674 45.762 23.4592 45.622 23.7691 45.121C24.474 43.98 16.6898 43.162 15.0502 44.204ZM68.3998 47.035C70.9272 48.389 70.8422 49.755 68.0838 52.056C65.3435 54.343 63.4629 54.498 62.6971 52.5C62.3802 51.675 61.4944 51 60.7286 51C58.893 51 58.97 50.062 60.9905 47.829C62.8461 45.778 65.5164 45.492 68.3998 47.035ZM391.608 48.178C392.435 49.5 392.138 50.289 390.209 51.895C387.272 54.339 385.674 54.522 384.898 52.5C384.582 51.675 383.635 51 382.792 51C380.81 51 380.856 50.104 382.96 47.78C385.021 45.502 390.078 45.734 391.608 48.178ZM6.34818 48.5C4.9975 50.128 5.32042 50.332 7.76585 49.393C8.63565 49.059 9.34749 48.384 9.34749 47.893C9.34749 46.51 7.72786 46.838 6.34818 48.5ZM437.05 48.128C437.434 48.474 439.924 48.985 442.584 49.265C446.101 49.635 447.12 49.474 446.32 48.674C445.715 48.069 443.225 47.557 440.786 47.537C438.347 47.517 436.665 47.783 437.05 48.128ZM12.1088 48.707C13.3526 48.946 15.1521 48.937 16.1079 48.687C17.0637 48.437 16.0459 48.241 13.8464 48.252C11.647 48.263 10.8651 48.468 12.1088 48.707ZM18.3454 49.059C18.3454 49.641 18.7953 49.84 19.3452 49.5C19.895 49.16 20.3449 48.684 20.3449 48.441C20.3449 48.198 19.895 48 19.3452 48C18.7953 48 18.3454 48.477 18.3454 49.059ZM433.749 49C434.089 49.55 434.565 50 434.808 50C435.051 50 435.249 49.55 435.249 49C435.249 48.45 434.772 48 434.19 48C433.608 48 433.409 48.45 433.749 49ZM5.11647 52.168C5.69833 52.75 6.76309 53.028 7.48492 52.788C8.23375 52.538 7.77985 52.085 6.42816 51.731C4.76555 51.296 4.37464 51.426 5.11647 52.168ZM446.238 52.107C445.112 52.88 445.36 52.973 447.246 52.486C449.074 52.014 447.331 54.211 440.747 60.672C431.367 69.877 406.038 93.689 398.257 100.616L393.758 104.621L225.703 104.55L57.6473 104.479L35.7474 83.9C2.92498 53.058 1.49131 51.785 0.11863 52.256C-0.621199 52.51 2.15916 55.822 6.79008 60.205L14.7312 67.718L12.4668 76.953C9.85637 87.6 10.0313 89.938 12.7327 80.503C14.6503 73.804 14.6633 73.797 19.3162 76.804C19.5751 76.972 19.1252 77.527 18.3164 78.039C17.2027 78.743 17.5216 78.973 19.6261 78.985C21.1947 78.993 22.6644 79.67 22.9973 80.537C23.3212 81.382 24.9939 82.823 26.7145 83.738L29.8427 85.402L25.3438 86.068C22.8693 86.435 18.2574 87.052 15.0962 87.439C11.593 87.869 9.34749 88.625 9.34749 89.375C9.34749 90.341 11.7639 90.312 20.5949 89.239C28.641 88.262 32.3361 88.176 33.5779 88.936C34.5326 89.521 35.9873 90 36.8101 90C37.6319 90 42.5308 93.825 47.6966 98.5L57.0874 107H226.205H395.323L403.038 99.515C413.73 89.144 417.504 87.764 431.064 89.269C436.631 89.887 441.501 90.08 441.884 89.696C443.205 88.375 442.195 88.126 428.5 86.39C425.614 86.024 423.251 85.337 423.251 84.862C423.251 84.388 423.678 84 424.199 84C424.721 84 426.362 82.875 427.845 81.5C429.328 80.125 431.361 79 432.364 79C433.495 79 433.987 78.481 433.661 77.631C433.35 76.821 433.97 76.045 435.181 75.728C436.865 75.287 437.432 75.882 438.397 79.103C440.193 85.102 440.471 83.06 438.821 75.983C437.872 71.913 437.676 69.07 438.268 67.963C438.773 67.02 442.349 63.193 446.216 59.459C450.083 55.724 453.134 52.582 452.995 52.475C451.768 51.528 447.427 51.291 446.238 52.107ZM439.061 52.683C439.782 52.972 440.644 52.936 440.976 52.604C441.308 52.272 440.718 52.036 439.665 52.079C438.5 52.127 438.263 52.364 439.061 52.683ZM442.247 53.059C442.247 53.641 442.697 53.84 443.247 53.5C443.797 53.16 444.246 52.684 444.246 52.441C444.246 52.198 443.797 52 443.247 52C442.697 52 442.247 52.477 442.247 53.059ZM439.517 56.693C440.489 56.947 441.839 56.93 442.516 56.656C443.193 56.382 442.397 56.175 440.747 56.195C439.098 56.215 438.544 56.439 439.517 56.693ZM440.326 85.583C440.374 86.748 440.611 86.985 440.93 86.188C441.219 85.466 441.183 84.603 440.851 84.271C440.519 83.939 440.283 84.529 440.326 85.583Z" fill="#8FFF00"/>
<path d="M105.501 59.4L104.581 59.24C103.834 60.6267 102.834 61.6667 101.581 62.36C100.354 63.0533 98.9943 63.4 97.501 63.4C96.0343 63.4 94.6343 63.1333 93.301 62.6C91.9943 62.04 90.8343 61.2933 89.821 60.36C88.8343 59.4 88.0476 58.28 87.461 57C86.8743 55.6933 86.581 54.28 86.581 52.76C86.581 51.2933 86.8476 50.0133 87.381 48.92C87.9143 47.8 88.6343 46.8667 89.541 46.12C90.4476 45.3733 91.501 44.8133 92.701 44.44C93.901 44.0667 95.181 43.88 96.541 43.88C97.3676 43.88 98.181 43.9733 98.981 44.16C99.781 44.3467 100.501 44.6533 101.141 45.08C101.808 45.48 102.381 46 102.861 46.64C103.341 47.28 103.661 48.0533 103.821 48.96C103.874 49.1467 104.021 49.24 104.261 49.24C104.528 49.24 104.688 49.1467 104.741 48.96C104.901 48.08 105.048 47.1867 105.181 46.28C105.314 45.3733 105.394 44.4533 105.421 43.52C105.421 43.3067 105.274 43.2 104.981 43.2C104.394 43.1467 103.821 43.0933 103.261 43.04C102.701 42.96 102.114 42.88 101.501 42.8C100.728 42.6933 99.941 42.6 99.141 42.52C98.3676 42.44 97.5676 42.4 96.741 42.4C96.0743 42.4 95.301 42.44 94.421 42.52C93.5676 42.6 92.701 42.7333 91.821 42.92C90.941 43.1067 90.101 43.36 89.301 43.68C88.501 44 87.8343 44.4 87.301 44.88C86.021 46.0267 84.9676 47.4267 84.141 49.08C83.341 50.7333 82.941 52.4267 82.941 54.16C82.941 55.7867 83.2743 57.2667 83.941 58.6C84.6076 59.9333 85.4876 61.08 86.581 62.04C87.701 63 88.981 63.7467 90.421 64.28C91.861 64.7867 93.3676 65.04 94.941 65.04C96.4343 65.04 98.0076 64.88 99.661 64.56C101.341 64.2133 102.874 63.8267 104.261 63.4C104.368 63.3467 104.448 63.2667 104.501 63.16C104.741 62.6267 104.954 62.0133 105.141 61.32C105.354 60.6267 105.474 59.9867 105.501 59.4ZM133.473 54.44C133.473 52.7867 133.126 51.2133 132.433 49.72C131.766 48.2267 130.86 46.92 129.713 45.8C128.566 44.68 127.233 43.7867 125.713 43.12C124.22 42.4533 122.646 42.12 120.993 42.12C119.313 42.12 117.66 42.3733 116.033 42.88C114.433 43.3867 112.993 44.1333 111.713 45.12C110.46 46.08 109.433 47.2667 108.633 48.68C107.86 50.0933 107.473 51.7067 107.473 53.52C107.473 55.1733 107.833 56.72 108.553 58.16C109.273 59.5733 110.22 60.8 111.393 61.84C112.566 62.88 113.913 63.7067 115.433 64.32C116.98 64.9067 118.553 65.2 120.153 65.2C121.753 65.2 123.34 64.9733 124.913 64.52C126.513 64.0667 127.94 63.3867 129.193 62.48C130.473 61.5733 131.5 60.4533 132.273 59.12C133.073 57.76 133.473 56.2 133.473 54.44ZM129.913 54.36C129.913 55.72 129.7 56.9733 129.273 58.12C128.846 59.24 128.233 60.2133 127.433 61.04C126.66 61.84 125.713 62.4667 124.593 62.92C123.5 63.3467 122.273 63.56 120.913 63.56C119.446 63.56 118.113 63.28 116.913 62.72C115.713 62.1333 114.673 61.36 113.793 60.4C112.94 59.4133 112.273 58.28 111.793 57C111.313 55.72 111.073 54.3733 111.073 52.96C111.073 51.5733 111.3 50.3333 111.753 49.24C112.206 48.12 112.833 47.1733 113.633 46.4C114.46 45.6 115.433 44.9867 116.553 44.56C117.7 44.1333 118.94 43.92 120.273 43.92C121.713 43.92 123.02 44.2 124.193 44.76C125.393 45.32 126.406 46.08 127.233 47.04C128.086 48 128.74 49.12 129.193 50.4C129.673 51.6533 129.913 52.9733 129.913 54.36ZM161.961 43.64L161.801 42.96C160.841 42.9067 159.881 42.8667 158.921 42.84C157.961 42.7867 156.988 42.7733 156.001 42.8L154.561 42.84C154.348 42.84 154.201 42.92 154.121 43.08C154.041 43.24 154.094 43.36 154.281 43.44C154.601 43.6267 155.014 43.7467 155.521 43.8C155.708 43.8267 155.894 43.8667 156.081 43.92C156.268 43.9467 156.441 44.0267 156.601 44.16C156.761 44.2667 156.894 44.4533 157.001 44.72C157.108 44.96 157.161 45.2933 157.161 45.72V48.16C157.161 48.5867 157.148 49 157.121 49.4C157.121 49.8 157.121 50.2133 157.121 50.64C157.121 51.3067 157.134 52.0133 157.161 52.76C157.188 53.5067 157.228 54.2133 157.281 54.88C157.308 55.7067 157.334 56.52 157.361 57.32C157.388 58.0933 157.388 58.8933 157.361 59.72C154.374 56.7867 151.374 53.8933 148.361 51.04C145.348 48.16 142.308 45.3067 139.241 42.48C139.188 42.4267 139.094 42.4 138.961 42.4C138.854 42.3733 138.761 42.3867 138.681 42.44C138.548 42.5467 138.414 42.68 138.281 42.84C138.148 42.9733 138.081 43.1467 138.081 43.36V62.24C138.081 62.7733 137.921 63.1867 137.601 63.48C137.281 63.7467 136.894 63.8533 136.441 63.8H135.961C135.721 63.8 135.574 63.9067 135.521 64.12C135.494 64.3333 135.601 64.4667 135.841 64.52C136.401 64.6533 136.974 64.7333 137.561 64.76C138.174 64.7867 138.788 64.8 139.401 64.8H140.801C141.254 64.8 141.721 64.8 142.201 64.8C142.681 64.7733 143.148 64.7733 143.601 64.8C143.841 64.8 144.001 64.72 144.081 64.56C144.161 64.4 144.094 64.2667 143.881 64.16C143.641 63.9733 143.388 63.8667 143.121 63.84C142.854 63.7867 142.601 63.7333 142.361 63.68C142.174 63.6533 141.988 63.6133 141.801 63.56C141.641 63.5067 141.481 63.4133 141.321 63.28C141.188 63.1467 141.081 62.9467 141.001 62.68C140.921 62.3867 140.881 62.0133 140.881 61.56C140.881 60.5467 140.868 59.5467 140.841 58.56C140.814 57.5733 140.774 56.5867 140.721 55.6C140.668 54.5867 140.614 53.5867 140.561 52.6C140.534 51.6133 140.521 50.6133 140.521 49.6C140.521 49.3333 140.521 49.08 140.521 48.84C140.521 48.6 140.534 48.36 140.561 48.12L142.641 50.16H142.601C145.161 52.7467 147.761 55.32 150.401 57.88C153.068 60.4133 155.894 62.8 158.881 65.04C159.041 65.12 159.201 65.1467 159.361 65.12C159.521 65.0667 159.614 64.96 159.641 64.8C159.801 63.12 159.908 61.4533 159.961 59.8C160.014 58.12 160.041 56.4267 160.041 54.72C160.041 53.9733 160.028 53.1467 160.001 52.24C160.001 51.3067 160.001 50.4533 160.001 49.68C159.974 48.8533 159.961 48.04 159.961 47.24C159.961 46.4133 159.961 45.5733 159.961 44.72C159.961 44.4267 160.121 44.2133 160.441 44.08C160.761 43.9467 161.081 43.84 161.401 43.76H161.361C161.521 43.7067 161.654 43.68 161.761 43.68C161.894 43.6533 161.961 43.64 161.961 43.64ZM185.07 43.64V43C185.07 42.7067 184.897 42.5867 184.55 42.64C184.39 42.6667 184.243 42.6933 184.11 42.72C183.977 42.72 183.87 42.7467 183.79 42.8H183.83C183.617 42.8533 183.403 42.9067 183.19 42.96C182.977 43.0133 182.803 43.04 182.67 43.04H168.39C168.23 43.04 168.017 43.0267 167.75 43C167.51 42.9467 167.257 42.8933 166.99 42.84C166.723 42.7867 166.457 42.7333 166.19 42.68C165.95 42.6 165.777 42.52 165.67 42.44C165.537 42.3867 165.403 42.3867 165.27 42.44C165.137 42.4667 165.043 42.5467 164.99 42.68C164.937 42.84 164.883 43 164.83 43.16C164.803 43.32 164.763 43.4667 164.71 43.6C164.577 44 164.443 44.4267 164.31 44.88C164.177 45.3333 164.11 45.7333 164.11 46.08C164.11 46.3467 164.123 46.52 164.15 46.6C164.203 46.76 164.337 46.8533 164.55 46.88C164.763 46.9067 164.923 46.84 165.03 46.68C165.323 46.1467 165.71 45.6933 166.19 45.32C166.697 44.9467 167.243 44.76 167.83 44.76H172.91V61.6C172.91 62.08 172.883 62.4667 172.83 62.76C172.777 63.0267 172.683 63.24 172.55 63.4C172.417 63.56 172.217 63.68 171.95 63.76C171.683 63.8133 171.35 63.8667 170.95 63.92C170.71 63.9733 170.59 64.1067 170.59 64.32C170.617 64.5333 170.75 64.64 170.99 64.64C172.35 64.6933 173.697 64.7333 175.03 64.76C176.39 64.7867 177.75 64.8 179.11 64.8C179.323 64.8 179.47 64.7467 179.55 64.64C179.63 64.5333 179.63 64.4133 179.55 64.28C179.443 64.0667 179.257 63.9333 178.99 63.88C178.75 63.8267 178.483 63.7867 178.19 63.76C178.03 63.7333 177.83 63.7067 177.59 63.68C177.377 63.6533 177.217 63.6133 177.11 63.56H177.07C177.017 63.5333 176.963 63.4267 176.91 63.24C176.857 63.0267 176.803 62.8 176.75 62.56C176.723 62.2933 176.683 62.0533 176.63 61.84C176.603 61.6 176.59 61.44 176.59 61.36V44.8C176.777 44.8533 176.883 44.8667 176.91 44.84C176.963 44.8133 177.097 44.8 177.31 44.8C177.577 44.8 177.843 44.8 178.11 44.8C178.377 44.8 178.63 44.7867 178.87 44.76C179.11 44.7333 179.337 44.72 179.55 44.72C179.763 44.72 179.977 44.72 180.19 44.72C181.043 44.72 181.803 44.8533 182.47 45.12C183.163 45.36 183.603 45.9467 183.79 46.88C183.843 47.0667 183.99 47.16 184.23 47.16C184.497 47.16 184.657 47.0667 184.71 46.88C184.95 45.8133 185.07 44.7333 185.07 43.64ZM195.8 64.2C195.586 64.0133 195.36 63.9067 195.12 63.88C194.906 63.8267 194.653 63.8 194.36 63.8C194.226 63.8 194.08 63.7867 193.92 63.76C193.76 63.7333 193.64 63.7067 193.56 63.68C193.506 63.6 193.44 63.4533 193.36 63.24C193.28 63.0267 193.213 62.8 193.16 62.56C193.106 62.32 193.053 62.0933 193 61.88C192.973 61.6667 192.96 61.5067 192.96 61.4V45.24C192.96 44.6 193.146 44.2 193.52 44.04C193.893 43.88 194.346 43.76 194.88 43.68C195.12 43.6267 195.226 43.5067 195.2 43.32C195.2 43.1333 195.08 43.0267 194.84 43C194.226 42.9467 193.626 42.9467 193.04 43C192.453 43.0533 191.853 43.08 191.24 43.08C190.626 43.08 190 43.0533 189.36 43C188.72 42.9467 188.08 42.9467 187.44 43C187.173 43.0267 187.026 43.1467 187 43.36C187 43.5467 187.133 43.6533 187.4 43.68C187.88 43.7333 188.333 43.88 188.76 44.12C189.213 44.3333 189.44 44.7067 189.44 45.24V61.52C189.44 61.7333 189.413 61.9733 189.36 62.24C189.333 62.5067 189.28 62.7733 189.2 63.04C189.12 63.3067 189 63.5333 188.84 63.72C188.706 63.88 188.533 63.96 188.32 63.96C188.266 63.96 188.186 63.9867 188.08 64.04C188 64.0667 187.893 64.0533 187.76 64C187.52 63.9467 187.346 64.0533 187.24 64.32C187.133 64.56 187.2 64.72 187.44 64.8C187.626 64.88 187.88 64.9333 188.2 64.96C188.546 64.96 188.893 64.9467 189.24 64.92C189.613 64.8933 189.96 64.8667 190.28 64.84C190.6 64.8133 190.866 64.8 191.08 64.8L192.6 64.84C193.106 64.8667 193.586 64.8667 194.04 64.84C194.52 64.8133 195 64.8133 195.48 64.84L195.8 64.2ZM224.422 43.64L224.262 42.96C223.302 42.9067 222.342 42.8667 221.382 42.84C220.422 42.7867 219.449 42.7733 218.462 42.8L217.022 42.84C216.809 42.84 216.662 42.92 216.582 43.08C216.502 43.24 216.555 43.36 216.742 43.44C217.062 43.6267 217.475 43.7467 217.982 43.8C218.169 43.8267 218.355 43.8667 218.542 43.92C218.729 43.9467 218.902 44.0267 219.062 44.16C219.222 44.2667 219.355 44.4533 219.462 44.72C219.569 44.96 219.622 45.2933 219.622 45.72V48.16C219.622 48.5867 219.609 49 219.582 49.4C219.582 49.8 219.582 50.2133 219.582 50.64C219.582 51.3067 219.595 52.0133 219.622 52.76C219.649 53.5067 219.689 54.2133 219.742 54.88C219.769 55.7067 219.795 56.52 219.822 57.32C219.849 58.0933 219.849 58.8933 219.822 59.72C216.835 56.7867 213.835 53.8933 210.822 51.04C207.809 48.16 204.769 45.3067 201.702 42.48C201.649 42.4267 201.555 42.4 201.422 42.4C201.315 42.3733 201.222 42.3867 201.142 42.44C201.009 42.5467 200.875 42.68 200.742 42.84C200.609 42.9733 200.542 43.1467 200.542 43.36V62.24C200.542 62.7733 200.382 63.1867 200.062 63.48C199.742 63.7467 199.355 63.8533 198.902 63.8H198.422C198.182 63.8 198.035 63.9067 197.982 64.12C197.955 64.3333 198.062 64.4667 198.302 64.52C198.862 64.6533 199.435 64.7333 200.022 64.76C200.635 64.7867 201.249 64.8 201.862 64.8H203.262C203.715 64.8 204.182 64.8 204.662 64.8C205.142 64.7733 205.609 64.7733 206.062 64.8C206.302 64.8 206.462 64.72 206.542 64.56C206.622 64.4 206.555 64.2667 206.342 64.16C206.102 63.9733 205.849 63.8667 205.582 63.84C205.315 63.7867 205.062 63.7333 204.822 63.68C204.635 63.6533 204.449 63.6133 204.262 63.56C204.102 63.5067 203.942 63.4133 203.782 63.28C203.649 63.1467 203.542 62.9467 203.462 62.68C203.382 62.3867 203.342 62.0133 203.342 61.56C203.342 60.5467 203.329 59.5467 203.302 58.56C203.275 57.5733 203.235 56.5867 203.182 55.6C203.129 54.5867 203.075 53.5867 203.022 52.6C202.995 51.6133 202.982 50.6133 202.982 49.6C202.982 49.3333 202.982 49.08 202.982 48.84C202.982 48.6 202.995 48.36 203.022 48.12L205.102 50.16H205.062C207.622 52.7467 210.222 55.32 212.862 57.88C215.529 60.4133 218.355 62.8 221.342 65.04C221.502 65.12 221.662 65.1467 221.822 65.12C221.982 65.0667 222.075 64.96 222.102 64.8C222.262 63.12 222.369 61.4533 222.422 59.8C222.475 58.12 222.502 56.4267 222.502 54.72C222.502 53.9733 222.489 53.1467 222.462 52.24C222.462 51.3067 222.462 50.4533 222.462 49.68C222.435 48.8533 222.422 48.04 222.422 47.24C222.422 46.4133 222.422 45.5733 222.422 44.72C222.422 44.4267 222.582 44.2133 222.902 44.08C223.222 43.9467 223.542 43.84 223.862 43.76H223.822C223.982 43.7067 224.115 43.68 224.222 43.68C224.355 43.6533 224.422 43.64 224.422 43.64ZM251.211 43.72L251.171 43.04C249.998 42.96 248.824 42.9067 247.651 42.88C246.478 42.8533 245.291 42.84 244.091 42.84C243.718 42.84 243.558 42.9733 243.611 43.24C243.664 43.5333 243.811 43.7067 244.051 43.76C244.318 43.7867 244.598 43.8133 244.891 43.84C245.051 43.8667 245.211 43.8933 245.371 43.92C245.558 43.9467 245.718 44.0133 245.851 44.12C245.984 44.2 246.091 44.3333 246.171 44.52C246.278 44.7067 246.331 44.96 246.331 45.28C246.331 46.32 246.331 47.36 246.331 48.4C246.331 49.44 246.344 50.4667 246.371 51.48C246.398 52.52 246.411 53.56 246.411 54.6C246.411 55.64 246.411 56.6667 246.411 57.68C246.411 58.64 246.224 59.48 245.851 60.2C245.478 60.92 244.971 61.5333 244.331 62.04C243.718 62.52 242.998 62.8933 242.171 63.16C241.371 63.4 240.544 63.52 239.691 63.52C238.838 63.52 238.011 63.4 237.211 63.16C236.438 62.92 235.744 62.56 235.131 62.08C234.518 61.6 234.024 61.0133 233.651 60.32C233.278 59.6 233.091 58.7733 233.091 57.84C233.091 56.8 233.091 55.76 233.091 54.72C233.118 53.6533 233.131 52.5867 233.131 51.52V45.24C233.131 44.6533 233.318 44.28 233.691 44.12C234.064 43.9333 234.518 43.8133 235.051 43.76C235.291 43.7333 235.411 43.6267 235.411 43.44C235.411 43.2267 235.291 43.1067 235.051 43.08C232.838 42.92 230.638 42.84 228.451 42.84H227.211C226.838 42.84 226.678 42.9733 226.731 43.24C226.784 43.5333 226.918 43.6933 227.131 43.72C227.371 43.7467 227.651 43.7867 227.971 43.84C228.291 43.8667 228.611 43.9467 228.931 44.08C229.278 44.2133 229.451 44.6133 229.451 45.28V57.12C229.451 57.28 229.464 57.4667 229.491 57.68C229.544 57.8933 229.571 58.12 229.571 58.36V58.32C229.571 59.52 229.891 60.56 230.531 61.44C231.198 62.32 232.024 63.0533 233.011 63.64C234.024 64.2 235.118 64.6267 236.291 64.92C237.491 65.1867 238.624 65.32 239.691 65.32C240.998 65.32 242.238 65.1067 243.411 64.68C244.584 64.2533 245.598 63.6533 246.451 62.88C247.331 62.08 248.024 61.1333 248.531 60.04C249.038 58.92 249.291 57.68 249.291 56.32V45.24C249.291 44.7067 249.491 44.3333 249.891 44.12C250.318 43.9067 250.758 43.7733 251.211 43.72ZM274.538 64.56V63.84C273.951 63.7867 273.378 63.6667 272.818 63.48C272.258 63.2933 271.818 62.8933 271.498 62.28C270.484 60.44 269.551 58.5467 268.698 56.6C267.871 54.6267 267.044 52.68 266.218 50.76L264.458 46.64V46.68C264.404 46.6 264.351 46.4933 264.298 46.36C264.244 46.2 264.178 46.0267 264.098 45.84V45.88C263.964 45.5867 263.818 45.2533 263.658 44.88C263.498 44.5067 263.324 44.16 263.138 43.84C262.951 43.4933 262.764 43.1867 262.578 42.92C262.391 42.6533 262.204 42.48 262.018 42.4C261.724 42.32 261.524 42.3733 261.418 42.56C260.618 44.4267 259.818 46.2933 259.018 48.16C258.244 50.0267 257.471 51.9067 256.698 53.8C256.164 55.08 255.604 56.4 255.018 57.76C254.458 59.0933 253.911 60.4 253.378 61.68C253.244 61.92 253.058 62.1867 252.818 62.48C252.604 62.7733 252.364 63.04 252.098 63.28C251.831 63.4933 251.551 63.6533 251.258 63.76C250.964 63.8667 250.684 63.88 250.418 63.8L250.258 64.52L257.298 64.64C257.564 64.64 257.698 64.5333 257.698 64.32C257.724 64.08 257.604 63.9467 257.338 63.92C257.071 63.8667 256.764 63.8 256.418 63.72C256.071 63.6133 255.898 63.4133 255.898 63.12C255.898 62.88 255.978 62.48 256.138 61.92C256.324 61.3333 256.551 60.7067 256.818 60.04C257.084 59.3733 257.351 58.7067 257.618 58.04C257.884 57.3733 258.124 56.8267 258.338 56.4H264.778C265.338 57.6533 265.871 58.8533 266.378 60C266.884 61.1467 267.404 62.3467 267.938 63.6L267.578 64.04C267.418 64.1733 267.364 64.3067 267.418 64.44C267.498 64.5733 267.644 64.64 267.858 64.64C268.338 64.6667 268.804 64.6933 269.258 64.72C269.711 64.72 270.178 64.72 270.658 64.72C271.325 64.72 271.978 64.7067 272.618 64.68C273.258 64.6533 273.898 64.6133 274.538 64.56ZM264.058 54.68H258.978C259.484 53.48 259.911 52.36 260.258 51.32C260.631 50.2533 261.044 49.1333 261.498 47.96L264.058 54.68ZM301.725 64.64L301.485 63.96C300.685 64.0667 299.885 63.9333 299.085 63.56C298.285 63.16 297.499 62.64 296.725 62C295.952 61.36 295.205 60.64 294.485 59.84C293.765 59.04 293.085 58.2533 292.445 57.48C292.045 57 291.645 56.5467 291.245 56.12C290.872 55.6667 290.485 55.24 290.085 54.84C290.539 54.44 290.979 54 291.405 53.52C291.859 53.0133 292.259 52.48 292.605 51.92C292.979 51.36 293.272 50.7733 293.485 50.16C293.725 49.5467 293.845 48.9333 293.845 48.32C293.845 47.0933 293.552 46.12 292.965 45.4C292.405 44.68 291.685 44.1333 290.805 43.76C289.925 43.3867 288.939 43.1467 287.845 43.04C286.779 42.9333 285.752 42.88 284.765 42.88C284.472 42.88 284.192 42.8933 283.925 42.92C283.685 42.92 283.432 42.92 283.165 42.92H282.325C281.899 42.92 281.499 42.92 281.125 42.92C280.752 42.92 280.352 42.9067 279.925 42.88C279.605 42.8533 279.285 42.84 278.965 42.84C278.645 42.84 278.339 42.84 278.045 42.84H277.445C277.232 42.84 277.085 42.8933 277.005 43C276.925 43.1067 276.939 43.2267 277.045 43.36C277.179 43.5733 277.352 43.7067 277.565 43.76C277.779 43.8133 278.032 43.8533 278.325 43.88C278.619 43.9067 278.899 43.9867 279.165 44.12C279.459 44.2533 279.605 44.64 279.605 45.28V61.52C279.605 62.0267 279.579 62.44 279.525 62.76C279.499 63.0533 279.419 63.28 279.285 63.44C279.152 63.6 278.952 63.72 278.685 63.8C278.445 63.8533 278.112 63.9067 277.685 63.96C277.445 64.0133 277.325 64.1467 277.325 64.36C277.352 64.5467 277.485 64.6533 277.725 64.68C279.085 64.76 280.432 64.8133 281.765 64.84C283.125 64.84 284.485 64.84 285.845 64.84C286.085 64.84 286.245 64.76 286.325 64.6C286.405 64.44 286.339 64.3067 286.125 64.2C285.912 64.04 285.672 63.9467 285.405 63.92C285.165 63.8667 284.925 63.8267 284.685 63.8C284.552 63.7733 284.392 63.76 284.205 63.76C284.045 63.76 283.925 63.7333 283.845 63.68C283.792 63.6533 283.725 63.5467 283.645 63.36C283.592 63.1467 283.539 62.92 283.485 62.68C283.432 62.4133 283.379 62.1733 283.325 61.96C283.299 61.72 283.285 61.5467 283.285 61.44V56.16C283.499 56.1333 283.632 56.1333 283.685 56.16C283.765 56.16 283.912 56.16 284.125 56.16C284.712 56.16 285.352 56.2133 286.045 56.32C286.765 56.4 287.352 56.64 287.805 57.04C288.312 57.4667 288.792 57.9467 289.245 58.48C289.699 59.0133 290.152 59.5733 290.605 60.16C291.112 60.8 291.632 61.4267 292.165 62.04C292.699 62.6533 293.272 63.2 293.885 63.68C294.499 64.16 295.179 64.5467 295.925 64.84C296.672 65.1333 297.512 65.28 298.445 65.28C299.619 65.28 300.712 65.0667 301.725 64.64ZM290.085 49.8C290.085 51.16 289.752 52.24 289.085 53.04C288.419 53.84 287.432 54.24 286.125 54.24C285.672 54.24 285.192 54.2267 284.685 54.2C284.205 54.1733 283.739 54.1333 283.285 54.08V44.44C283.872 44.28 284.485 44.2 285.125 44.2C285.872 44.2 286.552 44.36 287.165 44.68C287.779 44.9733 288.299 45.3733 288.725 45.88C289.179 46.3867 289.512 46.9867 289.725 47.68C289.965 48.3467 290.085 49.0533 290.085 49.8Z" fill="black"/>
<path d="M374.389 32.55C373.412 29.7028 372.002 27.1226 370.24 24.954C368.477 22.7789 366.398 21.0503 364.116 19.8624C361.75 18.6257 359.212 17.9926 356.65 18.0001C353.056 18.0001 349.549 19.2386 346.501 21.5779C345.772 22.1375 345.08 22.7522 344.424 23.4219C343.767 22.7522 343.075 22.1375 342.346 21.5779C339.298 19.2386 335.791 18.0001 332.197 18.0001C329.609 18.0001 327.101 18.6239 324.731 19.8624C322.442 21.055 320.379 22.7705 318.607 24.954C316.842 27.1201 315.433 29.7009 314.458 32.55C313.445 35.5132 312.927 38.6599 312.927 41.8984C312.927 44.9533 313.423 48.1367 314.407 51.3751C315.231 54.0814 316.412 56.8887 317.922 59.7234C320.313 64.2095 323.601 68.8883 327.684 73.6312C334.45 81.4934 341.15 86.9244 341.434 87.1446L343.162 88.539C343.928 89.1537 344.912 89.1537 345.678 88.539L347.406 87.1446C347.69 86.9152 354.383 81.4934 361.156 73.6312C365.239 68.8883 368.527 64.2095 370.918 59.7234C372.428 56.8887 373.616 54.0814 374.433 51.3751C375.417 48.1367 375.913 44.9533 375.913 41.8984C375.92 38.6599 375.402 35.5132 374.389 32.55V32.55Z" fill="black"/>
</svg>
