<svg width="454" height="107" viewBox="0 0 454 107" fill="none" xmlns="http://www.w3.org/2000/svg">
<path fill-rule="evenodd" clip-rule="evenodd" d="M56.8497 1C56.5097 1.55 56.7347 2 57.3497 2C57.9647 2 58.2017 2.43 57.8767 2.956C57.5517 3.482 56.7377 3.705 56.0677 3.45C55.3977 3.196 53.1447 4.509 51.0607 6.367C47.6137 9.441 47.4557 9.794 49.3107 10.28C50.4317 10.573 51.3497 10.405 51.3497 9.906C51.3497 8.339 53.1947 8.917 55.2587 11.132C57.2427 13.262 57.2427 13.266 55.0477 15.06C52.8997 16.815 52.7877 16.788 50.1067 13.874C46.8477 10.331 46.9287 10.298 37.4637 19.165C30.3177 25.861 28.7477 27.928 32.2187 26.07C33.2457 25.52 34.4327 25.392 34.8547 25.785C35.2777 26.178 35.4107 25.825 35.1497 25C34.8447 24.034 35.7677 23.038 37.7437 22.201C39.9877 21.251 40.4517 20.681 39.4737 20.076C38.3897 19.407 38.3807 19.099 39.4247 18.453C40.9987 17.481 52.3497 17.162 52.3497 18.091C52.3497 19.453 49.1927 21.366 48.5237 20.408C47.7897 19.359 42.8047 19.212 41.8057 20.21C40.8717 21.145 43.3077 25.144 44.3997 24.469C46.2727 23.312 45.3037 25.694 43.0357 27.826C40.7127 30.007 38.7497 30.78 39.7847 29.105C40.0897 28.612 39.7097 27.968 38.9407 27.673C37.2757 27.034 33.3497 27.931 33.3497 28.95C33.3497 30.479 34.7287 30.93 36.0497 29.834C37.0927 28.968 37.7187 28.969 38.5857 29.836C39.4537 30.704 39.0507 31.702 36.9487 33.897C34.6667 36.279 33.6797 36.669 31.5057 36.048C28.3377 35.144 23.9347 36.243 26.6107 37.27C27.4997 37.611 29.4527 37.668 30.9517 37.396C33.3367 36.963 33.5137 37.097 32.3717 38.473C31.6417 39.354 30.2867 39.797 29.2927 39.482C28.3167 39.172 27.1817 39.463 26.7697 40.129C26.2547 40.962 26.5407 41.141 27.6857 40.701C30.4937 39.624 29.5567 41.381 24.8707 45.979C22.4067 48.397 20.5677 50.551 20.7827 50.766C20.9977 50.981 30.1147 42.125 41.0437 31.086L60.9137 11.015L123.882 10.75L186.85 10.485L123.3 10.242C82.0387 10.085 59.3287 10.351 58.5497 11C57.6977 11.71 57.6217 11.67 58.2887 10.861C58.9127 10.104 58.5237 9.151 57.1267 8.02C55.6737 6.844 55.3837 6.097 56.1877 5.6C56.8267 5.205 57.3497 5.319 57.3497 5.853C57.3497 6.386 59.5967 6.708 62.3427 6.568C66.4257 6.36 67.1317 6.558 66.2197 7.657C65.2887 8.778 74.5097 9 122.144 9C158.503 9 179.304 8.645 179.517 8.02C180.032 6.504 191.605 6.264 192.103 7.759C192.642 9.375 197.012 9.368 197.767 7.75C198.233 6.75 198.467 6.75 198.933 7.75C199.254 8.438 200.69 9 202.124 9C204.648 9 204.67 8.95 202.791 7.448C200.927 5.958 200.949 5.924 203.35 6.583C204.725 6.961 206.075 7.546 206.35 7.885C207.178 8.903 212.442 8.958 211.814 7.941C211.492 7.42 212.821 7 214.791 7C216.748 7 218.35 7.45 218.35 8C218.35 8.55 220.262 8.936 222.6 8.858L226.85 8.716L222.85 8.006C219.188 7.356 232.329 7.436 251.35 8.178C255.475 8.34 259.975 8.111 261.35 7.67C263.221 7.071 263.473 7.133 262.35 7.919C261.295 8.658 276.432 8.924 313.35 8.817C342.225 8.733 363.15 8.365 359.85 8L353.85 7.336L360.6 7.168C364.545 7.07 367.35 7.415 367.35 8C367.35 9.466 369.274 9.219 370.956 7.537C372.955 5.537 381.907 5.624 380.244 7.627C379.316 8.746 379.822 9.045 382.978 9.241C385.107 9.374 349.275 9.716 303.35 10L219.85 10.517L305.359 10.759L390.868 11L411.35 31.5C428.086 48.251 431.388 52 429.403 52C427.576 52 422.312 47.29 408.169 33L389.364 14H226.097H62.8297L43.8397 33.036C28.6867 48.225 24.3447 52.043 22.3497 51.93C20.9747 51.852 19.4037 51.836 18.8587 51.894C18.3137 51.952 27.5347 61.675 39.3497 73.5L60.8327 95H226.027H391.221L412.221 73.775C427.521 58.312 432.949 52.221 432.216 51.339C431.538 50.522 431.577 49.375 432.336 47.814C433.342 45.744 433.312 45.684 432.052 47.241C430.722 48.884 430.538 48.866 428.781 46.924L426.918 44.866L435.179 45.282L443.44 45.699L439.875 42.76C436.813 40.236 435.396 39.799 429.829 39.661C426.265 39.572 423.225 39.872 423.074 40.327C422.923 40.781 421.976 40.244 420.969 39.132C419.145 37.116 419.161 37.112 426.961 37.668C433.643 38.144 434.61 38.018 433.603 36.805C432.505 35.482 425.196 35.255 420.189 36.39C419.238 36.605 416.944 35.144 414.822 32.971L411.115 29.175L418.983 29.696C425.142 30.103 426.598 29.952 425.691 28.999C424.571 27.823 413.151 27.387 411.424 28.454C410.98 28.728 409.847 28.102 408.905 27.061C407.054 25.016 407.245 25.005 419.238 26.497L422.625 26.919L416.738 21.357C413.499 18.298 407.095 12.241 402.506 7.898L394.162 0H225.815C114.662 0 57.2577 0.34 56.8497 1ZM65.8497 3C66.2017 3.569 65.3407 4 63.8497 4C62.3587 4 61.4977 3.569 61.8497 3C62.1897 2.45 63.0897 2 63.8497 2C64.6097 2 65.5097 2.45 65.8497 3ZM226.35 3C226.35 3.55 225.873 4 225.291 4C224.709 4 224.51 3.55 224.85 3C225.19 2.45 225.666 2 225.909 2C226.152 2 226.35 2.45 226.35 3ZM378.35 3C378.35 3.55 377.648 4 376.791 4C375.934 4 375.51 3.55 375.85 3C376.19 2.45 376.891 2 377.409 2C377.927 2 378.35 2.45 378.35 3ZM385.35 3C386.515 3.753 386.222 3.973 384.041 3.985C382.42 3.994 381.493 3.577 381.85 3C382.617 1.758 383.429 1.758 385.35 3ZM389.185 7.123C388.451 7.589 386.725 7.962 385.35 7.953C383.027 7.938 382.977 7.84 384.646 6.574C385.635 5.825 387.36 5.451 388.481 5.745C390.037 6.151 390.203 6.478 389.185 7.123ZM54.3497 7C54.3497 7.55 53.8997 8 53.3497 8C52.7997 8 52.3497 7.55 52.3497 7C52.3497 6.45 52.7997 6 53.3497 6C53.8997 6 54.3497 6.45 54.3497 7ZM258.079 6.604C257.747 6.936 256.884 6.972 256.163 6.683C255.365 6.364 255.602 6.127 256.767 6.079C257.821 6.036 258.411 6.272 258.079 6.604ZM284.424 7.772C274.84 7.924 266.649 7.7 266.222 7.274C265.795 6.848 273.636 6.724 283.648 6.998L301.85 7.495L284.424 7.772ZM331.35 7C332.523 7.758 332.264 7.973 330.159 7.985C328.679 7.993 327.19 7.55 326.85 7C326.061 5.723 329.374 5.723 331.35 7ZM395.35 7.545C395.35 7.727 394.481 7.81 393.419 7.73C392.357 7.65 391.697 7.248 391.951 6.836C392.374 6.153 395.35 6.773 395.35 7.545ZM59.3497 8C59.3497 8.55 60.5867 8.968 62.0997 8.93C64.5367 8.867 64.6217 8.762 62.8497 8C60.1187 6.826 59.3497 6.826 59.3497 8ZM72.6187 7.656C71.9417 7.93 70.5917 7.947 69.6187 7.693C68.6457 7.439 69.1997 7.215 70.8497 7.195C72.4997 7.175 73.2957 7.382 72.6187 7.656ZM82.0787 7.604C81.7467 7.936 80.8837 7.972 80.1627 7.683C79.3647 7.364 79.6017 7.127 80.7667 7.079C81.8207 7.036 82.4107 7.272 82.0787 7.604ZM90.1117 7.687C89.1557 7.937 87.3557 7.946 86.1117 7.707C84.8677 7.468 85.6497 7.263 87.8497 7.252C90.0497 7.241 91.0677 7.437 90.1117 7.687ZM105.614 7.704C104.384 7.941 102.134 7.947 100.614 7.718C99.0937 7.488 100.1 7.294 102.85 7.286C105.6 7.279 106.844 7.467 105.614 7.704ZM112.079 7.604C111.747 7.936 110.884 7.972 110.163 7.683C109.365 7.364 109.602 7.127 110.767 7.079C111.821 7.036 112.411 7.272 112.079 7.604ZM128.1 7.716C126.588 7.945 124.112 7.945 122.6 7.716C121.088 7.487 122.325 7.3 125.35 7.3C128.375 7.3 129.612 7.487 128.1 7.716ZM144.6 7.706C143.362 7.944 141.338 7.944 140.1 7.706C138.862 7.467 139.875 7.272 142.35 7.272C144.825 7.272 145.838 7.467 144.6 7.706ZM173.139 7.738C169.998 7.936 164.598 7.937 161.139 7.741C157.68 7.546 160.25 7.384 166.85 7.382C173.45 7.38 176.28 7.54 173.139 7.738ZM186.35 8C186.35 8.55 186.827 9 187.409 9C187.991 9 188.19 8.55 187.85 8C187.51 7.45 187.034 7 186.791 7C186.548 7 186.35 7.45 186.35 8ZM248.079 7.604C247.747 7.936 246.884 7.972 246.163 7.683C245.365 7.364 245.602 7.127 246.767 7.079C247.821 7.036 248.411 7.272 248.079 7.604ZM318.6 7.732C316.263 7.943 312.437 7.943 310.1 7.732C307.763 7.522 309.675 7.349 314.35 7.349C319.025 7.349 320.937 7.522 318.6 7.732ZM336.079 7.604C335.747 7.936 334.884 7.972 334.163 7.683C333.365 7.364 333.602 7.127 334.767 7.079C335.821 7.036 336.411 7.272 336.079 7.604ZM342.619 7.656C341.942 7.93 340.592 7.947 339.619 7.693C338.646 7.439 339.2 7.215 340.85 7.195C342.5 7.175 343.296 7.382 342.619 7.656ZM352.112 7.687C351.156 7.937 349.356 7.946 348.112 7.707C346.868 7.468 347.65 7.263 349.85 7.252C352.05 7.241 353.068 7.437 352.112 7.687ZM374.35 8C374.35 8.55 374.8 9 375.35 9C375.9 9 376.35 8.55 376.35 8C376.35 7.45 375.9 7 375.35 7C374.8 7 374.35 7.45 374.35 8ZM183.163 8.683C183.884 8.972 184.747 8.936 185.079 8.604C185.411 8.272 184.821 8.036 183.767 8.079C182.602 8.127 182.365 8.364 183.163 8.683ZM229.112 8.707C230.356 8.946 232.156 8.937 233.112 8.687C234.068 8.437 233.05 8.241 230.85 8.252C228.65 8.263 227.868 8.468 229.112 8.707ZM188.163 10.683C188.884 10.972 189.747 10.936 190.079 10.604C190.411 10.272 189.821 10.036 188.767 10.079C187.602 10.127 187.365 10.364 188.163 10.683ZM192.163 10.683C192.884 10.972 193.747 10.936 194.079 10.604C194.411 10.272 193.821 10.036 192.767 10.079C191.602 10.127 191.365 10.364 192.163 10.683ZM196.1 10.662C196.788 10.94 197.913 10.94 198.6 10.662C199.288 10.385 198.725 10.158 197.35 10.158C195.975 10.158 195.413 10.385 196.1 10.662ZM202.619 10.693C203.592 10.947 204.942 10.93 205.619 10.656C206.296 10.382 205.5 10.175 203.85 10.195C202.2 10.215 201.646 10.439 202.619 10.693ZM214.619 10.693C215.592 10.947 216.942 10.93 217.619 10.656C218.296 10.382 217.5 10.175 215.85 10.195C214.2 10.215 213.646 10.439 214.619 10.693ZM398.859 11.015C399.194 11.557 398.429 12.014 397.159 12.032C394.926 12.063 394.913 12.111 396.768 13.515C398.301 14.675 398.986 14.719 400.182 13.733C401.482 12.661 401.521 12.794 400.479 14.75C399.064 17.404 399.958 17.665 402.521 15.345C403.527 14.435 404.35 14.162 404.35 14.738C404.35 15.314 403.675 16.045 402.85 16.362C399.931 17.482 401.404 18.548 405.35 18.171C407.834 17.935 409.35 18.209 409.35 18.895C409.35 19.503 407.914 20 406.159 20C403.251 20 403.13 20.119 404.795 21.336C405.912 22.153 408.274 22.507 410.872 22.248C413.21 22.015 415.403 22.276 415.745 22.829C416.126 23.447 415.04 23.73 412.932 23.563C411.044 23.413 408.902 23.661 408.174 24.113C407.262 24.68 404.748 22.853 400.1 18.245C396.388 14.565 393.35 11.302 393.35 10.995C393.35 9.988 398.236 10.006 398.859 11.015ZM403.85 11C404.19 11.55 403.991 12 403.409 12C402.827 12 402.35 11.55 402.35 11C402.35 10.45 402.548 10 402.791 10C403.034 10 403.51 10.45 403.85 11ZM51.2597 13.111C52.9027 14.453 53.9957 14.754 54.6927 14.057C56.0587 12.691 55.0137 11.796 51.6327 11.437L48.8497 11.142L51.2597 13.111ZM202.536 12.748C211.713 12.913 227.013 12.913 236.536 12.749C246.059 12.584 238.55 12.449 219.85 12.449C201.15 12.449 193.359 12.583 202.536 12.748ZM47.3587 15.489C46.1097 16.994 44.3497 16.673 44.3497 14.941C44.3497 14.423 45.3047 14 46.4717 14C48.2387 14 48.3877 14.25 47.3587 15.489ZM7.34966 16.044C7.34966 17.34 12.4477 37.196 12.9487 37.85C13.0957 38.043 13.6527 37.931 14.1857 37.601C14.7967 37.224 14.6877 35.43 13.8937 32.751C11.8517 25.87 11.0957 20.725 12.2307 21.426C12.7847 21.769 16.4137 22.079 20.2937 22.115C24.1747 22.152 27.3497 22.619 27.3497 23.154C27.3497 23.688 26.5617 24.046 25.5997 23.948C24.6377 23.85 23.3997 23.863 22.8497 23.978C22.2997 24.092 19.9367 24.11 17.5997 24.017C14.9497 23.912 13.3497 24.285 13.3497 25.007C13.3497 25.789 15.1017 26.04 18.7417 25.781C22.8717 25.487 24.0177 25.702 23.6347 26.699C23.3607 27.414 22.0037 28 20.6207 28C18.4607 28 18.2867 28.22 19.3917 29.551C20.4787 30.86 20.3427 31.189 18.5137 31.667C16.6197 32.163 15.3697 34 16.9277 34C17.7797 34 32.3497 20.777 32.3497 20.004C32.3497 19.642 27.2877 18.772 21.0997 18.071C14.9127 17.37 9.28766 16.337 8.59966 15.776C7.71866 15.056 7.34966 15.135 7.34966 16.044ZM440.995 17.766C440.689 18.261 435.936 19.239 430.432 19.941L420.425 21.216L426.137 26.358C429.279 29.186 433.085 32.782 434.593 34.349C437.72 37.595 437.377 38.083 440.362 26.134C442.25 18.576 442.495 15.339 440.995 17.766ZM17.2667 19.644C17.4957 19.84 16.0327 20 14.0167 20C11.9997 20 10.3497 19.561 10.3497 19.025C10.3497 18.164 16.1417 18.682 17.2667 19.644ZM439.35 21C439.35 21.55 438.338 21.968 437.1 21.93C434.953 21.863 434.942 21.82 436.85 21C437.95 20.527 438.963 20.109 439.1 20.07C439.237 20.032 439.35 20.45 439.35 21ZM48.1517 22.531C47.0697 23.614 43.3497 23.849 43.3497 22.836C43.3497 22.258 44.0107 22.04 44.8177 22.349C45.6247 22.659 46.5697 22.452 46.9177 21.89C47.2657 21.327 47.8047 21.122 48.1167 21.433C48.4277 21.745 48.4437 22.239 48.1517 22.531ZM434.079 21.604C433.747 21.936 432.884 21.972 432.163 21.683C431.365 21.364 431.602 21.127 432.767 21.079C433.821 21.036 434.411 21.272 434.079 21.604ZM37.8957 23.925C37.5797 24.437 38.2607 25.154 39.4107 25.519C42.2487 26.42 43.0017 25.419 40.4957 24.078C39.2777 23.426 38.2417 23.365 37.8957 23.925ZM437.954 25.589C437.686 26.287 437.167 28.461 436.799 30.42C436.431 32.379 435.75 33.747 435.284 33.459C434.818 33.171 434.691 32.275 435.001 31.468C435.383 30.472 434.906 30 433.516 30C432.39 30 431.19 29.55 430.85 29C430.489 28.417 431.506 28 433.291 28C434.973 28 436.35 27.55 436.35 27C436.35 26.45 434.298 26 431.791 26C428.959 26 427.47 25.615 427.86 24.984C428.819 23.432 438.558 24.016 437.954 25.589ZM27.3497 28.5C26.2977 29.767 26.5027 30 28.6687 30C31.6867 30 33.0227 28.472 30.7617 27.605C28.6787 26.805 28.7777 26.779 27.3497 28.5ZM15.1627 28.683C15.8837 28.972 16.7467 28.936 17.0787 28.604C17.4107 28.272 16.8207 28.036 15.7667 28.079C14.6017 28.127 14.3647 28.364 15.1627 28.683ZM415.88 30.951C414.637 32.963 416.323 33.699 422.145 33.685C425.37 33.677 428.535 33.996 429.179 34.394C429.823 34.792 430.35 34.664 430.35 34.109C430.35 32.297 427.098 31.224 423.194 31.748C420.972 32.046 418.774 31.767 417.949 31.082C416.979 30.277 416.322 30.235 415.88 30.951ZM20.9327 34.542C17.1897 37.847 17.5607 38.843 21.8497 37C23.2187 36.412 23.3767 36.106 22.3497 36.03C21.4717 35.966 21.9907 35.301 23.5997 34.428C25.1127 33.607 26.3497 32.5 26.3497 31.968C26.3497 30.312 24.9927 30.957 20.9327 34.542ZM31.3497 31.858C31.3497 33.759 34.7187 34.057 36.2777 32.294C37.1417 31.315 37.2187 31.053 36.4467 31.71C35.4747 32.538 34.4747 32.602 33.1967 31.918C32.1037 31.333 31.3497 31.309 31.3497 31.858ZM14.4207 40.415C13.6897 41.295 14.8217 41.585 18.8967 41.562C21.8957 41.545 24.3497 41.187 24.3497 40.766C24.3497 40.344 23.7877 39.971 23.0997 39.936C22.4127 39.901 20.3977 39.729 18.6237 39.554C16.8497 39.379 14.9587 39.767 14.4207 40.415ZM438.346 42.596C439.136 43.386 437.863 43.74 433.75 43.874C430.621 43.977 427.737 44.261 427.339 44.507C426.942 44.752 425.852 44.108 424.918 43.075C423.269 41.253 423.429 41.201 430.236 41.35C434.096 41.435 437.746 41.996 438.346 42.596ZM10.7767 44.479C9.71666 45.28 9.29966 45.944 9.84966 45.953C11.3357 45.977 13.8757 44.192 13.2477 43.565C12.9487 43.265 11.8367 43.677 10.7767 44.479ZM15.0537 44.204C14.3317 44.663 14.9737 44.975 16.6587 44.985C18.6377 44.995 19.2457 45.369 18.7167 46.25C18.1817 47.141 18.4387 47.117 19.6137 46.164C20.5207 45.429 21.7007 45.099 22.2367 45.43C22.7727 45.762 23.4647 45.622 23.7747 45.121C24.4797 43.98 16.6937 43.162 15.0537 44.204ZM68.4157 47.035C70.9437 48.389 70.8587 49.755 68.0997 52.056C65.3587 54.343 63.4777 54.498 62.7117 52.5C62.3947 51.675 61.5087 51 60.7427 51C58.9067 51 58.9837 50.062 61.0047 47.829C62.8607 45.778 65.5317 45.492 68.4157 47.035ZM391.699 48.178C392.526 49.5 392.229 50.289 390.3 51.895C387.362 54.339 385.764 54.522 384.988 52.5C384.672 51.675 383.724 51 382.881 51C380.899 51 380.945 50.104 383.049 47.78C385.111 45.502 390.169 45.734 391.699 48.178ZM6.34966 48.5C4.99866 50.128 5.32166 50.332 7.76766 49.393C8.63766 49.059 9.34966 48.384 9.34966 47.893C9.34966 46.51 7.72966 46.838 6.34966 48.5ZM437.152 48.128C437.536 48.474 440.027 48.985 442.687 49.265C446.205 49.635 447.224 49.474 446.424 48.674C445.819 48.069 443.328 47.557 440.889 47.537C438.449 47.517 436.767 47.783 437.152 48.128ZM12.1117 48.707C13.3557 48.946 15.1557 48.937 16.1117 48.687C17.0677 48.437 16.0497 48.241 13.8497 48.252C11.6497 48.263 10.8677 48.468 12.1117 48.707ZM18.3497 49.059C18.3497 49.641 18.7997 49.84 19.3497 49.5C19.8997 49.16 20.3497 48.684 20.3497 48.441C20.3497 48.198 19.8997 48 19.3497 48C18.7997 48 18.3497 48.477 18.3497 49.059ZM433.85 49C434.19 49.55 434.666 50 434.909 50C435.152 50 435.35 49.55 435.35 49C435.35 48.45 434.873 48 434.291 48C433.709 48 433.51 48.45 433.85 49ZM5.11766 52.168C5.69966 52.75 6.76466 53.028 7.48666 52.788C8.23566 52.538 7.78166 52.085 6.42966 51.731C4.76666 51.296 4.37566 51.426 5.11766 52.168ZM446.342 52.107C445.216 52.88 445.464 52.973 447.35 52.486C449.179 52.014 447.435 54.211 440.85 60.672C431.468 69.877 406.133 93.689 398.35 100.616L393.85 104.621L225.756 104.55L57.6607 104.479L35.7557 83.9C2.92566 53.058 1.49166 51.785 0.118657 52.256C-0.621343 52.51 2.15966 55.822 6.79166 60.205L14.7347 67.718L12.4697 76.953C9.85866 87.6 10.0337 89.938 12.7357 80.503C14.6537 73.804 14.6667 73.797 19.3207 76.804C19.5797 76.972 19.1297 77.527 18.3207 78.039C17.2067 78.743 17.5257 78.973 19.6307 78.985C21.1997 78.993 22.6697 79.67 23.0027 80.537C23.3267 81.382 24.9997 82.823 26.7207 83.738L29.8497 85.402L25.3497 86.068C22.8747 86.435 18.2617 87.052 15.0997 87.439C11.5957 87.869 9.34966 88.625 9.34966 89.375C9.34966 90.341 11.7667 90.312 20.5997 89.239C28.6477 88.262 32.3437 88.176 33.5857 88.936C34.5407 89.521 35.9957 90 36.8187 90C37.6407 90 42.5407 93.825 47.7077 98.5L57.1007 107H226.258H395.415L403.132 99.515C413.826 89.144 417.601 87.764 431.164 89.269C436.733 89.887 441.604 90.08 441.987 89.696C443.308 88.375 442.298 88.126 428.6 86.39C425.713 86.024 423.35 85.337 423.35 84.862C423.35 84.388 423.777 84 424.298 84C424.82 84 426.461 82.875 427.945 81.5C429.428 80.125 431.462 79 432.465 79C433.596 79 434.088 78.481 433.762 77.631C433.451 76.821 434.071 76.045 435.282 75.728C436.967 75.287 437.534 75.882 438.499 79.103C440.296 85.102 440.574 83.06 438.923 75.983C437.974 71.913 437.778 69.07 438.37 67.963C438.875 67.02 442.452 63.193 446.32 59.459C450.188 55.724 453.24 52.582 453.101 52.475C451.873 51.528 447.531 51.291 446.342 52.107ZM439.163 52.683C439.884 52.972 440.747 52.936 441.079 52.604C441.411 52.272 440.821 52.036 439.767 52.079C438.602 52.127 438.365 52.364 439.163 52.683ZM442.35 53.059C442.35 53.641 442.8 53.84 443.35 53.5C443.9 53.16 444.35 52.684 444.35 52.441C444.35 52.198 443.9 52 443.35 52C442.8 52 442.35 52.477 442.35 53.059ZM439.619 56.693C440.592 56.947 441.942 56.93 442.619 56.656C443.296 56.382 442.5 56.175 440.85 56.195C439.2 56.215 438.646 56.439 439.619 56.693ZM440.429 85.583C440.477 86.748 440.714 86.985 441.033 86.188C441.322 85.466 441.286 84.603 440.954 84.271C440.622 83.939 440.386 84.529 440.429 85.583Z" fill="#00D5E2"/>
<path d="M167.4 61.5L166.25 61.3C165.317 63.0333 164.067 64.3333 162.5 65.2C160.967 66.0667 159.267 66.5 157.4 66.5C155.567 66.5 153.817 66.1667 152.15 65.5C150.517 64.8 149.067 63.8667 147.8 62.7C146.567 61.5 145.583 60.1 144.85 58.5C144.117 56.8667 143.75 55.1 143.75 53.2C143.75 51.3667 144.083 49.7667 144.75 48.4C145.417 47 146.317 45.8333 147.45 44.9C148.583 43.9667 149.9 43.2667 151.4 42.8C152.9 42.3333 154.5 42.1 156.2 42.1C157.233 42.1 158.25 42.2167 159.25 42.45C160.25 42.6833 161.15 43.0667 161.95 43.6C162.783 44.1 163.5 44.75 164.1 45.55C164.7 46.35 165.1 47.3167 165.3 48.45C165.367 48.6833 165.55 48.8 165.85 48.8C166.183 48.8 166.383 48.6833 166.45 48.45C166.65 47.35 166.833 46.2333 167 45.1C167.167 43.9667 167.267 42.8167 167.3 41.65C167.3 41.3833 167.117 41.25 166.75 41.25C166.017 41.1833 165.3 41.1167 164.6 41.05C163.9 40.95 163.167 40.85 162.4 40.75C161.433 40.6167 160.45 40.5 159.45 40.4C158.483 40.3 157.483 40.25 156.45 40.25C155.617 40.25 154.65 40.3 153.55 40.4C152.483 40.5 151.4 40.6667 150.3 40.9C149.2 41.1333 148.15 41.45 147.15 41.85C146.15 42.25 145.317 42.75 144.65 43.35C143.05 44.7833 141.733 46.5333 140.7 48.6C139.7 50.6667 139.2 52.7833 139.2 54.95C139.2 56.9833 139.617 58.8333 140.45 60.5C141.283 62.1667 142.383 63.6 143.75 64.8C145.15 66 146.75 66.9333 148.55 67.6C150.35 68.2333 152.233 68.55 154.2 68.55C156.067 68.55 158.033 68.35 160.1 67.95C162.2 67.5167 164.117 67.0333 165.85 66.5C165.983 66.4333 166.083 66.3333 166.15 66.2C166.45 65.5333 166.717 64.7667 166.95 63.9C167.217 63.0333 167.367 62.2333 167.4 61.5ZM202.365 55.3C202.365 53.2333 201.932 51.2667 201.065 49.4C200.232 47.5333 199.099 45.9 197.665 44.5C196.232 43.1 194.565 41.9833 192.665 41.15C190.799 40.3167 188.832 39.9 186.765 39.9C184.665 39.9 182.599 40.2167 180.565 40.85C178.565 41.4833 176.765 42.4167 175.165 43.65C173.599 44.85 172.315 46.3333 171.315 48.1C170.349 49.8667 169.865 51.8833 169.865 54.15C169.865 56.2167 170.315 58.15 171.215 59.95C172.115 61.7167 173.299 63.25 174.765 64.55C176.232 65.85 177.915 66.8833 179.815 67.65C181.749 68.3833 183.715 68.75 185.715 68.75C187.715 68.75 189.699 68.4667 191.665 67.9C193.665 67.3333 195.449 66.4833 197.015 65.35C198.615 64.2167 199.899 62.8167 200.865 61.15C201.865 59.45 202.365 57.5 202.365 55.3ZM197.915 55.2C197.915 56.9 197.649 58.4667 197.115 59.9C196.582 61.3 195.815 62.5167 194.815 63.55C193.849 64.55 192.665 65.3333 191.265 65.9C189.899 66.4333 188.365 66.7 186.665 66.7C184.832 66.7 183.165 66.35 181.665 65.65C180.165 64.9167 178.865 63.95 177.765 62.75C176.699 61.5167 175.865 60.1 175.265 58.5C174.665 56.9 174.365 55.2167 174.365 53.45C174.365 51.7167 174.649 50.1667 175.215 48.8C175.782 47.4 176.565 46.2167 177.565 45.25C178.599 44.25 179.815 43.4833 181.215 42.95C182.649 42.4167 184.199 42.15 185.865 42.15C187.665 42.15 189.299 42.5 190.765 43.2C192.265 43.9 193.532 44.85 194.565 46.05C195.632 47.25 196.449 48.65 197.015 50.25C197.615 51.8167 197.915 53.4667 197.915 55.2ZM223.325 40.9L222.525 40.45C222.192 40.6167 221.842 40.7333 221.475 40.8C221.108 40.8333 220.742 40.85 220.375 40.85H214.725C213.125 40.85 211.542 40.85 209.975 40.85C208.442 40.85 206.875 40.8167 205.275 40.75C204.975 40.75 204.792 40.8667 204.725 41.1C204.692 41.3333 204.808 41.4833 205.075 41.55C205.342 41.6833 205.592 41.8 205.825 41.9C206.092 41.9667 206.358 42.0333 206.625 42.1C206.992 42.1667 207.325 42.3 207.625 42.5C207.958 42.7 208.125 43.1167 208.125 43.75V64.1C208.125 64.7333 208.092 65.2333 208.025 65.6C207.992 65.9667 207.892 66.25 207.725 66.45C207.558 66.65 207.308 66.8 206.975 66.9C206.675 67 206.258 67.0833 205.725 67.15C205.425 67.2167 205.292 67.3833 205.325 67.65C205.358 67.9167 205.525 68.05 205.825 68.05C206.692 68.0833 207.542 68.1167 208.375 68.15C209.242 68.15 210.108 68.15 210.975 68.15C211.808 68.15 212.642 68.15 213.475 68.15C214.308 68.15 215.142 68.1167 215.975 68.05C216.308 68.0167 216.458 67.8667 216.425 67.6C216.392 67.3 216.208 67.15 215.875 67.15C214.608 67.2167 213.758 67.0167 213.325 66.55C212.925 66.0833 212.725 65.2167 212.725 63.95V54.7C212.892 54.7333 213.042 54.75 213.175 54.75C213.342 54.75 213.508 54.75 213.675 54.75C213.975 54.75 214.258 54.75 214.525 54.75C214.792 54.7167 215.058 54.6833 215.325 54.65C215.625 54.6167 215.908 54.6 216.175 54.6C216.442 54.5667 216.708 54.55 216.975 54.55C217.908 54.55 218.692 54.7333 219.325 55.1C219.992 55.4333 220.308 56.1167 220.275 57.15C220.275 57.35 220.375 57.5 220.575 57.6C220.775 57.6667 220.975 57.6333 221.175 57.5C221.442 57.3333 221.642 57.05 221.775 56.65C221.942 56.2167 222.058 55.7667 222.125 55.3C222.192 54.8 222.225 54.3167 222.225 53.85C222.258 53.35 222.275 52.9167 222.275 52.55V51.95C222.275 51.75 222.158 51.6167 221.925 51.55C221.692 51.45 221.475 51.4667 221.275 51.6C221.108 51.7667 220.858 51.9667 220.525 52.2C220.192 52.4 219.942 52.5 219.775 52.5H212.725V43.35C213.158 43.35 213.492 43.3333 213.725 43.3C213.958 43.2667 214.308 43.2167 214.775 43.15C215.275 43.0833 215.775 43.0333 216.275 43C216.775 42.9333 217.258 42.9 217.725 42.9C218.658 42.9 219.458 43.0833 220.125 43.45C220.792 43.7833 221.142 44.4833 221.175 45.55C221.175 45.75 221.275 45.9 221.475 46C221.675 46.0667 221.875 46.05 222.075 45.95C222.275 45.8167 222.442 45.6167 222.575 45.35C222.742 45.05 222.858 44.7333 222.925 44.4C223.025 44.0333 223.092 43.65 223.125 43.25C223.192 42.85 223.225 42.4833 223.225 42.15C223.225 42.05 223.225 41.9167 223.225 41.75C223.258 41.5833 223.275 41.4333 223.275 41.3C223.308 41.1333 223.325 41.0167 223.325 40.95C223.325 40.85 223.325 40.8333 223.325 40.9ZM256.626 68.05L256.326 67.2C255.326 67.3333 254.326 67.1667 253.326 66.7C252.326 66.2 251.342 65.55 250.376 64.75C249.409 63.95 248.476 63.05 247.576 62.05C246.676 61.05 245.826 60.0667 245.026 59.1C244.526 58.5 244.026 57.9333 243.526 57.4C243.059 56.8333 242.576 56.3 242.076 55.8C242.642 55.3 243.192 54.75 243.726 54.15C244.292 53.5167 244.792 52.85 245.226 52.15C245.692 51.45 246.059 50.7167 246.326 49.95C246.626 49.1833 246.776 48.4167 246.776 47.65C246.776 46.1167 246.409 44.9 245.676 44C244.976 43.1 244.076 42.4167 242.976 41.95C241.876 41.4833 240.642 41.1833 239.276 41.05C237.942 40.9167 236.659 40.85 235.426 40.85C235.059 40.85 234.709 40.8667 234.376 40.9C234.076 40.9 233.759 40.9 233.426 40.9H232.376C231.842 40.9 231.342 40.9 230.876 40.9C230.409 40.9 229.909 40.8833 229.376 40.85C228.976 40.8167 228.576 40.8 228.176 40.8C227.776 40.8 227.392 40.8 227.026 40.8H226.276C226.009 40.8 225.826 40.8667 225.726 41C225.626 41.1333 225.642 41.2833 225.776 41.45C225.942 41.7167 226.159 41.8833 226.426 41.95C226.692 42.0167 227.009 42.0667 227.376 42.1C227.742 42.1333 228.092 42.2333 228.426 42.4C228.792 42.5667 228.976 43.05 228.976 43.85V64.15C228.976 64.7833 228.942 65.3 228.876 65.7C228.842 66.0667 228.742 66.35 228.576 66.55C228.409 66.75 228.159 66.9 227.826 67C227.526 67.0667 227.109 67.1333 226.576 67.2C226.276 67.2667 226.126 67.4333 226.126 67.7C226.159 67.9333 226.326 68.0667 226.626 68.1C228.326 68.2 230.009 68.2667 231.676 68.3C233.376 68.3 235.076 68.3 236.776 68.3C237.076 68.3 237.276 68.2 237.376 68C237.476 67.8 237.392 67.6333 237.126 67.5C236.859 67.3 236.559 67.1833 236.226 67.15C235.926 67.0833 235.626 67.0333 235.326 67C235.159 66.9667 234.959 66.95 234.726 66.95C234.526 66.95 234.376 66.9167 234.276 66.85C234.209 66.8167 234.126 66.6833 234.026 66.45C233.959 66.1833 233.892 65.9 233.826 65.6C233.759 65.2667 233.692 64.9667 233.626 64.7C233.592 64.4 233.576 64.1833 233.576 64.05V57.45C233.842 57.4167 234.009 57.4167 234.076 57.45C234.176 57.45 234.359 57.45 234.626 57.45C235.359 57.45 236.159 57.5167 237.026 57.65C237.926 57.75 238.659 58.05 239.226 58.55C239.859 59.0833 240.459 59.6833 241.026 60.35C241.592 61.0167 242.159 61.7167 242.726 62.45C243.359 63.25 244.009 64.0333 244.676 64.8C245.342 65.5667 246.059 66.25 246.826 66.85C247.592 67.45 248.442 67.9333 249.376 68.3C250.309 68.6667 251.359 68.85 252.526 68.85C253.992 68.85 255.359 68.5833 256.626 68.05ZM242.076 49.5C242.076 51.2 241.659 52.55 240.826 53.55C239.992 54.55 238.759 55.05 237.126 55.05C236.559 55.05 235.959 55.0333 235.326 55C234.726 54.9667 234.142 54.9167 233.576 54.85V42.8C234.309 42.6 235.076 42.5 235.876 42.5C236.809 42.5 237.659 42.7 238.426 43.1C239.192 43.4667 239.842 43.9667 240.376 44.6C240.942 45.2333 241.359 45.9833 241.626 46.85C241.926 47.6833 242.076 48.5667 242.076 49.5ZM278.264 63.25C278.297 63.15 278.247 63.0667 278.114 63C278.014 62.9 277.897 62.85 277.764 62.85C277.63 62.8167 277.497 62.8333 277.364 62.9C277.23 62.9333 277.147 63 277.114 63.1C276.814 64.2667 276.214 65.1167 275.314 65.65C274.414 66.15 273.43 66.4 272.364 66.4C271.497 66.4 270.58 66.2333 269.614 65.9C268.647 65.5667 267.897 65.0333 267.364 64.3V54.6H268.014C268.414 54.6 268.914 54.6 269.514 54.6C270.114 54.6 270.714 54.6167 271.314 54.65C271.947 54.6833 272.514 54.75 273.014 54.85C273.514 54.9167 273.847 55.0167 274.014 55.15C274.114 55.2167 274.214 55.3833 274.314 55.65C274.447 55.9167 274.564 56.2 274.664 56.5C274.697 56.6667 274.697 56.8 274.664 56.9C274.664 56.9667 274.864 57.1167 275.264 57.35C275.43 57.4833 275.614 57.5167 275.814 57.45C276.014 57.3833 276.13 57.2667 276.164 57.1C276.23 56.6333 276.297 56.2 276.364 55.8C276.43 55.4 276.497 55 276.564 54.6C276.63 54.1667 276.68 53.65 276.714 53.05C276.78 52.45 276.847 51.9333 276.914 51.5C276.947 51.3333 276.88 51.2 276.714 51.1C276.58 50.9667 276.397 50.9333 276.164 51C275.964 51.0667 275.747 51.2167 275.514 51.45C275.314 51.6833 275.08 51.8667 274.814 52H274.864C274.564 52.1 274.28 52.2167 274.014 52.35C273.747 52.45 273.53 52.5 273.364 52.5H267.364V42.95H268.264C268.53 42.95 268.797 42.95 269.064 42.95C269.33 42.9167 269.58 42.9 269.814 42.9C270.08 42.9 270.33 42.9 270.564 42.9C270.83 42.8667 271.097 42.85 271.364 42.85C271.83 42.85 272.297 42.8833 272.764 42.95C273.23 43.0167 273.647 43.15 274.014 43.35C274.38 43.5167 274.68 43.7667 274.914 44.1C275.147 44.4333 275.28 44.8833 275.314 45.45C275.347 45.7167 275.53 45.85 275.864 45.85C276.197 45.85 276.397 45.7333 276.464 45.5C276.53 45.3 276.58 45.1 276.614 44.9C276.647 44.7 276.697 44.4833 276.764 44.25C276.897 43.7167 277.03 43.1833 277.164 42.65C277.297 42.1167 277.397 41.5333 277.464 40.9C277.497 40.7333 277.43 40.6 277.264 40.5C277.097 40.4 276.897 40.3833 276.664 40.45C276.197 40.6167 275.28 40.7333 273.914 40.8C272.547 40.8667 271.03 40.9 269.364 40.9C268.197 40.9 267.047 40.9 265.914 40.9C264.78 40.8667 263.73 40.8333 262.764 40.8C262.164 40.8 261.614 40.8 261.114 40.8C260.647 40.7667 260.264 40.75 259.964 40.75C259.664 40.75 259.464 40.85 259.364 41.05C259.264 41.25 259.347 41.4167 259.614 41.55C259.88 41.7167 260.147 41.8333 260.414 41.9C260.714 41.9667 260.997 42.0333 261.264 42.1C261.63 42.1667 261.964 42.3 262.264 42.5C262.597 42.6667 262.764 43.0333 262.764 43.6V64.1C262.764 65 262.614 65.7333 262.314 66.3C262.014 66.8333 261.397 67.1167 260.464 67.15C260.164 67.15 259.997 67.3 259.964 67.6C259.964 67.8667 260.114 68.0167 260.414 68.05C261.58 68.1167 262.764 68.15 263.964 68.15C265.164 68.1167 266.364 68.1 267.564 68.1C268.097 68.1 268.63 68.1 269.164 68.1C269.697 68.0667 270.23 68.05 270.764 68.05C270.997 68.05 271.397 68.0667 271.964 68.1C272.564 68.1 273.18 68.1167 273.814 68.15C274.48 68.15 275.097 68.15 275.664 68.15C276.23 68.15 276.614 68.1167 276.814 68.05L277.214 67.85L278.264 63.25Z" fill="black"/>
<path d="M323.872 21C322.33 20.9951 320.886 21.3966 319.284 22.3069H319.285C313.351 25.6813 308.259 34.8523 308.014 42.5036L313.164 44.4777C313.696 35.8953 318.954 26.6764 325.656 22.8644H325.656C326.184 22.5636 326.726 22.2951 327.279 22.0601L324.54 21.0269C324.318 21.0098 324.095 21.0009 323.872 21H323.872ZM331.174 23.7998C329.884 23.7874 328.364 24.2287 326.692 25.1786L326.692 25.1781C320.758 28.5534 315.664 37.7297 315.428 45.346L334.683 52.7289C335.158 44.1007 340.441 34.7886 347.186 30.9525H347.186L347.186 30.9521C347.7 30.6594 348.227 30.3971 348.765 30.1664L332.21 23.9212C331.869 23.8432 331.522 23.8027 331.174 23.8001L331.174 23.7998ZM352.703 31.8876C351.414 31.8751 349.894 32.3164 348.222 33.266L348.221 33.2663C342.244 36.6662 337.119 45.951 336.952 53.5988L342.637 55.7787C343.119 47.1549 348.399 37.852 355.14 34.0183C355.68 33.7094 356.236 33.4358 356.804 33.1987L353.538 31.9668C353.262 31.9166 352.983 31.8902 352.703 31.8877L352.703 31.8876ZM360.523 34.9403C359.26 34.9532 357.805 35.4053 356.176 36.3317C350.373 39.6321 345.375 48.4776 344.934 55.9885L366.412 45.7648C366.362 40.3552 365.088 37.2636 363.408 35.9077C363.119 35.6753 362.807 35.4827 362.479 35.334L362.477 35.3387L361.895 35.1191C361.466 34.9961 361.009 34.935 360.523 34.9402L360.523 34.9403ZM308.004 45.2371L308 71.2359L313.118 73.243V47.1982L308.004 45.2374V45.2371ZM315.418 48.0796V74.1447L334.648 81.6842V55.4525L331.073 54.0816V70.6432L318.639 65.917V49.3145L315.418 48.0796ZM366.386 48.5903L344.984 58.7781V85.0199L366.386 74.8269V48.5902L366.386 48.5903ZM320.939 50.1964V64.0563L328.774 67.0345V53.2002L320.939 50.1963L320.939 50.1964ZM324.791 54.1898C325.985 54.1898 326.953 55.2807 326.953 56.6265C326.953 57.5057 326.538 58.2739 325.918 58.7024V62.6587H323.619V58.6725C323.023 58.2384 322.628 57.4852 322.628 56.6265C322.628 55.2807 323.596 54.1898 324.791 54.1898ZM336.947 56.3342V82.5858L342.684 84.835V58.5341L336.947 56.3342H336.947Z" fill="black"/>
</svg>
