<svg width="454" height="107" viewBox="0 0 454 107" fill="none" xmlns="http://www.w3.org/2000/svg">
<path fill-rule="evenodd" clip-rule="evenodd" d="M56.8497 1C56.5097 1.55 56.7347 2 57.3497 2C57.9647 2 58.2017 2.43 57.8767 2.956C57.5517 3.482 56.7377 3.705 56.0677 3.45C55.3977 3.196 53.1447 4.509 51.0607 6.367C47.6137 9.441 47.4557 9.794 49.3107 10.28C50.4317 10.573 51.3497 10.405 51.3497 9.906C51.3497 8.339 53.1947 8.917 55.2587 11.132C57.2427 13.262 57.2427 13.266 55.0477 15.06C52.8997 16.815 52.7877 16.788 50.1067 13.874C46.8477 10.331 46.9287 10.298 37.4637 19.165C30.3177 25.861 28.7477 27.928 32.2187 26.07C33.2457 25.52 34.4327 25.392 34.8547 25.785C35.2777 26.178 35.4107 25.825 35.1497 25C34.8447 24.034 35.7677 23.038 37.7437 22.201C39.9877 21.251 40.4517 20.681 39.4737 20.076C38.3897 19.407 38.3807 19.099 39.4247 18.453C40.9987 17.481 52.3497 17.162 52.3497 18.091C52.3497 19.453 49.1927 21.366 48.5237 20.408C47.7897 19.359 42.8047 19.212 41.8057 20.21C40.8717 21.145 43.3077 25.144 44.3997 24.469C46.2727 23.312 45.3037 25.694 43.0357 27.826C40.7127 30.007 38.7497 30.78 39.7847 29.105C40.0897 28.612 39.7097 27.968 38.9407 27.673C37.2757 27.034 33.3497 27.931 33.3497 28.95C33.3497 30.479 34.7287 30.93 36.0497 29.834C37.0927 28.968 37.7187 28.969 38.5857 29.836C39.4537 30.704 39.0507 31.702 36.9487 33.897C34.6667 36.279 33.6797 36.669 31.5057 36.048C28.3377 35.144 23.9347 36.243 26.6107 37.27C27.4997 37.611 29.4527 37.668 30.9517 37.396C33.3367 36.963 33.5137 37.097 32.3717 38.473C31.6417 39.354 30.2867 39.797 29.2927 39.482C28.3167 39.172 27.1817 39.463 26.7697 40.129C26.2547 40.962 26.5407 41.141 27.6857 40.701C30.4937 39.624 29.5567 41.381 24.8707 45.979C22.4067 48.397 20.5677 50.551 20.7827 50.766C20.9977 50.981 30.1147 42.125 41.0437 31.086L60.9137 11.015L123.882 10.75L186.85 10.485L123.3 10.242C82.0387 10.085 59.3287 10.351 58.5497 11C57.6977 11.71 57.6217 11.67 58.2887 10.861C58.9127 10.104 58.5237 9.151 57.1267 8.02C55.6737 6.844 55.3837 6.097 56.1877 5.6C56.8267 5.205 57.3497 5.319 57.3497 5.853C57.3497 6.386 59.5967 6.708 62.3427 6.568C66.4257 6.36 67.1317 6.558 66.2197 7.657C65.2887 8.778 74.5097 9 122.144 9C158.503 9 179.304 8.645 179.517 8.02C180.032 6.504 191.605 6.264 192.103 7.759C192.642 9.375 197.012 9.368 197.767 7.75C198.233 6.75 198.467 6.75 198.933 7.75C199.254 8.438 200.69 9 202.124 9C204.648 9 204.67 8.95 202.791 7.448C200.927 5.958 200.949 5.924 203.35 6.583C204.725 6.961 206.075 7.546 206.35 7.885C207.178 8.903 212.442 8.958 211.814 7.941C211.492 7.42 212.821 7 214.791 7C216.748 7 218.35 7.45 218.35 8C218.35 8.55 220.262 8.936 222.6 8.858L226.85 8.716L222.85 8.006C219.188 7.356 232.329 7.436 251.35 8.178C255.475 8.34 259.975 8.111 261.35 7.67C263.221 7.071 263.473 7.133 262.35 7.919C261.295 8.658 276.432 8.924 313.35 8.817C342.225 8.733 363.15 8.365 359.85 8L353.85 7.336L360.6 7.168C364.545 7.07 367.35 7.415 367.35 8C367.35 9.466 369.274 9.219 370.956 7.537C372.955 5.537 381.907 5.624 380.244 7.627C379.316 8.746 379.822 9.045 382.978 9.241C385.107 9.374 349.275 9.716 303.35 10L219.85 10.517L305.359 10.759L390.868 11L411.35 31.5C428.086 48.251 431.388 52 429.403 52C427.576 52 422.312 47.29 408.169 33L389.364 14H226.097H62.8297L43.8397 33.036C28.6867 48.225 24.3447 52.043 22.3497 51.93C20.9747 51.852 19.4037 51.836 18.8587 51.894C18.3137 51.952 27.5347 61.675 39.3497 73.5L60.8327 95H226.027H391.221L412.221 73.775C427.521 58.312 432.949 52.221 432.216 51.339C431.538 50.522 431.577 49.375 432.336 47.814C433.342 45.744 433.312 45.684 432.052 47.241C430.722 48.884 430.538 48.866 428.781 46.924L426.918 44.866L435.179 45.282L443.44 45.699L439.875 42.76C436.813 40.236 435.396 39.799 429.829 39.661C426.265 39.572 423.225 39.872 423.074 40.327C422.923 40.781 421.976 40.244 420.969 39.132C419.145 37.116 419.161 37.112 426.961 37.668C433.643 38.144 434.61 38.018 433.603 36.805C432.505 35.482 425.196 35.255 420.189 36.39C419.238 36.605 416.944 35.144 414.822 32.971L411.115 29.175L418.983 29.696C425.142 30.103 426.598 29.952 425.691 28.999C424.571 27.823 413.151 27.387 411.424 28.454C410.98 28.728 409.847 28.102 408.905 27.061C407.054 25.016 407.245 25.005 419.238 26.497L422.625 26.919L416.738 21.357C413.499 18.298 407.095 12.241 402.506 7.898L394.162 0H225.815C114.662 0 57.2577 0.34 56.8497 1ZM65.8497 3C66.2017 3.569 65.3407 4 63.8497 4C62.3587 4 61.4977 3.569 61.8497 3C62.1897 2.45 63.0897 2 63.8497 2C64.6097 2 65.5097 2.45 65.8497 3ZM226.35 3C226.35 3.55 225.873 4 225.291 4C224.709 4 224.51 3.55 224.85 3C225.19 2.45 225.666 2 225.909 2C226.152 2 226.35 2.45 226.35 3ZM378.35 3C378.35 3.55 377.648 4 376.791 4C375.934 4 375.51 3.55 375.85 3C376.19 2.45 376.891 2 377.409 2C377.927 2 378.35 2.45 378.35 3ZM385.35 3C386.515 3.753 386.222 3.973 384.041 3.985C382.42 3.994 381.493 3.577 381.85 3C382.617 1.758 383.429 1.758 385.35 3ZM389.185 7.123C388.451 7.589 386.725 7.962 385.35 7.953C383.027 7.938 382.977 7.84 384.646 6.574C385.635 5.825 387.36 5.451 388.481 5.745C390.037 6.151 390.203 6.478 389.185 7.123ZM54.3497 7C54.3497 7.55 53.8997 8 53.3497 8C52.7997 8 52.3497 7.55 52.3497 7C52.3497 6.45 52.7997 6 53.3497 6C53.8997 6 54.3497 6.45 54.3497 7ZM258.079 6.604C257.747 6.936 256.884 6.972 256.163 6.683C255.365 6.364 255.602 6.127 256.767 6.079C257.821 6.036 258.411 6.272 258.079 6.604ZM284.424 7.772C274.84 7.924 266.649 7.7 266.222 7.274C265.795 6.848 273.636 6.724 283.648 6.998L301.85 7.495L284.424 7.772ZM331.35 7C332.523 7.758 332.264 7.973 330.159 7.985C328.679 7.993 327.19 7.55 326.85 7C326.061 5.723 329.374 5.723 331.35 7ZM395.35 7.545C395.35 7.727 394.481 7.81 393.419 7.73C392.357 7.65 391.697 7.248 391.951 6.836C392.374 6.153 395.35 6.773 395.35 7.545ZM59.3497 8C59.3497 8.55 60.5867 8.968 62.0997 8.93C64.5367 8.867 64.6217 8.762 62.8497 8C60.1187 6.826 59.3497 6.826 59.3497 8ZM72.6187 7.656C71.9417 7.93 70.5917 7.947 69.6187 7.693C68.6457 7.439 69.1997 7.215 70.8497 7.195C72.4997 7.175 73.2957 7.382 72.6187 7.656ZM82.0787 7.604C81.7467 7.936 80.8837 7.972 80.1627 7.683C79.3647 7.364 79.6017 7.127 80.7667 7.079C81.8207 7.036 82.4107 7.272 82.0787 7.604ZM90.1117 7.687C89.1557 7.937 87.3557 7.946 86.1117 7.707C84.8677 7.468 85.6497 7.263 87.8497 7.252C90.0497 7.241 91.0677 7.437 90.1117 7.687ZM105.614 7.704C104.384 7.941 102.134 7.947 100.614 7.718C99.0937 7.488 100.1 7.294 102.85 7.286C105.6 7.279 106.844 7.467 105.614 7.704ZM112.079 7.604C111.747 7.936 110.884 7.972 110.163 7.683C109.365 7.364 109.602 7.127 110.767 7.079C111.821 7.036 112.411 7.272 112.079 7.604ZM128.1 7.716C126.588 7.945 124.112 7.945 122.6 7.716C121.088 7.487 122.325 7.3 125.35 7.3C128.375 7.3 129.612 7.487 128.1 7.716ZM144.6 7.706C143.362 7.944 141.338 7.944 140.1 7.706C138.862 7.467 139.875 7.272 142.35 7.272C144.825 7.272 145.838 7.467 144.6 7.706ZM173.139 7.738C169.998 7.936 164.598 7.937 161.139 7.741C157.68 7.546 160.25 7.384 166.85 7.382C173.45 7.38 176.28 7.54 173.139 7.738ZM186.35 8C186.35 8.55 186.827 9 187.409 9C187.991 9 188.19 8.55 187.85 8C187.51 7.45 187.034 7 186.791 7C186.548 7 186.35 7.45 186.35 8ZM248.079 7.604C247.747 7.936 246.884 7.972 246.163 7.683C245.365 7.364 245.602 7.127 246.767 7.079C247.821 7.036 248.411 7.272 248.079 7.604ZM318.6 7.732C316.263 7.943 312.437 7.943 310.1 7.732C307.763 7.522 309.675 7.349 314.35 7.349C319.025 7.349 320.937 7.522 318.6 7.732ZM336.079 7.604C335.747 7.936 334.884 7.972 334.163 7.683C333.365 7.364 333.602 7.127 334.767 7.079C335.821 7.036 336.411 7.272 336.079 7.604ZM342.619 7.656C341.942 7.93 340.592 7.947 339.619 7.693C338.646 7.439 339.2 7.215 340.85 7.195C342.5 7.175 343.296 7.382 342.619 7.656ZM352.112 7.687C351.156 7.937 349.356 7.946 348.112 7.707C346.868 7.468 347.65 7.263 349.85 7.252C352.05 7.241 353.068 7.437 352.112 7.687ZM374.35 8C374.35 8.55 374.8 9 375.35 9C375.9 9 376.35 8.55 376.35 8C376.35 7.45 375.9 7 375.35 7C374.8 7 374.35 7.45 374.35 8ZM183.163 8.683C183.884 8.972 184.747 8.936 185.079 8.604C185.411 8.272 184.821 8.036 183.767 8.079C182.602 8.127 182.365 8.364 183.163 8.683ZM229.112 8.707C230.356 8.946 232.156 8.937 233.112 8.687C234.068 8.437 233.05 8.241 230.85 8.252C228.65 8.263 227.868 8.468 229.112 8.707ZM188.163 10.683C188.884 10.972 189.747 10.936 190.079 10.604C190.411 10.272 189.821 10.036 188.767 10.079C187.602 10.127 187.365 10.364 188.163 10.683ZM192.163 10.683C192.884 10.972 193.747 10.936 194.079 10.604C194.411 10.272 193.821 10.036 192.767 10.079C191.602 10.127 191.365 10.364 192.163 10.683ZM196.1 10.662C196.788 10.94 197.913 10.94 198.6 10.662C199.288 10.385 198.725 10.158 197.35 10.158C195.975 10.158 195.413 10.385 196.1 10.662ZM202.619 10.693C203.592 10.947 204.942 10.93 205.619 10.656C206.296 10.382 205.5 10.175 203.85 10.195C202.2 10.215 201.646 10.439 202.619 10.693ZM214.619 10.693C215.592 10.947 216.942 10.93 217.619 10.656C218.296 10.382 217.5 10.175 215.85 10.195C214.2 10.215 213.646 10.439 214.619 10.693ZM398.859 11.015C399.194 11.557 398.429 12.014 397.159 12.032C394.926 12.063 394.913 12.111 396.768 13.515C398.301 14.675 398.986 14.719 400.182 13.733C401.482 12.661 401.521 12.794 400.479 14.75C399.064 17.404 399.958 17.665 402.521 15.345C403.527 14.435 404.35 14.162 404.35 14.738C404.35 15.314 403.675 16.045 402.85 16.362C399.931 17.482 401.404 18.548 405.35 18.171C407.834 17.935 409.35 18.209 409.35 18.895C409.35 19.503 407.914 20 406.159 20C403.251 20 403.13 20.119 404.795 21.336C405.912 22.153 408.274 22.507 410.872 22.248C413.21 22.015 415.403 22.276 415.745 22.829C416.126 23.447 415.04 23.73 412.932 23.563C411.044 23.413 408.902 23.661 408.174 24.113C407.262 24.68 404.748 22.853 400.1 18.245C396.388 14.565 393.35 11.302 393.35 10.995C393.35 9.988 398.236 10.006 398.859 11.015ZM403.85 11C404.19 11.55 403.991 12 403.409 12C402.827 12 402.35 11.55 402.35 11C402.35 10.45 402.548 10 402.791 10C403.034 10 403.51 10.45 403.85 11ZM51.2597 13.111C52.9027 14.453 53.9957 14.754 54.6927 14.057C56.0587 12.691 55.0137 11.796 51.6327 11.437L48.8497 11.142L51.2597 13.111ZM202.536 12.748C211.713 12.913 227.013 12.913 236.536 12.749C246.059 12.584 238.55 12.449 219.85 12.449C201.15 12.449 193.359 12.583 202.536 12.748ZM47.3587 15.489C46.1097 16.994 44.3497 16.673 44.3497 14.941C44.3497 14.423 45.3047 14 46.4717 14C48.2387 14 48.3877 14.25 47.3587 15.489ZM7.34966 16.044C7.34966 17.34 12.4477 37.196 12.9487 37.85C13.0957 38.043 13.6527 37.931 14.1857 37.601C14.7967 37.224 14.6877 35.43 13.8937 32.751C11.8517 25.87 11.0957 20.725 12.2307 21.426C12.7847 21.769 16.4137 22.079 20.2937 22.115C24.1747 22.152 27.3497 22.619 27.3497 23.154C27.3497 23.688 26.5617 24.046 25.5997 23.948C24.6377 23.85 23.3997 23.863 22.8497 23.978C22.2997 24.092 19.9367 24.11 17.5997 24.017C14.9497 23.912 13.3497 24.285 13.3497 25.007C13.3497 25.789 15.1017 26.04 18.7417 25.781C22.8717 25.487 24.0177 25.702 23.6347 26.699C23.3607 27.414 22.0037 28 20.6207 28C18.4607 28 18.2867 28.22 19.3917 29.551C20.4787 30.86 20.3427 31.189 18.5137 31.667C16.6197 32.163 15.3697 34 16.9277 34C17.7797 34 32.3497 20.777 32.3497 20.004C32.3497 19.642 27.2877 18.772 21.0997 18.071C14.9127 17.37 9.28766 16.337 8.59966 15.776C7.71866 15.056 7.34966 15.135 7.34966 16.044ZM440.995 17.766C440.689 18.261 435.936 19.239 430.432 19.941L420.425 21.216L426.137 26.358C429.279 29.186 433.085 32.782 434.593 34.349C437.72 37.595 437.377 38.083 440.362 26.134C442.25 18.576 442.495 15.339 440.995 17.766ZM17.2667 19.644C17.4957 19.84 16.0327 20 14.0167 20C11.9997 20 10.3497 19.561 10.3497 19.025C10.3497 18.164 16.1417 18.682 17.2667 19.644ZM439.35 21C439.35 21.55 438.338 21.968 437.1 21.93C434.953 21.863 434.942 21.82 436.85 21C437.95 20.527 438.963 20.109 439.1 20.07C439.237 20.032 439.35 20.45 439.35 21ZM48.1517 22.531C47.0697 23.614 43.3497 23.849 43.3497 22.836C43.3497 22.258 44.0107 22.04 44.8177 22.349C45.6247 22.659 46.5697 22.452 46.9177 21.89C47.2657 21.327 47.8047 21.122 48.1167 21.433C48.4277 21.745 48.4437 22.239 48.1517 22.531ZM434.079 21.604C433.747 21.936 432.884 21.972 432.163 21.683C431.365 21.364 431.602 21.127 432.767 21.079C433.821 21.036 434.411 21.272 434.079 21.604ZM37.8957 23.925C37.5797 24.437 38.2607 25.154 39.4107 25.519C42.2487 26.42 43.0017 25.419 40.4957 24.078C39.2777 23.426 38.2417 23.365 37.8957 23.925ZM437.954 25.589C437.686 26.287 437.167 28.461 436.799 30.42C436.431 32.379 435.75 33.747 435.284 33.459C434.818 33.171 434.691 32.275 435.001 31.468C435.383 30.472 434.906 30 433.516 30C432.39 30 431.19 29.55 430.85 29C430.489 28.417 431.506 28 433.291 28C434.973 28 436.35 27.55 436.35 27C436.35 26.45 434.298 26 431.791 26C428.959 26 427.47 25.615 427.86 24.984C428.819 23.432 438.558 24.016 437.954 25.589ZM27.3497 28.5C26.2977 29.767 26.5027 30 28.6687 30C31.6867 30 33.0227 28.472 30.7617 27.605C28.6787 26.805 28.7777 26.779 27.3497 28.5ZM15.1627 28.683C15.8837 28.972 16.7467 28.936 17.0787 28.604C17.4107 28.272 16.8207 28.036 15.7667 28.079C14.6017 28.127 14.3647 28.364 15.1627 28.683ZM415.88 30.951C414.637 32.963 416.323 33.699 422.145 33.685C425.37 33.677 428.535 33.996 429.179 34.394C429.823 34.792 430.35 34.664 430.35 34.109C430.35 32.297 427.098 31.224 423.194 31.748C420.972 32.046 418.774 31.767 417.949 31.082C416.979 30.277 416.322 30.235 415.88 30.951ZM20.9327 34.542C17.1897 37.847 17.5607 38.843 21.8497 37C23.2187 36.412 23.3767 36.106 22.3497 36.03C21.4717 35.966 21.9907 35.301 23.5997 34.428C25.1127 33.607 26.3497 32.5 26.3497 31.968C26.3497 30.312 24.9927 30.957 20.9327 34.542ZM31.3497 31.858C31.3497 33.759 34.7187 34.057 36.2777 32.294C37.1417 31.315 37.2187 31.053 36.4467 31.71C35.4747 32.538 34.4747 32.602 33.1967 31.918C32.1037 31.333 31.3497 31.309 31.3497 31.858ZM14.4207 40.415C13.6897 41.295 14.8217 41.585 18.8967 41.562C21.8957 41.545 24.3497 41.187 24.3497 40.766C24.3497 40.344 23.7877 39.971 23.0997 39.936C22.4127 39.901 20.3977 39.729 18.6237 39.554C16.8497 39.379 14.9587 39.767 14.4207 40.415ZM438.346 42.596C439.136 43.386 437.863 43.74 433.75 43.874C430.621 43.977 427.737 44.261 427.339 44.507C426.942 44.752 425.852 44.108 424.918 43.075C423.269 41.253 423.429 41.201 430.236 41.35C434.096 41.435 437.746 41.996 438.346 42.596ZM10.7767 44.479C9.71666 45.28 9.29966 45.944 9.84966 45.953C11.3357 45.977 13.8757 44.192 13.2477 43.565C12.9487 43.265 11.8367 43.677 10.7767 44.479ZM15.0537 44.204C14.3317 44.663 14.9737 44.975 16.6587 44.985C18.6377 44.995 19.2457 45.369 18.7167 46.25C18.1817 47.141 18.4387 47.117 19.6137 46.164C20.5207 45.429 21.7007 45.099 22.2367 45.43C22.7727 45.762 23.4647 45.622 23.7747 45.121C24.4797 43.98 16.6937 43.162 15.0537 44.204ZM68.4157 47.035C70.9437 48.389 70.8587 49.755 68.0997 52.056C65.3587 54.343 63.4777 54.498 62.7117 52.5C62.3947 51.675 61.5087 51 60.7427 51C58.9067 51 58.9837 50.062 61.0047 47.829C62.8607 45.778 65.5317 45.492 68.4157 47.035ZM391.699 48.178C392.526 49.5 392.229 50.289 390.3 51.895C387.362 54.339 385.764 54.522 384.988 52.5C384.672 51.675 383.724 51 382.881 51C380.899 51 380.945 50.104 383.049 47.78C385.111 45.502 390.169 45.734 391.699 48.178ZM6.34966 48.5C4.99866 50.128 5.32166 50.332 7.76766 49.393C8.63766 49.059 9.34966 48.384 9.34966 47.893C9.34966 46.51 7.72966 46.838 6.34966 48.5ZM437.152 48.128C437.536 48.474 440.027 48.985 442.687 49.265C446.205 49.635 447.224 49.474 446.424 48.674C445.819 48.069 443.328 47.557 440.889 47.537C438.449 47.517 436.767 47.783 437.152 48.128ZM12.1117 48.707C13.3557 48.946 15.1557 48.937 16.1117 48.687C17.0677 48.437 16.0497 48.241 13.8497 48.252C11.6497 48.263 10.8677 48.468 12.1117 48.707ZM18.3497 49.059C18.3497 49.641 18.7997 49.84 19.3497 49.5C19.8997 49.16 20.3497 48.684 20.3497 48.441C20.3497 48.198 19.8997 48 19.3497 48C18.7997 48 18.3497 48.477 18.3497 49.059ZM433.85 49C434.19 49.55 434.666 50 434.909 50C435.152 50 435.35 49.55 435.35 49C435.35 48.45 434.873 48 434.291 48C433.709 48 433.51 48.45 433.85 49ZM5.11766 52.168C5.69966 52.75 6.76466 53.028 7.48666 52.788C8.23566 52.538 7.78166 52.085 6.42966 51.731C4.76666 51.296 4.37566 51.426 5.11766 52.168ZM446.342 52.107C445.216 52.88 445.464 52.973 447.35 52.486C449.179 52.014 447.435 54.211 440.85 60.672C431.468 69.877 406.133 93.689 398.35 100.616L393.85 104.621L225.756 104.55L57.6607 104.479L35.7557 83.9C2.92566 53.058 1.49166 51.785 0.118657 52.256C-0.621343 52.51 2.15966 55.822 6.79166 60.205L14.7347 67.718L12.4697 76.953C9.85866 87.6 10.0337 89.938 12.7357 80.503C14.6537 73.804 14.6667 73.797 19.3207 76.804C19.5797 76.972 19.1297 77.527 18.3207 78.039C17.2067 78.743 17.5257 78.973 19.6307 78.985C21.1997 78.993 22.6697 79.67 23.0027 80.537C23.3267 81.382 24.9997 82.823 26.7207 83.738L29.8497 85.402L25.3497 86.068C22.8747 86.435 18.2617 87.052 15.0997 87.439C11.5957 87.869 9.34966 88.625 9.34966 89.375C9.34966 90.341 11.7667 90.312 20.5997 89.239C28.6477 88.262 32.3437 88.176 33.5857 88.936C34.5407 89.521 35.9957 90 36.8187 90C37.6407 90 42.5407 93.825 47.7077 98.5L57.1007 107H226.258H395.415L403.132 99.515C413.826 89.144 417.601 87.764 431.164 89.269C436.733 89.887 441.604 90.08 441.987 89.696C443.308 88.375 442.298 88.126 428.6 86.39C425.713 86.024 423.35 85.337 423.35 84.862C423.35 84.388 423.777 84 424.298 84C424.82 84 426.461 82.875 427.945 81.5C429.428 80.125 431.462 79 432.465 79C433.596 79 434.088 78.481 433.762 77.631C433.451 76.821 434.071 76.045 435.282 75.728C436.967 75.287 437.534 75.882 438.499 79.103C440.296 85.102 440.574 83.06 438.923 75.983C437.974 71.913 437.778 69.07 438.37 67.963C438.875 67.02 442.452 63.193 446.32 59.459C450.188 55.724 453.24 52.582 453.101 52.475C451.873 51.528 447.531 51.291 446.342 52.107ZM439.163 52.683C439.884 52.972 440.747 52.936 441.079 52.604C441.411 52.272 440.821 52.036 439.767 52.079C438.602 52.127 438.365 52.364 439.163 52.683ZM442.35 53.059C442.35 53.641 442.8 53.84 443.35 53.5C443.9 53.16 444.35 52.684 444.35 52.441C444.35 52.198 443.9 52 443.35 52C442.8 52 442.35 52.477 442.35 53.059ZM439.619 56.693C440.592 56.947 441.942 56.93 442.619 56.656C443.296 56.382 442.5 56.175 440.85 56.195C439.2 56.215 438.646 56.439 439.619 56.693ZM440.429 85.583C440.477 86.748 440.714 86.985 441.033 86.188C441.322 85.466 441.286 84.603 440.954 84.271C440.622 83.939 440.386 84.529 440.429 85.583Z" fill="#FFE600"/>
<path d="M141.65 54.2C141.65 53.7333 141.65 53.2667 141.65 52.8C141.65 52.3 141.617 51.8167 141.55 51.35C141.383 49.8833 140.733 48.5 139.6 47.2C138.5 45.9 137.183 44.7833 135.65 43.85C134.117 42.8833 132.5 42.1333 130.8 41.6C129.1 41.0333 127.583 40.75 126.25 40.75C125.55 40.75 124.783 40.7667 123.95 40.8C123.15 40.8333 122.4 40.8667 121.7 40.9C120.233 41 118.783 41.05 117.35 41.05C116.783 41.05 116.167 41.0333 115.5 41C114.833 40.9667 114.2 40.9333 113.6 40.9C113.133 40.8667 112.667 40.85 112.2 40.85C111.767 40.8167 111.317 40.8 110.85 40.8C110.617 40.8 110.45 40.8667 110.35 41C110.25 41.1 110.233 41.2333 110.3 41.4C110.4 41.6 110.583 41.75 110.85 41.85C111.15 41.9167 111.45 41.9833 111.75 42.05C112.15 42.1167 112.55 42.2333 112.95 42.4C113.35 42.5667 113.55 42.9833 113.55 43.65V63.95C113.55 65.0833 113.4 65.8667 113.1 66.3C112.833 66.7333 112.2 67.0333 111.2 67.2C110.867 67.2667 110.717 67.4333 110.75 67.7C110.783 67.9667 110.967 68.1 111.3 68.1C112.333 68.0667 113.433 68.0833 114.6 68.15C115.767 68.2167 116.883 68.2833 117.95 68.35C118.917 68.4167 119.883 68.4833 120.85 68.55C121.85 68.5833 122.833 68.6 123.8 68.6C126.167 68.6 128.433 68.35 130.6 67.85C132.767 67.35 134.667 66.5333 136.3 65.4C137.933 64.2667 139.233 62.7833 140.2 60.95C141.167 59.1167 141.65 56.8667 141.65 54.2ZM137.1 55.6C137.1 57.6 136.733 59.3 136 60.7C135.267 62.0667 134.283 63.2 133.05 64.1C131.817 64.9667 130.383 65.6 128.75 66C127.117 66.4 125.417 66.6 123.65 66.6C122.817 66.6 122.067 66.5667 121.4 66.5C120.733 66.4333 120.15 66.2667 119.65 66C119.183 65.7333 118.817 65.3333 118.55 64.8C118.317 64.2667 118.2 63.5333 118.2 62.6V43.3C118.867 43.1 119.533 42.9667 120.2 42.9C120.867 42.8333 121.533 42.8 122.2 42.8C124.167 42.8 126.05 43.0667 127.85 43.6C129.65 44.1333 131.233 44.9333 132.6 46C133.967 47.0333 135.05 48.3667 135.85 50C136.683 51.6 137.1 53.4667 137.1 55.6ZM162.887 63.25C162.92 63.15 162.87 63.0667 162.737 63C162.637 62.9 162.52 62.85 162.387 62.85C162.253 62.8167 162.12 62.8333 161.987 62.9C161.853 62.9333 161.77 63 161.737 63.1C161.437 64.2667 160.837 65.1167 159.937 65.65C159.037 66.15 158.053 66.4 156.987 66.4C156.12 66.4 155.203 66.2333 154.237 65.9C153.27 65.5667 152.52 65.0333 151.987 64.3V54.6H152.637C153.037 54.6 153.537 54.6 154.137 54.6C154.737 54.6 155.337 54.6167 155.937 54.65C156.57 54.6833 157.137 54.75 157.637 54.85C158.137 54.9167 158.47 55.0167 158.637 55.15C158.737 55.2167 158.837 55.3833 158.937 55.65C159.07 55.9167 159.187 56.2 159.287 56.5C159.32 56.6667 159.32 56.8 159.287 56.9C159.287 56.9667 159.487 57.1167 159.887 57.35C160.053 57.4833 160.237 57.5167 160.437 57.45C160.637 57.3833 160.753 57.2667 160.787 57.1C160.853 56.6333 160.92 56.2 160.987 55.8C161.053 55.4 161.12 55 161.187 54.6C161.253 54.1667 161.303 53.65 161.337 53.05C161.403 52.45 161.47 51.9333 161.537 51.5C161.57 51.3333 161.503 51.2 161.337 51.1C161.203 50.9667 161.02 50.9333 160.787 51C160.587 51.0667 160.37 51.2167 160.137 51.45C159.937 51.6833 159.703 51.8667 159.437 52H159.487C159.187 52.1 158.903 52.2167 158.637 52.35C158.37 52.45 158.153 52.5 157.987 52.5H151.987V42.95H152.887C153.153 42.95 153.42 42.95 153.687 42.95C153.953 42.9167 154.203 42.9 154.437 42.9C154.703 42.9 154.953 42.9 155.187 42.9C155.453 42.8667 155.72 42.85 155.987 42.85C156.453 42.85 156.92 42.8833 157.387 42.95C157.853 43.0167 158.27 43.15 158.637 43.35C159.003 43.5167 159.303 43.7667 159.537 44.1C159.77 44.4333 159.903 44.8833 159.937 45.45C159.97 45.7167 160.153 45.85 160.487 45.85C160.82 45.85 161.02 45.7333 161.087 45.5C161.153 45.3 161.203 45.1 161.237 44.9C161.27 44.7 161.32 44.4833 161.387 44.25C161.52 43.7167 161.653 43.1833 161.787 42.65C161.92 42.1167 162.02 41.5333 162.087 40.9C162.12 40.7333 162.053 40.6 161.887 40.5C161.72 40.4 161.52 40.3833 161.287 40.45C160.82 40.6167 159.903 40.7333 158.537 40.8C157.17 40.8667 155.653 40.9 153.987 40.9C152.82 40.9 151.67 40.9 150.537 40.9C149.403 40.8667 148.353 40.8333 147.387 40.8C146.787 40.8 146.237 40.8 145.737 40.8C145.27 40.7667 144.887 40.75 144.587 40.75C144.287 40.75 144.087 40.85 143.987 41.05C143.887 41.25 143.97 41.4167 144.237 41.55C144.503 41.7167 144.77 41.8333 145.037 41.9C145.337 41.9667 145.62 42.0333 145.887 42.1C146.253 42.1667 146.587 42.3 146.887 42.5C147.22 42.6667 147.387 43.0333 147.387 43.6V64.1C147.387 65 147.237 65.7333 146.937 66.3C146.637 66.8333 146.02 67.1167 145.087 67.15C144.787 67.15 144.62 67.3 144.587 67.6C144.587 67.8667 144.737 68.0167 145.037 68.05C146.203 68.1167 147.387 68.15 148.587 68.15C149.787 68.1167 150.987 68.1 152.187 68.1C152.72 68.1 153.253 68.1 153.787 68.1C154.32 68.0667 154.853 68.05 155.387 68.05C155.62 68.05 156.02 68.0667 156.587 68.1C157.187 68.1 157.803 68.1167 158.437 68.15C159.103 68.15 159.72 68.15 160.287 68.15C160.853 68.15 161.237 68.1167 161.437 68.05L161.837 67.85L162.887 63.25ZM183.68 40.9L182.88 40.45C182.547 40.6167 182.197 40.7333 181.83 40.8C181.464 40.8333 181.097 40.85 180.73 40.85H175.08C173.48 40.85 171.897 40.85 170.33 40.85C168.797 40.85 167.23 40.8167 165.63 40.75C165.33 40.75 165.147 40.8667 165.08 41.1C165.047 41.3333 165.164 41.4833 165.43 41.55C165.697 41.6833 165.947 41.8 166.18 41.9C166.447 41.9667 166.714 42.0333 166.98 42.1C167.347 42.1667 167.68 42.3 167.98 42.5C168.314 42.7 168.48 43.1167 168.48 43.75V64.1C168.48 64.7333 168.447 65.2333 168.38 65.6C168.347 65.9667 168.247 66.25 168.08 66.45C167.914 66.65 167.664 66.8 167.33 66.9C167.03 67 166.614 67.0833 166.08 67.15C165.78 67.2167 165.647 67.3833 165.68 67.65C165.714 67.9167 165.88 68.05 166.18 68.05C167.047 68.0833 167.897 68.1167 168.73 68.15C169.597 68.15 170.464 68.15 171.33 68.15C172.164 68.15 172.997 68.15 173.83 68.15C174.664 68.15 175.497 68.1167 176.33 68.05C176.664 68.0167 176.814 67.8667 176.78 67.6C176.747 67.3 176.564 67.15 176.23 67.15C174.964 67.2167 174.114 67.0167 173.68 66.55C173.28 66.0833 173.08 65.2167 173.08 63.95V54.7C173.247 54.7333 173.397 54.75 173.53 54.75C173.697 54.75 173.864 54.75 174.03 54.75C174.33 54.75 174.614 54.75 174.88 54.75C175.147 54.7167 175.414 54.6833 175.68 54.65C175.98 54.6167 176.264 54.6 176.53 54.6C176.797 54.5667 177.064 54.55 177.33 54.55C178.264 54.55 179.047 54.7333 179.68 55.1C180.347 55.4333 180.664 56.1167 180.63 57.15C180.63 57.35 180.73 57.5 180.93 57.6C181.13 57.6667 181.33 57.6333 181.53 57.5C181.797 57.3333 181.997 57.05 182.13 56.65C182.297 56.2167 182.414 55.7667 182.48 55.3C182.547 54.8 182.58 54.3167 182.58 53.85C182.614 53.35 182.63 52.9167 182.63 52.55V51.95C182.63 51.75 182.514 51.6167 182.28 51.55C182.047 51.45 181.83 51.4667 181.63 51.6C181.464 51.7667 181.214 51.9667 180.88 52.2C180.547 52.4 180.297 52.5 180.13 52.5H173.08V43.35C173.514 43.35 173.847 43.3333 174.08 43.3C174.314 43.2667 174.664 43.2167 175.13 43.15C175.63 43.0833 176.13 43.0333 176.63 43C177.13 42.9333 177.614 42.9 178.08 42.9C179.014 42.9 179.814 43.0833 180.48 43.45C181.147 43.7833 181.497 44.4833 181.53 45.55C181.53 45.75 181.63 45.9 181.83 46C182.03 46.0667 182.23 46.05 182.43 45.95C182.63 45.8167 182.797 45.6167 182.93 45.35C183.097 45.05 183.214 44.7333 183.28 44.4C183.38 44.0333 183.447 43.65 183.48 43.25C183.547 42.85 183.58 42.4833 183.58 42.15C183.58 42.05 183.58 41.9167 183.58 41.75C183.614 41.5833 183.63 41.4333 183.63 41.3C183.664 41.1333 183.68 41.0167 183.68 40.95C183.68 40.85 183.68 40.8333 183.68 40.9ZM204.781 63.25C204.815 63.15 204.765 63.0667 204.631 63C204.531 62.9 204.415 62.85 204.281 62.85C204.148 62.8167 204.015 62.8333 203.881 62.9C203.748 62.9333 203.665 63 203.631 63.1C203.331 64.2667 202.731 65.1167 201.831 65.65C200.931 66.15 199.948 66.4 198.881 66.4C198.015 66.4 197.098 66.2333 196.131 65.9C195.165 65.5667 194.415 65.0333 193.881 64.3V54.6H194.531C194.931 54.6 195.431 54.6 196.031 54.6C196.631 54.6 197.231 54.6167 197.831 54.65C198.465 54.6833 199.031 54.75 199.531 54.85C200.031 54.9167 200.365 55.0167 200.531 55.15C200.631 55.2167 200.731 55.3833 200.831 55.65C200.965 55.9167 201.081 56.2 201.181 56.5C201.215 56.6667 201.215 56.8 201.181 56.9C201.181 56.9667 201.381 57.1167 201.781 57.35C201.948 57.4833 202.131 57.5167 202.331 57.45C202.531 57.3833 202.648 57.2667 202.681 57.1C202.748 56.6333 202.815 56.2 202.881 55.8C202.948 55.4 203.015 55 203.081 54.6C203.148 54.1667 203.198 53.65 203.231 53.05C203.298 52.45 203.365 51.9333 203.431 51.5C203.465 51.3333 203.398 51.2 203.231 51.1C203.098 50.9667 202.915 50.9333 202.681 51C202.481 51.0667 202.265 51.2167 202.031 51.45C201.831 51.6833 201.598 51.8667 201.331 52H201.381C201.081 52.1 200.798 52.2167 200.531 52.35C200.265 52.45 200.048 52.5 199.881 52.5H193.881V42.95H194.781C195.048 42.95 195.315 42.95 195.581 42.95C195.848 42.9167 196.098 42.9 196.331 42.9C196.598 42.9 196.848 42.9 197.081 42.9C197.348 42.8667 197.615 42.85 197.881 42.85C198.348 42.85 198.815 42.8833 199.281 42.95C199.748 43.0167 200.165 43.15 200.531 43.35C200.898 43.5167 201.198 43.7667 201.431 44.1C201.665 44.4333 201.798 44.8833 201.831 45.45C201.865 45.7167 202.048 45.85 202.381 45.85C202.715 45.85 202.915 45.7333 202.981 45.5C203.048 45.3 203.098 45.1 203.131 44.9C203.165 44.7 203.215 44.4833 203.281 44.25C203.415 43.7167 203.548 43.1833 203.681 42.65C203.815 42.1167 203.915 41.5333 203.981 40.9C204.015 40.7333 203.948 40.6 203.781 40.5C203.615 40.4 203.415 40.3833 203.181 40.45C202.715 40.6167 201.798 40.7333 200.431 40.8C199.065 40.8667 197.548 40.9 195.881 40.9C194.715 40.9 193.565 40.9 192.431 40.9C191.298 40.8667 190.248 40.8333 189.281 40.8C188.681 40.8 188.131 40.8 187.631 40.8C187.165 40.7667 186.781 40.75 186.481 40.75C186.181 40.75 185.981 40.85 185.881 41.05C185.781 41.25 185.865 41.4167 186.131 41.55C186.398 41.7167 186.665 41.8333 186.931 41.9C187.231 41.9667 187.515 42.0333 187.781 42.1C188.148 42.1667 188.481 42.3 188.781 42.5C189.115 42.6667 189.281 43.0333 189.281 43.6V64.1C189.281 65 189.131 65.7333 188.831 66.3C188.531 66.8333 187.915 67.1167 186.981 67.15C186.681 67.15 186.515 67.3 186.481 67.6C186.481 67.8667 186.631 68.0167 186.931 68.05C188.098 68.1167 189.281 68.15 190.481 68.15C191.681 68.1167 192.881 68.1 194.081 68.1C194.615 68.1 195.148 68.1 195.681 68.1C196.215 68.0667 196.748 68.05 197.281 68.05C197.515 68.05 197.915 68.0667 198.481 68.1C199.081 68.1 199.698 68.1167 200.331 68.15C200.998 68.15 201.615 68.15 202.181 68.15C202.748 68.15 203.131 68.1167 203.331 68.05L203.731 67.85L204.781 63.25ZM240.225 41.8L240.025 40.95C238.825 40.8833 237.625 40.8333 236.425 40.8C235.225 40.7333 234.008 40.7167 232.775 40.75L230.975 40.8C230.708 40.8 230.525 40.9 230.425 41.1C230.325 41.3 230.392 41.45 230.625 41.55C231.025 41.7833 231.542 41.9333 232.175 42C232.408 42.0333 232.642 42.0833 232.875 42.15C233.108 42.1833 233.325 42.2833 233.525 42.45C233.725 42.5833 233.892 42.8167 234.025 43.15C234.158 43.45 234.225 43.8667 234.225 44.4V47.45C234.225 47.9833 234.208 48.5 234.175 49C234.175 49.5 234.175 50.0167 234.175 50.55C234.175 51.3833 234.192 52.2667 234.225 53.2C234.258 54.1333 234.308 55.0167 234.375 55.85C234.408 56.8833 234.442 57.9 234.475 58.9C234.508 59.8667 234.508 60.8667 234.475 61.9C230.742 58.2333 226.992 54.6167 223.225 51.05C219.458 47.45 215.658 43.8833 211.825 40.35C211.758 40.2833 211.642 40.25 211.475 40.25C211.342 40.2167 211.225 40.2333 211.125 40.3C210.958 40.4333 210.792 40.6 210.625 40.8C210.458 40.9667 210.375 41.1833 210.375 41.45V65.05C210.375 65.7167 210.175 66.2333 209.775 66.6C209.375 66.9333 208.892 67.0667 208.325 67H207.725C207.425 67 207.242 67.1333 207.175 67.4C207.142 67.6667 207.275 67.8333 207.575 67.9C208.275 68.0667 208.992 68.1667 209.725 68.2C210.492 68.2333 211.258 68.25 212.025 68.25H213.775C214.342 68.25 214.925 68.25 215.525 68.25C216.125 68.2167 216.708 68.2167 217.275 68.25C217.575 68.25 217.775 68.15 217.875 67.95C217.975 67.75 217.892 67.5833 217.625 67.45C217.325 67.2167 217.008 67.0833 216.675 67.05C216.342 66.9833 216.025 66.9167 215.725 66.85C215.492 66.8167 215.258 66.7667 215.025 66.7C214.825 66.6333 214.625 66.5167 214.425 66.35C214.258 66.1833 214.125 65.9333 214.025 65.6C213.925 65.2333 213.875 64.7667 213.875 64.2C213.875 62.9333 213.858 61.6833 213.825 60.45C213.792 59.2167 213.742 57.9833 213.675 56.75C213.608 55.4833 213.542 54.2333 213.475 53C213.442 51.7667 213.425 50.5167 213.425 49.25C213.425 48.9167 213.425 48.6 213.425 48.3C213.425 48 213.442 47.7 213.475 47.4L216.075 49.95H216.025C219.225 53.1833 222.475 56.4 225.775 59.6C229.108 62.7667 232.642 65.75 236.375 68.55C236.575 68.65 236.775 68.6833 236.975 68.65C237.175 68.5833 237.292 68.45 237.325 68.25C237.525 66.15 237.658 64.0667 237.725 62C237.792 59.9 237.825 57.7833 237.825 55.65C237.825 54.7167 237.808 53.6833 237.775 52.55C237.775 51.3833 237.775 50.3167 237.775 49.35C237.742 48.3167 237.725 47.3 237.725 46.3C237.725 45.2667 237.725 44.2167 237.725 43.15C237.725 42.7833 237.925 42.5167 238.325 42.35C238.725 42.1833 239.125 42.05 239.525 41.95H239.475C239.675 41.8833 239.842 41.85 239.975 41.85C240.142 41.8167 240.225 41.8 240.225 41.8ZM259.661 60.9C259.661 60.0333 259.461 59.2167 259.061 58.45C258.661 57.6833 258.145 56.95 257.511 56.25C256.878 55.55 256.161 54.9 255.361 54.3C254.561 53.6667 253.778 53.05 253.011 52.45C252.411 51.9833 251.795 51.5 251.161 51C250.528 50.5 249.945 49.9833 249.411 49.45C248.911 48.8833 248.495 48.3167 248.161 47.75C247.861 47.1833 247.711 46.6167 247.711 46.05C247.711 45.4167 247.845 44.85 248.111 44.35C248.378 43.85 248.728 43.4333 249.161 43.1C249.595 42.7667 250.078 42.5167 250.611 42.35C251.178 42.15 251.745 42.05 252.311 42.05C252.878 42.05 253.428 42.1333 253.961 42.3C254.528 42.4667 255.028 42.7167 255.461 43.05C255.928 43.3833 256.295 43.7833 256.561 44.25C256.861 44.7167 257.011 45.2667 257.011 45.9C257.011 46.1333 257.128 46.2833 257.361 46.35C257.628 46.4167 257.861 46.3667 258.061 46.2C258.461 45.7667 258.678 45.2167 258.711 44.55C258.778 43.85 258.811 43.1667 258.811 42.5V41.1C258.878 40.8333 258.728 40.6667 258.361 40.6C256.995 40.3 255.595 40.15 254.161 40.15C253.261 40.15 252.178 40.2667 250.911 40.5C249.678 40.7 248.495 41.05 247.361 41.55C246.228 42.05 245.261 42.7167 244.461 43.55C243.695 44.3833 243.311 45.4167 243.311 46.65C243.311 47.4167 243.495 48.1667 243.861 48.9C244.261 49.6 244.778 50.3167 245.411 51.05C246.045 51.75 246.745 52.45 247.511 53.15C248.311 53.85 249.111 54.5333 249.911 55.2C250.611 55.8 251.295 56.4 251.961 57C252.661 57.6 253.278 58.2167 253.811 58.85C254.378 59.4833 254.828 60.1 255.161 60.7C255.528 61.3 255.711 61.9 255.711 62.5C255.711 63.1667 255.528 63.75 255.161 64.25C254.795 64.75 254.328 65.1667 253.761 65.5C253.195 65.8333 252.578 66.1 251.911 66.3C251.278 66.4667 250.695 66.55 250.161 66.55C249.528 66.55 248.878 66.4667 248.211 66.3C247.578 66.1333 246.995 65.8833 246.461 65.55C245.928 65.1833 245.495 64.75 245.161 64.25C244.861 63.7167 244.745 63.1 244.811 62.4V61.8C244.811 61.6667 244.745 61.5667 244.611 61.5C244.511 61.4333 244.395 61.4 244.261 61.4C244.128 61.4 243.995 61.4333 243.861 61.5C243.728 61.5333 243.661 61.6167 243.661 61.75C243.628 62.3167 243.528 62.7833 243.361 63.15C243.228 63.5167 243.111 63.8833 243.011 64.25C242.945 64.5833 242.911 64.9167 242.911 65.25C242.911 65.95 243.095 66.5333 243.461 67C243.861 67.4333 244.328 67.7833 244.861 68.05C245.428 68.3167 246.028 68.5 246.661 68.6C247.295 68.7 247.878 68.75 248.411 68.75C249.478 68.75 250.661 68.5833 251.961 68.25C253.295 67.8833 254.528 67.3667 255.661 66.7C256.795 66.0333 257.745 65.2167 258.511 64.25C259.278 63.2833 259.661 62.1667 259.661 60.9ZM292.909 67.95V67.05C292.176 66.9833 291.459 66.8333 290.759 66.6C290.059 66.3667 289.509 65.8667 289.109 65.1C287.842 62.8 286.676 60.4333 285.609 58C284.576 55.5333 283.542 53.1 282.509 50.7L280.309 45.55V45.6C280.242 45.5 280.176 45.3667 280.109 45.2C280.042 45 279.959 44.7833 279.859 44.55V44.6C279.692 44.2333 279.509 43.8167 279.309 43.35C279.109 42.8833 278.892 42.45 278.659 42.05C278.426 41.6167 278.192 41.2333 277.959 40.9C277.726 40.5667 277.492 40.35 277.259 40.25C276.892 40.15 276.642 40.2167 276.509 40.45C275.509 42.7833 274.509 45.1167 273.509 47.45C272.542 49.7833 271.576 52.1333 270.609 54.5C269.942 56.1 269.242 57.75 268.509 59.45C267.809 61.1167 267.126 62.75 266.459 64.35C266.292 64.65 266.059 64.9833 265.759 65.35C265.492 65.7167 265.192 66.05 264.859 66.35C264.526 66.6167 264.176 66.8167 263.809 66.95C263.442 67.0833 263.092 67.1 262.759 67L262.559 67.9L271.359 68.05C271.692 68.05 271.859 67.9167 271.859 67.65C271.892 67.35 271.742 67.1833 271.409 67.15C271.076 67.0833 270.692 67 270.259 66.9C269.826 66.7667 269.609 66.5167 269.609 66.15C269.609 65.85 269.709 65.35 269.909 64.65C270.142 63.9167 270.426 63.1333 270.759 62.3C271.092 61.4667 271.426 60.6333 271.759 59.8C272.092 58.9667 272.392 58.2833 272.659 57.75H280.709C281.409 59.3167 282.076 60.8167 282.709 62.25C283.342 63.6833 283.992 65.1833 284.659 66.75L284.209 67.3C284.009 67.4667 283.942 67.6333 284.009 67.8C284.109 67.9667 284.292 68.05 284.559 68.05C285.159 68.0833 285.742 68.1167 286.309 68.15C286.876 68.15 287.459 68.15 288.059 68.15C288.892 68.15 289.709 68.1333 290.509 68.1C291.309 68.0667 292.109 68.0167 292.909 67.95ZM279.809 55.6H273.459C274.092 54.1 274.626 52.7 275.059 51.4C275.526 50.0667 276.042 48.6667 276.609 47.2L279.809 55.6Z" fill="black"/>
<path d="M310.766 18.0008C310.086 17.9861 309.426 18.2289 308.917 18.6806C307.794 19.6735 307.688 21.3895 308.679 22.5135C309.336 23.2582 310.31 23.5533 311.219 23.3806L319.866 33.183L312.335 39.8448L315.951 43.9439C317.4 40.7449 319.278 38.0327 321.547 35.7622L322.58 41.1799C326.331 40.2382 330.03 39.5985 333.698 39.2527L330.123 35.2L324.343 33.3312C326.902 31.3999 329.835 29.8923 333.107 28.7689L329.49 24.6691L321.96 31.3306L313.301 21.514C313.568 20.6405 313.393 19.6531 312.744 18.9181C312.496 18.636 312.192 18.4088 311.851 18.2508C311.511 18.0929 311.141 18.0077 310.766 18.0006L310.766 18.0008ZM368.234 18.0008C367.859 18.0079 367.489 18.0931 367.149 18.251C366.808 18.4089 366.504 18.6361 366.256 18.9181C365.608 19.6531 365.432 20.6406 365.7 21.5145L357.04 31.3307L349.51 24.6691L345.894 28.7689C349.165 29.8923 352.098 31.3998 354.658 33.3309L348.878 35.2L345.401 39.141C349.095 39.4199 352.782 39.9953 356.482 40.8567L357.453 35.762C359.722 38.0326 361.601 40.7447 363.049 43.9437L366.665 39.8447L359.134 33.1828L367.781 23.3805C368.69 23.5531 369.664 23.258 370.321 22.5134C371.312 21.3893 371.206 19.6733 370.084 18.6805C369.575 18.2288 368.914 17.986 368.234 18.0006V18.0008ZM340.363 41.7315C334.449 41.7168 328.483 42.5138 322.328 44.1411C322.022 57.6821 327.484 75.483 340.04 83.0517C352.194 75.6964 358.339 57.6155 358.063 44.1397C352.12 42.5683 346.265 41.7461 340.363 41.7315H340.363ZM322.845 64.7121L309.858 79.4344L308.034 89L317.289 86.0067L327.528 74.3988C325.606 71.3885 324.053 68.1065 322.845 64.7121ZM356.962 65.6268C355.663 68.9561 354.035 72.1593 352.072 75.0799L361.711 86.0067L370.965 89L369.141 79.4344L356.962 65.6265L356.962 65.6268Z" fill="black"/>
</svg>
