<svg width="454" height="107" viewBox="0 0 454 107" fill="none" xmlns="http://www.w3.org/2000/svg">
<path fill-rule="evenodd" clip-rule="evenodd" d="M56.8497 1C56.5097 1.55 56.7347 2 57.3497 2C57.9647 2 58.2017 2.43 57.8767 2.956C57.5517 3.482 56.7377 3.705 56.0677 3.45C55.3977 3.196 53.1447 4.509 51.0607 6.367C47.6137 9.441 47.4557 9.794 49.3107 10.28C50.4317 10.573 51.3497 10.405 51.3497 9.906C51.3497 8.339 53.1947 8.917 55.2587 11.132C57.2427 13.262 57.2427 13.266 55.0477 15.06C52.8997 16.815 52.7877 16.788 50.1067 13.874C46.8477 10.331 46.9287 10.298 37.4637 19.165C30.3177 25.861 28.7477 27.928 32.2187 26.07C33.2457 25.52 34.4327 25.392 34.8547 25.785C35.2777 26.178 35.4107 25.825 35.1497 25C34.8447 24.034 35.7677 23.038 37.7437 22.201C39.9877 21.251 40.4517 20.681 39.4737 20.076C38.3897 19.407 38.3807 19.099 39.4247 18.453C40.9987 17.481 52.3497 17.162 52.3497 18.091C52.3497 19.453 49.1927 21.366 48.5237 20.408C47.7897 19.359 42.8047 19.212 41.8057 20.21C40.8717 21.145 43.3077 25.144 44.3997 24.469C46.2727 23.312 45.3037 25.694 43.0357 27.826C40.7127 30.007 38.7497 30.78 39.7847 29.105C40.0897 28.612 39.7097 27.968 38.9407 27.673C37.2757 27.034 33.3497 27.931 33.3497 28.95C33.3497 30.479 34.7287 30.93 36.0497 29.834C37.0927 28.968 37.7187 28.969 38.5857 29.836C39.4537 30.704 39.0507 31.702 36.9487 33.897C34.6667 36.279 33.6797 36.669 31.5057 36.048C28.3377 35.144 23.9347 36.243 26.6107 37.27C27.4997 37.611 29.4527 37.668 30.9517 37.396C33.3367 36.963 33.5137 37.097 32.3717 38.473C31.6417 39.354 30.2867 39.797 29.2927 39.482C28.3167 39.172 27.1817 39.463 26.7697 40.129C26.2547 40.962 26.5407 41.141 27.6857 40.701C30.4937 39.624 29.5567 41.381 24.8707 45.979C22.4067 48.397 20.5677 50.551 20.7827 50.766C20.9977 50.981 30.1147 42.125 41.0437 31.086L60.9137 11.015L123.882 10.75L186.85 10.485L123.3 10.242C82.0387 10.085 59.3287 10.351 58.5497 11C57.6977 11.71 57.6217 11.67 58.2887 10.861C58.9127 10.104 58.5237 9.151 57.1267 8.02C55.6737 6.844 55.3837 6.097 56.1877 5.6C56.8267 5.205 57.3497 5.319 57.3497 5.853C57.3497 6.386 59.5967 6.708 62.3427 6.568C66.4257 6.36 67.1317 6.558 66.2197 7.657C65.2887 8.778 74.5097 9 122.144 9C158.503 9 179.304 8.645 179.517 8.02C180.032 6.504 191.605 6.264 192.103 7.759C192.642 9.375 197.012 9.368 197.767 7.75C198.233 6.75 198.467 6.75 198.933 7.75C199.254 8.438 200.69 9 202.124 9C204.648 9 204.67 8.95 202.791 7.448C200.927 5.958 200.949 5.924 203.35 6.583C204.725 6.961 206.075 7.546 206.35 7.885C207.178 8.903 212.442 8.958 211.814 7.941C211.492 7.42 212.821 7 214.791 7C216.748 7 218.35 7.45 218.35 8C218.35 8.55 220.262 8.936 222.6 8.858L226.85 8.716L222.85 8.006C219.188 7.356 232.329 7.436 251.35 8.178C255.475 8.34 259.975 8.111 261.35 7.67C263.221 7.071 263.473 7.133 262.35 7.919C261.295 8.658 276.432 8.924 313.35 8.817C342.225 8.733 363.15 8.365 359.85 8L353.85 7.336L360.6 7.168C364.545 7.07 367.35 7.415 367.35 8C367.35 9.466 369.274 9.219 370.956 7.537C372.955 5.537 381.907 5.624 380.244 7.627C379.316 8.746 379.822 9.045 382.978 9.241C385.107 9.374 349.275 9.716 303.35 10L219.85 10.517L305.359 10.759L390.868 11L411.35 31.5C428.086 48.251 431.388 52 429.403 52C427.576 52 422.312 47.29 408.169 33L389.364 14H226.097H62.8297L43.8397 33.036C28.6867 48.225 24.3447 52.043 22.3497 51.93C20.9747 51.852 19.4037 51.836 18.8587 51.894C18.3137 51.952 27.5347 61.675 39.3497 73.5L60.8327 95H226.027H391.221L412.221 73.775C427.521 58.312 432.949 52.221 432.216 51.339C431.538 50.522 431.577 49.375 432.336 47.814C433.342 45.744 433.312 45.684 432.052 47.241C430.722 48.884 430.538 48.866 428.781 46.924L426.918 44.866L435.179 45.282L443.44 45.699L439.875 42.76C436.813 40.236 435.396 39.799 429.829 39.661C426.265 39.572 423.225 39.872 423.074 40.327C422.923 40.781 421.976 40.244 420.969 39.132C419.145 37.116 419.161 37.112 426.961 37.668C433.643 38.144 434.61 38.018 433.603 36.805C432.505 35.482 425.196 35.255 420.189 36.39C419.238 36.605 416.944 35.144 414.822 32.971L411.115 29.175L418.983 29.696C425.142 30.103 426.598 29.952 425.691 28.999C424.571 27.823 413.151 27.387 411.424 28.454C410.98 28.728 409.847 28.102 408.905 27.061C407.054 25.016 407.245 25.005 419.238 26.497L422.625 26.919L416.738 21.357C413.499 18.298 407.095 12.241 402.506 7.898L394.162 0H225.815C114.662 0 57.2577 0.34 56.8497 1ZM65.8497 3C66.2017 3.569 65.3407 4 63.8497 4C62.3587 4 61.4977 3.569 61.8497 3C62.1897 2.45 63.0897 2 63.8497 2C64.6097 2 65.5097 2.45 65.8497 3ZM226.35 3C226.35 3.55 225.873 4 225.291 4C224.709 4 224.51 3.55 224.85 3C225.19 2.45 225.666 2 225.909 2C226.152 2 226.35 2.45 226.35 3ZM378.35 3C378.35 3.55 377.648 4 376.791 4C375.934 4 375.51 3.55 375.85 3C376.19 2.45 376.891 2 377.409 2C377.927 2 378.35 2.45 378.35 3ZM385.35 3C386.515 3.753 386.222 3.973 384.041 3.985C382.42 3.994 381.493 3.577 381.85 3C382.617 1.758 383.429 1.758 385.35 3ZM389.185 7.123C388.451 7.589 386.725 7.962 385.35 7.953C383.027 7.938 382.977 7.84 384.646 6.574C385.635 5.825 387.36 5.451 388.481 5.745C390.037 6.151 390.203 6.478 389.185 7.123ZM54.3497 7C54.3497 7.55 53.8997 8 53.3497 8C52.7997 8 52.3497 7.55 52.3497 7C52.3497 6.45 52.7997 6 53.3497 6C53.8997 6 54.3497 6.45 54.3497 7ZM258.079 6.604C257.747 6.936 256.884 6.972 256.163 6.683C255.365 6.364 255.602 6.127 256.767 6.079C257.821 6.036 258.411 6.272 258.079 6.604ZM284.424 7.772C274.84 7.924 266.649 7.7 266.222 7.274C265.795 6.848 273.636 6.724 283.648 6.998L301.85 7.495L284.424 7.772ZM331.35 7C332.523 7.758 332.264 7.973 330.159 7.985C328.679 7.993 327.19 7.55 326.85 7C326.061 5.723 329.374 5.723 331.35 7ZM395.35 7.545C395.35 7.727 394.481 7.81 393.419 7.73C392.357 7.65 391.697 7.248 391.951 6.836C392.374 6.153 395.35 6.773 395.35 7.545ZM59.3497 8C59.3497 8.55 60.5867 8.968 62.0997 8.93C64.5367 8.867 64.6217 8.762 62.8497 8C60.1187 6.826 59.3497 6.826 59.3497 8ZM72.6187 7.656C71.9417 7.93 70.5917 7.947 69.6187 7.693C68.6457 7.439 69.1997 7.215 70.8497 7.195C72.4997 7.175 73.2957 7.382 72.6187 7.656ZM82.0787 7.604C81.7467 7.936 80.8837 7.972 80.1627 7.683C79.3647 7.364 79.6017 7.127 80.7667 7.079C81.8207 7.036 82.4107 7.272 82.0787 7.604ZM90.1117 7.687C89.1557 7.937 87.3557 7.946 86.1117 7.707C84.8677 7.468 85.6497 7.263 87.8497 7.252C90.0497 7.241 91.0677 7.437 90.1117 7.687ZM105.614 7.704C104.384 7.941 102.134 7.947 100.614 7.718C99.0937 7.488 100.1 7.294 102.85 7.286C105.6 7.279 106.844 7.467 105.614 7.704ZM112.079 7.604C111.747 7.936 110.884 7.972 110.163 7.683C109.365 7.364 109.602 7.127 110.767 7.079C111.821 7.036 112.411 7.272 112.079 7.604ZM128.1 7.716C126.588 7.945 124.112 7.945 122.6 7.716C121.088 7.487 122.325 7.3 125.35 7.3C128.375 7.3 129.612 7.487 128.1 7.716ZM144.6 7.706C143.362 7.944 141.338 7.944 140.1 7.706C138.862 7.467 139.875 7.272 142.35 7.272C144.825 7.272 145.838 7.467 144.6 7.706ZM173.139 7.738C169.998 7.936 164.598 7.937 161.139 7.741C157.68 7.546 160.25 7.384 166.85 7.382C173.45 7.38 176.28 7.54 173.139 7.738ZM186.35 8C186.35 8.55 186.827 9 187.409 9C187.991 9 188.19 8.55 187.85 8C187.51 7.45 187.034 7 186.791 7C186.548 7 186.35 7.45 186.35 8ZM248.079 7.604C247.747 7.936 246.884 7.972 246.163 7.683C245.365 7.364 245.602 7.127 246.767 7.079C247.821 7.036 248.411 7.272 248.079 7.604ZM318.6 7.732C316.263 7.943 312.437 7.943 310.1 7.732C307.763 7.522 309.675 7.349 314.35 7.349C319.025 7.349 320.937 7.522 318.6 7.732ZM336.079 7.604C335.747 7.936 334.884 7.972 334.163 7.683C333.365 7.364 333.602 7.127 334.767 7.079C335.821 7.036 336.411 7.272 336.079 7.604ZM342.619 7.656C341.942 7.93 340.592 7.947 339.619 7.693C338.646 7.439 339.2 7.215 340.85 7.195C342.5 7.175 343.296 7.382 342.619 7.656ZM352.112 7.687C351.156 7.937 349.356 7.946 348.112 7.707C346.868 7.468 347.65 7.263 349.85 7.252C352.05 7.241 353.068 7.437 352.112 7.687ZM374.35 8C374.35 8.55 374.8 9 375.35 9C375.9 9 376.35 8.55 376.35 8C376.35 7.45 375.9 7 375.35 7C374.8 7 374.35 7.45 374.35 8ZM183.163 8.683C183.884 8.972 184.747 8.936 185.079 8.604C185.411 8.272 184.821 8.036 183.767 8.079C182.602 8.127 182.365 8.364 183.163 8.683ZM229.112 8.707C230.356 8.946 232.156 8.937 233.112 8.687C234.068 8.437 233.05 8.241 230.85 8.252C228.65 8.263 227.868 8.468 229.112 8.707ZM188.163 10.683C188.884 10.972 189.747 10.936 190.079 10.604C190.411 10.272 189.821 10.036 188.767 10.079C187.602 10.127 187.365 10.364 188.163 10.683ZM192.163 10.683C192.884 10.972 193.747 10.936 194.079 10.604C194.411 10.272 193.821 10.036 192.767 10.079C191.602 10.127 191.365 10.364 192.163 10.683ZM196.1 10.662C196.788 10.94 197.913 10.94 198.6 10.662C199.288 10.385 198.725 10.158 197.35 10.158C195.975 10.158 195.413 10.385 196.1 10.662ZM202.619 10.693C203.592 10.947 204.942 10.93 205.619 10.656C206.296 10.382 205.5 10.175 203.85 10.195C202.2 10.215 201.646 10.439 202.619 10.693ZM214.619 10.693C215.592 10.947 216.942 10.93 217.619 10.656C218.296 10.382 217.5 10.175 215.85 10.195C214.2 10.215 213.646 10.439 214.619 10.693ZM398.859 11.015C399.194 11.557 398.429 12.014 397.159 12.032C394.926 12.063 394.913 12.111 396.768 13.515C398.301 14.675 398.986 14.719 400.182 13.733C401.482 12.661 401.521 12.794 400.479 14.75C399.064 17.404 399.958 17.665 402.521 15.345C403.527 14.435 404.35 14.162 404.35 14.738C404.35 15.314 403.675 16.045 402.85 16.362C399.931 17.482 401.404 18.548 405.35 18.171C407.834 17.935 409.35 18.209 409.35 18.895C409.35 19.503 407.914 20 406.159 20C403.251 20 403.13 20.119 404.795 21.336C405.912 22.153 408.274 22.507 410.872 22.248C413.21 22.015 415.403 22.276 415.745 22.829C416.126 23.447 415.04 23.73 412.932 23.563C411.044 23.413 408.902 23.661 408.174 24.113C407.262 24.68 404.748 22.853 400.1 18.245C396.388 14.565 393.35 11.302 393.35 10.995C393.35 9.988 398.236 10.006 398.859 11.015ZM403.85 11C404.19 11.55 403.991 12 403.409 12C402.827 12 402.35 11.55 402.35 11C402.35 10.45 402.548 10 402.791 10C403.034 10 403.51 10.45 403.85 11ZM51.2597 13.111C52.9027 14.453 53.9957 14.754 54.6927 14.057C56.0587 12.691 55.0137 11.796 51.6327 11.437L48.8497 11.142L51.2597 13.111ZM202.536 12.748C211.713 12.913 227.013 12.913 236.536 12.749C246.059 12.584 238.55 12.449 219.85 12.449C201.15 12.449 193.359 12.583 202.536 12.748ZM47.3587 15.489C46.1097 16.994 44.3497 16.673 44.3497 14.941C44.3497 14.423 45.3047 14 46.4717 14C48.2387 14 48.3877 14.25 47.3587 15.489ZM7.34966 16.044C7.34966 17.34 12.4477 37.196 12.9487 37.85C13.0957 38.043 13.6527 37.931 14.1857 37.601C14.7967 37.224 14.6877 35.43 13.8937 32.751C11.8517 25.87 11.0957 20.725 12.2307 21.426C12.7847 21.769 16.4137 22.079 20.2937 22.115C24.1747 22.152 27.3497 22.619 27.3497 23.154C27.3497 23.688 26.5617 24.046 25.5997 23.948C24.6377 23.85 23.3997 23.863 22.8497 23.978C22.2997 24.092 19.9367 24.11 17.5997 24.017C14.9497 23.912 13.3497 24.285 13.3497 25.007C13.3497 25.789 15.1017 26.04 18.7417 25.781C22.8717 25.487 24.0177 25.702 23.6347 26.699C23.3607 27.414 22.0037 28 20.6207 28C18.4607 28 18.2867 28.22 19.3917 29.551C20.4787 30.86 20.3427 31.189 18.5137 31.667C16.6197 32.163 15.3697 34 16.9277 34C17.7797 34 32.3497 20.777 32.3497 20.004C32.3497 19.642 27.2877 18.772 21.0997 18.071C14.9127 17.37 9.28766 16.337 8.59966 15.776C7.71866 15.056 7.34966 15.135 7.34966 16.044ZM440.995 17.766C440.689 18.261 435.936 19.239 430.432 19.941L420.425 21.216L426.137 26.358C429.279 29.186 433.085 32.782 434.593 34.349C437.72 37.595 437.377 38.083 440.362 26.134C442.25 18.576 442.495 15.339 440.995 17.766ZM17.2667 19.644C17.4957 19.84 16.0327 20 14.0167 20C11.9997 20 10.3497 19.561 10.3497 19.025C10.3497 18.164 16.1417 18.682 17.2667 19.644ZM439.35 21C439.35 21.55 438.338 21.968 437.1 21.93C434.953 21.863 434.942 21.82 436.85 21C437.95 20.527 438.963 20.109 439.1 20.07C439.237 20.032 439.35 20.45 439.35 21ZM48.1517 22.531C47.0697 23.614 43.3497 23.849 43.3497 22.836C43.3497 22.258 44.0107 22.04 44.8177 22.349C45.6247 22.659 46.5697 22.452 46.9177 21.89C47.2657 21.327 47.8047 21.122 48.1167 21.433C48.4277 21.745 48.4437 22.239 48.1517 22.531ZM434.079 21.604C433.747 21.936 432.884 21.972 432.163 21.683C431.365 21.364 431.602 21.127 432.767 21.079C433.821 21.036 434.411 21.272 434.079 21.604ZM37.8957 23.925C37.5797 24.437 38.2607 25.154 39.4107 25.519C42.2487 26.42 43.0017 25.419 40.4957 24.078C39.2777 23.426 38.2417 23.365 37.8957 23.925ZM437.954 25.589C437.686 26.287 437.167 28.461 436.799 30.42C436.431 32.379 435.75 33.747 435.284 33.459C434.818 33.171 434.691 32.275 435.001 31.468C435.383 30.472 434.906 30 433.516 30C432.39 30 431.19 29.55 430.85 29C430.489 28.417 431.506 28 433.291 28C434.973 28 436.35 27.55 436.35 27C436.35 26.45 434.298 26 431.791 26C428.959 26 427.47 25.615 427.86 24.984C428.819 23.432 438.558 24.016 437.954 25.589ZM27.3497 28.5C26.2977 29.767 26.5027 30 28.6687 30C31.6867 30 33.0227 28.472 30.7617 27.605C28.6787 26.805 28.7777 26.779 27.3497 28.5ZM15.1627 28.683C15.8837 28.972 16.7467 28.936 17.0787 28.604C17.4107 28.272 16.8207 28.036 15.7667 28.079C14.6017 28.127 14.3647 28.364 15.1627 28.683ZM415.88 30.951C414.637 32.963 416.323 33.699 422.145 33.685C425.37 33.677 428.535 33.996 429.179 34.394C429.823 34.792 430.35 34.664 430.35 34.109C430.35 32.297 427.098 31.224 423.194 31.748C420.972 32.046 418.774 31.767 417.949 31.082C416.979 30.277 416.322 30.235 415.88 30.951ZM20.9327 34.542C17.1897 37.847 17.5607 38.843 21.8497 37C23.2187 36.412 23.3767 36.106 22.3497 36.03C21.4717 35.966 21.9907 35.301 23.5997 34.428C25.1127 33.607 26.3497 32.5 26.3497 31.968C26.3497 30.312 24.9927 30.957 20.9327 34.542ZM31.3497 31.858C31.3497 33.759 34.7187 34.057 36.2777 32.294C37.1417 31.315 37.2187 31.053 36.4467 31.71C35.4747 32.538 34.4747 32.602 33.1967 31.918C32.1037 31.333 31.3497 31.309 31.3497 31.858ZM14.4207 40.415C13.6897 41.295 14.8217 41.585 18.8967 41.562C21.8957 41.545 24.3497 41.187 24.3497 40.766C24.3497 40.344 23.7877 39.971 23.0997 39.936C22.4127 39.901 20.3977 39.729 18.6237 39.554C16.8497 39.379 14.9587 39.767 14.4207 40.415ZM438.346 42.596C439.136 43.386 437.863 43.74 433.75 43.874C430.621 43.977 427.737 44.261 427.339 44.507C426.942 44.752 425.852 44.108 424.918 43.075C423.269 41.253 423.429 41.201 430.236 41.35C434.096 41.435 437.746 41.996 438.346 42.596ZM10.7767 44.479C9.71666 45.28 9.29966 45.944 9.84966 45.953C11.3357 45.977 13.8757 44.192 13.2477 43.565C12.9487 43.265 11.8367 43.677 10.7767 44.479ZM15.0537 44.204C14.3317 44.663 14.9737 44.975 16.6587 44.985C18.6377 44.995 19.2457 45.369 18.7167 46.25C18.1817 47.141 18.4387 47.117 19.6137 46.164C20.5207 45.429 21.7007 45.099 22.2367 45.43C22.7727 45.762 23.4647 45.622 23.7747 45.121C24.4797 43.98 16.6937 43.162 15.0537 44.204ZM68.4157 47.035C70.9437 48.389 70.8587 49.755 68.0997 52.056C65.3587 54.343 63.4777 54.498 62.7117 52.5C62.3947 51.675 61.5087 51 60.7427 51C58.9067 51 58.9837 50.062 61.0047 47.829C62.8607 45.778 65.5317 45.492 68.4157 47.035ZM391.699 48.178C392.526 49.5 392.229 50.289 390.3 51.895C387.362 54.339 385.764 54.522 384.988 52.5C384.672 51.675 383.724 51 382.881 51C380.899 51 380.945 50.104 383.049 47.78C385.111 45.502 390.169 45.734 391.699 48.178ZM6.34966 48.5C4.99866 50.128 5.32166 50.332 7.76766 49.393C8.63766 49.059 9.34966 48.384 9.34966 47.893C9.34966 46.51 7.72966 46.838 6.34966 48.5ZM437.152 48.128C437.536 48.474 440.027 48.985 442.687 49.265C446.205 49.635 447.224 49.474 446.424 48.674C445.819 48.069 443.328 47.557 440.889 47.537C438.449 47.517 436.767 47.783 437.152 48.128ZM12.1117 48.707C13.3557 48.946 15.1557 48.937 16.1117 48.687C17.0677 48.437 16.0497 48.241 13.8497 48.252C11.6497 48.263 10.8677 48.468 12.1117 48.707ZM18.3497 49.059C18.3497 49.641 18.7997 49.84 19.3497 49.5C19.8997 49.16 20.3497 48.684 20.3497 48.441C20.3497 48.198 19.8997 48 19.3497 48C18.7997 48 18.3497 48.477 18.3497 49.059ZM433.85 49C434.19 49.55 434.666 50 434.909 50C435.152 50 435.35 49.55 435.35 49C435.35 48.45 434.873 48 434.291 48C433.709 48 433.51 48.45 433.85 49ZM5.11766 52.168C5.69966 52.75 6.76466 53.028 7.48666 52.788C8.23566 52.538 7.78166 52.085 6.42966 51.731C4.76666 51.296 4.37566 51.426 5.11766 52.168ZM446.342 52.107C445.216 52.88 445.464 52.973 447.35 52.486C449.179 52.014 447.435 54.211 440.85 60.672C431.468 69.877 406.133 93.689 398.35 100.616L393.85 104.621L225.756 104.55L57.6607 104.479L35.7557 83.9C2.92566 53.058 1.49166 51.785 0.118657 52.256C-0.621343 52.51 2.15966 55.822 6.79166 60.205L14.7347 67.718L12.4697 76.953C9.85866 87.6 10.0337 89.938 12.7357 80.503C14.6537 73.804 14.6667 73.797 19.3207 76.804C19.5797 76.972 19.1297 77.527 18.3207 78.039C17.2067 78.743 17.5257 78.973 19.6307 78.985C21.1997 78.993 22.6697 79.67 23.0027 80.537C23.3267 81.382 24.9997 82.823 26.7207 83.738L29.8497 85.402L25.3497 86.068C22.8747 86.435 18.2617 87.052 15.0997 87.439C11.5957 87.869 9.34966 88.625 9.34966 89.375C9.34966 90.341 11.7667 90.312 20.5997 89.239C28.6477 88.262 32.3437 88.176 33.5857 88.936C34.5407 89.521 35.9957 90 36.8187 90C37.6407 90 42.5407 93.825 47.7077 98.5L57.1007 107H226.258H395.415L403.132 99.515C413.826 89.144 417.601 87.764 431.164 89.269C436.733 89.887 441.604 90.08 441.987 89.696C443.308 88.375 442.298 88.126 428.6 86.39C425.713 86.024 423.35 85.337 423.35 84.862C423.35 84.388 423.777 84 424.298 84C424.82 84 426.461 82.875 427.945 81.5C429.428 80.125 431.462 79 432.465 79C433.596 79 434.088 78.481 433.762 77.631C433.451 76.821 434.071 76.045 435.282 75.728C436.967 75.287 437.534 75.882 438.499 79.103C440.296 85.102 440.574 83.06 438.923 75.983C437.974 71.913 437.778 69.07 438.37 67.963C438.875 67.02 442.452 63.193 446.32 59.459C450.188 55.724 453.24 52.582 453.101 52.475C451.873 51.528 447.531 51.291 446.342 52.107ZM439.163 52.683C439.884 52.972 440.747 52.936 441.079 52.604C441.411 52.272 440.821 52.036 439.767 52.079C438.602 52.127 438.365 52.364 439.163 52.683ZM442.35 53.059C442.35 53.641 442.8 53.84 443.35 53.5C443.9 53.16 444.35 52.684 444.35 52.441C444.35 52.198 443.9 52 443.35 52C442.8 52 442.35 52.477 442.35 53.059ZM439.619 56.693C440.592 56.947 441.942 56.93 442.619 56.656C443.296 56.382 442.5 56.175 440.85 56.195C439.2 56.215 438.646 56.439 439.619 56.693ZM440.429 85.583C440.477 86.748 440.714 86.985 441.033 86.188C441.322 85.466 441.286 84.603 440.954 84.271C440.622 83.939 440.386 84.529 440.429 85.583Z" fill="#505050"/>
<path d="M115.7 67.45C115.4 67.2167 115.083 67.0833 114.75 67.05C114.45 66.9833 114.15 66.95 113.85 66.95C113.683 66.95 113.5 66.95 113.3 66.95C113.133 66.9167 112.967 66.8833 112.8 66.85C112.7 66.8167 112.6 66.6667 112.5 66.4C112.433 66.1333 112.367 65.85 112.3 65.55C112.233 65.2167 112.183 64.9167 112.15 64.65C112.117 64.35 112.1 64.1333 112.1 64V43.75C112.1 42.9833 112.333 42.5 112.8 42.3C113.3 42.1 113.867 41.95 114.5 41.85C114.833 41.7833 114.983 41.6333 114.95 41.4C114.95 41.1667 114.783 41.0333 114.45 41C112.85 40.9 111.233 40.8333 109.6 40.8C107.967 40.7667 106.333 40.75 104.7 40.75C104.267 40.75 104.083 40.9167 104.15 41.25C104.217 41.6167 104.383 41.8167 104.65 41.85C104.95 41.8833 105.3 41.9333 105.7 42C105.9 42 106.1 42.0167 106.3 42.05C106.533 42.0833 106.733 42.1667 106.9 42.3C107.1 42.4333 107.25 42.6167 107.35 42.85C107.483 43.0833 107.55 43.4 107.55 43.8V52.05H91.15V43.75C91.15 43.1167 91.4 42.6667 91.9 42.4C92.4 42.1 92.9333 41.9333 93.5 41.9C93.8333 41.9 94 41.7667 94 41.5C94.0333 41.2333 93.8833 41.0833 93.55 41.05C91.95 40.9167 90.3333 40.85 88.7 40.85C87.0667 40.8167 85.45 40.8 83.85 40.8C83.5833 40.8 83.4 40.8667 83.3 41C83.2 41.1333 83.2167 41.2833 83.35 41.45C83.5167 41.7167 83.7333 41.8833 84 41.95C84.3 42.0167 84.6167 42.0667 84.95 42.1C85.3167 42.1333 85.6833 42.2333 86.05 42.4C86.4167 42.5667 86.6 43.0333 86.6 43.8V64.1C86.6 64.7333 86.5667 65.2333 86.5 65.6C86.4667 65.9667 86.3667 66.2667 86.2 66.5C86.0333 66.7 85.7833 66.85 85.45 66.95C85.15 67.0167 84.7333 67.1 84.2 67.2C83.8667 67.2667 83.7167 67.4333 83.75 67.7C83.7833 67.9667 83.9667 68.1 84.3 68.1C85.1667 68.1333 86.0167 68.1667 86.85 68.2C87.6833 68.2 88.5333 68.2 89.4 68.2C90.2333 68.2 91.05 68.2 91.85 68.2C92.6833 68.1667 93.5333 68.1333 94.4 68.1L94.35 67.2C93.0833 67.2667 92.2333 67.0667 91.8 66.6C91.3667 66.1333 91.15 65.2667 91.15 64V54.15H107.55V64.1C107.55 64.3667 107.517 64.6833 107.45 65.05C107.417 65.3833 107.333 65.7167 107.2 66.05C107.1 66.3833 106.95 66.6667 106.75 66.9C106.583 67.1 106.367 67.2 106.1 67.2C106 67.2 105.817 67.1333 105.55 67L105 67.8C105.467 68.0333 106.133 68.1667 107 68.2C107.867 68.2333 108.583 68.25 109.15 68.25H111.65C112.25 68.25 112.85 68.25 113.45 68.25C114.083 68.2167 114.717 68.2167 115.35 68.25L115.7 67.45ZM149.405 67.95V67.05C148.672 66.9833 147.955 66.8333 147.255 66.6C146.555 66.3667 146.005 65.8667 145.605 65.1C144.338 62.8 143.172 60.4333 142.105 58C141.072 55.5333 140.038 53.1 139.005 50.7L136.805 45.55V45.6C136.738 45.5 136.672 45.3667 136.605 45.2C136.538 45 136.455 44.7833 136.355 44.55V44.6C136.188 44.2333 136.005 43.8167 135.805 43.35C135.605 42.8833 135.388 42.45 135.155 42.05C134.922 41.6167 134.688 41.2333 134.455 40.9C134.222 40.5667 133.988 40.35 133.755 40.25C133.388 40.15 133.138 40.2167 133.005 40.45C132.005 42.7833 131.005 45.1167 130.005 47.45C129.038 49.7833 128.072 52.1333 127.105 54.5C126.438 56.1 125.738 57.75 125.005 59.45C124.305 61.1167 123.622 62.75 122.955 64.35C122.788 64.65 122.555 64.9833 122.255 65.35C121.988 65.7167 121.688 66.05 121.355 66.35C121.022 66.6167 120.672 66.8167 120.305 66.95C119.938 67.0833 119.588 67.1 119.255 67L119.055 67.9L127.855 68.05C128.188 68.05 128.355 67.9167 128.355 67.65C128.388 67.35 128.238 67.1833 127.905 67.15C127.572 67.0833 127.188 67 126.755 66.9C126.322 66.7667 126.105 66.5167 126.105 66.15C126.105 65.85 126.205 65.35 126.405 64.65C126.638 63.9167 126.922 63.1333 127.255 62.3C127.588 61.4667 127.922 60.6333 128.255 59.8C128.588 58.9667 128.888 58.2833 129.155 57.75H137.205C137.905 59.3167 138.572 60.8167 139.205 62.25C139.838 63.6833 140.488 65.1833 141.155 66.75L140.705 67.3C140.505 67.4667 140.438 67.6333 140.505 67.8C140.605 67.9667 140.788 68.05 141.055 68.05C141.655 68.0833 142.238 68.1167 142.805 68.15C143.372 68.15 143.955 68.15 144.555 68.15C145.388 68.15 146.205 68.1333 147.005 68.1C147.805 68.0667 148.605 68.0167 149.405 67.95ZM136.305 55.6H129.955C130.588 54.1 131.122 52.7 131.555 51.4C132.022 50.0667 132.538 48.6667 133.105 47.2L136.305 55.6ZM174.089 60.15C174.089 59.15 173.906 58.25 173.539 57.45C173.206 56.65 172.739 55.9333 172.139 55.3C171.539 54.6667 170.839 54.1333 170.039 53.7C169.273 53.2667 168.456 52.9167 167.589 52.65C168.456 51.8833 169.256 50.9833 169.989 49.95C170.756 48.9167 171.139 47.8167 171.139 46.65C171.139 45.5167 170.806 44.55 170.139 43.75C169.506 42.95 168.706 42.3 167.739 41.8C166.773 41.3 165.739 40.95 164.639 40.75C163.539 40.5167 162.539 40.4 161.639 40.4C161.006 40.4 160.373 40.4333 159.739 40.5C159.106 40.5333 158.489 40.5833 157.889 40.65C157.256 40.7167 156.656 40.7667 156.089 40.8C155.523 40.8333 154.939 40.85 154.339 40.85C154.139 40.85 153.923 40.85 153.689 40.85C153.489 40.8167 153.273 40.7833 153.039 40.75C152.739 40.7167 152.556 40.85 152.489 41.15C152.456 41.4167 152.589 41.5667 152.889 41.6C153.123 41.6333 153.406 41.7 153.739 41.8C154.073 41.9 154.373 42.05 154.639 42.25C154.906 42.4167 155.139 42.6167 155.339 42.85C155.539 43.0833 155.639 43.35 155.639 43.65V63.95C155.639 64.55 155.606 65.0333 155.539 65.4C155.473 65.7667 155.356 66.0667 155.189 66.3C155.023 66.5 154.773 66.6667 154.439 66.8C154.106 66.9 153.689 67.0167 153.189 67.15C152.889 67.2167 152.756 67.3833 152.789 67.65C152.823 67.9167 153.006 68.05 153.339 68.05C154.239 68.05 155.206 68.0667 156.239 68.1C157.306 68.1 158.273 68.1167 159.139 68.15C160.106 68.1833 161.056 68.2 161.989 68.2C162.956 68.2 163.923 68.2 164.889 68.2V68.15H164.989C165.256 68.15 165.489 68.15 165.689 68.15C165.923 68.15 166.123 68.1167 166.289 68.05H166.239C167.239 67.8833 168.206 67.5833 169.139 67.15C170.073 66.6833 170.906 66.1167 171.639 65.45C172.373 64.7833 172.956 64 173.389 63.1C173.856 62.2 174.089 61.2167 174.089 60.15ZM166.739 47.15C166.739 48.75 166.289 49.9833 165.389 50.85C164.523 51.6833 163.339 52.0667 161.839 52L160.289 51.95V42.6C160.956 42.4333 161.573 42.35 162.139 42.35C163.473 42.35 164.573 42.8 165.439 43.7C166.306 44.6 166.739 45.75 166.739 47.15ZM169.739 61C169.739 61.8 169.589 62.5333 169.289 63.2C169.023 63.8667 168.639 64.45 168.139 64.95C167.639 65.4167 167.056 65.7833 166.389 66.05C165.723 66.3167 165.006 66.45 164.239 66.45C163.906 66.45 163.506 66.4 163.039 66.3C162.606 66.1667 162.173 66 161.739 65.8C161.339 65.5667 160.989 65.2833 160.689 64.95C160.423 64.6167 160.289 64.2333 160.289 63.8V54.05L161.189 54C162.223 53.9333 163.239 54.0333 164.239 54.3C165.273 54.5667 166.189 55 166.989 55.6C167.823 56.2 168.489 56.95 168.989 57.85C169.489 58.75 169.739 59.8 169.739 61ZM187.262 67.5C186.995 67.2667 186.712 67.1333 186.412 67.1C186.145 67.0333 185.828 67 185.462 67C185.295 67 185.112 66.9833 184.912 66.95C184.712 66.9167 184.562 66.8833 184.462 66.85C184.395 66.75 184.312 66.5667 184.212 66.3C184.112 66.0333 184.028 65.75 183.962 65.45C183.895 65.15 183.828 64.8667 183.762 64.6C183.728 64.3333 183.712 64.1333 183.712 64V43.8C183.712 43 183.945 42.5 184.412 42.3C184.878 42.1 185.445 41.95 186.112 41.85C186.412 41.7833 186.545 41.6333 186.512 41.4C186.512 41.1667 186.362 41.0333 186.062 41C185.295 40.9333 184.545 40.9333 183.812 41C183.078 41.0667 182.328 41.1 181.562 41.1C180.795 41.1 180.012 41.0667 179.212 41C178.412 40.9333 177.612 40.9333 176.812 41C176.478 41.0333 176.295 41.1833 176.262 41.45C176.262 41.6833 176.428 41.8167 176.762 41.85C177.362 41.9167 177.928 42.1 178.462 42.4C179.028 42.6667 179.312 43.1333 179.312 43.8V64.15C179.312 64.4167 179.278 64.7167 179.212 65.05C179.178 65.3833 179.112 65.7167 179.012 66.05C178.912 66.3833 178.762 66.6667 178.562 66.9C178.395 67.1 178.178 67.2 177.912 67.2C177.845 67.2 177.745 67.2333 177.612 67.3C177.512 67.3333 177.378 67.3167 177.212 67.25C176.912 67.1833 176.695 67.3167 176.562 67.65C176.428 67.95 176.512 68.15 176.812 68.25C177.045 68.35 177.362 68.4167 177.762 68.45C178.195 68.45 178.628 68.4333 179.062 68.4C179.528 68.3667 179.962 68.3333 180.362 68.3C180.762 68.2667 181.095 68.25 181.362 68.25L183.262 68.3C183.895 68.3333 184.495 68.3333 185.062 68.3C185.662 68.2667 186.262 68.2667 186.862 68.3L187.262 67.5ZM209.939 62.95C209.939 62.7167 209.789 62.5833 209.489 62.55C209.189 62.4833 208.956 62.55 208.789 62.75C208.156 63.9167 207.256 64.8167 206.089 65.45C204.956 66.0833 203.773 66.4 202.539 66.4C201.939 66.4 201.339 66.3167 200.739 66.15C200.173 65.9833 199.656 65.7333 199.189 65.4C198.756 65.0667 198.389 64.65 198.089 64.15C197.823 63.65 197.689 63.0667 197.689 62.4V43.75C197.689 43.15 197.889 42.7 198.289 42.4C198.723 42.0667 199.223 41.9333 199.789 42H200.389C200.689 42 200.856 41.8833 200.889 41.65C200.923 41.3833 200.806 41.2167 200.539 41.15C199.839 40.95 199.106 40.8333 198.339 40.8C197.606 40.7667 196.873 40.75 196.139 40.75C195.639 40.75 195.139 40.7667 194.639 40.8C194.173 40.8 193.689 40.8 193.189 40.8H190.389C190.156 40.8 189.973 40.8667 189.839 41C189.739 41.1333 189.739 41.2833 189.839 41.45C189.939 41.65 190.156 41.8 190.489 41.9C190.856 41.9667 191.189 42.0167 191.489 42.05C191.856 42.0833 192.206 42.2 192.539 42.4C192.906 42.5667 193.089 43.0333 193.089 43.8V64.1C193.089 64.9667 192.939 65.6833 192.639 66.25C192.339 66.8167 191.739 67.1167 190.839 67.15C190.506 67.15 190.323 67.3 190.289 67.6C190.289 67.8667 190.456 68.0167 190.789 68.05C192.423 68.15 194.106 68.2 195.839 68.2C196.506 68.2 197.189 68.2 197.889 68.2C198.589 68.1667 199.273 68.15 199.939 68.15C200.739 68.1167 201.523 68.1 202.289 68.1C203.089 68.1 203.889 68.1 204.689 68.1C205.456 68.1 206.223 68.1167 206.989 68.15C207.789 68.15 208.573 68.1833 209.339 68.25L209.489 67.35C209.389 67.3167 209.323 67.3167 209.289 67.35C209.256 67.35 209.189 67.3333 209.089 67.3C209.423 66.7 209.623 66.0833 209.689 65.45C209.756 64.7833 209.823 64.1167 209.889 63.45C209.889 63.35 209.889 63.2667 209.889 63.2C209.923 63.1 209.939 63.0167 209.939 62.95ZM223.102 67.5C222.835 67.2667 222.552 67.1333 222.252 67.1C221.985 67.0333 221.668 67 221.302 67C221.135 67 220.952 66.9833 220.752 66.95C220.552 66.9167 220.402 66.8833 220.302 66.85C220.235 66.75 220.152 66.5667 220.052 66.3C219.952 66.0333 219.868 65.75 219.802 65.45C219.735 65.15 219.668 64.8667 219.602 64.6C219.568 64.3333 219.552 64.1333 219.552 64V43.8C219.552 43 219.785 42.5 220.252 42.3C220.718 42.1 221.285 41.95 221.952 41.85C222.252 41.7833 222.385 41.6333 222.352 41.4C222.352 41.1667 222.202 41.0333 221.902 41C221.135 40.9333 220.385 40.9333 219.652 41C218.918 41.0667 218.168 41.1 217.402 41.1C216.635 41.1 215.852 41.0667 215.052 41C214.252 40.9333 213.452 40.9333 212.652 41C212.318 41.0333 212.135 41.1833 212.102 41.45C212.102 41.6833 212.268 41.8167 212.602 41.85C213.202 41.9167 213.768 42.1 214.302 42.4C214.868 42.6667 215.152 43.1333 215.152 43.8V64.15C215.152 64.4167 215.118 64.7167 215.052 65.05C215.018 65.3833 214.952 65.7167 214.852 66.05C214.752 66.3833 214.602 66.6667 214.402 66.9C214.235 67.1 214.018 67.2 213.752 67.2C213.685 67.2 213.585 67.2333 213.452 67.3C213.352 67.3333 213.218 67.3167 213.052 67.25C212.752 67.1833 212.535 67.3167 212.402 67.65C212.268 67.95 212.352 68.15 212.652 68.25C212.885 68.35 213.202 68.4167 213.602 68.45C214.035 68.45 214.468 68.4333 214.902 68.4C215.368 68.3667 215.802 68.3333 216.202 68.3C216.602 68.2667 216.935 68.25 217.202 68.25L219.102 68.3C219.735 68.3333 220.335 68.3333 220.902 68.3C221.502 68.2667 222.102 68.2667 222.702 68.3L223.102 67.5ZM257.179 54.2C257.179 53.7333 257.179 53.2667 257.179 52.8C257.179 52.3 257.146 51.8167 257.079 51.35C256.913 49.8833 256.263 48.5 255.129 47.2C254.029 45.9 252.713 44.7833 251.179 43.85C249.646 42.8833 248.029 42.1333 246.329 41.6C244.629 41.0333 243.113 40.75 241.779 40.75C241.079 40.75 240.313 40.7667 239.479 40.8C238.679 40.8333 237.929 40.8667 237.229 40.9C235.763 41 234.313 41.05 232.879 41.05C232.313 41.05 231.696 41.0333 231.029 41C230.363 40.9667 229.729 40.9333 229.129 40.9C228.663 40.8667 228.196 40.85 227.729 40.85C227.296 40.8167 226.846 40.8 226.379 40.8C226.146 40.8 225.979 40.8667 225.879 41C225.779 41.1 225.763 41.2333 225.829 41.4C225.929 41.6 226.113 41.75 226.379 41.85C226.679 41.9167 226.979 41.9833 227.279 42.05C227.679 42.1167 228.079 42.2333 228.479 42.4C228.879 42.5667 229.079 42.9833 229.079 43.65V63.95C229.079 65.0833 228.929 65.8667 228.629 66.3C228.363 66.7333 227.729 67.0333 226.729 67.2C226.396 67.2667 226.246 67.4333 226.279 67.7C226.313 67.9667 226.496 68.1 226.829 68.1C227.863 68.0667 228.963 68.0833 230.129 68.15C231.296 68.2167 232.413 68.2833 233.479 68.35C234.446 68.4167 235.413 68.4833 236.379 68.55C237.379 68.5833 238.363 68.6 239.329 68.6C241.696 68.6 243.963 68.35 246.129 67.85C248.296 67.35 250.196 66.5333 251.829 65.4C253.463 64.2667 254.763 62.7833 255.729 60.95C256.696 59.1167 257.179 56.8667 257.179 54.2ZM252.629 55.6C252.629 57.6 252.263 59.3 251.529 60.7C250.796 62.0667 249.813 63.2 248.579 64.1C247.346 64.9667 245.913 65.6 244.279 66C242.646 66.4 240.946 66.6 239.179 66.6C238.346 66.6 237.596 66.5667 236.929 66.5C236.263 66.4333 235.679 66.2667 235.179 66C234.713 65.7333 234.346 65.3333 234.079 64.8C233.846 64.2667 233.729 63.5333 233.729 62.6V43.3C234.396 43.1 235.063 42.9667 235.729 42.9C236.396 42.8333 237.063 42.8 237.729 42.8C239.696 42.8 241.579 43.0667 243.379 43.6C245.179 44.1333 246.763 44.9333 248.129 46C249.496 47.0333 250.579 48.3667 251.379 50C252.213 51.6 252.629 53.4667 252.629 55.6ZM286.612 67.95V67.05C285.879 66.9833 285.162 66.8333 284.462 66.6C283.762 66.3667 283.212 65.8667 282.812 65.1C281.545 62.8 280.379 60.4333 279.312 58C278.279 55.5333 277.245 53.1 276.212 50.7L274.012 45.55V45.6C273.945 45.5 273.879 45.3667 273.812 45.2C273.745 45 273.662 44.7833 273.562 44.55V44.6C273.395 44.2333 273.212 43.8167 273.012 43.35C272.812 42.8833 272.595 42.45 272.362 42.05C272.129 41.6167 271.895 41.2333 271.662 40.9C271.429 40.5667 271.195 40.35 270.962 40.25C270.595 40.15 270.345 40.2167 270.212 40.45C269.212 42.7833 268.212 45.1167 267.212 47.45C266.245 49.7833 265.279 52.1333 264.312 54.5C263.645 56.1 262.945 57.75 262.212 59.45C261.512 61.1167 260.829 62.75 260.162 64.35C259.995 64.65 259.762 64.9833 259.462 65.35C259.195 65.7167 258.895 66.05 258.562 66.35C258.229 66.6167 257.879 66.8167 257.512 66.95C257.145 67.0833 256.795 67.1 256.462 67L256.262 67.9L265.062 68.05C265.395 68.05 265.562 67.9167 265.562 67.65C265.595 67.35 265.445 67.1833 265.112 67.15C264.779 67.0833 264.395 67 263.962 66.9C263.529 66.7667 263.312 66.5167 263.312 66.15C263.312 65.85 263.412 65.35 263.612 64.65C263.845 63.9167 264.129 63.1333 264.462 62.3C264.795 61.4667 265.129 60.6333 265.462 59.8C265.795 58.9667 266.095 58.2833 266.362 57.75H274.412C275.112 59.3167 275.779 60.8167 276.412 62.25C277.045 63.6833 277.695 65.1833 278.362 66.75L277.912 67.3C277.712 67.4667 277.645 67.6333 277.712 67.8C277.812 67.9667 277.995 68.05 278.262 68.05C278.862 68.0833 279.445 68.1167 280.012 68.15C280.579 68.15 281.162 68.15 281.762 68.15C282.595 68.15 283.412 68.1333 284.212 68.1C285.012 68.0667 285.812 68.0167 286.612 67.95ZM273.512 55.6H267.162C267.795 54.1 268.329 52.7 268.762 51.4C269.229 50.0667 269.745 48.6667 270.312 47.2L273.512 55.6ZM321.046 54.2C321.046 53.7333 321.046 53.2667 321.046 52.8C321.046 52.3 321.013 51.8167 320.946 51.35C320.78 49.8833 320.13 48.5 318.996 47.2C317.896 45.9 316.58 44.7833 315.046 43.85C313.513 42.8833 311.896 42.1333 310.196 41.6C308.496 41.0333 306.98 40.75 305.646 40.75C304.946 40.75 304.18 40.7667 303.346 40.8C302.546 40.8333 301.796 40.8667 301.096 40.9C299.63 41 298.18 41.05 296.746 41.05C296.18 41.05 295.563 41.0333 294.896 41C294.23 40.9667 293.596 40.9333 292.996 40.9C292.53 40.8667 292.063 40.85 291.596 40.85C291.163 40.8167 290.713 40.8 290.246 40.8C290.013 40.8 289.846 40.8667 289.746 41C289.646 41.1 289.63 41.2333 289.696 41.4C289.796 41.6 289.98 41.75 290.246 41.85C290.546 41.9167 290.846 41.9833 291.146 42.05C291.546 42.1167 291.946 42.2333 292.346 42.4C292.746 42.5667 292.946 42.9833 292.946 43.65V63.95C292.946 65.0833 292.796 65.8667 292.496 66.3C292.23 66.7333 291.596 67.0333 290.596 67.2C290.263 67.2667 290.113 67.4333 290.146 67.7C290.18 67.9667 290.363 68.1 290.696 68.1C291.73 68.0667 292.83 68.0833 293.996 68.15C295.163 68.2167 296.28 68.2833 297.346 68.35C298.313 68.4167 299.28 68.4833 300.246 68.55C301.246 68.5833 302.23 68.6 303.196 68.6C305.563 68.6 307.83 68.35 309.996 67.85C312.163 67.35 314.063 66.5333 315.696 65.4C317.33 64.2667 318.63 62.7833 319.596 60.95C320.563 59.1167 321.046 56.8667 321.046 54.2ZM316.496 55.6C316.496 57.6 316.13 59.3 315.396 60.7C314.663 62.0667 313.68 63.2 312.446 64.1C311.213 64.9667 309.78 65.6 308.146 66C306.513 66.4 304.813 66.6 303.046 66.6C302.213 66.6 301.463 66.5667 300.796 66.5C300.13 66.4333 299.546 66.2667 299.046 66C298.58 65.7333 298.213 65.3333 297.946 64.8C297.713 64.2667 297.596 63.5333 297.596 62.6V43.3C298.263 43.1 298.93 42.9667 299.596 42.9C300.263 42.8333 300.93 42.8 301.596 42.8C303.563 42.8 305.446 43.0667 307.246 43.6C309.046 44.1333 310.63 44.9333 311.996 46C313.363 47.0333 314.446 48.3667 315.246 50C316.08 51.6 316.496 53.4667 316.496 55.6Z" fill="#FEF8F8"/>
<path d="M379.991 20C372.818 20.544 366.336 21.2511 361.232 27.7594C362.562 32.3308 364.76 37.9472 367.516 42.4857C370.281 47.0374 373.551 50.3085 376.767 50.7271C381.521 45.6154 384.007 33.3157 379.991 20V20ZM342.504 21.5729C341.747 21.6033 341.021 21.7929 340.349 22.1355C339.468 22.5843 338.697 23.2881 338.078 24.2065C337.46 25.125 337.007 26.2402 336.745 27.4883C336.482 28.7365 336.417 30.0933 336.551 31.4812C336.685 32.8691 337.017 34.261 337.527 35.5773C338.23 37.3895 339.248 39 340.474 40.2374C341.699 41.4748 343.086 42.2928 344.487 42.6043C344.809 51.4967 341.867 49.39 334.977 53.9861L337.119 58.8864C341.914 56.7632 344.109 55.8397 346.458 52.0336C350.852 66.5567 346.206 76.3474 343.265 90.2398L347.81 91C351.005 82.1478 355.241 72.08 356.228 62.9463C362.826 70.8533 366.677 80.6735 371.686 89.1013L376.515 86.8204C370.339 74.3379 367.666 66.9702 356.212 46.2774C359.828 46.2474 362.93 45.2581 365.742 43.8927C364.793 42.3301 363.913 40.6637 363.109 38.9621C359.303 40.8305 355.15 41.5904 350.955 39.0943C351.628 37.6972 351.98 36.006 351.978 34.1894C351.975 32.3727 351.617 30.4941 350.939 28.7409C350.11 26.5998 348.843 24.7488 347.325 23.459C345.808 22.1691 344.118 21.5081 342.504 21.5729V21.5729ZM319 27.9575L319.443 33.2289L326.535 49.8937L329.443 48.266L322.38 31.6701L319 27.9574V27.9575ZM332.087 49.5389L325.783 53.0679L326.206 55.928L333.793 51.6812L332.087 49.5389ZM332.4 55.2141L329.492 56.8421L331.739 62.1227L334.647 60.4949L332.4 55.2142V55.2141Z" fill="#FBF2F2"/>
</svg>
