<svg width="453" height="107" viewBox="0 0 453 107" fill="none" xmlns="http://www.w3.org/2000/svg">
<path fill-rule="evenodd" clip-rule="evenodd" d="M56.8365 1C56.4965 1.55 56.7215 2 57.3363 2C57.9512 2 58.1881 2.43 57.8632 2.956C57.5383 3.482 56.7245 3.705 56.0546 3.45C55.3848 3.196 53.1323 4.509 51.0488 6.367C47.6026 9.441 47.4446 9.794 49.2992 10.28C50.4199 10.573 51.3377 10.405 51.3377 9.906C51.3377 8.339 53.1823 8.917 55.2458 11.132C57.2294 13.262 57.2294 13.266 55.0349 15.06C52.8874 16.815 52.7754 16.788 50.095 13.874C46.8368 10.331 46.9178 10.298 37.455 19.165C30.3106 25.861 28.741 27.928 32.2112 26.07C33.2379 25.52 34.4247 25.392 34.8466 25.785C35.2695 26.178 35.4024 25.825 35.1415 25C34.8366 24.034 35.7594 23.038 37.7349 22.201C39.9784 21.251 40.4423 20.681 39.4645 20.076C38.3807 19.407 38.3717 19.099 39.4155 18.453C40.9891 17.481 52.3375 17.162 52.3375 18.091C52.3375 19.453 49.1812 21.366 48.5124 20.408C47.7786 19.359 42.7947 19.212 41.796 20.21C40.8622 21.145 43.2976 25.144 44.3894 24.469C46.2619 23.312 45.2931 25.694 43.0257 27.826C40.7032 30.007 38.7407 30.78 39.7754 29.105C40.0803 28.612 39.7004 27.968 38.9316 27.673C37.267 27.034 33.3419 27.931 33.3419 28.95C33.3419 30.479 34.7206 30.93 36.0413 29.834C37.084 28.968 37.7099 28.969 38.5767 29.836C39.4445 30.704 39.0416 31.702 36.9401 33.897C34.6586 36.279 33.6718 36.669 31.4983 36.048C28.3311 35.144 23.9291 36.243 26.6045 37.27C27.4933 37.611 29.4458 37.668 30.9445 37.396C33.3289 36.963 33.5059 37.097 32.3641 38.473C31.6343 39.354 30.2796 39.797 29.2859 39.482C28.3101 39.172 27.1753 39.463 26.7634 40.129C26.2486 40.962 26.5345 41.141 27.6792 40.701C30.4866 39.624 29.5498 41.381 24.8649 45.979C22.4015 48.397 20.5629 50.551 20.7778 50.766C20.9928 50.981 30.1077 42.125 41.0341 31.086L60.8995 11.015L123.853 10.75L186.806 10.485L123.271 10.242C82.0196 10.085 59.3149 10.351 58.5361 11C57.6843 11.71 57.6083 11.67 58.2751 10.861C58.899 10.104 58.5101 9.151 57.1134 8.02C55.6607 6.844 55.3708 6.097 56.1746 5.6C56.8135 5.205 57.3363 5.319 57.3363 5.853C57.3363 6.386 59.5828 6.708 62.3282 6.568C66.4102 6.36 67.1161 6.558 66.2043 7.657C65.2735 8.778 74.4924 9 122.115 9C158.466 9 179.262 8.645 179.475 8.02C179.99 6.504 191.56 6.264 192.058 7.759C192.597 9.375 196.966 9.368 197.721 7.75C198.187 6.75 198.421 6.75 198.886 7.75C199.207 8.438 200.643 9 202.077 9C204.6 9 204.622 8.95 202.744 7.448C200.88 5.958 200.902 5.924 203.302 6.583C204.677 6.961 206.027 7.546 206.302 7.885C207.13 8.903 212.392 8.958 211.764 7.941C211.443 7.42 212.771 7 214.741 7C216.697 7 218.299 7.45 218.299 8C218.299 8.55 220.211 8.936 222.548 8.858L226.797 8.716L222.798 8.006C219.137 7.356 232.275 7.436 251.291 8.178C255.415 8.34 259.914 8.111 261.289 7.67C263.16 7.071 263.411 7.133 262.289 7.919C261.234 8.658 276.367 8.924 313.277 8.817C342.145 8.733 363.065 8.365 359.766 8L353.767 7.336L360.516 7.168C364.46 7.07 367.264 7.415 367.264 8C367.264 9.466 369.188 9.219 370.87 7.537C372.868 5.537 381.818 5.624 380.155 7.627C379.228 8.746 379.733 9.045 382.889 9.241C385.017 9.374 349.194 9.716 303.279 10L219.799 10.517L305.288 10.759L390.777 11L411.254 31.5C427.986 48.251 431.288 52 429.303 52C427.476 52 422.214 47.29 408.074 33L389.273 14H226.044H62.8151L43.8295 33.036C28.68 48.225 24.339 52.043 22.3445 51.93C20.9698 51.852 19.3992 51.836 18.8543 51.894C18.3094 51.952 27.5283 61.675 39.3405 73.5L60.8185 95H225.974H391.13L412.125 73.775C427.421 58.312 432.848 52.221 432.115 51.339C431.437 50.522 431.476 49.375 432.235 47.814C433.241 45.744 433.211 45.684 431.951 47.241C430.622 48.884 430.438 48.866 428.681 46.924L426.819 44.866L435.078 45.282L443.337 45.699L439.773 42.76C436.711 40.236 435.295 39.799 429.729 39.661C426.166 39.572 423.126 39.872 422.975 40.327C422.824 40.781 421.878 40.244 420.871 39.132C419.047 37.116 419.063 37.112 426.862 37.668C433.542 38.144 434.509 38.018 433.502 36.805C432.404 35.482 425.097 35.255 420.091 36.39C419.14 36.605 416.847 35.144 414.725 32.971L411.019 29.175L418.885 29.696C425.043 30.103 426.499 29.952 425.592 28.999C424.472 27.823 413.055 27.387 411.328 28.454C410.884 28.728 409.751 28.102 408.81 27.061C406.959 25.016 407.15 25.005 419.14 26.497L422.527 26.919L416.641 21.357C413.403 18.298 407 12.241 402.412 7.898L394.07 0H225.762C114.635 0 57.2444 0.34 56.8365 1ZM65.8344 3C66.1863 3.569 65.3255 4 63.8348 4C62.3442 4 61.4834 3.569 61.8353 3C62.1752 2.45 63.075 2 63.8348 2C64.5947 2 65.4944 2.45 65.8344 3ZM226.297 3C226.297 3.55 225.82 4 225.238 4C224.656 4 224.458 3.55 224.797 3C225.137 2.45 225.613 2 225.856 2C226.099 2 226.297 2.45 226.297 3ZM378.262 3C378.262 3.55 377.56 4 376.703 4C375.846 4 375.422 3.55 375.762 3C376.102 2.45 376.803 2 377.321 2C377.839 2 378.262 2.45 378.262 3ZM385.26 3C386.425 3.753 386.132 3.973 383.951 3.985C382.331 3.994 381.404 3.577 381.761 3C382.528 1.758 383.34 1.758 385.26 3ZM389.094 7.123C388.36 7.589 386.635 7.962 385.26 7.953C382.938 7.938 382.888 7.84 384.556 6.574C385.545 5.825 387.27 5.451 388.39 5.745C389.946 6.151 390.112 6.478 389.094 7.123ZM54.337 7C54.337 7.55 53.8871 8 53.3373 8C52.7874 8 52.3375 7.55 52.3375 7C52.3375 6.45 52.7874 6 53.3373 6C53.8871 6 54.337 6.45 54.337 7ZM258.019 6.604C257.687 6.936 256.824 6.972 256.103 6.683C255.305 6.364 255.542 6.127 256.707 6.079C257.761 6.036 258.351 6.272 258.019 6.604ZM284.358 7.772C274.776 7.924 266.587 7.7 266.16 7.274C265.733 6.848 273.572 6.724 283.582 6.998L301.78 7.495L284.358 7.772ZM331.273 7C332.445 7.758 332.187 7.973 330.082 7.985C328.602 7.993 327.114 7.55 326.774 7C325.985 5.723 329.297 5.723 331.273 7ZM395.258 7.545C395.258 7.727 394.389 7.81 393.327 7.73C392.266 7.65 391.606 7.248 391.86 6.836C392.283 6.153 395.258 6.773 395.258 7.545ZM59.3359 8C59.3359 8.55 60.5726 8.968 62.0852 8.93C64.5217 8.867 64.6067 8.762 62.8351 8C60.1047 6.826 59.3359 6.826 59.3359 8ZM72.6018 7.656C71.9249 7.93 70.5753 7.947 69.6025 7.693C68.6297 7.439 69.1836 7.215 70.8332 7.195C72.4828 7.175 73.2786 7.382 72.6018 7.656ZM82.0596 7.604C81.7277 7.936 80.8649 7.972 80.144 7.683C79.3462 7.364 79.5832 7.127 80.7479 7.079C81.8017 7.036 82.3915 7.272 82.0596 7.604ZM90.0907 7.687C89.135 7.937 87.3354 7.946 86.0917 7.707C84.8479 7.468 85.6298 7.263 87.8293 7.252C90.0287 7.241 91.0465 7.437 90.0907 7.687ZM105.589 7.704C104.359 7.941 102.11 7.947 100.59 7.718C99.0706 7.488 100.076 7.294 102.826 7.286C105.575 7.279 106.819 7.467 105.589 7.704ZM112.053 7.604C111.721 7.936 110.858 7.972 110.137 7.683C109.339 7.364 109.576 7.127 110.741 7.079C111.795 7.036 112.385 7.272 112.053 7.604ZM128.07 7.716C126.558 7.945 124.083 7.945 122.571 7.716C121.06 7.487 122.296 7.3 125.321 7.3C128.345 7.3 129.582 7.487 128.07 7.716ZM144.566 7.706C143.328 7.944 141.305 7.944 140.067 7.706C138.829 7.467 139.842 7.272 142.317 7.272C144.791 7.272 145.804 7.467 144.566 7.706ZM173.098 7.738C169.958 7.936 164.559 7.937 161.101 7.741C157.643 7.546 160.212 7.384 166.811 7.382C173.409 7.38 176.239 7.54 173.098 7.738ZM186.306 8C186.306 8.55 186.783 9 187.365 9C187.947 9 188.146 8.55 187.806 8C187.466 7.45 186.99 7 186.747 7C186.504 7 186.306 7.45 186.306 8ZM248.021 7.604C247.689 7.936 246.826 7.972 246.105 7.683C245.308 7.364 245.545 7.127 246.709 7.079C247.763 7.036 248.353 7.272 248.021 7.604ZM318.526 7.732C316.189 7.943 312.364 7.943 310.028 7.732C307.691 7.522 309.603 7.349 314.277 7.349C318.951 7.349 320.862 7.522 318.526 7.732ZM336.001 7.604C335.669 7.936 334.806 7.972 334.085 7.683C333.287 7.364 333.524 7.127 334.689 7.079C335.743 7.036 336.333 7.272 336.001 7.604ZM342.539 7.656C341.862 7.93 340.513 7.947 339.54 7.693C338.567 7.439 339.121 7.215 340.771 7.195C342.42 7.175 343.216 7.382 342.539 7.656ZM352.03 7.687C351.074 7.937 349.275 7.946 348.031 7.707C346.787 7.468 347.569 7.263 349.768 7.252C351.968 7.241 352.986 7.437 352.03 7.687ZM374.263 8C374.263 8.55 374.713 9 375.263 9C375.812 9 376.262 8.55 376.262 8C376.262 7.45 375.812 7 375.263 7C374.713 7 374.263 7.45 374.263 8ZM183.12 8.683C183.841 8.972 184.704 8.936 185.036 8.604C185.368 8.272 184.778 8.036 183.724 8.079C182.559 8.127 182.322 8.364 183.12 8.683ZM229.058 8.707C230.302 8.946 232.102 8.937 233.058 8.687C234.013 8.437 232.996 8.241 230.796 8.252C228.597 8.263 227.815 8.468 229.058 8.707ZM188.119 10.683C188.84 10.972 189.703 10.936 190.035 10.604C190.366 10.272 189.777 10.036 188.723 10.079C187.558 10.127 187.321 10.364 188.119 10.683ZM192.118 10.683C192.839 10.972 193.702 10.936 194.034 10.604C194.366 10.272 193.776 10.036 192.722 10.079C191.557 10.127 191.32 10.364 192.118 10.683ZM196.054 10.662C196.742 10.94 197.867 10.94 198.554 10.662C199.241 10.385 198.679 10.158 197.304 10.158C195.929 10.158 195.367 10.385 196.054 10.662ZM202.572 10.693C203.544 10.947 204.894 10.93 205.571 10.656C206.248 10.382 205.452 10.175 203.802 10.195C202.153 10.215 201.599 10.439 202.572 10.693ZM214.569 10.693C215.542 10.947 216.891 10.93 217.568 10.656C218.245 10.382 217.449 10.175 215.8 10.195C214.15 10.215 213.596 10.439 214.569 10.693ZM398.766 11.015C399.101 11.557 398.336 12.014 397.066 12.032C394.834 12.063 394.821 12.111 396.676 13.515C398.208 14.675 398.893 14.719 400.089 13.733C401.388 12.661 401.427 12.794 400.386 14.75C398.971 17.404 399.865 17.665 402.427 15.345C403.433 14.435 404.256 14.162 404.256 14.738C404.256 15.314 403.581 16.045 402.756 16.362C399.838 17.482 401.31 18.548 405.256 18.171C407.739 17.935 409.255 18.209 409.255 18.895C409.255 19.503 407.819 20 406.064 20C403.157 20 403.036 20.119 404.701 21.336C405.817 22.153 408.179 22.507 410.776 22.248C413.114 22.015 415.306 22.276 415.648 22.829C416.029 23.447 414.943 23.73 412.836 23.563C410.948 23.413 408.807 23.661 408.079 24.113C407.167 24.68 404.654 22.853 400.007 18.245C396.296 14.565 393.258 11.302 393.258 10.995C393.258 9.988 398.143 10.006 398.766 11.015ZM403.756 11C404.096 11.55 403.897 12 403.315 12C402.733 12 402.256 11.55 402.256 11C402.256 10.45 402.454 10 402.697 10C402.94 10 403.416 10.45 403.756 11ZM51.2478 13.111C52.8904 14.453 53.9831 14.754 54.68 14.057C56.0456 12.691 55.0009 11.796 51.6207 11.437L48.8383 11.142L51.2478 13.111ZM202.489 12.748C211.663 12.913 226.96 12.913 236.481 12.749C246.002 12.584 238.494 12.449 219.799 12.449C201.103 12.449 193.314 12.583 202.489 12.748ZM47.3477 15.489C46.099 16.994 44.3394 16.673 44.3394 14.941C44.3394 14.423 45.2941 14 46.4609 14C48.2275 14 48.3764 14.25 47.3477 15.489ZM7.34795 16.044C7.34795 17.34 12.4448 37.196 12.9457 37.85C13.0926 38.043 13.6495 37.931 14.1824 37.601C14.7932 37.224 14.6842 35.43 13.8904 32.751C11.8489 25.87 11.0931 20.725 12.2278 21.426C12.7817 21.769 16.4098 22.079 20.2889 22.115C24.169 22.152 27.3433 22.619 27.3433 23.154C27.3433 23.688 26.5555 24.046 25.5937 23.948C24.6319 23.85 23.3942 23.863 22.8444 23.978C22.2945 24.092 19.932 24.11 17.5956 24.017C14.9462 23.912 13.3466 24.285 13.3466 25.007C13.3466 25.789 15.0982 26.04 18.7373 25.781C22.8663 25.487 24.0121 25.702 23.6292 26.699C23.3552 27.414 21.9985 28 20.6159 28C18.4564 28 18.2824 28.22 19.3872 29.551C20.4739 30.86 20.3379 31.189 18.5094 31.667C16.6158 32.163 15.3661 34 16.9237 34C17.7755 34 32.3421 20.777 32.3421 20.004C32.3421 19.642 27.2813 18.772 21.0948 18.071C14.9092 17.37 9.2855 16.337 8.59766 15.776C7.71687 15.056 7.34795 15.135 7.34795 16.044ZM440.892 17.766C440.586 18.261 435.834 19.239 430.332 19.941L420.327 21.216L426.038 26.358C429.179 29.186 432.984 32.782 434.492 34.349C437.618 37.595 437.275 38.083 440.259 26.134C442.147 18.576 442.392 15.339 440.892 17.766ZM17.2626 19.644C17.4916 19.84 16.0289 20 14.0134 20C11.9969 20 10.3473 19.561 10.3473 19.025C10.3473 18.164 16.1379 18.682 17.2626 19.644ZM439.248 21C439.248 21.55 438.236 21.968 436.998 21.93C434.852 21.863 434.841 21.82 436.748 21C437.848 20.527 438.861 20.109 438.998 20.07C439.135 20.032 439.248 20.45 439.248 21ZM48.1405 22.531C47.0587 23.614 43.3396 23.849 43.3396 22.836C43.3396 22.258 44.0004 22.04 44.8073 22.349C45.6141 22.659 46.5588 22.452 46.9068 21.89C47.2547 21.327 47.7936 21.122 48.1055 21.433C48.4164 21.745 48.4324 22.239 48.1405 22.531ZM433.978 21.604C433.646 21.936 432.783 21.972 432.062 21.683C431.264 21.364 431.501 21.127 432.666 21.079C433.72 21.036 434.31 21.272 433.978 21.604ZM37.8869 23.925C37.5709 24.437 38.2518 25.154 39.4015 25.519C42.2388 26.42 42.9917 25.419 40.4863 24.078C39.2685 23.426 38.2328 23.365 37.8869 23.925ZM437.852 25.589C437.584 26.287 437.065 28.461 436.697 30.42C436.329 32.379 435.648 33.747 435.183 33.459C434.717 33.171 434.59 32.275 434.9 31.468C435.282 30.472 434.805 30 433.415 30C432.289 30 431.09 29.55 430.75 29C430.389 28.417 431.405 28 433.19 28C434.872 28 436.248 27.55 436.248 27C436.248 26.45 434.197 26 431.69 26C428.859 26 427.37 25.615 427.76 24.984C428.719 23.432 438.456 24.016 437.852 25.589ZM27.3433 28.5C26.2916 29.767 26.4965 30 28.662 30C31.6793 30 33.015 28.472 30.7545 27.605C28.672 26.805 28.771 26.779 27.3433 28.5ZM15.1591 28.683C15.88 28.972 16.7428 28.936 17.0747 28.604C17.4066 28.272 16.8168 28.036 15.763 28.079C14.5983 28.127 14.3613 28.364 15.1591 28.683ZM415.783 30.951C414.54 32.963 416.226 33.699 422.047 33.685C425.271 33.677 428.435 33.996 429.079 34.394C429.723 34.792 430.25 34.664 430.25 34.109C430.25 32.297 426.998 31.224 423.095 31.748C420.874 32.046 418.676 31.767 417.852 31.082C416.882 30.277 416.225 30.235 415.783 30.951ZM20.9278 34.542C17.1857 37.847 17.5566 38.843 21.8446 37C23.2133 36.412 23.3712 36.106 22.3445 36.03C21.4667 35.966 21.9856 35.301 23.5942 34.428C25.1068 33.607 26.3435 32.5 26.3435 31.968C26.3435 30.312 24.9869 30.957 20.9278 34.542ZM31.3424 31.858C31.3424 33.759 34.7106 34.057 36.2692 32.294C37.133 31.315 37.21 31.053 36.4382 31.71C35.4664 32.538 34.4667 32.602 33.189 31.918C32.0962 31.333 31.3424 31.309 31.3424 31.858ZM14.4173 40.415C13.6865 41.295 14.8182 41.585 18.8923 41.562C21.8906 41.545 24.344 41.187 24.344 40.766C24.344 40.344 23.7821 39.971 23.0943 39.936C22.4075 39.901 20.3929 39.729 18.6193 39.554C16.8457 39.379 14.9552 39.767 14.4173 40.415ZM438.244 42.596C439.034 43.386 437.761 43.74 433.649 43.874C430.521 43.977 427.637 44.261 427.239 44.507C426.843 44.752 425.753 44.108 424.819 43.075C423.17 41.253 423.33 41.201 430.136 41.35C433.995 41.435 437.644 41.996 438.244 42.596ZM10.7742 44.479C9.7144 45.28 9.2975 45.944 9.84737 45.953C11.333 45.977 13.8724 44.192 13.2446 43.565C12.9456 43.265 11.8339 43.677 10.7742 44.479ZM15.0502 44.204C14.3283 44.663 14.9702 44.975 16.6548 44.985C18.6333 44.995 19.2412 45.369 18.7123 46.25C18.1774 47.141 18.4344 47.117 19.6091 46.164C20.5159 45.429 21.6956 45.099 22.2315 45.43C22.7674 45.762 23.4592 45.622 23.7691 45.121C24.474 43.98 16.6898 43.162 15.0502 44.204ZM68.3998 47.035C70.9272 48.389 70.8422 49.755 68.0838 52.056C65.3435 54.343 63.4629 54.498 62.6971 52.5C62.3802 51.675 61.4944 51 60.7286 51C58.893 51 58.97 50.062 60.9905 47.829C62.8461 45.778 65.5164 45.492 68.3998 47.035ZM391.608 48.178C392.435 49.5 392.138 50.289 390.209 51.895C387.272 54.339 385.674 54.522 384.898 52.5C384.582 51.675 383.635 51 382.792 51C380.81 51 380.856 50.104 382.96 47.78C385.021 45.502 390.078 45.734 391.608 48.178ZM6.34818 48.5C4.9975 50.128 5.32042 50.332 7.76585 49.393C8.63565 49.059 9.34749 48.384 9.34749 47.893C9.34749 46.51 7.72786 46.838 6.34818 48.5ZM437.05 48.128C437.434 48.474 439.924 48.985 442.584 49.265C446.101 49.635 447.12 49.474 446.32 48.674C445.715 48.069 443.225 47.557 440.786 47.537C438.347 47.517 436.665 47.783 437.05 48.128ZM12.1088 48.707C13.3526 48.946 15.1521 48.937 16.1079 48.687C17.0637 48.437 16.0459 48.241 13.8464 48.252C11.647 48.263 10.8651 48.468 12.1088 48.707ZM18.3454 49.059C18.3454 49.641 18.7953 49.84 19.3452 49.5C19.895 49.16 20.3449 48.684 20.3449 48.441C20.3449 48.198 19.895 48 19.3452 48C18.7953 48 18.3454 48.477 18.3454 49.059ZM433.749 49C434.089 49.55 434.565 50 434.808 50C435.051 50 435.249 49.55 435.249 49C435.249 48.45 434.772 48 434.19 48C433.608 48 433.409 48.45 433.749 49ZM5.11647 52.168C5.69833 52.75 6.76309 53.028 7.48492 52.788C8.23375 52.538 7.77985 52.085 6.42816 51.731C4.76555 51.296 4.37464 51.426 5.11647 52.168ZM446.238 52.107C445.112 52.88 445.36 52.973 447.246 52.486C449.074 52.014 447.331 54.211 440.747 60.672C431.367 69.877 406.038 93.689 398.257 100.616L393.758 104.621L225.703 104.55L57.6473 104.479L35.7474 83.9C2.92498 53.058 1.49131 51.785 0.11863 52.256C-0.621199 52.51 2.15916 55.822 6.79008 60.205L14.7312 67.718L12.4668 76.953C9.85637 87.6 10.0313 89.938 12.7327 80.503C14.6503 73.804 14.6633 73.797 19.3162 76.804C19.5751 76.972 19.1252 77.527 18.3164 78.039C17.2027 78.743 17.5216 78.973 19.6261 78.985C21.1947 78.993 22.6644 79.67 22.9973 80.537C23.3212 81.382 24.9939 82.823 26.7145 83.738L29.8427 85.402L25.3438 86.068C22.8693 86.435 18.2574 87.052 15.0962 87.439C11.593 87.869 9.34749 88.625 9.34749 89.375C9.34749 90.341 11.7639 90.312 20.5949 89.239C28.641 88.262 32.3361 88.176 33.5779 88.936C34.5326 89.521 35.9873 90 36.8101 90C37.6319 90 42.5308 93.825 47.6966 98.5L57.0874 107H226.205H395.323L403.038 99.515C413.73 89.144 417.504 87.764 431.064 89.269C436.631 89.887 441.501 90.08 441.884 89.696C443.205 88.375 442.195 88.126 428.5 86.39C425.614 86.024 423.251 85.337 423.251 84.862C423.251 84.388 423.678 84 424.199 84C424.721 84 426.362 82.875 427.845 81.5C429.328 80.125 431.361 79 432.364 79C433.495 79 433.987 78.481 433.661 77.631C433.35 76.821 433.97 76.045 435.181 75.728C436.865 75.287 437.432 75.882 438.397 79.103C440.193 85.102 440.471 83.06 438.821 75.983C437.872 71.913 437.676 69.07 438.268 67.963C438.773 67.02 442.349 63.193 446.216 59.459C450.083 55.724 453.134 52.582 452.995 52.475C451.768 51.528 447.427 51.291 446.238 52.107ZM439.061 52.683C439.782 52.972 440.644 52.936 440.976 52.604C441.308 52.272 440.718 52.036 439.665 52.079C438.5 52.127 438.263 52.364 439.061 52.683ZM442.247 53.059C442.247 53.641 442.697 53.84 443.247 53.5C443.797 53.16 444.246 52.684 444.246 52.441C444.246 52.198 443.797 52 443.247 52C442.697 52 442.247 52.477 442.247 53.059ZM439.517 56.693C440.489 56.947 441.839 56.93 442.516 56.656C443.193 56.382 442.397 56.175 440.747 56.195C439.098 56.215 438.544 56.439 439.517 56.693ZM440.326 85.583C440.374 86.748 440.611 86.985 440.93 86.188C441.219 85.466 441.183 84.603 440.851 84.271C440.519 83.939 440.283 84.529 440.326 85.583Z" fill="#00FFD1"/>
<path d="M166.8 68.05L166.5 67.2C165.4 67.2333 164.2 66.9167 162.9 66.25C161.633 65.5833 160.317 64.7333 158.95 63.7C157.617 62.6667 156.283 61.5333 154.95 60.3C153.617 59.0333 152.35 57.8167 151.15 56.65C150.483 55.9833 149.833 55.35 149.2 54.75C148.567 54.1167 147.967 53.5667 147.4 53.1C148.033 52.6 148.633 52.0833 149.2 51.55C149.767 50.9833 150.433 50.3167 151.2 49.55C152.1 48.7167 153.017 47.8667 153.95 47C154.883 46.1 155.817 45.3 156.75 44.6C157.717 43.8667 158.667 43.25 159.6 42.75C160.533 42.25 161.45 41.9667 162.35 41.9C162.683 41.8667 162.85 41.7333 162.85 41.5C162.85 41.2333 162.683 41.0833 162.35 41.05C161.65 40.9833 160.933 40.95 160.2 40.95C159.5 40.95 158.8 40.95 158.1 40.95C157.467 40.95 156.85 40.95 156.25 40.95C155.65 40.9167 155.033 40.8833 154.4 40.85C154.133 40.85 153.95 40.9333 153.85 41.1C153.75 41.2333 153.783 41.3833 153.95 41.55C154.083 41.6833 154.15 41.9333 154.15 42.3C154.15 42.6667 153.917 43.15 153.45 43.75C153.017 44.3167 152.45 44.95 151.75 45.65C151.05 46.35 150.283 47.0833 149.45 47.85C148.617 48.5833 147.8 49.3 147 50C146.5 50.4667 146 50.9 145.5 51.3C145.033 51.7 144.617 52.1 144.25 52.5C144.217 51.0667 144.183 49.65 144.15 48.25C144.15 46.8167 144.15 45.45 144.15 44.15C144.15 43.5167 144.4 43 144.9 42.6C145.4 42.1667 145.933 41.9333 146.5 41.9C146.8 41.9 146.95 41.7667 146.95 41.5C146.983 41.2333 146.85 41.0833 146.55 41.05C144.917 40.95 143.283 40.9 141.65 40.9C140.05 40.8667 138.45 40.85 136.85 40.85C136.583 40.85 136.4 40.9167 136.3 41.05C136.2 41.1833 136.217 41.3333 136.35 41.5C136.517 41.7667 136.733 41.9333 137 42C137.267 42.0667 137.583 42.1167 137.95 42.15C138.317 42.1833 138.667 42.2833 139 42.45C139.367 42.6167 139.55 43.0833 139.55 43.85V64.15C139.55 64.7833 139.517 65.2833 139.45 65.65C139.417 66.0167 139.317 66.3167 139.15 66.55C138.983 66.75 138.733 66.9 138.4 67C138.1 67.1 137.683 67.1833 137.15 67.25C136.85 67.3167 136.7 67.4833 136.7 67.75C136.733 68.0167 136.9 68.15 137.2 68.15C138.9 68.2167 140.567 68.2667 142.2 68.3C143.833 68.3 145.483 68.3 147.15 68.3C147.483 68.3 147.667 68.1833 147.7 67.95C147.767 67.7167 147.667 67.55 147.4 67.45C147 67.25 146.617 67.1333 146.25 67.1C145.883 67.0333 145.567 66.9833 145.3 66.95C145.1 66.9167 144.933 66.8833 144.8 66.85C144.667 66.8167 144.55 66.7167 144.45 66.55C144.35 66.35 144.267 66.0667 144.2 65.7C144.167 65.3 144.15 64.75 144.15 64.05V55.35C144.85 55.9167 145.433 56.4667 145.9 57C146.4 57.5 147.083 58.1833 147.95 59.05C149.083 60.1833 150.267 61.3333 151.5 62.5C152.733 63.6667 154 64.7333 155.3 65.7C156.6 66.6333 157.9 67.4167 159.2 68.05C160.5 68.65 161.8 68.95 163.1 68.95C163.767 68.95 164.4 68.8833 165 68.75C165.633 68.6167 166.233 68.3833 166.8 68.05ZM202.7 41.8L202.5 40.95C201.3 40.8833 200.1 40.8333 198.9 40.8C197.7 40.7333 196.483 40.7167 195.25 40.75L193.45 40.8C193.183 40.8 193 40.9 192.9 41.1C192.8 41.3 192.866 41.45 193.1 41.55C193.5 41.7833 194.016 41.9333 194.65 42C194.883 42.0333 195.116 42.0833 195.35 42.15C195.583 42.1833 195.8 42.2833 196 42.45C196.2 42.5833 196.366 42.8167 196.5 43.15C196.633 43.45 196.7 43.8667 196.7 44.4V47.45C196.7 47.9833 196.683 48.5 196.65 49C196.65 49.5 196.65 50.0167 196.65 50.55C196.65 51.3833 196.666 52.2667 196.7 53.2C196.733 54.1333 196.783 55.0167 196.85 55.85C196.883 56.8833 196.916 57.9 196.95 58.9C196.983 59.8667 196.983 60.8667 196.95 61.9C193.216 58.2333 189.466 54.6167 185.7 51.05C181.933 47.45 178.133 43.8833 174.3 40.35C174.233 40.2833 174.116 40.25 173.95 40.25C173.816 40.2167 173.7 40.2333 173.6 40.3C173.433 40.4333 173.266 40.6 173.1 40.8C172.933 40.9667 172.85 41.1833 172.85 41.45V65.05C172.85 65.7167 172.65 66.2333 172.25 66.6C171.85 66.9333 171.366 67.0667 170.8 67H170.2C169.9 67 169.716 67.1333 169.65 67.4C169.616 67.6667 169.75 67.8333 170.05 67.9C170.75 68.0667 171.466 68.1667 172.2 68.2C172.966 68.2333 173.733 68.25 174.5 68.25H176.25C176.816 68.25 177.4 68.25 178 68.25C178.6 68.2167 179.183 68.2167 179.75 68.25C180.05 68.25 180.25 68.15 180.35 67.95C180.45 67.75 180.366 67.5833 180.1 67.45C179.8 67.2167 179.483 67.0833 179.15 67.05C178.816 66.9833 178.5 66.9167 178.2 66.85C177.966 66.8167 177.733 66.7667 177.5 66.7C177.3 66.6333 177.1 66.5167 176.9 66.35C176.733 66.1833 176.6 65.9333 176.5 65.6C176.4 65.2333 176.35 64.7667 176.35 64.2C176.35 62.9333 176.333 61.6833 176.3 60.45C176.266 59.2167 176.216 57.9833 176.15 56.75C176.083 55.4833 176.016 54.2333 175.95 53C175.916 51.7667 175.9 50.5167 175.9 49.25C175.9 48.9167 175.9 48.6 175.9 48.3C175.9 48 175.916 47.7 175.95 47.4L178.55 49.95H178.5C181.7 53.1833 184.95 56.4 188.25 59.6C191.583 62.7667 195.116 65.75 198.85 68.55C199.05 68.65 199.25 68.6833 199.45 68.65C199.65 68.5833 199.766 68.45 199.8 68.25C200 66.15 200.133 64.0667 200.2 62C200.266 59.9 200.3 57.7833 200.3 55.65C200.3 54.7167 200.283 53.6833 200.25 52.55C200.25 51.3833 200.25 50.3167 200.25 49.35C200.216 48.3167 200.2 47.3 200.2 46.3C200.2 45.2667 200.2 44.2167 200.2 43.15C200.2 42.7833 200.4 42.5167 200.8 42.35C201.2 42.1833 201.6 42.05 202 41.95H201.95C202.15 41.8833 202.316 41.85 202.45 41.85C202.616 41.8167 202.7 41.8 202.7 41.8ZM216.336 67.5C216.069 67.2667 215.786 67.1333 215.486 67.1C215.219 67.0333 214.903 67 214.536 67C214.369 67 214.186 66.9833 213.986 66.95C213.786 66.9167 213.636 66.8833 213.536 66.85C213.469 66.75 213.386 66.5667 213.286 66.3C213.186 66.0333 213.103 65.75 213.036 65.45C212.969 65.15 212.903 64.8667 212.836 64.6C212.803 64.3333 212.786 64.1333 212.786 64V43.8C212.786 43 213.019 42.5 213.486 42.3C213.953 42.1 214.519 41.95 215.186 41.85C215.486 41.7833 215.619 41.6333 215.586 41.4C215.586 41.1667 215.436 41.0333 215.136 41C214.369 40.9333 213.619 40.9333 212.886 41C212.153 41.0667 211.403 41.1 210.636 41.1C209.869 41.1 209.086 41.0667 208.286 41C207.486 40.9333 206.686 40.9333 205.886 41C205.553 41.0333 205.369 41.1833 205.336 41.45C205.336 41.6833 205.503 41.8167 205.836 41.85C206.436 41.9167 207.003 42.1 207.536 42.4C208.103 42.6667 208.386 43.1333 208.386 43.8V64.15C208.386 64.4167 208.353 64.7167 208.286 65.05C208.253 65.3833 208.186 65.7167 208.086 66.05C207.986 66.3833 207.836 66.6667 207.636 66.9C207.469 67.1 207.253 67.2 206.986 67.2C206.919 67.2 206.819 67.2333 206.686 67.3C206.586 67.3333 206.453 67.3167 206.286 67.25C205.986 67.1833 205.769 67.3167 205.636 67.65C205.503 67.95 205.586 68.15 205.886 68.25C206.119 68.35 206.436 68.4167 206.836 68.45C207.269 68.45 207.703 68.4333 208.136 68.4C208.603 68.3667 209.036 68.3333 209.436 68.3C209.836 68.2667 210.169 68.25 210.436 68.25L212.336 68.3C212.969 68.3333 213.569 68.3333 214.136 68.3C214.736 68.2667 215.336 68.2667 215.936 68.3L216.336 67.5ZM249.564 55.3L249.514 54.45C247.88 54.3833 246.247 54.35 244.614 54.35C243.014 54.3167 241.38 54.3 239.714 54.3C239.414 54.3 239.23 54.4167 239.164 54.65C239.097 54.8833 239.197 55.05 239.464 55.15C239.93 55.35 240.414 55.5 240.914 55.6C241.28 55.7 241.647 55.85 242.014 56.05C242.38 56.2167 242.564 56.5333 242.564 57V65.05C241.897 65.5833 241.13 65.9333 240.264 66.1C239.43 66.2333 238.614 66.3 237.814 66.3C235.98 66.3 234.197 65.9833 232.464 65.35C230.73 64.7167 229.197 63.8333 227.864 62.7C226.53 61.5333 225.447 60.15 224.614 58.55C223.814 56.9167 223.414 55.1167 223.414 53.15C223.414 51.35 223.78 49.7667 224.514 48.4C225.247 47 226.214 45.8333 227.414 44.9C228.647 43.9333 230.03 43.2167 231.564 42.75C233.13 42.25 234.73 42 236.364 42C237.33 42 238.297 42.1 239.264 42.3C240.264 42.5 241.164 42.8333 241.964 43.3C242.797 43.7333 243.514 44.3167 244.114 45.05C244.714 45.7833 245.114 46.6833 245.314 47.75C245.38 47.9167 245.497 48.0333 245.664 48.1C245.83 48.1333 245.997 48.1167 246.164 48.05C246.43 47.95 246.63 47.6 246.764 47C246.93 46.4 247.047 45.75 247.114 45.05C247.214 44.3167 247.264 43.6333 247.264 43C247.297 42.3333 247.314 41.8833 247.314 41.65C247.314 41.3833 247.147 41.25 246.814 41.25C246.214 41.1833 245.614 41.1167 245.014 41.05C244.414 40.95 243.814 40.8667 243.214 40.8C242.114 40.6333 240.93 40.5 239.664 40.4C238.43 40.2667 237.23 40.2 236.064 40.2C233.964 40.2 231.897 40.4667 229.864 41C227.83 41.5 226.014 42.3 224.414 43.4C222.814 44.5 221.514 45.9167 220.514 47.65C219.514 49.35 219.014 51.3833 219.014 53.75C219.014 55.8167 219.38 57.7333 220.114 59.5C220.847 61.2333 221.864 62.75 223.164 64.05C224.464 65.35 225.997 66.4 227.764 67.2C229.53 67.9667 231.43 68.4167 233.464 68.55C234.097 68.5833 234.714 68.6167 235.314 68.65C235.914 68.65 236.53 68.65 237.164 68.65C237.964 68.65 238.797 68.6333 239.664 68.6C240.53 68.5333 241.38 68.4333 242.214 68.3C243.08 68.1667 243.914 67.9667 244.714 67.7C245.514 67.4333 246.247 67.0833 246.914 66.65C246.98 66.6167 247.03 66.5667 247.064 66.5C247.13 66.4 247.164 66.3167 247.164 66.25V57.1C247.164 56.4667 247.43 56.0333 247.964 55.8C248.497 55.5667 249.03 55.4 249.564 55.3ZM285.009 67.45C284.709 67.2167 284.392 67.0833 284.059 67.05C283.759 66.9833 283.459 66.95 283.159 66.95C282.992 66.95 282.809 66.95 282.609 66.95C282.442 66.9167 282.275 66.8833 282.109 66.85C282.009 66.8167 281.909 66.6667 281.809 66.4C281.742 66.1333 281.675 65.85 281.609 65.55C281.542 65.2167 281.492 64.9167 281.459 64.65C281.425 64.35 281.409 64.1333 281.409 64V43.75C281.409 42.9833 281.642 42.5 282.109 42.3C282.609 42.1 283.175 41.95 283.809 41.85C284.142 41.7833 284.292 41.6333 284.259 41.4C284.259 41.1667 284.092 41.0333 283.759 41C282.159 40.9 280.542 40.8333 278.909 40.8C277.275 40.7667 275.642 40.75 274.009 40.75C273.575 40.75 273.392 40.9167 273.459 41.25C273.525 41.6167 273.692 41.8167 273.959 41.85C274.259 41.8833 274.609 41.9333 275.009 42C275.209 42 275.409 42.0167 275.609 42.05C275.842 42.0833 276.042 42.1667 276.209 42.3C276.409 42.4333 276.559 42.6167 276.659 42.85C276.792 43.0833 276.859 43.4 276.859 43.8V52.05H260.459V43.75C260.459 43.1167 260.709 42.6667 261.209 42.4C261.709 42.1 262.242 41.9333 262.809 41.9C263.142 41.9 263.309 41.7667 263.309 41.5C263.342 41.2333 263.192 41.0833 262.859 41.05C261.259 40.9167 259.642 40.85 258.009 40.85C256.375 40.8167 254.759 40.8 253.159 40.8C252.892 40.8 252.709 40.8667 252.609 41C252.509 41.1333 252.525 41.2833 252.659 41.45C252.825 41.7167 253.042 41.8833 253.309 41.95C253.609 42.0167 253.925 42.0667 254.259 42.1C254.625 42.1333 254.992 42.2333 255.359 42.4C255.725 42.5667 255.909 43.0333 255.909 43.8V64.1C255.909 64.7333 255.875 65.2333 255.809 65.6C255.775 65.9667 255.675 66.2667 255.509 66.5C255.342 66.7 255.092 66.85 254.759 66.95C254.459 67.0167 254.042 67.1 253.509 67.2C253.175 67.2667 253.025 67.4333 253.059 67.7C253.092 67.9667 253.275 68.1 253.609 68.1C254.475 68.1333 255.325 68.1667 256.159 68.2C256.992 68.2 257.842 68.2 258.709 68.2C259.542 68.2 260.359 68.2 261.159 68.2C261.992 68.1667 262.842 68.1333 263.709 68.1L263.659 67.2C262.392 67.2667 261.542 67.0667 261.109 66.6C260.675 66.1333 260.459 65.2667 260.459 64V54.15H276.859V64.1C276.859 64.3667 276.825 64.6833 276.759 65.05C276.725 65.3833 276.642 65.7167 276.509 66.05C276.409 66.3833 276.259 66.6667 276.059 66.9C275.892 67.1 275.675 67.2 275.409 67.2C275.309 67.2 275.125 67.1333 274.859 67L274.309 67.8C274.775 68.0333 275.442 68.1667 276.309 68.2C277.175 68.2333 277.892 68.25 278.459 68.25H280.959C281.559 68.25 282.159 68.25 282.759 68.25C283.392 68.2167 284.025 68.2167 284.659 68.25L285.009 67.45ZM313.764 41.8V41C313.764 40.6333 313.547 40.4833 313.114 40.55C312.914 40.5833 312.73 40.6167 312.564 40.65C312.397 40.65 312.264 40.6833 312.164 40.75H312.214C311.947 40.8167 311.68 40.8833 311.414 40.95C311.147 41.0167 310.93 41.05 310.764 41.05H292.914C292.714 41.05 292.447 41.0333 292.114 41C291.814 40.9333 291.497 40.8667 291.164 40.8C290.83 40.7333 290.497 40.6667 290.164 40.6C289.864 40.5 289.647 40.4 289.514 40.3C289.347 40.2333 289.18 40.2333 289.014 40.3C288.847 40.3333 288.73 40.4333 288.664 40.6C288.597 40.8 288.53 41 288.464 41.2C288.43 41.4 288.38 41.5833 288.314 41.75C288.147 42.25 287.98 42.7833 287.814 43.35C287.647 43.9167 287.564 44.4167 287.564 44.85C287.564 45.1833 287.58 45.4 287.614 45.5C287.68 45.7 287.847 45.8167 288.114 45.85C288.38 45.8833 288.58 45.8 288.714 45.6C289.08 44.9333 289.564 44.3667 290.164 43.9C290.797 43.4333 291.48 43.2 292.214 43.2H298.564V64.25C298.564 64.85 298.53 65.3333 298.464 65.7C298.397 66.0333 298.28 66.3 298.114 66.5C297.947 66.7 297.697 66.85 297.364 66.95C297.03 67.0167 296.614 67.0833 296.114 67.15C295.814 67.2167 295.664 67.3833 295.664 67.65C295.697 67.9167 295.864 68.05 296.164 68.05C297.864 68.1167 299.547 68.1667 301.214 68.2C302.914 68.2333 304.614 68.25 306.314 68.25C306.58 68.25 306.764 68.1833 306.864 68.05C306.964 67.9167 306.964 67.7667 306.864 67.6C306.73 67.3333 306.497 67.1667 306.164 67.1C305.864 67.0333 305.53 66.9833 305.164 66.95C304.964 66.9167 304.714 66.8833 304.414 66.85C304.147 66.8167 303.947 66.7667 303.814 66.7H303.764C303.697 66.6667 303.63 66.5333 303.564 66.3C303.497 66.0333 303.43 65.75 303.364 65.45C303.33 65.1167 303.28 64.8167 303.214 64.55C303.18 64.25 303.164 64.05 303.164 63.95V43.25C303.397 43.3167 303.53 43.3333 303.564 43.3C303.63 43.2667 303.797 43.25 304.064 43.25C304.397 43.25 304.73 43.25 305.064 43.25C305.397 43.25 305.714 43.2333 306.014 43.2C306.314 43.1667 306.597 43.15 306.864 43.15C307.13 43.15 307.397 43.15 307.664 43.15C308.73 43.15 309.68 43.3167 310.514 43.65C311.38 43.95 311.93 44.6833 312.164 45.85C312.23 46.0833 312.414 46.2 312.714 46.2C313.047 46.2 313.247 46.0833 313.314 45.85C313.614 44.5167 313.764 43.1667 313.764 41.8Z" fill="black"/>
</svg>
