<svg width="453" height="107" viewBox="0 0 453 107" fill="none" xmlns="http://www.w3.org/2000/svg">
<path fill-rule="evenodd" clip-rule="evenodd" d="M56.8365 1C56.4965 1.55 56.7215 2 57.3363 2C57.9512 2 58.1881 2.43 57.8632 2.956C57.5383 3.482 56.7245 3.705 56.0546 3.45C55.3848 3.196 53.1323 4.509 51.0488 6.367C47.6026 9.441 47.4446 9.794 49.2992 10.28C50.4199 10.573 51.3377 10.405 51.3377 9.906C51.3377 8.339 53.1823 8.917 55.2458 11.132C57.2294 13.262 57.2294 13.266 55.0349 15.06C52.8874 16.815 52.7754 16.788 50.095 13.874C46.8368 10.331 46.9178 10.298 37.455 19.165C30.3106 25.861 28.741 27.928 32.2112 26.07C33.2379 25.52 34.4247 25.392 34.8466 25.785C35.2695 26.178 35.4024 25.825 35.1415 25C34.8366 24.034 35.7594 23.038 37.7349 22.201C39.9784 21.251 40.4423 20.681 39.4645 20.076C38.3807 19.407 38.3717 19.099 39.4155 18.453C40.9891 17.481 52.3375 17.162 52.3375 18.091C52.3375 19.453 49.1812 21.366 48.5124 20.408C47.7786 19.359 42.7947 19.212 41.796 20.21C40.8622 21.145 43.2976 25.144 44.3894 24.469C46.2619 23.312 45.2931 25.694 43.0257 27.826C40.7032 30.007 38.7407 30.78 39.7754 29.105C40.0803 28.612 39.7004 27.968 38.9316 27.673C37.267 27.034 33.3419 27.931 33.3419 28.95C33.3419 30.479 34.7206 30.93 36.0413 29.834C37.084 28.968 37.7099 28.969 38.5767 29.836C39.4445 30.704 39.0416 31.702 36.9401 33.897C34.6586 36.279 33.6718 36.669 31.4983 36.048C28.3311 35.144 23.9291 36.243 26.6045 37.27C27.4933 37.611 29.4458 37.668 30.9445 37.396C33.3289 36.963 33.5059 37.097 32.3641 38.473C31.6343 39.354 30.2796 39.797 29.2859 39.482C28.3101 39.172 27.1753 39.463 26.7634 40.129C26.2486 40.962 26.5345 41.141 27.6792 40.701C30.4866 39.624 29.5498 41.381 24.8649 45.979C22.4015 48.397 20.5629 50.551 20.7778 50.766C20.9928 50.981 30.1077 42.125 41.0341 31.086L60.8995 11.015L123.853 10.75L186.806 10.485L123.271 10.242C82.0196 10.085 59.3149 10.351 58.5361 11C57.6843 11.71 57.6083 11.67 58.2751 10.861C58.899 10.104 58.5101 9.151 57.1134 8.02C55.6607 6.844 55.3708 6.097 56.1746 5.6C56.8135 5.205 57.3363 5.319 57.3363 5.853C57.3363 6.386 59.5828 6.708 62.3282 6.568C66.4102 6.36 67.1161 6.558 66.2043 7.657C65.2735 8.778 74.4924 9 122.115 9C158.466 9 179.262 8.645 179.475 8.02C179.99 6.504 191.56 6.264 192.058 7.759C192.597 9.375 196.966 9.368 197.721 7.75C198.187 6.75 198.421 6.75 198.886 7.75C199.207 8.438 200.643 9 202.077 9C204.6 9 204.622 8.95 202.744 7.448C200.88 5.958 200.902 5.924 203.302 6.583C204.677 6.961 206.027 7.546 206.302 7.885C207.13 8.903 212.392 8.958 211.764 7.941C211.443 7.42 212.771 7 214.741 7C216.697 7 218.299 7.45 218.299 8C218.299 8.55 220.211 8.936 222.548 8.858L226.797 8.716L222.798 8.006C219.137 7.356 232.275 7.436 251.291 8.178C255.415 8.34 259.914 8.111 261.289 7.67C263.16 7.071 263.411 7.133 262.289 7.919C261.234 8.658 276.367 8.924 313.277 8.817C342.145 8.733 363.065 8.365 359.766 8L353.767 7.336L360.516 7.168C364.46 7.07 367.264 7.415 367.264 8C367.264 9.466 369.188 9.219 370.87 7.537C372.868 5.537 381.818 5.624 380.155 7.627C379.228 8.746 379.733 9.045 382.889 9.241C385.017 9.374 349.194 9.716 303.279 10L219.799 10.517L305.288 10.759L390.777 11L411.254 31.5C427.986 48.251 431.288 52 429.303 52C427.476 52 422.214 47.29 408.074 33L389.273 14H226.044H62.8151L43.8295 33.036C28.68 48.225 24.339 52.043 22.3445 51.93C20.9698 51.852 19.3992 51.836 18.8543 51.894C18.3094 51.952 27.5283 61.675 39.3405 73.5L60.8185 95H225.974H391.13L412.125 73.775C427.421 58.312 432.848 52.221 432.115 51.339C431.437 50.522 431.476 49.375 432.235 47.814C433.241 45.744 433.211 45.684 431.951 47.241C430.622 48.884 430.438 48.866 428.681 46.924L426.819 44.866L435.078 45.282L443.337 45.699L439.773 42.76C436.711 40.236 435.295 39.799 429.729 39.661C426.166 39.572 423.126 39.872 422.975 40.327C422.824 40.781 421.878 40.244 420.871 39.132C419.047 37.116 419.063 37.112 426.862 37.668C433.542 38.144 434.509 38.018 433.502 36.805C432.404 35.482 425.097 35.255 420.091 36.39C419.14 36.605 416.847 35.144 414.725 32.971L411.019 29.175L418.885 29.696C425.043 30.103 426.499 29.952 425.592 28.999C424.472 27.823 413.055 27.387 411.328 28.454C410.884 28.728 409.751 28.102 408.81 27.061C406.959 25.016 407.15 25.005 419.14 26.497L422.527 26.919L416.641 21.357C413.403 18.298 407 12.241 402.412 7.898L394.07 0H225.762C114.635 0 57.2444 0.34 56.8365 1ZM65.8344 3C66.1863 3.569 65.3255 4 63.8348 4C62.3442 4 61.4834 3.569 61.8353 3C62.1752 2.45 63.075 2 63.8348 2C64.5947 2 65.4944 2.45 65.8344 3ZM226.297 3C226.297 3.55 225.82 4 225.238 4C224.656 4 224.458 3.55 224.797 3C225.137 2.45 225.613 2 225.856 2C226.099 2 226.297 2.45 226.297 3ZM378.262 3C378.262 3.55 377.56 4 376.703 4C375.846 4 375.422 3.55 375.762 3C376.102 2.45 376.803 2 377.321 2C377.839 2 378.262 2.45 378.262 3ZM385.26 3C386.425 3.753 386.132 3.973 383.951 3.985C382.331 3.994 381.404 3.577 381.761 3C382.528 1.758 383.34 1.758 385.26 3ZM389.094 7.123C388.36 7.589 386.635 7.962 385.26 7.953C382.938 7.938 382.888 7.84 384.556 6.574C385.545 5.825 387.27 5.451 388.39 5.745C389.946 6.151 390.112 6.478 389.094 7.123ZM54.337 7C54.337 7.55 53.8871 8 53.3373 8C52.7874 8 52.3375 7.55 52.3375 7C52.3375 6.45 52.7874 6 53.3373 6C53.8871 6 54.337 6.45 54.337 7ZM258.019 6.604C257.687 6.936 256.824 6.972 256.103 6.683C255.305 6.364 255.542 6.127 256.707 6.079C257.761 6.036 258.351 6.272 258.019 6.604ZM284.358 7.772C274.776 7.924 266.587 7.7 266.16 7.274C265.733 6.848 273.572 6.724 283.582 6.998L301.78 7.495L284.358 7.772ZM331.273 7C332.445 7.758 332.187 7.973 330.082 7.985C328.602 7.993 327.114 7.55 326.774 7C325.985 5.723 329.297 5.723 331.273 7ZM395.258 7.545C395.258 7.727 394.389 7.81 393.327 7.73C392.266 7.65 391.606 7.248 391.86 6.836C392.283 6.153 395.258 6.773 395.258 7.545ZM59.3359 8C59.3359 8.55 60.5726 8.968 62.0852 8.93C64.5217 8.867 64.6067 8.762 62.8351 8C60.1047 6.826 59.3359 6.826 59.3359 8ZM72.6018 7.656C71.9249 7.93 70.5753 7.947 69.6025 7.693C68.6297 7.439 69.1836 7.215 70.8332 7.195C72.4828 7.175 73.2786 7.382 72.6018 7.656ZM82.0596 7.604C81.7277 7.936 80.8649 7.972 80.144 7.683C79.3462 7.364 79.5832 7.127 80.7479 7.079C81.8017 7.036 82.3915 7.272 82.0596 7.604ZM90.0907 7.687C89.135 7.937 87.3354 7.946 86.0917 7.707C84.8479 7.468 85.6298 7.263 87.8293 7.252C90.0287 7.241 91.0465 7.437 90.0907 7.687ZM105.589 7.704C104.359 7.941 102.11 7.947 100.59 7.718C99.0706 7.488 100.076 7.294 102.826 7.286C105.575 7.279 106.819 7.467 105.589 7.704ZM112.053 7.604C111.721 7.936 110.858 7.972 110.137 7.683C109.339 7.364 109.576 7.127 110.741 7.079C111.795 7.036 112.385 7.272 112.053 7.604ZM128.07 7.716C126.558 7.945 124.083 7.945 122.571 7.716C121.06 7.487 122.296 7.3 125.321 7.3C128.345 7.3 129.582 7.487 128.07 7.716ZM144.566 7.706C143.328 7.944 141.305 7.944 140.067 7.706C138.829 7.467 139.842 7.272 142.317 7.272C144.791 7.272 145.804 7.467 144.566 7.706ZM173.098 7.738C169.958 7.936 164.559 7.937 161.101 7.741C157.643 7.546 160.212 7.384 166.811 7.382C173.409 7.38 176.239 7.54 173.098 7.738ZM186.306 8C186.306 8.55 186.783 9 187.365 9C187.947 9 188.146 8.55 187.806 8C187.466 7.45 186.99 7 186.747 7C186.504 7 186.306 7.45 186.306 8ZM248.021 7.604C247.689 7.936 246.826 7.972 246.105 7.683C245.308 7.364 245.545 7.127 246.709 7.079C247.763 7.036 248.353 7.272 248.021 7.604ZM318.526 7.732C316.189 7.943 312.364 7.943 310.028 7.732C307.691 7.522 309.603 7.349 314.277 7.349C318.951 7.349 320.862 7.522 318.526 7.732ZM336.001 7.604C335.669 7.936 334.806 7.972 334.085 7.683C333.287 7.364 333.524 7.127 334.689 7.079C335.743 7.036 336.333 7.272 336.001 7.604ZM342.539 7.656C341.862 7.93 340.513 7.947 339.54 7.693C338.567 7.439 339.121 7.215 340.771 7.195C342.42 7.175 343.216 7.382 342.539 7.656ZM352.03 7.687C351.074 7.937 349.275 7.946 348.031 7.707C346.787 7.468 347.569 7.263 349.768 7.252C351.968 7.241 352.986 7.437 352.03 7.687ZM374.263 8C374.263 8.55 374.713 9 375.263 9C375.812 9 376.262 8.55 376.262 8C376.262 7.45 375.812 7 375.263 7C374.713 7 374.263 7.45 374.263 8ZM183.12 8.683C183.841 8.972 184.704 8.936 185.036 8.604C185.368 8.272 184.778 8.036 183.724 8.079C182.559 8.127 182.322 8.364 183.12 8.683ZM229.058 8.707C230.302 8.946 232.102 8.937 233.058 8.687C234.013 8.437 232.996 8.241 230.796 8.252C228.597 8.263 227.815 8.468 229.058 8.707ZM188.119 10.683C188.84 10.972 189.703 10.936 190.035 10.604C190.366 10.272 189.777 10.036 188.723 10.079C187.558 10.127 187.321 10.364 188.119 10.683ZM192.118 10.683C192.839 10.972 193.702 10.936 194.034 10.604C194.366 10.272 193.776 10.036 192.722 10.079C191.557 10.127 191.32 10.364 192.118 10.683ZM196.054 10.662C196.742 10.94 197.867 10.94 198.554 10.662C199.241 10.385 198.679 10.158 197.304 10.158C195.929 10.158 195.367 10.385 196.054 10.662ZM202.572 10.693C203.544 10.947 204.894 10.93 205.571 10.656C206.248 10.382 205.452 10.175 203.802 10.195C202.153 10.215 201.599 10.439 202.572 10.693ZM214.569 10.693C215.542 10.947 216.891 10.93 217.568 10.656C218.245 10.382 217.449 10.175 215.8 10.195C214.15 10.215 213.596 10.439 214.569 10.693ZM398.766 11.015C399.101 11.557 398.336 12.014 397.066 12.032C394.834 12.063 394.821 12.111 396.676 13.515C398.208 14.675 398.893 14.719 400.089 13.733C401.388 12.661 401.427 12.794 400.386 14.75C398.971 17.404 399.865 17.665 402.427 15.345C403.433 14.435 404.256 14.162 404.256 14.738C404.256 15.314 403.581 16.045 402.756 16.362C399.838 17.482 401.31 18.548 405.256 18.171C407.739 17.935 409.255 18.209 409.255 18.895C409.255 19.503 407.819 20 406.064 20C403.157 20 403.036 20.119 404.701 21.336C405.817 22.153 408.179 22.507 410.776 22.248C413.114 22.015 415.306 22.276 415.648 22.829C416.029 23.447 414.943 23.73 412.836 23.563C410.948 23.413 408.807 23.661 408.079 24.113C407.167 24.68 404.654 22.853 400.007 18.245C396.296 14.565 393.258 11.302 393.258 10.995C393.258 9.988 398.143 10.006 398.766 11.015ZM403.756 11C404.096 11.55 403.897 12 403.315 12C402.733 12 402.256 11.55 402.256 11C402.256 10.45 402.454 10 402.697 10C402.94 10 403.416 10.45 403.756 11ZM51.2478 13.111C52.8904 14.453 53.9831 14.754 54.68 14.057C56.0456 12.691 55.0009 11.796 51.6207 11.437L48.8383 11.142L51.2478 13.111ZM202.489 12.748C211.663 12.913 226.96 12.913 236.481 12.749C246.002 12.584 238.494 12.449 219.799 12.449C201.103 12.449 193.314 12.583 202.489 12.748ZM47.3477 15.489C46.099 16.994 44.3394 16.673 44.3394 14.941C44.3394 14.423 45.2941 14 46.4609 14C48.2275 14 48.3764 14.25 47.3477 15.489ZM7.34795 16.044C7.34795 17.34 12.4448 37.196 12.9457 37.85C13.0926 38.043 13.6495 37.931 14.1824 37.601C14.7932 37.224 14.6842 35.43 13.8904 32.751C11.8489 25.87 11.0931 20.725 12.2278 21.426C12.7817 21.769 16.4098 22.079 20.2889 22.115C24.169 22.152 27.3433 22.619 27.3433 23.154C27.3433 23.688 26.5555 24.046 25.5937 23.948C24.6319 23.85 23.3942 23.863 22.8444 23.978C22.2945 24.092 19.932 24.11 17.5956 24.017C14.9462 23.912 13.3466 24.285 13.3466 25.007C13.3466 25.789 15.0982 26.04 18.7373 25.781C22.8663 25.487 24.0121 25.702 23.6292 26.699C23.3552 27.414 21.9985 28 20.6159 28C18.4564 28 18.2824 28.22 19.3872 29.551C20.4739 30.86 20.3379 31.189 18.5094 31.667C16.6158 32.163 15.3661 34 16.9237 34C17.7755 34 32.3421 20.777 32.3421 20.004C32.3421 19.642 27.2813 18.772 21.0948 18.071C14.9092 17.37 9.2855 16.337 8.59766 15.776C7.71687 15.056 7.34795 15.135 7.34795 16.044ZM440.892 17.766C440.586 18.261 435.834 19.239 430.332 19.941L420.327 21.216L426.038 26.358C429.179 29.186 432.984 32.782 434.492 34.349C437.618 37.595 437.275 38.083 440.259 26.134C442.147 18.576 442.392 15.339 440.892 17.766ZM17.2626 19.644C17.4916 19.84 16.0289 20 14.0134 20C11.9969 20 10.3473 19.561 10.3473 19.025C10.3473 18.164 16.1379 18.682 17.2626 19.644ZM439.248 21C439.248 21.55 438.236 21.968 436.998 21.93C434.852 21.863 434.841 21.82 436.748 21C437.848 20.527 438.861 20.109 438.998 20.07C439.135 20.032 439.248 20.45 439.248 21ZM48.1405 22.531C47.0587 23.614 43.3396 23.849 43.3396 22.836C43.3396 22.258 44.0004 22.04 44.8073 22.349C45.6141 22.659 46.5588 22.452 46.9068 21.89C47.2547 21.327 47.7936 21.122 48.1055 21.433C48.4164 21.745 48.4324 22.239 48.1405 22.531ZM433.978 21.604C433.646 21.936 432.783 21.972 432.062 21.683C431.264 21.364 431.501 21.127 432.666 21.079C433.72 21.036 434.31 21.272 433.978 21.604ZM37.8869 23.925C37.5709 24.437 38.2518 25.154 39.4015 25.519C42.2388 26.42 42.9917 25.419 40.4863 24.078C39.2685 23.426 38.2328 23.365 37.8869 23.925ZM437.852 25.589C437.584 26.287 437.065 28.461 436.697 30.42C436.329 32.379 435.648 33.747 435.183 33.459C434.717 33.171 434.59 32.275 434.9 31.468C435.282 30.472 434.805 30 433.415 30C432.289 30 431.09 29.55 430.75 29C430.389 28.417 431.405 28 433.19 28C434.872 28 436.248 27.55 436.248 27C436.248 26.45 434.197 26 431.69 26C428.859 26 427.37 25.615 427.76 24.984C428.719 23.432 438.456 24.016 437.852 25.589ZM27.3433 28.5C26.2916 29.767 26.4965 30 28.662 30C31.6793 30 33.015 28.472 30.7545 27.605C28.672 26.805 28.771 26.779 27.3433 28.5ZM15.1591 28.683C15.88 28.972 16.7428 28.936 17.0747 28.604C17.4066 28.272 16.8168 28.036 15.763 28.079C14.5983 28.127 14.3613 28.364 15.1591 28.683ZM415.783 30.951C414.54 32.963 416.226 33.699 422.047 33.685C425.271 33.677 428.435 33.996 429.079 34.394C429.723 34.792 430.25 34.664 430.25 34.109C430.25 32.297 426.998 31.224 423.095 31.748C420.874 32.046 418.676 31.767 417.852 31.082C416.882 30.277 416.225 30.235 415.783 30.951ZM20.9278 34.542C17.1857 37.847 17.5566 38.843 21.8446 37C23.2133 36.412 23.3712 36.106 22.3445 36.03C21.4667 35.966 21.9856 35.301 23.5942 34.428C25.1068 33.607 26.3435 32.5 26.3435 31.968C26.3435 30.312 24.9869 30.957 20.9278 34.542ZM31.3424 31.858C31.3424 33.759 34.7106 34.057 36.2692 32.294C37.133 31.315 37.21 31.053 36.4382 31.71C35.4664 32.538 34.4667 32.602 33.189 31.918C32.0962 31.333 31.3424 31.309 31.3424 31.858ZM14.4173 40.415C13.6865 41.295 14.8182 41.585 18.8923 41.562C21.8906 41.545 24.344 41.187 24.344 40.766C24.344 40.344 23.7821 39.971 23.0943 39.936C22.4075 39.901 20.3929 39.729 18.6193 39.554C16.8457 39.379 14.9552 39.767 14.4173 40.415ZM438.244 42.596C439.034 43.386 437.761 43.74 433.649 43.874C430.521 43.977 427.637 44.261 427.239 44.507C426.843 44.752 425.753 44.108 424.819 43.075C423.17 41.253 423.33 41.201 430.136 41.35C433.995 41.435 437.644 41.996 438.244 42.596ZM10.7742 44.479C9.7144 45.28 9.2975 45.944 9.84737 45.953C11.333 45.977 13.8724 44.192 13.2446 43.565C12.9456 43.265 11.8339 43.677 10.7742 44.479ZM15.0502 44.204C14.3283 44.663 14.9702 44.975 16.6548 44.985C18.6333 44.995 19.2412 45.369 18.7123 46.25C18.1774 47.141 18.4344 47.117 19.6091 46.164C20.5159 45.429 21.6956 45.099 22.2315 45.43C22.7674 45.762 23.4592 45.622 23.7691 45.121C24.474 43.98 16.6898 43.162 15.0502 44.204ZM68.3998 47.035C70.9272 48.389 70.8422 49.755 68.0838 52.056C65.3435 54.343 63.4629 54.498 62.6971 52.5C62.3802 51.675 61.4944 51 60.7286 51C58.893 51 58.97 50.062 60.9905 47.829C62.8461 45.778 65.5164 45.492 68.3998 47.035ZM391.608 48.178C392.435 49.5 392.138 50.289 390.209 51.895C387.272 54.339 385.674 54.522 384.898 52.5C384.582 51.675 383.635 51 382.792 51C380.81 51 380.856 50.104 382.96 47.78C385.021 45.502 390.078 45.734 391.608 48.178ZM6.34818 48.5C4.9975 50.128 5.32042 50.332 7.76585 49.393C8.63565 49.059 9.34749 48.384 9.34749 47.893C9.34749 46.51 7.72786 46.838 6.34818 48.5ZM437.05 48.128C437.434 48.474 439.924 48.985 442.584 49.265C446.101 49.635 447.12 49.474 446.32 48.674C445.715 48.069 443.225 47.557 440.786 47.537C438.347 47.517 436.665 47.783 437.05 48.128ZM12.1088 48.707C13.3526 48.946 15.1521 48.937 16.1079 48.687C17.0637 48.437 16.0459 48.241 13.8464 48.252C11.647 48.263 10.8651 48.468 12.1088 48.707ZM18.3454 49.059C18.3454 49.641 18.7953 49.84 19.3452 49.5C19.895 49.16 20.3449 48.684 20.3449 48.441C20.3449 48.198 19.895 48 19.3452 48C18.7953 48 18.3454 48.477 18.3454 49.059ZM433.749 49C434.089 49.55 434.565 50 434.808 50C435.051 50 435.249 49.55 435.249 49C435.249 48.45 434.772 48 434.19 48C433.608 48 433.409 48.45 433.749 49ZM5.11647 52.168C5.69833 52.75 6.76309 53.028 7.48492 52.788C8.23375 52.538 7.77985 52.085 6.42816 51.731C4.76555 51.296 4.37464 51.426 5.11647 52.168ZM446.238 52.107C445.112 52.88 445.36 52.973 447.246 52.486C449.074 52.014 447.331 54.211 440.747 60.672C431.367 69.877 406.038 93.689 398.257 100.616L393.758 104.621L225.703 104.55L57.6473 104.479L35.7474 83.9C2.92498 53.058 1.49131 51.785 0.11863 52.256C-0.621199 52.51 2.15916 55.822 6.79008 60.205L14.7312 67.718L12.4668 76.953C9.85637 87.6 10.0313 89.938 12.7327 80.503C14.6503 73.804 14.6633 73.797 19.3162 76.804C19.5751 76.972 19.1252 77.527 18.3164 78.039C17.2027 78.743 17.5216 78.973 19.6261 78.985C21.1947 78.993 22.6644 79.67 22.9973 80.537C23.3212 81.382 24.9939 82.823 26.7145 83.738L29.8427 85.402L25.3438 86.068C22.8693 86.435 18.2574 87.052 15.0962 87.439C11.593 87.869 9.34749 88.625 9.34749 89.375C9.34749 90.341 11.7639 90.312 20.5949 89.239C28.641 88.262 32.3361 88.176 33.5779 88.936C34.5326 89.521 35.9873 90 36.8101 90C37.6319 90 42.5308 93.825 47.6966 98.5L57.0874 107H226.205H395.323L403.038 99.515C413.73 89.144 417.504 87.764 431.064 89.269C436.631 89.887 441.501 90.08 441.884 89.696C443.205 88.375 442.195 88.126 428.5 86.39C425.614 86.024 423.251 85.337 423.251 84.862C423.251 84.388 423.678 84 424.199 84C424.721 84 426.362 82.875 427.845 81.5C429.328 80.125 431.361 79 432.364 79C433.495 79 433.987 78.481 433.661 77.631C433.35 76.821 433.97 76.045 435.181 75.728C436.865 75.287 437.432 75.882 438.397 79.103C440.193 85.102 440.471 83.06 438.821 75.983C437.872 71.913 437.676 69.07 438.268 67.963C438.773 67.02 442.349 63.193 446.216 59.459C450.083 55.724 453.134 52.582 452.995 52.475C451.768 51.528 447.427 51.291 446.238 52.107ZM439.061 52.683C439.782 52.972 440.644 52.936 440.976 52.604C441.308 52.272 440.718 52.036 439.665 52.079C438.5 52.127 438.263 52.364 439.061 52.683ZM442.247 53.059C442.247 53.641 442.697 53.84 443.247 53.5C443.797 53.16 444.246 52.684 444.246 52.441C444.246 52.198 443.797 52 443.247 52C442.697 52 442.247 52.477 442.247 53.059ZM439.517 56.693C440.489 56.947 441.839 56.93 442.516 56.656C443.193 56.382 442.397 56.175 440.747 56.195C439.098 56.215 438.544 56.439 439.517 56.693ZM440.326 85.583C440.374 86.748 440.611 86.985 440.93 86.188C441.219 85.466 441.183 84.603 440.851 84.271C440.519 83.939 440.283 84.529 440.326 85.583Z" fill="#8FFF00"/>
<path d="M115.32 51.36V49.84C115.32 49.6267 115.16 49.52 114.84 49.52H102.28V36.56C102.28 36.32 102.133 36.2 101.84 36.2H100.4C100.08 36.2 99.92 36.32 99.92 36.56V49.52H87.52C87.2 49.52 87.04 49.6267 87.04 49.84V51.36C87.04 51.6 87.2 51.72 87.52 51.72H99.92V64.56C99.92 64.8 100.08 64.92 100.4 64.92H101.84C102.133 64.92 102.28 64.8 102.28 64.56V51.72H114.84C115.16 51.72 115.32 51.6 115.32 51.36ZM142.757 58.76L141.877 58.64C141.584 59.3867 141.251 59.9867 140.877 60.44C140.531 60.8933 140.117 61.24 139.637 61.48C139.184 61.72 138.677 61.88 138.117 61.96C137.557 62.0133 136.917 62.04 136.197 62.04H132.917H131.517C132.637 61.2133 133.797 60.2 134.997 59C136.224 57.8 137.331 56.5067 138.317 55.12C139.304 53.7333 140.117 52.3067 140.757 50.84C141.397 49.3733 141.717 47.9333 141.717 46.52C141.717 45.2667 141.451 44.24 140.917 43.44C140.411 42.64 139.744 42.0133 138.917 41.56C138.117 41.1067 137.197 40.8 136.157 40.64C135.117 40.4533 134.077 40.36 133.037 40.36C132.317 40.36 131.544 40.48 130.717 40.72C129.891 40.96 129.171 41.2267 128.557 41.52C128.371 41.5733 128.277 41.6667 128.277 41.8C128.251 41.9867 128.224 42.1867 128.197 42.4C128.197 42.5867 128.197 42.7867 128.197 43C128.197 43.5867 128.224 44.1733 128.277 44.76C128.357 45.3467 128.504 45.9467 128.717 46.56C128.797 46.7467 128.957 46.8267 129.197 46.8C129.464 46.7733 129.597 46.6667 129.597 46.48C129.624 45.3067 129.957 44.2933 130.597 43.44C131.237 42.5867 132.144 42.16 133.317 42.16C134.011 42.16 134.651 42.3067 135.237 42.6C135.851 42.8933 136.371 43.2933 136.797 43.8C137.251 44.3067 137.597 44.88 137.837 45.52C138.077 46.16 138.197 46.8133 138.197 47.48C138.197 48.52 137.957 49.5867 137.477 50.68C136.997 51.7733 136.371 52.8667 135.597 53.96C134.851 55.0267 134.011 56.0933 133.077 57.16C132.171 58.2 131.264 59.2 130.357 60.16C129.744 60.8267 129.157 61.4667 128.597 62.08C128.037 62.6933 127.544 63.2667 127.117 63.8C126.984 63.9333 126.957 64.0667 127.037 64.2C127.117 64.3333 127.264 64.4 127.477 64.4H140.517C140.917 64.4 141.251 64.16 141.517 63.68C141.811 63.1733 142.051 62.6 142.237 61.96C142.424 61.32 142.557 60.6933 142.637 60.08C142.717 59.44 142.757 59 142.757 58.76ZM179.581 53.56C179.581 53.1867 179.581 52.8133 179.581 52.44C179.581 52.04 179.554 51.6533 179.501 51.28C179.368 50.1067 178.848 49 177.941 47.96C177.061 46.92 176.008 46.0267 174.781 45.28C173.554 44.5067 172.261 43.9067 170.901 43.48C169.541 43.0267 168.328 42.8 167.261 42.8C166.701 42.8 166.088 42.8133 165.421 42.84C164.781 42.8667 164.181 42.8933 163.621 42.92C162.448 43 161.288 43.04 160.141 43.04C159.688 43.04 159.194 43.0267 158.661 43C158.128 42.9733 157.621 42.9467 157.141 42.92C156.768 42.8933 156.394 42.88 156.021 42.88C155.674 42.8533 155.314 42.84 154.941 42.84C154.754 42.84 154.621 42.8933 154.541 43C154.461 43.08 154.448 43.1867 154.501 43.32C154.581 43.48 154.728 43.6 154.941 43.68C155.181 43.7333 155.421 43.7867 155.661 43.84C155.981 43.8933 156.301 43.9867 156.621 44.12C156.941 44.2533 157.101 44.5867 157.101 45.12V61.36C157.101 62.2667 156.981 62.8933 156.741 63.24C156.528 63.5867 156.021 63.8267 155.221 63.96C154.954 64.0133 154.834 64.1467 154.861 64.36C154.888 64.5733 155.034 64.68 155.301 64.68C156.128 64.6533 157.008 64.6667 157.941 64.72C158.874 64.7733 159.768 64.8267 160.621 64.88C161.394 64.9333 162.168 64.9867 162.941 65.04C163.741 65.0667 164.528 65.08 165.301 65.08C167.194 65.08 169.008 64.88 170.741 64.48C172.474 64.08 173.994 63.4267 175.301 62.52C176.608 61.6133 177.648 60.4267 178.421 58.96C179.194 57.4933 179.581 55.6933 179.581 53.56ZM175.941 54.68C175.941 56.28 175.648 57.64 175.061 58.76C174.474 59.8533 173.688 60.76 172.701 61.48C171.714 62.1733 170.568 62.68 169.261 63C167.954 63.32 166.594 63.48 165.181 63.48C164.514 63.48 163.914 63.4533 163.381 63.4C162.848 63.3467 162.381 63.2133 161.981 63C161.608 62.7867 161.314 62.4667 161.101 62.04C160.914 61.6133 160.821 61.0267 160.821 60.28V44.84C161.354 44.68 161.888 44.5733 162.421 44.52C162.954 44.4667 163.488 44.44 164.021 44.44C165.594 44.44 167.101 44.6533 168.541 45.08C169.981 45.5067 171.248 46.1467 172.341 47C173.434 47.8267 174.301 48.8933 174.941 50.2C175.608 51.48 175.941 52.9733 175.941 54.68ZM196.57 60.8C196.597 60.72 196.557 60.6533 196.45 60.6C196.37 60.52 196.277 60.48 196.17 60.48C196.064 60.4533 195.957 60.4667 195.85 60.52C195.744 60.5467 195.677 60.6 195.65 60.68C195.41 61.6133 194.93 62.2933 194.21 62.72C193.49 63.12 192.704 63.32 191.85 63.32C191.157 63.32 190.424 63.1867 189.65 62.92C188.877 62.6533 188.277 62.2267 187.85 61.64V53.88H188.37C188.69 53.88 189.09 53.88 189.57 53.88C190.05 53.88 190.53 53.8933 191.01 53.92C191.517 53.9467 191.97 54 192.37 54.08C192.77 54.1333 193.037 54.2133 193.17 54.32C193.25 54.3733 193.33 54.5067 193.41 54.72C193.517 54.9333 193.61 55.16 193.69 55.4C193.717 55.5333 193.717 55.64 193.69 55.72C193.69 55.7733 193.85 55.8933 194.17 56.08C194.304 56.1867 194.45 56.2133 194.61 56.16C194.77 56.1067 194.864 56.0133 194.89 55.88C194.944 55.5067 194.997 55.16 195.05 54.84C195.104 54.52 195.157 54.2 195.21 53.88C195.264 53.5333 195.304 53.12 195.33 52.64C195.384 52.16 195.437 51.7467 195.49 51.4C195.517 51.2667 195.464 51.16 195.33 51.08C195.224 50.9733 195.077 50.9467 194.89 51C194.73 51.0533 194.557 51.1733 194.37 51.36C194.21 51.5467 194.024 51.6933 193.81 51.8H193.85C193.61 51.88 193.384 51.9733 193.17 52.08C192.957 52.16 192.784 52.2 192.65 52.2H187.85V44.56H188.57C188.784 44.56 188.997 44.56 189.21 44.56C189.424 44.5333 189.624 44.52 189.81 44.52C190.024 44.52 190.224 44.52 190.41 44.52C190.624 44.4933 190.837 44.48 191.05 44.48C191.424 44.48 191.797 44.5067 192.17 44.56C192.544 44.6133 192.877 44.72 193.17 44.88C193.464 45.0133 193.704 45.2133 193.89 45.48C194.077 45.7467 194.184 46.1067 194.21 46.56C194.237 46.7733 194.384 46.88 194.65 46.88C194.917 46.88 195.077 46.7867 195.13 46.6C195.184 46.44 195.224 46.28 195.25 46.12C195.277 45.96 195.317 45.7867 195.37 45.6C195.477 45.1733 195.584 44.7467 195.69 44.32C195.797 43.8933 195.877 43.4267 195.93 42.92C195.957 42.7867 195.904 42.68 195.77 42.6C195.637 42.52 195.477 42.5067 195.29 42.56C194.917 42.6933 194.184 42.7867 193.09 42.84C191.997 42.8933 190.784 42.92 189.45 42.92C188.517 42.92 187.597 42.92 186.69 42.92C185.784 42.8933 184.944 42.8667 184.17 42.84C183.69 42.84 183.25 42.84 182.85 42.84C182.477 42.8133 182.17 42.8 181.93 42.8C181.69 42.8 181.53 42.88 181.45 43.04C181.37 43.2 181.437 43.3333 181.65 43.44C181.864 43.5733 182.077 43.6667 182.29 43.72C182.53 43.7733 182.757 43.8267 182.97 43.88C183.264 43.9333 183.53 44.04 183.77 44.2C184.037 44.3333 184.17 44.6267 184.17 45.08V61.48C184.17 62.2 184.05 62.7867 183.81 63.24C183.57 63.6667 183.077 63.8933 182.33 63.92C182.09 63.92 181.957 64.04 181.93 64.28C181.93 64.4933 182.05 64.6133 182.29 64.64C183.224 64.6933 184.17 64.72 185.13 64.72C186.09 64.6933 187.05 64.68 188.01 64.68C188.437 64.68 188.864 64.68 189.29 64.68C189.717 64.6533 190.144 64.64 190.57 64.64C190.757 64.64 191.077 64.6533 191.53 64.68C192.01 64.68 192.504 64.6933 193.01 64.72C193.544 64.72 194.037 64.72 194.49 64.72C194.944 64.72 195.25 64.6933 195.41 64.64L195.73 64.48L196.57 60.8ZM213.205 42.92L212.565 42.56C212.299 42.6933 212.019 42.7867 211.725 42.84C211.432 42.8667 211.139 42.88 210.845 42.88H206.325C205.045 42.88 203.779 42.88 202.525 42.88C201.299 42.88 200.045 42.8533 198.765 42.8C198.525 42.8 198.379 42.8933 198.325 43.08C198.299 43.2667 198.392 43.3867 198.605 43.44C198.819 43.5467 199.019 43.64 199.205 43.72C199.419 43.7733 199.632 43.8267 199.845 43.88C200.139 43.9333 200.405 44.04 200.645 44.2C200.912 44.36 201.045 44.6933 201.045 45.2V61.48C201.045 61.9867 201.019 62.3867 200.965 62.68C200.939 62.9733 200.859 63.2 200.725 63.36C200.592 63.52 200.392 63.64 200.125 63.72C199.885 63.8 199.552 63.8667 199.125 63.92C198.885 63.9733 198.779 64.1067 198.805 64.32C198.832 64.5333 198.965 64.64 199.205 64.64C199.899 64.6667 200.579 64.6933 201.245 64.72C201.939 64.72 202.632 64.72 203.325 64.72C203.992 64.72 204.659 64.72 205.325 64.72C205.992 64.72 206.659 64.6933 207.325 64.64C207.592 64.6133 207.712 64.4933 207.685 64.28C207.659 64.04 207.512 63.92 207.245 63.92C206.232 63.9733 205.552 63.8133 205.205 63.44C204.885 63.0667 204.725 62.3733 204.725 61.36V53.96C204.859 53.9867 204.979 54 205.085 54C205.219 54 205.352 54 205.485 54C205.725 54 205.952 54 206.165 54C206.379 53.9733 206.592 53.9467 206.805 53.92C207.045 53.8933 207.272 53.88 207.485 53.88C207.699 53.8533 207.912 53.84 208.125 53.84C208.872 53.84 209.499 53.9867 210.005 54.28C210.539 54.5467 210.792 55.0933 210.765 55.92C210.765 56.08 210.845 56.2 211.005 56.28C211.165 56.3333 211.325 56.3067 211.485 56.2C211.699 56.0667 211.859 55.84 211.965 55.52C212.099 55.1733 212.192 54.8133 212.245 54.44C212.299 54.04 212.325 53.6533 212.325 53.28C212.352 52.88 212.365 52.5333 212.365 52.24V51.76C212.365 51.6 212.272 51.4933 212.085 51.44C211.899 51.36 211.725 51.3733 211.565 51.48C211.432 51.6133 211.232 51.7733 210.965 51.96C210.699 52.12 210.499 52.2 210.365 52.2H204.725V44.88C205.072 44.88 205.339 44.8667 205.525 44.84C205.712 44.8133 205.992 44.7733 206.365 44.72C206.765 44.6667 207.165 44.6267 207.565 44.6C207.965 44.5467 208.352 44.52 208.725 44.52C209.472 44.52 210.112 44.6667 210.645 44.96C211.179 45.2267 211.459 45.7867 211.485 46.64C211.485 46.8 211.565 46.92 211.725 47C211.885 47.0533 212.045 47.04 212.205 46.96C212.365 46.8533 212.499 46.6933 212.605 46.48C212.739 46.24 212.832 45.9867 212.885 45.72C212.965 45.4267 213.019 45.12 213.045 44.8C213.099 44.48 213.125 44.1867 213.125 43.92C213.125 43.84 213.125 43.7333 213.125 43.6C213.152 43.4667 213.165 43.3467 213.165 43.24C213.192 43.1067 213.205 43.0133 213.205 42.96C213.205 42.88 213.205 42.8667 213.205 42.92ZM230.086 60.8C230.113 60.72 230.073 60.6533 229.966 60.6C229.886 60.52 229.793 60.48 229.686 60.48C229.579 60.4533 229.473 60.4667 229.366 60.52C229.259 60.5467 229.193 60.6 229.166 60.68C228.926 61.6133 228.446 62.2933 227.726 62.72C227.006 63.12 226.219 63.32 225.366 63.32C224.673 63.32 223.939 63.1867 223.166 62.92C222.393 62.6533 221.793 62.2267 221.366 61.64V53.88H221.886C222.206 53.88 222.606 53.88 223.086 53.88C223.566 53.88 224.046 53.8933 224.526 53.92C225.033 53.9467 225.486 54 225.886 54.08C226.286 54.1333 226.553 54.2133 226.686 54.32C226.766 54.3733 226.846 54.5067 226.926 54.72C227.033 54.9333 227.126 55.16 227.206 55.4C227.233 55.5333 227.233 55.64 227.206 55.72C227.206 55.7733 227.366 55.8933 227.686 56.08C227.819 56.1867 227.966 56.2133 228.126 56.16C228.286 56.1067 228.379 56.0133 228.406 55.88C228.459 55.5067 228.513 55.16 228.566 54.84C228.619 54.52 228.673 54.2 228.726 53.88C228.779 53.5333 228.819 53.12 228.846 52.64C228.899 52.16 228.953 51.7467 229.006 51.4C229.033 51.2667 228.979 51.16 228.846 51.08C228.739 50.9733 228.593 50.9467 228.406 51C228.246 51.0533 228.073 51.1733 227.886 51.36C227.726 51.5467 227.539 51.6933 227.326 51.8H227.366C227.126 51.88 226.899 51.9733 226.686 52.08C226.473 52.16 226.299 52.2 226.166 52.2H221.366V44.56H222.086C222.299 44.56 222.513 44.56 222.726 44.56C222.939 44.5333 223.139 44.52 223.326 44.52C223.539 44.52 223.739 44.52 223.926 44.52C224.139 44.4933 224.353 44.48 224.566 44.48C224.939 44.48 225.313 44.5067 225.686 44.56C226.059 44.6133 226.393 44.72 226.686 44.88C226.979 45.0133 227.219 45.2133 227.406 45.48C227.593 45.7467 227.699 46.1067 227.726 46.56C227.753 46.7733 227.899 46.88 228.166 46.88C228.433 46.88 228.593 46.7867 228.646 46.6C228.699 46.44 228.739 46.28 228.766 46.12C228.793 45.96 228.833 45.7867 228.886 45.6C228.993 45.1733 229.099 44.7467 229.206 44.32C229.313 43.8933 229.393 43.4267 229.446 42.92C229.473 42.7867 229.419 42.68 229.286 42.6C229.153 42.52 228.993 42.5067 228.806 42.56C228.433 42.6933 227.699 42.7867 226.606 42.84C225.513 42.8933 224.299 42.92 222.966 42.92C222.033 42.92 221.113 42.92 220.206 42.92C219.299 42.8933 218.459 42.8667 217.686 42.84C217.206 42.84 216.766 42.84 216.366 42.84C215.993 42.8133 215.686 42.8 215.446 42.8C215.206 42.8 215.046 42.88 214.966 43.04C214.886 43.2 214.953 43.3333 215.166 43.44C215.379 43.5733 215.593 43.6667 215.806 43.72C216.046 43.7733 216.273 43.8267 216.486 43.88C216.779 43.9333 217.046 44.04 217.286 44.2C217.553 44.3333 217.686 44.6267 217.686 45.08V61.48C217.686 62.2 217.566 62.7867 217.326 63.24C217.086 63.6667 216.593 63.8933 215.846 63.92C215.606 63.92 215.473 64.04 215.446 64.28C215.446 64.4933 215.566 64.6133 215.806 64.64C216.739 64.6933 217.686 64.72 218.646 64.72C219.606 64.6933 220.566 64.68 221.526 64.68C221.953 64.68 222.379 64.68 222.806 64.68C223.233 64.6533 223.659 64.64 224.086 64.64C224.273 64.64 224.593 64.6533 225.046 64.68C225.526 64.68 226.019 64.6933 226.526 64.72C227.059 64.72 227.553 64.72 228.006 64.72C228.459 64.72 228.766 64.6933 228.926 64.64L229.246 64.48L230.086 60.8ZM258.441 43.64L258.281 42.96C257.321 42.9067 256.361 42.8667 255.401 42.84C254.441 42.7867 253.468 42.7733 252.481 42.8L251.041 42.84C250.828 42.84 250.681 42.92 250.601 43.08C250.521 43.24 250.574 43.36 250.761 43.44C251.081 43.6267 251.494 43.7467 252.001 43.8C252.188 43.8267 252.374 43.8667 252.561 43.92C252.748 43.9467 252.921 44.0267 253.081 44.16C253.241 44.2667 253.374 44.4533 253.481 44.72C253.588 44.96 253.641 45.2933 253.641 45.72V48.16C253.641 48.5867 253.628 49 253.601 49.4C253.601 49.8 253.601 50.2133 253.601 50.64C253.601 51.3067 253.614 52.0133 253.641 52.76C253.668 53.5067 253.708 54.2133 253.761 54.88C253.788 55.7067 253.814 56.52 253.841 57.32C253.868 58.0933 253.868 58.8933 253.841 59.72C250.854 56.7867 247.854 53.8933 244.841 51.04C241.828 48.16 238.788 45.3067 235.721 42.48C235.668 42.4267 235.574 42.4 235.441 42.4C235.334 42.3733 235.241 42.3867 235.161 42.44C235.028 42.5467 234.894 42.68 234.761 42.84C234.628 42.9733 234.561 43.1467 234.561 43.36V62.24C234.561 62.7733 234.401 63.1867 234.081 63.48C233.761 63.7467 233.374 63.8533 232.921 63.8H232.441C232.201 63.8 232.054 63.9067 232.001 64.12C231.974 64.3333 232.081 64.4667 232.321 64.52C232.881 64.6533 233.454 64.7333 234.041 64.76C234.654 64.7867 235.268 64.8 235.881 64.8H237.281C237.734 64.8 238.201 64.8 238.681 64.8C239.161 64.7733 239.628 64.7733 240.081 64.8C240.321 64.8 240.481 64.72 240.561 64.56C240.641 64.4 240.574 64.2667 240.361 64.16C240.121 63.9733 239.868 63.8667 239.601 63.84C239.334 63.7867 239.081 63.7333 238.841 63.68C238.654 63.6533 238.468 63.6133 238.281 63.56C238.121 63.5067 237.961 63.4133 237.801 63.28C237.668 63.1467 237.561 62.9467 237.481 62.68C237.401 62.3867 237.361 62.0133 237.361 61.56C237.361 60.5467 237.348 59.5467 237.321 58.56C237.294 57.5733 237.254 56.5867 237.201 55.6C237.148 54.5867 237.094 53.5867 237.041 52.6C237.014 51.6133 237.001 50.6133 237.001 49.6C237.001 49.3333 237.001 49.08 237.001 48.84C237.001 48.6 237.014 48.36 237.041 48.12L239.121 50.16H239.081C241.641 52.7467 244.241 55.32 246.881 57.88C249.548 60.4133 252.374 62.8 255.361 65.04C255.521 65.12 255.681 65.1467 255.841 65.12C256.001 65.0667 256.094 64.96 256.121 64.8C256.281 63.12 256.388 61.4533 256.441 59.8C256.494 58.12 256.521 56.4267 256.521 54.72C256.521 53.9733 256.508 53.1467 256.481 52.24C256.481 51.3067 256.481 50.4533 256.481 49.68C256.454 48.8533 256.441 48.04 256.441 47.24C256.441 46.4133 256.441 45.5733 256.441 44.72C256.441 44.4267 256.601 44.2133 256.921 44.08C257.241 43.9467 257.561 43.84 257.881 43.76H257.841C258.001 43.7067 258.134 43.68 258.241 43.68C258.374 43.6533 258.441 43.64 258.441 43.64ZM273.99 58.92C273.99 58.2267 273.83 57.5733 273.51 56.96C273.19 56.3467 272.777 55.76 272.27 55.2C271.763 54.64 271.19 54.12 270.55 53.64C269.91 53.1333 269.283 52.64 268.67 52.16C268.19 51.7867 267.697 51.4 267.19 51C266.683 50.6 266.217 50.1867 265.79 49.76C265.39 49.3067 265.057 48.8533 264.79 48.4C264.55 47.9467 264.43 47.4933 264.43 47.04C264.43 46.5333 264.537 46.08 264.75 45.68C264.963 45.28 265.243 44.9467 265.59 44.68C265.937 44.4133 266.323 44.2133 266.75 44.08C267.203 43.92 267.657 43.84 268.11 43.84C268.563 43.84 269.003 43.9067 269.43 44.04C269.883 44.1733 270.283 44.3733 270.63 44.64C271.003 44.9067 271.297 45.2267 271.51 45.6C271.75 45.9733 271.87 46.4133 271.87 46.92C271.87 47.1067 271.963 47.2267 272.15 47.28C272.363 47.3333 272.55 47.2933 272.71 47.16C273.03 46.8133 273.203 46.3733 273.23 45.84C273.283 45.28 273.31 44.7333 273.31 44.2V43.08C273.363 42.8667 273.243 42.7333 272.95 42.68C271.857 42.44 270.737 42.32 269.59 42.32C268.87 42.32 268.003 42.4133 266.99 42.6C266.003 42.76 265.057 43.04 264.15 43.44C263.243 43.84 262.47 44.3733 261.83 45.04C261.217 45.7067 260.91 46.5333 260.91 47.52C260.91 48.1333 261.057 48.7333 261.35 49.32C261.67 49.88 262.083 50.4533 262.59 51.04C263.097 51.6 263.657 52.16 264.27 52.72C264.91 53.28 265.55 53.8267 266.19 54.36C266.75 54.84 267.297 55.32 267.83 55.8C268.39 56.28 268.883 56.7733 269.31 57.28C269.763 57.7867 270.123 58.28 270.39 58.76C270.683 59.24 270.83 59.72 270.83 60.2C270.83 60.7333 270.683 61.2 270.39 61.6C270.097 62 269.723 62.3333 269.27 62.6C268.817 62.8667 268.323 63.08 267.79 63.24C267.283 63.3733 266.817 63.44 266.39 63.44C265.883 63.44 265.363 63.3733 264.83 63.24C264.323 63.1067 263.857 62.9067 263.43 62.64C263.003 62.3467 262.657 62 262.39 61.6C262.15 61.1733 262.057 60.68 262.11 60.12V59.64C262.11 59.5333 262.057 59.4533 261.95 59.4C261.87 59.3467 261.777 59.32 261.67 59.32C261.563 59.32 261.457 59.3467 261.35 59.4C261.243 59.4267 261.19 59.4933 261.19 59.6C261.163 60.0533 261.083 60.4267 260.95 60.72C260.843 61.0133 260.75 61.3067 260.67 61.6C260.617 61.8667 260.59 62.1333 260.59 62.4C260.59 62.96 260.737 63.4267 261.03 63.8C261.35 64.1467 261.723 64.4267 262.15 64.64C262.603 64.8533 263.083 65 263.59 65.08C264.097 65.16 264.563 65.2 264.99 65.2C265.843 65.2 266.79 65.0667 267.83 64.8C268.897 64.5067 269.883 64.0933 270.79 63.56C271.697 63.0267 272.457 62.3733 273.07 61.6C273.683 60.8267 273.99 59.9333 273.99 58.92ZM300.588 64.56V63.84C300.001 63.7867 299.428 63.6667 298.868 63.48C298.308 63.2933 297.868 62.8933 297.548 62.28C296.535 60.44 295.601 58.5467 294.748 56.6C293.921 54.6267 293.095 52.68 292.268 50.76L290.508 46.64V46.68C290.455 46.6 290.401 46.4933 290.348 46.36C290.295 46.2 290.228 46.0267 290.148 45.84V45.88C290.015 45.5867 289.868 45.2533 289.708 44.88C289.548 44.5067 289.375 44.16 289.188 43.84C289.001 43.4933 288.815 43.1867 288.628 42.92C288.441 42.6533 288.255 42.48 288.068 42.4C287.775 42.32 287.575 42.3733 287.468 42.56C286.668 44.4267 285.868 46.2933 285.068 48.16C284.295 50.0267 283.521 51.9067 282.748 53.8C282.215 55.08 281.655 56.4 281.068 57.76C280.508 59.0933 279.961 60.4 279.428 61.68C279.295 61.92 279.108 62.1867 278.868 62.48C278.655 62.7733 278.415 63.04 278.148 63.28C277.881 63.4933 277.601 63.6533 277.308 63.76C277.015 63.8667 276.735 63.88 276.468 63.8L276.308 64.52L283.348 64.64C283.615 64.64 283.748 64.5333 283.748 64.32C283.775 64.08 283.655 63.9467 283.388 63.92C283.121 63.8667 282.815 63.8 282.468 63.72C282.121 63.6133 281.948 63.4133 281.948 63.12C281.948 62.88 282.028 62.48 282.188 61.92C282.375 61.3333 282.601 60.7067 282.868 60.04C283.135 59.3733 283.401 58.7067 283.668 58.04C283.935 57.3733 284.175 56.8267 284.388 56.4H290.828C291.388 57.6533 291.921 58.8533 292.428 60C292.935 61.1467 293.455 62.3467 293.988 63.6L293.628 64.04C293.468 64.1733 293.415 64.3067 293.468 64.44C293.548 64.5733 293.695 64.64 293.908 64.64C294.388 64.6667 294.855 64.6933 295.308 64.72C295.761 64.72 296.228 64.72 296.708 64.72C297.375 64.72 298.028 64.7067 298.668 64.68C299.308 64.6533 299.948 64.6133 300.588 64.56ZM290.108 54.68H285.028C285.535 53.48 285.961 52.36 286.308 51.32C286.681 50.2533 287.095 49.1333 287.548 47.96L290.108 54.68Z" fill="black"/>
<path d="M338.483 20.2935C335.725 20.3201 332.895 21.1133 331.423 22.6423L332.065 26.256L329.376 26.2746L329.912 27.9951L331.745 33.8777C331.954 38.3571 330.514 41.9444 328.344 45.3093C325.652 49.4818 321.779 53.1895 318.685 57.3069C317.035 59.5029 316.435 62.0622 316.789 64.5334C317.143 67.0042 318.405 69.3763 320.328 71.4294C324.175 75.5358 330.695 78.4379 338.649 78.3821C346.187 78.3298 352.646 75.3316 356.534 71.1923C358.478 69.1225 359.791 66.7488 360.189 64.2711C360.586 61.7931 360.006 59.2145 358.312 57.0291H358.312C355.153 52.9546 351.214 49.3016 348.45 45.1669C346.181 41.7715 344.666 38.1353 344.867 33.5384L347.04 26.1533L344.528 26.1704L345.112 22.5469C343.928 21.0078 341.242 20.2673 338.484 20.2939L338.483 20.2935ZM343.466 28.848L342.526 32.0398C339.314 33.5646 336.634 33.4491 333.994 32.128L332.995 28.9203L343.466 28.848ZM342.215 35.0627C342.396 39.5609 344.03 43.355 346.233 46.6515C347.285 48.2252 348.461 49.6998 349.67 51.1177C346.707 50.304 342.62 49.7809 338.129 49.7809C334.108 49.7809 330.412 50.201 327.555 50.8726C328.623 49.5608 329.655 48.1994 330.585 46.7581C332.719 43.4491 334.282 39.6562 334.406 35.1888C336.85 35.997 339.495 36.0068 342.215 35.0627H342.215ZM353.003 54.8912C353.613 55.5749 354.214 56.2549 354.79 56.9325C353.752 57.6084 352.443 58.1486 350.894 58.609C347.547 59.6036 343.073 60.1885 338.129 60.1885C333.185 60.1885 328.711 59.6035 325.364 58.609C324.108 58.2356 323.012 57.8085 322.088 57.3003C322.658 56.6044 323.255 55.9056 323.862 55.2037C324.486 55.4981 325.247 55.7887 326.123 56.0491C329.116 56.9379 333.399 57.5181 338.129 57.5181C342.859 57.5181 347.143 56.9379 350.135 56.0491C351.321 55.6967 352.299 55.2897 353.003 54.8913L353.003 54.8912ZM316.229 69.8955C309.07 71.843 304.445 74.7274 304.445 77.9271C304.445 83.7885 319.65 88.5518 338.374 88.5518C357.098 88.5518 372.304 83.7885 372.304 77.9271C372.304 74.739 367.719 71.8427 360.604 69.8955C363.063 71.1645 364.532 72.6464 364.532 74.246C364.532 78.8374 352.783 82.6121 338.375 82.6121C323.966 82.6121 312.301 78.837 312.301 74.246C312.301 72.6376 313.744 71.1686 316.229 69.8955H316.228H316.229Z" fill="black"/>
</svg>
