<svg width="453" height="107" viewBox="0 0 453 107" fill="none" xmlns="http://www.w3.org/2000/svg">
<path fill-rule="evenodd" clip-rule="evenodd" d="M56.8365 1C56.4965 1.55 56.7215 2 57.3363 2C57.9512 2 58.1881 2.43 57.8632 2.956C57.5383 3.482 56.7245 3.705 56.0546 3.45C55.3848 3.196 53.1323 4.509 51.0488 6.367C47.6026 9.441 47.4446 9.794 49.2992 10.28C50.4199 10.573 51.3377 10.405 51.3377 9.906C51.3377 8.339 53.1823 8.917 55.2458 11.132C57.2294 13.262 57.2294 13.266 55.0349 15.06C52.8874 16.815 52.7754 16.788 50.095 13.874C46.8368 10.331 46.9178 10.298 37.455 19.165C30.3106 25.861 28.741 27.928 32.2112 26.07C33.2379 25.52 34.4247 25.392 34.8466 25.785C35.2695 26.178 35.4024 25.825 35.1415 25C34.8366 24.034 35.7594 23.038 37.7349 22.201C39.9784 21.251 40.4423 20.681 39.4645 20.076C38.3807 19.407 38.3717 19.099 39.4155 18.453C40.9891 17.481 52.3375 17.162 52.3375 18.091C52.3375 19.453 49.1812 21.366 48.5124 20.408C47.7786 19.359 42.7947 19.212 41.796 20.21C40.8622 21.145 43.2976 25.144 44.3894 24.469C46.2619 23.312 45.2931 25.694 43.0257 27.826C40.7032 30.007 38.7407 30.78 39.7754 29.105C40.0803 28.612 39.7004 27.968 38.9316 27.673C37.267 27.034 33.3419 27.931 33.3419 28.95C33.3419 30.479 34.7206 30.93 36.0413 29.834C37.084 28.968 37.7099 28.969 38.5767 29.836C39.4445 30.704 39.0416 31.702 36.9401 33.897C34.6586 36.279 33.6718 36.669 31.4983 36.048C28.3311 35.144 23.9291 36.243 26.6045 37.27C27.4933 37.611 29.4458 37.668 30.9445 37.396C33.3289 36.963 33.5059 37.097 32.3641 38.473C31.6343 39.354 30.2796 39.797 29.2859 39.482C28.3101 39.172 27.1753 39.463 26.7634 40.129C26.2486 40.962 26.5345 41.141 27.6792 40.701C30.4866 39.624 29.5498 41.381 24.8649 45.979C22.4015 48.397 20.5629 50.551 20.7778 50.766C20.9928 50.981 30.1077 42.125 41.0341 31.086L60.8995 11.015L123.853 10.75L186.806 10.485L123.271 10.242C82.0196 10.085 59.3149 10.351 58.5361 11C57.6843 11.71 57.6083 11.67 58.2751 10.861C58.899 10.104 58.5101 9.151 57.1134 8.02C55.6607 6.844 55.3708 6.097 56.1746 5.6C56.8135 5.205 57.3363 5.319 57.3363 5.853C57.3363 6.386 59.5828 6.708 62.3282 6.568C66.4102 6.36 67.1161 6.558 66.2043 7.657C65.2735 8.778 74.4924 9 122.115 9C158.466 9 179.262 8.645 179.475 8.02C179.99 6.504 191.56 6.264 192.058 7.759C192.597 9.375 196.966 9.368 197.721 7.75C198.187 6.75 198.421 6.75 198.886 7.75C199.207 8.438 200.643 9 202.077 9C204.6 9 204.622 8.95 202.744 7.448C200.88 5.958 200.902 5.924 203.302 6.583C204.677 6.961 206.027 7.546 206.302 7.885C207.13 8.903 212.392 8.958 211.764 7.941C211.443 7.42 212.771 7 214.741 7C216.697 7 218.299 7.45 218.299 8C218.299 8.55 220.211 8.936 222.548 8.858L226.797 8.716L222.798 8.006C219.137 7.356 232.275 7.436 251.291 8.178C255.415 8.34 259.914 8.111 261.289 7.67C263.16 7.071 263.411 7.133 262.289 7.919C261.234 8.658 276.367 8.924 313.277 8.817C342.145 8.733 363.065 8.365 359.766 8L353.767 7.336L360.516 7.168C364.46 7.07 367.264 7.415 367.264 8C367.264 9.466 369.188 9.219 370.87 7.537C372.868 5.537 381.818 5.624 380.155 7.627C379.228 8.746 379.733 9.045 382.889 9.241C385.017 9.374 349.194 9.716 303.279 10L219.799 10.517L305.288 10.759L390.777 11L411.254 31.5C427.986 48.251 431.288 52 429.303 52C427.476 52 422.214 47.29 408.074 33L389.273 14H226.044H62.8151L43.8295 33.036C28.68 48.225 24.339 52.043 22.3445 51.93C20.9698 51.852 19.3992 51.836 18.8543 51.894C18.3094 51.952 27.5283 61.675 39.3405 73.5L60.8185 95H225.974H391.13L412.125 73.775C427.421 58.312 432.848 52.221 432.115 51.339C431.437 50.522 431.476 49.375 432.235 47.814C433.241 45.744 433.211 45.684 431.951 47.241C430.622 48.884 430.438 48.866 428.681 46.924L426.819 44.866L435.078 45.282L443.337 45.699L439.773 42.76C436.711 40.236 435.295 39.799 429.729 39.661C426.166 39.572 423.126 39.872 422.975 40.327C422.824 40.781 421.878 40.244 420.871 39.132C419.047 37.116 419.063 37.112 426.862 37.668C433.542 38.144 434.509 38.018 433.502 36.805C432.404 35.482 425.097 35.255 420.091 36.39C419.14 36.605 416.847 35.144 414.725 32.971L411.019 29.175L418.885 29.696C425.043 30.103 426.499 29.952 425.592 28.999C424.472 27.823 413.055 27.387 411.328 28.454C410.884 28.728 409.751 28.102 408.81 27.061C406.959 25.016 407.15 25.005 419.14 26.497L422.527 26.919L416.641 21.357C413.403 18.298 407 12.241 402.412 7.898L394.07 0H225.762C114.635 0 57.2444 0.34 56.8365 1ZM65.8344 3C66.1863 3.569 65.3255 4 63.8348 4C62.3442 4 61.4834 3.569 61.8353 3C62.1752 2.45 63.075 2 63.8348 2C64.5947 2 65.4944 2.45 65.8344 3ZM226.297 3C226.297 3.55 225.82 4 225.238 4C224.656 4 224.458 3.55 224.797 3C225.137 2.45 225.613 2 225.856 2C226.099 2 226.297 2.45 226.297 3ZM378.262 3C378.262 3.55 377.56 4 376.703 4C375.846 4 375.422 3.55 375.762 3C376.102 2.45 376.803 2 377.321 2C377.839 2 378.262 2.45 378.262 3ZM385.26 3C386.425 3.753 386.132 3.973 383.951 3.985C382.331 3.994 381.404 3.577 381.761 3C382.528 1.758 383.34 1.758 385.26 3ZM389.094 7.123C388.36 7.589 386.635 7.962 385.26 7.953C382.938 7.938 382.888 7.84 384.556 6.574C385.545 5.825 387.27 5.451 388.39 5.745C389.946 6.151 390.112 6.478 389.094 7.123ZM54.337 7C54.337 7.55 53.8871 8 53.3373 8C52.7874 8 52.3375 7.55 52.3375 7C52.3375 6.45 52.7874 6 53.3373 6C53.8871 6 54.337 6.45 54.337 7ZM258.019 6.604C257.687 6.936 256.824 6.972 256.103 6.683C255.305 6.364 255.542 6.127 256.707 6.079C257.761 6.036 258.351 6.272 258.019 6.604ZM284.358 7.772C274.776 7.924 266.587 7.7 266.16 7.274C265.733 6.848 273.572 6.724 283.582 6.998L301.78 7.495L284.358 7.772ZM331.273 7C332.445 7.758 332.187 7.973 330.082 7.985C328.602 7.993 327.114 7.55 326.774 7C325.985 5.723 329.297 5.723 331.273 7ZM395.258 7.545C395.258 7.727 394.389 7.81 393.327 7.73C392.266 7.65 391.606 7.248 391.86 6.836C392.283 6.153 395.258 6.773 395.258 7.545ZM59.3359 8C59.3359 8.55 60.5726 8.968 62.0852 8.93C64.5217 8.867 64.6067 8.762 62.8351 8C60.1047 6.826 59.3359 6.826 59.3359 8ZM72.6018 7.656C71.9249 7.93 70.5753 7.947 69.6025 7.693C68.6297 7.439 69.1836 7.215 70.8332 7.195C72.4828 7.175 73.2786 7.382 72.6018 7.656ZM82.0596 7.604C81.7277 7.936 80.8649 7.972 80.144 7.683C79.3462 7.364 79.5832 7.127 80.7479 7.079C81.8017 7.036 82.3915 7.272 82.0596 7.604ZM90.0907 7.687C89.135 7.937 87.3354 7.946 86.0917 7.707C84.8479 7.468 85.6298 7.263 87.8293 7.252C90.0287 7.241 91.0465 7.437 90.0907 7.687ZM105.589 7.704C104.359 7.941 102.11 7.947 100.59 7.718C99.0706 7.488 100.076 7.294 102.826 7.286C105.575 7.279 106.819 7.467 105.589 7.704ZM112.053 7.604C111.721 7.936 110.858 7.972 110.137 7.683C109.339 7.364 109.576 7.127 110.741 7.079C111.795 7.036 112.385 7.272 112.053 7.604ZM128.07 7.716C126.558 7.945 124.083 7.945 122.571 7.716C121.06 7.487 122.296 7.3 125.321 7.3C128.345 7.3 129.582 7.487 128.07 7.716ZM144.566 7.706C143.328 7.944 141.305 7.944 140.067 7.706C138.829 7.467 139.842 7.272 142.317 7.272C144.791 7.272 145.804 7.467 144.566 7.706ZM173.098 7.738C169.958 7.936 164.559 7.937 161.101 7.741C157.643 7.546 160.212 7.384 166.811 7.382C173.409 7.38 176.239 7.54 173.098 7.738ZM186.306 8C186.306 8.55 186.783 9 187.365 9C187.947 9 188.146 8.55 187.806 8C187.466 7.45 186.99 7 186.747 7C186.504 7 186.306 7.45 186.306 8ZM248.021 7.604C247.689 7.936 246.826 7.972 246.105 7.683C245.308 7.364 245.545 7.127 246.709 7.079C247.763 7.036 248.353 7.272 248.021 7.604ZM318.526 7.732C316.189 7.943 312.364 7.943 310.028 7.732C307.691 7.522 309.603 7.349 314.277 7.349C318.951 7.349 320.862 7.522 318.526 7.732ZM336.001 7.604C335.669 7.936 334.806 7.972 334.085 7.683C333.287 7.364 333.524 7.127 334.689 7.079C335.743 7.036 336.333 7.272 336.001 7.604ZM342.539 7.656C341.862 7.93 340.513 7.947 339.54 7.693C338.567 7.439 339.121 7.215 340.771 7.195C342.42 7.175 343.216 7.382 342.539 7.656ZM352.03 7.687C351.074 7.937 349.275 7.946 348.031 7.707C346.787 7.468 347.569 7.263 349.768 7.252C351.968 7.241 352.986 7.437 352.03 7.687ZM374.263 8C374.263 8.55 374.713 9 375.263 9C375.812 9 376.262 8.55 376.262 8C376.262 7.45 375.812 7 375.263 7C374.713 7 374.263 7.45 374.263 8ZM183.12 8.683C183.841 8.972 184.704 8.936 185.036 8.604C185.368 8.272 184.778 8.036 183.724 8.079C182.559 8.127 182.322 8.364 183.12 8.683ZM229.058 8.707C230.302 8.946 232.102 8.937 233.058 8.687C234.013 8.437 232.996 8.241 230.796 8.252C228.597 8.263 227.815 8.468 229.058 8.707ZM188.119 10.683C188.84 10.972 189.703 10.936 190.035 10.604C190.366 10.272 189.777 10.036 188.723 10.079C187.558 10.127 187.321 10.364 188.119 10.683ZM192.118 10.683C192.839 10.972 193.702 10.936 194.034 10.604C194.366 10.272 193.776 10.036 192.722 10.079C191.557 10.127 191.32 10.364 192.118 10.683ZM196.054 10.662C196.742 10.94 197.867 10.94 198.554 10.662C199.241 10.385 198.679 10.158 197.304 10.158C195.929 10.158 195.367 10.385 196.054 10.662ZM202.572 10.693C203.544 10.947 204.894 10.93 205.571 10.656C206.248 10.382 205.452 10.175 203.802 10.195C202.153 10.215 201.599 10.439 202.572 10.693ZM214.569 10.693C215.542 10.947 216.891 10.93 217.568 10.656C218.245 10.382 217.449 10.175 215.8 10.195C214.15 10.215 213.596 10.439 214.569 10.693ZM398.766 11.015C399.101 11.557 398.336 12.014 397.066 12.032C394.834 12.063 394.821 12.111 396.676 13.515C398.208 14.675 398.893 14.719 400.089 13.733C401.388 12.661 401.427 12.794 400.386 14.75C398.971 17.404 399.865 17.665 402.427 15.345C403.433 14.435 404.256 14.162 404.256 14.738C404.256 15.314 403.581 16.045 402.756 16.362C399.838 17.482 401.31 18.548 405.256 18.171C407.739 17.935 409.255 18.209 409.255 18.895C409.255 19.503 407.819 20 406.064 20C403.157 20 403.036 20.119 404.701 21.336C405.817 22.153 408.179 22.507 410.776 22.248C413.114 22.015 415.306 22.276 415.648 22.829C416.029 23.447 414.943 23.73 412.836 23.563C410.948 23.413 408.807 23.661 408.079 24.113C407.167 24.68 404.654 22.853 400.007 18.245C396.296 14.565 393.258 11.302 393.258 10.995C393.258 9.988 398.143 10.006 398.766 11.015ZM403.756 11C404.096 11.55 403.897 12 403.315 12C402.733 12 402.256 11.55 402.256 11C402.256 10.45 402.454 10 402.697 10C402.94 10 403.416 10.45 403.756 11ZM51.2478 13.111C52.8904 14.453 53.9831 14.754 54.68 14.057C56.0456 12.691 55.0009 11.796 51.6207 11.437L48.8383 11.142L51.2478 13.111ZM202.489 12.748C211.663 12.913 226.96 12.913 236.481 12.749C246.002 12.584 238.494 12.449 219.799 12.449C201.103 12.449 193.314 12.583 202.489 12.748ZM47.3477 15.489C46.099 16.994 44.3394 16.673 44.3394 14.941C44.3394 14.423 45.2941 14 46.4609 14C48.2275 14 48.3764 14.25 47.3477 15.489ZM7.34795 16.044C7.34795 17.34 12.4448 37.196 12.9457 37.85C13.0926 38.043 13.6495 37.931 14.1824 37.601C14.7932 37.224 14.6842 35.43 13.8904 32.751C11.8489 25.87 11.0931 20.725 12.2278 21.426C12.7817 21.769 16.4098 22.079 20.2889 22.115C24.169 22.152 27.3433 22.619 27.3433 23.154C27.3433 23.688 26.5555 24.046 25.5937 23.948C24.6319 23.85 23.3942 23.863 22.8444 23.978C22.2945 24.092 19.932 24.11 17.5956 24.017C14.9462 23.912 13.3466 24.285 13.3466 25.007C13.3466 25.789 15.0982 26.04 18.7373 25.781C22.8663 25.487 24.0121 25.702 23.6292 26.699C23.3552 27.414 21.9985 28 20.6159 28C18.4564 28 18.2824 28.22 19.3872 29.551C20.4739 30.86 20.3379 31.189 18.5094 31.667C16.6158 32.163 15.3661 34 16.9237 34C17.7755 34 32.3421 20.777 32.3421 20.004C32.3421 19.642 27.2813 18.772 21.0948 18.071C14.9092 17.37 9.2855 16.337 8.59766 15.776C7.71687 15.056 7.34795 15.135 7.34795 16.044ZM440.892 17.766C440.586 18.261 435.834 19.239 430.332 19.941L420.327 21.216L426.038 26.358C429.179 29.186 432.984 32.782 434.492 34.349C437.618 37.595 437.275 38.083 440.259 26.134C442.147 18.576 442.392 15.339 440.892 17.766ZM17.2626 19.644C17.4916 19.84 16.0289 20 14.0134 20C11.9969 20 10.3473 19.561 10.3473 19.025C10.3473 18.164 16.1379 18.682 17.2626 19.644ZM439.248 21C439.248 21.55 438.236 21.968 436.998 21.93C434.852 21.863 434.841 21.82 436.748 21C437.848 20.527 438.861 20.109 438.998 20.07C439.135 20.032 439.248 20.45 439.248 21ZM48.1405 22.531C47.0587 23.614 43.3396 23.849 43.3396 22.836C43.3396 22.258 44.0004 22.04 44.8073 22.349C45.6141 22.659 46.5588 22.452 46.9068 21.89C47.2547 21.327 47.7936 21.122 48.1055 21.433C48.4164 21.745 48.4324 22.239 48.1405 22.531ZM433.978 21.604C433.646 21.936 432.783 21.972 432.062 21.683C431.264 21.364 431.501 21.127 432.666 21.079C433.72 21.036 434.31 21.272 433.978 21.604ZM37.8869 23.925C37.5709 24.437 38.2518 25.154 39.4015 25.519C42.2388 26.42 42.9917 25.419 40.4863 24.078C39.2685 23.426 38.2328 23.365 37.8869 23.925ZM437.852 25.589C437.584 26.287 437.065 28.461 436.697 30.42C436.329 32.379 435.648 33.747 435.183 33.459C434.717 33.171 434.59 32.275 434.9 31.468C435.282 30.472 434.805 30 433.415 30C432.289 30 431.09 29.55 430.75 29C430.389 28.417 431.405 28 433.19 28C434.872 28 436.248 27.55 436.248 27C436.248 26.45 434.197 26 431.69 26C428.859 26 427.37 25.615 427.76 24.984C428.719 23.432 438.456 24.016 437.852 25.589ZM27.3433 28.5C26.2916 29.767 26.4965 30 28.662 30C31.6793 30 33.015 28.472 30.7545 27.605C28.672 26.805 28.771 26.779 27.3433 28.5ZM15.1591 28.683C15.88 28.972 16.7428 28.936 17.0747 28.604C17.4066 28.272 16.8168 28.036 15.763 28.079C14.5983 28.127 14.3613 28.364 15.1591 28.683ZM415.783 30.951C414.54 32.963 416.226 33.699 422.047 33.685C425.271 33.677 428.435 33.996 429.079 34.394C429.723 34.792 430.25 34.664 430.25 34.109C430.25 32.297 426.998 31.224 423.095 31.748C420.874 32.046 418.676 31.767 417.852 31.082C416.882 30.277 416.225 30.235 415.783 30.951ZM20.9278 34.542C17.1857 37.847 17.5566 38.843 21.8446 37C23.2133 36.412 23.3712 36.106 22.3445 36.03C21.4667 35.966 21.9856 35.301 23.5942 34.428C25.1068 33.607 26.3435 32.5 26.3435 31.968C26.3435 30.312 24.9869 30.957 20.9278 34.542ZM31.3424 31.858C31.3424 33.759 34.7106 34.057 36.2692 32.294C37.133 31.315 37.21 31.053 36.4382 31.71C35.4664 32.538 34.4667 32.602 33.189 31.918C32.0962 31.333 31.3424 31.309 31.3424 31.858ZM14.4173 40.415C13.6865 41.295 14.8182 41.585 18.8923 41.562C21.8906 41.545 24.344 41.187 24.344 40.766C24.344 40.344 23.7821 39.971 23.0943 39.936C22.4075 39.901 20.3929 39.729 18.6193 39.554C16.8457 39.379 14.9552 39.767 14.4173 40.415ZM438.244 42.596C439.034 43.386 437.761 43.74 433.649 43.874C430.521 43.977 427.637 44.261 427.239 44.507C426.843 44.752 425.753 44.108 424.819 43.075C423.17 41.253 423.33 41.201 430.136 41.35C433.995 41.435 437.644 41.996 438.244 42.596ZM10.7742 44.479C9.7144 45.28 9.2975 45.944 9.84737 45.953C11.333 45.977 13.8724 44.192 13.2446 43.565C12.9456 43.265 11.8339 43.677 10.7742 44.479ZM15.0502 44.204C14.3283 44.663 14.9702 44.975 16.6548 44.985C18.6333 44.995 19.2412 45.369 18.7123 46.25C18.1774 47.141 18.4344 47.117 19.6091 46.164C20.5159 45.429 21.6956 45.099 22.2315 45.43C22.7674 45.762 23.4592 45.622 23.7691 45.121C24.474 43.98 16.6898 43.162 15.0502 44.204ZM68.3998 47.035C70.9272 48.389 70.8422 49.755 68.0838 52.056C65.3435 54.343 63.4629 54.498 62.6971 52.5C62.3802 51.675 61.4944 51 60.7286 51C58.893 51 58.97 50.062 60.9905 47.829C62.8461 45.778 65.5164 45.492 68.3998 47.035ZM391.608 48.178C392.435 49.5 392.138 50.289 390.209 51.895C387.272 54.339 385.674 54.522 384.898 52.5C384.582 51.675 383.635 51 382.792 51C380.81 51 380.856 50.104 382.96 47.78C385.021 45.502 390.078 45.734 391.608 48.178ZM6.34818 48.5C4.9975 50.128 5.32042 50.332 7.76585 49.393C8.63565 49.059 9.34749 48.384 9.34749 47.893C9.34749 46.51 7.72786 46.838 6.34818 48.5ZM437.05 48.128C437.434 48.474 439.924 48.985 442.584 49.265C446.101 49.635 447.12 49.474 446.32 48.674C445.715 48.069 443.225 47.557 440.786 47.537C438.347 47.517 436.665 47.783 437.05 48.128ZM12.1088 48.707C13.3526 48.946 15.1521 48.937 16.1079 48.687C17.0637 48.437 16.0459 48.241 13.8464 48.252C11.647 48.263 10.8651 48.468 12.1088 48.707ZM18.3454 49.059C18.3454 49.641 18.7953 49.84 19.3452 49.5C19.895 49.16 20.3449 48.684 20.3449 48.441C20.3449 48.198 19.895 48 19.3452 48C18.7953 48 18.3454 48.477 18.3454 49.059ZM433.749 49C434.089 49.55 434.565 50 434.808 50C435.051 50 435.249 49.55 435.249 49C435.249 48.45 434.772 48 434.19 48C433.608 48 433.409 48.45 433.749 49ZM5.11647 52.168C5.69833 52.75 6.76309 53.028 7.48492 52.788C8.23375 52.538 7.77985 52.085 6.42816 51.731C4.76555 51.296 4.37464 51.426 5.11647 52.168ZM446.238 52.107C445.112 52.88 445.36 52.973 447.246 52.486C449.074 52.014 447.331 54.211 440.747 60.672C431.367 69.877 406.038 93.689 398.257 100.616L393.758 104.621L225.703 104.55L57.6473 104.479L35.7474 83.9C2.92498 53.058 1.49131 51.785 0.11863 52.256C-0.621199 52.51 2.15916 55.822 6.79008 60.205L14.7312 67.718L12.4668 76.953C9.85637 87.6 10.0313 89.938 12.7327 80.503C14.6503 73.804 14.6633 73.797 19.3162 76.804C19.5751 76.972 19.1252 77.527 18.3164 78.039C17.2027 78.743 17.5216 78.973 19.6261 78.985C21.1947 78.993 22.6644 79.67 22.9973 80.537C23.3212 81.382 24.9939 82.823 26.7145 83.738L29.8427 85.402L25.3438 86.068C22.8693 86.435 18.2574 87.052 15.0962 87.439C11.593 87.869 9.34749 88.625 9.34749 89.375C9.34749 90.341 11.7639 90.312 20.5949 89.239C28.641 88.262 32.3361 88.176 33.5779 88.936C34.5326 89.521 35.9873 90 36.8101 90C37.6319 90 42.5308 93.825 47.6966 98.5L57.0874 107H226.205H395.323L403.038 99.515C413.73 89.144 417.504 87.764 431.064 89.269C436.631 89.887 441.501 90.08 441.884 89.696C443.205 88.375 442.195 88.126 428.5 86.39C425.614 86.024 423.251 85.337 423.251 84.862C423.251 84.388 423.678 84 424.199 84C424.721 84 426.362 82.875 427.845 81.5C429.328 80.125 431.361 79 432.364 79C433.495 79 433.987 78.481 433.661 77.631C433.35 76.821 433.97 76.045 435.181 75.728C436.865 75.287 437.432 75.882 438.397 79.103C440.193 85.102 440.471 83.06 438.821 75.983C437.872 71.913 437.676 69.07 438.268 67.963C438.773 67.02 442.349 63.193 446.216 59.459C450.083 55.724 453.134 52.582 452.995 52.475C451.768 51.528 447.427 51.291 446.238 52.107ZM439.061 52.683C439.782 52.972 440.644 52.936 440.976 52.604C441.308 52.272 440.718 52.036 439.665 52.079C438.5 52.127 438.263 52.364 439.061 52.683ZM442.247 53.059C442.247 53.641 442.697 53.84 443.247 53.5C443.797 53.16 444.246 52.684 444.246 52.441C444.246 52.198 443.797 52 443.247 52C442.697 52 442.247 52.477 442.247 53.059ZM439.517 56.693C440.489 56.947 441.839 56.93 442.516 56.656C443.193 56.382 442.397 56.175 440.747 56.195C439.098 56.215 438.544 56.439 439.517 56.693ZM440.326 85.583C440.374 86.748 440.611 86.985 440.93 86.188C441.219 85.466 441.183 84.603 440.851 84.271C440.519 83.939 440.283 84.529 440.326 85.583Z" fill="#505050"/>
<path d="M115.32 51.36V49.84C115.32 49.6267 115.16 49.52 114.84 49.52H102.28V36.56C102.28 36.32 102.133 36.2 101.84 36.2H100.4C100.08 36.2 99.92 36.32 99.92 36.56V49.52H87.52C87.2 49.52 87.04 49.6267 87.04 49.84V51.36C87.04 51.6 87.2 51.72 87.52 51.72H99.92V64.56C99.92 64.8 100.08 64.92 100.4 64.92H101.84C102.133 64.92 102.28 64.8 102.28 64.56V51.72H114.84C115.16 51.72 115.32 51.6 115.32 51.36ZM142.757 58.76L141.877 58.64C141.584 59.3867 141.251 59.9867 140.877 60.44C140.531 60.8933 140.117 61.24 139.637 61.48C139.184 61.72 138.677 61.88 138.117 61.96C137.557 62.0133 136.917 62.04 136.197 62.04H132.917H131.517C132.637 61.2133 133.797 60.2 134.997 59C136.224 57.8 137.331 56.5067 138.317 55.12C139.304 53.7333 140.117 52.3067 140.757 50.84C141.397 49.3733 141.717 47.9333 141.717 46.52C141.717 45.2667 141.451 44.24 140.917 43.44C140.411 42.64 139.744 42.0133 138.917 41.56C138.117 41.1067 137.197 40.8 136.157 40.64C135.117 40.4533 134.077 40.36 133.037 40.36C132.317 40.36 131.544 40.48 130.717 40.72C129.891 40.96 129.171 41.2267 128.557 41.52C128.371 41.5733 128.277 41.6667 128.277 41.8C128.251 41.9867 128.224 42.1867 128.197 42.4C128.197 42.5867 128.197 42.7867 128.197 43C128.197 43.5867 128.224 44.1733 128.277 44.76C128.357 45.3467 128.504 45.9467 128.717 46.56C128.797 46.7467 128.957 46.8267 129.197 46.8C129.464 46.7733 129.597 46.6667 129.597 46.48C129.624 45.3067 129.957 44.2933 130.597 43.44C131.237 42.5867 132.144 42.16 133.317 42.16C134.011 42.16 134.651 42.3067 135.237 42.6C135.851 42.8933 136.371 43.2933 136.797 43.8C137.251 44.3067 137.597 44.88 137.837 45.52C138.077 46.16 138.197 46.8133 138.197 47.48C138.197 48.52 137.957 49.5867 137.477 50.68C136.997 51.7733 136.371 52.8667 135.597 53.96C134.851 55.0267 134.011 56.0933 133.077 57.16C132.171 58.2 131.264 59.2 130.357 60.16C129.744 60.8267 129.157 61.4667 128.597 62.08C128.037 62.6933 127.544 63.2667 127.117 63.8C126.984 63.9333 126.957 64.0667 127.037 64.2C127.117 64.3333 127.264 64.4 127.477 64.4H140.517C140.917 64.4 141.251 64.16 141.517 63.68C141.811 63.1733 142.051 62.6 142.237 61.96C142.424 61.32 142.557 60.6933 142.637 60.08C142.717 59.44 142.757 59 142.757 58.76ZM179.221 64.56V63.84C178.634 63.7867 178.061 63.6667 177.501 63.48C176.941 63.2933 176.501 62.8933 176.181 62.28C175.168 60.44 174.234 58.5467 173.381 56.6C172.554 54.6267 171.728 52.68 170.901 50.76L169.141 46.64V46.68C169.088 46.6 169.034 46.4933 168.981 46.36C168.928 46.2 168.861 46.0267 168.781 45.84V45.88C168.648 45.5867 168.501 45.2533 168.341 44.88C168.181 44.5067 168.008 44.16 167.821 43.84C167.634 43.4933 167.448 43.1867 167.261 42.92C167.074 42.6533 166.888 42.48 166.701 42.4C166.408 42.32 166.208 42.3733 166.101 42.56C165.301 44.4267 164.501 46.2933 163.701 48.16C162.928 50.0267 162.154 51.9067 161.381 53.8C160.848 55.08 160.288 56.4 159.701 57.76C159.141 59.0933 158.594 60.4 158.061 61.68C157.928 61.92 157.741 62.1867 157.501 62.48C157.288 62.7733 157.048 63.04 156.781 63.28C156.514 63.4933 156.234 63.6533 155.941 63.76C155.648 63.8667 155.368 63.88 155.101 63.8L154.941 64.52L161.981 64.64C162.248 64.64 162.381 64.5333 162.381 64.32C162.408 64.08 162.288 63.9467 162.021 63.92C161.754 63.8667 161.448 63.8 161.101 63.72C160.754 63.6133 160.581 63.4133 160.581 63.12C160.581 62.88 160.661 62.48 160.821 61.92C161.008 61.3333 161.234 60.7067 161.501 60.04C161.768 59.3733 162.034 58.7067 162.301 58.04C162.568 57.3733 162.808 56.8267 163.021 56.4H169.461C170.021 57.6533 170.554 58.8533 171.061 60C171.568 61.1467 172.088 62.3467 172.621 63.6L172.261 64.04C172.101 64.1733 172.048 64.3067 172.101 64.44C172.181 64.5733 172.328 64.64 172.541 64.64C173.021 64.6667 173.488 64.6933 173.941 64.72C174.394 64.72 174.861 64.72 175.341 64.72C176.008 64.72 176.661 64.7067 177.301 64.68C177.941 64.6533 178.581 64.6133 179.221 64.56ZM168.741 54.68H163.661C164.168 53.48 164.594 52.36 164.941 51.32C165.314 50.2533 165.728 49.1333 166.181 47.96L168.741 54.68ZM197.683 43.64V43C197.683 42.7067 197.509 42.5867 197.163 42.64C197.003 42.6667 196.856 42.6933 196.723 42.72C196.589 42.72 196.483 42.7467 196.403 42.8H196.443C196.229 42.8533 196.016 42.9067 195.803 42.96C195.589 43.0133 195.416 43.04 195.283 43.04H181.003C180.843 43.04 180.629 43.0267 180.363 43C180.123 42.9467 179.869 42.8933 179.603 42.84C179.336 42.7867 179.069 42.7333 178.803 42.68C178.563 42.6 178.389 42.52 178.283 42.44C178.149 42.3867 178.016 42.3867 177.883 42.44C177.749 42.4667 177.656 42.5467 177.603 42.68C177.549 42.84 177.496 43 177.443 43.16C177.416 43.32 177.376 43.4667 177.323 43.6C177.189 44 177.056 44.4267 176.923 44.88C176.789 45.3333 176.723 45.7333 176.723 46.08C176.723 46.3467 176.736 46.52 176.763 46.6C176.816 46.76 176.949 46.8533 177.163 46.88C177.376 46.9067 177.536 46.84 177.643 46.68C177.936 46.1467 178.323 45.6933 178.803 45.32C179.309 44.9467 179.856 44.76 180.443 44.76H185.523V61.6C185.523 62.08 185.496 62.4667 185.443 62.76C185.389 63.0267 185.296 63.24 185.163 63.4C185.029 63.56 184.829 63.68 184.563 63.76C184.296 63.8133 183.963 63.8667 183.563 63.92C183.323 63.9733 183.203 64.1067 183.203 64.32C183.229 64.5333 183.363 64.64 183.603 64.64C184.963 64.6933 186.309 64.7333 187.643 64.76C189.003 64.7867 190.363 64.8 191.723 64.8C191.936 64.8 192.083 64.7467 192.163 64.64C192.243 64.5333 192.243 64.4133 192.163 64.28C192.056 64.0667 191.869 63.9333 191.603 63.88C191.363 63.8267 191.096 63.7867 190.803 63.76C190.643 63.7333 190.443 63.7067 190.203 63.68C189.989 63.6533 189.829 63.6133 189.723 63.56H189.683C189.629 63.5333 189.576 63.4267 189.523 63.24C189.469 63.0267 189.416 62.8 189.363 62.56C189.336 62.2933 189.296 62.0533 189.243 61.84C189.216 61.6 189.203 61.44 189.203 61.36V44.8C189.389 44.8533 189.496 44.8667 189.523 44.84C189.576 44.8133 189.709 44.8 189.923 44.8C190.189 44.8 190.456 44.8 190.723 44.8C190.989 44.8 191.243 44.7867 191.483 44.76C191.723 44.7333 191.949 44.72 192.163 44.72C192.376 44.72 192.589 44.72 192.803 44.72C193.656 44.72 194.416 44.8533 195.083 45.12C195.776 45.36 196.216 45.9467 196.403 46.88C196.456 47.0667 196.603 47.16 196.843 47.16C197.109 47.16 197.269 47.0667 197.323 46.88C197.563 45.8133 197.683 44.7333 197.683 43.64ZM221.33 64.56V63.84C220.744 63.7867 220.17 63.6667 219.61 63.48C219.05 63.2933 218.61 62.8933 218.29 62.28C217.277 60.44 216.344 58.5467 215.49 56.6C214.664 54.6267 213.837 52.68 213.01 50.76L211.25 46.64V46.68C211.197 46.6 211.144 46.4933 211.09 46.36C211.037 46.2 210.97 46.0267 210.89 45.84V45.88C210.757 45.5867 210.61 45.2533 210.45 44.88C210.29 44.5067 210.117 44.16 209.93 43.84C209.744 43.4933 209.557 43.1867 209.37 42.92C209.184 42.6533 208.997 42.48 208.81 42.4C208.517 42.32 208.317 42.3733 208.21 42.56C207.41 44.4267 206.61 46.2933 205.81 48.16C205.037 50.0267 204.264 51.9067 203.49 53.8C202.957 55.08 202.397 56.4 201.81 57.76C201.25 59.0933 200.704 60.4 200.17 61.68C200.037 61.92 199.85 62.1867 199.61 62.48C199.397 62.7733 199.157 63.04 198.89 63.28C198.624 63.4933 198.344 63.6533 198.05 63.76C197.757 63.8667 197.477 63.88 197.21 63.8L197.05 64.52L204.09 64.64C204.357 64.64 204.49 64.5333 204.49 64.32C204.517 64.08 204.397 63.9467 204.13 63.92C203.864 63.8667 203.557 63.8 203.21 63.72C202.864 63.6133 202.69 63.4133 202.69 63.12C202.69 62.88 202.77 62.48 202.93 61.92C203.117 61.3333 203.344 60.7067 203.61 60.04C203.877 59.3733 204.144 58.7067 204.41 58.04C204.677 57.3733 204.917 56.8267 205.13 56.4H211.57C212.13 57.6533 212.664 58.8533 213.17 60C213.677 61.1467 214.197 62.3467 214.73 63.6L214.37 64.04C214.21 64.1733 214.157 64.3067 214.21 64.44C214.29 64.5733 214.437 64.64 214.65 64.64C215.13 64.6667 215.597 64.6933 216.05 64.72C216.504 64.72 216.97 64.72 217.45 64.72C218.117 64.72 218.77 64.7067 219.41 64.68C220.05 64.6533 220.69 64.6133 221.33 64.56ZM210.85 54.68H205.77C206.277 53.48 206.704 52.36 207.05 51.32C207.424 50.2533 207.837 49.1333 208.29 47.96L210.85 54.68ZM268.271 68.6L267.871 68C266.778 68.3733 265.658 68.6667 264.511 68.88C263.364 69.0933 262.191 69.2 260.991 69.2C259.338 69.2 257.698 69.0267 256.071 68.68C254.444 68.3333 252.831 67.8667 251.231 67.28C249.658 66.6933 248.098 66.04 246.551 65.32C245.031 64.6 243.538 63.8533 242.071 63.08C243.644 61.96 244.898 60.56 245.831 58.88C246.791 57.1733 247.271 55.3467 247.271 53.4C247.271 51.64 246.898 50.0933 246.151 48.76C245.404 47.4 244.418 46.2667 243.191 45.36C241.964 44.4267 240.578 43.7333 239.031 43.28C237.484 42.8 235.911 42.56 234.311 42.56C232.658 42.56 231.031 42.8267 229.431 43.36C227.831 43.8667 226.404 44.6267 225.151 45.64C223.898 46.6267 222.884 47.84 222.111 49.28C221.364 50.6933 220.991 52.2933 220.991 54.08C220.991 55.9467 221.338 57.6 222.031 59.04C222.751 60.48 223.711 61.6933 224.911 62.68C226.111 63.64 227.498 64.3733 229.071 64.88C230.671 65.36 232.351 65.6 234.111 65.6C234.564 65.6 235.004 65.56 235.431 65.48C235.884 65.3733 236.298 65.2667 236.671 65.16C237.071 65.0267 237.444 64.92 237.791 64.84C238.164 64.76 238.511 64.72 238.831 64.72H239.031C239.484 64.88 239.938 65.0667 240.391 65.28C240.871 65.4933 241.351 65.7067 241.831 65.92C242.124 66.0533 242.418 66.2 242.711 66.36C243.004 66.4933 243.298 66.6267 243.591 66.76C244.818 67.2933 246.058 67.8 247.311 68.28C248.591 68.76 249.884 69.1867 251.191 69.56C252.498 69.96 253.818 70.2667 255.151 70.48C256.484 70.72 257.831 70.84 259.191 70.84C262.471 70.84 265.498 70.0933 268.271 68.6ZM243.311 53.6C243.311 54.8267 243.124 55.9867 242.751 57.08C242.378 58.1733 241.844 59.16 241.151 60.04C240.484 60.92 239.671 61.6933 238.711 62.36C237.778 63 236.738 63.4933 235.591 63.84C234.151 63.68 232.778 63.2933 231.471 62.68C230.164 62.04 229.004 61.2267 227.991 60.24C227.004 59.2267 226.204 58.0667 225.591 56.76C225.004 55.4267 224.711 54 224.711 52.48C224.711 51.12 224.964 49.9333 225.471 48.92C225.978 47.88 226.658 47.0267 227.511 46.36C228.364 45.6667 229.351 45.1467 230.471 44.8C231.618 44.4533 232.818 44.28 234.071 44.28C235.404 44.28 236.631 44.5067 237.751 44.96C238.898 45.4133 239.871 46.0533 240.671 46.88C241.498 47.7067 242.138 48.6933 242.591 49.84C243.071 50.9867 243.311 52.24 243.311 53.6ZM273.707 43.72L273.667 43.04C272.493 42.96 271.32 42.9067 270.147 42.88C268.973 42.8533 267.787 42.84 266.587 42.84C266.213 42.84 266.053 42.9733 266.107 43.24C266.16 43.5333 266.307 43.7067 266.547 43.76C266.813 43.7867 267.093 43.8133 267.387 43.84C267.547 43.8667 267.707 43.8933 267.867 43.92C268.053 43.9467 268.213 44.0133 268.347 44.12C268.48 44.2 268.587 44.3333 268.667 44.52C268.773 44.7067 268.827 44.96 268.827 45.28C268.827 46.32 268.827 47.36 268.827 48.4C268.827 49.44 268.84 50.4667 268.867 51.48C268.893 52.52 268.907 53.56 268.907 54.6C268.907 55.64 268.907 56.6667 268.907 57.68C268.907 58.64 268.72 59.48 268.347 60.2C267.973 60.92 267.467 61.5333 266.827 62.04C266.213 62.52 265.493 62.8933 264.667 63.16C263.867 63.4 263.04 63.52 262.187 63.52C261.333 63.52 260.507 63.4 259.707 63.16C258.933 62.92 258.24 62.56 257.627 62.08C257.013 61.6 256.52 61.0133 256.147 60.32C255.773 59.6 255.587 58.7733 255.587 57.84C255.587 56.8 255.587 55.76 255.587 54.72C255.613 53.6533 255.627 52.5867 255.627 51.52V45.24C255.627 44.6533 255.813 44.28 256.187 44.12C256.56 43.9333 257.013 43.8133 257.547 43.76C257.787 43.7333 257.907 43.6267 257.907 43.44C257.907 43.2267 257.787 43.1067 257.547 43.08C255.333 42.92 253.133 42.84 250.947 42.84H249.707C249.333 42.84 249.173 42.9733 249.227 43.24C249.28 43.5333 249.413 43.6933 249.627 43.72C249.867 43.7467 250.147 43.7867 250.467 43.84C250.787 43.8667 251.107 43.9467 251.427 44.08C251.773 44.2133 251.947 44.6133 251.947 45.28V57.12C251.947 57.28 251.96 57.4667 251.987 57.68C252.04 57.8933 252.067 58.12 252.067 58.36V58.32C252.067 59.52 252.387 60.56 253.027 61.44C253.693 62.32 254.52 63.0533 255.507 63.64C256.52 64.2 257.613 64.6267 258.787 64.92C259.987 65.1867 261.12 65.32 262.187 65.32C263.493 65.32 264.733 65.1067 265.907 64.68C267.08 64.2533 268.093 63.6533 268.947 62.88C269.827 62.08 270.52 61.1333 271.027 60.04C271.533 58.92 271.787 57.68 271.787 56.32V45.24C271.787 44.7067 271.987 44.3333 272.387 44.12C272.813 43.9067 273.253 43.7733 273.707 43.72ZM291.102 60.8C291.128 60.72 291.088 60.6533 290.982 60.6C290.902 60.52 290.808 60.48 290.702 60.48C290.595 60.4533 290.488 60.4667 290.382 60.52C290.275 60.5467 290.208 60.6 290.182 60.68C289.942 61.6133 289.462 62.2933 288.742 62.72C288.022 63.12 287.235 63.32 286.382 63.32C285.688 63.32 284.955 63.1867 284.182 62.92C283.408 62.6533 282.808 62.2267 282.382 61.64V53.88H282.902C283.222 53.88 283.622 53.88 284.102 53.88C284.582 53.88 285.062 53.8933 285.542 53.92C286.048 53.9467 286.502 54 286.902 54.08C287.302 54.1333 287.568 54.2133 287.702 54.32C287.782 54.3733 287.862 54.5067 287.942 54.72C288.048 54.9333 288.142 55.16 288.222 55.4C288.248 55.5333 288.248 55.64 288.222 55.72C288.222 55.7733 288.382 55.8933 288.702 56.08C288.835 56.1867 288.982 56.2133 289.142 56.16C289.302 56.1067 289.395 56.0133 289.422 55.88C289.475 55.5067 289.528 55.16 289.582 54.84C289.635 54.52 289.688 54.2 289.742 53.88C289.795 53.5333 289.835 53.12 289.862 52.64C289.915 52.16 289.968 51.7467 290.022 51.4C290.048 51.2667 289.995 51.16 289.862 51.08C289.755 50.9733 289.608 50.9467 289.422 51C289.262 51.0533 289.088 51.1733 288.902 51.36C288.742 51.5467 288.555 51.6933 288.342 51.8H288.382C288.142 51.88 287.915 51.9733 287.702 52.08C287.488 52.16 287.315 52.2 287.182 52.2H282.382V44.56H283.102C283.315 44.56 283.528 44.56 283.742 44.56C283.955 44.5333 284.155 44.52 284.342 44.52C284.555 44.52 284.755 44.52 284.942 44.52C285.155 44.4933 285.368 44.48 285.582 44.48C285.955 44.48 286.328 44.5067 286.702 44.56C287.075 44.6133 287.408 44.72 287.702 44.88C287.995 45.0133 288.235 45.2133 288.422 45.48C288.608 45.7467 288.715 46.1067 288.742 46.56C288.768 46.7733 288.915 46.88 289.182 46.88C289.448 46.88 289.608 46.7867 289.662 46.6C289.715 46.44 289.755 46.28 289.782 46.12C289.808 45.96 289.848 45.7867 289.902 45.6C290.008 45.1733 290.115 44.7467 290.222 44.32C290.328 43.8933 290.408 43.4267 290.462 42.92C290.488 42.7867 290.435 42.68 290.302 42.6C290.168 42.52 290.008 42.5067 289.822 42.56C289.448 42.6933 288.715 42.7867 287.622 42.84C286.528 42.8933 285.315 42.92 283.982 42.92C283.048 42.92 282.128 42.92 281.222 42.92C280.315 42.8933 279.475 42.8667 278.702 42.84C278.222 42.84 277.782 42.84 277.382 42.84C277.008 42.8133 276.702 42.8 276.462 42.8C276.222 42.8 276.062 42.88 275.982 43.04C275.902 43.2 275.968 43.3333 276.182 43.44C276.395 43.5733 276.608 43.6667 276.822 43.72C277.062 43.7733 277.288 43.8267 277.502 43.88C277.795 43.9333 278.062 44.04 278.302 44.2C278.568 44.3333 278.702 44.6267 278.702 45.08V61.48C278.702 62.2 278.582 62.7867 278.342 63.24C278.102 63.6667 277.608 63.8933 276.862 63.92C276.622 63.92 276.488 64.04 276.462 64.28C276.462 64.4933 276.582 64.6133 276.822 64.64C277.755 64.6933 278.702 64.72 279.662 64.72C280.622 64.6933 281.582 64.68 282.542 64.68C282.968 64.68 283.395 64.68 283.822 64.68C284.248 64.6533 284.675 64.64 285.102 64.64C285.288 64.64 285.608 64.6533 286.062 64.68C286.542 64.68 287.035 64.6933 287.542 64.72C288.075 64.72 288.568 64.72 289.022 64.72C289.475 64.72 289.782 64.6933 289.942 64.64L290.262 64.48L291.102 60.8Z" fill="white"/>
<path d="M315.384 18.4482L304.445 29.4631L310.672 32.9263L306.74 36.8814L322.422 46.4021C316.528 56.6961 317.945 70.0386 326.677 78.8269C337.112 89.3349 354.036 89.3321 364.474 78.8269C374.911 68.3218 374.914 51.2893 364.479 40.7872C355.748 32.0003 342.489 30.578 332.26 36.5056L322.801 20.725L321.571 21.9624L318.862 24.6875L315.384 18.4482ZM322.266 25.1396L331.35 40.2949L332.53 39.5248C338.973 35.3186 346.96 34.5289 353.977 37.1654C353.808 37.1615 353.638 37.1595 353.467 37.1595C347.785 37.1595 343.179 39.3324 343.179 42.0129C343.179 44.6939 347.785 46.8665 353.467 46.8665C358.062 46.8665 361.952 45.4454 363.273 43.484C365.596 46.0286 367.279 48.9465 368.322 52.0324C367.191 51.5354 365.658 51.0484 363.819 50.6291C359.245 49.5872 352.809 48.9246 345.704 48.9246C338.598 48.9246 332.162 49.587 327.588 50.6291C325.59 51.0843 323.945 51.6196 322.795 52.1608C323.436 50.2276 324.318 48.3842 325.421 46.675L326.188 45.4858L311.129 36.3434L313.154 34.3066L319.994 38.1107L324.062 34.0143L320.247 27.1707L322.266 25.1395L322.266 25.1396ZM322.107 54.6778C322.177 54.7189 322.25 54.76 322.327 54.8011C323.477 55.4204 325.301 56.0465 327.588 56.5675C332.162 57.6094 338.598 58.272 345.703 58.272C352.809 58.272 359.245 57.6095 363.818 56.5675C366.105 56.0465 367.929 55.421 369.079 54.8017C369.258 55.6568 369.392 56.5211 369.479 57.3908C368.104 58.0184 366.389 58.549 364.367 59.0097C359.528 60.1122 352.961 60.7761 345.703 60.7761C338.446 60.7761 331.878 60.1122 327.039 59.0097C324.901 58.5225 323.105 57.9575 321.692 57.2816C321.783 56.4066 321.922 55.5373 322.107 54.6775L322.107 54.6778Z" fill="white"/>
</svg>
