<svg width="453" height="107" viewBox="0 0 453 107" fill="none" xmlns="http://www.w3.org/2000/svg">
<path fill-rule="evenodd" clip-rule="evenodd" d="M56.8365 1C56.4965 1.55 56.7215 2 57.3363 2C57.9512 2 58.1881 2.43 57.8632 2.956C57.5383 3.482 56.7245 3.705 56.0546 3.45C55.3848 3.196 53.1323 4.509 51.0488 6.367C47.6026 9.441 47.4446 9.794 49.2992 10.28C50.4199 10.573 51.3377 10.405 51.3377 9.906C51.3377 8.339 53.1823 8.917 55.2458 11.132C57.2294 13.262 57.2294 13.266 55.0349 15.06C52.8874 16.815 52.7754 16.788 50.095 13.874C46.8368 10.331 46.9178 10.298 37.455 19.165C30.3106 25.861 28.741 27.928 32.2112 26.07C33.2379 25.52 34.4247 25.392 34.8466 25.785C35.2695 26.178 35.4024 25.825 35.1415 25C34.8366 24.034 35.7594 23.038 37.7349 22.201C39.9784 21.251 40.4423 20.681 39.4645 20.076C38.3807 19.407 38.3717 19.099 39.4155 18.453C40.9891 17.481 52.3375 17.162 52.3375 18.091C52.3375 19.453 49.1812 21.366 48.5124 20.408C47.7786 19.359 42.7947 19.212 41.796 20.21C40.8622 21.145 43.2976 25.144 44.3894 24.469C46.2619 23.312 45.2931 25.694 43.0257 27.826C40.7032 30.007 38.7407 30.78 39.7754 29.105C40.0803 28.612 39.7004 27.968 38.9316 27.673C37.267 27.034 33.3419 27.931 33.3419 28.95C33.3419 30.479 34.7206 30.93 36.0413 29.834C37.084 28.968 37.7099 28.969 38.5767 29.836C39.4445 30.704 39.0416 31.702 36.9401 33.897C34.6586 36.279 33.6718 36.669 31.4983 36.048C28.3311 35.144 23.9291 36.243 26.6045 37.27C27.4933 37.611 29.4458 37.668 30.9445 37.396C33.3289 36.963 33.5059 37.097 32.3641 38.473C31.6343 39.354 30.2796 39.797 29.2859 39.482C28.3101 39.172 27.1753 39.463 26.7634 40.129C26.2486 40.962 26.5345 41.141 27.6792 40.701C30.4866 39.624 29.5498 41.381 24.8649 45.979C22.4015 48.397 20.5629 50.551 20.7778 50.766C20.9928 50.981 30.1077 42.125 41.0341 31.086L60.8995 11.015L123.853 10.75L186.806 10.485L123.271 10.242C82.0196 10.085 59.3149 10.351 58.5361 11C57.6843 11.71 57.6083 11.67 58.2751 10.861C58.899 10.104 58.5101 9.151 57.1134 8.02C55.6607 6.844 55.3708 6.097 56.1746 5.6C56.8135 5.205 57.3363 5.319 57.3363 5.853C57.3363 6.386 59.5828 6.708 62.3282 6.568C66.4102 6.36 67.1161 6.558 66.2043 7.657C65.2735 8.778 74.4924 9 122.115 9C158.466 9 179.262 8.645 179.475 8.02C179.99 6.504 191.56 6.264 192.058 7.759C192.597 9.375 196.966 9.368 197.721 7.75C198.187 6.75 198.421 6.75 198.886 7.75C199.207 8.438 200.643 9 202.077 9C204.6 9 204.622 8.95 202.744 7.448C200.88 5.958 200.902 5.924 203.302 6.583C204.677 6.961 206.027 7.546 206.302 7.885C207.13 8.903 212.392 8.958 211.764 7.941C211.443 7.42 212.771 7 214.741 7C216.697 7 218.299 7.45 218.299 8C218.299 8.55 220.211 8.936 222.548 8.858L226.797 8.716L222.798 8.006C219.137 7.356 232.275 7.436 251.291 8.178C255.415 8.34 259.914 8.111 261.289 7.67C263.16 7.071 263.411 7.133 262.289 7.919C261.234 8.658 276.367 8.924 313.277 8.817C342.145 8.733 363.065 8.365 359.766 8L353.767 7.336L360.516 7.168C364.46 7.07 367.264 7.415 367.264 8C367.264 9.466 369.188 9.219 370.87 7.537C372.868 5.537 381.818 5.624 380.155 7.627C379.228 8.746 379.733 9.045 382.889 9.241C385.017 9.374 349.194 9.716 303.279 10L219.799 10.517L305.288 10.759L390.777 11L411.254 31.5C427.986 48.251 431.288 52 429.303 52C427.476 52 422.214 47.29 408.074 33L389.273 14H226.044H62.8151L43.8295 33.036C28.68 48.225 24.339 52.043 22.3445 51.93C20.9698 51.852 19.3992 51.836 18.8543 51.894C18.3094 51.952 27.5283 61.675 39.3405 73.5L60.8185 95H225.974H391.13L412.125 73.775C427.421 58.312 432.848 52.221 432.115 51.339C431.437 50.522 431.476 49.375 432.235 47.814C433.241 45.744 433.211 45.684 431.951 47.241C430.622 48.884 430.438 48.866 428.681 46.924L426.819 44.866L435.078 45.282L443.337 45.699L439.773 42.76C436.711 40.236 435.295 39.799 429.729 39.661C426.166 39.572 423.126 39.872 422.975 40.327C422.824 40.781 421.878 40.244 420.871 39.132C419.047 37.116 419.063 37.112 426.862 37.668C433.542 38.144 434.509 38.018 433.502 36.805C432.404 35.482 425.097 35.255 420.091 36.39C419.14 36.605 416.847 35.144 414.725 32.971L411.019 29.175L418.885 29.696C425.043 30.103 426.499 29.952 425.592 28.999C424.472 27.823 413.055 27.387 411.328 28.454C410.884 28.728 409.751 28.102 408.81 27.061C406.959 25.016 407.15 25.005 419.14 26.497L422.527 26.919L416.641 21.357C413.403 18.298 407 12.241 402.412 7.898L394.07 0H225.762C114.635 0 57.2444 0.34 56.8365 1ZM65.8344 3C66.1863 3.569 65.3255 4 63.8348 4C62.3442 4 61.4834 3.569 61.8353 3C62.1752 2.45 63.075 2 63.8348 2C64.5947 2 65.4944 2.45 65.8344 3ZM226.297 3C226.297 3.55 225.82 4 225.238 4C224.656 4 224.458 3.55 224.797 3C225.137 2.45 225.613 2 225.856 2C226.099 2 226.297 2.45 226.297 3ZM378.262 3C378.262 3.55 377.56 4 376.703 4C375.846 4 375.422 3.55 375.762 3C376.102 2.45 376.803 2 377.321 2C377.839 2 378.262 2.45 378.262 3ZM385.26 3C386.425 3.753 386.132 3.973 383.951 3.985C382.331 3.994 381.404 3.577 381.761 3C382.528 1.758 383.34 1.758 385.26 3ZM389.094 7.123C388.36 7.589 386.635 7.962 385.26 7.953C382.938 7.938 382.888 7.84 384.556 6.574C385.545 5.825 387.27 5.451 388.39 5.745C389.946 6.151 390.112 6.478 389.094 7.123ZM54.337 7C54.337 7.55 53.8871 8 53.3373 8C52.7874 8 52.3375 7.55 52.3375 7C52.3375 6.45 52.7874 6 53.3373 6C53.8871 6 54.337 6.45 54.337 7ZM258.019 6.604C257.687 6.936 256.824 6.972 256.103 6.683C255.305 6.364 255.542 6.127 256.707 6.079C257.761 6.036 258.351 6.272 258.019 6.604ZM284.358 7.772C274.776 7.924 266.587 7.7 266.16 7.274C265.733 6.848 273.572 6.724 283.582 6.998L301.78 7.495L284.358 7.772ZM331.273 7C332.445 7.758 332.187 7.973 330.082 7.985C328.602 7.993 327.114 7.55 326.774 7C325.985 5.723 329.297 5.723 331.273 7ZM395.258 7.545C395.258 7.727 394.389 7.81 393.327 7.73C392.266 7.65 391.606 7.248 391.86 6.836C392.283 6.153 395.258 6.773 395.258 7.545ZM59.3359 8C59.3359 8.55 60.5726 8.968 62.0852 8.93C64.5217 8.867 64.6067 8.762 62.8351 8C60.1047 6.826 59.3359 6.826 59.3359 8ZM72.6018 7.656C71.9249 7.93 70.5753 7.947 69.6025 7.693C68.6297 7.439 69.1836 7.215 70.8332 7.195C72.4828 7.175 73.2786 7.382 72.6018 7.656ZM82.0596 7.604C81.7277 7.936 80.8649 7.972 80.144 7.683C79.3462 7.364 79.5832 7.127 80.7479 7.079C81.8017 7.036 82.3915 7.272 82.0596 7.604ZM90.0907 7.687C89.135 7.937 87.3354 7.946 86.0917 7.707C84.8479 7.468 85.6298 7.263 87.8293 7.252C90.0287 7.241 91.0465 7.437 90.0907 7.687ZM105.589 7.704C104.359 7.941 102.11 7.947 100.59 7.718C99.0706 7.488 100.076 7.294 102.826 7.286C105.575 7.279 106.819 7.467 105.589 7.704ZM112.053 7.604C111.721 7.936 110.858 7.972 110.137 7.683C109.339 7.364 109.576 7.127 110.741 7.079C111.795 7.036 112.385 7.272 112.053 7.604ZM128.07 7.716C126.558 7.945 124.083 7.945 122.571 7.716C121.06 7.487 122.296 7.3 125.321 7.3C128.345 7.3 129.582 7.487 128.07 7.716ZM144.566 7.706C143.328 7.944 141.305 7.944 140.067 7.706C138.829 7.467 139.842 7.272 142.317 7.272C144.791 7.272 145.804 7.467 144.566 7.706ZM173.098 7.738C169.958 7.936 164.559 7.937 161.101 7.741C157.643 7.546 160.212 7.384 166.811 7.382C173.409 7.38 176.239 7.54 173.098 7.738ZM186.306 8C186.306 8.55 186.783 9 187.365 9C187.947 9 188.146 8.55 187.806 8C187.466 7.45 186.99 7 186.747 7C186.504 7 186.306 7.45 186.306 8ZM248.021 7.604C247.689 7.936 246.826 7.972 246.105 7.683C245.308 7.364 245.545 7.127 246.709 7.079C247.763 7.036 248.353 7.272 248.021 7.604ZM318.526 7.732C316.189 7.943 312.364 7.943 310.028 7.732C307.691 7.522 309.603 7.349 314.277 7.349C318.951 7.349 320.862 7.522 318.526 7.732ZM336.001 7.604C335.669 7.936 334.806 7.972 334.085 7.683C333.287 7.364 333.524 7.127 334.689 7.079C335.743 7.036 336.333 7.272 336.001 7.604ZM342.539 7.656C341.862 7.93 340.513 7.947 339.54 7.693C338.567 7.439 339.121 7.215 340.771 7.195C342.42 7.175 343.216 7.382 342.539 7.656ZM352.03 7.687C351.074 7.937 349.275 7.946 348.031 7.707C346.787 7.468 347.569 7.263 349.768 7.252C351.968 7.241 352.986 7.437 352.03 7.687ZM374.263 8C374.263 8.55 374.713 9 375.263 9C375.812 9 376.262 8.55 376.262 8C376.262 7.45 375.812 7 375.263 7C374.713 7 374.263 7.45 374.263 8ZM183.12 8.683C183.841 8.972 184.704 8.936 185.036 8.604C185.368 8.272 184.778 8.036 183.724 8.079C182.559 8.127 182.322 8.364 183.12 8.683ZM229.058 8.707C230.302 8.946 232.102 8.937 233.058 8.687C234.013 8.437 232.996 8.241 230.796 8.252C228.597 8.263 227.815 8.468 229.058 8.707ZM188.119 10.683C188.84 10.972 189.703 10.936 190.035 10.604C190.366 10.272 189.777 10.036 188.723 10.079C187.558 10.127 187.321 10.364 188.119 10.683ZM192.118 10.683C192.839 10.972 193.702 10.936 194.034 10.604C194.366 10.272 193.776 10.036 192.722 10.079C191.557 10.127 191.32 10.364 192.118 10.683ZM196.054 10.662C196.742 10.94 197.867 10.94 198.554 10.662C199.241 10.385 198.679 10.158 197.304 10.158C195.929 10.158 195.367 10.385 196.054 10.662ZM202.572 10.693C203.544 10.947 204.894 10.93 205.571 10.656C206.248 10.382 205.452 10.175 203.802 10.195C202.153 10.215 201.599 10.439 202.572 10.693ZM214.569 10.693C215.542 10.947 216.891 10.93 217.568 10.656C218.245 10.382 217.449 10.175 215.8 10.195C214.15 10.215 213.596 10.439 214.569 10.693ZM398.766 11.015C399.101 11.557 398.336 12.014 397.066 12.032C394.834 12.063 394.821 12.111 396.676 13.515C398.208 14.675 398.893 14.719 400.089 13.733C401.388 12.661 401.427 12.794 400.386 14.75C398.971 17.404 399.865 17.665 402.427 15.345C403.433 14.435 404.256 14.162 404.256 14.738C404.256 15.314 403.581 16.045 402.756 16.362C399.838 17.482 401.31 18.548 405.256 18.171C407.739 17.935 409.255 18.209 409.255 18.895C409.255 19.503 407.819 20 406.064 20C403.157 20 403.036 20.119 404.701 21.336C405.817 22.153 408.179 22.507 410.776 22.248C413.114 22.015 415.306 22.276 415.648 22.829C416.029 23.447 414.943 23.73 412.836 23.563C410.948 23.413 408.807 23.661 408.079 24.113C407.167 24.68 404.654 22.853 400.007 18.245C396.296 14.565 393.258 11.302 393.258 10.995C393.258 9.988 398.143 10.006 398.766 11.015ZM403.756 11C404.096 11.55 403.897 12 403.315 12C402.733 12 402.256 11.55 402.256 11C402.256 10.45 402.454 10 402.697 10C402.94 10 403.416 10.45 403.756 11ZM51.2478 13.111C52.8904 14.453 53.9831 14.754 54.68 14.057C56.0456 12.691 55.0009 11.796 51.6207 11.437L48.8383 11.142L51.2478 13.111ZM202.489 12.748C211.663 12.913 226.96 12.913 236.481 12.749C246.002 12.584 238.494 12.449 219.799 12.449C201.103 12.449 193.314 12.583 202.489 12.748ZM47.3477 15.489C46.099 16.994 44.3394 16.673 44.3394 14.941C44.3394 14.423 45.2941 14 46.4609 14C48.2275 14 48.3764 14.25 47.3477 15.489ZM7.34795 16.044C7.34795 17.34 12.4448 37.196 12.9457 37.85C13.0926 38.043 13.6495 37.931 14.1824 37.601C14.7932 37.224 14.6842 35.43 13.8904 32.751C11.8489 25.87 11.0931 20.725 12.2278 21.426C12.7817 21.769 16.4098 22.079 20.2889 22.115C24.169 22.152 27.3433 22.619 27.3433 23.154C27.3433 23.688 26.5555 24.046 25.5937 23.948C24.6319 23.85 23.3942 23.863 22.8444 23.978C22.2945 24.092 19.932 24.11 17.5956 24.017C14.9462 23.912 13.3466 24.285 13.3466 25.007C13.3466 25.789 15.0982 26.04 18.7373 25.781C22.8663 25.487 24.0121 25.702 23.6292 26.699C23.3552 27.414 21.9985 28 20.6159 28C18.4564 28 18.2824 28.22 19.3872 29.551C20.4739 30.86 20.3379 31.189 18.5094 31.667C16.6158 32.163 15.3661 34 16.9237 34C17.7755 34 32.3421 20.777 32.3421 20.004C32.3421 19.642 27.2813 18.772 21.0948 18.071C14.9092 17.37 9.2855 16.337 8.59766 15.776C7.71687 15.056 7.34795 15.135 7.34795 16.044ZM440.892 17.766C440.586 18.261 435.834 19.239 430.332 19.941L420.327 21.216L426.038 26.358C429.179 29.186 432.984 32.782 434.492 34.349C437.618 37.595 437.275 38.083 440.259 26.134C442.147 18.576 442.392 15.339 440.892 17.766ZM17.2626 19.644C17.4916 19.84 16.0289 20 14.0134 20C11.9969 20 10.3473 19.561 10.3473 19.025C10.3473 18.164 16.1379 18.682 17.2626 19.644ZM439.248 21C439.248 21.55 438.236 21.968 436.998 21.93C434.852 21.863 434.841 21.82 436.748 21C437.848 20.527 438.861 20.109 438.998 20.07C439.135 20.032 439.248 20.45 439.248 21ZM48.1405 22.531C47.0587 23.614 43.3396 23.849 43.3396 22.836C43.3396 22.258 44.0004 22.04 44.8073 22.349C45.6141 22.659 46.5588 22.452 46.9068 21.89C47.2547 21.327 47.7936 21.122 48.1055 21.433C48.4164 21.745 48.4324 22.239 48.1405 22.531ZM433.978 21.604C433.646 21.936 432.783 21.972 432.062 21.683C431.264 21.364 431.501 21.127 432.666 21.079C433.72 21.036 434.31 21.272 433.978 21.604ZM37.8869 23.925C37.5709 24.437 38.2518 25.154 39.4015 25.519C42.2388 26.42 42.9917 25.419 40.4863 24.078C39.2685 23.426 38.2328 23.365 37.8869 23.925ZM437.852 25.589C437.584 26.287 437.065 28.461 436.697 30.42C436.329 32.379 435.648 33.747 435.183 33.459C434.717 33.171 434.59 32.275 434.9 31.468C435.282 30.472 434.805 30 433.415 30C432.289 30 431.09 29.55 430.75 29C430.389 28.417 431.405 28 433.19 28C434.872 28 436.248 27.55 436.248 27C436.248 26.45 434.197 26 431.69 26C428.859 26 427.37 25.615 427.76 24.984C428.719 23.432 438.456 24.016 437.852 25.589ZM27.3433 28.5C26.2916 29.767 26.4965 30 28.662 30C31.6793 30 33.015 28.472 30.7545 27.605C28.672 26.805 28.771 26.779 27.3433 28.5ZM15.1591 28.683C15.88 28.972 16.7428 28.936 17.0747 28.604C17.4066 28.272 16.8168 28.036 15.763 28.079C14.5983 28.127 14.3613 28.364 15.1591 28.683ZM415.783 30.951C414.54 32.963 416.226 33.699 422.047 33.685C425.271 33.677 428.435 33.996 429.079 34.394C429.723 34.792 430.25 34.664 430.25 34.109C430.25 32.297 426.998 31.224 423.095 31.748C420.874 32.046 418.676 31.767 417.852 31.082C416.882 30.277 416.225 30.235 415.783 30.951ZM20.9278 34.542C17.1857 37.847 17.5566 38.843 21.8446 37C23.2133 36.412 23.3712 36.106 22.3445 36.03C21.4667 35.966 21.9856 35.301 23.5942 34.428C25.1068 33.607 26.3435 32.5 26.3435 31.968C26.3435 30.312 24.9869 30.957 20.9278 34.542ZM31.3424 31.858C31.3424 33.759 34.7106 34.057 36.2692 32.294C37.133 31.315 37.21 31.053 36.4382 31.71C35.4664 32.538 34.4667 32.602 33.189 31.918C32.0962 31.333 31.3424 31.309 31.3424 31.858ZM14.4173 40.415C13.6865 41.295 14.8182 41.585 18.8923 41.562C21.8906 41.545 24.344 41.187 24.344 40.766C24.344 40.344 23.7821 39.971 23.0943 39.936C22.4075 39.901 20.3929 39.729 18.6193 39.554C16.8457 39.379 14.9552 39.767 14.4173 40.415ZM438.244 42.596C439.034 43.386 437.761 43.74 433.649 43.874C430.521 43.977 427.637 44.261 427.239 44.507C426.843 44.752 425.753 44.108 424.819 43.075C423.17 41.253 423.33 41.201 430.136 41.35C433.995 41.435 437.644 41.996 438.244 42.596ZM10.7742 44.479C9.7144 45.28 9.2975 45.944 9.84737 45.953C11.333 45.977 13.8724 44.192 13.2446 43.565C12.9456 43.265 11.8339 43.677 10.7742 44.479ZM15.0502 44.204C14.3283 44.663 14.9702 44.975 16.6548 44.985C18.6333 44.995 19.2412 45.369 18.7123 46.25C18.1774 47.141 18.4344 47.117 19.6091 46.164C20.5159 45.429 21.6956 45.099 22.2315 45.43C22.7674 45.762 23.4592 45.622 23.7691 45.121C24.474 43.98 16.6898 43.162 15.0502 44.204ZM68.3998 47.035C70.9272 48.389 70.8422 49.755 68.0838 52.056C65.3435 54.343 63.4629 54.498 62.6971 52.5C62.3802 51.675 61.4944 51 60.7286 51C58.893 51 58.97 50.062 60.9905 47.829C62.8461 45.778 65.5164 45.492 68.3998 47.035ZM391.608 48.178C392.435 49.5 392.138 50.289 390.209 51.895C387.272 54.339 385.674 54.522 384.898 52.5C384.582 51.675 383.635 51 382.792 51C380.81 51 380.856 50.104 382.96 47.78C385.021 45.502 390.078 45.734 391.608 48.178ZM6.34818 48.5C4.9975 50.128 5.32042 50.332 7.76585 49.393C8.63565 49.059 9.34749 48.384 9.34749 47.893C9.34749 46.51 7.72786 46.838 6.34818 48.5ZM437.05 48.128C437.434 48.474 439.924 48.985 442.584 49.265C446.101 49.635 447.12 49.474 446.32 48.674C445.715 48.069 443.225 47.557 440.786 47.537C438.347 47.517 436.665 47.783 437.05 48.128ZM12.1088 48.707C13.3526 48.946 15.1521 48.937 16.1079 48.687C17.0637 48.437 16.0459 48.241 13.8464 48.252C11.647 48.263 10.8651 48.468 12.1088 48.707ZM18.3454 49.059C18.3454 49.641 18.7953 49.84 19.3452 49.5C19.895 49.16 20.3449 48.684 20.3449 48.441C20.3449 48.198 19.895 48 19.3452 48C18.7953 48 18.3454 48.477 18.3454 49.059ZM433.749 49C434.089 49.55 434.565 50 434.808 50C435.051 50 435.249 49.55 435.249 49C435.249 48.45 434.772 48 434.19 48C433.608 48 433.409 48.45 433.749 49ZM5.11647 52.168C5.69833 52.75 6.76309 53.028 7.48492 52.788C8.23375 52.538 7.77985 52.085 6.42816 51.731C4.76555 51.296 4.37464 51.426 5.11647 52.168ZM446.238 52.107C445.112 52.88 445.36 52.973 447.246 52.486C449.074 52.014 447.331 54.211 440.747 60.672C431.367 69.877 406.038 93.689 398.257 100.616L393.758 104.621L225.703 104.55L57.6473 104.479L35.7474 83.9C2.92498 53.058 1.49131 51.785 0.11863 52.256C-0.621199 52.51 2.15916 55.822 6.79008 60.205L14.7312 67.718L12.4668 76.953C9.85637 87.6 10.0313 89.938 12.7327 80.503C14.6503 73.804 14.6633 73.797 19.3162 76.804C19.5751 76.972 19.1252 77.527 18.3164 78.039C17.2027 78.743 17.5216 78.973 19.6261 78.985C21.1947 78.993 22.6644 79.67 22.9973 80.537C23.3212 81.382 24.9939 82.823 26.7145 83.738L29.8427 85.402L25.3438 86.068C22.8693 86.435 18.2574 87.052 15.0962 87.439C11.593 87.869 9.34749 88.625 9.34749 89.375C9.34749 90.341 11.7639 90.312 20.5949 89.239C28.641 88.262 32.3361 88.176 33.5779 88.936C34.5326 89.521 35.9873 90 36.8101 90C37.6319 90 42.5308 93.825 47.6966 98.5L57.0874 107H226.205H395.323L403.038 99.515C413.73 89.144 417.504 87.764 431.064 89.269C436.631 89.887 441.501 90.08 441.884 89.696C443.205 88.375 442.195 88.126 428.5 86.39C425.614 86.024 423.251 85.337 423.251 84.862C423.251 84.388 423.678 84 424.199 84C424.721 84 426.362 82.875 427.845 81.5C429.328 80.125 431.361 79 432.364 79C433.495 79 433.987 78.481 433.661 77.631C433.35 76.821 433.97 76.045 435.181 75.728C436.865 75.287 437.432 75.882 438.397 79.103C440.193 85.102 440.471 83.06 438.821 75.983C437.872 71.913 437.676 69.07 438.268 67.963C438.773 67.02 442.349 63.193 446.216 59.459C450.083 55.724 453.134 52.582 452.995 52.475C451.768 51.528 447.427 51.291 446.238 52.107ZM439.061 52.683C439.782 52.972 440.644 52.936 440.976 52.604C441.308 52.272 440.718 52.036 439.665 52.079C438.5 52.127 438.263 52.364 439.061 52.683ZM442.247 53.059C442.247 53.641 442.697 53.84 443.247 53.5C443.797 53.16 444.246 52.684 444.246 52.441C444.246 52.198 443.797 52 443.247 52C442.697 52 442.247 52.477 442.247 53.059ZM439.517 56.693C440.489 56.947 441.839 56.93 442.516 56.656C443.193 56.382 442.397 56.175 440.747 56.195C439.098 56.215 438.544 56.439 439.517 56.693ZM440.326 85.583C440.374 86.748 440.611 86.985 440.93 86.188C441.219 85.466 441.183 84.603 440.851 84.271C440.519 83.939 440.283 84.529 440.326 85.583Z" fill="#505050"/>
<path d="M134.32 51.36V49.84C134.32 49.6267 134.16 49.52 133.84 49.52H121.28V36.56C121.28 36.32 121.133 36.2 120.84 36.2H119.4C119.08 36.2 118.92 36.32 118.92 36.56V49.52H106.52C106.2 49.52 106.04 49.6267 106.04 49.84V51.36C106.04 51.6 106.2 51.72 106.52 51.72H118.92V64.56C118.92 64.8 119.08 64.92 119.4 64.92H120.84C121.133 64.92 121.28 64.8 121.28 64.56V51.72H133.84C134.16 51.72 134.32 51.6 134.32 51.36ZM159.717 41.16L159.237 40.8C158.917 40.8 158.637 40.84 158.397 40.92C158.131 41.0267 157.957 41.08 157.877 41.08H148.997C148.917 41.08 148.824 41.1067 148.717 41.16C148.637 41.2133 148.584 41.28 148.557 41.36C148.291 42.72 148.091 44.12 147.957 45.56C147.824 47 147.731 48.44 147.677 49.88C147.677 50.0667 147.824 50.1867 148.117 50.24C149.984 50.48 151.517 51 152.717 51.8C153.917 52.5733 154.984 53.8267 155.917 55.56C156.077 55.8533 156.211 56.1867 156.317 56.56C156.424 56.9333 156.477 57.32 156.477 57.72C156.477 58.4667 156.291 59.16 155.917 59.8C155.571 60.44 155.117 61 154.557 61.48C153.997 61.96 153.357 62.3467 152.637 62.64C151.944 62.9067 151.251 63.04 150.557 63.04C149.384 63.04 148.531 62.64 147.997 61.84C147.464 61.04 147.224 60.0667 147.277 58.92C147.277 58.7067 147.131 58.6 146.837 58.6C146.571 58.5733 146.397 58.6533 146.317 58.84C146.157 59.3733 146.051 59.9467 145.997 60.56C145.971 61.1467 145.957 61.7333 145.957 62.32C145.957 62.6133 145.957 62.92 145.957 63.24C145.957 63.5333 145.971 63.8267 145.997 64.12C145.997 64.28 146.104 64.3867 146.317 64.44C146.877 64.6533 147.491 64.8133 148.157 64.92C148.851 65 149.504 65.04 150.117 65.04C151.344 65.04 152.504 64.8533 153.597 64.48C154.717 64.1067 155.704 63.56 156.557 62.84C157.411 62.12 158.091 61.2533 158.597 60.24C159.104 59.2267 159.357 58.08 159.357 56.8C159.357 55.52 159.104 54.3067 158.597 53.16C158.117 51.9867 157.451 50.96 156.597 50.08C155.771 49.2 154.784 48.5067 153.637 48C152.491 47.4933 151.264 47.2533 149.957 47.28C150.011 46.64 150.051 46.0133 150.077 45.4C150.131 44.7867 150.197 44.1467 150.277 43.48H156.717C157.171 43.48 157.477 43.6533 157.637 44C157.824 44.3467 157.957 44.68 158.037 45C158.091 45.1067 158.144 45.24 158.197 45.4C158.251 45.56 158.331 45.7067 158.437 45.84C158.571 45.9467 158.717 45.9867 158.877 45.96C159.064 45.9333 159.184 45.84 159.237 45.68C159.557 44.2133 159.717 42.7067 159.717 41.16ZM179.347 50.6C179.347 49.3467 179.187 48.1067 178.867 46.88C178.574 45.6267 178.094 44.52 177.427 43.56C176.787 42.5733 175.934 41.7867 174.867 41.2C173.827 40.5867 172.56 40.28 171.067 40.28C169.387 40.28 167.947 40.6133 166.747 41.28C165.547 41.9467 164.547 42.84 163.747 43.96C162.974 45.0533 162.4 46.2933 162.027 47.68C161.654 49.0667 161.467 50.48 161.467 51.92C161.467 53.3333 161.654 54.8 162.027 56.32C162.427 57.84 163.014 59.24 163.787 60.52C164.587 61.7733 165.587 62.8267 166.787 63.68C168.014 64.5333 169.467 64.9867 171.147 65.04L171.307 65C172.64 64.36 173.814 63.5067 174.827 62.44C175.84 61.3733 176.68 60.2 177.347 58.92C178.014 57.6133 178.507 56.2533 178.827 54.84C179.174 53.4 179.347 51.9867 179.347 50.6ZM175.547 51.72C175.547 52.6 175.467 53.6 175.307 54.72C175.174 55.8133 174.947 56.9067 174.627 58C174.307 59.0667 173.88 60.0667 173.347 61C172.814 61.9333 172.147 62.64 171.347 63.12C170.174 62.7733 169.174 62.16 168.347 61.28C167.547 60.3733 166.894 59.3467 166.387 58.2C165.907 57.0267 165.547 55.8133 165.307 54.56C165.094 53.28 164.987 52.08 164.987 50.96C164.987 50.1867 165.054 49.2933 165.187 48.28C165.32 47.2667 165.56 46.3067 165.907 45.4C166.28 44.4933 166.774 43.7333 167.387 43.12C168 42.48 168.787 42.16 169.747 42.16C170.894 42.16 171.84 42.48 172.587 43.12C173.334 43.76 173.92 44.56 174.347 45.52C174.8 46.48 175.107 47.52 175.267 48.64C175.454 49.76 175.547 50.7867 175.547 51.72ZM217.079 43.68L216.999 43C216.386 42.9733 215.799 42.96 215.239 42.96C214.679 42.9333 214.106 42.92 213.519 42.92C212.932 42.92 212.346 42.9333 211.759 42.96C211.199 42.96 210.639 42.9733 210.079 43C209.812 43 209.679 43.12 209.679 43.36C209.679 43.5733 209.812 43.68 210.079 43.68C210.106 43.68 210.146 43.6933 210.199 43.72C210.252 43.72 210.306 43.72 210.359 43.72C210.572 43.7467 210.826 43.7867 211.119 43.84C211.412 43.8933 211.559 43.9467 211.559 44C211.559 44.64 211.359 45.52 210.959 46.64C210.586 47.76 210.106 48.9867 209.519 50.32C208.959 51.6267 208.346 52.96 207.679 54.32C207.039 55.68 206.439 56.92 205.879 58.04L204.959 59.88C204.799 59.48 204.652 59.1333 204.519 58.84C204.386 58.5467 204.252 58.2667 204.119 58C204.012 57.7067 203.879 57.4133 203.719 57.12C203.586 56.8267 203.439 56.4933 203.279 56.12C202.372 54.1733 201.479 52.2 200.599 50.2C199.746 48.1733 199.039 46.1333 198.479 44.08C198.639 44 198.852 43.8667 199.119 43.68C199.386 43.4933 199.612 43.4133 199.799 43.44C200.039 43.4667 200.172 43.36 200.199 43.12C200.252 42.88 200.159 42.76 199.919 42.76C199.012 42.76 198.252 42.7867 197.639 42.84C197.026 42.8667 196.359 42.88 195.639 42.88H194.159C193.706 42.88 193.266 42.8933 192.839 42.92C192.439 42.92 192.012 42.9067 191.559 42.88C191.319 42.88 191.159 42.9733 191.079 43.16C190.999 43.32 191.066 43.44 191.279 43.52C191.492 43.6533 191.706 43.7467 191.919 43.8C192.159 43.8533 192.386 43.9067 192.599 43.96C192.919 44.04 193.212 44.1333 193.479 44.24C193.772 44.3467 193.999 44.56 194.159 44.88C194.346 45.1467 194.519 45.48 194.679 45.88C194.866 46.2533 195.066 46.64 195.279 47.04C195.386 47.2533 195.479 47.4533 195.559 47.64C195.639 47.8267 195.732 48 195.839 48.16H195.799C196.199 48.96 196.586 49.8267 196.959 50.76C197.359 51.6667 197.759 52.5733 198.159 53.48C199.012 55.48 199.906 57.5067 200.839 59.56C201.799 61.5867 202.839 63.44 203.959 65.12C204.066 65.2267 204.199 65.28 204.359 65.28C204.546 65.2533 204.692 65.1867 204.799 65.08C205.786 63.1867 206.732 61.3067 207.639 59.44C208.572 57.5467 209.492 55.64 210.399 53.72C210.612 53.24 210.852 52.7333 211.119 52.2C211.386 51.6667 211.626 51.1733 211.839 50.72C211.972 50.5067 212.092 50.2667 212.199 50C212.306 49.7333 212.426 49.4533 212.559 49.16C212.746 48.76 212.946 48.3333 213.159 47.88C213.372 47.4 213.586 46.9467 213.799 46.52C214.039 46.0933 214.266 45.6933 214.479 45.32C214.692 44.9467 214.892 44.64 215.079 44.4C215.239 44.24 215.439 44.12 215.679 44.04C215.919 43.9333 216.172 43.8533 216.439 43.8C216.572 43.7733 216.679 43.76 216.759 43.76C216.866 43.7333 216.972 43.7067 217.079 43.68ZM228.077 64.2C227.863 64.0133 227.637 63.9067 227.397 63.88C227.183 63.8267 226.93 63.8 226.637 63.8C226.503 63.8 226.357 63.7867 226.197 63.76C226.037 63.7333 225.917 63.7067 225.837 63.68C225.783 63.6 225.717 63.4533 225.637 63.24C225.557 63.0267 225.49 62.8 225.437 62.56C225.383 62.32 225.33 62.0933 225.277 61.88C225.25 61.6667 225.237 61.5067 225.237 61.4V45.24C225.237 44.6 225.423 44.2 225.797 44.04C226.17 43.88 226.623 43.76 227.157 43.68C227.397 43.6267 227.503 43.5067 227.477 43.32C227.477 43.1333 227.357 43.0267 227.117 43C226.503 42.9467 225.903 42.9467 225.317 43C224.73 43.0533 224.13 43.08 223.517 43.08C222.903 43.08 222.277 43.0533 221.637 43C220.997 42.9467 220.357 42.9467 219.717 43C219.45 43.0267 219.303 43.1467 219.277 43.36C219.277 43.5467 219.41 43.6533 219.677 43.68C220.157 43.7333 220.61 43.88 221.037 44.12C221.49 44.3333 221.717 44.7067 221.717 45.24V61.52C221.717 61.7333 221.69 61.9733 221.637 62.24C221.61 62.5067 221.557 62.7733 221.477 63.04C221.397 63.3067 221.277 63.5333 221.117 63.72C220.983 63.88 220.81 63.96 220.597 63.96C220.543 63.96 220.463 63.9867 220.357 64.04C220.277 64.0667 220.17 64.0533 220.037 64C219.797 63.9467 219.623 64.0533 219.517 64.32C219.41 64.56 219.477 64.72 219.717 64.8C219.903 64.88 220.157 64.9333 220.477 64.96C220.823 64.96 221.17 64.9467 221.517 64.92C221.89 64.8933 222.237 64.8667 222.557 64.84C222.877 64.8133 223.143 64.8 223.357 64.8L224.877 64.84C225.383 64.8667 225.863 64.8667 226.317 64.84C226.797 64.8133 227.277 64.8133 227.757 64.84L228.077 64.2ZM255.339 53.56C255.339 53.1867 255.339 52.8133 255.339 52.44C255.339 52.04 255.312 51.6533 255.259 51.28C255.125 50.1067 254.605 49 253.699 47.96C252.819 46.92 251.765 46.0267 250.539 45.28C249.312 44.5067 248.019 43.9067 246.659 43.48C245.299 43.0267 244.085 42.8 243.019 42.8C242.459 42.8 241.845 42.8133 241.179 42.84C240.539 42.8667 239.939 42.8933 239.379 42.92C238.205 43 237.045 43.04 235.899 43.04C235.445 43.04 234.952 43.0267 234.419 43C233.885 42.9733 233.379 42.9467 232.899 42.92C232.525 42.8933 232.152 42.88 231.779 42.88C231.432 42.8533 231.072 42.84 230.699 42.84C230.512 42.84 230.379 42.8933 230.299 43C230.219 43.08 230.205 43.1867 230.259 43.32C230.339 43.48 230.485 43.6 230.699 43.68C230.939 43.7333 231.179 43.7867 231.419 43.84C231.739 43.8933 232.059 43.9867 232.379 44.12C232.699 44.2533 232.859 44.5867 232.859 45.12V61.36C232.859 62.2667 232.739 62.8933 232.499 63.24C232.285 63.5867 231.779 63.8267 230.979 63.96C230.712 64.0133 230.592 64.1467 230.619 64.36C230.645 64.5733 230.792 64.68 231.059 64.68C231.885 64.6533 232.765 64.6667 233.699 64.72C234.632 64.7733 235.525 64.8267 236.379 64.88C237.152 64.9333 237.925 64.9867 238.699 65.04C239.499 65.0667 240.285 65.08 241.059 65.08C242.952 65.08 244.765 64.88 246.499 64.48C248.232 64.08 249.752 63.4267 251.059 62.52C252.365 61.6133 253.405 60.4267 254.179 58.96C254.952 57.4933 255.339 55.6933 255.339 53.56ZM251.699 54.68C251.699 56.28 251.405 57.64 250.819 58.76C250.232 59.8533 249.445 60.76 248.459 61.48C247.472 62.1733 246.325 62.68 245.019 63C243.712 63.32 242.352 63.48 240.939 63.48C240.272 63.48 239.672 63.4533 239.139 63.4C238.605 63.3467 238.139 63.2133 237.739 63C237.365 62.7867 237.072 62.4667 236.859 62.04C236.672 61.6133 236.579 61.0267 236.579 60.28V44.84C237.112 44.68 237.645 44.5733 238.179 44.52C238.712 44.4667 239.245 44.44 239.779 44.44C241.352 44.44 242.859 44.6533 244.299 45.08C245.739 45.5067 247.005 46.1467 248.099 47C249.192 47.8267 250.059 48.8933 250.699 50.2C251.365 51.48 251.699 52.9733 251.699 54.68ZM278.885 64.56V63.84C278.298 63.7867 277.725 63.6667 277.165 63.48C276.605 63.2933 276.165 62.8933 275.845 62.28C274.832 60.44 273.898 58.5467 273.045 56.6C272.218 54.6267 271.392 52.68 270.565 50.76L268.805 46.64V46.68C268.752 46.6 268.698 46.4933 268.645 46.36C268.592 46.2 268.525 46.0267 268.445 45.84V45.88C268.312 45.5867 268.165 45.2533 268.005 44.88C267.845 44.5067 267.672 44.16 267.485 43.84C267.298 43.4933 267.112 43.1867 266.925 42.92C266.738 42.6533 266.552 42.48 266.365 42.4C266.072 42.32 265.872 42.3733 265.765 42.56C264.965 44.4267 264.165 46.2933 263.365 48.16C262.592 50.0267 261.818 51.9067 261.045 53.8C260.512 55.08 259.952 56.4 259.365 57.76C258.805 59.0933 258.258 60.4 257.725 61.68C257.592 61.92 257.405 62.1867 257.165 62.48C256.952 62.7733 256.712 63.04 256.445 63.28C256.178 63.4933 255.898 63.6533 255.605 63.76C255.312 63.8667 255.032 63.88 254.765 63.8L254.605 64.52L261.645 64.64C261.912 64.64 262.045 64.5333 262.045 64.32C262.072 64.08 261.952 63.9467 261.685 63.92C261.418 63.8667 261.112 63.8 260.765 63.72C260.418 63.6133 260.245 63.4133 260.245 63.12C260.245 62.88 260.325 62.48 260.485 61.92C260.672 61.3333 260.898 60.7067 261.165 60.04C261.432 59.3733 261.698 58.7067 261.965 58.04C262.232 57.3733 262.472 56.8267 262.685 56.4H269.125C269.685 57.6533 270.218 58.8533 270.725 60C271.232 61.1467 271.752 62.3467 272.285 63.6L271.925 64.04C271.765 64.1733 271.712 64.3067 271.765 64.44C271.845 64.5733 271.992 64.64 272.205 64.64C272.685 64.6667 273.152 64.6933 273.605 64.72C274.058 64.72 274.525 64.72 275.005 64.72C275.672 64.72 276.325 64.7067 276.965 64.68C277.605 64.6533 278.245 64.6133 278.885 64.56ZM268.405 54.68H263.325C263.832 53.48 264.258 52.36 264.605 51.32C264.978 50.2533 265.392 49.1333 265.845 47.96L268.405 54.68Z" fill="white"/>
<path d="M329.521 91.1482L332.077 85.7772H347.414L349.97 91.1482H329.521ZM328.083 82.7758V74.5693H333.195V71.0623C330.112 72.4841 326.389 72.3577 324.408 72.3577C316.34 72.3577 311.292 68.8981 308.512 64.7751C305.732 60.6521 305.077 56.0078 305.077 53.2433C305.077 44.9499 311.244 38.331 318.385 32.5493C325.527 26.7834 333.834 21.6968 338.723 16.8471L339.745 15.8519L340.768 16.8471C345.656 21.6968 353.964 26.7834 361.105 32.5493C368.246 38.331 374.413 44.9499 374.413 53.2433C374.413 56.0078 373.758 60.6521 370.978 64.7751C368.198 68.8981 363.15 72.3577 355.082 72.3577C353.101 72.3577 349.379 72.4841 346.295 71.0623V74.5693H351.408V82.7758H328.083ZM330.958 79.9323H348.532V77.4127H330.958V79.9323ZM336.071 74.5693H343.42V64.9805L345.88 67.3974C347.749 69.2615 352.526 69.5142 355.082 69.5142C362.351 69.5142 366.249 66.655 368.582 63.1954C370.914 59.7359 371.537 55.5339 371.537 53.2433C371.537 46.3717 366.201 40.3372 359.284 34.7609C352.782 29.4847 345.065 24.7298 339.745 19.8011C334.425 24.7298 326.709 29.4847 320.207 34.7609C313.289 40.3372 307.953 46.3717 307.953 53.2433C307.953 55.5339 308.576 59.7359 310.909 63.1954C313.241 66.655 317.139 69.5142 324.408 69.5142C326.964 69.5142 331.741 69.2615 333.61 67.3974L336.071 64.9805V74.5693ZM329.521 63.3534C319.296 63.3534 316.74 55.7709 316.74 50.7158C316.74 40.6058 329.521 35.5507 339.745 27.9682C349.97 35.5507 362.751 40.6058 362.751 50.7158C362.751 55.7709 360.195 63.3534 349.97 63.3534C344.858 63.3534 342.301 63.3534 339.745 55.7709C337.189 63.3534 334.633 63.3534 329.521 63.3534ZM349.602 61.047C350.178 61.0628 350.545 60.9997 350.529 60.9523C347.893 59.7991 345.113 57.0978 343.404 54.3649C343.404 54.3649 342.893 57.161 344.985 59.4042C346.168 60.6837 348.356 61.0313 349.602 61.047V61.047ZM329.521 60.8259C325.686 57.4295 322.923 51.6321 321.98 46.5454C321.98 46.5454 318.865 50.2893 320.75 54.981C322.315 58.8513 328.754 60.7469 329.521 60.8259V60.8259Z" fill="white"/>
</svg>
