<svg width="453" height="107" viewBox="0 0 453 107" fill="none" xmlns="http://www.w3.org/2000/svg">
<path fill-rule="evenodd" clip-rule="evenodd" d="M56.8365 1C56.4965 1.55 56.7215 2 57.3363 2C57.9512 2 58.1881 2.43 57.8632 2.956C57.5383 3.482 56.7245 3.705 56.0546 3.45C55.3848 3.196 53.1323 4.509 51.0488 6.367C47.6026 9.441 47.4446 9.794 49.2992 10.28C50.4199 10.573 51.3377 10.405 51.3377 9.906C51.3377 8.339 53.1823 8.917 55.2458 11.132C57.2294 13.262 57.2294 13.266 55.0349 15.06C52.8874 16.815 52.7754 16.788 50.095 13.874C46.8368 10.331 46.9178 10.298 37.455 19.165C30.3106 25.861 28.741 27.928 32.2112 26.07C33.2379 25.52 34.4247 25.392 34.8466 25.785C35.2695 26.178 35.4024 25.825 35.1415 25C34.8366 24.034 35.7594 23.038 37.7349 22.201C39.9784 21.251 40.4423 20.681 39.4645 20.076C38.3807 19.407 38.3717 19.099 39.4155 18.453C40.9891 17.481 52.3375 17.162 52.3375 18.091C52.3375 19.453 49.1812 21.366 48.5124 20.408C47.7786 19.359 42.7947 19.212 41.796 20.21C40.8622 21.145 43.2976 25.144 44.3894 24.469C46.2619 23.312 45.2931 25.694 43.0257 27.826C40.7032 30.007 38.7407 30.78 39.7754 29.105C40.0803 28.612 39.7004 27.968 38.9316 27.673C37.267 27.034 33.3419 27.931 33.3419 28.95C33.3419 30.479 34.7206 30.93 36.0413 29.834C37.084 28.968 37.7099 28.969 38.5767 29.836C39.4445 30.704 39.0416 31.702 36.9401 33.897C34.6586 36.279 33.6718 36.669 31.4983 36.048C28.3311 35.144 23.9291 36.243 26.6045 37.27C27.4933 37.611 29.4458 37.668 30.9445 37.396C33.3289 36.963 33.5059 37.097 32.3641 38.473C31.6343 39.354 30.2796 39.797 29.2859 39.482C28.3101 39.172 27.1753 39.463 26.7634 40.129C26.2486 40.962 26.5345 41.141 27.6792 40.701C30.4866 39.624 29.5498 41.381 24.8649 45.979C22.4015 48.397 20.5629 50.551 20.7778 50.766C20.9928 50.981 30.1077 42.125 41.0341 31.086L60.8995 11.015L123.853 10.75L186.806 10.485L123.271 10.242C82.0196 10.085 59.3149 10.351 58.5361 11C57.6843 11.71 57.6083 11.67 58.2751 10.861C58.899 10.104 58.5101 9.151 57.1134 8.02C55.6607 6.844 55.3708 6.097 56.1746 5.6C56.8135 5.205 57.3363 5.319 57.3363 5.853C57.3363 6.386 59.5828 6.708 62.3282 6.568C66.4102 6.36 67.1161 6.558 66.2043 7.657C65.2735 8.778 74.4924 9 122.115 9C158.466 9 179.262 8.645 179.475 8.02C179.99 6.504 191.56 6.264 192.058 7.759C192.597 9.375 196.966 9.368 197.721 7.75C198.187 6.75 198.421 6.75 198.886 7.75C199.207 8.438 200.643 9 202.077 9C204.6 9 204.622 8.95 202.744 7.448C200.88 5.958 200.902 5.924 203.302 6.583C204.677 6.961 206.027 7.546 206.302 7.885C207.13 8.903 212.392 8.958 211.764 7.941C211.443 7.42 212.771 7 214.741 7C216.697 7 218.299 7.45 218.299 8C218.299 8.55 220.21 8.936 222.548 8.858L226.797 8.716L222.798 8.006C219.137 7.356 232.275 7.436 251.291 8.178C255.415 8.34 259.914 8.111 261.289 7.67C263.16 7.071 263.411 7.133 262.289 7.919C261.234 8.658 276.367 8.924 313.277 8.817C342.145 8.733 363.065 8.365 359.766 8L353.767 7.336L360.516 7.168C364.46 7.07 367.264 7.415 367.264 8C367.264 9.466 369.188 9.219 370.869 7.537C372.868 5.537 381.818 5.624 380.155 7.627C379.228 8.746 379.733 9.045 382.889 9.241C385.017 9.374 349.194 9.716 303.279 10L219.799 10.517L305.288 10.759L390.777 11L411.254 31.5C427.986 48.251 431.287 52 429.303 52C427.476 52 422.214 47.29 408.074 33L389.273 14H226.044H62.8151L43.8295 33.036C28.68 48.225 24.339 52.043 22.3445 51.93C20.9698 51.852 19.3992 51.836 18.8543 51.894C18.3094 51.952 27.5283 61.675 39.3405 73.5L60.8185 95H225.974H391.13L412.125 73.775C427.421 58.312 432.848 52.221 432.115 51.339C431.437 50.522 431.476 49.375 432.235 47.814C433.241 45.744 433.211 45.684 431.951 47.241C430.622 48.884 430.438 48.866 428.681 46.924L426.819 44.866L435.078 45.282L443.337 45.699L439.772 42.76C436.711 40.236 435.295 39.799 429.729 39.661C426.166 39.572 423.126 39.872 422.975 40.327C422.824 40.781 421.878 40.244 420.871 39.132C419.047 37.116 419.063 37.112 426.861 37.668C433.542 38.144 434.509 38.018 433.502 36.805C432.404 35.482 425.097 35.255 420.091 36.39C419.14 36.605 416.847 35.144 414.725 32.971L411.019 29.175L418.885 29.696C425.043 30.103 426.499 29.952 425.592 28.999C424.472 27.823 413.055 27.387 411.328 28.454C410.884 28.728 409.751 28.102 408.81 27.061C406.959 25.016 407.15 25.005 419.14 26.497L422.526 26.919L416.641 21.357C413.403 18.298 407 12.241 402.412 7.898L394.07 0H225.762C114.635 0 57.2444 0.34 56.8365 1ZM65.8344 3C66.1863 3.569 65.3255 4 63.8348 4C62.3442 4 61.4834 3.569 61.8353 3C62.1752 2.45 63.075 2 63.8348 2C64.5947 2 65.4944 2.45 65.8344 3ZM226.297 3C226.297 3.55 225.82 4 225.238 4C224.656 4 224.458 3.55 224.797 3C225.137 2.45 225.613 2 225.856 2C226.099 2 226.297 2.45 226.297 3ZM378.262 3C378.262 3.55 377.56 4 376.703 4C375.846 4 375.422 3.55 375.762 3C376.102 2.45 376.803 2 377.321 2C377.839 2 378.262 2.45 378.262 3ZM385.26 3C386.425 3.753 386.132 3.973 383.951 3.985C382.331 3.994 381.404 3.577 381.761 3C382.528 1.758 383.34 1.758 385.26 3ZM389.094 7.123C388.36 7.589 386.635 7.962 385.26 7.953C382.938 7.938 382.888 7.84 384.556 6.574C385.545 5.825 387.27 5.451 388.39 5.745C389.946 6.151 390.112 6.478 389.094 7.123ZM54.337 7C54.337 7.55 53.8871 8 53.3373 8C52.7874 8 52.3375 7.55 52.3375 7C52.3375 6.45 52.7874 6 53.3373 6C53.8871 6 54.337 6.45 54.337 7ZM258.019 6.604C257.687 6.936 256.824 6.972 256.103 6.683C255.305 6.364 255.542 6.127 256.707 6.079C257.761 6.036 258.351 6.272 258.019 6.604ZM284.358 7.772C274.776 7.924 266.587 7.7 266.16 7.274C265.733 6.848 273.572 6.724 283.582 6.998L301.78 7.495L284.358 7.772ZM331.273 7C332.445 7.758 332.186 7.973 330.082 7.985C328.602 7.993 327.114 7.55 326.774 7C325.985 5.723 329.297 5.723 331.273 7ZM395.258 7.545C395.258 7.727 394.389 7.81 393.327 7.73C392.266 7.65 391.606 7.248 391.86 6.836C392.283 6.153 395.258 6.773 395.258 7.545ZM59.3359 8C59.3359 8.55 60.5726 8.968 62.0852 8.93C64.5217 8.867 64.6067 8.762 62.8351 8C60.1047 6.826 59.3359 6.826 59.3359 8ZM72.6018 7.656C71.9249 7.93 70.5753 7.947 69.6025 7.693C68.6297 7.439 69.1836 7.215 70.8332 7.195C72.4828 7.175 73.2786 7.382 72.6018 7.656ZM82.0596 7.604C81.7277 7.936 80.8649 7.972 80.144 7.683C79.3462 7.364 79.5832 7.127 80.7479 7.079C81.8017 7.036 82.3915 7.272 82.0596 7.604ZM90.0907 7.687C89.1349 7.937 87.3354 7.946 86.0917 7.707C84.8479 7.468 85.6298 7.263 87.8292 7.252C90.0287 7.241 91.0465 7.437 90.0907 7.687ZM105.589 7.704C104.359 7.941 102.11 7.947 100.59 7.718C99.0706 7.488 100.076 7.294 102.826 7.286C105.575 7.279 106.819 7.467 105.589 7.704ZM112.053 7.604C111.721 7.936 110.858 7.972 110.137 7.683C109.339 7.364 109.576 7.127 110.741 7.079C111.795 7.036 112.385 7.272 112.053 7.604ZM128.07 7.716C126.558 7.945 124.083 7.945 122.571 7.716C121.06 7.487 122.296 7.3 125.321 7.3C128.345 7.3 129.582 7.487 128.07 7.716ZM144.566 7.706C143.328 7.944 141.305 7.944 140.067 7.706C138.829 7.467 139.842 7.272 142.317 7.272C144.791 7.272 145.804 7.467 144.566 7.706ZM173.098 7.738C169.958 7.936 164.559 7.937 161.101 7.741C157.643 7.546 160.212 7.384 166.811 7.382C173.409 7.38 176.239 7.54 173.098 7.738ZM186.306 8C186.306 8.55 186.783 9 187.365 9C187.947 9 188.146 8.55 187.806 8C187.466 7.45 186.99 7 186.747 7C186.504 7 186.306 7.45 186.306 8ZM248.021 7.604C247.689 7.936 246.826 7.972 246.105 7.683C245.308 7.364 245.545 7.127 246.709 7.079C247.763 7.036 248.353 7.272 248.021 7.604ZM318.526 7.732C316.189 7.943 312.364 7.943 310.028 7.732C307.691 7.522 309.603 7.349 314.277 7.349C318.951 7.349 320.862 7.522 318.526 7.732ZM336.001 7.604C335.669 7.936 334.806 7.972 334.085 7.683C333.287 7.364 333.524 7.127 334.689 7.079C335.743 7.036 336.333 7.272 336.001 7.604ZM342.539 7.656C341.862 7.93 340.513 7.947 339.54 7.693C338.567 7.439 339.121 7.215 340.77 7.195C342.42 7.175 343.216 7.382 342.539 7.656ZM352.03 7.687C351.074 7.937 349.275 7.946 348.031 7.707C346.787 7.468 347.569 7.263 349.768 7.252C351.968 7.241 352.986 7.437 352.03 7.687ZM374.263 8C374.263 8.55 374.713 9 375.263 9C375.812 9 376.262 8.55 376.262 8C376.262 7.45 375.812 7 375.263 7C374.713 7 374.263 7.45 374.263 8ZM183.12 8.683C183.841 8.972 184.704 8.936 185.036 8.604C185.368 8.272 184.778 8.036 183.724 8.079C182.559 8.127 182.322 8.364 183.12 8.683ZM229.058 8.707C230.302 8.946 232.102 8.937 233.057 8.687C234.013 8.437 232.996 8.241 230.796 8.252C228.597 8.263 227.815 8.468 229.058 8.707ZM188.119 10.683C188.84 10.972 189.703 10.936 190.035 10.604C190.366 10.272 189.777 10.036 188.723 10.079C187.558 10.127 187.321 10.364 188.119 10.683ZM192.118 10.683C192.839 10.972 193.702 10.936 194.034 10.604C194.366 10.272 193.776 10.036 192.722 10.079C191.557 10.127 191.32 10.364 192.118 10.683ZM196.054 10.662C196.742 10.94 197.867 10.94 198.554 10.662C199.241 10.385 198.678 10.158 197.304 10.158C195.929 10.158 195.367 10.385 196.054 10.662ZM202.572 10.693C203.544 10.947 204.894 10.93 205.571 10.656C206.248 10.382 205.452 10.175 203.802 10.195C202.153 10.215 201.599 10.439 202.572 10.693ZM214.569 10.693C215.542 10.947 216.891 10.93 217.568 10.656C218.245 10.382 217.449 10.175 215.8 10.195C214.15 10.215 213.596 10.439 214.569 10.693ZM398.766 11.015C399.101 11.557 398.336 12.014 397.066 12.032C394.834 12.063 394.821 12.111 396.676 13.515C398.208 14.675 398.893 14.719 400.089 13.733C401.388 12.661 401.427 12.794 400.386 14.75C398.971 17.404 399.865 17.665 402.427 15.345C403.433 14.435 404.256 14.162 404.256 14.738C404.256 15.314 403.581 16.045 402.756 16.362C399.838 17.482 401.31 18.548 405.256 18.171C407.739 17.935 409.255 18.209 409.255 18.895C409.255 19.503 407.819 20 406.064 20C403.157 20 403.036 20.119 404.701 21.336C405.817 22.153 408.179 22.507 410.776 22.248C413.114 22.015 415.306 22.276 415.648 22.829C416.029 23.447 414.943 23.73 412.836 23.563C410.948 23.413 408.807 23.661 408.079 24.113C407.167 24.68 404.654 22.853 400.007 18.245C396.296 14.565 393.258 11.302 393.258 10.995C393.258 9.988 398.143 10.006 398.766 11.015ZM403.756 11C404.096 11.55 403.897 12 403.315 12C402.733 12 402.256 11.55 402.256 11C402.256 10.45 402.454 10 402.697 10C402.94 10 403.416 10.45 403.756 11ZM51.2478 13.111C52.8904 14.453 53.9831 14.754 54.68 14.057C56.0456 12.691 55.0009 11.796 51.6207 11.437L48.8383 11.142L51.2478 13.111ZM202.489 12.748C211.663 12.913 226.96 12.913 236.481 12.749C246.002 12.584 238.494 12.449 219.799 12.449C201.103 12.449 193.314 12.583 202.489 12.748ZM47.3477 15.489C46.099 16.994 44.3394 16.673 44.3394 14.941C44.3394 14.423 45.2941 14 46.4609 14C48.2275 14 48.3764 14.25 47.3477 15.489ZM7.34795 16.044C7.34795 17.34 12.4448 37.196 12.9456 37.85C13.0926 38.043 13.6495 37.931 14.1824 37.601C14.7932 37.224 14.6842 35.43 13.8904 32.751C11.8489 25.87 11.0931 20.725 12.2278 21.426C12.7817 21.769 16.4098 22.079 20.2889 22.115C24.169 22.152 27.3433 22.619 27.3433 23.154C27.3433 23.688 26.5555 24.046 25.5937 23.948C24.6319 23.85 23.3942 23.863 22.8444 23.978C22.2945 24.092 19.932 24.11 17.5956 24.017C14.9462 23.912 13.3466 24.285 13.3466 25.007C13.3466 25.789 15.0981 26.04 18.7373 25.781C22.8663 25.487 24.0121 25.702 23.6292 26.699C23.3552 27.414 21.9985 28 20.6159 28C18.4564 28 18.2824 28.22 19.3872 29.551C20.4739 30.86 20.3379 31.189 18.5094 31.667C16.6158 32.163 15.3661 34 16.9237 34C17.7755 34 32.3421 20.777 32.3421 20.004C32.3421 19.642 27.2813 18.772 21.0948 18.071C14.9092 17.37 9.2855 16.337 8.59766 15.776C7.71687 15.056 7.34795 15.135 7.34795 16.044ZM440.892 17.766C440.586 18.261 435.834 19.239 430.332 19.941L420.327 21.216L426.038 26.358C429.179 29.186 432.984 32.782 434.492 34.349C437.618 37.595 437.275 38.083 440.259 26.134C442.147 18.576 442.392 15.339 440.892 17.766ZM17.2626 19.644C17.4916 19.84 16.0289 20 14.0134 20C11.9969 20 10.3473 19.561 10.3473 19.025C10.3473 18.164 16.1379 18.682 17.2626 19.644ZM439.248 21C439.248 21.55 438.236 21.968 436.998 21.93C434.852 21.863 434.841 21.82 436.748 21C437.848 20.527 438.861 20.109 438.998 20.07C439.135 20.032 439.248 20.45 439.248 21ZM48.1405 22.531C47.0587 23.614 43.3396 23.849 43.3396 22.836C43.3396 22.258 44.0004 22.04 44.8073 22.349C45.6141 22.659 46.5588 22.452 46.9068 21.89C47.2547 21.327 47.7936 21.122 48.1055 21.433C48.4164 21.745 48.4324 22.239 48.1405 22.531ZM433.978 21.604C433.646 21.936 432.783 21.972 432.062 21.683C431.264 21.364 431.501 21.127 432.666 21.079C433.72 21.036 434.31 21.272 433.978 21.604ZM37.8869 23.925C37.5709 24.437 38.2518 25.154 39.4015 25.519C42.2388 26.42 42.9917 25.419 40.4863 24.078C39.2685 23.426 38.2328 23.365 37.8869 23.925ZM437.852 25.589C437.584 26.287 437.065 28.461 436.697 30.42C436.329 32.379 435.648 33.747 435.183 33.459C434.717 33.171 434.59 32.275 434.9 31.468C435.282 30.472 434.805 30 433.415 30C432.289 30 431.09 29.55 430.75 29C430.389 28.417 431.405 28 433.19 28C434.872 28 436.248 27.55 436.248 27C436.248 26.45 434.197 26 431.69 26C428.859 26 427.37 25.615 427.76 24.984C428.719 23.432 438.456 24.016 437.852 25.589ZM27.3433 28.5C26.2915 29.767 26.4965 30 28.662 30C31.6793 30 33.015 28.472 30.7545 27.605C28.672 26.805 28.771 26.779 27.3433 28.5ZM15.1591 28.683C15.88 28.972 16.7428 28.936 17.0747 28.604C17.4066 28.272 16.8168 28.036 15.763 28.079C14.5983 28.127 14.3613 28.364 15.1591 28.683ZM415.783 30.951C414.54 32.963 416.226 33.699 422.047 33.685C425.271 33.677 428.435 33.996 429.079 34.394C429.723 34.792 430.25 34.664 430.25 34.109C430.25 32.297 426.998 31.224 423.095 31.748C420.874 32.046 418.676 31.767 417.852 31.082C416.882 30.277 416.225 30.235 415.783 30.951ZM20.9278 34.542C17.1857 37.847 17.5566 38.843 21.8446 37C23.2133 36.412 23.3712 36.106 22.3445 36.03C21.4667 35.966 21.9856 35.301 23.5942 34.428C25.1068 33.607 26.3435 32.5 26.3435 31.968C26.3435 30.312 24.9869 30.957 20.9278 34.542ZM31.3424 31.858C31.3424 33.759 34.7106 34.057 36.2692 32.294C37.133 31.315 37.21 31.053 36.4382 31.71C35.4664 32.538 34.4667 32.602 33.1889 31.918C32.0962 31.333 31.3424 31.309 31.3424 31.858ZM14.4173 40.415C13.6865 41.295 14.8182 41.585 18.8923 41.562C21.8906 41.545 24.344 41.187 24.344 40.766C24.344 40.344 23.7821 39.971 23.0943 39.936C22.4075 39.901 20.3929 39.729 18.6193 39.554C16.8457 39.379 14.9552 39.767 14.4173 40.415ZM438.244 42.596C439.034 43.386 437.761 43.74 433.649 43.874C430.521 43.977 427.637 44.261 427.239 44.507C426.843 44.752 425.753 44.108 424.819 43.075C423.17 41.253 423.33 41.201 430.136 41.35C433.995 41.435 437.644 41.996 438.244 42.596ZM10.7742 44.479C9.7144 45.28 9.2975 45.944 9.84737 45.953C11.333 45.977 13.8724 44.192 13.2446 43.565C12.9456 43.265 11.8339 43.677 10.7742 44.479ZM15.0502 44.204C14.3283 44.663 14.9702 44.975 16.6548 44.985C18.6333 44.995 19.2412 45.369 18.7123 46.25C18.1774 47.141 18.4344 47.117 19.6091 46.164C20.5159 45.429 21.6956 45.099 22.2315 45.43C22.7674 45.762 23.4592 45.622 23.7691 45.121C24.474 43.98 16.6898 43.162 15.0502 44.204ZM68.3998 47.035C70.9272 48.389 70.8422 49.755 68.0838 52.056C65.3435 54.343 63.4629 54.498 62.6971 52.5C62.3802 51.675 61.4944 51 60.7285 51C58.893 51 58.97 50.062 60.9905 47.829C62.8461 45.778 65.5164 45.492 68.3998 47.035ZM391.608 48.178C392.435 49.5 392.138 50.289 390.209 51.895C387.272 54.339 385.674 54.522 384.898 52.5C384.582 51.675 383.635 51 382.792 51C380.81 51 380.856 50.104 382.96 47.78C385.021 45.502 390.078 45.734 391.608 48.178ZM6.34818 48.5C4.9975 50.128 5.32042 50.332 7.76585 49.393C8.63565 49.059 9.34749 48.384 9.34749 47.893C9.34749 46.51 7.72786 46.838 6.34818 48.5ZM437.05 48.128C437.434 48.474 439.924 48.985 442.584 49.265C446.101 49.635 447.12 49.474 446.32 48.674C445.715 48.069 443.225 47.557 440.786 47.537C438.347 47.517 436.665 47.783 437.05 48.128ZM12.1088 48.707C13.3526 48.946 15.1521 48.937 16.1079 48.687C17.0637 48.437 16.0459 48.241 13.8464 48.252C11.647 48.263 10.8651 48.468 12.1088 48.707ZM18.3454 49.059C18.3454 49.641 18.7953 49.84 19.3452 49.5C19.895 49.16 20.3449 48.684 20.3449 48.441C20.3449 48.198 19.895 48 19.3452 48C18.7953 48 18.3454 48.477 18.3454 49.059ZM433.749 49C434.089 49.55 434.565 50 434.808 50C435.051 50 435.249 49.55 435.249 49C435.249 48.45 434.772 48 434.19 48C433.608 48 433.409 48.45 433.749 49ZM5.11647 52.168C5.69833 52.75 6.76309 53.028 7.48492 52.788C8.23375 52.538 7.77985 52.085 6.42816 51.731C4.76555 51.296 4.37464 51.426 5.11647 52.168ZM446.238 52.107C445.112 52.88 445.36 52.973 447.246 52.486C449.074 52.014 447.331 54.211 440.747 60.672C431.367 69.877 406.038 93.689 398.257 100.616L393.758 104.621L225.703 104.55L57.6473 104.479L35.7474 83.9C2.92498 53.058 1.49131 51.785 0.11863 52.256C-0.621199 52.51 2.15916 55.822 6.79008 60.205L14.7312 67.718L12.4668 76.953C9.85637 87.6 10.0313 89.938 12.7327 80.503C14.6503 73.804 14.6633 73.797 19.3162 76.804C19.5751 76.972 19.1252 77.527 18.3164 78.039C17.2027 78.743 17.5216 78.973 19.6261 78.985C21.1947 78.993 22.6644 79.67 22.9973 80.537C23.3212 81.382 24.9939 82.823 26.7145 83.738L29.8427 85.402L25.3438 86.068C22.8693 86.435 18.2574 87.052 15.0962 87.439C11.593 87.869 9.34749 88.625 9.34749 89.375C9.34749 90.341 11.7639 90.312 20.5949 89.239C28.641 88.262 32.3361 88.176 33.5779 88.936C34.5326 89.521 35.9873 90 36.8101 90C37.6319 90 42.5308 93.825 47.6966 98.5L57.0874 107H226.205H395.323L403.038 99.515C413.73 89.144 417.504 87.764 431.064 89.269C436.631 89.887 441.501 90.08 441.884 89.696C443.205 88.375 442.195 88.126 428.5 86.39C425.614 86.024 423.251 85.337 423.251 84.862C423.251 84.388 423.678 84 424.199 84C424.721 84 426.362 82.875 427.845 81.5C429.328 80.125 431.361 79 432.364 79C433.495 79 433.987 78.481 433.661 77.631C433.35 76.821 433.97 76.045 435.181 75.728C436.865 75.287 437.432 75.882 438.397 79.103C440.193 85.102 440.471 83.06 438.821 75.983C437.872 71.913 437.676 69.07 438.268 67.963C438.773 67.02 442.349 63.193 446.216 59.459C450.083 55.724 453.134 52.582 452.995 52.475C451.768 51.528 447.427 51.291 446.238 52.107ZM439.061 52.683C439.781 52.972 440.644 52.936 440.976 52.604C441.308 52.272 440.718 52.036 439.665 52.079C438.5 52.127 438.263 52.364 439.061 52.683ZM442.247 53.059C442.247 53.641 442.697 53.84 443.247 53.5C443.797 53.16 444.246 52.684 444.246 52.441C444.246 52.198 443.797 52 443.247 52C442.697 52 442.247 52.477 442.247 53.059ZM439.517 56.693C440.489 56.947 441.839 56.93 442.516 56.656C443.193 56.382 442.397 56.175 440.747 56.195C439.098 56.215 438.544 56.439 439.517 56.693ZM440.326 85.583C440.374 86.748 440.611 86.985 440.93 86.188C441.219 85.466 441.183 84.603 440.851 84.271C440.519 83.939 440.283 84.529 440.326 85.583Z" fill="#505050"/>
<path d="M119.32 51.36V49.84C119.32 49.6267 119.16 49.52 118.84 49.52H106.28V36.56C106.28 36.32 106.133 36.2 105.84 36.2H104.4C104.08 36.2 103.92 36.32 103.92 36.56V49.52H91.52C91.2 49.52 91.04 49.6267 91.04 49.84V51.36C91.04 51.6 91.2 51.72 91.52 51.72H103.92V64.56C103.92 64.8 104.08 64.92 104.4 64.92H105.84C106.133 64.92 106.28 64.8 106.28 64.56V51.72H118.84C119.16 51.72 119.32 51.6 119.32 51.36ZM142.757 64C142.571 63.7867 142.344 63.6533 142.077 63.6C141.811 63.5467 141.504 63.4933 141.157 63.44C140.917 63.4133 140.677 63.3733 140.437 63.32C140.197 63.2667 139.971 63.1733 139.757 63.04C139.571 62.88 139.411 62.6667 139.277 62.4C139.144 62.1067 139.077 61.7067 139.077 61.2C139.077 59.68 139.077 58.1867 139.077 56.72C139.077 55.2533 139.091 53.76 139.117 52.24C139.144 50.72 139.157 49.2267 139.157 47.76C139.157 46.2933 139.157 44.8133 139.157 43.32V42.72C139.157 42.2933 139.157 41.8933 139.157 41.52C139.157 41.12 139.131 40.7333 139.077 40.36C139.051 40.2267 138.957 40.1467 138.797 40.12C138.664 40.0667 138.517 40.0667 138.357 40.12C137.077 40.8133 135.824 41.5467 134.597 42.32C133.371 43.0933 132.211 43.9467 131.117 44.88C130.931 44.9867 130.877 45.12 130.957 45.28C131.064 45.44 131.224 45.5067 131.437 45.48C131.811 45.4267 132.184 45.3333 132.557 45.2C132.931 45.04 133.277 44.8933 133.597 44.76C133.917 44.6 134.211 44.4667 134.477 44.36C134.744 44.2267 134.984 44.16 135.197 44.16C135.411 44.16 135.584 44.2267 135.717 44.36V61.4C135.717 61.8533 135.651 62.2133 135.517 62.48C135.384 62.7467 135.197 62.9467 134.957 63.08C134.744 63.2133 134.491 63.3067 134.197 63.36C133.931 63.4133 133.637 63.4533 133.317 63.48C133.104 63.5067 132.864 63.5333 132.597 63.56C132.331 63.5867 132.091 63.6267 131.877 63.68C131.637 63.7067 131.517 63.8267 131.517 64.04C131.544 64.2267 131.691 64.3333 131.957 64.36C133.691 64.4133 135.424 64.4667 137.157 64.52C138.891 64.5467 140.624 64.56 142.357 64.56L142.757 64ZM170.798 48.16C170.798 46.96 170.544 46.0133 170.038 45.32C169.558 44.6267 168.918 44.0933 168.118 43.72C167.318 43.3467 166.424 43.1067 165.438 43C164.451 42.8933 163.464 42.84 162.478 42.84C162.184 42.84 161.918 42.8533 161.678 42.88C161.438 42.88 161.184 42.88 160.918 42.88H159.678C159.384 42.88 159.104 42.88 158.838 42.88C158.598 42.8533 158.331 42.84 158.038 42.84H155.478H154.798C154.584 42.84 154.438 42.8933 154.358 43C154.278 43.1067 154.291 43.2267 154.398 43.36C154.531 43.5733 154.718 43.7067 154.958 43.76C155.198 43.8133 155.451 43.8533 155.718 43.88C156.011 43.9067 156.291 43.9867 156.558 44.12C156.851 44.2267 156.998 44.56 156.998 45.12V61.48C156.998 61.9867 156.971 62.3867 156.918 62.68C156.891 62.9733 156.811 63.2133 156.678 63.4C156.544 63.56 156.344 63.68 156.077 63.76C155.838 63.8133 155.504 63.88 155.078 63.96C154.811 64.0133 154.678 64.1467 154.678 64.36C154.704 64.5733 154.851 64.68 155.118 64.68C156.478 64.7333 157.824 64.7733 159.158 64.8C160.518 64.8267 161.878 64.84 163.238 64.84C163.424 64.84 163.558 64.7867 163.638 64.68C163.718 64.5733 163.718 64.4533 163.638 64.32C163.531 64.1067 163.344 63.9867 163.078 63.96C162.838 63.9067 162.558 63.8533 162.238 63.8C162.104 63.7733 161.931 63.76 161.718 63.76C161.504 63.7333 161.331 63.6933 161.198 63.64C161.144 63.5867 161.091 63.4533 161.038 63.24C160.984 63.0267 160.918 62.8 160.838 62.56C160.784 62.32 160.731 62.0933 160.678 61.88C160.651 61.64 160.638 61.48 160.638 61.4V44.6C160.958 44.4933 161.278 44.4133 161.598 44.36C161.944 44.28 162.304 44.24 162.678 44.24C163.398 44.24 164.051 44.3867 164.638 44.68C165.251 44.9733 165.771 45.36 166.198 45.84C166.624 46.32 166.958 46.88 167.198 47.52C167.438 48.16 167.558 48.84 167.558 49.56C167.558 50.3333 167.424 51.0133 167.158 51.6C166.891 52.1867 166.518 52.68 166.038 53.08C165.584 53.48 165.038 53.7867 164.398 54C163.784 54.2133 163.118 54.32 162.398 54.32H161.638C161.371 54.32 161.224 54.4267 161.198 54.64C161.171 54.8267 161.291 54.9467 161.558 55C161.851 55.0533 162.158 55.1067 162.478 55.16C162.798 55.2133 163.131 55.24 163.478 55.24C164.438 55.24 165.358 55.0533 166.238 54.68C167.144 54.3067 167.931 53.8 168.598 53.16C169.264 52.52 169.798 51.7733 170.198 50.92C170.598 50.04 170.798 49.12 170.798 48.16ZM197.16 43.72L197.12 43.04C195.946 42.96 194.773 42.9067 193.6 42.88C192.426 42.8533 191.24 42.84 190.04 42.84C189.666 42.84 189.506 42.9733 189.56 43.24C189.613 43.5333 189.76 43.7067 190 43.76C190.266 43.7867 190.546 43.8133 190.84 43.84C191 43.8667 191.16 43.8933 191.32 43.92C191.506 43.9467 191.666 44.0133 191.8 44.12C191.933 44.2 192.04 44.3333 192.12 44.52C192.226 44.7067 192.28 44.96 192.28 45.28C192.28 46.32 192.28 47.36 192.28 48.4C192.28 49.44 192.293 50.4667 192.32 51.48C192.346 52.52 192.36 53.56 192.36 54.6C192.36 55.64 192.36 56.6667 192.36 57.68C192.36 58.64 192.173 59.48 191.8 60.2C191.426 60.92 190.92 61.5333 190.28 62.04C189.666 62.52 188.946 62.8933 188.12 63.16C187.32 63.4 186.493 63.52 185.64 63.52C184.786 63.52 183.96 63.4 183.16 63.16C182.386 62.92 181.693 62.56 181.08 62.08C180.466 61.6 179.973 61.0133 179.6 60.32C179.226 59.6 179.04 58.7733 179.04 57.84C179.04 56.8 179.04 55.76 179.04 54.72C179.066 53.6533 179.08 52.5867 179.08 51.52V45.24C179.08 44.6533 179.266 44.28 179.64 44.12C180.013 43.9333 180.466 43.8133 181 43.76C181.24 43.7333 181.36 43.6267 181.36 43.44C181.36 43.2267 181.24 43.1067 181 43.08C178.786 42.92 176.586 42.84 174.4 42.84H173.16C172.786 42.84 172.626 42.9733 172.68 43.24C172.733 43.5333 172.866 43.6933 173.08 43.72C173.32 43.7467 173.6 43.7867 173.92 43.84C174.24 43.8667 174.56 43.9467 174.88 44.08C175.226 44.2133 175.4 44.6133 175.4 45.28V57.12C175.4 57.28 175.413 57.4667 175.44 57.68C175.493 57.8933 175.52 58.12 175.52 58.36V58.32C175.52 59.52 175.84 60.56 176.48 61.44C177.146 62.32 177.973 63.0533 178.96 63.64C179.973 64.2 181.066 64.6267 182.24 64.92C183.44 65.1867 184.573 65.32 185.64 65.32C186.946 65.32 188.186 65.1067 189.36 64.68C190.533 64.2533 191.546 63.6533 192.4 62.88C193.28 62.08 193.973 61.1333 194.48 60.04C194.986 58.92 195.24 57.68 195.24 56.32V45.24C195.24 44.7067 195.44 44.3333 195.84 44.12C196.266 43.9067 196.706 43.7733 197.16 43.72ZM226.035 43.64L225.875 42.96C224.915 42.9067 223.955 42.8667 222.995 42.84C222.035 42.7867 221.061 42.7733 220.075 42.8L218.635 42.84C218.421 42.84 218.275 42.92 218.195 43.08C218.115 43.24 218.168 43.36 218.355 43.44C218.675 43.6267 219.088 43.7467 219.595 43.8C219.781 43.8267 219.968 43.8667 220.155 43.92C220.341 43.9467 220.515 44.0267 220.675 44.16C220.835 44.2667 220.968 44.4533 221.075 44.72C221.181 44.96 221.235 45.2933 221.235 45.72V48.16C221.235 48.5867 221.221 49 221.195 49.4C221.195 49.8 221.195 50.2133 221.195 50.64C221.195 51.3067 221.208 52.0133 221.235 52.76C221.261 53.5067 221.301 54.2133 221.355 54.88C221.381 55.7067 221.408 56.52 221.435 57.32C221.461 58.0933 221.461 58.8933 221.435 59.72C218.448 56.7867 215.448 53.8933 212.435 51.04C209.421 48.16 206.381 45.3067 203.315 42.48C203.261 42.4267 203.168 42.4 203.035 42.4C202.928 42.3733 202.835 42.3867 202.755 42.44C202.621 42.5467 202.488 42.68 202.355 42.84C202.221 42.9733 202.155 43.1467 202.155 43.36V62.24C202.155 62.7733 201.995 63.1867 201.675 63.48C201.355 63.7467 200.968 63.8533 200.515 63.8H200.035C199.795 63.8 199.648 63.9067 199.595 64.12C199.568 64.3333 199.675 64.4667 199.915 64.52C200.475 64.6533 201.048 64.7333 201.635 64.76C202.248 64.7867 202.861 64.8 203.475 64.8H204.875C205.328 64.8 205.795 64.8 206.275 64.8C206.755 64.7733 207.221 64.7733 207.675 64.8C207.915 64.8 208.075 64.72 208.155 64.56C208.235 64.4 208.168 64.2667 207.955 64.16C207.715 63.9733 207.461 63.8667 207.195 63.84C206.928 63.7867 206.675 63.7333 206.435 63.68C206.248 63.6533 206.061 63.6133 205.875 63.56C205.715 63.5067 205.555 63.4133 205.395 63.28C205.261 63.1467 205.155 62.9467 205.075 62.68C204.995 62.3867 204.955 62.0133 204.955 61.56C204.955 60.5467 204.941 59.5467 204.915 58.56C204.888 57.5733 204.848 56.5867 204.795 55.6C204.741 54.5867 204.688 53.5867 204.635 52.6C204.608 51.6133 204.595 50.6133 204.595 49.6C204.595 49.3333 204.595 49.08 204.595 48.84C204.595 48.6 204.608 48.36 204.635 48.12L206.715 50.16H206.675C209.235 52.7467 211.835 55.32 214.475 57.88C217.141 60.4133 219.968 62.8 222.955 65.04C223.115 65.12 223.275 65.1467 223.435 65.12C223.595 65.0667 223.688 64.96 223.715 64.8C223.875 63.12 223.981 61.4533 224.035 59.8C224.088 58.12 224.115 56.4267 224.115 54.72C224.115 53.9733 224.101 53.1467 224.075 52.24C224.075 51.3067 224.075 50.4533 224.075 49.68C224.048 48.8533 224.035 48.04 224.035 47.24C224.035 46.4133 224.035 45.5733 224.035 44.72C224.035 44.4267 224.195 44.2133 224.515 44.08C224.835 43.9467 225.155 43.84 225.475 43.76H225.435C225.595 43.7067 225.728 43.68 225.835 43.68C225.968 43.6533 226.035 43.64 226.035 43.64ZM249.144 43.64V43C249.144 42.7067 248.97 42.5867 248.624 42.64C248.464 42.6667 248.317 42.6933 248.184 42.72C248.05 42.72 247.944 42.7467 247.864 42.8H247.904C247.69 42.8533 247.477 42.9067 247.264 42.96C247.05 43.0133 246.877 43.04 246.744 43.04H232.464C232.304 43.04 232.09 43.0267 231.824 43C231.584 42.9467 231.33 42.8933 231.064 42.84C230.797 42.7867 230.53 42.7333 230.264 42.68C230.024 42.6 229.85 42.52 229.744 42.44C229.61 42.3867 229.477 42.3867 229.344 42.44C229.21 42.4667 229.117 42.5467 229.064 42.68C229.01 42.84 228.957 43 228.904 43.16C228.877 43.32 228.837 43.4667 228.784 43.6C228.65 44 228.517 44.4267 228.384 44.88C228.25 45.3333 228.184 45.7333 228.184 46.08C228.184 46.3467 228.197 46.52 228.224 46.6C228.277 46.76 228.41 46.8533 228.624 46.88C228.837 46.9067 228.997 46.84 229.104 46.68C229.397 46.1467 229.784 45.6933 230.264 45.32C230.77 44.9467 231.317 44.76 231.904 44.76H236.984V61.6C236.984 62.08 236.957 62.4667 236.904 62.76C236.85 63.0267 236.757 63.24 236.624 63.4C236.49 63.56 236.29 63.68 236.024 63.76C235.757 63.8133 235.424 63.8667 235.024 63.92C234.784 63.9733 234.664 64.1067 234.664 64.32C234.69 64.5333 234.824 64.64 235.064 64.64C236.424 64.6933 237.77 64.7333 239.104 64.76C240.464 64.7867 241.824 64.8 243.184 64.8C243.397 64.8 243.544 64.7467 243.624 64.64C243.704 64.5333 243.704 64.4133 243.624 64.28C243.517 64.0667 243.33 63.9333 243.064 63.88C242.824 63.8267 242.557 63.7867 242.264 63.76C242.104 63.7333 241.904 63.7067 241.664 63.68C241.45 63.6533 241.29 63.6133 241.184 63.56H241.144C241.09 63.5333 241.037 63.4267 240.984 63.24C240.93 63.0267 240.877 62.8 240.824 62.56C240.797 62.2933 240.757 62.0533 240.704 61.84C240.677 61.6 240.664 61.44 240.664 61.36V44.8C240.85 44.8533 240.957 44.8667 240.984 44.84C241.037 44.8133 241.17 44.8 241.384 44.8C241.65 44.8 241.917 44.8 242.184 44.8C242.45 44.8 242.704 44.7867 242.944 44.76C243.184 44.7333 243.41 44.72 243.624 44.72C243.837 44.72 244.05 44.72 244.264 44.72C245.117 44.72 245.877 44.8533 246.544 45.12C247.237 45.36 247.677 45.9467 247.864 46.88C247.917 47.0667 248.064 47.16 248.304 47.16C248.57 47.16 248.73 47.0667 248.784 46.88C249.024 45.8133 249.144 44.7333 249.144 43.64ZM277.273 54.44C277.273 52.7867 276.927 51.2133 276.233 49.72C275.567 48.2267 274.66 46.92 273.513 45.8C272.367 44.68 271.033 43.7867 269.513 43.12C268.02 42.4533 266.447 42.12 264.793 42.12C263.113 42.12 261.46 42.3733 259.833 42.88C258.233 43.3867 256.793 44.1333 255.513 45.12C254.26 46.08 253.233 47.2667 252.433 48.68C251.66 50.0933 251.273 51.7067 251.273 53.52C251.273 55.1733 251.633 56.72 252.353 58.16C253.073 59.5733 254.02 60.8 255.193 61.84C256.367 62.88 257.713 63.7067 259.233 64.32C260.78 64.9067 262.353 65.2 263.953 65.2C265.553 65.2 267.14 64.9733 268.713 64.52C270.313 64.0667 271.74 63.3867 272.993 62.48C274.273 61.5733 275.3 60.4533 276.073 59.12C276.873 57.76 277.273 56.2 277.273 54.44ZM273.713 54.36C273.713 55.72 273.5 56.9733 273.073 58.12C272.647 59.24 272.033 60.2133 271.233 61.04C270.46 61.84 269.513 62.4667 268.393 62.92C267.3 63.3467 266.073 63.56 264.713 63.56C263.247 63.56 261.913 63.28 260.713 62.72C259.513 62.1333 258.473 61.36 257.593 60.4C256.74 59.4133 256.073 58.28 255.593 57C255.113 55.72 254.873 54.3733 254.873 52.96C254.873 51.5733 255.1 50.3333 255.553 49.24C256.007 48.12 256.633 47.1733 257.433 46.4C258.26 45.6 259.233 44.9867 260.353 44.56C261.5 44.1333 262.74 43.92 264.073 43.92C265.513 43.92 266.82 44.2 267.993 44.76C269.193 45.32 270.207 46.08 271.033 47.04C271.887 48 272.54 49.12 272.993 50.4C273.473 51.6533 273.713 52.9733 273.713 54.36ZM315.007 64.16C314.767 63.9733 314.514 63.8667 314.247 63.84C314.007 63.7867 313.767 63.76 313.527 63.76C313.394 63.76 313.247 63.76 313.087 63.76C312.954 63.7333 312.82 63.7067 312.687 63.68C312.607 63.6533 312.527 63.5333 312.447 63.32C312.394 63.1067 312.34 62.88 312.287 62.64C312.234 62.3733 312.194 62.1333 312.167 61.92C312.14 61.68 312.127 61.5067 312.127 61.4V45.2C312.127 44.5867 312.314 44.2 312.687 44.04C313.087 43.88 313.54 43.76 314.047 43.68C314.314 43.6267 314.434 43.5067 314.407 43.32C314.407 43.1333 314.274 43.0267 314.007 43C312.727 42.92 311.434 42.8667 310.127 42.84C308.82 42.8133 307.514 42.8 306.207 42.8C305.86 42.8 305.714 42.9333 305.767 43.2C305.82 43.4933 305.954 43.6533 306.167 43.68C306.407 43.7067 306.687 43.7467 307.007 43.8C307.167 43.8 307.327 43.8133 307.487 43.84C307.674 43.8667 307.834 43.9333 307.967 44.04C308.127 44.1467 308.247 44.2933 308.327 44.48C308.434 44.6667 308.487 44.92 308.487 45.24V51.84H295.367V45.2C295.367 44.6933 295.567 44.3333 295.967 44.12C296.367 43.88 296.794 43.7467 297.247 43.72C297.514 43.72 297.647 43.6133 297.647 43.4C297.674 43.1867 297.554 43.0667 297.287 43.04C296.007 42.9333 294.714 42.88 293.407 42.88C292.1 42.8533 290.807 42.84 289.527 42.84C289.314 42.84 289.167 42.8933 289.087 43C289.007 43.1067 289.02 43.2267 289.127 43.36C289.26 43.5733 289.434 43.7067 289.647 43.76C289.887 43.8133 290.14 43.8533 290.407 43.88C290.7 43.9067 290.994 43.9867 291.287 44.12C291.58 44.2533 291.727 44.6267 291.727 45.24V61.48C291.727 61.9867 291.7 62.3867 291.647 62.68C291.62 62.9733 291.54 63.2133 291.407 63.4C291.274 63.56 291.074 63.68 290.807 63.76C290.567 63.8133 290.234 63.88 289.807 63.96C289.54 64.0133 289.42 64.1467 289.447 64.36C289.474 64.5733 289.62 64.68 289.887 64.68C290.58 64.7067 291.26 64.7333 291.927 64.76C292.594 64.76 293.274 64.76 293.967 64.76C294.634 64.76 295.287 64.76 295.927 64.76C296.594 64.7333 297.274 64.7067 297.967 64.68L297.927 63.96C296.914 64.0133 296.234 63.8533 295.887 63.48C295.54 63.1067 295.367 62.4133 295.367 61.4V53.52H308.487V61.48C308.487 61.6933 308.46 61.9467 308.407 62.24C308.38 62.5067 308.314 62.7733 308.207 63.04C308.127 63.3067 308.007 63.5333 307.847 63.72C307.714 63.88 307.54 63.96 307.327 63.96C307.247 63.96 307.1 63.9067 306.887 63.8L306.447 64.44C306.82 64.6267 307.354 64.7333 308.047 64.76C308.74 64.7867 309.314 64.8 309.767 64.8H311.767C312.247 64.8 312.727 64.8 313.207 64.8C313.714 64.7733 314.22 64.7733 314.727 64.8L315.007 64.16Z" fill="white"/>
<path d="M322.263 19.0002C321.675 20.8646 320.746 22.4371 319.304 23.697C317.698 25.0999 315.388 26.1644 312 26.6763C313.328 22.6776 316.489 20.1415 322.263 19L322.263 19.0002ZM324.474 20.9843C324.807 22.1514 325.077 23.5213 325.402 24.7116C325.078 26.6673 323.752 28.2405 322.179 29.3256C321.364 29.8874 320.499 30.3046 319.759 30.5537C319.088 30.7799 318.541 30.829 318.332 30.8237C316.776 30.2103 315.293 29.6216 314.133 29.0268C317.089 28.3652 319.399 27.2405 321.148 25.7123C322.678 24.3755 323.745 22.7587 324.473 20.9839L324.474 20.9843ZM329.973 24.6021C329.754 27.5242 328.889 29.9269 327.179 31.6872C325.255 33.6684 322.13 34.9997 317.087 35.1622C317.204 34.7314 317.367 34.2775 317.584 33.8014C317.632 33.6976 317.681 33.5946 317.732 33.4924L317.854 33.5089C318.764 33.6321 319.659 33.4473 320.661 33.1094C321.663 32.7719 322.738 32.2483 323.774 31.5342C325.808 30.1313 327.734 27.9368 328.164 24.9994C328.791 24.8138 329.399 24.6799 329.973 24.6021H329.973ZM332.738 24.6878C333.628 24.9123 334.289 25.3449 334.699 25.9347C335.425 26.9794 335.438 28.6225 334.512 30.6586C333.586 32.6945 331.739 34.9555 329.217 36.791C326.694 38.6265 324.001 39.6692 321.818 39.8957C319.635 40.1225 318.123 39.5702 317.397 38.5256C317.257 38.3216 317.144 38.1004 317.063 37.8677C322.653 37.7012 326.633 36.1773 329.186 33.5486C331.466 31.2009 332.497 28.101 332.739 24.6881L332.738 24.6878ZM350.01 30.759C350.406 30.7639 350.864 30.8081 351.334 30.9008C352.273 31.0861 353.269 31.4415 354.004 31.8398C354.74 32.2379 355.134 32.7519 355.121 32.7176L355.123 32.7211L355.124 32.725C357.362 38.824 358.619 44.9146 359.186 50.7078C359.102 50.6715 359.02 50.6342 358.937 50.5982C356.533 49.5555 354.012 48.5836 351.422 47.7463C350.654 42.1967 349.559 36.7844 348.706 31.1112C348.713 31.0776 348.718 31.0256 348.731 31.0109C348.753 30.9874 348.84 30.9147 349.06 30.8517C349.28 30.7886 349.614 30.7543 350.01 30.7593L350.01 30.759ZM345.755 32.5059C345.876 32.5054 345.999 32.5066 346.121 32.5074C346.895 37.4731 347.813 42.1624 348.513 46.874C344.207 45.6856 339.758 44.9229 335.363 44.8753C333.346 44.8533 331.34 44.9843 329.365 45.2907C329.4 43.5461 329.481 41.7234 329.608 39.8211C330.004 39.5689 330.392 39.3047 330.771 39.0289C333.043 37.3759 334.862 35.4251 336.106 33.3982C338.957 33.0748 341.936 32.577 345.178 32.5125C345.369 32.5087 345.561 32.5065 345.754 32.5059H345.755ZM358.989 35.5679C361.567 36.8194 364.312 38.5404 367.26 40.8813C374.706 46.7931 377.603 54.3375 377.781 61.3515C376.657 60.5194 375.304 59.5751 373.735 58.5573C370.569 56.5033 366.575 54.1766 362.079 52.0299C361.668 46.7447 360.71 41.1897 358.989 35.5679H358.989ZM326.744 41.3534C326.66 42.899 326.604 44.3996 326.581 45.8481C325.929 46.0091 325.282 46.1919 324.642 46.3961C324.881 44.7913 325.1 43.2903 325.236 41.9355C325.747 41.764 326.25 41.5698 326.744 41.3536V41.3534ZM334.562 47.6075C334.838 47.6049 335.114 47.606 335.391 47.6094C342.929 47.7105 350.813 50.0328 357.815 53.0693C363.417 55.4986 368.431 58.3614 372.205 60.8098C374.092 62.0339 375.669 63.1549 376.85 64.0596C377.995 64.9375 378.779 65.6472 379.005 65.8946C379.656 66.8214 380.131 69.9115 379.683 72.1884C379.456 73.34 379.011 74.2766 378.652 74.6458C378.337 74.9705 378.294 75.0435 377.843 74.841C354.886 51.7983 331.821 54.6652 321.431 54.6272C321.43 54.6017 321.444 54.6197 321.43 54.5551C321.363 54.2619 321.367 53.6419 321.498 52.9765C321.63 52.3108 321.868 51.5897 322.132 51.0093C322.353 50.5267 322.594 50.191 322.706 50.0502C326.403 48.3792 330.422 47.6435 334.561 47.6072L334.562 47.6075ZM329.986 57.2283C335.553 57.2568 342.251 57.7225 349.611 60.0641C349.611 65.7243 348.906 71.7609 346.97 78.6077C345.141 78.2009 343.46 77.6344 341.926 76.8961C342.147 76.5851 342.366 76.2729 342.584 75.9596C342.767 75.6968 342.947 75.4317 343.123 75.1643C343.268 74.9427 343.338 74.8939 343.489 74.5248L340.92 73.5206C340.969 73.4019 340.967 73.4031 340.937 73.4569C340.908 73.5107 340.852 73.6173 340.791 73.7098C340.629 73.9562 340.463 74.2006 340.294 74.4428C340.07 74.7658 339.807 75.1386 339.53 75.5277C338.321 74.7121 337.217 73.7556 336.244 72.6796C334.412 70.6574 332.926 68.0939 331.807 64.9316L333.616 64.5896L333.09 61.9352L331.007 62.3294C330.588 60.757 330.248 59.0579 329.986 57.2285L329.986 57.2283ZM327.173 57.2448C327.444 59.2422 327.806 61.1088 328.26 62.8486L326.397 63.201L326.922 65.8551L329.044 65.454C330.281 69.0655 331.984 72.0558 334.173 74.4714C335.288 75.7046 336.554 76.8002 337.941 77.7338C337.549 78.2741 337.156 78.8139 336.762 79.3533L339.011 80.9286C339.011 80.9286 339.614 80.102 340.324 79.1236C342.12 80.0241 344.08 80.7053 346.196 81.1871C345.865 82.2252 345.514 83.2572 345.144 84.2828C339.723 82.8461 334.494 80.0821 330.092 76.2842C324.463 71.429 323.231 64.3555 323.451 57.3174C324.608 57.2963 325.848 57.2651 327.173 57.2445L327.173 57.2448ZM352.348 61.0142C354.629 61.8714 356.965 62.9173 359.343 64.1929C359.276 65.1174 359.193 66.0248 359.098 66.9125C358.066 76.4955 355.383 83.9177 353.686 86.5682C353.624 86.6012 353.555 86.6398 353.449 86.6784C353.178 86.7768 352.792 86.8854 352.351 86.9773C351.469 87.1612 350.364 87.2807 349.398 87.2552C348.432 87.2297 347.615 87.0037 347.369 86.8397C347.246 86.7577 347.263 86.7526 347.259 86.7388C347.255 86.7253 347.223 86.6198 347.34 86.3107L347.34 86.3088L347.341 86.3065C350.948 76.6649 352.246 68.493 352.348 61.0142H352.348ZM361.996 65.7043C365.999 68.1166 370.106 71.2052 374.253 75.1539C373.264 76.7671 372.127 78.1054 370.924 79.0686L370.9 79.0874L370.877 79.1073C366.976 82.5223 362.379 84.4575 357.548 85.1316C357.96 84.1958 358.368 83.1396 358.762 81.9734C360.103 81.8893 361.481 81.7621 362.894 81.5934L362.559 78.9096C361.552 79.0297 360.571 79.1269 359.612 79.2034C360.554 75.8203 361.357 71.7661 361.85 67.1951C361.903 66.7039 361.951 66.2061 361.996 65.704L361.996 65.7043Z" fill="white"/>
</svg>
