<svg width="453" height="107" viewBox="0 0 453 107" fill="none" xmlns="http://www.w3.org/2000/svg">
<path fill-rule="evenodd" clip-rule="evenodd" d="M56.8365 1C56.4965 1.55 56.7215 2 57.3363 2C57.9512 2 58.1881 2.43 57.8632 2.956C57.5383 3.482 56.7245 3.705 56.0546 3.45C55.3848 3.196 53.1323 4.509 51.0488 6.367C47.6026 9.441 47.4446 9.794 49.2992 10.28C50.4199 10.573 51.3377 10.405 51.3377 9.906C51.3377 8.339 53.1823 8.917 55.2458 11.132C57.2294 13.262 57.2294 13.266 55.0349 15.06C52.8874 16.815 52.7754 16.788 50.095 13.874C46.8368 10.331 46.9178 10.298 37.455 19.165C30.3106 25.861 28.741 27.928 32.2112 26.07C33.2379 25.52 34.4247 25.392 34.8466 25.785C35.2695 26.178 35.4024 25.825 35.1415 25C34.8366 24.034 35.7594 23.038 37.7349 22.201C39.9784 21.251 40.4423 20.681 39.4645 20.076C38.3807 19.407 38.3717 19.099 39.4155 18.453C40.9891 17.481 52.3375 17.162 52.3375 18.091C52.3375 19.453 49.1812 21.366 48.5124 20.408C47.7786 19.359 42.7947 19.212 41.796 20.21C40.8622 21.145 43.2976 25.144 44.3893 24.469C46.2619 23.312 45.2931 25.694 43.0257 27.826C40.7032 30.007 38.7407 30.78 39.7754 29.105C40.0803 28.612 39.7004 27.968 38.9316 27.673C37.267 27.034 33.3419 27.931 33.3419 28.95C33.3419 30.479 34.7206 30.93 36.0413 29.834C37.084 28.968 37.7099 28.969 38.5767 29.836C39.4445 30.704 39.0416 31.702 36.9401 33.897C34.6586 36.279 33.6718 36.669 31.4983 36.048C28.3311 35.144 23.9291 36.243 26.6045 37.27C27.4933 37.611 29.4458 37.668 30.9445 37.396C33.3289 36.963 33.5059 37.097 32.3641 38.473C31.6343 39.354 30.2796 39.797 29.2859 39.482C28.3101 39.172 27.1753 39.463 26.7634 40.129C26.2486 40.962 26.5345 41.141 27.6792 40.701C30.4866 39.624 29.5498 41.381 24.8649 45.979C22.4015 48.397 20.5629 50.551 20.7778 50.766C20.9928 50.981 30.1077 42.125 41.0341 31.086L60.8995 11.015L123.853 10.75L186.806 10.485L123.271 10.242C82.0196 10.085 59.3149 10.351 58.5361 11C57.6843 11.71 57.6083 11.67 58.2751 10.861C58.899 10.104 58.5101 9.151 57.1134 8.02C55.6607 6.844 55.3708 6.097 56.1746 5.6C56.8135 5.205 57.3363 5.319 57.3363 5.853C57.3363 6.386 59.5828 6.708 62.3282 6.568C66.4102 6.36 67.1161 6.558 66.2043 7.657C65.2735 8.778 74.4924 9 122.115 9C158.466 9 179.262 8.645 179.475 8.02C179.99 6.504 191.56 6.264 192.058 7.759C192.597 9.375 196.966 9.368 197.721 7.75C198.187 6.75 198.421 6.75 198.886 7.75C199.207 8.438 200.643 9 202.077 9C204.6 9 204.622 8.95 202.744 7.448C200.88 5.958 200.902 5.924 203.302 6.583C204.677 6.961 206.027 7.546 206.302 7.885C207.13 8.903 212.392 8.958 211.764 7.941C211.443 7.42 212.771 7 214.741 7C216.697 7 218.299 7.45 218.299 8C218.299 8.55 220.21 8.936 222.548 8.858L226.797 8.716L222.798 8.006C219.137 7.356 232.275 7.436 251.291 8.178C255.415 8.34 259.914 8.111 261.289 7.67C263.16 7.071 263.411 7.133 262.289 7.919C261.234 8.658 276.367 8.924 313.277 8.817C342.145 8.733 363.065 8.365 359.766 8L353.767 7.336L360.516 7.168C364.46 7.07 367.264 7.415 367.264 8C367.264 9.466 369.188 9.219 370.869 7.537C372.868 5.537 381.818 5.624 380.155 7.627C379.228 8.746 379.733 9.045 382.889 9.241C385.017 9.374 349.194 9.716 303.279 10L219.799 10.517L305.288 10.759L390.777 11L411.254 31.5C427.986 48.251 431.287 52 429.303 52C427.476 52 422.214 47.29 408.074 33L389.273 14H226.044H62.8151L43.8295 33.036C28.68 48.225 24.339 52.043 22.3445 51.93C20.9698 51.852 19.3992 51.836 18.8543 51.894C18.3094 51.952 27.5283 61.675 39.3405 73.5L60.8185 95H225.974H391.13L412.125 73.775C427.421 58.312 432.848 52.221 432.115 51.339C431.437 50.522 431.476 49.375 432.235 47.814C433.241 45.744 433.211 45.684 431.951 47.241C430.622 48.884 430.438 48.866 428.681 46.924L426.819 44.866L435.078 45.282L443.337 45.699L439.772 42.76C436.711 40.236 435.295 39.799 429.729 39.661C426.166 39.572 423.126 39.872 422.975 40.327C422.824 40.781 421.878 40.244 420.871 39.132C419.047 37.116 419.063 37.112 426.861 37.668C433.542 38.144 434.509 38.018 433.502 36.805C432.404 35.482 425.097 35.255 420.091 36.39C419.14 36.605 416.847 35.144 414.725 32.971L411.019 29.175L418.885 29.696C425.043 30.103 426.499 29.952 425.592 28.999C424.472 27.823 413.055 27.387 411.328 28.454C410.884 28.728 409.751 28.102 408.81 27.061C406.959 25.016 407.15 25.005 419.14 26.497L422.526 26.919L416.641 21.357C413.403 18.298 407 12.241 402.412 7.898L394.07 0H225.762C114.635 0 57.2444 0.34 56.8365 1ZM65.8344 3C66.1863 3.569 65.3255 4 63.8348 4C62.3442 4 61.4834 3.569 61.8353 3C62.1752 2.45 63.075 2 63.8348 2C64.5947 2 65.4944 2.45 65.8344 3ZM226.297 3C226.297 3.55 225.82 4 225.238 4C224.656 4 224.458 3.55 224.797 3C225.137 2.45 225.613 2 225.856 2C226.099 2 226.297 2.45 226.297 3ZM378.262 3C378.262 3.55 377.56 4 376.703 4C375.846 4 375.422 3.55 375.762 3C376.102 2.45 376.803 2 377.321 2C377.839 2 378.262 2.45 378.262 3ZM385.26 3C386.425 3.753 386.132 3.973 383.951 3.985C382.331 3.994 381.404 3.577 381.761 3C382.528 1.758 383.34 1.758 385.26 3ZM389.094 7.123C388.36 7.589 386.635 7.962 385.26 7.953C382.938 7.938 382.888 7.84 384.556 6.574C385.545 5.825 387.27 5.451 388.39 5.745C389.946 6.151 390.112 6.478 389.094 7.123ZM54.337 7C54.337 7.55 53.8871 8 53.3373 8C52.7874 8 52.3375 7.55 52.3375 7C52.3375 6.45 52.7874 6 53.3373 6C53.8871 6 54.337 6.45 54.337 7ZM258.019 6.604C257.687 6.936 256.824 6.972 256.103 6.683C255.305 6.364 255.542 6.127 256.707 6.079C257.761 6.036 258.351 6.272 258.019 6.604ZM284.358 7.772C274.776 7.924 266.587 7.7 266.16 7.274C265.733 6.848 273.572 6.724 283.582 6.998L301.78 7.495L284.358 7.772ZM331.273 7C332.445 7.758 332.186 7.973 330.082 7.985C328.602 7.993 327.114 7.55 326.774 7C325.985 5.723 329.297 5.723 331.273 7ZM395.258 7.545C395.258 7.727 394.389 7.81 393.327 7.73C392.266 7.65 391.606 7.248 391.86 6.836C392.283 6.153 395.258 6.773 395.258 7.545ZM59.3359 8C59.3359 8.55 60.5726 8.968 62.0852 8.93C64.5217 8.867 64.6066 8.762 62.8351 8C60.1047 6.826 59.3359 6.826 59.3359 8ZM72.6018 7.656C71.9249 7.93 70.5753 7.947 69.6025 7.693C68.6297 7.439 69.1836 7.215 70.8332 7.195C72.4828 7.175 73.2786 7.382 72.6018 7.656ZM82.0596 7.604C81.7277 7.936 80.8649 7.972 80.144 7.683C79.3462 7.364 79.5832 7.127 80.7479 7.079C81.8017 7.036 82.3915 7.272 82.0596 7.604ZM90.0907 7.687C89.1349 7.937 87.3354 7.946 86.0917 7.707C84.8479 7.468 85.6298 7.263 87.8292 7.252C90.0287 7.241 91.0465 7.437 90.0907 7.687ZM105.589 7.704C104.359 7.941 102.11 7.947 100.59 7.718C99.0706 7.488 100.076 7.294 102.826 7.286C105.575 7.279 106.819 7.467 105.589 7.704ZM112.053 7.604C111.721 7.936 110.858 7.972 110.137 7.683C109.339 7.364 109.576 7.127 110.741 7.079C111.795 7.036 112.385 7.272 112.053 7.604ZM128.07 7.716C126.558 7.945 124.083 7.945 122.571 7.716C121.06 7.487 122.296 7.3 125.321 7.3C128.345 7.3 129.582 7.487 128.07 7.716ZM144.566 7.706C143.328 7.944 141.305 7.944 140.067 7.706C138.829 7.467 139.842 7.272 142.317 7.272C144.791 7.272 145.804 7.467 144.566 7.706ZM173.098 7.738C169.958 7.936 164.559 7.937 161.101 7.741C157.643 7.546 160.212 7.384 166.811 7.382C173.409 7.38 176.239 7.54 173.098 7.738ZM186.306 8C186.306 8.55 186.783 9 187.365 9C187.947 9 188.146 8.55 187.806 8C187.466 7.45 186.99 7 186.747 7C186.504 7 186.306 7.45 186.306 8ZM248.021 7.604C247.689 7.936 246.826 7.972 246.105 7.683C245.308 7.364 245.545 7.127 246.709 7.079C247.763 7.036 248.353 7.272 248.021 7.604ZM318.526 7.732C316.189 7.943 312.364 7.943 310.028 7.732C307.691 7.522 309.603 7.349 314.277 7.349C318.951 7.349 320.862 7.522 318.526 7.732ZM336.001 7.604C335.669 7.936 334.806 7.972 334.085 7.683C333.287 7.364 333.524 7.127 334.689 7.079C335.743 7.036 336.333 7.272 336.001 7.604ZM342.539 7.656C341.862 7.93 340.513 7.947 339.54 7.693C338.567 7.439 339.121 7.215 340.77 7.195C342.42 7.175 343.216 7.382 342.539 7.656ZM352.03 7.687C351.074 7.937 349.275 7.946 348.031 7.707C346.787 7.468 347.569 7.263 349.768 7.252C351.968 7.241 352.986 7.437 352.03 7.687ZM374.263 8C374.263 8.55 374.713 9 375.262 9C375.812 9 376.262 8.55 376.262 8C376.262 7.45 375.812 7 375.262 7C374.713 7 374.263 7.45 374.263 8ZM183.12 8.683C183.841 8.972 184.704 8.936 185.036 8.604C185.368 8.272 184.778 8.036 183.724 8.079C182.559 8.127 182.322 8.364 183.12 8.683ZM229.058 8.707C230.302 8.946 232.102 8.937 233.057 8.687C234.013 8.437 232.996 8.241 230.796 8.252C228.597 8.263 227.815 8.468 229.058 8.707ZM188.119 10.683C188.84 10.972 189.703 10.936 190.035 10.604C190.366 10.272 189.777 10.036 188.723 10.079C187.558 10.127 187.321 10.364 188.119 10.683ZM192.118 10.683C192.839 10.972 193.702 10.936 194.034 10.604C194.366 10.272 193.776 10.036 192.722 10.079C191.557 10.127 191.32 10.364 192.118 10.683ZM196.054 10.662C196.742 10.94 197.867 10.94 198.554 10.662C199.241 10.385 198.678 10.158 197.304 10.158C195.929 10.158 195.367 10.385 196.054 10.662ZM202.572 10.693C203.544 10.947 204.894 10.93 205.571 10.656C206.248 10.382 205.452 10.175 203.802 10.195C202.153 10.215 201.599 10.439 202.572 10.693ZM214.569 10.693C215.542 10.947 216.891 10.93 217.568 10.656C218.245 10.382 217.449 10.175 215.8 10.195C214.15 10.215 213.596 10.439 214.569 10.693ZM398.766 11.015C399.101 11.557 398.336 12.014 397.066 12.032C394.834 12.063 394.821 12.111 396.676 13.515C398.208 14.675 398.893 14.719 400.089 13.733C401.388 12.661 401.427 12.794 400.386 14.75C398.971 17.404 399.865 17.665 402.427 15.345C403.433 14.435 404.256 14.162 404.256 14.738C404.256 15.314 403.581 16.045 402.756 16.362C399.838 17.482 401.31 18.548 405.256 18.171C407.739 17.935 409.255 18.209 409.255 18.895C409.255 19.503 407.819 20 406.064 20C403.157 20 403.036 20.119 404.701 21.336C405.817 22.153 408.179 22.507 410.776 22.248C413.114 22.015 415.306 22.276 415.648 22.829C416.029 23.447 414.943 23.73 412.836 23.563C410.948 23.413 408.807 23.661 408.079 24.113C407.167 24.68 404.654 22.853 400.007 18.245C396.296 14.565 393.258 11.302 393.258 10.995C393.258 9.988 398.143 10.006 398.766 11.015ZM403.756 11C404.096 11.55 403.897 12 403.315 12C402.733 12 402.256 11.55 402.256 11C402.256 10.45 402.454 10 402.697 10C402.94 10 403.416 10.45 403.756 11ZM51.2478 13.111C52.8904 14.453 53.9831 14.754 54.68 14.057C56.0456 12.691 55.0009 11.796 51.6207 11.437L48.8383 11.142L51.2478 13.111ZM202.489 12.748C211.663 12.913 226.96 12.913 236.481 12.749C246.002 12.584 238.494 12.449 219.799 12.449C201.103 12.449 193.314 12.583 202.489 12.748ZM47.3477 15.489C46.099 16.994 44.3394 16.673 44.3394 14.941C44.3394 14.423 45.2941 14 46.4609 14C48.2275 14 48.3764 14.25 47.3477 15.489ZM7.34795 16.044C7.34795 17.34 12.4448 37.196 12.9456 37.85C13.0926 38.043 13.6495 37.931 14.1824 37.601C14.7932 37.224 14.6842 35.43 13.8904 32.751C11.8489 25.87 11.0931 20.725 12.2278 21.426C12.7817 21.769 16.4098 22.079 20.2889 22.115C24.169 22.152 27.3433 22.619 27.3433 23.154C27.3433 23.688 26.5555 24.046 25.5937 23.948C24.6319 23.85 23.3942 23.863 22.8444 23.978C22.2945 24.092 19.932 24.11 17.5956 24.017C14.9462 23.912 13.3466 24.285 13.3466 25.007C13.3466 25.789 15.0981 26.04 18.7373 25.781C22.8663 25.487 24.0121 25.702 23.6292 26.699C23.3552 27.414 21.9985 28 20.6159 28C18.4564 28 18.2824 28.22 19.3872 29.551C20.4739 30.86 20.3379 31.189 18.5094 31.667C16.6158 32.163 15.3661 34 16.9237 34C17.7755 34 32.3421 20.777 32.3421 20.004C32.3421 19.642 27.2813 18.772 21.0948 18.071C14.9092 17.37 9.2855 16.337 8.59766 15.776C7.71687 15.056 7.34795 15.135 7.34795 16.044ZM440.892 17.766C440.586 18.261 435.834 19.239 430.332 19.941L420.327 21.216L426.038 26.358C429.179 29.186 432.984 32.782 434.492 34.349C437.618 37.595 437.275 38.083 440.259 26.134C442.147 18.576 442.392 15.339 440.892 17.766ZM17.2626 19.644C17.4916 19.84 16.0289 20 14.0134 20C11.9969 20 10.3473 19.561 10.3473 19.025C10.3473 18.164 16.1379 18.682 17.2626 19.644ZM439.248 21C439.248 21.55 438.236 21.968 436.998 21.93C434.852 21.863 434.841 21.82 436.748 21C437.848 20.527 438.861 20.109 438.998 20.07C439.135 20.032 439.248 20.45 439.248 21ZM48.1405 22.531C47.0587 23.614 43.3396 23.849 43.3396 22.836C43.3396 22.258 44.0004 22.04 44.8072 22.349C45.6141 22.659 46.5588 22.452 46.9068 21.89C47.2547 21.327 47.7936 21.122 48.1055 21.433C48.4164 21.745 48.4324 22.239 48.1405 22.531ZM433.978 21.604C433.646 21.936 432.783 21.972 432.062 21.683C431.264 21.364 431.501 21.127 432.666 21.079C433.72 21.036 434.31 21.272 433.978 21.604ZM37.8869 23.925C37.5709 24.437 38.2518 25.154 39.4015 25.519C42.2388 26.42 42.9917 25.419 40.4863 24.078C39.2685 23.426 38.2328 23.365 37.8869 23.925ZM437.852 25.589C437.584 26.287 437.065 28.461 436.697 30.42C436.329 32.379 435.648 33.747 435.183 33.459C434.717 33.171 434.59 32.275 434.9 31.468C435.282 30.472 434.805 30 433.415 30C432.289 30 431.09 29.55 430.75 29C430.389 28.417 431.405 28 433.19 28C434.872 28 436.248 27.55 436.248 27C436.248 26.45 434.197 26 431.69 26C428.859 26 427.37 25.615 427.76 24.984C428.719 23.432 438.456 24.016 437.852 25.589ZM27.3433 28.5C26.2916 29.767 26.4965 30 28.662 30C31.6793 30 33.015 28.472 30.7545 27.605C28.672 26.805 28.771 26.779 27.3433 28.5ZM15.1591 28.683C15.88 28.972 16.7428 28.936 17.0747 28.604C17.4066 28.272 16.8168 28.036 15.763 28.079C14.5983 28.127 14.3613 28.364 15.1591 28.683ZM415.783 30.951C414.54 32.963 416.226 33.699 422.047 33.685C425.271 33.677 428.435 33.996 429.079 34.394C429.723 34.792 430.25 34.664 430.25 34.109C430.25 32.297 426.998 31.224 423.095 31.748C420.874 32.046 418.676 31.767 417.852 31.082C416.882 30.277 416.225 30.235 415.783 30.951ZM20.9278 34.542C17.1857 37.847 17.5566 38.843 21.8446 37C23.2133 36.412 23.3712 36.106 22.3445 36.03C21.4667 35.966 21.9856 35.301 23.5942 34.428C25.1068 33.607 26.3435 32.5 26.3435 31.968C26.3435 30.312 24.9869 30.957 20.9278 34.542ZM31.3424 31.858C31.3424 33.759 34.7106 34.057 36.2692 32.294C37.133 31.315 37.21 31.053 36.4382 31.71C35.4664 32.538 34.4667 32.602 33.1889 31.918C32.0962 31.333 31.3424 31.309 31.3424 31.858ZM14.4173 40.415C13.6865 41.295 14.8182 41.585 18.8923 41.562C21.8906 41.545 24.344 41.187 24.344 40.766C24.344 40.344 23.7821 39.971 23.0943 39.936C22.4075 39.901 20.3929 39.729 18.6193 39.554C16.8457 39.379 14.9552 39.767 14.4173 40.415ZM438.244 42.596C439.034 43.386 437.761 43.74 433.649 43.874C430.521 43.977 427.637 44.261 427.239 44.507C426.843 44.752 425.753 44.108 424.819 43.075C423.17 41.253 423.33 41.201 430.136 41.35C433.995 41.435 437.644 41.996 438.244 42.596ZM10.7742 44.479C9.7144 45.28 9.2975 45.944 9.84737 45.953C11.333 45.977 13.8724 44.192 13.2446 43.565C12.9456 43.265 11.8339 43.677 10.7742 44.479ZM15.0502 44.204C14.3283 44.663 14.9702 44.975 16.6548 44.985C18.6333 44.995 19.2412 45.369 18.7123 46.25C18.1774 47.141 18.4344 47.117 19.6091 46.164C20.5159 45.429 21.6956 45.099 22.2315 45.43C22.7674 45.762 23.4592 45.622 23.7691 45.121C24.474 43.98 16.6898 43.162 15.0502 44.204ZM68.3998 47.035C70.9272 48.389 70.8422 49.755 68.0838 52.056C65.3435 54.343 63.4629 54.498 62.6971 52.5C62.3802 51.675 61.4944 51 60.7285 51C58.893 51 58.97 50.062 60.9905 47.829C62.8461 45.778 65.5164 45.492 68.3998 47.035ZM391.608 48.178C392.434 49.5 392.138 50.289 390.209 51.895C387.272 54.339 385.674 54.522 384.898 52.5C384.582 51.675 383.635 51 382.792 51C380.81 51 380.856 50.104 382.96 47.78C385.021 45.502 390.078 45.734 391.608 48.178ZM6.34818 48.5C4.9975 50.128 5.32042 50.332 7.76585 49.393C8.63565 49.059 9.34749 48.384 9.34749 47.893C9.34749 46.51 7.72786 46.838 6.34818 48.5ZM437.05 48.128C437.434 48.474 439.924 48.985 442.584 49.265C446.101 49.635 447.12 49.474 446.32 48.674C445.715 48.069 443.225 47.557 440.786 47.537C438.347 47.517 436.665 47.783 437.05 48.128ZM12.1088 48.707C13.3526 48.946 15.1521 48.937 16.1079 48.687C17.0637 48.437 16.0459 48.241 13.8464 48.252C11.647 48.263 10.8651 48.468 12.1088 48.707ZM18.3454 49.059C18.3454 49.641 18.7953 49.84 19.3452 49.5C19.895 49.16 20.3449 48.684 20.3449 48.441C20.3449 48.198 19.895 48 19.3452 48C18.7953 48 18.3454 48.477 18.3454 49.059ZM433.749 49C434.089 49.55 434.565 50 434.808 50C435.051 50 435.249 49.55 435.249 49C435.249 48.45 434.772 48 434.19 48C433.608 48 433.409 48.45 433.749 49ZM5.11647 52.168C5.69833 52.75 6.76309 53.028 7.48492 52.788C8.23375 52.538 7.77985 52.085 6.42816 51.731C4.76555 51.296 4.37464 51.426 5.11647 52.168ZM446.238 52.107C445.112 52.88 445.36 52.973 447.246 52.486C449.074 52.014 447.331 54.211 440.747 60.672C431.367 69.877 406.038 93.689 398.257 100.616L393.758 104.621L225.703 104.55L57.6473 104.479L35.7474 83.9C2.92498 53.058 1.49131 51.785 0.11863 52.256C-0.621199 52.51 2.15916 55.822 6.79008 60.205L14.7312 67.718L12.4668 76.953C9.85637 87.6 10.0313 89.938 12.7327 80.503C14.6503 73.804 14.6633 73.797 19.3162 76.804C19.5751 76.972 19.1252 77.527 18.3164 78.039C17.2027 78.743 17.5216 78.973 19.6261 78.985C21.1947 78.993 22.6644 79.67 22.9973 80.537C23.3212 81.382 24.9939 82.823 26.7145 83.738L29.8427 85.402L25.3438 86.068C22.8693 86.435 18.2574 87.052 15.0962 87.439C11.593 87.869 9.34749 88.625 9.34749 89.375C9.34749 90.341 11.7639 90.312 20.5949 89.239C28.641 88.262 32.3361 88.176 33.5779 88.936C34.5326 89.521 35.9873 90 36.8101 90C37.6319 90 42.5308 93.825 47.6966 98.5L57.0874 107H226.205H395.323L403.038 99.515C413.73 89.144 417.504 87.764 431.064 89.269C436.631 89.887 441.501 90.08 441.884 89.696C443.205 88.375 442.195 88.126 428.5 86.39C425.614 86.024 423.251 85.337 423.251 84.862C423.251 84.388 423.678 84 424.199 84C424.721 84 426.362 82.875 427.845 81.5C429.328 80.125 431.361 79 432.364 79C433.495 79 433.987 78.481 433.661 77.631C433.35 76.821 433.97 76.045 435.181 75.728C436.865 75.287 437.432 75.882 438.397 79.103C440.193 85.102 440.471 83.06 438.821 75.983C437.872 71.913 437.676 69.07 438.268 67.963C438.773 67.02 442.349 63.193 446.216 59.459C450.083 55.724 453.134 52.582 452.995 52.475C451.768 51.528 447.427 51.291 446.238 52.107ZM439.061 52.683C439.781 52.972 440.644 52.936 440.976 52.604C441.308 52.272 440.718 52.036 439.665 52.079C438.5 52.127 438.263 52.364 439.061 52.683ZM442.247 53.059C442.247 53.641 442.697 53.84 443.247 53.5C443.797 53.16 444.246 52.684 444.246 52.441C444.246 52.198 443.797 52 443.247 52C442.697 52 442.247 52.477 442.247 53.059ZM439.517 56.693C440.489 56.947 441.839 56.93 442.516 56.656C443.193 56.382 442.397 56.175 440.747 56.195C439.098 56.215 438.544 56.439 439.517 56.693ZM440.326 85.583C440.374 86.748 440.611 86.985 440.93 86.188C441.219 85.466 441.183 84.603 440.851 84.271C440.519 83.939 440.283 84.529 440.326 85.583Z" fill="#8FFF00"/>
<path d="M187.68 64.08C187.28 63.8933 187 63.8133 186.84 63.84C186.707 63.84 186.533 63.8133 186.32 63.76C186 63.7067 185.667 63.6267 185.32 63.52C185 63.4133 184.72 63.1733 184.48 62.8C184.24 62.48 184.027 61.8933 183.84 61.04C183.68 60.1867 183.52 59.24 183.36 58.2C183.227 57.16 183.107 56.1067 183 55.04C182.92 53.9467 182.84 52.9867 182.76 52.16C182.707 51.7867 182.667 51.4667 182.64 51.2C182.64 50.9333 182.627 50.6933 182.6 50.48C182.28 47.8933 181.92 45.2933 181.52 42.68C181.493 42.52 181.373 42.4267 181.16 42.4C180.973 42.3467 180.813 42.3867 180.68 42.52C180.147 43.2933 179.653 44.08 179.2 44.88C178.747 45.6533 178.32 46.4267 177.92 47.2C177.787 47.44 177.64 47.7067 177.48 48C177.32 48.2933 177.173 48.56 177.04 48.8C176.64 49.5733 176.227 50.3467 175.8 51.12C175.4 51.8667 175 52.6267 174.6 53.4C174.013 54.52 173.427 55.6267 172.84 56.72C172.28 57.8133 171.693 58.92 171.08 60.04C170.84 59.64 170.587 59.1733 170.32 58.64C170.053 58.1067 169.64 57.3333 169.08 56.32C168.36 55.04 167.587 53.64 166.76 52.12C165.933 50.6 165.133 49.1733 164.36 47.84C163.587 46.48 162.88 45.3067 162.24 44.32C161.627 43.3333 161.16 42.7067 160.84 42.44C160.68 42.3333 160.507 42.3067 160.32 42.36C160.16 42.4133 160.067 42.52 160.04 42.68C160.013 42.84 159.987 43.0667 159.96 43.36C159.933 43.6267 159.893 43.9333 159.84 44.28C159.733 45.1333 159.613 46.1733 159.48 47.4C159.347 48.6267 159.2 49.92 159.04 51.28C158.88 52.64 158.707 54.0133 158.52 55.4C158.36 56.76 158.2 58 158.04 59.12C157.88 60.24 157.733 61.1867 157.6 61.96C157.467 62.7333 157.36 63.2 157.28 63.36C157.173 63.5733 157.013 63.7067 156.8 63.76C156.587 63.7867 156.36 63.8133 156.12 63.84C155.907 63.84 155.693 63.8667 155.48 63.92C155.24 63.9733 155.12 64.1067 155.12 64.32C155.147 64.5067 155.28 64.6133 155.52 64.64C156.667 64.6933 157.8 64.7333 158.92 64.76C160.067 64.7867 161.213 64.8 162.36 64.8C162.6 64.8 162.747 64.7067 162.8 64.52C162.853 64.3333 162.773 64.2 162.56 64.12C162.107 63.9067 161.787 63.7867 161.6 63.76C161.44 63.7067 161.293 63.6533 161.16 63.6C161 63.5467 160.867 63.5067 160.76 63.48C160.68 63.4267 160.613 63.3467 160.56 63.24C160.533 63.1333 160.507 62.9733 160.48 62.76C160.48 62.5467 160.48 62.2533 160.48 61.88V61.24C160.48 59.88 160.56 58.5067 160.72 57.12C160.907 55.7333 161.107 54.3467 161.32 52.96C161.4 52.4533 161.48 51.96 161.56 51.48C161.64 51 161.707 50.4933 161.76 49.96C162 50.36 162.187 50.7067 162.32 51C162.48 51.2933 162.627 51.5733 162.76 51.84C162.893 52.1067 163.027 52.3867 163.16 52.68C163.32 52.9733 163.507 53.3333 163.72 53.76C164.173 54.64 164.64 55.56 165.12 56.52C165.627 57.4533 166.16 58.3867 166.72 59.32C167.28 60.2533 167.853 61.1733 168.44 62.08C169.053 62.96 169.693 63.7867 170.36 64.56C170.493 64.6667 170.627 64.72 170.76 64.72C170.92 64.6933 171.04 64.6133 171.12 64.48C171.547 63.7333 171.96 62.9867 172.36 62.24C172.76 61.4933 173.16 60.7333 173.56 59.96C174.467 58.2533 175.36 56.56 176.24 54.88C177.147 53.1733 178.107 51.4933 179.12 49.84C179.147 50.2933 179.173 50.6667 179.2 50.96C179.253 51.2533 179.293 51.5467 179.32 51.84C179.373 52.1067 179.427 52.4 179.48 52.72C179.533 53.0133 179.587 53.3867 179.64 53.84C179.827 55.3067 180 56.7733 180.16 58.24C180.32 59.7067 180.4 61.16 180.4 62.6C180.4 62.8667 180.387 63.1333 180.36 63.4C180.36 63.64 180.333 63.8533 180.28 64.04C180.227 64.1733 180.24 64.2933 180.32 64.4C180.4 64.48 180.52 64.52 180.68 64.52C182.947 64.68 185.227 64.76 187.52 64.76L187.68 64.08ZM210.613 43.72L210.573 43.04C209.399 42.96 208.226 42.9067 207.053 42.88C205.879 42.8533 204.693 42.84 203.493 42.84C203.119 42.84 202.959 42.9733 203.013 43.24C203.066 43.5333 203.213 43.7067 203.453 43.76C203.719 43.7867 203.999 43.8133 204.293 43.84C204.453 43.8667 204.613 43.8933 204.773 43.92C204.959 43.9467 205.119 44.0133 205.253 44.12C205.386 44.2 205.493 44.3333 205.573 44.52C205.679 44.7067 205.733 44.96 205.733 45.28C205.733 46.32 205.733 47.36 205.733 48.4C205.733 49.44 205.746 50.4667 205.773 51.48C205.799 52.52 205.813 53.56 205.813 54.6C205.813 55.64 205.813 56.6667 205.813 57.68C205.813 58.64 205.626 59.48 205.253 60.2C204.879 60.92 204.373 61.5333 203.733 62.04C203.119 62.52 202.399 62.8933 201.573 63.16C200.773 63.4 199.946 63.52 199.093 63.52C198.239 63.52 197.413 63.4 196.613 63.16C195.839 62.92 195.146 62.56 194.533 62.08C193.919 61.6 193.426 61.0133 193.053 60.32C192.679 59.6 192.493 58.7733 192.493 57.84C192.493 56.8 192.493 55.76 192.493 54.72C192.519 53.6533 192.533 52.5867 192.533 51.52V45.24C192.533 44.6533 192.719 44.28 193.093 44.12C193.466 43.9333 193.919 43.8133 194.453 43.76C194.693 43.7333 194.813 43.6267 194.813 43.44C194.813 43.2267 194.693 43.1067 194.453 43.08C192.239 42.92 190.039 42.84 187.853 42.84H186.613C186.239 42.84 186.079 42.9733 186.133 43.24C186.186 43.5333 186.319 43.6933 186.533 43.72C186.773 43.7467 187.053 43.7867 187.373 43.84C187.693 43.8667 188.013 43.9467 188.333 44.08C188.679 44.2133 188.853 44.6133 188.853 45.28V57.12C188.853 57.28 188.866 57.4667 188.893 57.68C188.946 57.8933 188.973 58.12 188.973 58.36V58.32C188.973 59.52 189.293 60.56 189.933 61.44C190.599 62.32 191.426 63.0533 192.413 63.64C193.426 64.2 194.519 64.6267 195.693 64.92C196.893 65.1867 198.026 65.32 199.093 65.32C200.399 65.32 201.639 65.1067 202.813 64.68C203.986 64.2533 204.999 63.6533 205.853 62.88C206.733 62.08 207.426 61.1333 207.933 60.04C208.439 58.92 208.693 57.68 208.693 56.32V45.24C208.693 44.7067 208.893 44.3333 209.293 44.12C209.719 43.9067 210.159 43.7733 210.613 43.72ZM226.248 58.92C226.248 58.2267 226.088 57.5733 225.768 56.96C225.448 56.3467 225.034 55.76 224.528 55.2C224.021 54.64 223.448 54.12 222.808 53.64C222.168 53.1333 221.541 52.64 220.928 52.16C220.448 51.7867 219.954 51.4 219.448 51C218.941 50.6 218.474 50.1867 218.048 49.76C217.648 49.3067 217.314 48.8533 217.048 48.4C216.808 47.9467 216.688 47.4933 216.688 47.04C216.688 46.5333 216.794 46.08 217.008 45.68C217.221 45.28 217.501 44.9467 217.848 44.68C218.194 44.4133 218.581 44.2133 219.008 44.08C219.461 43.92 219.914 43.84 220.368 43.84C220.821 43.84 221.261 43.9067 221.688 44.04C222.141 44.1733 222.541 44.3733 222.888 44.64C223.261 44.9067 223.554 45.2267 223.768 45.6C224.008 45.9733 224.128 46.4133 224.128 46.92C224.128 47.1067 224.221 47.2267 224.408 47.28C224.621 47.3333 224.808 47.2933 224.968 47.16C225.288 46.8133 225.461 46.3733 225.488 45.84C225.541 45.28 225.568 44.7333 225.568 44.2V43.08C225.621 42.8667 225.501 42.7333 225.208 42.68C224.114 42.44 222.994 42.32 221.848 42.32C221.128 42.32 220.261 42.4133 219.248 42.6C218.261 42.76 217.314 43.04 216.408 43.44C215.501 43.84 214.728 44.3733 214.088 45.04C213.474 45.7067 213.168 46.5333 213.168 47.52C213.168 48.1333 213.314 48.7333 213.608 49.32C213.928 49.88 214.341 50.4533 214.848 51.04C215.354 51.6 215.914 52.16 216.528 52.72C217.168 53.28 217.808 53.8267 218.448 54.36C219.008 54.84 219.554 55.32 220.088 55.8C220.648 56.28 221.141 56.7733 221.568 57.28C222.021 57.7867 222.381 58.28 222.648 58.76C222.941 59.24 223.088 59.72 223.088 60.2C223.088 60.7333 222.941 61.2 222.648 61.6C222.354 62 221.981 62.3333 221.528 62.6C221.074 62.8667 220.581 63.08 220.048 63.24C219.541 63.3733 219.074 63.44 218.648 63.44C218.141 63.44 217.621 63.3733 217.088 63.24C216.581 63.1067 216.114 62.9067 215.688 62.64C215.261 62.3467 214.914 62 214.648 61.6C214.408 61.1733 214.314 60.68 214.368 60.12V59.64C214.368 59.5333 214.314 59.4533 214.208 59.4C214.128 59.3467 214.034 59.32 213.928 59.32C213.821 59.32 213.714 59.3467 213.608 59.4C213.501 59.4267 213.448 59.4933 213.448 59.6C213.421 60.0533 213.341 60.4267 213.208 60.72C213.101 61.0133 213.008 61.3067 212.928 61.6C212.874 61.8667 212.848 62.1333 212.848 62.4C212.848 62.96 212.994 63.4267 213.288 63.8C213.608 64.1467 213.981 64.4267 214.408 64.64C214.861 64.8533 215.341 65 215.848 65.08C216.354 65.16 216.821 65.2 217.248 65.2C218.101 65.2 219.048 65.0667 220.088 64.8C221.154 64.5067 222.141 64.0933 223.048 63.56C223.954 63.0267 224.714 62.3733 225.328 61.6C225.941 60.8267 226.248 59.9333 226.248 58.92ZM236.686 64.2C236.473 64.0133 236.246 63.9067 236.006 63.88C235.793 63.8267 235.539 63.8 235.246 63.8C235.113 63.8 234.966 63.7867 234.806 63.76C234.646 63.7333 234.526 63.7067 234.446 63.68C234.393 63.6 234.326 63.4533 234.246 63.24C234.166 63.0267 234.099 62.8 234.046 62.56C233.993 62.32 233.939 62.0933 233.886 61.88C233.859 61.6667 233.846 61.5067 233.846 61.4V45.24C233.846 44.6 234.033 44.2 234.406 44.04C234.779 43.88 235.233 43.76 235.766 43.68C236.006 43.6267 236.113 43.5067 236.086 43.32C236.086 43.1333 235.966 43.0267 235.726 43C235.113 42.9467 234.513 42.9467 233.926 43C233.339 43.0533 232.739 43.08 232.126 43.08C231.513 43.08 230.886 43.0533 230.246 43C229.606 42.9467 228.966 42.9467 228.326 43C228.059 43.0267 227.913 43.1467 227.886 43.36C227.886 43.5467 228.019 43.6533 228.286 43.68C228.766 43.7333 229.219 43.88 229.646 44.12C230.099 44.3333 230.326 44.7067 230.326 45.24V61.52C230.326 61.7333 230.299 61.9733 230.246 62.24C230.219 62.5067 230.166 62.7733 230.086 63.04C230.006 63.3067 229.886 63.5333 229.726 63.72C229.593 63.88 229.419 63.96 229.206 63.96C229.153 63.96 229.073 63.9867 228.966 64.04C228.886 64.0667 228.779 64.0533 228.646 64C228.406 63.9467 228.233 64.0533 228.126 64.32C228.019 64.56 228.086 64.72 228.326 64.8C228.513 64.88 228.766 64.9333 229.086 64.96C229.433 64.96 229.779 64.9467 230.126 64.92C230.499 64.8933 230.846 64.8667 231.166 64.84C231.486 64.8133 231.753 64.8 231.966 64.8L233.486 64.84C233.993 64.8667 234.473 64.8667 234.926 64.84C235.406 64.8133 235.886 64.8133 236.366 64.84L236.686 64.2ZM261.348 59.4L260.428 59.24C259.681 60.6267 258.681 61.6667 257.428 62.36C256.201 63.0533 254.841 63.4 253.348 63.4C251.881 63.4 250.481 63.1333 249.148 62.6C247.841 62.04 246.681 61.2933 245.668 60.36C244.681 59.4 243.895 58.28 243.308 57C242.721 55.6933 242.428 54.28 242.428 52.76C242.428 51.2933 242.695 50.0133 243.228 48.92C243.761 47.8 244.481 46.8667 245.388 46.12C246.295 45.3733 247.348 44.8133 248.548 44.44C249.748 44.0667 251.028 43.88 252.388 43.88C253.215 43.88 254.028 43.9733 254.828 44.16C255.628 44.3467 256.348 44.6533 256.988 45.08C257.655 45.48 258.228 46 258.708 46.64C259.188 47.28 259.508 48.0533 259.668 48.96C259.721 49.1467 259.868 49.24 260.108 49.24C260.375 49.24 260.535 49.1467 260.588 48.96C260.748 48.08 260.895 47.1867 261.028 46.28C261.161 45.3733 261.241 44.4533 261.268 43.52C261.268 43.3067 261.121 43.2 260.828 43.2C260.241 43.1467 259.668 43.0933 259.108 43.04C258.548 42.96 257.961 42.88 257.348 42.8C256.575 42.6933 255.788 42.6 254.988 42.52C254.215 42.44 253.415 42.4 252.588 42.4C251.921 42.4 251.148 42.44 250.268 42.52C249.415 42.6 248.548 42.7333 247.668 42.92C246.788 43.1067 245.948 43.36 245.148 43.68C244.348 44 243.681 44.4 243.148 44.88C241.868 46.0267 240.815 47.4267 239.988 49.08C239.188 50.7333 238.788 52.4267 238.788 54.16C238.788 55.7867 239.121 57.2667 239.788 58.6C240.455 59.9333 241.335 61.08 242.428 62.04C243.548 63 244.828 63.7467 246.268 64.28C247.708 64.7867 249.215 65.04 250.788 65.04C252.281 65.04 253.855 64.88 255.508 64.56C257.188 64.2133 258.721 63.8267 260.108 63.4C260.215 63.3467 260.295 63.2667 260.348 63.16C260.588 62.6267 260.801 62.0133 260.988 61.32C261.201 60.6267 261.321 59.9867 261.348 59.4ZM288.08 64.56V63.84C287.494 63.7867 286.92 63.6667 286.36 63.48C285.8 63.2933 285.36 62.8933 285.04 62.28C284.027 60.44 283.094 58.5467 282.24 56.6C281.414 54.6267 280.587 52.68 279.76 50.76L278 46.64V46.68C277.947 46.6 277.894 46.4933 277.84 46.36C277.787 46.2 277.72 46.0267 277.64 45.84V45.88C277.507 45.5867 277.36 45.2533 277.2 44.88C277.04 44.5067 276.867 44.16 276.68 43.84C276.494 43.4933 276.307 43.1867 276.12 42.92C275.934 42.6533 275.747 42.48 275.56 42.4C275.267 42.32 275.067 42.3733 274.96 42.56C274.16 44.4267 273.36 46.2933 272.56 48.16C271.787 50.0267 271.014 51.9067 270.24 53.8C269.707 55.08 269.147 56.4 268.56 57.76C268 59.0933 267.454 60.4 266.92 61.68C266.787 61.92 266.6 62.1867 266.36 62.48C266.147 62.7733 265.907 63.04 265.64 63.28C265.374 63.4933 265.094 63.6533 264.8 63.76C264.507 63.8667 264.227 63.88 263.96 63.8L263.8 64.52L270.84 64.64C271.107 64.64 271.24 64.5333 271.24 64.32C271.267 64.08 271.147 63.9467 270.88 63.92C270.614 63.8667 270.307 63.8 269.96 63.72C269.614 63.6133 269.44 63.4133 269.44 63.12C269.44 62.88 269.52 62.48 269.68 61.92C269.867 61.3333 270.094 60.7067 270.36 60.04C270.627 59.3733 270.894 58.7067 271.16 58.04C271.427 57.3733 271.667 56.8267 271.88 56.4H278.32C278.88 57.6533 279.414 58.8533 279.92 60C280.427 61.1467 280.947 62.3467 281.48 63.6L281.12 64.04C280.96 64.1733 280.907 64.3067 280.96 64.44C281.04 64.5733 281.187 64.64 281.4 64.64C281.88 64.6667 282.347 64.6933 282.8 64.72C283.254 64.72 283.72 64.72 284.2 64.72C284.867 64.72 285.52 64.7067 286.16 64.68C286.8 64.6533 287.44 64.6133 288.08 64.56ZM277.6 54.68H272.52C273.027 53.48 273.454 52.36 273.8 51.32C274.174 50.2533 274.587 49.1333 275.04 47.96L277.6 54.68Z" fill="black"/>
<path d="M364.504 53.5C364.504 43.0996 358.656 34.1934 350.354 30.4287L348.144 36.2002C354.37 39.0273 358.75 45.707 358.75 53.5C358.75 61.3076 354.37 67.9727 348.13 70.7998L350.341 76.5713C358.656 72.8066 364.504 63.9004 364.504 53.5ZM352.996 53.5C352.996 48.2998 350.071 43.8467 345.92 41.9717L343.71 47.7432C345.786 48.6807 347.241 50.9072 347.241 53.5146C347.241 56.1074 345.786 58.334 343.71 59.2861L345.92 65.0576C350.071 63.1533 352.996 58.7002 352.996 53.5V53.5ZM354.774 18.8857L352.551 24.6572C362.941 29.3594 370.246 40.4922 370.246 53.5C370.246 66.4932 362.941 77.6406 352.551 82.3428L354.761 88.1143C367.24 82.46 376 69.1006 376 53.5C376 37.8994 367.24 24.54 354.774 18.8857V18.8857ZM307 37.8701V69.1152H318.496L338.629 91V16L318.496 37.8701H307Z" fill="black"/>
</svg>
