<svg width="454" height="107" viewBox="0 0 454 107" fill="none" xmlns="http://www.w3.org/2000/svg">
<path fill-rule="evenodd" clip-rule="evenodd" d="M56.8497 1C56.5097 1.55 56.7347 2 57.3497 2C57.9647 2 58.2017 2.43 57.8767 2.956C57.5517 3.482 56.7377 3.705 56.0677 3.45C55.3977 3.196 53.1447 4.509 51.0607 6.367C47.6137 9.441 47.4557 9.794 49.3107 10.28C50.4317 10.573 51.3497 10.405 51.3497 9.906C51.3497 8.339 53.1947 8.917 55.2587 11.132C57.2427 13.262 57.2427 13.266 55.0477 15.06C52.8997 16.815 52.7877 16.788 50.1067 13.874C46.8477 10.331 46.9287 10.298 37.4637 19.165C30.3177 25.861 28.7477 27.928 32.2187 26.07C33.2457 25.52 34.4327 25.392 34.8547 25.785C35.2777 26.178 35.4107 25.825 35.1497 25C34.8447 24.034 35.7677 23.038 37.7437 22.201C39.9877 21.251 40.4517 20.681 39.4737 20.076C38.3897 19.407 38.3807 19.099 39.4247 18.453C40.9987 17.481 52.3497 17.162 52.3497 18.091C52.3497 19.453 49.1927 21.366 48.5237 20.408C47.7897 19.359 42.8047 19.212 41.8057 20.21C40.8717 21.145 43.3077 25.144 44.3997 24.469C46.2727 23.312 45.3037 25.694 43.0357 27.826C40.7127 30.007 38.7497 30.78 39.7847 29.105C40.0897 28.612 39.7097 27.968 38.9407 27.673C37.2757 27.034 33.3497 27.931 33.3497 28.95C33.3497 30.479 34.7287 30.93 36.0497 29.834C37.0927 28.968 37.7187 28.969 38.5857 29.836C39.4537 30.704 39.0507 31.702 36.9487 33.897C34.6667 36.279 33.6797 36.669 31.5057 36.048C28.3377 35.144 23.9347 36.243 26.6107 37.27C27.4997 37.611 29.4527 37.668 30.9517 37.396C33.3367 36.963 33.5137 37.097 32.3717 38.473C31.6417 39.354 30.2867 39.797 29.2927 39.482C28.3167 39.172 27.1817 39.463 26.7697 40.129C26.2547 40.962 26.5407 41.141 27.6857 40.701C30.4937 39.624 29.5567 41.381 24.8707 45.979C22.4067 48.397 20.5677 50.551 20.7827 50.766C20.9977 50.981 30.1147 42.125 41.0437 31.086L60.9137 11.015L123.882 10.75L186.85 10.485L123.3 10.242C82.0387 10.085 59.3287 10.351 58.5497 11C57.6977 11.71 57.6217 11.67 58.2887 10.861C58.9127 10.104 58.5237 9.151 57.1267 8.02C55.6737 6.844 55.3837 6.097 56.1877 5.6C56.8267 5.205 57.3497 5.319 57.3497 5.853C57.3497 6.386 59.5967 6.708 62.3427 6.568C66.4257 6.36 67.1317 6.558 66.2197 7.657C65.2887 8.778 74.5097 9 122.144 9C158.503 9 179.304 8.645 179.517 8.02C180.032 6.504 191.605 6.264 192.103 7.759C192.642 9.375 197.012 9.368 197.767 7.75C198.233 6.75 198.467 6.75 198.933 7.75C199.254 8.438 200.69 9 202.124 9C204.648 9 204.67 8.95 202.791 7.448C200.927 5.958 200.949 5.924 203.35 6.583C204.725 6.961 206.075 7.546 206.35 7.885C207.178 8.903 212.442 8.958 211.814 7.941C211.492 7.42 212.821 7 214.791 7C216.748 7 218.35 7.45 218.35 8C218.35 8.55 220.262 8.936 222.6 8.858L226.85 8.716L222.85 8.006C219.188 7.356 232.329 7.436 251.35 8.178C255.475 8.34 259.975 8.111 261.35 7.67C263.221 7.071 263.473 7.133 262.35 7.919C261.295 8.658 276.432 8.924 313.35 8.817C342.225 8.733 363.15 8.365 359.85 8L353.85 7.336L360.6 7.168C364.545 7.07 367.35 7.415 367.35 8C367.35 9.466 369.274 9.219 370.956 7.537C372.955 5.537 381.907 5.624 380.244 7.627C379.316 8.746 379.822 9.045 382.978 9.241C385.107 9.374 349.275 9.716 303.35 10L219.85 10.517L305.359 10.759L390.868 11L411.35 31.5C428.086 48.251 431.388 52 429.403 52C427.576 52 422.312 47.29 408.169 33L389.364 14H226.097H62.8297L43.8397 33.036C28.6867 48.225 24.3447 52.043 22.3497 51.93C20.9747 51.852 19.4037 51.836 18.8587 51.894C18.3137 51.952 27.5347 61.675 39.3497 73.5L60.8327 95H226.027H391.221L412.221 73.775C427.521 58.312 432.949 52.221 432.216 51.339C431.538 50.522 431.577 49.375 432.336 47.814C433.342 45.744 433.312 45.684 432.052 47.241C430.722 48.884 430.538 48.866 428.781 46.924L426.918 44.866L435.179 45.282L443.44 45.699L439.875 42.76C436.813 40.236 435.396 39.799 429.829 39.661C426.265 39.572 423.225 39.872 423.074 40.327C422.923 40.781 421.976 40.244 420.969 39.132C419.145 37.116 419.161 37.112 426.961 37.668C433.643 38.144 434.61 38.018 433.603 36.805C432.505 35.482 425.196 35.255 420.189 36.39C419.238 36.605 416.944 35.144 414.822 32.971L411.115 29.175L418.983 29.696C425.142 30.103 426.598 29.952 425.691 28.999C424.571 27.823 413.151 27.387 411.424 28.454C410.98 28.728 409.847 28.102 408.905 27.061C407.054 25.016 407.245 25.005 419.238 26.497L422.625 26.919L416.738 21.357C413.499 18.298 407.095 12.241 402.506 7.898L394.162 0H225.815C114.662 0 57.2577 0.34 56.8497 1ZM65.8497 3C66.2017 3.569 65.3407 4 63.8497 4C62.3587 4 61.4977 3.569 61.8497 3C62.1897 2.45 63.0897 2 63.8497 2C64.6097 2 65.5097 2.45 65.8497 3ZM226.35 3C226.35 3.55 225.873 4 225.291 4C224.709 4 224.51 3.55 224.85 3C225.19 2.45 225.666 2 225.909 2C226.152 2 226.35 2.45 226.35 3ZM378.35 3C378.35 3.55 377.648 4 376.791 4C375.934 4 375.51 3.55 375.85 3C376.19 2.45 376.891 2 377.409 2C377.927 2 378.35 2.45 378.35 3ZM385.35 3C386.515 3.753 386.222 3.973 384.041 3.985C382.42 3.994 381.493 3.577 381.85 3C382.617 1.758 383.429 1.758 385.35 3ZM389.185 7.123C388.451 7.589 386.725 7.962 385.35 7.953C383.027 7.938 382.977 7.84 384.646 6.574C385.635 5.825 387.36 5.451 388.481 5.745C390.037 6.151 390.203 6.478 389.185 7.123ZM54.3497 7C54.3497 7.55 53.8997 8 53.3497 8C52.7997 8 52.3497 7.55 52.3497 7C52.3497 6.45 52.7997 6 53.3497 6C53.8997 6 54.3497 6.45 54.3497 7ZM258.079 6.604C257.747 6.936 256.884 6.972 256.163 6.683C255.365 6.364 255.602 6.127 256.767 6.079C257.821 6.036 258.411 6.272 258.079 6.604ZM284.424 7.772C274.84 7.924 266.649 7.7 266.222 7.274C265.795 6.848 273.636 6.724 283.648 6.998L301.85 7.495L284.424 7.772ZM331.35 7C332.523 7.758 332.264 7.973 330.159 7.985C328.679 7.993 327.19 7.55 326.85 7C326.061 5.723 329.374 5.723 331.35 7ZM395.35 7.545C395.35 7.727 394.481 7.81 393.419 7.73C392.357 7.65 391.697 7.248 391.951 6.836C392.374 6.153 395.35 6.773 395.35 7.545ZM59.3497 8C59.3497 8.55 60.5867 8.968 62.0997 8.93C64.5367 8.867 64.6217 8.762 62.8497 8C60.1187 6.826 59.3497 6.826 59.3497 8ZM72.6187 7.656C71.9417 7.93 70.5917 7.947 69.6187 7.693C68.6457 7.439 69.1997 7.215 70.8497 7.195C72.4997 7.175 73.2957 7.382 72.6187 7.656ZM82.0787 7.604C81.7467 7.936 80.8837 7.972 80.1627 7.683C79.3647 7.364 79.6017 7.127 80.7667 7.079C81.8207 7.036 82.4107 7.272 82.0787 7.604ZM90.1117 7.687C89.1557 7.937 87.3557 7.946 86.1117 7.707C84.8677 7.468 85.6497 7.263 87.8497 7.252C90.0497 7.241 91.0677 7.437 90.1117 7.687ZM105.614 7.704C104.384 7.941 102.134 7.947 100.614 7.718C99.0937 7.488 100.1 7.294 102.85 7.286C105.6 7.279 106.844 7.467 105.614 7.704ZM112.079 7.604C111.747 7.936 110.884 7.972 110.163 7.683C109.365 7.364 109.602 7.127 110.767 7.079C111.821 7.036 112.411 7.272 112.079 7.604ZM128.1 7.716C126.588 7.945 124.112 7.945 122.6 7.716C121.088 7.487 122.325 7.3 125.35 7.3C128.375 7.3 129.612 7.487 128.1 7.716ZM144.6 7.706C143.362 7.944 141.338 7.944 140.1 7.706C138.862 7.467 139.875 7.272 142.35 7.272C144.825 7.272 145.838 7.467 144.6 7.706ZM173.139 7.738C169.998 7.936 164.598 7.937 161.139 7.741C157.68 7.546 160.25 7.384 166.85 7.382C173.45 7.38 176.28 7.54 173.139 7.738ZM186.35 8C186.35 8.55 186.827 9 187.409 9C187.991 9 188.19 8.55 187.85 8C187.51 7.45 187.034 7 186.791 7C186.548 7 186.35 7.45 186.35 8ZM248.079 7.604C247.747 7.936 246.884 7.972 246.163 7.683C245.365 7.364 245.602 7.127 246.767 7.079C247.821 7.036 248.411 7.272 248.079 7.604ZM318.6 7.732C316.263 7.943 312.437 7.943 310.1 7.732C307.763 7.522 309.675 7.349 314.35 7.349C319.025 7.349 320.937 7.522 318.6 7.732ZM336.079 7.604C335.747 7.936 334.884 7.972 334.163 7.683C333.365 7.364 333.602 7.127 334.767 7.079C335.821 7.036 336.411 7.272 336.079 7.604ZM342.619 7.656C341.942 7.93 340.592 7.947 339.619 7.693C338.646 7.439 339.2 7.215 340.85 7.195C342.5 7.175 343.296 7.382 342.619 7.656ZM352.112 7.687C351.156 7.937 349.356 7.946 348.112 7.707C346.868 7.468 347.65 7.263 349.85 7.252C352.05 7.241 353.068 7.437 352.112 7.687ZM374.35 8C374.35 8.55 374.8 9 375.35 9C375.9 9 376.35 8.55 376.35 8C376.35 7.45 375.9 7 375.35 7C374.8 7 374.35 7.45 374.35 8ZM183.163 8.683C183.884 8.972 184.747 8.936 185.079 8.604C185.411 8.272 184.821 8.036 183.767 8.079C182.602 8.127 182.365 8.364 183.163 8.683ZM229.112 8.707C230.356 8.946 232.156 8.937 233.112 8.687C234.068 8.437 233.05 8.241 230.85 8.252C228.65 8.263 227.868 8.468 229.112 8.707ZM188.163 10.683C188.884 10.972 189.747 10.936 190.079 10.604C190.411 10.272 189.821 10.036 188.767 10.079C187.602 10.127 187.365 10.364 188.163 10.683ZM192.163 10.683C192.884 10.972 193.747 10.936 194.079 10.604C194.411 10.272 193.821 10.036 192.767 10.079C191.602 10.127 191.365 10.364 192.163 10.683ZM196.1 10.662C196.788 10.94 197.913 10.94 198.6 10.662C199.288 10.385 198.725 10.158 197.35 10.158C195.975 10.158 195.413 10.385 196.1 10.662ZM202.619 10.693C203.592 10.947 204.942 10.93 205.619 10.656C206.296 10.382 205.5 10.175 203.85 10.195C202.2 10.215 201.646 10.439 202.619 10.693ZM214.619 10.693C215.592 10.947 216.942 10.93 217.619 10.656C218.296 10.382 217.5 10.175 215.85 10.195C214.2 10.215 213.646 10.439 214.619 10.693ZM398.859 11.015C399.194 11.557 398.429 12.014 397.159 12.032C394.926 12.063 394.913 12.111 396.768 13.515C398.301 14.675 398.986 14.719 400.182 13.733C401.482 12.661 401.521 12.794 400.479 14.75C399.064 17.404 399.958 17.665 402.521 15.345C403.527 14.435 404.35 14.162 404.35 14.738C404.35 15.314 403.675 16.045 402.85 16.362C399.931 17.482 401.404 18.548 405.35 18.171C407.834 17.935 409.35 18.209 409.35 18.895C409.35 19.503 407.914 20 406.159 20C403.251 20 403.13 20.119 404.795 21.336C405.912 22.153 408.274 22.507 410.872 22.248C413.21 22.015 415.403 22.276 415.745 22.829C416.126 23.447 415.04 23.73 412.932 23.563C411.044 23.413 408.902 23.661 408.174 24.113C407.262 24.68 404.748 22.853 400.1 18.245C396.388 14.565 393.35 11.302 393.35 10.995C393.35 9.988 398.236 10.006 398.859 11.015ZM403.85 11C404.19 11.55 403.991 12 403.409 12C402.827 12 402.35 11.55 402.35 11C402.35 10.45 402.548 10 402.791 10C403.034 10 403.51 10.45 403.85 11ZM51.2597 13.111C52.9027 14.453 53.9957 14.754 54.6927 14.057C56.0587 12.691 55.0137 11.796 51.6327 11.437L48.8497 11.142L51.2597 13.111ZM202.536 12.748C211.713 12.913 227.013 12.913 236.536 12.749C246.059 12.584 238.55 12.449 219.85 12.449C201.15 12.449 193.359 12.583 202.536 12.748ZM47.3587 15.489C46.1097 16.994 44.3497 16.673 44.3497 14.941C44.3497 14.423 45.3047 14 46.4717 14C48.2387 14 48.3877 14.25 47.3587 15.489ZM7.34966 16.044C7.34966 17.34 12.4477 37.196 12.9487 37.85C13.0957 38.043 13.6527 37.931 14.1857 37.601C14.7967 37.224 14.6877 35.43 13.8937 32.751C11.8517 25.87 11.0957 20.725 12.2307 21.426C12.7847 21.769 16.4137 22.079 20.2937 22.115C24.1747 22.152 27.3497 22.619 27.3497 23.154C27.3497 23.688 26.5617 24.046 25.5997 23.948C24.6377 23.85 23.3997 23.863 22.8497 23.978C22.2997 24.092 19.9367 24.11 17.5997 24.017C14.9497 23.912 13.3497 24.285 13.3497 25.007C13.3497 25.789 15.1017 26.04 18.7417 25.781C22.8717 25.487 24.0177 25.702 23.6347 26.699C23.3607 27.414 22.0037 28 20.6207 28C18.4607 28 18.2867 28.22 19.3917 29.551C20.4787 30.86 20.3427 31.189 18.5137 31.667C16.6197 32.163 15.3697 34 16.9277 34C17.7797 34 32.3497 20.777 32.3497 20.004C32.3497 19.642 27.2877 18.772 21.0997 18.071C14.9127 17.37 9.28766 16.337 8.59966 15.776C7.71866 15.056 7.34966 15.135 7.34966 16.044ZM440.995 17.766C440.689 18.261 435.936 19.239 430.432 19.941L420.425 21.216L426.137 26.358C429.279 29.186 433.085 32.782 434.593 34.349C437.72 37.595 437.377 38.083 440.362 26.134C442.25 18.576 442.495 15.339 440.995 17.766ZM17.2667 19.644C17.4957 19.84 16.0327 20 14.0167 20C11.9997 20 10.3497 19.561 10.3497 19.025C10.3497 18.164 16.1417 18.682 17.2667 19.644ZM439.35 21C439.35 21.55 438.338 21.968 437.1 21.93C434.953 21.863 434.942 21.82 436.85 21C437.95 20.527 438.963 20.109 439.1 20.07C439.237 20.032 439.35 20.45 439.35 21ZM48.1517 22.531C47.0697 23.614 43.3497 23.849 43.3497 22.836C43.3497 22.258 44.0107 22.04 44.8177 22.349C45.6247 22.659 46.5697 22.452 46.9177 21.89C47.2657 21.327 47.8047 21.122 48.1167 21.433C48.4277 21.745 48.4437 22.239 48.1517 22.531ZM434.079 21.604C433.747 21.936 432.884 21.972 432.163 21.683C431.365 21.364 431.602 21.127 432.767 21.079C433.821 21.036 434.411 21.272 434.079 21.604ZM37.8957 23.925C37.5797 24.437 38.2607 25.154 39.4107 25.519C42.2487 26.42 43.0017 25.419 40.4957 24.078C39.2777 23.426 38.2417 23.365 37.8957 23.925ZM437.954 25.589C437.686 26.287 437.167 28.461 436.799 30.42C436.431 32.379 435.75 33.747 435.284 33.459C434.818 33.171 434.691 32.275 435.001 31.468C435.383 30.472 434.906 30 433.516 30C432.39 30 431.19 29.55 430.85 29C430.489 28.417 431.506 28 433.291 28C434.973 28 436.35 27.55 436.35 27C436.35 26.45 434.298 26 431.791 26C428.959 26 427.47 25.615 427.86 24.984C428.819 23.432 438.558 24.016 437.954 25.589ZM27.3497 28.5C26.2977 29.767 26.5027 30 28.6687 30C31.6867 30 33.0227 28.472 30.7617 27.605C28.6787 26.805 28.7777 26.779 27.3497 28.5ZM15.1627 28.683C15.8837 28.972 16.7467 28.936 17.0787 28.604C17.4107 28.272 16.8207 28.036 15.7667 28.079C14.6017 28.127 14.3647 28.364 15.1627 28.683ZM415.88 30.951C414.637 32.963 416.323 33.699 422.145 33.685C425.37 33.677 428.535 33.996 429.179 34.394C429.823 34.792 430.35 34.664 430.35 34.109C430.35 32.297 427.098 31.224 423.194 31.748C420.972 32.046 418.774 31.767 417.949 31.082C416.979 30.277 416.322 30.235 415.88 30.951ZM20.9327 34.542C17.1897 37.847 17.5607 38.843 21.8497 37C23.2187 36.412 23.3767 36.106 22.3497 36.03C21.4717 35.966 21.9907 35.301 23.5997 34.428C25.1127 33.607 26.3497 32.5 26.3497 31.968C26.3497 30.312 24.9927 30.957 20.9327 34.542ZM31.3497 31.858C31.3497 33.759 34.7187 34.057 36.2777 32.294C37.1417 31.315 37.2187 31.053 36.4467 31.71C35.4747 32.538 34.4747 32.602 33.1967 31.918C32.1037 31.333 31.3497 31.309 31.3497 31.858ZM14.4207 40.415C13.6897 41.295 14.8217 41.585 18.8967 41.562C21.8957 41.545 24.3497 41.187 24.3497 40.766C24.3497 40.344 23.7877 39.971 23.0997 39.936C22.4127 39.901 20.3977 39.729 18.6237 39.554C16.8497 39.379 14.9587 39.767 14.4207 40.415ZM438.346 42.596C439.136 43.386 437.863 43.74 433.75 43.874C430.621 43.977 427.737 44.261 427.339 44.507C426.942 44.752 425.852 44.108 424.918 43.075C423.269 41.253 423.429 41.201 430.236 41.35C434.096 41.435 437.746 41.996 438.346 42.596ZM10.7767 44.479C9.71666 45.28 9.29966 45.944 9.84966 45.953C11.3357 45.977 13.8757 44.192 13.2477 43.565C12.9487 43.265 11.8367 43.677 10.7767 44.479ZM15.0537 44.204C14.3317 44.663 14.9737 44.975 16.6587 44.985C18.6377 44.995 19.2457 45.369 18.7167 46.25C18.1817 47.141 18.4387 47.117 19.6137 46.164C20.5207 45.429 21.7007 45.099 22.2367 45.43C22.7727 45.762 23.4647 45.622 23.7747 45.121C24.4797 43.98 16.6937 43.162 15.0537 44.204ZM68.4157 47.035C70.9437 48.389 70.8587 49.755 68.0997 52.056C65.3587 54.343 63.4777 54.498 62.7117 52.5C62.3947 51.675 61.5087 51 60.7427 51C58.9067 51 58.9837 50.062 61.0047 47.829C62.8607 45.778 65.5317 45.492 68.4157 47.035ZM391.699 48.178C392.526 49.5 392.229 50.289 390.3 51.895C387.362 54.339 385.764 54.522 384.988 52.5C384.672 51.675 383.724 51 382.881 51C380.899 51 380.945 50.104 383.049 47.78C385.111 45.502 390.169 45.734 391.699 48.178ZM6.34966 48.5C4.99866 50.128 5.32166 50.332 7.76766 49.393C8.63766 49.059 9.34966 48.384 9.34966 47.893C9.34966 46.51 7.72966 46.838 6.34966 48.5ZM437.152 48.128C437.536 48.474 440.027 48.985 442.687 49.265C446.205 49.635 447.224 49.474 446.424 48.674C445.819 48.069 443.328 47.557 440.889 47.537C438.449 47.517 436.767 47.783 437.152 48.128ZM12.1117 48.707C13.3557 48.946 15.1557 48.937 16.1117 48.687C17.0677 48.437 16.0497 48.241 13.8497 48.252C11.6497 48.263 10.8677 48.468 12.1117 48.707ZM18.3497 49.059C18.3497 49.641 18.7997 49.84 19.3497 49.5C19.8997 49.16 20.3497 48.684 20.3497 48.441C20.3497 48.198 19.8997 48 19.3497 48C18.7997 48 18.3497 48.477 18.3497 49.059ZM433.85 49C434.19 49.55 434.666 50 434.909 50C435.152 50 435.35 49.55 435.35 49C435.35 48.45 434.873 48 434.291 48C433.709 48 433.51 48.45 433.85 49ZM5.11766 52.168C5.69966 52.75 6.76466 53.028 7.48666 52.788C8.23566 52.538 7.78166 52.085 6.42966 51.731C4.76666 51.296 4.37566 51.426 5.11766 52.168ZM446.342 52.107C445.216 52.88 445.464 52.973 447.35 52.486C449.179 52.014 447.435 54.211 440.85 60.672C431.468 69.877 406.133 93.689 398.35 100.616L393.85 104.621L225.756 104.55L57.6607 104.479L35.7557 83.9C2.92566 53.058 1.49166 51.785 0.118657 52.256C-0.621343 52.51 2.15966 55.822 6.79166 60.205L14.7347 67.718L12.4697 76.953C9.85866 87.6 10.0337 89.938 12.7357 80.503C14.6537 73.804 14.6667 73.797 19.3207 76.804C19.5797 76.972 19.1297 77.527 18.3207 78.039C17.2067 78.743 17.5257 78.973 19.6307 78.985C21.1997 78.993 22.6697 79.67 23.0027 80.537C23.3267 81.382 24.9997 82.823 26.7207 83.738L29.8497 85.402L25.3497 86.068C22.8747 86.435 18.2617 87.052 15.0997 87.439C11.5957 87.869 9.34966 88.625 9.34966 89.375C9.34966 90.341 11.7667 90.312 20.5997 89.239C28.6477 88.262 32.3437 88.176 33.5857 88.936C34.5407 89.521 35.9957 90 36.8187 90C37.6407 90 42.5407 93.825 47.7077 98.5L57.1007 107H226.258H395.415L403.132 99.515C413.826 89.144 417.601 87.764 431.164 89.269C436.733 89.887 441.604 90.08 441.987 89.696C443.308 88.375 442.298 88.126 428.6 86.39C425.713 86.024 423.35 85.337 423.35 84.862C423.35 84.388 423.777 84 424.298 84C424.82 84 426.461 82.875 427.945 81.5C429.428 80.125 431.462 79 432.465 79C433.596 79 434.088 78.481 433.762 77.631C433.451 76.821 434.071 76.045 435.282 75.728C436.967 75.287 437.534 75.882 438.499 79.103C440.296 85.102 440.574 83.06 438.923 75.983C437.974 71.913 437.778 69.07 438.37 67.963C438.875 67.02 442.452 63.193 446.32 59.459C450.188 55.724 453.24 52.582 453.101 52.475C451.873 51.528 447.531 51.291 446.342 52.107ZM439.163 52.683C439.884 52.972 440.747 52.936 441.079 52.604C441.411 52.272 440.821 52.036 439.767 52.079C438.602 52.127 438.365 52.364 439.163 52.683ZM442.35 53.059C442.35 53.641 442.8 53.84 443.35 53.5C443.9 53.16 444.35 52.684 444.35 52.441C444.35 52.198 443.9 52 443.35 52C442.8 52 442.35 52.477 442.35 53.059ZM439.619 56.693C440.592 56.947 441.942 56.93 442.619 56.656C443.296 56.382 442.5 56.175 440.85 56.195C439.2 56.215 438.646 56.439 439.619 56.693ZM440.429 85.583C440.477 86.748 440.714 86.985 441.033 86.188C441.322 85.466 441.286 84.603 440.954 84.271C440.622 83.939 440.386 84.529 440.429 85.583Z" fill="#E26D00"/>
<path d="M127.75 55.3C127.75 53.2333 127.317 51.2667 126.45 49.4C125.617 47.5333 124.483 45.9 123.05 44.5C121.617 43.1 119.95 41.9833 118.05 41.15C116.183 40.3167 114.217 39.9 112.15 39.9C110.05 39.9 107.983 40.2167 105.95 40.85C103.95 41.4833 102.15 42.4167 100.55 43.65C98.9833 44.85 97.7 46.3333 96.7 48.1C95.7333 49.8667 95.25 51.8833 95.25 54.15C95.25 56.2167 95.7 58.15 96.6 59.95C97.5 61.7167 98.6833 63.25 100.15 64.55C101.617 65.85 103.3 66.8833 105.2 67.65C107.133 68.3833 109.1 68.75 111.1 68.75C113.1 68.75 115.083 68.4667 117.05 67.9C119.05 67.3333 120.833 66.4833 122.4 65.35C124 64.2167 125.283 62.8167 126.25 61.15C127.25 59.45 127.75 57.5 127.75 55.3ZM123.3 55.2C123.3 56.9 123.033 58.4667 122.5 59.9C121.967 61.3 121.2 62.5167 120.2 63.55C119.233 64.55 118.05 65.3333 116.65 65.9C115.283 66.4333 113.75 66.7 112.05 66.7C110.217 66.7 108.55 66.35 107.05 65.65C105.55 64.9167 104.25 63.95 103.15 62.75C102.083 61.5167 101.25 60.1 100.65 58.5C100.05 56.9 99.75 55.2167 99.75 53.45C99.75 51.7167 100.033 50.1667 100.6 48.8C101.167 47.4 101.95 46.2167 102.95 45.25C103.983 44.25 105.2 43.4833 106.6 42.95C108.033 42.4167 109.583 42.15 111.25 42.15C113.05 42.15 114.683 42.5 116.15 43.2C117.65 43.9 118.917 44.85 119.95 46.05C121.017 47.25 121.833 48.65 122.4 50.25C123 51.8167 123.3 53.4667 123.3 55.2ZM150.71 47.45C150.71 45.95 150.393 44.7667 149.76 43.9C149.16 43.0333 148.36 42.3667 147.36 41.9C146.36 41.4333 145.243 41.1333 144.01 41C142.776 40.8667 141.543 40.8 140.31 40.8C139.943 40.8 139.61 40.8167 139.31 40.85C139.01 40.85 138.693 40.85 138.36 40.85H136.81C136.443 40.85 136.093 40.85 135.76 40.85C135.46 40.8167 135.126 40.8 134.76 40.8H131.56H130.71C130.443 40.8 130.26 40.8667 130.16 41C130.06 41.1333 130.076 41.2833 130.21 41.45C130.376 41.7167 130.61 41.8833 130.91 41.95C131.21 42.0167 131.526 42.0667 131.86 42.1C132.226 42.1333 132.576 42.2333 132.91 42.4C133.276 42.5333 133.46 42.95 133.46 43.65V64.1C133.46 64.7333 133.426 65.2333 133.36 65.6C133.326 65.9667 133.226 66.2667 133.06 66.5C132.893 66.7 132.643 66.85 132.31 66.95C132.01 67.0167 131.593 67.1 131.06 67.2C130.726 67.2667 130.56 67.4333 130.56 67.7C130.593 67.9667 130.776 68.1 131.11 68.1C132.81 68.1667 134.493 68.2167 136.16 68.25C137.86 68.2833 139.56 68.3 141.26 68.3C141.493 68.3 141.66 68.2333 141.76 68.1C141.86 67.9667 141.86 67.8167 141.76 67.65C141.626 67.3833 141.393 67.2333 141.06 67.2C140.76 67.1333 140.41 67.0667 140.01 67C139.843 66.9667 139.626 66.95 139.36 66.95C139.093 66.9167 138.876 66.8667 138.71 66.8C138.643 66.7333 138.576 66.5667 138.51 66.3C138.443 66.0333 138.36 65.75 138.26 65.45C138.193 65.15 138.126 64.8667 138.06 64.6C138.026 64.3 138.01 64.1 138.01 64V43C138.41 42.8667 138.81 42.7667 139.21 42.7C139.643 42.6 140.093 42.55 140.56 42.55C141.46 42.55 142.276 42.7333 143.01 43.1C143.776 43.4667 144.426 43.95 144.96 44.55C145.493 45.15 145.91 45.85 146.21 46.65C146.51 47.45 146.66 48.3 146.66 49.2C146.66 50.1667 146.493 51.0167 146.16 51.75C145.826 52.4833 145.36 53.1 144.76 53.6C144.193 54.1 143.51 54.4833 142.71 54.75C141.943 55.0167 141.11 55.15 140.21 55.15H139.26C138.926 55.15 138.743 55.2833 138.71 55.55C138.676 55.7833 138.826 55.9333 139.16 56C139.526 56.0667 139.91 56.1333 140.31 56.2C140.71 56.2667 141.126 56.3 141.56 56.3C142.76 56.3 143.91 56.0667 145.01 55.6C146.143 55.1333 147.126 54.5 147.96 53.7C148.793 52.9 149.46 51.9667 149.96 50.9C150.46 49.8 150.71 48.65 150.71 47.45ZM181.212 61.5L180.062 61.3C179.129 63.0333 177.879 64.3333 176.313 65.2C174.779 66.0667 173.079 66.5 171.213 66.5C169.379 66.5 167.629 66.1667 165.963 65.5C164.329 64.8 162.879 63.8667 161.613 62.7C160.379 61.5 159.396 60.1 158.663 58.5C157.929 56.8667 157.563 55.1 157.563 53.2C157.563 51.3667 157.896 49.7667 158.563 48.4C159.229 47 160.129 45.8333 161.263 44.9C162.396 43.9667 163.713 43.2667 165.213 42.8C166.713 42.3333 168.313 42.1 170.013 42.1C171.046 42.1 172.063 42.2167 173.063 42.45C174.063 42.6833 174.963 43.0667 175.763 43.6C176.596 44.1 177.313 44.75 177.913 45.55C178.513 46.35 178.913 47.3167 179.113 48.45C179.179 48.6833 179.363 48.8 179.663 48.8C179.996 48.8 180.196 48.6833 180.263 48.45C180.463 47.35 180.646 46.2333 180.813 45.1C180.979 43.9667 181.079 42.8167 181.113 41.65C181.113 41.3833 180.929 41.25 180.563 41.25C179.829 41.1833 179.113 41.1167 178.413 41.05C177.713 40.95 176.979 40.85 176.213 40.75C175.246 40.6167 174.263 40.5 173.263 40.4C172.296 40.3 171.296 40.25 170.263 40.25C169.429 40.25 168.463 40.3 167.363 40.4C166.296 40.5 165.213 40.6667 164.113 40.9C163.013 41.1333 161.963 41.45 160.963 41.85C159.963 42.25 159.129 42.75 158.463 43.35C156.863 44.7833 155.546 46.5333 154.513 48.6C153.513 50.6667 153.013 52.7833 153.013 54.95C153.013 56.9833 153.429 58.8333 154.263 60.5C155.096 62.1667 156.196 63.6 157.563 64.8C158.963 66 160.563 66.9333 162.363 67.6C164.163 68.2333 166.046 68.55 168.013 68.55C169.879 68.55 171.846 68.35 173.913 67.95C176.013 67.5167 177.929 67.0333 179.663 66.5C179.796 66.4333 179.896 66.3333 179.963 66.2C180.263 65.5333 180.529 64.7667 180.763 63.9C181.029 63.0333 181.179 62.2333 181.212 61.5ZM194.428 67.5C194.161 67.2667 193.878 67.1333 193.578 67.1C193.311 67.0333 192.994 67 192.628 67C192.461 67 192.278 66.9833 192.078 66.95C191.878 66.9167 191.728 66.8833 191.628 66.85C191.561 66.75 191.478 66.5667 191.378 66.3C191.278 66.0333 191.194 65.75 191.128 65.45C191.061 65.15 190.994 64.8667 190.928 64.6C190.894 64.3333 190.878 64.1333 190.878 64V43.8C190.878 43 191.111 42.5 191.578 42.3C192.044 42.1 192.611 41.95 193.278 41.85C193.578 41.7833 193.711 41.6333 193.678 41.4C193.678 41.1667 193.528 41.0333 193.228 41C192.461 40.9333 191.711 40.9333 190.978 41C190.244 41.0667 189.494 41.1 188.728 41.1C187.961 41.1 187.178 41.0667 186.378 41C185.578 40.9333 184.778 40.9333 183.978 41C183.644 41.0333 183.461 41.1833 183.428 41.45C183.428 41.6833 183.594 41.8167 183.928 41.85C184.528 41.9167 185.094 42.1 185.628 42.4C186.194 42.6667 186.478 43.1333 186.478 43.8V64.15C186.478 64.4167 186.444 64.7167 186.378 65.05C186.344 65.3833 186.278 65.7167 186.178 66.05C186.078 66.3833 185.928 66.6667 185.728 66.9C185.561 67.1 185.344 67.2 185.078 67.2C185.011 67.2 184.911 67.2333 184.778 67.3C184.678 67.3333 184.544 67.3167 184.378 67.25C184.078 67.1833 183.861 67.3167 183.728 67.65C183.594 67.95 183.678 68.15 183.978 68.25C184.211 68.35 184.528 68.4167 184.928 68.45C185.361 68.45 185.794 68.4333 186.228 68.4C186.694 68.3667 187.128 68.3333 187.528 68.3C187.928 68.2667 188.261 68.25 188.528 68.25L190.428 68.3C191.061 68.3333 191.661 68.3333 192.228 68.3C192.828 68.2667 193.428 68.2667 194.028 68.3L194.428 67.5ZM229.605 55.3C229.605 53.2333 229.172 51.2667 228.305 49.4C227.472 47.5333 226.339 45.9 224.905 44.5C223.472 43.1 221.805 41.9833 219.905 41.15C218.039 40.3167 216.072 39.9 214.005 39.9C211.905 39.9 209.839 40.2167 207.805 40.85C205.805 41.4833 204.005 42.4167 202.405 43.65C200.839 44.85 199.555 46.3333 198.555 48.1C197.589 49.8667 197.105 51.8833 197.105 54.15C197.105 56.2167 197.555 58.15 198.455 59.95C199.355 61.7167 200.539 63.25 202.005 64.55C203.472 65.85 205.155 66.8833 207.055 67.65C208.989 68.3833 210.955 68.75 212.955 68.75C214.955 68.75 216.939 68.4667 218.905 67.9C220.905 67.3333 222.689 66.4833 224.255 65.35C225.855 64.2167 227.139 62.8167 228.105 61.15C229.105 59.45 229.605 57.5 229.605 55.3ZM225.155 55.2C225.155 56.9 224.889 58.4667 224.355 59.9C223.822 61.3 223.055 62.5167 222.055 63.55C221.089 64.55 219.905 65.3333 218.505 65.9C217.139 66.4333 215.605 66.7 213.905 66.7C212.072 66.7 210.405 66.35 208.905 65.65C207.405 64.9167 206.105 63.95 205.005 62.75C203.939 61.5167 203.105 60.1 202.505 58.5C201.905 56.9 201.605 55.2167 201.605 53.45C201.605 51.7167 201.889 50.1667 202.455 48.8C203.022 47.4 203.805 46.2167 204.805 45.25C205.839 44.25 207.055 43.4833 208.455 42.95C209.889 42.4167 211.439 42.15 213.105 42.15C214.905 42.15 216.539 42.5 218.005 43.2C219.505 43.9 220.772 44.85 221.805 46.05C222.872 47.25 223.689 48.65 224.255 50.25C224.855 51.8167 225.155 53.4667 225.155 55.2ZM265.215 41.8L265.015 40.95C263.815 40.8833 262.615 40.8333 261.415 40.8C260.215 40.7333 258.999 40.7167 257.765 40.75L255.965 40.8C255.699 40.8 255.515 40.9 255.415 41.1C255.315 41.3 255.382 41.45 255.615 41.55C256.015 41.7833 256.532 41.9333 257.165 42C257.399 42.0333 257.632 42.0833 257.865 42.15C258.099 42.1833 258.315 42.2833 258.515 42.45C258.715 42.5833 258.882 42.8167 259.015 43.15C259.149 43.45 259.215 43.8667 259.215 44.4V47.45C259.215 47.9833 259.199 48.5 259.165 49C259.165 49.5 259.165 50.0167 259.165 50.55C259.165 51.3833 259.182 52.2667 259.215 53.2C259.249 54.1333 259.299 55.0167 259.365 55.85C259.399 56.8833 259.432 57.9 259.465 58.9C259.499 59.8667 259.499 60.8667 259.465 61.9C255.732 58.2333 251.982 54.6167 248.215 51.05C244.449 47.45 240.649 43.8833 236.815 40.35C236.749 40.2833 236.632 40.25 236.465 40.25C236.332 40.2167 236.215 40.2333 236.115 40.3C235.949 40.4333 235.782 40.6 235.615 40.8C235.449 40.9667 235.365 41.1833 235.365 41.45V65.05C235.365 65.7167 235.165 66.2333 234.765 66.6C234.365 66.9333 233.882 67.0667 233.315 67H232.715C232.415 67 232.232 67.1333 232.165 67.4C232.132 67.6667 232.265 67.8333 232.565 67.9C233.265 68.0667 233.982 68.1667 234.715 68.2C235.482 68.2333 236.249 68.25 237.015 68.25H238.765C239.332 68.25 239.915 68.25 240.515 68.25C241.115 68.2167 241.699 68.2167 242.265 68.25C242.565 68.25 242.765 68.15 242.865 67.95C242.965 67.75 242.882 67.5833 242.615 67.45C242.315 67.2167 241.999 67.0833 241.665 67.05C241.332 66.9833 241.015 66.9167 240.715 66.85C240.482 66.8167 240.249 66.7667 240.015 66.7C239.815 66.6333 239.615 66.5167 239.415 66.35C239.249 66.1833 239.115 65.9333 239.015 65.6C238.915 65.2333 238.865 64.7667 238.865 64.2C238.865 62.9333 238.849 61.6833 238.815 60.45C238.782 59.2167 238.732 57.9833 238.665 56.75C238.599 55.4833 238.532 54.2333 238.465 53C238.432 51.7667 238.415 50.5167 238.415 49.25C238.415 48.9167 238.415 48.6 238.415 48.3C238.415 48 238.432 47.7 238.465 47.4L241.065 49.95H241.015C244.215 53.1833 247.465 56.4 250.765 59.6C254.099 62.7667 257.632 65.75 261.365 68.55C261.565 68.65 261.765 68.6833 261.965 68.65C262.165 68.5833 262.282 68.45 262.315 68.25C262.515 66.15 262.649 64.0667 262.715 62C262.782 59.9 262.815 57.7833 262.815 55.65C262.815 54.7167 262.799 53.6833 262.765 52.55C262.765 51.3833 262.765 50.3167 262.765 49.35C262.732 48.3167 262.715 47.3 262.715 46.3C262.715 45.2667 262.715 44.2167 262.715 43.15C262.715 42.7833 262.915 42.5167 263.315 42.35C263.715 42.1833 264.115 42.05 264.515 41.95H264.465C264.665 41.8833 264.832 41.85 264.965 41.85C265.132 41.8167 265.215 41.8 265.215 41.8ZM286.852 63.25C286.885 63.15 286.835 63.0667 286.702 63C286.602 62.9 286.485 62.85 286.352 62.85C286.218 62.8167 286.085 62.8333 285.952 62.9C285.818 62.9333 285.735 63 285.702 63.1C285.402 64.2667 284.802 65.1167 283.902 65.65C283.002 66.15 282.018 66.4 280.952 66.4C280.085 66.4 279.168 66.2333 278.202 65.9C277.235 65.5667 276.485 65.0333 275.952 64.3V54.6H276.602C277.002 54.6 277.502 54.6 278.102 54.6C278.702 54.6 279.302 54.6167 279.902 54.65C280.535 54.6833 281.102 54.75 281.602 54.85C282.102 54.9167 282.435 55.0167 282.602 55.15C282.702 55.2167 282.802 55.3833 282.902 55.65C283.035 55.9167 283.152 56.2 283.252 56.5C283.285 56.6667 283.285 56.8 283.252 56.9C283.252 56.9667 283.452 57.1167 283.852 57.35C284.018 57.4833 284.202 57.5167 284.402 57.45C284.602 57.3833 284.718 57.2667 284.752 57.1C284.818 56.6333 284.885 56.2 284.952 55.8C285.018 55.4 285.085 55 285.152 54.6C285.218 54.1667 285.268 53.65 285.302 53.05C285.368 52.45 285.435 51.9333 285.502 51.5C285.535 51.3333 285.468 51.2 285.302 51.1C285.168 50.9667 284.985 50.9333 284.752 51C284.552 51.0667 284.335 51.2167 284.102 51.45C283.902 51.6833 283.668 51.8667 283.402 52H283.452C283.152 52.1 282.868 52.2167 282.602 52.35C282.335 52.45 282.118 52.5 281.952 52.5H275.952V42.95H276.852C277.118 42.95 277.385 42.95 277.652 42.95C277.918 42.9167 278.168 42.9 278.402 42.9C278.668 42.9 278.918 42.9 279.152 42.9C279.418 42.8667 279.685 42.85 279.952 42.85C280.418 42.85 280.885 42.8833 281.352 42.95C281.818 43.0167 282.235 43.15 282.602 43.35C282.968 43.5167 283.268 43.7667 283.502 44.1C283.735 44.4333 283.868 44.8833 283.902 45.45C283.935 45.7167 284.118 45.85 284.452 45.85C284.785 45.85 284.985 45.7333 285.052 45.5C285.118 45.3 285.168 45.1 285.202 44.9C285.235 44.7 285.285 44.4833 285.352 44.25C285.485 43.7167 285.618 43.1833 285.752 42.65C285.885 42.1167 285.985 41.5333 286.052 40.9C286.085 40.7333 286.018 40.6 285.852 40.5C285.685 40.4 285.485 40.3833 285.252 40.45C284.785 40.6167 283.868 40.7333 282.502 40.8C281.135 40.8667 279.618 40.9 277.952 40.9C276.785 40.9 275.635 40.9 274.502 40.9C273.368 40.8667 272.318 40.8333 271.352 40.8C270.752 40.8 270.202 40.8 269.702 40.8C269.235 40.7667 268.852 40.75 268.552 40.75C268.252 40.75 268.052 40.85 267.952 41.05C267.852 41.25 267.935 41.4167 268.202 41.55C268.468 41.7167 268.735 41.8333 269.002 41.9C269.302 41.9667 269.585 42.0333 269.852 42.1C270.218 42.1667 270.552 42.3 270.852 42.5C271.185 42.6667 271.352 43.0333 271.352 43.6V64.1C271.352 65 271.202 65.7333 270.902 66.3C270.602 66.8333 269.985 67.1167 269.052 67.15C268.752 67.15 268.585 67.3 268.552 67.6C268.552 67.8667 268.702 68.0167 269.002 68.05C270.168 68.1167 271.352 68.15 272.552 68.15C273.752 68.1167 274.952 68.1 276.152 68.1C276.685 68.1 277.218 68.1 277.752 68.1C278.285 68.0667 278.818 68.05 279.352 68.05C279.585 68.05 279.985 68.0667 280.552 68.1C281.152 68.1 281.768 68.1167 282.402 68.15C283.068 68.15 283.685 68.15 284.252 68.15C284.818 68.15 285.202 68.1167 285.402 68.05L285.802 67.85L286.852 63.25ZM305.745 60.9C305.745 60.0333 305.545 59.2167 305.145 58.45C304.745 57.6833 304.229 56.95 303.595 56.25C302.962 55.55 302.245 54.9 301.445 54.3C300.645 53.6667 299.862 53.05 299.095 52.45C298.495 51.9833 297.879 51.5 297.245 51C296.612 50.5 296.029 49.9833 295.495 49.45C294.995 48.8833 294.579 48.3167 294.245 47.75C293.945 47.1833 293.795 46.6167 293.795 46.05C293.795 45.4167 293.929 44.85 294.195 44.35C294.462 43.85 294.812 43.4333 295.245 43.1C295.679 42.7667 296.162 42.5167 296.695 42.35C297.262 42.15 297.829 42.05 298.395 42.05C298.962 42.05 299.512 42.1333 300.045 42.3C300.612 42.4667 301.112 42.7167 301.545 43.05C302.012 43.3833 302.379 43.7833 302.645 44.25C302.945 44.7167 303.095 45.2667 303.095 45.9C303.095 46.1333 303.212 46.2833 303.445 46.35C303.712 46.4167 303.945 46.3667 304.145 46.2C304.545 45.7667 304.762 45.2167 304.795 44.55C304.862 43.85 304.895 43.1667 304.895 42.5V41.1C304.962 40.8333 304.812 40.6667 304.445 40.6C303.079 40.3 301.679 40.15 300.245 40.15C299.345 40.15 298.262 40.2667 296.995 40.5C295.762 40.7 294.579 41.05 293.445 41.55C292.312 42.05 291.345 42.7167 290.545 43.55C289.779 44.3833 289.395 45.4167 289.395 46.65C289.395 47.4167 289.579 48.1667 289.945 48.9C290.345 49.6 290.862 50.3167 291.495 51.05C292.129 51.75 292.829 52.45 293.595 53.15C294.395 53.85 295.195 54.5333 295.995 55.2C296.695 55.8 297.379 56.4 298.045 57C298.745 57.6 299.362 58.2167 299.895 58.85C300.462 59.4833 300.912 60.1 301.245 60.7C301.612 61.3 301.795 61.9 301.795 62.5C301.795 63.1667 301.612 63.75 301.245 64.25C300.879 64.75 300.412 65.1667 299.845 65.5C299.279 65.8333 298.662 66.1 297.995 66.3C297.362 66.4667 296.779 66.55 296.245 66.55C295.612 66.55 294.962 66.4667 294.295 66.3C293.662 66.1333 293.079 65.8833 292.545 65.55C292.012 65.1833 291.579 64.75 291.245 64.25C290.945 63.7167 290.829 63.1 290.895 62.4V61.8C290.895 61.6667 290.829 61.5667 290.695 61.5C290.595 61.4333 290.479 61.4 290.345 61.4C290.212 61.4 290.079 61.4333 289.945 61.5C289.812 61.5333 289.745 61.6167 289.745 61.75C289.712 62.3167 289.612 62.7833 289.445 63.15C289.312 63.5167 289.195 63.8833 289.095 64.25C289.029 64.5833 288.995 64.9167 288.995 65.25C288.995 65.95 289.179 66.5333 289.545 67C289.945 67.4333 290.412 67.7833 290.945 68.05C291.512 68.3167 292.112 68.5 292.745 68.6C293.379 68.7 293.962 68.75 294.495 68.75C295.562 68.75 296.745 68.5833 298.045 68.25C299.379 67.8833 300.612 67.3667 301.745 66.7C302.879 66.0333 303.829 65.2167 304.595 64.25C305.362 63.2833 305.745 62.1667 305.745 60.9Z" fill="black"/>
<path d="M336.258 53.5069C329.233 53.5069 323.539 45.5595 323.539 35.7534C323.539 25.9474 329.233 18 336.258 18C343.284 18 348.977 25.9474 348.977 35.7534C348.977 45.5595 343.284 53.5069 336.258 53.5069ZM331.717 60.1644H340.8C341.972 60.1644 343.125 60.3309 344.228 60.6221C344.019 63.1881 344.963 65.5598 346.394 66.8359C344.744 68.3061 343.741 71.2187 344.407 74.2285C344.804 76.0177 345.341 77.7653 346.036 79.4436C346.732 81.1218 347.547 82.6475 348.461 84.0206C350.021 86.3646 352.396 86.5727 354.145 85.2273V85.3521C354.145 86.6282 354.413 87.9181 354.93 88.9999H316.951C315.322 89.0138 314 87.1691 314 84.8944C314 71.2326 321.93 60.1644 331.717 60.1644ZM357.324 48.2641C357.324 47.2932 357.772 46.4194 358.447 46.2113C359.491 45.8785 360.584 45.6982 361.697 45.6982C362.809 45.6982 363.903 45.8785 364.946 46.2113C365.622 46.4194 366.069 47.2932 366.069 48.2641V52.5083C366.854 52.9798 367.599 53.5762 368.285 54.2836L370.759 52.3002C371.365 51.8148 372.12 51.9257 372.597 52.6331C373.352 53.7566 374.018 55.0187 374.595 56.4057C375.171 57.7927 375.618 59.2352 375.936 60.7054C376.145 61.6346 375.827 62.6055 375.221 63.091L372.736 65.0882C372.776 65.643 372.806 66.2117 372.806 66.7942C372.806 67.3768 372.786 67.9316 372.736 68.5002L375.221 70.4975C375.827 70.9829 376.135 71.9538 375.936 72.8831C375.608 74.3533 375.161 75.7958 374.595 77.1828C374.028 78.5698 373.352 79.8319 372.597 80.9554C372.12 81.6628 371.355 81.7737 370.759 81.2883L368.285 79.3049C367.599 80.0122 366.864 80.6086 366.069 81.0802V85.3244C366.069 86.2953 365.622 87.1691 364.946 87.3771C363.903 87.71 362.809 87.8903 361.697 87.8903C360.584 87.8903 359.491 87.71 358.447 87.3771C357.772 87.1691 357.324 86.2953 357.324 85.3244V81.0802C356.529 80.6086 355.774 80.0122 355.089 79.291L352.634 81.2744C352.028 81.7598 351.273 81.6489 350.796 80.9415C350.041 79.8181 349.375 78.5559 348.799 77.1689C348.222 75.7819 347.775 74.3395 347.457 72.8693C347.248 71.94 347.566 70.9691 348.173 70.4836L350.637 68.5002C350.597 67.9316 350.567 67.3629 350.567 66.7804C350.567 66.1978 350.587 65.6292 350.637 65.0605L348.163 63.0771C347.557 62.5917 347.248 61.6208 347.447 60.6915C347.775 59.2213 348.212 57.7788 348.789 56.3918C349.365 55.0048 350.031 53.7427 350.786 52.6192C351.263 51.9119 352.018 51.8009 352.624 52.2863L355.089 54.2697C355.774 53.5624 356.529 52.966 357.324 52.4805V48.2641ZM366.476 66.7804C366.476 63.1049 364.34 60.1228 361.697 60.1228C359.053 60.1228 356.917 63.1049 356.917 66.7804C356.917 70.4559 359.053 73.4379 361.697 73.4379C364.34 73.4379 366.476 70.4559 366.476 66.7804Z" fill="black"/>
</svg>
