<svg width="453" height="107" viewBox="0 0 453 107" fill="none" xmlns="http://www.w3.org/2000/svg">
<path fill-rule="evenodd" clip-rule="evenodd" d="M56.8365 1C56.4965 1.55 56.7215 2 57.3363 2C57.9512 2 58.1881 2.43 57.8632 2.956C57.5383 3.482 56.7245 3.705 56.0546 3.45C55.3848 3.196 53.1323 4.509 51.0488 6.367C47.6026 9.441 47.4446 9.794 49.2992 10.28C50.4199 10.573 51.3377 10.405 51.3377 9.906C51.3377 8.339 53.1823 8.917 55.2458 11.132C57.2294 13.262 57.2294 13.266 55.0349 15.06C52.8874 16.815 52.7754 16.788 50.095 13.874C46.8368 10.331 46.9178 10.298 37.455 19.165C30.3106 25.861 28.741 27.928 32.2112 26.07C33.2379 25.52 34.4247 25.392 34.8466 25.785C35.2695 26.178 35.4024 25.825 35.1415 25C34.8366 24.034 35.7594 23.038 37.7349 22.201C39.9784 21.251 40.4423 20.681 39.4645 20.076C38.3807 19.407 38.3717 19.099 39.4155 18.453C40.9891 17.481 52.3375 17.162 52.3375 18.091C52.3375 19.453 49.1812 21.366 48.5124 20.408C47.7786 19.359 42.7947 19.212 41.796 20.21C40.8622 21.145 43.2976 25.144 44.3894 24.469C46.2619 23.312 45.2931 25.694 43.0257 27.826C40.7032 30.007 38.7407 30.78 39.7754 29.105C40.0803 28.612 39.7004 27.968 38.9316 27.673C37.267 27.034 33.3419 27.931 33.3419 28.95C33.3419 30.479 34.7206 30.93 36.0413 29.834C37.084 28.968 37.7099 28.969 38.5767 29.836C39.4445 30.704 39.0416 31.702 36.9401 33.897C34.6586 36.279 33.6718 36.669 31.4983 36.048C28.3311 35.144 23.9291 36.243 26.6045 37.27C27.4933 37.611 29.4458 37.668 30.9445 37.396C33.3289 36.963 33.5059 37.097 32.3641 38.473C31.6343 39.354 30.2796 39.797 29.2859 39.482C28.3101 39.172 27.1753 39.463 26.7634 40.129C26.2486 40.962 26.5345 41.141 27.6792 40.701C30.4866 39.624 29.5498 41.381 24.8649 45.979C22.4015 48.397 20.5629 50.551 20.7778 50.766C20.9928 50.981 30.1077 42.125 41.0341 31.086L60.8995 11.015L123.853 10.75L186.806 10.485L123.271 10.242C82.0196 10.085 59.3149 10.351 58.5361 11C57.6843 11.71 57.6083 11.67 58.2751 10.861C58.899 10.104 58.5101 9.151 57.1134 8.02C55.6607 6.844 55.3708 6.097 56.1746 5.6C56.8135 5.205 57.3363 5.319 57.3363 5.853C57.3363 6.386 59.5828 6.708 62.3282 6.568C66.4102 6.36 67.1161 6.558 66.2043 7.657C65.2735 8.778 74.4924 9 122.115 9C158.466 9 179.262 8.645 179.475 8.02C179.99 6.504 191.56 6.264 192.058 7.759C192.597 9.375 196.966 9.368 197.721 7.75C198.187 6.75 198.421 6.75 198.886 7.75C199.207 8.438 200.643 9 202.077 9C204.6 9 204.622 8.95 202.744 7.448C200.88 5.958 200.902 5.924 203.302 6.583C204.677 6.961 206.027 7.546 206.302 7.885C207.13 8.903 212.392 8.958 211.764 7.941C211.443 7.42 212.771 7 214.741 7C216.697 7 218.299 7.45 218.299 8C218.299 8.55 220.211 8.936 222.548 8.858L226.797 8.716L222.798 8.006C219.137 7.356 232.275 7.436 251.291 8.178C255.415 8.34 259.914 8.111 261.289 7.67C263.16 7.071 263.411 7.133 262.289 7.919C261.234 8.658 276.367 8.924 313.277 8.817C342.145 8.733 363.065 8.365 359.766 8L353.767 7.336L360.516 7.168C364.46 7.07 367.264 7.415 367.264 8C367.264 9.466 369.188 9.219 370.87 7.537C372.868 5.537 381.818 5.624 380.155 7.627C379.228 8.746 379.733 9.045 382.889 9.241C385.017 9.374 349.194 9.716 303.279 10L219.799 10.517L305.288 10.759L390.777 11L411.254 31.5C427.986 48.251 431.288 52 429.303 52C427.476 52 422.214 47.29 408.074 33L389.273 14H226.044H62.8151L43.8295 33.036C28.68 48.225 24.339 52.043 22.3445 51.93C20.9698 51.852 19.3992 51.836 18.8543 51.894C18.3094 51.952 27.5283 61.675 39.3405 73.5L60.8185 95H225.974H391.13L412.125 73.775C427.421 58.312 432.848 52.221 432.115 51.339C431.437 50.522 431.476 49.375 432.235 47.814C433.241 45.744 433.211 45.684 431.951 47.241C430.622 48.884 430.438 48.866 428.681 46.924L426.819 44.866L435.078 45.282L443.337 45.699L439.773 42.76C436.711 40.236 435.295 39.799 429.729 39.661C426.166 39.572 423.126 39.872 422.975 40.327C422.824 40.781 421.878 40.244 420.871 39.132C419.047 37.116 419.063 37.112 426.862 37.668C433.542 38.144 434.509 38.018 433.502 36.805C432.404 35.482 425.097 35.255 420.091 36.39C419.14 36.605 416.847 35.144 414.725 32.971L411.019 29.175L418.885 29.696C425.043 30.103 426.499 29.952 425.592 28.999C424.472 27.823 413.055 27.387 411.328 28.454C410.884 28.728 409.751 28.102 408.81 27.061C406.959 25.016 407.15 25.005 419.14 26.497L422.527 26.919L416.641 21.357C413.403 18.298 407 12.241 402.412 7.898L394.07 0H225.762C114.635 0 57.2444 0.34 56.8365 1ZM65.8344 3C66.1863 3.569 65.3255 4 63.8348 4C62.3442 4 61.4834 3.569 61.8353 3C62.1752 2.45 63.075 2 63.8348 2C64.5947 2 65.4944 2.45 65.8344 3ZM226.297 3C226.297 3.55 225.82 4 225.238 4C224.656 4 224.458 3.55 224.797 3C225.137 2.45 225.613 2 225.856 2C226.099 2 226.297 2.45 226.297 3ZM378.262 3C378.262 3.55 377.56 4 376.703 4C375.846 4 375.422 3.55 375.762 3C376.102 2.45 376.803 2 377.321 2C377.839 2 378.262 2.45 378.262 3ZM385.26 3C386.425 3.753 386.132 3.973 383.951 3.985C382.331 3.994 381.404 3.577 381.761 3C382.528 1.758 383.34 1.758 385.26 3ZM389.094 7.123C388.36 7.589 386.635 7.962 385.26 7.953C382.938 7.938 382.888 7.84 384.556 6.574C385.545 5.825 387.27 5.451 388.39 5.745C389.946 6.151 390.112 6.478 389.094 7.123ZM54.337 7C54.337 7.55 53.8871 8 53.3373 8C52.7874 8 52.3375 7.55 52.3375 7C52.3375 6.45 52.7874 6 53.3373 6C53.8871 6 54.337 6.45 54.337 7ZM258.019 6.604C257.687 6.936 256.824 6.972 256.103 6.683C255.305 6.364 255.542 6.127 256.707 6.079C257.761 6.036 258.351 6.272 258.019 6.604ZM284.358 7.772C274.776 7.924 266.587 7.7 266.16 7.274C265.733 6.848 273.572 6.724 283.582 6.998L301.78 7.495L284.358 7.772ZM331.273 7C332.445 7.758 332.187 7.973 330.082 7.985C328.602 7.993 327.114 7.55 326.774 7C325.985 5.723 329.297 5.723 331.273 7ZM395.258 7.545C395.258 7.727 394.389 7.81 393.327 7.73C392.266 7.65 391.606 7.248 391.86 6.836C392.283 6.153 395.258 6.773 395.258 7.545ZM59.3359 8C59.3359 8.55 60.5726 8.968 62.0852 8.93C64.5217 8.867 64.6067 8.762 62.8351 8C60.1047 6.826 59.3359 6.826 59.3359 8ZM72.6018 7.656C71.9249 7.93 70.5753 7.947 69.6025 7.693C68.6297 7.439 69.1836 7.215 70.8332 7.195C72.4828 7.175 73.2786 7.382 72.6018 7.656ZM82.0596 7.604C81.7277 7.936 80.8649 7.972 80.144 7.683C79.3462 7.364 79.5832 7.127 80.7479 7.079C81.8017 7.036 82.3915 7.272 82.0596 7.604ZM90.0907 7.687C89.135 7.937 87.3354 7.946 86.0917 7.707C84.8479 7.468 85.6298 7.263 87.8293 7.252C90.0287 7.241 91.0465 7.437 90.0907 7.687ZM105.589 7.704C104.359 7.941 102.11 7.947 100.59 7.718C99.0706 7.488 100.076 7.294 102.826 7.286C105.575 7.279 106.819 7.467 105.589 7.704ZM112.053 7.604C111.721 7.936 110.858 7.972 110.137 7.683C109.339 7.364 109.576 7.127 110.741 7.079C111.795 7.036 112.385 7.272 112.053 7.604ZM128.07 7.716C126.558 7.945 124.083 7.945 122.571 7.716C121.06 7.487 122.296 7.3 125.321 7.3C128.345 7.3 129.582 7.487 128.07 7.716ZM144.566 7.706C143.328 7.944 141.305 7.944 140.067 7.706C138.829 7.467 139.842 7.272 142.317 7.272C144.791 7.272 145.804 7.467 144.566 7.706ZM173.098 7.738C169.958 7.936 164.559 7.937 161.101 7.741C157.643 7.546 160.212 7.384 166.811 7.382C173.409 7.38 176.239 7.54 173.098 7.738ZM186.306 8C186.306 8.55 186.783 9 187.365 9C187.947 9 188.146 8.55 187.806 8C187.466 7.45 186.99 7 186.747 7C186.504 7 186.306 7.45 186.306 8ZM248.021 7.604C247.689 7.936 246.826 7.972 246.105 7.683C245.308 7.364 245.545 7.127 246.709 7.079C247.763 7.036 248.353 7.272 248.021 7.604ZM318.526 7.732C316.189 7.943 312.364 7.943 310.028 7.732C307.691 7.522 309.603 7.349 314.277 7.349C318.951 7.349 320.862 7.522 318.526 7.732ZM336.001 7.604C335.669 7.936 334.806 7.972 334.085 7.683C333.287 7.364 333.524 7.127 334.689 7.079C335.743 7.036 336.333 7.272 336.001 7.604ZM342.539 7.656C341.862 7.93 340.513 7.947 339.54 7.693C338.567 7.439 339.121 7.215 340.771 7.195C342.42 7.175 343.216 7.382 342.539 7.656ZM352.03 7.687C351.074 7.937 349.275 7.946 348.031 7.707C346.787 7.468 347.569 7.263 349.768 7.252C351.968 7.241 352.986 7.437 352.03 7.687ZM374.263 8C374.263 8.55 374.713 9 375.263 9C375.812 9 376.262 8.55 376.262 8C376.262 7.45 375.812 7 375.263 7C374.713 7 374.263 7.45 374.263 8ZM183.12 8.683C183.841 8.972 184.704 8.936 185.036 8.604C185.368 8.272 184.778 8.036 183.724 8.079C182.559 8.127 182.322 8.364 183.12 8.683ZM229.058 8.707C230.302 8.946 232.102 8.937 233.058 8.687C234.013 8.437 232.996 8.241 230.796 8.252C228.597 8.263 227.815 8.468 229.058 8.707ZM188.119 10.683C188.84 10.972 189.703 10.936 190.035 10.604C190.366 10.272 189.777 10.036 188.723 10.079C187.558 10.127 187.321 10.364 188.119 10.683ZM192.118 10.683C192.839 10.972 193.702 10.936 194.034 10.604C194.366 10.272 193.776 10.036 192.722 10.079C191.557 10.127 191.32 10.364 192.118 10.683ZM196.054 10.662C196.742 10.94 197.867 10.94 198.554 10.662C199.241 10.385 198.679 10.158 197.304 10.158C195.929 10.158 195.367 10.385 196.054 10.662ZM202.572 10.693C203.544 10.947 204.894 10.93 205.571 10.656C206.248 10.382 205.452 10.175 203.802 10.195C202.153 10.215 201.599 10.439 202.572 10.693ZM214.569 10.693C215.542 10.947 216.891 10.93 217.568 10.656C218.245 10.382 217.449 10.175 215.8 10.195C214.15 10.215 213.596 10.439 214.569 10.693ZM398.766 11.015C399.101 11.557 398.336 12.014 397.066 12.032C394.834 12.063 394.821 12.111 396.676 13.515C398.208 14.675 398.893 14.719 400.089 13.733C401.388 12.661 401.427 12.794 400.386 14.75C398.971 17.404 399.865 17.665 402.427 15.345C403.433 14.435 404.256 14.162 404.256 14.738C404.256 15.314 403.581 16.045 402.756 16.362C399.838 17.482 401.31 18.548 405.256 18.171C407.739 17.935 409.255 18.209 409.255 18.895C409.255 19.503 407.819 20 406.064 20C403.157 20 403.036 20.119 404.701 21.336C405.817 22.153 408.179 22.507 410.776 22.248C413.114 22.015 415.306 22.276 415.648 22.829C416.029 23.447 414.943 23.73 412.836 23.563C410.948 23.413 408.807 23.661 408.079 24.113C407.167 24.68 404.654 22.853 400.007 18.245C396.296 14.565 393.258 11.302 393.258 10.995C393.258 9.988 398.143 10.006 398.766 11.015ZM403.756 11C404.096 11.55 403.897 12 403.315 12C402.733 12 402.256 11.55 402.256 11C402.256 10.45 402.454 10 402.697 10C402.94 10 403.416 10.45 403.756 11ZM51.2478 13.111C52.8904 14.453 53.9831 14.754 54.68 14.057C56.0456 12.691 55.0009 11.796 51.6207 11.437L48.8383 11.142L51.2478 13.111ZM202.489 12.748C211.663 12.913 226.96 12.913 236.481 12.749C246.002 12.584 238.494 12.449 219.799 12.449C201.103 12.449 193.314 12.583 202.489 12.748ZM47.3477 15.489C46.099 16.994 44.3394 16.673 44.3394 14.941C44.3394 14.423 45.2941 14 46.4609 14C48.2275 14 48.3764 14.25 47.3477 15.489ZM7.34795 16.044C7.34795 17.34 12.4448 37.196 12.9457 37.85C13.0926 38.043 13.6495 37.931 14.1824 37.601C14.7932 37.224 14.6842 35.43 13.8904 32.751C11.8489 25.87 11.0931 20.725 12.2278 21.426C12.7817 21.769 16.4098 22.079 20.2889 22.115C24.169 22.152 27.3433 22.619 27.3433 23.154C27.3433 23.688 26.5555 24.046 25.5937 23.948C24.6319 23.85 23.3942 23.863 22.8444 23.978C22.2945 24.092 19.932 24.11 17.5956 24.017C14.9462 23.912 13.3466 24.285 13.3466 25.007C13.3466 25.789 15.0982 26.04 18.7373 25.781C22.8663 25.487 24.0121 25.702 23.6292 26.699C23.3552 27.414 21.9985 28 20.6159 28C18.4564 28 18.2824 28.22 19.3872 29.551C20.4739 30.86 20.3379 31.189 18.5094 31.667C16.6158 32.163 15.3661 34 16.9237 34C17.7755 34 32.3421 20.777 32.3421 20.004C32.3421 19.642 27.2813 18.772 21.0948 18.071C14.9092 17.37 9.2855 16.337 8.59766 15.776C7.71687 15.056 7.34795 15.135 7.34795 16.044ZM440.892 17.766C440.586 18.261 435.834 19.239 430.332 19.941L420.327 21.216L426.038 26.358C429.179 29.186 432.984 32.782 434.492 34.349C437.618 37.595 437.275 38.083 440.259 26.134C442.147 18.576 442.392 15.339 440.892 17.766ZM17.2626 19.644C17.4916 19.84 16.0289 20 14.0134 20C11.9969 20 10.3473 19.561 10.3473 19.025C10.3473 18.164 16.1379 18.682 17.2626 19.644ZM439.248 21C439.248 21.55 438.236 21.968 436.998 21.93C434.852 21.863 434.841 21.82 436.748 21C437.848 20.527 438.861 20.109 438.998 20.07C439.135 20.032 439.248 20.45 439.248 21ZM48.1405 22.531C47.0587 23.614 43.3396 23.849 43.3396 22.836C43.3396 22.258 44.0004 22.04 44.8073 22.349C45.6141 22.659 46.5588 22.452 46.9068 21.89C47.2547 21.327 47.7936 21.122 48.1055 21.433C48.4164 21.745 48.4324 22.239 48.1405 22.531ZM433.978 21.604C433.646 21.936 432.783 21.972 432.062 21.683C431.264 21.364 431.501 21.127 432.666 21.079C433.72 21.036 434.31 21.272 433.978 21.604ZM37.8869 23.925C37.5709 24.437 38.2518 25.154 39.4015 25.519C42.2388 26.42 42.9917 25.419 40.4863 24.078C39.2685 23.426 38.2328 23.365 37.8869 23.925ZM437.852 25.589C437.584 26.287 437.065 28.461 436.697 30.42C436.329 32.379 435.648 33.747 435.183 33.459C434.717 33.171 434.59 32.275 434.9 31.468C435.282 30.472 434.805 30 433.415 30C432.289 30 431.09 29.55 430.75 29C430.389 28.417 431.405 28 433.19 28C434.872 28 436.248 27.55 436.248 27C436.248 26.45 434.197 26 431.69 26C428.859 26 427.37 25.615 427.76 24.984C428.719 23.432 438.456 24.016 437.852 25.589ZM27.3433 28.5C26.2916 29.767 26.4965 30 28.662 30C31.6793 30 33.015 28.472 30.7545 27.605C28.672 26.805 28.771 26.779 27.3433 28.5ZM15.1591 28.683C15.88 28.972 16.7428 28.936 17.0747 28.604C17.4066 28.272 16.8168 28.036 15.763 28.079C14.5983 28.127 14.3613 28.364 15.1591 28.683ZM415.783 30.951C414.54 32.963 416.226 33.699 422.047 33.685C425.271 33.677 428.435 33.996 429.079 34.394C429.723 34.792 430.25 34.664 430.25 34.109C430.25 32.297 426.998 31.224 423.095 31.748C420.874 32.046 418.676 31.767 417.852 31.082C416.882 30.277 416.225 30.235 415.783 30.951ZM20.9278 34.542C17.1857 37.847 17.5566 38.843 21.8446 37C23.2133 36.412 23.3712 36.106 22.3445 36.03C21.4667 35.966 21.9856 35.301 23.5942 34.428C25.1068 33.607 26.3435 32.5 26.3435 31.968C26.3435 30.312 24.9869 30.957 20.9278 34.542ZM31.3424 31.858C31.3424 33.759 34.7106 34.057 36.2692 32.294C37.133 31.315 37.21 31.053 36.4382 31.71C35.4664 32.538 34.4667 32.602 33.189 31.918C32.0962 31.333 31.3424 31.309 31.3424 31.858ZM14.4173 40.415C13.6865 41.295 14.8182 41.585 18.8923 41.562C21.8906 41.545 24.344 41.187 24.344 40.766C24.344 40.344 23.7821 39.971 23.0943 39.936C22.4075 39.901 20.3929 39.729 18.6193 39.554C16.8457 39.379 14.9552 39.767 14.4173 40.415ZM438.244 42.596C439.034 43.386 437.761 43.74 433.649 43.874C430.521 43.977 427.637 44.261 427.239 44.507C426.843 44.752 425.753 44.108 424.819 43.075C423.17 41.253 423.33 41.201 430.136 41.35C433.995 41.435 437.644 41.996 438.244 42.596ZM10.7742 44.479C9.7144 45.28 9.2975 45.944 9.84737 45.953C11.333 45.977 13.8724 44.192 13.2446 43.565C12.9456 43.265 11.8339 43.677 10.7742 44.479ZM15.0502 44.204C14.3283 44.663 14.9702 44.975 16.6548 44.985C18.6333 44.995 19.2412 45.369 18.7123 46.25C18.1774 47.141 18.4344 47.117 19.6091 46.164C20.5159 45.429 21.6956 45.099 22.2315 45.43C22.7674 45.762 23.4592 45.622 23.7691 45.121C24.474 43.98 16.6898 43.162 15.0502 44.204ZM68.3998 47.035C70.9272 48.389 70.8422 49.755 68.0838 52.056C65.3435 54.343 63.4629 54.498 62.6971 52.5C62.3802 51.675 61.4944 51 60.7286 51C58.893 51 58.97 50.062 60.9905 47.829C62.8461 45.778 65.5164 45.492 68.3998 47.035ZM391.608 48.178C392.435 49.5 392.138 50.289 390.209 51.895C387.272 54.339 385.674 54.522 384.898 52.5C384.582 51.675 383.635 51 382.792 51C380.81 51 380.856 50.104 382.96 47.78C385.021 45.502 390.078 45.734 391.608 48.178ZM6.34818 48.5C4.9975 50.128 5.32042 50.332 7.76585 49.393C8.63565 49.059 9.34749 48.384 9.34749 47.893C9.34749 46.51 7.72786 46.838 6.34818 48.5ZM437.05 48.128C437.434 48.474 439.924 48.985 442.584 49.265C446.101 49.635 447.12 49.474 446.32 48.674C445.715 48.069 443.225 47.557 440.786 47.537C438.347 47.517 436.665 47.783 437.05 48.128ZM12.1088 48.707C13.3526 48.946 15.1521 48.937 16.1079 48.687C17.0637 48.437 16.0459 48.241 13.8464 48.252C11.647 48.263 10.8651 48.468 12.1088 48.707ZM18.3454 49.059C18.3454 49.641 18.7953 49.84 19.3452 49.5C19.895 49.16 20.3449 48.684 20.3449 48.441C20.3449 48.198 19.895 48 19.3452 48C18.7953 48 18.3454 48.477 18.3454 49.059ZM433.749 49C434.089 49.55 434.565 50 434.808 50C435.051 50 435.249 49.55 435.249 49C435.249 48.45 434.772 48 434.19 48C433.608 48 433.409 48.45 433.749 49ZM5.11647 52.168C5.69833 52.75 6.76309 53.028 7.48492 52.788C8.23375 52.538 7.77985 52.085 6.42816 51.731C4.76555 51.296 4.37464 51.426 5.11647 52.168ZM446.238 52.107C445.112 52.88 445.36 52.973 447.246 52.486C449.074 52.014 447.331 54.211 440.747 60.672C431.367 69.877 406.038 93.689 398.257 100.616L393.758 104.621L225.703 104.55L57.6473 104.479L35.7474 83.9C2.92498 53.058 1.49131 51.785 0.11863 52.256C-0.621199 52.51 2.15916 55.822 6.79008 60.205L14.7312 67.718L12.4668 76.953C9.85637 87.6 10.0313 89.938 12.7327 80.503C14.6503 73.804 14.6633 73.797 19.3162 76.804C19.5751 76.972 19.1252 77.527 18.3164 78.039C17.2027 78.743 17.5216 78.973 19.6261 78.985C21.1947 78.993 22.6644 79.67 22.9973 80.537C23.3212 81.382 24.9939 82.823 26.7145 83.738L29.8427 85.402L25.3438 86.068C22.8693 86.435 18.2574 87.052 15.0962 87.439C11.593 87.869 9.34749 88.625 9.34749 89.375C9.34749 90.341 11.7639 90.312 20.5949 89.239C28.641 88.262 32.3361 88.176 33.5779 88.936C34.5326 89.521 35.9873 90 36.8101 90C37.6319 90 42.5308 93.825 47.6966 98.5L57.0874 107H226.205H395.323L403.038 99.515C413.73 89.144 417.504 87.764 431.064 89.269C436.631 89.887 441.501 90.08 441.884 89.696C443.205 88.375 442.195 88.126 428.5 86.39C425.614 86.024 423.251 85.337 423.251 84.862C423.251 84.388 423.678 84 424.199 84C424.721 84 426.362 82.875 427.845 81.5C429.328 80.125 431.361 79 432.364 79C433.495 79 433.987 78.481 433.661 77.631C433.35 76.821 433.97 76.045 435.181 75.728C436.865 75.287 437.432 75.882 438.397 79.103C440.193 85.102 440.471 83.06 438.821 75.983C437.872 71.913 437.676 69.07 438.268 67.963C438.773 67.02 442.349 63.193 446.216 59.459C450.083 55.724 453.134 52.582 452.995 52.475C451.768 51.528 447.427 51.291 446.238 52.107ZM439.061 52.683C439.782 52.972 440.644 52.936 440.976 52.604C441.308 52.272 440.718 52.036 439.665 52.079C438.5 52.127 438.263 52.364 439.061 52.683ZM442.247 53.059C442.247 53.641 442.697 53.84 443.247 53.5C443.797 53.16 444.246 52.684 444.246 52.441C444.246 52.198 443.797 52 443.247 52C442.697 52 442.247 52.477 442.247 53.059ZM439.517 56.693C440.489 56.947 441.839 56.93 442.516 56.656C443.193 56.382 442.397 56.175 440.747 56.195C439.098 56.215 438.544 56.439 439.517 56.693ZM440.326 85.583C440.374 86.748 440.611 86.985 440.93 86.188C441.219 85.466 441.183 84.603 440.851 84.271C440.519 83.939 440.283 84.529 440.326 85.583Z" fill="#FF0000"/>
<path d="M174.8 60.9C174.8 60.0333 174.6 59.2167 174.2 58.45C173.8 57.6833 173.283 56.95 172.65 56.25C172.017 55.55 171.3 54.9 170.5 54.3C169.7 53.6667 168.917 53.05 168.15 52.45C167.55 51.9833 166.933 51.5 166.3 51C165.667 50.5 165.083 49.9833 164.55 49.45C164.05 48.8833 163.633 48.3167 163.3 47.75C163 47.1833 162.85 46.6167 162.85 46.05C162.85 45.4167 162.983 44.85 163.25 44.35C163.517 43.85 163.867 43.4333 164.3 43.1C164.733 42.7667 165.217 42.5167 165.75 42.35C166.317 42.15 166.883 42.05 167.45 42.05C168.017 42.05 168.567 42.1333 169.1 42.3C169.667 42.4667 170.167 42.7167 170.6 43.05C171.067 43.3833 171.433 43.7833 171.7 44.25C172 44.7167 172.15 45.2667 172.15 45.9C172.15 46.1333 172.267 46.2833 172.5 46.35C172.767 46.4167 173 46.3667 173.2 46.2C173.6 45.7667 173.817 45.2167 173.85 44.55C173.917 43.85 173.95 43.1667 173.95 42.5V41.1C174.017 40.8333 173.867 40.6667 173.5 40.6C172.133 40.3 170.733 40.15 169.3 40.15C168.4 40.15 167.317 40.2667 166.05 40.5C164.817 40.7 163.633 41.05 162.5 41.55C161.367 42.05 160.4 42.7167 159.6 43.55C158.833 44.3833 158.45 45.4167 158.45 46.65C158.45 47.4167 158.633 48.1667 159 48.9C159.4 49.6 159.917 50.3167 160.55 51.05C161.183 51.75 161.883 52.45 162.65 53.15C163.45 53.85 164.25 54.5333 165.05 55.2C165.75 55.8 166.433 56.4 167.1 57C167.8 57.6 168.417 58.2167 168.95 58.85C169.517 59.4833 169.967 60.1 170.3 60.7C170.667 61.3 170.85 61.9 170.85 62.5C170.85 63.1667 170.667 63.75 170.3 64.25C169.933 64.75 169.467 65.1667 168.9 65.5C168.333 65.8333 167.717 66.1 167.05 66.3C166.417 66.4667 165.833 66.55 165.3 66.55C164.667 66.55 164.017 66.4667 163.35 66.3C162.717 66.1333 162.133 65.8833 161.6 65.55C161.067 65.1833 160.633 64.75 160.3 64.25C160 63.7167 159.883 63.1 159.95 62.4V61.8C159.95 61.6667 159.883 61.5667 159.75 61.5C159.65 61.4333 159.533 61.4 159.4 61.4C159.267 61.4 159.133 61.4333 159 61.5C158.867 61.5333 158.8 61.6167 158.8 61.75C158.767 62.3167 158.667 62.7833 158.5 63.15C158.367 63.5167 158.25 63.8833 158.15 64.25C158.083 64.5833 158.05 64.9167 158.05 65.25C158.05 65.95 158.233 66.5333 158.6 67C159 67.4333 159.467 67.7833 160 68.05C160.567 68.3167 161.167 68.5 161.8 68.6C162.433 68.7 163.017 68.75 163.55 68.75C164.617 68.75 165.8 68.5833 167.1 68.25C168.433 67.8833 169.667 67.3667 170.8 66.7C171.933 66.0333 172.883 65.2167 173.65 64.25C174.417 63.2833 174.8 62.1667 174.8 60.9ZM203.098 41.8V41C203.098 40.6333 202.881 40.4833 202.448 40.55C202.248 40.5833 202.064 40.6167 201.898 40.65C201.731 40.65 201.598 40.6833 201.498 40.75H201.548C201.281 40.8167 201.014 40.8833 200.748 40.95C200.481 41.0167 200.264 41.05 200.098 41.05H182.248C182.048 41.05 181.781 41.0333 181.448 41C181.148 40.9333 180.831 40.8667 180.498 40.8C180.164 40.7333 179.831 40.6667 179.498 40.6C179.198 40.5 178.981 40.4 178.848 40.3C178.681 40.2333 178.514 40.2333 178.348 40.3C178.181 40.3333 178.064 40.4333 177.998 40.6C177.931 40.8 177.864 41 177.798 41.2C177.764 41.4 177.714 41.5833 177.648 41.75C177.481 42.25 177.314 42.7833 177.148 43.35C176.981 43.9167 176.898 44.4167 176.898 44.85C176.898 45.1833 176.914 45.4 176.948 45.5C177.014 45.7 177.181 45.8167 177.448 45.85C177.714 45.8833 177.914 45.8 178.048 45.6C178.414 44.9333 178.898 44.3667 179.498 43.9C180.131 43.4333 180.814 43.2 181.548 43.2H187.898V64.25C187.898 64.85 187.864 65.3333 187.798 65.7C187.731 66.0333 187.614 66.3 187.448 66.5C187.281 66.7 187.031 66.85 186.698 66.95C186.364 67.0167 185.948 67.0833 185.448 67.15C185.148 67.2167 184.998 67.3833 184.998 67.65C185.031 67.9167 185.198 68.05 185.498 68.05C187.198 68.1167 188.881 68.1667 190.548 68.2C192.248 68.2333 193.948 68.25 195.648 68.25C195.914 68.25 196.098 68.1833 196.198 68.05C196.298 67.9167 196.298 67.7667 196.198 67.6C196.064 67.3333 195.831 67.1667 195.498 67.1C195.198 67.0333 194.864 66.9833 194.498 66.95C194.298 66.9167 194.048 66.8833 193.748 66.85C193.481 66.8167 193.281 66.7667 193.148 66.7H193.098C193.031 66.6667 192.964 66.5333 192.898 66.3C192.831 66.0333 192.764 65.75 192.698 65.45C192.664 65.1167 192.614 64.8167 192.548 64.55C192.514 64.25 192.498 64.05 192.498 63.95V43.25C192.731 43.3167 192.864 43.3333 192.898 43.3C192.964 43.2667 193.131 43.25 193.398 43.25C193.731 43.25 194.064 43.25 194.398 43.25C194.731 43.25 195.048 43.2333 195.348 43.2C195.648 43.1667 195.931 43.15 196.198 43.15C196.464 43.15 196.731 43.15 196.998 43.15C198.064 43.15 199.014 43.3167 199.848 43.65C200.714 43.95 201.264 44.6833 201.498 45.85C201.564 46.0833 201.748 46.2 202.048 46.2C202.381 46.2 202.581 46.0833 202.648 45.85C202.948 44.5167 203.098 43.1667 203.098 41.8ZM232.657 67.95V67.05C231.924 66.9833 231.207 66.8333 230.507 66.6C229.807 66.3667 229.257 65.8667 228.857 65.1C227.59 62.8 226.424 60.4333 225.357 58C224.324 55.5333 223.29 53.1 222.257 50.7L220.057 45.55V45.6C219.99 45.5 219.924 45.3667 219.857 45.2C219.79 45 219.707 44.7833 219.607 44.55V44.6C219.44 44.2333 219.257 43.8167 219.057 43.35C218.857 42.8833 218.64 42.45 218.407 42.05C218.174 41.6167 217.94 41.2333 217.707 40.9C217.474 40.5667 217.24 40.35 217.007 40.25C216.64 40.15 216.39 40.2167 216.257 40.45C215.257 42.7833 214.257 45.1167 213.257 47.45C212.29 49.7833 211.324 52.1333 210.357 54.5C209.69 56.1 208.99 57.75 208.257 59.45C207.557 61.1167 206.874 62.75 206.207 64.35C206.04 64.65 205.807 64.9833 205.507 65.35C205.24 65.7167 204.94 66.05 204.607 66.35C204.274 66.6167 203.924 66.8167 203.557 66.95C203.19 67.0833 202.84 67.1 202.507 67L202.307 67.9L211.107 68.05C211.44 68.05 211.607 67.9167 211.607 67.65C211.64 67.35 211.49 67.1833 211.157 67.15C210.824 67.0833 210.44 67 210.007 66.9C209.574 66.7667 209.357 66.5167 209.357 66.15C209.357 65.85 209.457 65.35 209.657 64.65C209.89 63.9167 210.174 63.1333 210.507 62.3C210.84 61.4667 211.174 60.6333 211.507 59.8C211.84 58.9667 212.14 58.2833 212.407 57.75H220.457C221.157 59.3167 221.824 60.8167 222.457 62.25C223.09 63.6833 223.74 65.1833 224.407 66.75L223.957 67.3C223.757 67.4667 223.69 67.6333 223.757 67.8C223.857 67.9667 224.04 68.05 224.307 68.05C224.907 68.0833 225.49 68.1167 226.057 68.15C226.624 68.15 227.207 68.15 227.807 68.15C228.64 68.15 229.457 68.1333 230.257 68.1C231.057 68.0667 231.857 68.0167 232.657 67.95ZM219.557 55.6H213.207C213.84 54.1 214.374 52.7 214.807 51.4C215.274 50.0667 215.79 48.6667 216.357 47.2L219.557 55.6ZM266.641 68.05L266.341 67.2C265.341 67.3333 264.341 67.1667 263.341 66.7C262.341 66.2 261.358 65.55 260.391 64.75C259.425 63.95 258.491 63.05 257.591 62.05C256.691 61.05 255.841 60.0667 255.041 59.1C254.541 58.5 254.041 57.9333 253.541 57.4C253.075 56.8333 252.591 56.3 252.091 55.8C252.658 55.3 253.208 54.75 253.741 54.15C254.308 53.5167 254.808 52.85 255.241 52.15C255.708 51.45 256.075 50.7167 256.341 49.95C256.641 49.1833 256.791 48.4167 256.791 47.65C256.791 46.1167 256.425 44.9 255.691 44C254.991 43.1 254.091 42.4167 252.991 41.95C251.891 41.4833 250.658 41.1833 249.291 41.05C247.958 40.9167 246.675 40.85 245.441 40.85C245.075 40.85 244.725 40.8667 244.391 40.9C244.091 40.9 243.775 40.9 243.441 40.9H242.391C241.858 40.9 241.358 40.9 240.891 40.9C240.425 40.9 239.925 40.8833 239.391 40.85C238.991 40.8167 238.591 40.8 238.191 40.8C237.791 40.8 237.408 40.8 237.041 40.8H236.291C236.025 40.8 235.841 40.8667 235.741 41C235.641 41.1333 235.658 41.2833 235.791 41.45C235.958 41.7167 236.175 41.8833 236.441 41.95C236.708 42.0167 237.025 42.0667 237.391 42.1C237.758 42.1333 238.108 42.2333 238.441 42.4C238.808 42.5667 238.991 43.05 238.991 43.85V64.15C238.991 64.7833 238.958 65.3 238.891 65.7C238.858 66.0667 238.758 66.35 238.591 66.55C238.425 66.75 238.175 66.9 237.841 67C237.541 67.0667 237.125 67.1333 236.591 67.2C236.291 67.2667 236.141 67.4333 236.141 67.7C236.175 67.9333 236.341 68.0667 236.641 68.1C238.341 68.2 240.025 68.2667 241.691 68.3C243.391 68.3 245.091 68.3 246.791 68.3C247.091 68.3 247.291 68.2 247.391 68C247.491 67.8 247.408 67.6333 247.141 67.5C246.875 67.3 246.575 67.1833 246.241 67.15C245.941 67.0833 245.641 67.0333 245.341 67C245.175 66.9667 244.975 66.95 244.741 66.95C244.541 66.95 244.391 66.9167 244.291 66.85C244.225 66.8167 244.141 66.6833 244.041 66.45C243.975 66.1833 243.908 65.9 243.841 65.6C243.775 65.2667 243.708 64.9667 243.641 64.7C243.608 64.4 243.591 64.1833 243.591 64.05V57.45C243.858 57.4167 244.025 57.4167 244.091 57.45C244.191 57.45 244.375 57.45 244.641 57.45C245.375 57.45 246.175 57.5167 247.041 57.65C247.941 57.75 248.675 58.05 249.241 58.55C249.875 59.0833 250.475 59.6833 251.041 60.35C251.608 61.0167 252.175 61.7167 252.741 62.45C253.375 63.25 254.025 64.0333 254.691 64.8C255.358 65.5667 256.075 66.25 256.841 66.85C257.608 67.45 258.458 67.9333 259.391 68.3C260.325 68.6667 261.375 68.85 262.541 68.85C264.008 68.85 265.375 68.5833 266.641 68.05ZM252.091 49.5C252.091 51.2 251.675 52.55 250.841 53.55C250.008 54.55 248.775 55.05 247.141 55.05C246.575 55.05 245.975 55.0333 245.341 55C244.741 54.9667 244.158 54.9167 243.591 54.85V42.8C244.325 42.6 245.091 42.5 245.891 42.5C246.825 42.5 247.675 42.7 248.441 43.1C249.208 43.4667 249.858 43.9667 250.391 44.6C250.958 45.2333 251.375 45.9833 251.641 46.85C251.941 47.6833 252.091 48.5667 252.091 49.5ZM288.156 41.8V41C288.156 40.6333 287.94 40.4833 287.506 40.55C287.306 40.5833 287.123 40.6167 286.956 40.65C286.79 40.65 286.656 40.6833 286.556 40.75H286.606C286.34 40.8167 286.073 40.8833 285.806 40.95C285.54 41.0167 285.323 41.05 285.156 41.05H267.306C267.106 41.05 266.84 41.0333 266.506 41C266.206 40.9333 265.89 40.8667 265.556 40.8C265.223 40.7333 264.89 40.6667 264.556 40.6C264.256 40.5 264.04 40.4 263.906 40.3C263.74 40.2333 263.573 40.2333 263.406 40.3C263.24 40.3333 263.123 40.4333 263.056 40.6C262.99 40.8 262.923 41 262.856 41.2C262.823 41.4 262.773 41.5833 262.706 41.75C262.54 42.25 262.373 42.7833 262.206 43.35C262.04 43.9167 261.956 44.4167 261.956 44.85C261.956 45.1833 261.973 45.4 262.006 45.5C262.073 45.7 262.24 45.8167 262.506 45.85C262.773 45.8833 262.973 45.8 263.106 45.6C263.473 44.9333 263.956 44.3667 264.556 43.9C265.19 43.4333 265.873 43.2 266.606 43.2H272.956V64.25C272.956 64.85 272.923 65.3333 272.856 65.7C272.79 66.0333 272.673 66.3 272.506 66.5C272.34 66.7 272.09 66.85 271.756 66.95C271.423 67.0167 271.006 67.0833 270.506 67.15C270.206 67.2167 270.056 67.3833 270.056 67.65C270.09 67.9167 270.256 68.05 270.556 68.05C272.256 68.1167 273.94 68.1667 275.606 68.2C277.306 68.2333 279.006 68.25 280.706 68.25C280.973 68.25 281.156 68.1833 281.256 68.05C281.356 67.9167 281.356 67.7667 281.256 67.6C281.123 67.3333 280.89 67.1667 280.556 67.1C280.256 67.0333 279.923 66.9833 279.556 66.95C279.356 66.9167 279.106 66.8833 278.806 66.85C278.54 66.8167 278.34 66.7667 278.206 66.7H278.156C278.09 66.6667 278.023 66.5333 277.956 66.3C277.89 66.0333 277.823 65.75 277.756 65.45C277.723 65.1167 277.673 64.8167 277.606 64.55C277.573 64.25 277.556 64.05 277.556 63.95V43.25C277.79 43.3167 277.923 43.3333 277.956 43.3C278.023 43.2667 278.19 43.25 278.456 43.25C278.79 43.25 279.123 43.25 279.456 43.25C279.79 43.25 280.106 43.2333 280.406 43.2C280.706 43.1667 280.99 43.15 281.256 43.15C281.523 43.15 281.79 43.15 282.056 43.15C283.123 43.15 284.073 43.3167 284.906 43.65C285.773 43.95 286.323 44.6833 286.556 45.85C286.623 46.0833 286.806 46.2 287.106 46.2C287.44 46.2 287.64 46.0833 287.706 45.85C288.006 44.5167 288.156 43.1667 288.156 41.8Z" fill="black"/>
</svg>
