<svg width="453" height="107" viewBox="0 0 453 107" fill="none" xmlns="http://www.w3.org/2000/svg">
<path fill-rule="evenodd" clip-rule="evenodd" d="M56.8365 1C56.4965 1.55 56.7215 2 57.3363 2C57.9512 2 58.1881 2.43 57.8632 2.956C57.5383 3.482 56.7245 3.705 56.0546 3.45C55.3848 3.196 53.1323 4.509 51.0488 6.367C47.6026 9.441 47.4446 9.794 49.2992 10.28C50.4199 10.573 51.3377 10.405 51.3377 9.906C51.3377 8.339 53.1823 8.917 55.2458 11.132C57.2294 13.262 57.2294 13.266 55.0349 15.06C52.8874 16.815 52.7754 16.788 50.095 13.874C46.8368 10.331 46.9178 10.298 37.455 19.165C30.3106 25.861 28.741 27.928 32.2112 26.07C33.2379 25.52 34.4247 25.392 34.8466 25.785C35.2695 26.178 35.4024 25.825 35.1415 25C34.8366 24.034 35.7594 23.038 37.7349 22.201C39.9784 21.251 40.4423 20.681 39.4645 20.076C38.3807 19.407 38.3717 19.099 39.4155 18.453C40.9891 17.481 52.3375 17.162 52.3375 18.091C52.3375 19.453 49.1812 21.366 48.5124 20.408C47.7786 19.359 42.7947 19.212 41.796 20.21C40.8622 21.145 43.2976 25.144 44.3894 24.469C46.2619 23.312 45.2931 25.694 43.0257 27.826C40.7032 30.007 38.7407 30.78 39.7754 29.105C40.0803 28.612 39.7004 27.968 38.9316 27.673C37.267 27.034 33.3419 27.931 33.3419 28.95C33.3419 30.479 34.7206 30.93 36.0413 29.834C37.084 28.968 37.7099 28.969 38.5767 29.836C39.4445 30.704 39.0416 31.702 36.9401 33.897C34.6586 36.279 33.6718 36.669 31.4983 36.048C28.3311 35.144 23.9291 36.243 26.6045 37.27C27.4933 37.611 29.4458 37.668 30.9445 37.396C33.3289 36.963 33.5059 37.097 32.3641 38.473C31.6343 39.354 30.2796 39.797 29.2859 39.482C28.3101 39.172 27.1753 39.463 26.7634 40.129C26.2486 40.962 26.5345 41.141 27.6792 40.701C30.4866 39.624 29.5498 41.381 24.8649 45.979C22.4015 48.397 20.5629 50.551 20.7778 50.766C20.9928 50.981 30.1077 42.125 41.0341 31.086L60.8995 11.015L123.853 10.75L186.806 10.485L123.271 10.242C82.0196 10.085 59.3149 10.351 58.5361 11C57.6843 11.71 57.6083 11.67 58.2751 10.861C58.899 10.104 58.5101 9.151 57.1134 8.02C55.6607 6.844 55.3708 6.097 56.1746 5.6C56.8135 5.205 57.3363 5.319 57.3363 5.853C57.3363 6.386 59.5828 6.708 62.3282 6.568C66.4102 6.36 67.1161 6.558 66.2043 7.657C65.2735 8.778 74.4924 9 122.115 9C158.466 9 179.262 8.645 179.475 8.02C179.99 6.504 191.56 6.264 192.058 7.759C192.597 9.375 196.966 9.368 197.721 7.75C198.187 6.75 198.421 6.75 198.886 7.75C199.207 8.438 200.643 9 202.077 9C204.6 9 204.622 8.95 202.744 7.448C200.88 5.958 200.902 5.924 203.302 6.583C204.677 6.961 206.027 7.546 206.302 7.885C207.13 8.903 212.392 8.958 211.764 7.941C211.443 7.42 212.771 7 214.741 7C216.697 7 218.299 7.45 218.299 8C218.299 8.55 220.211 8.936 222.548 8.858L226.797 8.716L222.798 8.006C219.137 7.356 232.275 7.436 251.291 8.178C255.415 8.34 259.914 8.111 261.289 7.67C263.16 7.071 263.411 7.133 262.289 7.919C261.234 8.658 276.367 8.924 313.277 8.817C342.145 8.733 363.065 8.365 359.766 8L353.767 7.336L360.516 7.168C364.46 7.07 367.264 7.415 367.264 8C367.264 9.466 369.188 9.219 370.87 7.537C372.868 5.537 381.818 5.624 380.155 7.627C379.228 8.746 379.733 9.045 382.889 9.241C385.017 9.374 349.194 9.716 303.279 10L219.799 10.517L305.288 10.759L390.777 11L411.254 31.5C427.986 48.251 431.288 52 429.303 52C427.476 52 422.214 47.29 408.074 33L389.273 14H226.044H62.8151L43.8295 33.036C28.68 48.225 24.339 52.043 22.3445 51.93C20.9698 51.852 19.3992 51.836 18.8543 51.894C18.3094 51.952 27.5283 61.675 39.3405 73.5L60.8185 95H225.974H391.13L412.125 73.775C427.421 58.312 432.848 52.221 432.115 51.339C431.437 50.522 431.476 49.375 432.235 47.814C433.241 45.744 433.211 45.684 431.951 47.241C430.622 48.884 430.438 48.866 428.681 46.924L426.819 44.866L435.078 45.282L443.337 45.699L439.773 42.76C436.711 40.236 435.295 39.799 429.729 39.661C426.166 39.572 423.126 39.872 422.975 40.327C422.824 40.781 421.878 40.244 420.871 39.132C419.047 37.116 419.063 37.112 426.862 37.668C433.542 38.144 434.509 38.018 433.502 36.805C432.404 35.482 425.097 35.255 420.091 36.39C419.14 36.605 416.847 35.144 414.725 32.971L411.019 29.175L418.885 29.696C425.043 30.103 426.499 29.952 425.592 28.999C424.472 27.823 413.055 27.387 411.328 28.454C410.884 28.728 409.751 28.102 408.81 27.061C406.959 25.016 407.15 25.005 419.14 26.497L422.527 26.919L416.641 21.357C413.403 18.298 407 12.241 402.412 7.898L394.07 0H225.762C114.635 0 57.2444 0.34 56.8365 1ZM65.8344 3C66.1863 3.569 65.3255 4 63.8348 4C62.3442 4 61.4834 3.569 61.8353 3C62.1752 2.45 63.075 2 63.8348 2C64.5947 2 65.4944 2.45 65.8344 3ZM226.297 3C226.297 3.55 225.82 4 225.238 4C224.656 4 224.458 3.55 224.797 3C225.137 2.45 225.613 2 225.856 2C226.099 2 226.297 2.45 226.297 3ZM378.262 3C378.262 3.55 377.56 4 376.703 4C375.846 4 375.422 3.55 375.762 3C376.102 2.45 376.803 2 377.321 2C377.839 2 378.262 2.45 378.262 3ZM385.26 3C386.425 3.753 386.132 3.973 383.951 3.985C382.331 3.994 381.404 3.577 381.761 3C382.528 1.758 383.34 1.758 385.26 3ZM389.094 7.123C388.36 7.589 386.635 7.962 385.26 7.953C382.938 7.938 382.888 7.84 384.556 6.574C385.545 5.825 387.27 5.451 388.39 5.745C389.946 6.151 390.112 6.478 389.094 7.123ZM54.337 7C54.337 7.55 53.8871 8 53.3373 8C52.7874 8 52.3375 7.55 52.3375 7C52.3375 6.45 52.7874 6 53.3373 6C53.8871 6 54.337 6.45 54.337 7ZM258.019 6.604C257.687 6.936 256.824 6.972 256.103 6.683C255.305 6.364 255.542 6.127 256.707 6.079C257.761 6.036 258.351 6.272 258.019 6.604ZM284.358 7.772C274.776 7.924 266.587 7.7 266.16 7.274C265.733 6.848 273.572 6.724 283.582 6.998L301.78 7.495L284.358 7.772ZM331.273 7C332.445 7.758 332.187 7.973 330.082 7.985C328.602 7.993 327.114 7.55 326.774 7C325.985 5.723 329.297 5.723 331.273 7ZM395.258 7.545C395.258 7.727 394.389 7.81 393.327 7.73C392.266 7.65 391.606 7.248 391.86 6.836C392.283 6.153 395.258 6.773 395.258 7.545ZM59.3359 8C59.3359 8.55 60.5726 8.968 62.0852 8.93C64.5217 8.867 64.6067 8.762 62.8351 8C60.1047 6.826 59.3359 6.826 59.3359 8ZM72.6018 7.656C71.9249 7.93 70.5753 7.947 69.6025 7.693C68.6297 7.439 69.1836 7.215 70.8332 7.195C72.4828 7.175 73.2786 7.382 72.6018 7.656ZM82.0596 7.604C81.7277 7.936 80.8649 7.972 80.144 7.683C79.3462 7.364 79.5832 7.127 80.7479 7.079C81.8017 7.036 82.3915 7.272 82.0596 7.604ZM90.0907 7.687C89.135 7.937 87.3354 7.946 86.0917 7.707C84.8479 7.468 85.6298 7.263 87.8293 7.252C90.0287 7.241 91.0465 7.437 90.0907 7.687ZM105.589 7.704C104.359 7.941 102.11 7.947 100.59 7.718C99.0706 7.488 100.076 7.294 102.826 7.286C105.575 7.279 106.819 7.467 105.589 7.704ZM112.053 7.604C111.721 7.936 110.858 7.972 110.137 7.683C109.339 7.364 109.576 7.127 110.741 7.079C111.795 7.036 112.385 7.272 112.053 7.604ZM128.07 7.716C126.558 7.945 124.083 7.945 122.571 7.716C121.06 7.487 122.296 7.3 125.321 7.3C128.345 7.3 129.582 7.487 128.07 7.716ZM144.566 7.706C143.328 7.944 141.305 7.944 140.067 7.706C138.829 7.467 139.842 7.272 142.317 7.272C144.791 7.272 145.804 7.467 144.566 7.706ZM173.098 7.738C169.958 7.936 164.559 7.937 161.101 7.741C157.643 7.546 160.212 7.384 166.811 7.382C173.409 7.38 176.239 7.54 173.098 7.738ZM186.306 8C186.306 8.55 186.783 9 187.365 9C187.947 9 188.146 8.55 187.806 8C187.466 7.45 186.99 7 186.747 7C186.504 7 186.306 7.45 186.306 8ZM248.021 7.604C247.689 7.936 246.826 7.972 246.105 7.683C245.308 7.364 245.545 7.127 246.709 7.079C247.763 7.036 248.353 7.272 248.021 7.604ZM318.526 7.732C316.189 7.943 312.364 7.943 310.028 7.732C307.691 7.522 309.603 7.349 314.277 7.349C318.951 7.349 320.862 7.522 318.526 7.732ZM336.001 7.604C335.669 7.936 334.806 7.972 334.085 7.683C333.287 7.364 333.524 7.127 334.689 7.079C335.743 7.036 336.333 7.272 336.001 7.604ZM342.539 7.656C341.862 7.93 340.513 7.947 339.54 7.693C338.567 7.439 339.121 7.215 340.771 7.195C342.42 7.175 343.216 7.382 342.539 7.656ZM352.03 7.687C351.074 7.937 349.275 7.946 348.031 7.707C346.787 7.468 347.569 7.263 349.768 7.252C351.968 7.241 352.986 7.437 352.03 7.687ZM374.263 8C374.263 8.55 374.713 9 375.263 9C375.812 9 376.262 8.55 376.262 8C376.262 7.45 375.812 7 375.263 7C374.713 7 374.263 7.45 374.263 8ZM183.12 8.683C183.841 8.972 184.704 8.936 185.036 8.604C185.368 8.272 184.778 8.036 183.724 8.079C182.559 8.127 182.322 8.364 183.12 8.683ZM229.058 8.707C230.302 8.946 232.102 8.937 233.058 8.687C234.013 8.437 232.996 8.241 230.796 8.252C228.597 8.263 227.815 8.468 229.058 8.707ZM188.119 10.683C188.84 10.972 189.703 10.936 190.035 10.604C190.366 10.272 189.777 10.036 188.723 10.079C187.558 10.127 187.321 10.364 188.119 10.683ZM192.118 10.683C192.839 10.972 193.702 10.936 194.034 10.604C194.366 10.272 193.776 10.036 192.722 10.079C191.557 10.127 191.32 10.364 192.118 10.683ZM196.054 10.662C196.742 10.94 197.867 10.94 198.554 10.662C199.241 10.385 198.679 10.158 197.304 10.158C195.929 10.158 195.367 10.385 196.054 10.662ZM202.572 10.693C203.544 10.947 204.894 10.93 205.571 10.656C206.248 10.382 205.452 10.175 203.802 10.195C202.153 10.215 201.599 10.439 202.572 10.693ZM214.569 10.693C215.542 10.947 216.891 10.93 217.568 10.656C218.245 10.382 217.449 10.175 215.8 10.195C214.15 10.215 213.596 10.439 214.569 10.693ZM398.766 11.015C399.101 11.557 398.336 12.014 397.066 12.032C394.834 12.063 394.821 12.111 396.676 13.515C398.208 14.675 398.893 14.719 400.089 13.733C401.388 12.661 401.427 12.794 400.386 14.75C398.971 17.404 399.865 17.665 402.427 15.345C403.433 14.435 404.256 14.162 404.256 14.738C404.256 15.314 403.581 16.045 402.756 16.362C399.838 17.482 401.31 18.548 405.256 18.171C407.739 17.935 409.255 18.209 409.255 18.895C409.255 19.503 407.819 20 406.064 20C403.157 20 403.036 20.119 404.701 21.336C405.817 22.153 408.179 22.507 410.776 22.248C413.114 22.015 415.306 22.276 415.648 22.829C416.029 23.447 414.943 23.73 412.836 23.563C410.948 23.413 408.807 23.661 408.079 24.113C407.167 24.68 404.654 22.853 400.007 18.245C396.296 14.565 393.258 11.302 393.258 10.995C393.258 9.988 398.143 10.006 398.766 11.015ZM403.756 11C404.096 11.55 403.897 12 403.315 12C402.733 12 402.256 11.55 402.256 11C402.256 10.45 402.454 10 402.697 10C402.94 10 403.416 10.45 403.756 11ZM51.2478 13.111C52.8904 14.453 53.9831 14.754 54.68 14.057C56.0456 12.691 55.0009 11.796 51.6207 11.437L48.8383 11.142L51.2478 13.111ZM202.489 12.748C211.663 12.913 226.96 12.913 236.481 12.749C246.002 12.584 238.494 12.449 219.799 12.449C201.103 12.449 193.314 12.583 202.489 12.748ZM47.3477 15.489C46.099 16.994 44.3394 16.673 44.3394 14.941C44.3394 14.423 45.2941 14 46.4609 14C48.2275 14 48.3764 14.25 47.3477 15.489ZM7.34795 16.044C7.34795 17.34 12.4448 37.196 12.9457 37.85C13.0926 38.043 13.6495 37.931 14.1824 37.601C14.7932 37.224 14.6842 35.43 13.8904 32.751C11.8489 25.87 11.0931 20.725 12.2278 21.426C12.7817 21.769 16.4098 22.079 20.2889 22.115C24.169 22.152 27.3433 22.619 27.3433 23.154C27.3433 23.688 26.5555 24.046 25.5937 23.948C24.6319 23.85 23.3942 23.863 22.8444 23.978C22.2945 24.092 19.932 24.11 17.5956 24.017C14.9462 23.912 13.3466 24.285 13.3466 25.007C13.3466 25.789 15.0982 26.04 18.7373 25.781C22.8663 25.487 24.0121 25.702 23.6292 26.699C23.3552 27.414 21.9985 28 20.6159 28C18.4564 28 18.2824 28.22 19.3872 29.551C20.4739 30.86 20.3379 31.189 18.5094 31.667C16.6158 32.163 15.3661 34 16.9237 34C17.7755 34 32.3421 20.777 32.3421 20.004C32.3421 19.642 27.2813 18.772 21.0948 18.071C14.9092 17.37 9.2855 16.337 8.59766 15.776C7.71687 15.056 7.34795 15.135 7.34795 16.044ZM440.892 17.766C440.586 18.261 435.834 19.239 430.332 19.941L420.327 21.216L426.038 26.358C429.179 29.186 432.984 32.782 434.492 34.349C437.618 37.595 437.275 38.083 440.259 26.134C442.147 18.576 442.392 15.339 440.892 17.766ZM17.2626 19.644C17.4916 19.84 16.0289 20 14.0134 20C11.9969 20 10.3473 19.561 10.3473 19.025C10.3473 18.164 16.1379 18.682 17.2626 19.644ZM439.248 21C439.248 21.55 438.236 21.968 436.998 21.93C434.852 21.863 434.841 21.82 436.748 21C437.848 20.527 438.861 20.109 438.998 20.07C439.135 20.032 439.248 20.45 439.248 21ZM48.1405 22.531C47.0587 23.614 43.3396 23.849 43.3396 22.836C43.3396 22.258 44.0004 22.04 44.8073 22.349C45.6141 22.659 46.5588 22.452 46.9068 21.89C47.2547 21.327 47.7936 21.122 48.1055 21.433C48.4164 21.745 48.4324 22.239 48.1405 22.531ZM433.978 21.604C433.646 21.936 432.783 21.972 432.062 21.683C431.264 21.364 431.501 21.127 432.666 21.079C433.72 21.036 434.31 21.272 433.978 21.604ZM37.8869 23.925C37.5709 24.437 38.2518 25.154 39.4015 25.519C42.2388 26.42 42.9917 25.419 40.4863 24.078C39.2685 23.426 38.2328 23.365 37.8869 23.925ZM437.852 25.589C437.584 26.287 437.065 28.461 436.697 30.42C436.329 32.379 435.648 33.747 435.183 33.459C434.717 33.171 434.59 32.275 434.9 31.468C435.282 30.472 434.805 30 433.415 30C432.289 30 431.09 29.55 430.75 29C430.389 28.417 431.405 28 433.19 28C434.872 28 436.248 27.55 436.248 27C436.248 26.45 434.197 26 431.69 26C428.859 26 427.37 25.615 427.76 24.984C428.719 23.432 438.456 24.016 437.852 25.589ZM27.3433 28.5C26.2916 29.767 26.4965 30 28.662 30C31.6793 30 33.015 28.472 30.7545 27.605C28.672 26.805 28.771 26.779 27.3433 28.5ZM15.1591 28.683C15.88 28.972 16.7428 28.936 17.0747 28.604C17.4066 28.272 16.8168 28.036 15.763 28.079C14.5983 28.127 14.3613 28.364 15.1591 28.683ZM415.783 30.951C414.54 32.963 416.226 33.699 422.047 33.685C425.271 33.677 428.435 33.996 429.079 34.394C429.723 34.792 430.25 34.664 430.25 34.109C430.25 32.297 426.998 31.224 423.095 31.748C420.874 32.046 418.676 31.767 417.852 31.082C416.882 30.277 416.225 30.235 415.783 30.951ZM20.9278 34.542C17.1857 37.847 17.5566 38.843 21.8446 37C23.2133 36.412 23.3712 36.106 22.3445 36.03C21.4667 35.966 21.9856 35.301 23.5942 34.428C25.1068 33.607 26.3435 32.5 26.3435 31.968C26.3435 30.312 24.9869 30.957 20.9278 34.542ZM31.3424 31.858C31.3424 33.759 34.7106 34.057 36.2692 32.294C37.133 31.315 37.21 31.053 36.4382 31.71C35.4664 32.538 34.4667 32.602 33.189 31.918C32.0962 31.333 31.3424 31.309 31.3424 31.858ZM14.4173 40.415C13.6865 41.295 14.8182 41.585 18.8923 41.562C21.8906 41.545 24.344 41.187 24.344 40.766C24.344 40.344 23.7821 39.971 23.0943 39.936C22.4075 39.901 20.3929 39.729 18.6193 39.554C16.8457 39.379 14.9552 39.767 14.4173 40.415ZM438.244 42.596C439.034 43.386 437.761 43.74 433.649 43.874C430.521 43.977 427.637 44.261 427.239 44.507C426.843 44.752 425.753 44.108 424.819 43.075C423.17 41.253 423.33 41.201 430.136 41.35C433.995 41.435 437.644 41.996 438.244 42.596ZM10.7742 44.479C9.7144 45.28 9.2975 45.944 9.84737 45.953C11.333 45.977 13.8724 44.192 13.2446 43.565C12.9456 43.265 11.8339 43.677 10.7742 44.479ZM15.0502 44.204C14.3283 44.663 14.9702 44.975 16.6548 44.985C18.6333 44.995 19.2412 45.369 18.7123 46.25C18.1774 47.141 18.4344 47.117 19.6091 46.164C20.5159 45.429 21.6956 45.099 22.2315 45.43C22.7674 45.762 23.4592 45.622 23.7691 45.121C24.474 43.98 16.6898 43.162 15.0502 44.204ZM68.3998 47.035C70.9272 48.389 70.8422 49.755 68.0838 52.056C65.3435 54.343 63.4629 54.498 62.6971 52.5C62.3802 51.675 61.4944 51 60.7286 51C58.893 51 58.97 50.062 60.9905 47.829C62.8461 45.778 65.5164 45.492 68.3998 47.035ZM391.608 48.178C392.435 49.5 392.138 50.289 390.209 51.895C387.272 54.339 385.674 54.522 384.898 52.5C384.582 51.675 383.635 51 382.792 51C380.81 51 380.856 50.104 382.96 47.78C385.021 45.502 390.078 45.734 391.608 48.178ZM6.34818 48.5C4.9975 50.128 5.32042 50.332 7.76585 49.393C8.63565 49.059 9.34749 48.384 9.34749 47.893C9.34749 46.51 7.72786 46.838 6.34818 48.5ZM437.05 48.128C437.434 48.474 439.924 48.985 442.584 49.265C446.101 49.635 447.12 49.474 446.32 48.674C445.715 48.069 443.225 47.557 440.786 47.537C438.347 47.517 436.665 47.783 437.05 48.128ZM12.1088 48.707C13.3526 48.946 15.1521 48.937 16.1079 48.687C17.0637 48.437 16.0459 48.241 13.8464 48.252C11.647 48.263 10.8651 48.468 12.1088 48.707ZM18.3454 49.059C18.3454 49.641 18.7953 49.84 19.3452 49.5C19.895 49.16 20.3449 48.684 20.3449 48.441C20.3449 48.198 19.895 48 19.3452 48C18.7953 48 18.3454 48.477 18.3454 49.059ZM433.749 49C434.089 49.55 434.565 50 434.808 50C435.051 50 435.249 49.55 435.249 49C435.249 48.45 434.772 48 434.19 48C433.608 48 433.409 48.45 433.749 49ZM5.11647 52.168C5.69833 52.75 6.76309 53.028 7.48492 52.788C8.23375 52.538 7.77985 52.085 6.42816 51.731C4.76555 51.296 4.37464 51.426 5.11647 52.168ZM446.238 52.107C445.112 52.88 445.36 52.973 447.246 52.486C449.074 52.014 447.331 54.211 440.747 60.672C431.367 69.877 406.038 93.689 398.257 100.616L393.758 104.621L225.703 104.55L57.6473 104.479L35.7474 83.9C2.92498 53.058 1.49131 51.785 0.11863 52.256C-0.621199 52.51 2.15916 55.822 6.79008 60.205L14.7312 67.718L12.4668 76.953C9.85637 87.6 10.0313 89.938 12.7327 80.503C14.6503 73.804 14.6633 73.797 19.3162 76.804C19.5751 76.972 19.1252 77.527 18.3164 78.039C17.2027 78.743 17.5216 78.973 19.6261 78.985C21.1947 78.993 22.6644 79.67 22.9973 80.537C23.3212 81.382 24.9939 82.823 26.7145 83.738L29.8427 85.402L25.3438 86.068C22.8693 86.435 18.2574 87.052 15.0962 87.439C11.593 87.869 9.34749 88.625 9.34749 89.375C9.34749 90.341 11.7639 90.312 20.5949 89.239C28.641 88.262 32.3361 88.176 33.5779 88.936C34.5326 89.521 35.9873 90 36.8101 90C37.6319 90 42.5308 93.825 47.6966 98.5L57.0874 107H226.205H395.323L403.038 99.515C413.73 89.144 417.504 87.764 431.064 89.269C436.631 89.887 441.501 90.08 441.884 89.696C443.205 88.375 442.195 88.126 428.5 86.39C425.614 86.024 423.251 85.337 423.251 84.862C423.251 84.388 423.678 84 424.199 84C424.721 84 426.362 82.875 427.845 81.5C429.328 80.125 431.361 79 432.364 79C433.495 79 433.987 78.481 433.661 77.631C433.35 76.821 433.97 76.045 435.181 75.728C436.865 75.287 437.432 75.882 438.397 79.103C440.193 85.102 440.471 83.06 438.821 75.983C437.872 71.913 437.676 69.07 438.268 67.963C438.773 67.02 442.349 63.193 446.216 59.459C450.083 55.724 453.134 52.582 452.995 52.475C451.768 51.528 447.427 51.291 446.238 52.107ZM439.061 52.683C439.782 52.972 440.644 52.936 440.976 52.604C441.308 52.272 440.718 52.036 439.665 52.079C438.5 52.127 438.263 52.364 439.061 52.683ZM442.247 53.059C442.247 53.641 442.697 53.84 443.247 53.5C443.797 53.16 444.246 52.684 444.246 52.441C444.246 52.198 443.797 52 443.247 52C442.697 52 442.247 52.477 442.247 53.059ZM439.517 56.693C440.489 56.947 441.839 56.93 442.516 56.656C443.193 56.382 442.397 56.175 440.747 56.195C439.098 56.215 438.544 56.439 439.517 56.693ZM440.326 85.583C440.374 86.748 440.611 86.985 440.93 86.188C441.219 85.466 441.183 84.603 440.851 84.271C440.519 83.939 440.283 84.529 440.326 85.583Z" fill="#FF0000"/>
<path d="M99.8 60.9C99.8 60.0333 99.6 59.2167 99.2 58.45C98.8 57.6833 98.2833 56.95 97.65 56.25C97.0167 55.55 96.3 54.9 95.5 54.3C94.7 53.6667 93.9167 53.05 93.15 52.45C92.55 51.9833 91.9333 51.5 91.3 51C90.6667 50.5 90.0833 49.9833 89.55 49.45C89.05 48.8833 88.6333 48.3167 88.3 47.75C88 47.1833 87.85 46.6167 87.85 46.05C87.85 45.4167 87.9833 44.85 88.25 44.35C88.5167 43.85 88.8667 43.4333 89.3 43.1C89.7333 42.7667 90.2167 42.5167 90.75 42.35C91.3167 42.15 91.8833 42.05 92.45 42.05C93.0167 42.05 93.5667 42.1333 94.1 42.3C94.6667 42.4667 95.1667 42.7167 95.6 43.05C96.0667 43.3833 96.4333 43.7833 96.7 44.25C97 44.7167 97.15 45.2667 97.15 45.9C97.15 46.1333 97.2667 46.2833 97.5 46.35C97.7667 46.4167 98 46.3667 98.2 46.2C98.6 45.7667 98.8167 45.2167 98.85 44.55C98.9167 43.85 98.95 43.1667 98.95 42.5V41.1C99.0167 40.8333 98.8667 40.6667 98.5 40.6C97.1333 40.3 95.7333 40.15 94.3 40.15C93.4 40.15 92.3167 40.2667 91.05 40.5C89.8167 40.7 88.6333 41.05 87.5 41.55C86.3667 42.05 85.4 42.7167 84.6 43.55C83.8333 44.3833 83.45 45.4167 83.45 46.65C83.45 47.4167 83.6333 48.1667 84 48.9C84.4 49.6 84.9167 50.3167 85.55 51.05C86.1833 51.75 86.8833 52.45 87.65 53.15C88.45 53.85 89.25 54.5333 90.05 55.2C90.75 55.8 91.4333 56.4 92.1 57C92.8 57.6 93.4167 58.2167 93.95 58.85C94.5167 59.4833 94.9667 60.1 95.3 60.7C95.6667 61.3 95.85 61.9 95.85 62.5C95.85 63.1667 95.6667 63.75 95.3 64.25C94.9333 64.75 94.4667 65.1667 93.9 65.5C93.3333 65.8333 92.7167 66.1 92.05 66.3C91.4167 66.4667 90.8333 66.55 90.3 66.55C89.6667 66.55 89.0167 66.4667 88.35 66.3C87.7167 66.1333 87.1333 65.8833 86.6 65.55C86.0667 65.1833 85.6333 64.75 85.3 64.25C85 63.7167 84.8833 63.1 84.95 62.4V61.8C84.95 61.6667 84.8833 61.5667 84.75 61.5C84.65 61.4333 84.5333 61.4 84.4 61.4C84.2667 61.4 84.1333 61.4333 84 61.5C83.8667 61.5333 83.8 61.6167 83.8 61.75C83.7667 62.3167 83.6667 62.7833 83.5 63.15C83.3667 63.5167 83.25 63.8833 83.15 64.25C83.0833 64.5833 83.05 64.9167 83.05 65.25C83.05 65.95 83.2333 66.5333 83.6 67C84 67.4333 84.4667 67.7833 85 68.05C85.5667 68.3167 86.1667 68.5 86.8 68.6C87.4333 68.7 88.0167 68.75 88.55 68.75C89.6167 68.75 90.8 68.5833 92.1 68.25C93.4333 67.8833 94.6667 67.3667 95.8 66.7C96.9333 66.0333 97.8833 65.2167 98.65 64.25C99.4167 63.2833 99.8 62.1667 99.8 60.9ZM128.098 41.8V41C128.098 40.6333 127.881 40.4833 127.448 40.55C127.248 40.5833 127.064 40.6167 126.898 40.65C126.731 40.65 126.598 40.6833 126.498 40.75H126.548C126.281 40.8167 126.014 40.8833 125.748 40.95C125.481 41.0167 125.264 41.05 125.098 41.05H107.248C107.048 41.05 106.781 41.0333 106.448 41C106.148 40.9333 105.831 40.8667 105.498 40.8C105.164 40.7333 104.831 40.6667 104.498 40.6C104.198 40.5 103.981 40.4 103.848 40.3C103.681 40.2333 103.514 40.2333 103.348 40.3C103.181 40.3333 103.064 40.4333 102.998 40.6C102.931 40.8 102.864 41 102.798 41.2C102.764 41.4 102.714 41.5833 102.648 41.75C102.481 42.25 102.314 42.7833 102.148 43.35C101.981 43.9167 101.898 44.4167 101.898 44.85C101.898 45.1833 101.914 45.4 101.948 45.5C102.014 45.7 102.181 45.8167 102.448 45.85C102.714 45.8833 102.914 45.8 103.048 45.6C103.414 44.9333 103.898 44.3667 104.498 43.9C105.131 43.4333 105.814 43.2 106.548 43.2H112.898V64.25C112.898 64.85 112.864 65.3333 112.798 65.7C112.731 66.0333 112.614 66.3 112.448 66.5C112.281 66.7 112.031 66.85 111.698 66.95C111.364 67.0167 110.948 67.0833 110.448 67.15C110.148 67.2167 109.998 67.3833 109.998 67.65C110.031 67.9167 110.198 68.05 110.498 68.05C112.198 68.1167 113.881 68.1667 115.548 68.2C117.248 68.2333 118.948 68.25 120.648 68.25C120.914 68.25 121.098 68.1833 121.198 68.05C121.298 67.9167 121.298 67.7667 121.198 67.6C121.064 67.3333 120.831 67.1667 120.498 67.1C120.198 67.0333 119.864 66.9833 119.498 66.95C119.298 66.9167 119.048 66.8833 118.748 66.85C118.481 66.8167 118.281 66.7667 118.148 66.7H118.098C118.031 66.6667 117.964 66.5333 117.898 66.3C117.831 66.0333 117.764 65.75 117.698 65.45C117.664 65.1167 117.614 64.8167 117.548 64.55C117.514 64.25 117.498 64.05 117.498 63.95V43.25C117.731 43.3167 117.864 43.3333 117.898 43.3C117.964 43.2667 118.131 43.25 118.398 43.25C118.731 43.25 119.064 43.25 119.398 43.25C119.731 43.25 120.048 43.2333 120.348 43.2C120.648 43.1667 120.931 43.15 121.198 43.15C121.464 43.15 121.731 43.15 121.998 43.15C123.064 43.15 124.014 43.3167 124.848 43.65C125.714 43.95 126.264 44.6833 126.498 45.85C126.564 46.0833 126.748 46.2 127.048 46.2C127.381 46.2 127.581 46.0833 127.648 45.85C127.948 44.5167 128.098 43.1667 128.098 41.8ZM157.657 67.95V67.05C156.924 66.9833 156.207 66.8333 155.507 66.6C154.807 66.3667 154.257 65.8667 153.857 65.1C152.59 62.8 151.424 60.4333 150.357 58C149.324 55.5333 148.29 53.1 147.257 50.7L145.057 45.55V45.6C144.99 45.5 144.924 45.3667 144.857 45.2C144.79 45 144.707 44.7833 144.607 44.55V44.6C144.44 44.2333 144.257 43.8167 144.057 43.35C143.857 42.8833 143.64 42.45 143.407 42.05C143.174 41.6167 142.94 41.2333 142.707 40.9C142.474 40.5667 142.24 40.35 142.007 40.25C141.64 40.15 141.39 40.2167 141.257 40.45C140.257 42.7833 139.257 45.1167 138.257 47.45C137.29 49.7833 136.324 52.1333 135.357 54.5C134.69 56.1 133.99 57.75 133.257 59.45C132.557 61.1167 131.874 62.75 131.207 64.35C131.04 64.65 130.807 64.9833 130.507 65.35C130.24 65.7167 129.94 66.05 129.607 66.35C129.274 66.6167 128.924 66.8167 128.557 66.95C128.19 67.0833 127.84 67.1 127.507 67L127.307 67.9L136.107 68.05C136.44 68.05 136.607 67.9167 136.607 67.65C136.64 67.35 136.49 67.1833 136.157 67.15C135.824 67.0833 135.44 67 135.007 66.9C134.574 66.7667 134.357 66.5167 134.357 66.15C134.357 65.85 134.457 65.35 134.657 64.65C134.89 63.9167 135.174 63.1333 135.507 62.3C135.84 61.4667 136.174 60.6333 136.507 59.8C136.84 58.9667 137.14 58.2833 137.407 57.75H145.457C146.157 59.3167 146.824 60.8167 147.457 62.25C148.09 63.6833 148.74 65.1833 149.407 66.75L148.957 67.3C148.757 67.4667 148.69 67.6333 148.757 67.8C148.857 67.9667 149.04 68.05 149.307 68.05C149.907 68.0833 150.49 68.1167 151.057 68.15C151.624 68.15 152.207 68.15 152.807 68.15C153.64 68.15 154.457 68.1333 155.257 68.1C156.057 68.0667 156.857 68.0167 157.657 67.95ZM144.557 55.6H138.207C138.84 54.1 139.374 52.7 139.807 51.4C140.274 50.0667 140.79 48.6667 141.357 47.2L144.557 55.6ZM191.641 68.05L191.341 67.2C190.341 67.3333 189.341 67.1667 188.341 66.7C187.341 66.2 186.358 65.55 185.391 64.75C184.425 63.95 183.491 63.05 182.591 62.05C181.691 61.05 180.841 60.0667 180.041 59.1C179.541 58.5 179.041 57.9333 178.541 57.4C178.075 56.8333 177.591 56.3 177.091 55.8C177.658 55.3 178.208 54.75 178.741 54.15C179.308 53.5167 179.808 52.85 180.241 52.15C180.708 51.45 181.075 50.7167 181.341 49.95C181.641 49.1833 181.791 48.4167 181.791 47.65C181.791 46.1167 181.425 44.9 180.691 44C179.991 43.1 179.091 42.4167 177.991 41.95C176.891 41.4833 175.658 41.1833 174.291 41.05C172.958 40.9167 171.675 40.85 170.441 40.85C170.075 40.85 169.725 40.8667 169.391 40.9C169.091 40.9 168.775 40.9 168.441 40.9H167.391C166.858 40.9 166.358 40.9 165.891 40.9C165.425 40.9 164.925 40.8833 164.391 40.85C163.991 40.8167 163.591 40.8 163.191 40.8C162.791 40.8 162.408 40.8 162.041 40.8H161.291C161.025 40.8 160.841 40.8667 160.741 41C160.641 41.1333 160.658 41.2833 160.791 41.45C160.958 41.7167 161.175 41.8833 161.441 41.95C161.708 42.0167 162.025 42.0667 162.391 42.1C162.758 42.1333 163.108 42.2333 163.441 42.4C163.808 42.5667 163.991 43.05 163.991 43.85V64.15C163.991 64.7833 163.958 65.3 163.891 65.7C163.858 66.0667 163.758 66.35 163.591 66.55C163.425 66.75 163.175 66.9 162.841 67C162.541 67.0667 162.125 67.1333 161.591 67.2C161.291 67.2667 161.141 67.4333 161.141 67.7C161.175 67.9333 161.341 68.0667 161.641 68.1C163.341 68.2 165.025 68.2667 166.691 68.3C168.391 68.3 170.091 68.3 171.791 68.3C172.091 68.3 172.291 68.2 172.391 68C172.491 67.8 172.408 67.6333 172.141 67.5C171.875 67.3 171.575 67.1833 171.241 67.15C170.941 67.0833 170.641 67.0333 170.341 67C170.175 66.9667 169.975 66.95 169.741 66.95C169.541 66.95 169.391 66.9167 169.291 66.85C169.225 66.8167 169.141 66.6833 169.041 66.45C168.975 66.1833 168.908 65.9 168.841 65.6C168.775 65.2667 168.708 64.9667 168.641 64.7C168.608 64.4 168.591 64.1833 168.591 64.05V57.45C168.858 57.4167 169.025 57.4167 169.091 57.45C169.191 57.45 169.375 57.45 169.641 57.45C170.375 57.45 171.175 57.5167 172.041 57.65C172.941 57.75 173.675 58.05 174.241 58.55C174.875 59.0833 175.475 59.6833 176.041 60.35C176.608 61.0167 177.175 61.7167 177.741 62.45C178.375 63.25 179.025 64.0333 179.691 64.8C180.358 65.5667 181.075 66.25 181.841 66.85C182.608 67.45 183.458 67.9333 184.391 68.3C185.325 68.6667 186.375 68.85 187.541 68.85C189.008 68.85 190.375 68.5833 191.641 68.05ZM177.091 49.5C177.091 51.2 176.675 52.55 175.841 53.55C175.008 54.55 173.775 55.05 172.141 55.05C171.575 55.05 170.975 55.0333 170.341 55C169.741 54.9667 169.158 54.9167 168.591 54.85V42.8C169.325 42.6 170.091 42.5 170.891 42.5C171.825 42.5 172.675 42.7 173.441 43.1C174.208 43.4667 174.858 43.9667 175.391 44.6C175.958 45.2333 176.375 45.9833 176.641 46.85C176.941 47.6833 177.091 48.5667 177.091 49.5ZM213.156 41.8V41C213.156 40.6333 212.94 40.4833 212.506 40.55C212.306 40.5833 212.123 40.6167 211.956 40.65C211.79 40.65 211.656 40.6833 211.556 40.75H211.606C211.34 40.8167 211.073 40.8833 210.806 40.95C210.54 41.0167 210.323 41.05 210.156 41.05H192.306C192.106 41.05 191.84 41.0333 191.506 41C191.206 40.9333 190.89 40.8667 190.556 40.8C190.223 40.7333 189.89 40.6667 189.556 40.6C189.256 40.5 189.04 40.4 188.906 40.3C188.74 40.2333 188.573 40.2333 188.406 40.3C188.24 40.3333 188.123 40.4333 188.056 40.6C187.99 40.8 187.923 41 187.856 41.2C187.823 41.4 187.773 41.5833 187.706 41.75C187.54 42.25 187.373 42.7833 187.206 43.35C187.04 43.9167 186.956 44.4167 186.956 44.85C186.956 45.1833 186.973 45.4 187.006 45.5C187.073 45.7 187.24 45.8167 187.506 45.85C187.773 45.8833 187.973 45.8 188.106 45.6C188.473 44.9333 188.956 44.3667 189.556 43.9C190.19 43.4333 190.873 43.2 191.606 43.2H197.956V64.25C197.956 64.85 197.923 65.3333 197.856 65.7C197.79 66.0333 197.673 66.3 197.506 66.5C197.34 66.7 197.09 66.85 196.756 66.95C196.423 67.0167 196.006 67.0833 195.506 67.15C195.206 67.2167 195.056 67.3833 195.056 67.65C195.09 67.9167 195.256 68.05 195.556 68.05C197.256 68.1167 198.94 68.1667 200.606 68.2C202.306 68.2333 204.006 68.25 205.706 68.25C205.973 68.25 206.156 68.1833 206.256 68.05C206.356 67.9167 206.356 67.7667 206.256 67.6C206.123 67.3333 205.89 67.1667 205.556 67.1C205.256 67.0333 204.923 66.9833 204.556 66.95C204.356 66.9167 204.106 66.8833 203.806 66.85C203.54 66.8167 203.34 66.7667 203.206 66.7H203.156C203.09 66.6667 203.023 66.5333 202.956 66.3C202.89 66.0333 202.823 65.75 202.756 65.45C202.723 65.1167 202.673 64.8167 202.606 64.55C202.573 64.25 202.556 64.05 202.556 63.95V43.25C202.79 43.3167 202.923 43.3333 202.956 43.3C203.023 43.2667 203.19 43.25 203.456 43.25C203.79 43.25 204.123 43.25 204.456 43.25C204.79 43.25 205.106 43.2333 205.406 43.2C205.706 43.1667 205.99 43.15 206.256 43.15C206.523 43.15 206.79 43.15 207.056 43.15C208.123 43.15 209.073 43.3167 209.906 43.65C210.773 43.95 211.323 44.6833 211.556 45.85C211.623 46.0833 211.806 46.2 212.106 46.2C212.44 46.2 212.64 46.0833 212.706 45.85C213.006 44.5167 213.156 43.1667 213.156 41.8ZM249.675 60.15C249.675 59.15 249.492 58.25 249.125 57.45C248.792 56.65 248.325 55.9333 247.725 55.3C247.125 54.6667 246.425 54.1333 245.625 53.7C244.859 53.2667 244.042 52.9167 243.175 52.65C244.042 51.8833 244.842 50.9833 245.575 49.95C246.342 48.9167 246.725 47.8167 246.725 46.65C246.725 45.5167 246.392 44.55 245.725 43.75C245.092 42.95 244.292 42.3 243.325 41.8C242.359 41.3 241.325 40.95 240.225 40.75C239.125 40.5167 238.125 40.4 237.225 40.4C236.592 40.4 235.959 40.4333 235.325 40.5C234.692 40.5333 234.075 40.5833 233.475 40.65C232.842 40.7167 232.242 40.7667 231.675 40.8C231.109 40.8333 230.525 40.85 229.925 40.85C229.725 40.85 229.509 40.85 229.275 40.85C229.075 40.8167 228.859 40.7833 228.625 40.75C228.325 40.7167 228.142 40.85 228.075 41.15C228.042 41.4167 228.175 41.5667 228.475 41.6C228.709 41.6333 228.992 41.7 229.325 41.8C229.659 41.9 229.959 42.05 230.225 42.25C230.492 42.4167 230.725 42.6167 230.925 42.85C231.125 43.0833 231.225 43.35 231.225 43.65V63.95C231.225 64.55 231.192 65.0333 231.125 65.4C231.059 65.7667 230.942 66.0667 230.775 66.3C230.609 66.5 230.359 66.6667 230.025 66.8C229.692 66.9 229.275 67.0167 228.775 67.15C228.475 67.2167 228.342 67.3833 228.375 67.65C228.409 67.9167 228.592 68.05 228.925 68.05C229.825 68.05 230.792 68.0667 231.825 68.1C232.892 68.1 233.859 68.1167 234.725 68.15C235.692 68.1833 236.642 68.2 237.575 68.2C238.542 68.2 239.509 68.2 240.475 68.2V68.15H240.575C240.842 68.15 241.075 68.15 241.275 68.15C241.509 68.15 241.709 68.1167 241.875 68.05H241.825C242.825 67.8833 243.792 67.5833 244.725 67.15C245.659 66.6833 246.492 66.1167 247.225 65.45C247.959 64.7833 248.542 64 248.975 63.1C249.442 62.2 249.675 61.2167 249.675 60.15ZM242.325 47.15C242.325 48.75 241.875 49.9833 240.975 50.85C240.109 51.6833 238.925 52.0667 237.425 52L235.875 51.95V42.6C236.542 42.4333 237.159 42.35 237.725 42.35C239.059 42.35 240.159 42.8 241.025 43.7C241.892 44.6 242.325 45.75 242.325 47.15ZM245.325 61C245.325 61.8 245.175 62.5333 244.875 63.2C244.609 63.8667 244.225 64.45 243.725 64.95C243.225 65.4167 242.642 65.7833 241.975 66.05C241.309 66.3167 240.592 66.45 239.825 66.45C239.492 66.45 239.092 66.4 238.625 66.3C238.192 66.1667 237.759 66 237.325 65.8C236.925 65.5667 236.575 65.2833 236.275 64.95C236.009 64.6167 235.875 64.2333 235.875 63.8V54.05L236.775 54C237.809 53.9333 238.825 54.0333 239.825 54.3C240.859 54.5667 241.775 55 242.575 55.6C243.409 56.2 244.075 56.95 244.575 57.85C245.075 58.75 245.325 59.8 245.325 61ZM281.827 67.95V67.05C281.094 66.9833 280.377 66.8333 279.677 66.6C278.977 66.3667 278.427 65.8667 278.027 65.1C276.76 62.8 275.594 60.4333 274.527 58C273.494 55.5333 272.46 53.1 271.427 50.7L269.227 45.55V45.6C269.16 45.5 269.094 45.3667 269.027 45.2C268.96 45 268.877 44.7833 268.777 44.55V44.6C268.61 44.2333 268.427 43.8167 268.227 43.35C268.027 42.8833 267.81 42.45 267.577 42.05C267.344 41.6167 267.11 41.2333 266.877 40.9C266.644 40.5667 266.41 40.35 266.177 40.25C265.81 40.15 265.56 40.2167 265.427 40.45C264.427 42.7833 263.427 45.1167 262.427 47.45C261.46 49.7833 260.494 52.1333 259.527 54.5C258.86 56.1 258.16 57.75 257.427 59.45C256.727 61.1167 256.044 62.75 255.377 64.35C255.21 64.65 254.977 64.9833 254.677 65.35C254.41 65.7167 254.11 66.05 253.777 66.35C253.444 66.6167 253.094 66.8167 252.727 66.95C252.36 67.0833 252.01 67.1 251.677 67L251.477 67.9L260.277 68.05C260.61 68.05 260.777 67.9167 260.777 67.65C260.81 67.35 260.66 67.1833 260.327 67.15C259.994 67.0833 259.61 67 259.177 66.9C258.744 66.7667 258.527 66.5167 258.527 66.15C258.527 65.85 258.627 65.35 258.827 64.65C259.06 63.9167 259.344 63.1333 259.677 62.3C260.01 61.4667 260.344 60.6333 260.677 59.8C261.01 58.9667 261.31 58.2833 261.577 57.75H269.627C270.327 59.3167 270.994 60.8167 271.627 62.25C272.26 63.6833 272.91 65.1833 273.577 66.75L273.127 67.3C272.927 67.4667 272.86 67.6333 272.927 67.8C273.027 67.9667 273.21 68.05 273.477 68.05C274.077 68.0833 274.66 68.1167 275.227 68.15C275.794 68.15 276.377 68.15 276.977 68.15C277.81 68.15 278.627 68.1333 279.427 68.1C280.227 68.0667 281.027 68.0167 281.827 67.95ZM268.727 55.6H262.377C263.01 54.1 263.544 52.7 263.977 51.4C264.444 50.0667 264.96 48.6667 265.527 47.2L268.727 55.6ZM304.904 41.8V41C304.904 40.6333 304.688 40.4833 304.254 40.55C304.054 40.5833 303.871 40.6167 303.704 40.65C303.538 40.65 303.404 40.6833 303.304 40.75H303.354C303.088 40.8167 302.821 40.8833 302.554 40.95C302.288 41.0167 302.071 41.05 301.904 41.05H284.054C283.854 41.05 283.588 41.0333 283.254 41C282.954 40.9333 282.638 40.8667 282.304 40.8C281.971 40.7333 281.638 40.6667 281.304 40.6C281.004 40.5 280.788 40.4 280.654 40.3C280.488 40.2333 280.321 40.2333 280.154 40.3C279.988 40.3333 279.871 40.4333 279.804 40.6C279.738 40.8 279.671 41 279.604 41.2C279.571 41.4 279.521 41.5833 279.454 41.75C279.288 42.25 279.121 42.7833 278.954 43.35C278.788 43.9167 278.704 44.4167 278.704 44.85C278.704 45.1833 278.721 45.4 278.754 45.5C278.821 45.7 278.988 45.8167 279.254 45.85C279.521 45.8833 279.721 45.8 279.854 45.6C280.221 44.9333 280.704 44.3667 281.304 43.9C281.938 43.4333 282.621 43.2 283.354 43.2H289.704V64.25C289.704 64.85 289.671 65.3333 289.604 65.7C289.538 66.0333 289.421 66.3 289.254 66.5C289.088 66.7 288.838 66.85 288.504 66.95C288.171 67.0167 287.754 67.0833 287.254 67.15C286.954 67.2167 286.804 67.3833 286.804 67.65C286.838 67.9167 287.004 68.05 287.304 68.05C289.004 68.1167 290.688 68.1667 292.354 68.2C294.054 68.2333 295.754 68.25 297.454 68.25C297.721 68.25 297.904 68.1833 298.004 68.05C298.104 67.9167 298.104 67.7667 298.004 67.6C297.871 67.3333 297.638 67.1667 297.304 67.1C297.004 67.0333 296.671 66.9833 296.304 66.95C296.104 66.9167 295.854 66.8833 295.554 66.85C295.288 66.8167 295.088 66.7667 294.954 66.7H294.904C294.838 66.6667 294.771 66.5333 294.704 66.3C294.638 66.0333 294.571 65.75 294.504 65.45C294.471 65.1167 294.421 64.8167 294.354 64.55C294.321 64.25 294.304 64.05 294.304 63.95V43.25C294.538 43.3167 294.671 43.3333 294.704 43.3C294.771 43.2667 294.938 43.25 295.204 43.25C295.538 43.25 295.871 43.25 296.204 43.25C296.538 43.25 296.854 43.2333 297.154 43.2C297.454 43.1667 297.738 43.15 298.004 43.15C298.271 43.15 298.538 43.15 298.804 43.15C299.871 43.15 300.821 43.3167 301.654 43.65C302.521 43.95 303.071 44.6833 303.304 45.85C303.371 46.0833 303.554 46.2 303.854 46.2C304.188 46.2 304.388 46.0833 304.454 45.85C304.754 44.5167 304.904 43.1667 304.904 41.8ZM333.566 41.8V41C333.566 40.6333 333.35 40.4833 332.916 40.55C332.716 40.5833 332.533 40.6167 332.366 40.65C332.2 40.65 332.066 40.6833 331.966 40.75H332.016C331.75 40.8167 331.483 40.8833 331.216 40.95C330.95 41.0167 330.733 41.05 330.566 41.05H312.716C312.516 41.05 312.25 41.0333 311.916 41C311.616 40.9333 311.3 40.8667 310.966 40.8C310.633 40.7333 310.3 40.6667 309.966 40.6C309.666 40.5 309.45 40.4 309.316 40.3C309.15 40.2333 308.983 40.2333 308.816 40.3C308.65 40.3333 308.533 40.4333 308.466 40.6C308.4 40.8 308.333 41 308.266 41.2C308.233 41.4 308.183 41.5833 308.116 41.75C307.95 42.25 307.783 42.7833 307.616 43.35C307.45 43.9167 307.366 44.4167 307.366 44.85C307.366 45.1833 307.383 45.4 307.416 45.5C307.483 45.7 307.65 45.8167 307.916 45.85C308.183 45.8833 308.383 45.8 308.516 45.6C308.883 44.9333 309.366 44.3667 309.966 43.9C310.6 43.4333 311.283 43.2 312.016 43.2H318.366V64.25C318.366 64.85 318.333 65.3333 318.266 65.7C318.2 66.0333 318.083 66.3 317.916 66.5C317.75 66.7 317.5 66.85 317.166 66.95C316.833 67.0167 316.416 67.0833 315.916 67.15C315.616 67.2167 315.466 67.3833 315.466 67.65C315.5 67.9167 315.666 68.05 315.966 68.05C317.666 68.1167 319.35 68.1667 321.016 68.2C322.716 68.2333 324.416 68.25 326.116 68.25C326.383 68.25 326.566 68.1833 326.666 68.05C326.766 67.9167 326.766 67.7667 326.666 67.6C326.533 67.3333 326.3 67.1667 325.966 67.1C325.666 67.0333 325.333 66.9833 324.966 66.95C324.766 66.9167 324.516 66.8833 324.216 66.85C323.95 66.8167 323.75 66.7667 323.616 66.7H323.566C323.5 66.6667 323.433 66.5333 323.366 66.3C323.3 66.0333 323.233 65.75 323.166 65.45C323.133 65.1167 323.083 64.8167 323.016 64.55C322.983 64.25 322.966 64.05 322.966 63.95V43.25C323.2 43.3167 323.333 43.3333 323.366 43.3C323.433 43.2667 323.6 43.25 323.866 43.25C324.2 43.25 324.533 43.25 324.866 43.25C325.2 43.25 325.516 43.2333 325.816 43.2C326.116 43.1667 326.4 43.15 326.666 43.15C326.933 43.15 327.2 43.15 327.466 43.15C328.533 43.15 329.483 43.3167 330.316 43.65C331.183 43.95 331.733 44.6833 331.966 45.85C332.033 46.0833 332.216 46.2 332.516 46.2C332.85 46.2 333.05 46.0833 333.116 45.85C333.416 44.5167 333.566 43.1667 333.566 41.8ZM356.229 62.95C356.229 62.7167 356.079 62.5833 355.779 62.55C355.479 62.4833 355.245 62.55 355.079 62.75C354.445 63.9167 353.545 64.8167 352.379 65.45C351.245 66.0833 350.062 66.4 348.829 66.4C348.229 66.4 347.629 66.3167 347.029 66.15C346.462 65.9833 345.945 65.7333 345.479 65.4C345.045 65.0667 344.679 64.65 344.379 64.15C344.112 63.65 343.979 63.0667 343.979 62.4V43.75C343.979 43.15 344.179 42.7 344.579 42.4C345.012 42.0667 345.512 41.9333 346.079 42H346.679C346.979 42 347.145 41.8833 347.179 41.65C347.212 41.3833 347.095 41.2167 346.829 41.15C346.129 40.95 345.395 40.8333 344.629 40.8C343.895 40.7667 343.162 40.75 342.429 40.75C341.929 40.75 341.429 40.7667 340.929 40.8C340.462 40.8 339.979 40.8 339.479 40.8H336.679C336.445 40.8 336.262 40.8667 336.129 41C336.029 41.1333 336.029 41.2833 336.129 41.45C336.229 41.65 336.445 41.8 336.779 41.9C337.145 41.9667 337.479 42.0167 337.779 42.05C338.145 42.0833 338.495 42.2 338.829 42.4C339.195 42.5667 339.379 43.0333 339.379 43.8V64.1C339.379 64.9667 339.229 65.6833 338.929 66.25C338.629 66.8167 338.029 67.1167 337.129 67.15C336.795 67.15 336.612 67.3 336.579 67.6C336.579 67.8667 336.745 68.0167 337.079 68.05C338.712 68.15 340.395 68.2 342.129 68.2C342.795 68.2 343.479 68.2 344.179 68.2C344.879 68.1667 345.562 68.15 346.229 68.15C347.029 68.1167 347.812 68.1 348.579 68.1C349.379 68.1 350.179 68.1 350.979 68.1C351.745 68.1 352.512 68.1167 353.279 68.15C354.079 68.15 354.862 68.1833 355.629 68.25L355.779 67.35C355.679 67.3167 355.612 67.3167 355.579 67.35C355.545 67.35 355.479 67.3333 355.379 67.3C355.712 66.7 355.912 66.0833 355.979 65.45C356.045 64.7833 356.112 64.1167 356.179 63.45C356.179 63.35 356.179 63.2667 356.179 63.2C356.212 63.1 356.229 63.0167 356.229 62.95ZM377.391 63.25C377.424 63.15 377.374 63.0667 377.241 63C377.141 62.9 377.024 62.85 376.891 62.85C376.757 62.8167 376.624 62.8333 376.491 62.9C376.357 62.9333 376.274 63 376.241 63.1C375.941 64.2667 375.341 65.1167 374.441 65.65C373.541 66.15 372.557 66.4 371.491 66.4C370.624 66.4 369.707 66.2333 368.741 65.9C367.774 65.5667 367.024 65.0333 366.491 64.3V54.6H367.141C367.541 54.6 368.041 54.6 368.641 54.6C369.241 54.6 369.841 54.6167 370.441 54.65C371.074 54.6833 371.641 54.75 372.141 54.85C372.641 54.9167 372.974 55.0167 373.141 55.15C373.241 55.2167 373.341 55.3833 373.441 55.65C373.574 55.9167 373.691 56.2 373.791 56.5C373.824 56.6667 373.824 56.8 373.791 56.9C373.791 56.9667 373.991 57.1167 374.391 57.35C374.557 57.4833 374.741 57.5167 374.941 57.45C375.141 57.3833 375.257 57.2667 375.291 57.1C375.357 56.6333 375.424 56.2 375.491 55.8C375.557 55.4 375.624 55 375.691 54.6C375.757 54.1667 375.807 53.65 375.841 53.05C375.907 52.45 375.974 51.9333 376.041 51.5C376.074 51.3333 376.007 51.2 375.841 51.1C375.707 50.9667 375.524 50.9333 375.291 51C375.091 51.0667 374.874 51.2167 374.641 51.45C374.441 51.6833 374.207 51.8667 373.941 52H373.991C373.691 52.1 373.407 52.2167 373.141 52.35C372.874 52.45 372.657 52.5 372.491 52.5H366.491V42.95H367.391C367.657 42.95 367.924 42.95 368.191 42.95C368.457 42.9167 368.707 42.9 368.941 42.9C369.207 42.9 369.457 42.9 369.691 42.9C369.957 42.8667 370.224 42.85 370.491 42.85C370.957 42.85 371.424 42.8833 371.891 42.95C372.357 43.0167 372.774 43.15 373.141 43.35C373.507 43.5167 373.807 43.7667 374.041 44.1C374.274 44.4333 374.407 44.8833 374.441 45.45C374.474 45.7167 374.657 45.85 374.991 45.85C375.324 45.85 375.524 45.7333 375.591 45.5C375.657 45.3 375.707 45.1 375.741 44.9C375.774 44.7 375.824 44.4833 375.891 44.25C376.024 43.7167 376.157 43.1833 376.291 42.65C376.424 42.1167 376.524 41.5333 376.591 40.9C376.624 40.7333 376.557 40.6 376.391 40.5C376.224 40.4 376.024 40.3833 375.791 40.45C375.324 40.6167 374.407 40.7333 373.041 40.8C371.674 40.8667 370.157 40.9 368.491 40.9C367.324 40.9 366.174 40.9 365.041 40.9C363.907 40.8667 362.857 40.8333 361.891 40.8C361.291 40.8 360.741 40.8 360.241 40.8C359.774 40.7667 359.391 40.75 359.091 40.75C358.791 40.75 358.591 40.85 358.491 41.05C358.391 41.25 358.474 41.4167 358.741 41.55C359.007 41.7167 359.274 41.8333 359.541 41.9C359.841 41.9667 360.124 42.0333 360.391 42.1C360.757 42.1667 361.091 42.3 361.391 42.5C361.724 42.6667 361.891 43.0333 361.891 43.6V64.1C361.891 65 361.741 65.7333 361.441 66.3C361.141 66.8333 360.524 67.1167 359.591 67.15C359.291 67.15 359.124 67.3 359.091 67.6C359.091 67.8667 359.241 68.0167 359.541 68.05C360.707 68.1167 361.891 68.15 363.091 68.15C364.291 68.1167 365.491 68.1 366.691 68.1C367.224 68.1 367.757 68.1 368.291 68.1C368.824 68.0667 369.357 68.05 369.891 68.05C370.124 68.05 370.524 68.0667 371.091 68.1C371.691 68.1 372.307 68.1167 372.941 68.15C373.607 68.15 374.224 68.15 374.791 68.15C375.357 68.15 375.741 68.1167 375.941 68.05L376.341 67.85L377.391 63.25Z" fill="black"/>
</svg>
