<svg width="453" height="107" viewBox="0 0 453 107" fill="none" xmlns="http://www.w3.org/2000/svg">
<path fill-rule="evenodd" clip-rule="evenodd" d="M56.8365 1C56.4965 1.55 56.7215 2 57.3363 2C57.9512 2 58.1881 2.43 57.8632 2.956C57.5383 3.482 56.7245 3.705 56.0546 3.45C55.3848 3.196 53.1323 4.509 51.0488 6.367C47.6026 9.441 47.4446 9.794 49.2992 10.28C50.4199 10.573 51.3377 10.405 51.3377 9.906C51.3377 8.339 53.1823 8.917 55.2458 11.132C57.2294 13.262 57.2294 13.266 55.0349 15.06C52.8874 16.815 52.7754 16.788 50.095 13.874C46.8368 10.331 46.9178 10.298 37.455 19.165C30.3106 25.861 28.741 27.928 32.2112 26.07C33.2379 25.52 34.4247 25.392 34.8466 25.785C35.2695 26.178 35.4024 25.825 35.1415 25C34.8366 24.034 35.7594 23.038 37.7349 22.201C39.9784 21.251 40.4423 20.681 39.4645 20.076C38.3807 19.407 38.3717 19.099 39.4155 18.453C40.9891 17.481 52.3375 17.162 52.3375 18.091C52.3375 19.453 49.1812 21.366 48.5124 20.408C47.7786 19.359 42.7947 19.212 41.796 20.21C40.8622 21.145 43.2976 25.144 44.3893 24.469C46.2619 23.312 45.2931 25.694 43.0257 27.826C40.7032 30.007 38.7407 30.78 39.7754 29.105C40.0803 28.612 39.7004 27.968 38.9316 27.673C37.267 27.034 33.3419 27.931 33.3419 28.95C33.3419 30.479 34.7206 30.93 36.0413 29.834C37.084 28.968 37.7099 28.969 38.5767 29.836C39.4445 30.704 39.0416 31.702 36.9401 33.897C34.6586 36.279 33.6718 36.669 31.4983 36.048C28.3311 35.144 23.9291 36.243 26.6045 37.27C27.4933 37.611 29.4458 37.668 30.9445 37.396C33.3289 36.963 33.5059 37.097 32.3641 38.473C31.6343 39.354 30.2796 39.797 29.2859 39.482C28.3101 39.172 27.1753 39.463 26.7634 40.129C26.2486 40.962 26.5345 41.141 27.6792 40.701C30.4866 39.624 29.5498 41.381 24.8649 45.979C22.4015 48.397 20.5629 50.551 20.7778 50.766C20.9928 50.981 30.1077 42.125 41.0341 31.086L60.8995 11.015L123.853 10.75L186.806 10.485L123.271 10.242C82.0196 10.085 59.3149 10.351 58.5361 11C57.6843 11.71 57.6083 11.67 58.2751 10.861C58.899 10.104 58.5101 9.151 57.1134 8.02C55.6607 6.844 55.3708 6.097 56.1746 5.6C56.8135 5.205 57.3363 5.319 57.3363 5.853C57.3363 6.386 59.5828 6.708 62.3282 6.568C66.4102 6.36 67.1161 6.558 66.2043 7.657C65.2735 8.778 74.4924 9 122.115 9C158.466 9 179.262 8.645 179.475 8.02C179.99 6.504 191.56 6.264 192.058 7.759C192.597 9.375 196.966 9.368 197.721 7.75C198.187 6.75 198.421 6.75 198.886 7.75C199.207 8.438 200.643 9 202.077 9C204.6 9 204.622 8.95 202.744 7.448C200.88 5.958 200.902 5.924 203.302 6.583C204.677 6.961 206.027 7.546 206.302 7.885C207.13 8.903 212.392 8.958 211.764 7.941C211.443 7.42 212.771 7 214.741 7C216.697 7 218.299 7.45 218.299 8C218.299 8.55 220.21 8.936 222.548 8.858L226.797 8.716L222.798 8.006C219.137 7.356 232.275 7.436 251.291 8.178C255.415 8.34 259.914 8.111 261.289 7.67C263.16 7.071 263.411 7.133 262.289 7.919C261.234 8.658 276.367 8.924 313.277 8.817C342.145 8.733 363.065 8.365 359.766 8L353.767 7.336L360.516 7.168C364.46 7.07 367.264 7.415 367.264 8C367.264 9.466 369.188 9.219 370.869 7.537C372.868 5.537 381.818 5.624 380.155 7.627C379.228 8.746 379.733 9.045 382.889 9.241C385.017 9.374 349.194 9.716 303.279 10L219.799 10.517L305.288 10.759L390.777 11L411.254 31.5C427.986 48.251 431.287 52 429.303 52C427.476 52 422.214 47.29 408.074 33L389.273 14H226.044H62.8151L43.8295 33.036C28.68 48.225 24.339 52.043 22.3445 51.93C20.9698 51.852 19.3992 51.836 18.8543 51.894C18.3094 51.952 27.5283 61.675 39.3405 73.5L60.8185 95H225.974H391.13L412.125 73.775C427.421 58.312 432.848 52.221 432.115 51.339C431.437 50.522 431.476 49.375 432.235 47.814C433.241 45.744 433.211 45.684 431.951 47.241C430.622 48.884 430.438 48.866 428.681 46.924L426.819 44.866L435.078 45.282L443.337 45.699L439.772 42.76C436.711 40.236 435.295 39.799 429.729 39.661C426.166 39.572 423.126 39.872 422.975 40.327C422.824 40.781 421.878 40.244 420.871 39.132C419.047 37.116 419.063 37.112 426.861 37.668C433.542 38.144 434.509 38.018 433.502 36.805C432.404 35.482 425.097 35.255 420.091 36.39C419.14 36.605 416.847 35.144 414.725 32.971L411.019 29.175L418.885 29.696C425.043 30.103 426.499 29.952 425.592 28.999C424.472 27.823 413.055 27.387 411.328 28.454C410.884 28.728 409.751 28.102 408.81 27.061C406.959 25.016 407.15 25.005 419.14 26.497L422.526 26.919L416.641 21.357C413.403 18.298 407 12.241 402.412 7.898L394.07 0H225.762C114.635 0 57.2444 0.34 56.8365 1ZM65.8344 3C66.1863 3.569 65.3255 4 63.8348 4C62.3442 4 61.4834 3.569 61.8353 3C62.1752 2.45 63.075 2 63.8348 2C64.5947 2 65.4944 2.45 65.8344 3ZM226.297 3C226.297 3.55 225.82 4 225.238 4C224.656 4 224.458 3.55 224.797 3C225.137 2.45 225.613 2 225.856 2C226.099 2 226.297 2.45 226.297 3ZM378.262 3C378.262 3.55 377.56 4 376.703 4C375.846 4 375.422 3.55 375.762 3C376.102 2.45 376.803 2 377.321 2C377.839 2 378.262 2.45 378.262 3ZM385.26 3C386.425 3.753 386.132 3.973 383.951 3.985C382.331 3.994 381.404 3.577 381.761 3C382.528 1.758 383.34 1.758 385.26 3ZM389.094 7.123C388.36 7.589 386.635 7.962 385.26 7.953C382.938 7.938 382.888 7.84 384.556 6.574C385.545 5.825 387.27 5.451 388.39 5.745C389.946 6.151 390.112 6.478 389.094 7.123ZM54.337 7C54.337 7.55 53.8871 8 53.3373 8C52.7874 8 52.3375 7.55 52.3375 7C52.3375 6.45 52.7874 6 53.3373 6C53.8871 6 54.337 6.45 54.337 7ZM258.019 6.604C257.687 6.936 256.824 6.972 256.103 6.683C255.305 6.364 255.542 6.127 256.707 6.079C257.761 6.036 258.351 6.272 258.019 6.604ZM284.358 7.772C274.776 7.924 266.587 7.7 266.16 7.274C265.733 6.848 273.572 6.724 283.582 6.998L301.78 7.495L284.358 7.772ZM331.273 7C332.445 7.758 332.186 7.973 330.082 7.985C328.602 7.993 327.114 7.55 326.774 7C325.985 5.723 329.297 5.723 331.273 7ZM395.258 7.545C395.258 7.727 394.389 7.81 393.327 7.73C392.266 7.65 391.606 7.248 391.86 6.836C392.283 6.153 395.258 6.773 395.258 7.545ZM59.3359 8C59.3359 8.55 60.5726 8.968 62.0852 8.93C64.5217 8.867 64.6066 8.762 62.8351 8C60.1047 6.826 59.3359 6.826 59.3359 8ZM72.6018 7.656C71.9249 7.93 70.5753 7.947 69.6025 7.693C68.6297 7.439 69.1836 7.215 70.8332 7.195C72.4828 7.175 73.2786 7.382 72.6018 7.656ZM82.0596 7.604C81.7277 7.936 80.8649 7.972 80.144 7.683C79.3462 7.364 79.5832 7.127 80.7479 7.079C81.8017 7.036 82.3915 7.272 82.0596 7.604ZM90.0907 7.687C89.1349 7.937 87.3354 7.946 86.0917 7.707C84.8479 7.468 85.6298 7.263 87.8292 7.252C90.0287 7.241 91.0465 7.437 90.0907 7.687ZM105.589 7.704C104.359 7.941 102.11 7.947 100.59 7.718C99.0706 7.488 100.076 7.294 102.826 7.286C105.575 7.279 106.819 7.467 105.589 7.704ZM112.053 7.604C111.721 7.936 110.858 7.972 110.137 7.683C109.339 7.364 109.576 7.127 110.741 7.079C111.795 7.036 112.385 7.272 112.053 7.604ZM128.07 7.716C126.558 7.945 124.083 7.945 122.571 7.716C121.06 7.487 122.296 7.3 125.321 7.3C128.345 7.3 129.582 7.487 128.07 7.716ZM144.566 7.706C143.328 7.944 141.305 7.944 140.067 7.706C138.829 7.467 139.842 7.272 142.317 7.272C144.791 7.272 145.804 7.467 144.566 7.706ZM173.098 7.738C169.958 7.936 164.559 7.937 161.101 7.741C157.643 7.546 160.212 7.384 166.811 7.382C173.409 7.38 176.239 7.54 173.098 7.738ZM186.306 8C186.306 8.55 186.783 9 187.365 9C187.947 9 188.146 8.55 187.806 8C187.466 7.45 186.99 7 186.747 7C186.504 7 186.306 7.45 186.306 8ZM248.021 7.604C247.689 7.936 246.826 7.972 246.105 7.683C245.308 7.364 245.545 7.127 246.709 7.079C247.763 7.036 248.353 7.272 248.021 7.604ZM318.526 7.732C316.189 7.943 312.364 7.943 310.028 7.732C307.691 7.522 309.603 7.349 314.277 7.349C318.951 7.349 320.862 7.522 318.526 7.732ZM336.001 7.604C335.669 7.936 334.806 7.972 334.085 7.683C333.287 7.364 333.524 7.127 334.689 7.079C335.743 7.036 336.333 7.272 336.001 7.604ZM342.539 7.656C341.862 7.93 340.513 7.947 339.54 7.693C338.567 7.439 339.121 7.215 340.77 7.195C342.42 7.175 343.216 7.382 342.539 7.656ZM352.03 7.687C351.074 7.937 349.275 7.946 348.031 7.707C346.787 7.468 347.569 7.263 349.768 7.252C351.968 7.241 352.986 7.437 352.03 7.687ZM374.263 8C374.263 8.55 374.713 9 375.262 9C375.812 9 376.262 8.55 376.262 8C376.262 7.45 375.812 7 375.262 7C374.713 7 374.263 7.45 374.263 8ZM183.12 8.683C183.841 8.972 184.704 8.936 185.036 8.604C185.368 8.272 184.778 8.036 183.724 8.079C182.559 8.127 182.322 8.364 183.12 8.683ZM229.058 8.707C230.302 8.946 232.102 8.937 233.057 8.687C234.013 8.437 232.996 8.241 230.796 8.252C228.597 8.263 227.815 8.468 229.058 8.707ZM188.119 10.683C188.84 10.972 189.703 10.936 190.035 10.604C190.366 10.272 189.777 10.036 188.723 10.079C187.558 10.127 187.321 10.364 188.119 10.683ZM192.118 10.683C192.839 10.972 193.702 10.936 194.034 10.604C194.366 10.272 193.776 10.036 192.722 10.079C191.557 10.127 191.32 10.364 192.118 10.683ZM196.054 10.662C196.742 10.94 197.867 10.94 198.554 10.662C199.241 10.385 198.678 10.158 197.304 10.158C195.929 10.158 195.367 10.385 196.054 10.662ZM202.572 10.693C203.544 10.947 204.894 10.93 205.571 10.656C206.248 10.382 205.452 10.175 203.802 10.195C202.153 10.215 201.599 10.439 202.572 10.693ZM214.569 10.693C215.542 10.947 216.891 10.93 217.568 10.656C218.245 10.382 217.449 10.175 215.8 10.195C214.15 10.215 213.596 10.439 214.569 10.693ZM398.766 11.015C399.101 11.557 398.336 12.014 397.066 12.032C394.834 12.063 394.821 12.111 396.676 13.515C398.208 14.675 398.893 14.719 400.089 13.733C401.388 12.661 401.427 12.794 400.386 14.75C398.971 17.404 399.865 17.665 402.427 15.345C403.433 14.435 404.256 14.162 404.256 14.738C404.256 15.314 403.581 16.045 402.756 16.362C399.838 17.482 401.31 18.548 405.256 18.171C407.739 17.935 409.255 18.209 409.255 18.895C409.255 19.503 407.819 20 406.064 20C403.157 20 403.036 20.119 404.701 21.336C405.817 22.153 408.179 22.507 410.776 22.248C413.114 22.015 415.306 22.276 415.648 22.829C416.029 23.447 414.943 23.73 412.836 23.563C410.948 23.413 408.807 23.661 408.079 24.113C407.167 24.68 404.654 22.853 400.007 18.245C396.296 14.565 393.258 11.302 393.258 10.995C393.258 9.988 398.143 10.006 398.766 11.015ZM403.756 11C404.096 11.55 403.897 12 403.315 12C402.733 12 402.256 11.55 402.256 11C402.256 10.45 402.454 10 402.697 10C402.94 10 403.416 10.45 403.756 11ZM51.2478 13.111C52.8904 14.453 53.9831 14.754 54.68 14.057C56.0456 12.691 55.0009 11.796 51.6207 11.437L48.8383 11.142L51.2478 13.111ZM202.489 12.748C211.663 12.913 226.96 12.913 236.481 12.749C246.002 12.584 238.494 12.449 219.799 12.449C201.103 12.449 193.314 12.583 202.489 12.748ZM47.3477 15.489C46.099 16.994 44.3394 16.673 44.3394 14.941C44.3394 14.423 45.2941 14 46.4609 14C48.2275 14 48.3764 14.25 47.3477 15.489ZM7.34795 16.044C7.34795 17.34 12.4448 37.196 12.9456 37.85C13.0926 38.043 13.6495 37.931 14.1824 37.601C14.7932 37.224 14.6842 35.43 13.8904 32.751C11.8489 25.87 11.0931 20.725 12.2278 21.426C12.7817 21.769 16.4098 22.079 20.2889 22.115C24.169 22.152 27.3433 22.619 27.3433 23.154C27.3433 23.688 26.5555 24.046 25.5937 23.948C24.6319 23.85 23.3942 23.863 22.8444 23.978C22.2945 24.092 19.932 24.11 17.5956 24.017C14.9462 23.912 13.3466 24.285 13.3466 25.007C13.3466 25.789 15.0981 26.04 18.7373 25.781C22.8663 25.487 24.0121 25.702 23.6292 26.699C23.3552 27.414 21.9985 28 20.6159 28C18.4564 28 18.2824 28.22 19.3872 29.551C20.4739 30.86 20.3379 31.189 18.5094 31.667C16.6158 32.163 15.3661 34 16.9237 34C17.7755 34 32.3421 20.777 32.3421 20.004C32.3421 19.642 27.2813 18.772 21.0948 18.071C14.9092 17.37 9.2855 16.337 8.59766 15.776C7.71687 15.056 7.34795 15.135 7.34795 16.044ZM440.892 17.766C440.586 18.261 435.834 19.239 430.332 19.941L420.327 21.216L426.038 26.358C429.179 29.186 432.984 32.782 434.492 34.349C437.618 37.595 437.275 38.083 440.259 26.134C442.147 18.576 442.392 15.339 440.892 17.766ZM17.2626 19.644C17.4916 19.84 16.0289 20 14.0134 20C11.9969 20 10.3473 19.561 10.3473 19.025C10.3473 18.164 16.1379 18.682 17.2626 19.644ZM439.248 21C439.248 21.55 438.236 21.968 436.998 21.93C434.852 21.863 434.841 21.82 436.748 21C437.848 20.527 438.861 20.109 438.998 20.07C439.135 20.032 439.248 20.45 439.248 21ZM48.1405 22.531C47.0587 23.614 43.3396 23.849 43.3396 22.836C43.3396 22.258 44.0004 22.04 44.8072 22.349C45.6141 22.659 46.5588 22.452 46.9068 21.89C47.2547 21.327 47.7936 21.122 48.1055 21.433C48.4164 21.745 48.4324 22.239 48.1405 22.531ZM433.978 21.604C433.646 21.936 432.783 21.972 432.062 21.683C431.264 21.364 431.501 21.127 432.666 21.079C433.72 21.036 434.31 21.272 433.978 21.604ZM37.8869 23.925C37.5709 24.437 38.2518 25.154 39.4015 25.519C42.2388 26.42 42.9917 25.419 40.4863 24.078C39.2685 23.426 38.2328 23.365 37.8869 23.925ZM437.852 25.589C437.584 26.287 437.065 28.461 436.697 30.42C436.329 32.379 435.648 33.747 435.183 33.459C434.717 33.171 434.59 32.275 434.9 31.468C435.282 30.472 434.805 30 433.415 30C432.289 30 431.09 29.55 430.75 29C430.389 28.417 431.405 28 433.19 28C434.872 28 436.248 27.55 436.248 27C436.248 26.45 434.197 26 431.69 26C428.859 26 427.37 25.615 427.76 24.984C428.719 23.432 438.456 24.016 437.852 25.589ZM27.3433 28.5C26.2916 29.767 26.4965 30 28.662 30C31.6793 30 33.015 28.472 30.7545 27.605C28.672 26.805 28.771 26.779 27.3433 28.5ZM15.1591 28.683C15.88 28.972 16.7428 28.936 17.0747 28.604C17.4066 28.272 16.8168 28.036 15.763 28.079C14.5983 28.127 14.3613 28.364 15.1591 28.683ZM415.783 30.951C414.54 32.963 416.226 33.699 422.047 33.685C425.271 33.677 428.435 33.996 429.079 34.394C429.723 34.792 430.25 34.664 430.25 34.109C430.25 32.297 426.998 31.224 423.095 31.748C420.874 32.046 418.676 31.767 417.852 31.082C416.882 30.277 416.225 30.235 415.783 30.951ZM20.9278 34.542C17.1857 37.847 17.5566 38.843 21.8446 37C23.2133 36.412 23.3712 36.106 22.3445 36.03C21.4667 35.966 21.9856 35.301 23.5942 34.428C25.1068 33.607 26.3435 32.5 26.3435 31.968C26.3435 30.312 24.9869 30.957 20.9278 34.542ZM31.3424 31.858C31.3424 33.759 34.7106 34.057 36.2692 32.294C37.133 31.315 37.21 31.053 36.4382 31.71C35.4664 32.538 34.4667 32.602 33.1889 31.918C32.0962 31.333 31.3424 31.309 31.3424 31.858ZM14.4173 40.415C13.6865 41.295 14.8182 41.585 18.8923 41.562C21.8906 41.545 24.344 41.187 24.344 40.766C24.344 40.344 23.7821 39.971 23.0943 39.936C22.4075 39.901 20.3929 39.729 18.6193 39.554C16.8457 39.379 14.9552 39.767 14.4173 40.415ZM438.244 42.596C439.034 43.386 437.761 43.74 433.649 43.874C430.521 43.977 427.637 44.261 427.239 44.507C426.843 44.752 425.753 44.108 424.819 43.075C423.17 41.253 423.33 41.201 430.136 41.35C433.995 41.435 437.644 41.996 438.244 42.596ZM10.7742 44.479C9.7144 45.28 9.2975 45.944 9.84737 45.953C11.333 45.977 13.8724 44.192 13.2446 43.565C12.9456 43.265 11.8339 43.677 10.7742 44.479ZM15.0502 44.204C14.3283 44.663 14.9702 44.975 16.6548 44.985C18.6333 44.995 19.2412 45.369 18.7123 46.25C18.1774 47.141 18.4344 47.117 19.6091 46.164C20.5159 45.429 21.6956 45.099 22.2315 45.43C22.7674 45.762 23.4592 45.622 23.7691 45.121C24.474 43.98 16.6898 43.162 15.0502 44.204ZM68.3998 47.035C70.9272 48.389 70.8422 49.755 68.0838 52.056C65.3435 54.343 63.4629 54.498 62.6971 52.5C62.3802 51.675 61.4944 51 60.7285 51C58.893 51 58.97 50.062 60.9905 47.829C62.8461 45.778 65.5164 45.492 68.3998 47.035ZM391.608 48.178C392.434 49.5 392.138 50.289 390.209 51.895C387.272 54.339 385.674 54.522 384.898 52.5C384.582 51.675 383.635 51 382.792 51C380.81 51 380.856 50.104 382.96 47.78C385.021 45.502 390.078 45.734 391.608 48.178ZM6.34818 48.5C4.9975 50.128 5.32042 50.332 7.76585 49.393C8.63565 49.059 9.34749 48.384 9.34749 47.893C9.34749 46.51 7.72786 46.838 6.34818 48.5ZM437.05 48.128C437.434 48.474 439.924 48.985 442.584 49.265C446.101 49.635 447.12 49.474 446.32 48.674C445.715 48.069 443.225 47.557 440.786 47.537C438.347 47.517 436.665 47.783 437.05 48.128ZM12.1088 48.707C13.3526 48.946 15.1521 48.937 16.1079 48.687C17.0637 48.437 16.0459 48.241 13.8464 48.252C11.647 48.263 10.8651 48.468 12.1088 48.707ZM18.3454 49.059C18.3454 49.641 18.7953 49.84 19.3452 49.5C19.895 49.16 20.3449 48.684 20.3449 48.441C20.3449 48.198 19.895 48 19.3452 48C18.7953 48 18.3454 48.477 18.3454 49.059ZM433.749 49C434.089 49.55 434.565 50 434.808 50C435.051 50 435.249 49.55 435.249 49C435.249 48.45 434.772 48 434.19 48C433.608 48 433.409 48.45 433.749 49ZM5.11647 52.168C5.69833 52.75 6.76309 53.028 7.48492 52.788C8.23375 52.538 7.77985 52.085 6.42816 51.731C4.76555 51.296 4.37464 51.426 5.11647 52.168ZM446.238 52.107C445.112 52.88 445.36 52.973 447.246 52.486C449.074 52.014 447.331 54.211 440.747 60.672C431.367 69.877 406.038 93.689 398.257 100.616L393.758 104.621L225.703 104.55L57.6473 104.479L35.7474 83.9C2.92498 53.058 1.49131 51.785 0.11863 52.256C-0.621199 52.51 2.15916 55.822 6.79008 60.205L14.7312 67.718L12.4668 76.953C9.85637 87.6 10.0313 89.938 12.7327 80.503C14.6503 73.804 14.6633 73.797 19.3162 76.804C19.5751 76.972 19.1252 77.527 18.3164 78.039C17.2027 78.743 17.5216 78.973 19.6261 78.985C21.1947 78.993 22.6644 79.67 22.9973 80.537C23.3212 81.382 24.9939 82.823 26.7145 83.738L29.8427 85.402L25.3438 86.068C22.8693 86.435 18.2574 87.052 15.0962 87.439C11.593 87.869 9.34749 88.625 9.34749 89.375C9.34749 90.341 11.7639 90.312 20.5949 89.239C28.641 88.262 32.3361 88.176 33.5779 88.936C34.5326 89.521 35.9873 90 36.8101 90C37.6319 90 42.5308 93.825 47.6966 98.5L57.0874 107H226.205H395.323L403.038 99.515C413.73 89.144 417.504 87.764 431.064 89.269C436.631 89.887 441.501 90.08 441.884 89.696C443.205 88.375 442.195 88.126 428.5 86.39C425.614 86.024 423.251 85.337 423.251 84.862C423.251 84.388 423.678 84 424.199 84C424.721 84 426.362 82.875 427.845 81.5C429.328 80.125 431.361 79 432.364 79C433.495 79 433.987 78.481 433.661 77.631C433.35 76.821 433.97 76.045 435.181 75.728C436.865 75.287 437.432 75.882 438.397 79.103C440.193 85.102 440.471 83.06 438.821 75.983C437.872 71.913 437.676 69.07 438.268 67.963C438.773 67.02 442.349 63.193 446.216 59.459C450.083 55.724 453.134 52.582 452.995 52.475C451.768 51.528 447.427 51.291 446.238 52.107ZM439.061 52.683C439.781 52.972 440.644 52.936 440.976 52.604C441.308 52.272 440.718 52.036 439.665 52.079C438.5 52.127 438.263 52.364 439.061 52.683ZM442.247 53.059C442.247 53.641 442.697 53.84 443.247 53.5C443.797 53.16 444.246 52.684 444.246 52.441C444.246 52.198 443.797 52 443.247 52C442.697 52 442.247 52.477 442.247 53.059ZM439.517 56.693C440.489 56.947 441.839 56.93 442.516 56.656C443.193 56.382 442.397 56.175 440.747 56.195C439.098 56.215 438.544 56.439 439.517 56.693ZM440.326 85.583C440.374 86.748 440.611 86.985 440.93 86.188C441.219 85.466 441.183 84.603 440.851 84.271C440.519 83.939 440.283 84.529 440.326 85.583Z" fill="#E26D00"/>
<path d="M152.76 64.64L152.52 63.96C151.72 64.0667 150.92 63.9333 150.12 63.56C149.32 63.16 148.533 62.64 147.76 62C146.987 61.36 146.24 60.64 145.52 59.84C144.8 59.04 144.12 58.2533 143.48 57.48C143.08 57 142.68 56.5467 142.28 56.12C141.907 55.6667 141.52 55.24 141.12 54.84C141.573 54.44 142.013 54 142.44 53.52C142.893 53.0133 143.293 52.48 143.64 51.92C144.013 51.36 144.307 50.7733 144.52 50.16C144.76 49.5467 144.88 48.9333 144.88 48.32C144.88 47.0933 144.587 46.12 144 45.4C143.44 44.68 142.72 44.1333 141.84 43.76C140.96 43.3867 139.973 43.1467 138.88 43.04C137.813 42.9333 136.787 42.88 135.8 42.88C135.507 42.88 135.227 42.8933 134.96 42.92C134.72 42.92 134.467 42.92 134.2 42.92H133.36C132.933 42.92 132.533 42.92 132.16 42.92C131.787 42.92 131.387 42.9067 130.96 42.88C130.64 42.8533 130.32 42.84 130 42.84C129.68 42.84 129.373 42.84 129.08 42.84H128.48C128.267 42.84 128.12 42.8933 128.04 43C127.96 43.1067 127.973 43.2267 128.08 43.36C128.213 43.5733 128.387 43.7067 128.6 43.76C128.813 43.8133 129.067 43.8533 129.36 43.88C129.653 43.9067 129.933 43.9867 130.2 44.12C130.493 44.2533 130.64 44.64 130.64 45.28V61.52C130.64 62.0267 130.613 62.44 130.56 62.76C130.533 63.0533 130.453 63.28 130.32 63.44C130.187 63.6 129.987 63.72 129.72 63.8C129.48 63.8533 129.147 63.9067 128.72 63.96C128.48 64.0133 128.36 64.1467 128.36 64.36C128.387 64.5467 128.52 64.6533 128.76 64.68C130.12 64.76 131.467 64.8133 132.8 64.84C134.16 64.84 135.52 64.84 136.88 64.84C137.12 64.84 137.28 64.76 137.36 64.6C137.44 64.44 137.373 64.3067 137.16 64.2C136.947 64.04 136.707 63.9467 136.44 63.92C136.2 63.8667 135.96 63.8267 135.72 63.8C135.587 63.7733 135.427 63.76 135.24 63.76C135.08 63.76 134.96 63.7333 134.88 63.68C134.827 63.6533 134.76 63.5467 134.68 63.36C134.627 63.1467 134.573 62.92 134.52 62.68C134.467 62.4133 134.413 62.1733 134.36 61.96C134.333 61.72 134.32 61.5467 134.32 61.44V56.16C134.533 56.1333 134.667 56.1333 134.72 56.16C134.8 56.16 134.947 56.16 135.16 56.16C135.747 56.16 136.387 56.2133 137.08 56.32C137.8 56.4 138.387 56.64 138.84 57.04C139.347 57.4667 139.827 57.9467 140.28 58.48C140.733 59.0133 141.187 59.5733 141.64 60.16C142.147 60.8 142.667 61.4267 143.2 62.04C143.733 62.6533 144.307 63.2 144.92 63.68C145.533 64.16 146.213 64.5467 146.96 64.84C147.707 65.1333 148.547 65.28 149.48 65.28C150.653 65.28 151.747 65.0667 152.76 64.64ZM141.12 49.8C141.12 51.16 140.787 52.24 140.12 53.04C139.453 53.84 138.467 54.24 137.16 54.24C136.707 54.24 136.227 54.2267 135.72 54.2C135.24 54.1733 134.773 54.1333 134.32 54.08V44.44C134.907 44.28 135.52 44.2 136.16 44.2C136.907 44.2 137.587 44.36 138.2 44.68C138.813 44.9733 139.333 45.3733 139.76 45.88C140.213 46.3867 140.547 46.9867 140.76 47.68C141 48.3467 141.12 49.0533 141.12 49.8ZM170.07 60.8C170.097 60.72 170.057 60.6533 169.95 60.6C169.87 60.52 169.777 60.48 169.67 60.48C169.564 60.4533 169.457 60.4667 169.35 60.52C169.244 60.5467 169.177 60.6 169.15 60.68C168.91 61.6133 168.43 62.2933 167.71 62.72C166.99 63.12 166.204 63.32 165.35 63.32C164.657 63.32 163.924 63.1867 163.15 62.92C162.377 62.6533 161.777 62.2267 161.35 61.64V53.88H161.87C162.19 53.88 162.59 53.88 163.07 53.88C163.55 53.88 164.03 53.8933 164.51 53.92C165.017 53.9467 165.47 54 165.87 54.08C166.27 54.1333 166.537 54.2133 166.67 54.32C166.75 54.3733 166.83 54.5067 166.91 54.72C167.017 54.9333 167.11 55.16 167.19 55.4C167.217 55.5333 167.217 55.64 167.19 55.72C167.19 55.7733 167.35 55.8933 167.67 56.08C167.804 56.1867 167.95 56.2133 168.11 56.16C168.27 56.1067 168.364 56.0133 168.39 55.88C168.444 55.5067 168.497 55.16 168.55 54.84C168.604 54.52 168.657 54.2 168.71 53.88C168.764 53.5333 168.804 53.12 168.83 52.64C168.884 52.16 168.937 51.7467 168.99 51.4C169.017 51.2667 168.964 51.16 168.83 51.08C168.724 50.9733 168.577 50.9467 168.39 51C168.23 51.0533 168.057 51.1733 167.87 51.36C167.71 51.5467 167.524 51.6933 167.31 51.8H167.35C167.11 51.88 166.884 51.9733 166.67 52.08C166.457 52.16 166.284 52.2 166.15 52.2H161.35V44.56H162.07C162.284 44.56 162.497 44.56 162.71 44.56C162.924 44.5333 163.124 44.52 163.31 44.52C163.524 44.52 163.724 44.52 163.91 44.52C164.124 44.4933 164.337 44.48 164.55 44.48C164.924 44.48 165.297 44.5067 165.67 44.56C166.044 44.6133 166.377 44.72 166.67 44.88C166.964 45.0133 167.204 45.2133 167.39 45.48C167.577 45.7467 167.684 46.1067 167.71 46.56C167.737 46.7733 167.884 46.88 168.15 46.88C168.417 46.88 168.577 46.7867 168.63 46.6C168.684 46.44 168.724 46.28 168.75 46.12C168.777 45.96 168.817 45.7867 168.87 45.6C168.977 45.1733 169.084 44.7467 169.19 44.32C169.297 43.8933 169.377 43.4267 169.43 42.92C169.457 42.7867 169.404 42.68 169.27 42.6C169.137 42.52 168.977 42.5067 168.79 42.56C168.417 42.6933 167.684 42.7867 166.59 42.84C165.497 42.8933 164.284 42.92 162.95 42.92C162.017 42.92 161.097 42.92 160.19 42.92C159.284 42.8933 158.444 42.8667 157.67 42.84C157.19 42.84 156.75 42.84 156.35 42.84C155.977 42.8133 155.67 42.8 155.43 42.8C155.19 42.8 155.03 42.88 154.95 43.04C154.87 43.2 154.937 43.3333 155.15 43.44C155.364 43.5733 155.577 43.6667 155.79 43.72C156.03 43.7733 156.257 43.8267 156.47 43.88C156.764 43.9333 157.03 44.04 157.27 44.2C157.537 44.3333 157.67 44.6267 157.67 45.08V61.48C157.67 62.2 157.55 62.7867 157.31 63.24C157.07 63.6667 156.577 63.8933 155.83 63.92C155.59 63.92 155.457 64.04 155.43 64.28C155.43 64.4933 155.55 64.6133 155.79 64.64C156.724 64.6933 157.67 64.72 158.63 64.72C159.59 64.6933 160.55 64.68 161.51 64.68C161.937 64.68 162.364 64.68 162.79 64.68C163.217 64.6533 163.644 64.64 164.07 64.64C164.257 64.64 164.577 64.6533 165.03 64.68C165.51 64.68 166.004 64.6933 166.51 64.72C167.044 64.72 167.537 64.72 167.99 64.72C168.444 64.72 168.75 64.6933 168.91 64.64L169.23 64.48L170.07 60.8ZM196.385 54.44L196.345 53.76C195.039 53.7067 193.732 53.68 192.425 53.68C191.145 53.6533 189.839 53.64 188.505 53.64C188.265 53.64 188.119 53.7333 188.065 53.92C188.012 54.1067 188.092 54.24 188.305 54.32C188.679 54.48 189.065 54.6 189.465 54.68C189.759 54.76 190.052 54.88 190.345 55.04C190.639 55.1733 190.785 55.4267 190.785 55.8V62.24C190.252 62.6667 189.639 62.9467 188.945 63.08C188.279 63.1867 187.625 63.24 186.985 63.24C185.519 63.24 184.092 62.9867 182.705 62.48C181.319 61.9733 180.092 61.2667 179.025 60.36C177.959 59.4267 177.092 58.32 176.425 57.04C175.785 55.7333 175.465 54.2933 175.465 52.72C175.465 51.28 175.759 50.0133 176.345 48.92C176.932 47.8 177.705 46.8667 178.665 46.12C179.652 45.3467 180.759 44.7733 181.985 44.4C183.239 44 184.519 43.8 185.825 43.8C186.599 43.8 187.372 43.88 188.145 44.04C188.945 44.2 189.665 44.4667 190.305 44.84C190.972 45.1867 191.545 45.6533 192.025 46.24C192.505 46.8267 192.825 47.5467 192.985 48.4C193.039 48.5333 193.132 48.6267 193.265 48.68C193.399 48.7067 193.532 48.6933 193.665 48.64C193.879 48.56 194.039 48.28 194.145 47.8C194.279 47.32 194.372 46.8 194.425 46.24C194.505 45.6533 194.545 45.1067 194.545 44.6C194.572 44.0667 194.585 43.7067 194.585 43.52C194.585 43.3067 194.452 43.2 194.185 43.2C193.705 43.1467 193.225 43.0933 192.745 43.04C192.265 42.96 191.785 42.8933 191.305 42.84C190.425 42.7067 189.479 42.6 188.465 42.52C187.479 42.4133 186.519 42.36 185.585 42.36C183.905 42.36 182.252 42.5733 180.625 43C178.999 43.4 177.545 44.04 176.265 44.92C174.985 45.8 173.945 46.9333 173.145 48.32C172.345 49.68 171.945 51.3067 171.945 53.2C171.945 54.8533 172.239 56.3867 172.825 57.8C173.412 59.1867 174.225 60.4 175.265 61.44C176.305 62.48 177.532 63.32 178.945 63.96C180.359 64.5733 181.879 64.9333 183.505 65.04C184.012 65.0667 184.505 65.0933 184.985 65.12C185.465 65.12 185.959 65.12 186.465 65.12C187.105 65.12 187.772 65.1067 188.465 65.08C189.159 65.0267 189.839 64.9467 190.505 64.84C191.199 64.7333 191.865 64.5733 192.505 64.36C193.145 64.1467 193.732 63.8667 194.265 63.52C194.319 63.4933 194.359 63.4533 194.385 63.4C194.439 63.32 194.465 63.2533 194.465 63.2V55.88C194.465 55.3733 194.679 55.0267 195.105 54.84C195.532 54.6533 195.959 54.52 196.385 54.44ZM223.541 64.64L223.301 63.96C222.501 64.0667 221.701 63.9333 220.901 63.56C220.101 63.16 219.315 62.64 218.541 62C217.768 61.36 217.021 60.64 216.301 59.84C215.581 59.04 214.901 58.2533 214.261 57.48C213.861 57 213.461 56.5467 213.061 56.12C212.688 55.6667 212.301 55.24 211.901 54.84C212.355 54.44 212.795 54 213.221 53.52C213.675 53.0133 214.075 52.48 214.421 51.92C214.795 51.36 215.088 50.7733 215.301 50.16C215.541 49.5467 215.661 48.9333 215.661 48.32C215.661 47.0933 215.368 46.12 214.781 45.4C214.221 44.68 213.501 44.1333 212.621 43.76C211.741 43.3867 210.755 43.1467 209.661 43.04C208.595 42.9333 207.568 42.88 206.581 42.88C206.288 42.88 206.008 42.8933 205.741 42.92C205.501 42.92 205.248 42.92 204.981 42.92H204.141C203.715 42.92 203.315 42.92 202.941 42.92C202.568 42.92 202.168 42.9067 201.741 42.88C201.421 42.8533 201.101 42.84 200.781 42.84C200.461 42.84 200.155 42.84 199.861 42.84H199.261C199.048 42.84 198.901 42.8933 198.821 43C198.741 43.1067 198.755 43.2267 198.861 43.36C198.995 43.5733 199.168 43.7067 199.381 43.76C199.595 43.8133 199.848 43.8533 200.141 43.88C200.435 43.9067 200.715 43.9867 200.981 44.12C201.275 44.2533 201.421 44.64 201.421 45.28V61.52C201.421 62.0267 201.395 62.44 201.341 62.76C201.315 63.0533 201.235 63.28 201.101 63.44C200.968 63.6 200.768 63.72 200.501 63.8C200.261 63.8533 199.928 63.9067 199.501 63.96C199.261 64.0133 199.141 64.1467 199.141 64.36C199.168 64.5467 199.301 64.6533 199.541 64.68C200.901 64.76 202.248 64.8133 203.581 64.84C204.941 64.84 206.301 64.84 207.661 64.84C207.901 64.84 208.061 64.76 208.141 64.6C208.221 64.44 208.155 64.3067 207.941 64.2C207.728 64.04 207.488 63.9467 207.221 63.92C206.981 63.8667 206.741 63.8267 206.501 63.8C206.368 63.7733 206.208 63.76 206.021 63.76C205.861 63.76 205.741 63.7333 205.661 63.68C205.608 63.6533 205.541 63.5467 205.461 63.36C205.408 63.1467 205.355 62.92 205.301 62.68C205.248 62.4133 205.195 62.1733 205.141 61.96C205.115 61.72 205.101 61.5467 205.101 61.44V56.16C205.315 56.1333 205.448 56.1333 205.501 56.16C205.581 56.16 205.728 56.16 205.941 56.16C206.528 56.16 207.168 56.2133 207.861 56.32C208.581 56.4 209.168 56.64 209.621 57.04C210.128 57.4667 210.608 57.9467 211.061 58.48C211.515 59.0133 211.968 59.5733 212.421 60.16C212.928 60.8 213.448 61.4267 213.981 62.04C214.515 62.6533 215.088 63.2 215.701 63.68C216.315 64.16 216.995 64.5467 217.741 64.84C218.488 65.1333 219.328 65.28 220.261 65.28C221.435 65.28 222.528 65.0667 223.541 64.64ZM211.901 49.8C211.901 51.16 211.568 52.24 210.901 53.04C210.235 53.84 209.248 54.24 207.941 54.24C207.488 54.24 207.008 54.2267 206.501 54.2C206.021 54.1733 205.555 54.1333 205.101 54.08V44.44C205.688 44.28 206.301 44.2 206.941 44.2C207.688 44.2 208.368 44.36 208.981 44.68C209.595 44.9733 210.115 45.3733 210.541 45.88C210.995 46.3867 211.328 46.9867 211.541 47.68C211.781 48.3467 211.901 49.0533 211.901 49.8ZM240.852 60.8C240.878 60.72 240.838 60.6533 240.732 60.6C240.652 60.52 240.558 60.48 240.452 60.48C240.345 60.4533 240.238 60.4667 240.132 60.52C240.025 60.5467 239.958 60.6 239.932 60.68C239.692 61.6133 239.212 62.2933 238.492 62.72C237.772 63.12 236.985 63.32 236.132 63.32C235.438 63.32 234.705 63.1867 233.932 62.92C233.158 62.6533 232.558 62.2267 232.132 61.64V53.88H232.652C232.972 53.88 233.372 53.88 233.852 53.88C234.332 53.88 234.812 53.8933 235.292 53.92C235.798 53.9467 236.252 54 236.652 54.08C237.052 54.1333 237.318 54.2133 237.452 54.32C237.532 54.3733 237.612 54.5067 237.692 54.72C237.798 54.9333 237.892 55.16 237.972 55.4C237.998 55.5333 237.998 55.64 237.972 55.72C237.972 55.7733 238.132 55.8933 238.452 56.08C238.585 56.1867 238.732 56.2133 238.892 56.16C239.052 56.1067 239.145 56.0133 239.172 55.88C239.225 55.5067 239.278 55.16 239.332 54.84C239.385 54.52 239.438 54.2 239.492 53.88C239.545 53.5333 239.585 53.12 239.612 52.64C239.665 52.16 239.718 51.7467 239.772 51.4C239.798 51.2667 239.745 51.16 239.612 51.08C239.505 50.9733 239.358 50.9467 239.172 51C239.012 51.0533 238.838 51.1733 238.652 51.36C238.492 51.5467 238.305 51.6933 238.092 51.8H238.132C237.892 51.88 237.665 51.9733 237.452 52.08C237.238 52.16 237.065 52.2 236.932 52.2H232.132V44.56H232.852C233.065 44.56 233.278 44.56 233.492 44.56C233.705 44.5333 233.905 44.52 234.092 44.52C234.305 44.52 234.505 44.52 234.692 44.52C234.905 44.4933 235.118 44.48 235.332 44.48C235.705 44.48 236.078 44.5067 236.452 44.56C236.825 44.6133 237.158 44.72 237.452 44.88C237.745 45.0133 237.985 45.2133 238.172 45.48C238.358 45.7467 238.465 46.1067 238.492 46.56C238.518 46.7733 238.665 46.88 238.932 46.88C239.198 46.88 239.358 46.7867 239.412 46.6C239.465 46.44 239.505 46.28 239.532 46.12C239.558 45.96 239.598 45.7867 239.652 45.6C239.758 45.1733 239.865 44.7467 239.972 44.32C240.078 43.8933 240.158 43.4267 240.212 42.92C240.238 42.7867 240.185 42.68 240.052 42.6C239.918 42.52 239.758 42.5067 239.572 42.56C239.198 42.6933 238.465 42.7867 237.372 42.84C236.278 42.8933 235.065 42.92 233.732 42.92C232.798 42.92 231.878 42.92 230.972 42.92C230.065 42.8933 229.225 42.8667 228.452 42.84C227.972 42.84 227.532 42.84 227.132 42.84C226.758 42.8133 226.452 42.8 226.212 42.8C225.972 42.8 225.812 42.88 225.732 43.04C225.652 43.2 225.718 43.3333 225.932 43.44C226.145 43.5733 226.358 43.6667 226.572 43.72C226.812 43.7733 227.038 43.8267 227.252 43.88C227.545 43.9333 227.812 44.04 228.052 44.2C228.318 44.3333 228.452 44.6267 228.452 45.08V61.48C228.452 62.2 228.332 62.7867 228.092 63.24C227.852 63.6667 227.358 63.8933 226.612 63.92C226.372 63.92 226.238 64.04 226.212 64.28C226.212 64.4933 226.332 64.6133 226.572 64.64C227.505 64.6933 228.452 64.72 229.412 64.72C230.372 64.6933 231.332 64.68 232.292 64.68C232.718 64.68 233.145 64.68 233.572 64.68C233.998 64.6533 234.425 64.64 234.852 64.64C235.038 64.64 235.358 64.6533 235.812 64.68C236.292 64.68 236.785 64.6933 237.292 64.72C237.825 64.72 238.318 64.72 238.772 64.72C239.225 64.72 239.532 64.6933 239.692 64.64L240.012 64.48L240.852 60.8ZM255.967 58.92C255.967 58.2267 255.807 57.5733 255.487 56.96C255.167 56.3467 254.753 55.76 254.247 55.2C253.74 54.64 253.167 54.12 252.527 53.64C251.887 53.1333 251.26 52.64 250.647 52.16C250.167 51.7867 249.673 51.4 249.167 51C248.66 50.6 248.193 50.1867 247.767 49.76C247.367 49.3067 247.033 48.8533 246.767 48.4C246.527 47.9467 246.407 47.4933 246.407 47.04C246.407 46.5333 246.513 46.08 246.727 45.68C246.94 45.28 247.22 44.9467 247.567 44.68C247.913 44.4133 248.3 44.2133 248.727 44.08C249.18 43.92 249.633 43.84 250.087 43.84C250.54 43.84 250.98 43.9067 251.407 44.04C251.86 44.1733 252.26 44.3733 252.607 44.64C252.98 44.9067 253.273 45.2267 253.487 45.6C253.727 45.9733 253.847 46.4133 253.847 46.92C253.847 47.1067 253.94 47.2267 254.127 47.28C254.34 47.3333 254.527 47.2933 254.687 47.16C255.007 46.8133 255.18 46.3733 255.207 45.84C255.26 45.28 255.287 44.7333 255.287 44.2V43.08C255.34 42.8667 255.22 42.7333 254.927 42.68C253.833 42.44 252.713 42.32 251.567 42.32C250.847 42.32 249.98 42.4133 248.967 42.6C247.98 42.76 247.033 43.04 246.127 43.44C245.22 43.84 244.447 44.3733 243.807 45.04C243.193 45.7067 242.887 46.5333 242.887 47.52C242.887 48.1333 243.033 48.7333 243.327 49.32C243.647 49.88 244.06 50.4533 244.567 51.04C245.073 51.6 245.633 52.16 246.247 52.72C246.887 53.28 247.527 53.8267 248.167 54.36C248.727 54.84 249.273 55.32 249.807 55.8C250.367 56.28 250.86 56.7733 251.287 57.28C251.74 57.7867 252.1 58.28 252.367 58.76C252.66 59.24 252.807 59.72 252.807 60.2C252.807 60.7333 252.66 61.2 252.367 61.6C252.073 62 251.7 62.3333 251.247 62.6C250.793 62.8667 250.3 63.08 249.767 63.24C249.26 63.3733 248.793 63.44 248.367 63.44C247.86 63.44 247.34 63.3733 246.807 63.24C246.3 63.1067 245.833 62.9067 245.407 62.64C244.98 62.3467 244.633 62 244.367 61.6C244.127 61.1733 244.033 60.68 244.087 60.12V59.64C244.087 59.5333 244.033 59.4533 243.927 59.4C243.847 59.3467 243.753 59.32 243.647 59.32C243.54 59.32 243.433 59.3467 243.327 59.4C243.22 59.4267 243.167 59.4933 243.167 59.6C243.14 60.0533 243.06 60.4267 242.927 60.72C242.82 61.0133 242.727 61.3067 242.647 61.6C242.593 61.8667 242.567 62.1333 242.567 62.4C242.567 62.96 242.713 63.4267 243.007 63.8C243.327 64.1467 243.7 64.4267 244.127 64.64C244.58 64.8533 245.06 65 245.567 65.08C246.073 65.16 246.54 65.2 246.967 65.2C247.82 65.2 248.767 65.0667 249.807 64.8C250.873 64.5067 251.86 64.0933 252.767 63.56C253.673 63.0267 254.433 62.3733 255.047 61.6C255.66 60.8267 255.967 59.9333 255.967 58.92ZM282.565 64.56V63.84C281.978 63.7867 281.405 63.6667 280.845 63.48C280.285 63.2933 279.845 62.8933 279.525 62.28C278.511 60.44 277.578 58.5467 276.725 56.6C275.898 54.6267 275.071 52.68 274.245 50.76L272.485 46.64V46.68C272.431 46.6 272.378 46.4933 272.325 46.36C272.271 46.2 272.205 46.0267 272.125 45.84V45.88C271.991 45.5867 271.845 45.2533 271.685 44.88C271.525 44.5067 271.351 44.16 271.165 43.84C270.978 43.4933 270.791 43.1867 270.605 42.92C270.418 42.6533 270.231 42.48 270.045 42.4C269.751 42.32 269.551 42.3733 269.445 42.56C268.645 44.4267 267.845 46.2933 267.045 48.16C266.271 50.0267 265.498 51.9067 264.725 53.8C264.191 55.08 263.631 56.4 263.045 57.76C262.485 59.0933 261.938 60.4 261.405 61.68C261.271 61.92 261.085 62.1867 260.845 62.48C260.631 62.7733 260.391 63.04 260.125 63.28C259.858 63.4933 259.578 63.6533 259.285 63.76C258.991 63.8667 258.711 63.88 258.445 63.8L258.285 64.52L265.325 64.64C265.591 64.64 265.725 64.5333 265.725 64.32C265.751 64.08 265.631 63.9467 265.365 63.92C265.098 63.8667 264.791 63.8 264.445 63.72C264.098 63.6133 263.925 63.4133 263.925 63.12C263.925 62.88 264.005 62.48 264.165 61.92C264.351 61.3333 264.578 60.7067 264.845 60.04C265.111 59.3733 265.378 58.7067 265.645 58.04C265.911 57.3733 266.151 56.8267 266.365 56.4H272.805C273.365 57.6533 273.898 58.8533 274.405 60C274.911 61.1467 275.431 62.3467 275.965 63.6L275.605 64.04C275.445 64.1733 275.391 64.3067 275.445 64.44C275.525 64.5733 275.671 64.64 275.885 64.64C276.365 64.6667 276.831 64.6933 277.285 64.72C277.738 64.72 278.205 64.72 278.685 64.72C279.351 64.72 280.005 64.7067 280.645 64.68C281.285 64.6533 281.925 64.6133 282.565 64.56ZM272.085 54.68H267.005C267.511 53.48 267.938 52.36 268.285 51.32C268.658 50.2533 269.071 49.1333 269.525 47.96L272.085 54.68ZM309.752 64.64L309.512 63.96C308.712 64.0667 307.912 63.9333 307.112 63.56C306.312 63.16 305.526 62.64 304.752 62C303.979 61.36 303.232 60.64 302.512 59.84C301.792 59.04 301.112 58.2533 300.472 57.48C300.072 57 299.672 56.5467 299.272 56.12C298.899 55.6667 298.512 55.24 298.112 54.84C298.566 54.44 299.006 54 299.432 53.52C299.886 53.0133 300.286 52.48 300.632 51.92C301.006 51.36 301.299 50.7733 301.512 50.16C301.752 49.5467 301.872 48.9333 301.872 48.32C301.872 47.0933 301.579 46.12 300.992 45.4C300.432 44.68 299.712 44.1333 298.832 43.76C297.952 43.3867 296.966 43.1467 295.872 43.04C294.806 42.9333 293.779 42.88 292.792 42.88C292.499 42.88 292.219 42.8933 291.952 42.92C291.712 42.92 291.459 42.92 291.192 42.92H290.352C289.926 42.92 289.526 42.92 289.152 42.92C288.779 42.92 288.379 42.9067 287.952 42.88C287.632 42.8533 287.312 42.84 286.992 42.84C286.672 42.84 286.366 42.84 286.072 42.84H285.472C285.259 42.84 285.112 42.8933 285.032 43C284.952 43.1067 284.966 43.2267 285.072 43.36C285.206 43.5733 285.379 43.7067 285.592 43.76C285.806 43.8133 286.059 43.8533 286.352 43.88C286.646 43.9067 286.926 43.9867 287.192 44.12C287.486 44.2533 287.632 44.64 287.632 45.28V61.52C287.632 62.0267 287.606 62.44 287.552 62.76C287.526 63.0533 287.446 63.28 287.312 63.44C287.179 63.6 286.979 63.72 286.712 63.8C286.472 63.8533 286.139 63.9067 285.712 63.96C285.472 64.0133 285.352 64.1467 285.352 64.36C285.379 64.5467 285.512 64.6533 285.752 64.68C287.112 64.76 288.459 64.8133 289.792 64.84C291.152 64.84 292.512 64.84 293.872 64.84C294.112 64.84 294.272 64.76 294.352 64.6C294.432 64.44 294.366 64.3067 294.152 64.2C293.939 64.04 293.699 63.9467 293.432 63.92C293.192 63.8667 292.952 63.8267 292.712 63.8C292.579 63.7733 292.419 63.76 292.232 63.76C292.072 63.76 291.952 63.7333 291.872 63.68C291.819 63.6533 291.752 63.5467 291.672 63.36C291.619 63.1467 291.566 62.92 291.512 62.68C291.459 62.4133 291.406 62.1733 291.352 61.96C291.326 61.72 291.312 61.5467 291.312 61.44V56.16C291.526 56.1333 291.659 56.1333 291.712 56.16C291.792 56.16 291.939 56.16 292.152 56.16C292.739 56.16 293.379 56.2133 294.072 56.32C294.792 56.4 295.379 56.64 295.832 57.04C296.339 57.4667 296.819 57.9467 297.272 58.48C297.726 59.0133 298.179 59.5733 298.632 60.16C299.139 60.8 299.659 61.4267 300.192 62.04C300.726 62.6533 301.299 63.2 301.912 63.68C302.526 64.16 303.206 64.5467 303.952 64.84C304.699 65.1333 305.539 65.28 306.472 65.28C307.646 65.28 308.739 65.0667 309.752 64.64ZM298.112 49.8C298.112 51.16 297.779 52.24 297.112 53.04C296.446 53.84 295.459 54.24 294.152 54.24C293.699 54.24 293.219 54.2267 292.712 54.2C292.232 54.1733 291.766 54.1333 291.312 54.08V44.44C291.899 44.28 292.512 44.2 293.152 44.2C293.899 44.2 294.579 44.36 295.192 44.68C295.806 44.9733 296.326 45.3733 296.752 45.88C297.206 46.3867 297.539 46.9867 297.752 47.68C297.992 48.3467 298.112 49.0533 298.112 49.8Z" fill="black"/>
</svg>
