<svg width="114" height="131" viewBox="0 0 114 131" fill="none" xmlns="http://www.w3.org/2000/svg">
<path d="M16.8571 0L4.29907 0.384914L12.1228 11.2125L19.6075 8.21835L16.8571 0ZM97.1242 0L94.3738 8.22129L101.85 11.2183L109.674 0.387852L97.1242 0ZM22.785 2.40351L25.749 11.3741L17.6048 14.6473L87.6182 50.5207L92.7984 38.2975L22.785 2.40351ZM91.1963 2.40351L62.7049 17.0067L77.231 24.4582L96.3765 14.6502L88.2323 11.377L91.1963 2.40351ZM36.7503 30.3054L21.1829 38.2975L26.3632 50.5207L51.2764 37.7686L36.7503 30.3054ZM101.13 31.1281L87.992 62.1269L91.4633 66.5049L106.39 31.2456L101.13 31.1281ZM12.8438 31.1575L7.61015 31.275L22.518 66.4755L25.9626 62.1269L12.8438 31.1575ZM106.15 44.2915L97.9786 63.5666L88.8999 88.4538L74 98.2382C73.1722 100.383 72.1842 102.352 71.0093 104.115C67.5915 109.316 62.5981 112.783 56.9907 112.783C51.3832 112.783 46.3899 109.316 42.972 104.115C41.7971 102.322 40.7824 100.354 39.9546 98.1795L25.2417 88.4244L17.7917 67.8565L7.87717 44.4385L0 50.1387L12.1495 94.7417L33.8398 123.272V131H80.3017V123.302L101.824 94.7711L114 50.1387L106.15 44.2915ZM56.9907 61.0691C53.1722 61.0691 49.5941 63.3903 46.8438 67.5627C44.0935 71.7056 42.3044 77.6703 42.3044 84.2814C42.3044 90.8926 44.0935 96.8573 46.8438 101C49.5941 105.173 53.1722 107.494 56.9907 107.494C60.8091 107.494 64.3872 105.173 67.1375 101C69.8878 96.8573 71.6769 90.8926 71.6769 84.2814C71.6769 77.6703 69.8878 71.7056 67.1375 67.5627C64.3872 63.3903 60.8091 61.0691 56.9907 61.0691V61.0691Z" fill="black"/>
</svg>
