<svg width="109" height="30" viewBox="0 0 109 30" fill="none" xmlns="http://www.w3.org/2000/svg">
<path d="M83.6716 6.59789e-05C83.4128 0.819513 83.0043 1.51063 82.37 2.06436C81.6639 2.68094 80.6482 3.14879 79.1581 3.37377C79.7423 1.61632 81.1322 0.501781 83.6716 6.59789e-05ZM84.6436 0.872127C84.7903 1.38506 84.9088 1.98712 85.0517 2.51029C84.9094 3.36981 84.326 4.06126 83.6343 4.53815C83.2762 4.78505 82.8955 4.96844 82.5703 5.07789C82.2752 5.17731 82.0345 5.19889 81.9428 5.19658C81.2585 4.92698 80.6062 4.66826 80.0961 4.40684C81.3962 4.11605 82.4119 3.62173 83.181 2.95009C83.8538 2.36255 84.3234 1.65216 84.6436 0.872127ZM87.0622 2.46217C86.9658 3.74643 86.5852 4.80241 85.8333 5.57611C84.9872 6.44685 83.6128 7.03194 81.3954 7.10337C81.4467 6.91404 81.5184 6.71454 81.6137 6.50527C81.6347 6.45967 81.6564 6.4144 81.6789 6.36948L81.7323 6.37674C82.1326 6.43087 82.5263 6.34967 82.9669 6.20114C83.4076 6.0528 83.8803 5.82267 84.3357 5.50884C85.2303 4.89225 86.0774 3.92777 86.2666 2.63678C86.5422 2.55518 86.8094 2.49636 87.0622 2.46217ZM88.2782 2.4998C88.6695 2.59849 88.9602 2.78861 89.1403 3.04786C89.4594 3.50699 89.4654 4.22913 89.058 5.12403C88.6508 6.0188 87.8386 7.01253 86.7294 7.81924C85.6202 8.62594 84.4357 9.08422 83.4757 9.18377C82.5156 9.28345 81.8507 9.04072 81.5316 8.58158C81.4697 8.49194 81.4203 8.39472 81.3846 8.29243C83.843 8.21929 85.5932 7.5495 86.7159 6.39417C87.7188 5.36235 88.172 3.99979 88.2782 2.4998ZM95.8735 5.16813C96.0478 5.17031 96.2493 5.18972 96.4558 5.23045C96.8688 5.31191 97.3068 5.4681 97.6303 5.64318C97.9537 5.81812 98.127 6.04402 98.1215 6.02897L98.122 6.03049L98.1227 6.0322C99.1067 8.71275 99.6598 11.3896 99.9088 13.9357C99.8722 13.9198 99.8361 13.9034 99.7994 13.8876C98.7421 13.4293 97.6336 13.0022 96.4944 12.6341C96.1569 10.1951 95.6755 7.81633 95.3 5.32294C95.3032 5.30815 95.3053 5.28531 95.3111 5.27884C95.3207 5.26854 95.3591 5.23659 95.4559 5.20886C95.5528 5.18114 95.6993 5.16595 95.8735 5.16813ZM94.0022 5.93589C94.0558 5.93569 94.1097 5.93622 94.1636 5.93655C94.5039 8.11901 94.9074 10.18 95.2155 12.2508C93.3218 11.7285 91.3652 11.3932 89.4323 11.3723C88.5452 11.3627 87.6632 11.4202 86.7945 11.5549C86.8099 10.7881 86.8455 9.98704 86.9016 9.15096C87.0757 9.04012 87.2463 8.924 87.4131 8.8028C88.4121 8.0763 89.212 7.21889 89.7593 6.32808C91.013 6.18595 92.323 5.96718 93.7487 5.93879C93.8328 5.93714 93.9173 5.93615 94.0022 5.93589ZM99.8224 7.28167C100.956 7.83171 102.163 8.58811 103.46 9.61696C106.734 12.2152 108.008 15.531 108.087 18.6137C107.592 18.248 106.997 17.8329 106.307 17.3856C104.915 16.4829 103.158 15.4603 101.181 14.5168C101 12.1939 100.579 9.75249 99.8224 7.28167ZM85.6419 9.82445C85.605 10.5037 85.5804 11.1632 85.5705 11.7999C85.2834 11.8706 84.9989 11.951 84.7175 12.0407C84.8227 11.3354 84.9189 10.6757 84.9789 10.0803C85.2038 10.0049 85.425 9.91949 85.6419 9.82445ZM89.08 12.5731C89.2013 12.572 89.3229 12.5725 89.4447 12.574C92.7597 12.6184 96.2267 13.6391 99.306 14.9736C101.77 16.0413 103.975 17.2995 105.634 18.3756C106.464 18.9136 107.158 19.4063 107.677 19.8039C108.181 20.1898 108.525 20.5017 108.624 20.6104C108.911 21.0177 109.12 22.3758 108.923 23.3766C108.823 23.8827 108.627 24.2943 108.47 24.4566C108.331 24.5993 108.312 24.6314 108.114 24.5424C98.0181 14.415 87.8745 15.675 83.3054 15.6583C83.3051 15.6471 83.3114 15.655 83.305 15.6267C83.2754 15.4978 83.2775 15.2253 83.3352 14.9328C83.3929 14.6403 83.4977 14.3233 83.614 14.0682C83.7108 13.8561 83.817 13.7086 83.8663 13.6467C85.4922 12.9123 87.2595 12.5891 89.08 12.5731ZM87.0676 16.8015C89.5158 16.8141 92.4614 17.0187 95.6984 18.0479C95.698 20.5355 95.3883 23.1887 94.537 26.1979C93.7324 26.0191 92.9931 25.7701 92.3184 25.4456C92.4156 25.3089 92.5121 25.1717 92.6079 25.034C92.6885 24.9185 92.7676 24.802 92.845 24.6845C92.9087 24.5871 92.9395 24.5656 93.0059 24.4034L91.8763 23.9621C91.8976 23.9099 91.8967 23.9104 91.8837 23.9341C91.8709 23.9577 91.8461 24.0046 91.8195 24.0452C91.748 24.1535 91.6751 24.2609 91.6008 24.3674C91.5023 24.5093 91.3865 24.6732 91.2648 24.8442C90.733 24.4857 90.2478 24.0654 89.8199 23.5924C89.0143 22.7037 88.3606 21.577 87.8684 20.1872L88.6639 20.0369L88.4328 18.8702L87.5165 19.0435C87.3327 18.3524 87.1829 17.6056 87.0676 16.8015ZM85.8308 16.8088C85.9498 17.6867 86.109 18.507 86.3089 19.2717L85.4893 19.4266L85.7205 20.593L86.6537 20.4168C87.1974 22.0041 87.9464 23.3183 88.9089 24.3799C89.3995 24.922 89.956 25.4035 90.566 25.8138C90.3936 26.0513 90.2208 26.2885 90.0477 26.5256L91.0366 27.2179C91.0366 27.2179 91.302 26.8546 91.614 26.4246C92.4038 26.8204 93.266 27.1198 94.1963 27.3315C94.0506 27.7878 93.8965 28.2414 93.734 28.6921C91.3496 28.0607 89.0504 26.8459 87.1143 25.1767C84.6391 23.0428 84.097 19.9339 84.1941 16.8407C84.7027 16.8314 85.2479 16.8178 85.8308 16.8088ZM96.9016 18.4654C97.9048 18.8422 98.9321 19.3019 99.9781 19.8625C99.9483 20.2688 99.9122 20.6676 99.8702 21.0578C99.4164 25.2696 98.2363 28.5316 97.4904 29.6965C97.463 29.7111 97.4324 29.728 97.3859 29.745C97.267 29.7882 97.0969 29.836 96.903 29.8764C96.5154 29.9572 96.0292 30.0097 95.6045 29.9985C95.1798 29.9873 94.8203 29.888 94.7122 29.8159C94.6581 29.7799 94.6655 29.7776 94.6638 29.7715C94.6621 29.7656 94.648 29.7192 94.6993 29.5834L94.6996 29.5825L94.7 29.5815C96.2861 25.344 96.857 21.7524 96.9016 18.4654ZM101.144 20.5268C102.905 21.587 104.711 22.9444 106.535 24.6799C106.1 25.3889 105.6 25.9771 105.071 26.4005L105.06 26.4087L105.05 26.4174C103.335 27.9184 101.313 28.7689 99.1887 29.0652C99.3697 28.6539 99.5491 28.1897 99.7227 27.6771C100.312 27.6402 100.918 27.5843 101.54 27.5101L101.392 26.3306C100.95 26.3834 100.518 26.4261 100.097 26.4597C100.511 24.9728 100.864 23.1909 101.08 21.182C101.104 20.9661 101.125 20.7475 101.144 20.5268Z" fill="#FFFBFB"/>
<path d="M44.0925 6.59789e-05C43.8337 0.819513 43.4252 1.51063 42.7909 2.06436C42.0848 2.68094 41.0691 3.14879 39.579 3.37377C40.1632 1.61632 41.553 0.501716 44.0924 0L44.0925 6.59789e-05ZM45.0645 0.872127C45.2112 1.38506 45.3297 1.98712 45.4726 2.51029C45.3303 3.36981 44.7469 4.06126 44.0552 4.53815C43.6971 4.78505 43.3164 4.96844 42.9912 5.07789C42.6961 5.17731 42.4554 5.1989 42.3637 5.19658C41.6794 4.92698 41.0271 4.66827 40.517 4.40684C41.8171 4.11605 42.8328 3.62173 43.6019 2.95009C44.2747 2.36255 44.7442 1.65196 45.0644 0.871929L45.0645 0.872127ZM47.4831 2.46217C47.3867 3.74643 47.0061 4.80241 46.2542 5.57611C45.4081 6.44685 44.0337 7.03194 41.8163 7.10337C41.8676 6.91404 41.9393 6.71454 42.0346 6.50527C42.0556 6.45967 42.0773 6.4144 42.0998 6.36948L42.1532 6.37674C42.5535 6.43087 42.9472 6.34967 43.3878 6.20114C43.8285 6.0528 44.3012 5.82267 44.7566 5.50884C45.6512 4.89225 46.4983 3.92777 46.6875 2.63678C46.9631 2.55518 47.2303 2.49637 47.4831 2.46217H47.4831ZM48.6991 2.4998C49.0904 2.59849 49.3811 2.78861 49.5612 3.04786C49.8803 3.50699 49.8863 4.22913 49.4789 5.12403C49.0717 6.0188 48.2595 7.01253 47.1503 7.81924C46.0411 8.62594 44.8566 9.08422 43.8966 9.18377C42.9365 9.28345 42.2716 9.04072 41.9525 8.58158C41.8906 8.49194 41.8412 8.39472 41.8055 8.29243C44.2639 8.21929 46.0141 7.5495 47.1368 6.39417C48.1397 5.36235 48.593 3.99993 48.6992 2.49993L48.6991 2.4998ZM56.2944 5.16813C56.4687 5.17031 56.6702 5.18972 56.8767 5.23045C57.2897 5.31191 57.7277 5.46811 58.0512 5.64318C58.3746 5.81812 58.5479 6.04402 58.5424 6.02897L58.5429 6.03049L58.5436 6.0322C59.5276 8.71275 60.0807 11.3896 60.3297 13.9357C60.2931 13.9198 60.257 13.9034 60.2203 13.8876C59.163 13.4293 58.0545 13.0022 56.9153 12.6341C56.5778 10.1951 56.0964 7.81633 55.7209 5.32294C55.7241 5.30815 55.7262 5.28531 55.732 5.27884C55.7416 5.26854 55.78 5.23659 55.8768 5.20886C55.9737 5.18114 56.1203 5.16609 56.2945 5.16826L56.2944 5.16813ZM54.4231 5.93589C54.4767 5.93569 54.5306 5.93622 54.5845 5.93655C54.9248 8.11901 55.3283 10.18 55.6364 12.2508C53.7427 11.7285 51.7861 11.3932 49.8532 11.3723C48.9661 11.3627 48.0841 11.4202 47.2154 11.5549C47.2308 10.7881 47.2664 9.98704 47.3225 9.15096C47.4966 9.04012 47.6672 8.924 47.834 8.8028C48.833 8.0763 49.6329 7.21889 50.1802 6.32809C51.4339 6.18595 52.7439 5.96718 54.1696 5.93879C54.2537 5.93714 54.3382 5.93615 54.4231 5.93589H54.4231ZM60.2433 7.28167C61.3767 7.83171 62.5842 8.58811 63.8807 9.61696C67.1549 12.2152 68.4291 15.531 68.5075 18.6137C68.0128 18.248 67.418 17.8329 66.7281 17.3856C65.3358 16.4829 63.5793 15.4603 61.6022 14.5168C61.4213 12.1939 60.9999 9.75249 60.2434 7.28167H60.2433ZM46.0628 9.82445C46.0259 10.5037 46.0013 11.1632 45.9914 11.7999C45.7043 11.8706 45.4198 11.951 45.1384 12.0407C45.2436 11.3354 45.3398 10.6757 45.3998 10.0803C45.6247 10.0049 45.8459 9.91956 46.0628 9.82451V9.82445ZM49.5009 12.5731C49.6222 12.572 49.7438 12.5725 49.8656 12.574C53.1806 12.6184 56.6476 13.6391 59.7269 14.9736C62.1904 16.0413 64.3956 17.2995 66.0552 18.3756C66.885 18.9136 67.5787 19.4063 68.0979 19.8039C68.6016 20.1898 68.946 20.5017 69.0454 20.6104C69.3319 21.0177 69.5406 22.3759 69.3436 23.3766C69.2441 23.8827 69.0482 24.2943 68.8905 24.4566C68.7516 24.5993 68.733 24.6314 68.5346 24.5424C58.439 14.415 48.2954 15.675 43.7263 15.6583C43.726 15.6471 43.7323 15.655 43.7259 15.6267C43.6963 15.4978 43.6984 15.2253 43.7561 14.9328C43.8138 14.6403 43.9186 14.3233 44.0349 14.0682C44.1317 13.8561 44.2379 13.7086 44.2872 13.6467C45.9131 12.9123 47.6803 12.589 49.5007 12.573L49.5009 12.5731ZM47.4885 16.8015C49.9367 16.8141 52.8823 17.0187 56.1193 18.0479C56.1189 20.5355 55.8092 23.1887 54.9579 26.1979C54.1533 26.0191 53.414 25.7701 52.7393 25.4456C52.8365 25.3089 52.933 25.1717 53.0288 25.034C53.1094 24.9185 53.1885 24.802 53.2659 24.6845C53.3296 24.5871 53.3604 24.5656 53.4268 24.4034L52.2972 23.9621C52.3185 23.9099 52.3176 23.9104 52.3046 23.9341C52.2918 23.9577 52.267 24.0046 52.2404 24.0452C52.1689 24.1535 52.096 24.2609 52.0217 24.3674C51.9232 24.5093 51.8074 24.6732 51.6857 24.8442C51.1539 24.4857 50.6687 24.0654 50.2408 23.5924C49.4352 22.7037 48.7815 21.577 48.2893 20.1872L49.0848 20.0369L48.8537 18.8702L47.9374 19.0435C47.7536 18.3524 47.6039 17.6057 47.4886 16.8016L47.4885 16.8015ZM46.2517 16.8088C46.3707 17.6867 46.5299 18.507 46.7298 19.2717L45.9102 19.4266L46.1414 20.593L47.0746 20.4168C47.6182 22.0041 48.3673 23.3183 49.3298 24.3799C49.8204 24.922 50.3769 25.4035 50.9869 25.8138C50.8145 26.0513 50.6417 26.2885 50.4686 26.5256L51.4575 27.2179C51.4575 27.2179 51.7229 26.8547 52.0349 26.4246C52.8247 26.8204 53.6869 27.1198 54.6172 27.3315C54.4715 27.7878 54.3174 28.2414 54.1549 28.6921C51.7705 28.0607 49.4713 26.8459 47.5352 25.1767C45.06 23.0428 44.5179 19.934 44.615 16.8407C45.1236 16.8314 45.6688 16.8177 46.2516 16.8087L46.2517 16.8088ZM57.3225 18.4654C58.3257 18.8422 59.353 19.3019 60.399 19.8625C60.3692 20.2688 60.3331 20.6676 60.2911 21.0578C59.8373 25.2696 58.6572 28.5316 57.9113 29.6965C57.8839 29.7111 57.8533 29.728 57.8068 29.745C57.6879 29.7882 57.5178 29.836 57.3239 29.8764C56.9363 29.9572 56.4501 30.0097 56.0254 29.9985C55.6007 29.9873 55.2412 29.888 55.1331 29.8159C55.079 29.7799 55.0864 29.7776 55.0847 29.7715C55.083 29.7656 55.0689 29.7192 55.1202 29.5834L55.1205 29.5825L55.1209 29.5815C56.707 25.344 57.278 21.7524 57.3226 18.4654H57.3225ZM61.5654 20.5268C63.3262 21.587 65.132 22.9444 66.956 24.6799C66.5207 25.3889 66.021 25.9771 65.4916 26.4005L65.4812 26.4087L65.4711 26.4174C63.7558 27.9184 61.7338 28.7689 59.6096 29.0652C59.7906 28.6539 59.97 28.1897 60.1436 27.6771C60.7332 27.6402 61.339 27.5843 61.9605 27.5101L61.8132 26.3306C61.3704 26.3834 60.9388 26.4261 60.5174 26.4597C60.9316 24.9728 61.2847 23.1909 61.5012 21.182C61.5246 20.9661 61.5457 20.7473 61.5654 20.5266L61.5654 20.5268Z" fill="#8FFF00"/>
<path d="M4.5135 6.59789e-05C4.25475 0.819513 3.84622 1.51063 3.21191 2.06436C2.50583 2.68094 1.49009 3.14879 5.27371e-05 3.37377C0.5842 1.61632 1.97407 0.501716 4.51344 0L4.5135 6.59789e-05ZM5.4855 0.872127C5.63218 1.38506 5.75074 1.98712 5.89364 2.51029C5.75135 3.36981 5.16795 4.06126 4.47619 4.53815C4.11808 4.78505 3.73739 4.96844 3.41226 5.07789C3.11708 5.17731 2.87638 5.1989 2.78472 5.19658C2.10047 4.92698 1.44812 4.66827 0.938053 4.40684C2.23815 4.11605 3.25382 3.62173 4.0229 2.95009C4.69574 2.36255 5.16524 1.65196 5.48544 0.871929L5.4855 0.872127ZM7.90408 2.46217C7.80776 3.74643 7.42714 4.80241 6.67522 5.57611C5.82908 6.44685 4.45476 7.03194 2.23728 7.10337C2.28865 6.91404 2.3603 6.71454 2.45561 6.50527C2.47661 6.45967 2.49835 6.4144 2.52083 6.36948L2.57423 6.37674C2.97452 6.43087 3.36819 6.34967 3.80884 6.20114C4.24955 6.0528 4.72223 5.82267 5.17761 5.50884C6.07222 4.89225 6.91931 3.92777 7.10857 2.63678C7.38415 2.55518 7.65135 2.49637 7.90415 2.46217H7.90408ZM9.1201 2.4998C9.51147 2.59849 9.80212 2.78861 9.98219 3.04786C10.3014 3.50699 10.3073 4.22913 9.89993 5.12403C9.49274 6.0188 8.68053 7.01253 7.57132 7.81924C6.4621 8.62594 5.27765 9.08422 4.31762 9.18377C3.35751 9.28345 2.69266 9.04072 2.37348 8.58158C2.31166 8.49194 2.26225 8.39472 2.22653 8.29243C4.68492 8.21929 6.43513 7.5495 7.55787 6.39417C8.56069 5.36235 9.01404 3.99993 9.12023 2.49993L9.1201 2.4998ZM16.7154 5.16813C16.8897 5.17031 17.0912 5.18972 17.2977 5.23045C17.7107 5.31191 18.1488 5.46811 18.4722 5.64318C18.7956 5.81812 18.9689 6.04402 18.9634 6.02897L18.9639 6.03049L18.9646 6.0322C19.9486 8.71275 20.5017 11.3896 20.7507 13.9357C20.7141 13.9198 20.6781 13.9034 20.6413 13.8876C19.584 13.4293 18.4755 13.0022 17.3363 12.6341C16.9988 10.1951 16.5174 7.81633 16.142 5.32294C16.1451 5.30815 16.1472 5.28531 16.153 5.27884C16.1626 5.26854 16.201 5.23659 16.2978 5.20886C16.3947 5.18114 16.5414 5.16609 16.7156 5.16826L16.7154 5.16813ZM14.8442 5.93589C14.8977 5.93569 14.9516 5.93622 15.0055 5.93655C15.3458 8.11901 15.7493 10.18 16.0574 12.2508C14.1637 11.7285 12.2071 11.3932 10.2742 11.3723C9.38709 11.3627 8.50513 11.4202 7.63641 11.5549C7.65182 10.7881 7.68744 9.98704 7.74348 9.15096C7.91765 9.04012 8.08825 8.924 8.25503 8.8028C9.25407 8.0763 10.0539 7.21889 10.6012 6.32809C11.8549 6.18595 13.1649 5.96718 14.5906 5.93879C14.6747 5.93714 14.7592 5.93615 14.8441 5.93589H14.8442ZM20.6643 7.28167C21.7977 7.83171 23.0052 8.58811 24.3017 9.61696C27.5759 12.2152 28.8501 15.531 28.9285 18.6137C28.4338 18.248 27.839 17.8329 27.1491 17.3856C25.7568 16.4829 24.0003 15.4603 22.0232 14.5168C21.8424 12.1939 21.4209 9.75249 20.6644 7.28167H20.6643ZM6.4838 9.82445C6.44689 10.5037 6.42229 11.1632 6.41242 11.7999C6.12534 11.8706 5.84083 11.951 5.55938 12.0407C5.66463 11.3354 5.76081 10.6757 5.82084 10.0803C6.04569 10.0049 6.2669 9.91956 6.4838 9.82451V9.82445ZM9.9219 12.5731C10.0432 12.572 10.1648 12.5725 10.2866 12.574C13.6016 12.6184 17.0686 13.6391 20.1479 14.9736C22.6114 16.0413 24.8166 17.2995 26.4762 18.3756C27.306 18.9136 27.9998 19.4063 28.5189 19.8039C29.0226 20.1898 29.367 20.5017 29.4664 20.6104C29.7529 21.0177 29.9616 22.3759 29.7646 23.3766C29.6651 23.8827 29.4693 24.2943 29.3116 24.4566C29.1726 24.5993 29.1541 24.6314 28.9556 24.5424C18.86 14.415 8.71643 15.675 4.14728 15.6583C4.14701 15.6471 4.15336 15.655 4.14687 15.6267C4.11733 15.4978 4.11943 15.2253 4.17709 14.9328C4.23481 14.6403 4.33958 14.3233 4.45591 14.0682C4.55271 13.8561 4.6589 13.7086 4.70824 13.6467C6.33408 12.9123 8.10132 12.589 9.92176 12.573L9.9219 12.5731ZM7.90949 16.8015C10.3577 16.8141 13.3033 17.0187 16.5403 18.0479C16.54 20.5355 16.2302 23.1887 15.3789 26.1979C14.5743 26.0191 13.835 25.7701 13.1603 25.4456C13.2576 25.3089 13.3541 25.1717 13.4498 25.034C13.5304 24.9185 13.6095 24.802 13.6869 24.6845C13.7506 24.5871 13.7814 24.5656 13.8478 24.4034L12.7182 23.9621C12.7395 23.9099 12.7386 23.9104 12.7256 23.9341C12.7128 23.9577 12.688 24.0046 12.6614 24.0452C12.5899 24.1535 12.517 24.2609 12.4427 24.3674C12.3443 24.5093 12.2284 24.6732 12.1067 24.8442C11.5749 24.4857 11.0897 24.0654 10.6618 23.5924C9.85626 22.7037 9.20249 21.577 8.71027 20.1872L9.50585 20.0369L9.27468 18.8702L8.35845 19.0435C8.17459 18.3524 8.02494 17.6057 7.90962 16.8016L7.90949 16.8015ZM6.67272 16.8088C6.79169 17.6867 6.95087 18.507 7.15082 19.2717L6.33124 19.4266L6.56241 20.593L7.49561 20.4168C8.03927 22.0041 8.78835 23.3183 9.75082 24.3799C10.2414 24.922 10.7979 25.4035 11.4079 25.8138C11.2355 26.0513 11.0627 26.2885 10.8896 26.5256L11.8785 27.2179C11.8785 27.2179 12.1439 26.8547 12.4559 26.4246C13.2457 26.8204 14.1079 27.1198 15.0382 27.3315C14.8926 27.7878 14.7384 28.2414 14.5759 28.6921C12.1915 28.0607 9.89229 26.8459 7.9562 25.1767C5.48104 23.0428 4.93894 19.934 5.036 16.8407C5.54458 16.8314 6.08979 16.8177 6.67266 16.8087L6.67272 16.8088ZM17.7435 18.4654C18.7468 18.8422 19.7741 19.3019 20.82 19.8625C20.7903 20.2688 20.7542 20.6676 20.7121 21.0578C20.2583 25.2696 19.0782 28.5316 18.3323 29.6965C18.305 29.7111 18.2743 29.728 18.2278 29.745C18.1089 29.7882 17.9388 29.836 17.7449 29.8764C17.3573 29.9572 16.8711 30.0097 16.4465 29.9985C16.0217 29.9873 15.6622 29.888 15.5541 29.8159C15.5 29.7799 15.5075 29.7776 15.5058 29.7715C15.504 29.7656 15.4899 29.7192 15.5413 29.5834L15.5415 29.5825L15.5419 29.5815C17.128 25.344 17.699 21.7524 17.7436 18.4654H17.7435ZM21.9864 20.5268C23.7472 21.587 25.553 22.9444 27.377 24.6799C26.9417 25.3889 26.4421 25.9771 25.9127 26.4005L25.9023 26.4087L25.8921 26.4174C24.1768 27.9184 22.1548 28.7689 20.0306 29.0652C20.2117 28.6539 20.391 28.1897 20.5646 27.6771C21.1543 27.6402 21.76 27.5843 22.3816 27.5101L22.2342 26.3306C21.7915 26.3834 21.3598 26.4261 20.9384 26.4597C21.3526 24.9728 21.7057 23.1909 21.9223 21.182C21.9456 20.9661 21.9667 20.7473 21.9865 20.5266L21.9864 20.5268Z" fill="#8FFF00"/>
</svg>
