<svg width="109" height="30" viewBox="0 0 109 30" fill="none" xmlns="http://www.w3.org/2000/svg">
<path d="M11.0399 30L12.1944 27.8601H19.1213L20.2758 30H11.0399ZM10.3905 26.6642V23.3945H12.6995V21.9973C11.3068 22.5637 9.62561 22.5134 8.73087 22.5134C5.087 22.5134 2.80687 21.135 1.55135 19.4923C0.29584 17.8496 0 15.9992 0 14.8977C0 11.5934 2.78522 8.95629 6.01059 6.65272C9.23597 4.35544 12.9881 2.32879 15.196 0.396562L15.6578 4.64228e-05L16.1196 0.396562C18.3276 2.32879 22.0797 4.35544 25.3051 6.65272C28.5305 8.95629 31.3157 11.5934 31.3157 14.8977C31.3157 15.9992 31.0199 17.8496 29.7643 19.4923C28.5088 21.135 26.2287 22.5134 22.5848 22.5134C21.6901 22.5134 20.0089 22.5637 18.6162 21.9973V23.3945H20.9252V26.6642H10.3905ZM11.6893 25.5313H19.6264V24.5274H11.6893V25.5313ZM13.9983 23.3945H17.3174V19.5741L18.4286 20.5371C19.2729 21.2798 21.4303 21.3805 22.5848 21.3805C25.8679 21.3805 27.6285 20.2413 28.682 18.8629C29.7355 17.4845 30.0169 15.8104 30.0169 14.8977C30.0169 12.1599 27.6069 9.75562 24.4825 7.53386C21.5458 5.4317 18.0606 3.53723 15.6578 1.57353C13.2551 3.53723 9.76992 5.4317 6.83317 7.53386C3.70882 9.75562 1.29881 12.1599 1.29881 14.8977C1.29881 15.8104 1.58022 17.4845 2.63369 18.8629C3.68717 20.2413 5.44778 21.3805 8.73087 21.3805C9.88537 21.3805 12.0428 21.2798 12.8871 20.5371L13.9983 19.5741V23.3945ZM11.0399 18.9259C6.42188 18.9259 5.26739 15.9048 5.26739 13.8907C5.26739 9.86261 11.0399 7.84856 15.6578 4.82748C20.2758 7.84856 26.0483 9.86261 26.0483 13.8907C26.0483 15.9048 24.8938 18.9259 20.2758 18.9259C17.9668 18.9259 16.8123 18.9259 15.6578 15.9048C14.5034 18.9259 13.3489 18.9259 11.0399 18.9259ZM20.1099 18.0069C20.3696 18.0132 20.5356 17.9881 20.5284 17.9692C19.3378 17.5097 18.0823 16.4335 17.3102 15.3446C17.3102 15.3446 17.0793 16.4586 18.0246 17.3524C18.5585 17.8622 19.5471 18.0006 20.1099 18.0069V18.0069ZM11.0399 17.9188C9.30812 16.5656 8.05982 14.2558 7.6341 12.2291C7.6341 12.2291 6.22706 13.7208 7.0785 15.5901C7.78563 17.1321 10.6935 17.8874 11.0399 17.9188V17.9188Z" fill="#FF0000"/>
<path d="M49.8821 30L51.0366 27.8601H57.9636L59.1181 30H49.8821ZM49.2327 26.6642V23.3945H51.5417V21.9973C50.1491 22.5637 48.4679 22.5134 47.5732 22.5134C43.9293 22.5134 41.6492 21.135 40.3936 19.4923C39.1381 17.8496 38.8423 15.9992 38.8423 14.8977C38.8423 11.5934 41.6275 8.95629 44.8529 6.65272C48.0783 4.35544 51.8304 2.32879 54.0383 0.396562L54.5001 4.64228e-05L54.9619 0.396562C57.1699 2.32879 60.922 4.35544 64.1474 6.65272C67.3728 8.95629 70.158 11.5934 70.158 14.8977C70.158 15.9992 69.8621 17.8496 68.6066 19.4923C67.3511 21.135 65.071 22.5134 61.4271 22.5134C60.5324 22.5134 58.8511 22.5637 57.4585 21.9973V23.3945H59.7675V26.6642H49.2327ZM50.5316 25.5313H58.4687V24.5274H50.5316V25.5313ZM52.8405 23.3945H56.1597V19.5741L57.2709 20.5371C58.1151 21.2798 60.2726 21.3805 61.4271 21.3805C64.7102 21.3805 66.4708 20.2413 67.5243 18.8629C68.5778 17.4845 68.8592 15.8104 68.8592 14.8977C68.8592 12.1599 66.4492 9.75562 63.3248 7.53386C60.3881 5.4317 56.9029 3.53723 54.5001 1.57353C52.0973 3.53723 48.6122 5.4317 45.6755 7.53386C42.5511 9.75562 40.1411 12.1599 40.1411 14.8977C40.1411 15.8104 40.4225 17.4845 41.476 18.8629C42.5295 20.2413 44.2901 21.3805 47.5732 21.3805C48.7277 21.3805 50.8851 21.2798 51.7293 20.5371L52.8405 19.5741V23.3945ZM49.8821 18.9259C45.2642 18.9259 44.1097 15.9048 44.1097 13.8907C44.1097 9.86261 49.8821 7.84856 54.5001 4.82748C59.1181 7.84856 64.8906 9.86261 64.8906 13.8907C64.8906 15.9048 63.7361 18.9259 59.1181 18.9259C56.8091 18.9259 55.6546 18.9259 54.5001 15.9048C53.3456 18.9259 52.1911 18.9259 49.8821 18.9259ZM58.9522 18.0069C59.2119 18.0132 59.3779 17.9881 59.3707 17.9692C58.1801 17.5097 56.9246 16.4335 56.1525 15.3446C56.1525 15.3446 55.9216 16.4586 56.8668 17.3524C57.4008 17.8622 58.3893 18.0006 58.9522 18.0069V18.0069ZM49.8821 17.9188C48.1504 16.5656 46.9021 14.2558 46.4764 12.2291C46.4764 12.2291 45.0693 13.7208 45.9208 15.5901C46.6279 17.1321 49.5358 17.8874 49.8821 17.9188V17.9188Z" fill="#FF0000"/>
<path d="M88.7239 30L89.8784 27.8601H96.8054L97.9599 30H88.7239ZM88.0745 26.6642V23.3945H90.3835V21.9973C88.9909 22.5637 87.3097 22.5134 86.415 22.5134C82.7711 22.5134 80.4909 21.135 79.2354 19.4923C77.9799 17.8496 77.6841 15.9992 77.6841 14.8977C77.6841 11.5934 80.4693 8.95629 83.6947 6.65272C86.92 4.35544 90.6722 2.32879 92.8801 0.396562L93.3419 4.64228e-05L93.8037 0.396562C96.0117 2.32879 99.7638 4.35544 102.989 6.65272C106.215 8.95629 109 11.5934 109 14.8977C109 15.9992 108.704 17.8496 107.448 19.4923C106.193 21.135 103.913 22.5134 100.269 22.5134C99.3742 22.5134 97.6929 22.5637 96.3003 21.9973V23.3945H98.6093V26.6642H88.0745ZM89.3733 25.5313H97.3105V24.5274H89.3733V25.5313ZM91.6823 23.3945H95.0015V19.5741L96.1127 20.5371C96.9569 21.2798 99.1144 21.3805 100.269 21.3805C103.552 21.3805 105.313 20.2413 106.366 18.8629C107.42 17.4845 107.701 15.8104 107.701 14.8977C107.701 12.1599 105.291 9.75562 102.167 7.53386C99.2299 5.4317 95.7447 3.53723 93.3419 1.57353C90.9391 3.53723 87.454 5.4317 84.5173 7.53386C81.3929 9.75562 78.9829 12.1599 78.9829 14.8977C78.9829 15.8104 79.2643 17.4845 80.3178 18.8629C81.3713 20.2413 83.1319 21.3805 86.415 21.3805C87.5695 21.3805 89.7269 21.2798 90.5711 20.5371L91.6823 19.5741V23.3945ZM88.7239 18.9259C84.106 18.9259 82.9515 15.9048 82.9515 13.8907C82.9515 9.86261 88.7239 7.84856 93.3419 4.82748C97.9599 7.84856 103.732 9.86261 103.732 13.8907C103.732 15.9048 102.578 18.9259 97.9599 18.9259C95.6509 18.9259 94.4964 18.9259 93.3419 15.9048C92.1874 18.9259 91.0329 18.9259 88.7239 18.9259ZM97.794 18.0069C98.0537 18.0132 98.2197 17.9881 98.2125 17.9692C97.0219 17.5097 95.7664 16.4335 94.9943 15.3446C94.9943 15.3446 94.7634 16.4586 95.7086 17.3524C96.2426 17.8622 97.2311 18.0006 97.794 18.0069V18.0069ZM88.7239 17.9188C86.9922 16.5656 85.7439 14.2558 85.3182 12.2291C85.3182 12.2291 83.9111 13.7208 84.7626 15.5901C85.4697 17.1321 88.3776 17.8874 88.7239 17.9188V17.9188Z" fill="#FF0000"/>
</svg>
